<svg xmlns="http://www.w3.org/2000/svg" xmlns:xlink="http://www.w3.org/1999/xlink" contentStyleType="text/css" data-diagram-type="CLASS" height="1084px" preserveAspectRatio="none" style="width:1498px;height:1084px;background:#FFFFFF;" version="1.1" viewBox="0 0 1498 1084" width="1498px" zoomAndPan="magnify"><title>Hypercert ERD</title><defs/><g><g class="title" data-source-line="7"><text fill="#000000" font-family="sans-serif" font-size="24" font-weight="bold" lengthAdjust="spacing" textLength="157.0547" x="663.8177" y="32.2656">Hypercert ERD</text></g><!--class contributor--><g class="entity" data-entity="contributor" data-source-line="47" data-uid="ent0002" id="entity_contributor"><rect fill="#FFD4A3" height="56.4063" rx="2.5" ry="2.5" style="stroke:#181818;stroke-width:0.5;" width="167.4219" x="1058.51" y="707.415"/><ellipse cx="1103.6409" cy="723.415" fill="#ADD1B2" rx="11" ry="11" style="stroke:#181818;stroke-width:1;"/><path d="M1099.7034,729.415 L1107.219,729.415 L1107.219,727.3056 L1102.219,727.3056 L1102.219,724.7588 L1106.3127,724.7588 L1106.3127,722.665 L1102.219,722.665 L1102.219,720.4463 L1107.0471,720.4463 L1107.0471,718.3369 L1099.7034,718.3369 L1099.7034,729.415 Z " fill="#000000"/><text fill="#000000" font-family="sans-serif" font-size="14" lengthAdjust="spacing" textLength="68.6602" x="1124.1409" y="728.2002">contributor</text><line style="stroke:#181818;stroke-width:0.5;" x1="1059.51" x2="1224.9319" y1="739.415" y2="739.415"/><text fill="#000000" font-family="sans-serif" font-size="14" lengthAdjust="spacing" textLength="155.4219" x="1064.51" y="756.4033">DID or name/pseudonym</text></g><!--class activity--><g class="entity" data-entity="activity" data-source-line="55" data-uid="ent0003" id="entity_activity"><rect fill="#B4E5D0" height="221.9063" rx="2.5" ry="2.5" style="stroke:#181818;stroke-width:0.5;" width="115.1201" x="551.72" y="625.125"/><ellipse cx="574.6719" cy="641.8438" fill="#7E57C2" rx="11" ry="11" style="stroke:#181818;stroke-width:1;"/><path d="M571.8594,647.8438 L575.0782,647.8438 C578.1563,647.8438 580.2657,646.0625 580.2657,642.25 C580.2657,638.4375 578.1563,636.7656 574.9219,636.7656 L571.8594,636.7656 L571.8594,647.8438 Z M574.375,645.8281 L574.375,638.7813 L574.7813,638.7813 C576.5157,638.7813 577.6875,639.5938 577.6875,642.25 C577.6875,644.9063 576.5157,645.8281 574.7813,645.8281 L574.375,645.8281 Z " fill="#000000"/><text fill="#000000" font-family="sans-serif" font-size="20" font-weight="bold" lengthAdjust="spacing" textLength="65.4492" x="590.439" y="648.6797">activity</text><line style="stroke:#181818;stroke-width:0.5;" x1="552.72" x2="665.8401" y1="658.5625" y2="658.5625"/><text fill="#000000" font-family="sans-serif" font-size="14" lengthAdjust="spacing" textLength="23.3926" x="557.72" y="675.5508">title</text><text fill="#000000" font-family="sans-serif" font-size="14" lengthAdjust="spacing" textLength="103.1201" x="557.72" y="691.957">shortDescription</text><text fill="#000000" font-family="sans-serif" font-size="14" lengthAdjust="spacing" textLength="76.2002" x="557.72" y="708.3633">description?</text><text fill="#000000" font-family="sans-serif" font-size="14" lengthAdjust="spacing" textLength="45.1992" x="557.72" y="724.7695">image?</text><text fill="#000000" font-family="sans-serif" font-size="14" lengthAdjust="spacing" textLength="75.8721" x="557.72" y="741.1758">workScope?</text><text fill="#000000" font-family="sans-serif" font-size="14" lengthAdjust="spacing" textLength="64.1689" x="557.72" y="757.582">startDate?</text><text fill="#000000" font-family="sans-serif" font-size="14" lengthAdjust="spacing" textLength="58.4746" x="557.72" y="773.9883">endDate?</text><text fill="#000000" font-family="sans-serif" font-size="14" lengthAdjust="spacing" textLength="96.3184" x="557.72" y="790.3945">contributions[]?</text><text fill="#000000" font-family="sans-serif" font-size="14" lengthAdjust="spacing" textLength="71.2988" x="557.72" y="806.8008">locations[]?</text><text fill="#000000" font-family="sans-serif" font-size="14" lengthAdjust="spacing" textLength="42.1436" x="557.72" y="823.207">rights?</text><text fill="#000000" font-family="sans-serif" font-size="14" lengthAdjust="spacing" textLength="60.7236" x="557.72" y="839.6133">createdAt</text></g><!--class evidence--><g class="entity" data-entity="evidence" data-source-line="72" data-uid="ent0004" id="entity_evidence"><rect fill="#F1F1F1" height="154.8438" rx="2.5" ry="2.5" style="stroke:#181818;stroke-width:0.5;" width="121.7373" x="313.72" y="361.625"/><ellipse cx="344.1663" cy="377.625" fill="#7E57C2" rx="11" ry="11" style="stroke:#181818;stroke-width:1;"/><path d="M341.3538,383.625 L344.5726,383.625 C347.6507,383.625 349.7601,381.8438 349.7601,378.0313 C349.7601,374.2188 347.6507,372.5469 344.4163,372.5469 L341.3538,372.5469 L341.3538,383.625 Z M343.8695,381.6094 L343.8695,374.5625 L344.2757,374.5625 C346.0101,374.5625 347.182,375.375 347.182,378.0313 C347.182,380.6875 346.0101,381.6094 344.2757,381.6094 L343.8695,381.6094 Z " fill="#000000"/><text fill="#000000" font-family="sans-serif" font-size="14" lengthAdjust="spacing" textLength="55.4121" x="361.5989" y="382.4102">evidence</text><line style="stroke:#181818;stroke-width:0.5;" x1="314.72" x2="434.4573" y1="393.625" y2="393.625"/><text fill="#000000" font-family="sans-serif" font-size="14" lengthAdjust="spacing" textLength="52.1035" x="319.72" y="410.6133">subject?</text><text fill="#000000" font-family="sans-serif" font-size="14" lengthAdjust="spacing" textLength="47.3594" x="319.72" y="427.0195">content</text><text fill="#000000" font-family="sans-serif" font-size="14" lengthAdjust="spacing" textLength="23.3926" x="319.72" y="443.4258">title</text><text fill="#000000" font-family="sans-serif" font-size="14" lengthAdjust="spacing" textLength="109.7373" x="319.72" y="459.832">shortDescription?</text><text fill="#000000" font-family="sans-serif" font-size="14" lengthAdjust="spacing" textLength="76.2002" x="319.72" y="476.2383">description?</text><text fill="#000000" font-family="sans-serif" font-size="14" lengthAdjust="spacing" textLength="83.7676" x="319.72" y="492.6445">relationType?</text><text fill="#000000" font-family="sans-serif" font-size="14" lengthAdjust="spacing" textLength="60.7236" x="319.72" y="509.0508">createdAt</text></g><!--class measurement--><g class="entity" data-entity="measurement" data-source-line="85" data-uid="ent0005" id="entity_measurement"><rect fill="#F1F1F1" height="187.6563" rx="2.5" ry="2.5" style="stroke:#181818;stroke-width:0.5;" width="118.4404" x="144.22" y="345.125"/><ellipse cx="159.22" cy="361.125" fill="#7E57C2" rx="11" ry="11" style="stroke:#181818;stroke-width:1;"/><path d="M156.4075,367.125 L159.6263,367.125 C162.7044,367.125 164.8138,365.3438 164.8138,361.5313 C164.8138,357.7188 162.7044,356.0469 159.47,356.0469 L156.4075,356.0469 L156.4075,367.125 Z M158.9231,365.1094 L158.9231,358.0625 L159.3294,358.0625 C161.0638,358.0625 162.2356,358.875 162.2356,361.5313 C162.2356,364.1875 161.0638,365.1094 159.3294,365.1094 L158.9231,365.1094 Z " fill="#000000"/><text fill="#000000" font-family="sans-serif" font-size="14" lengthAdjust="spacing" textLength="86.4404" x="173.22" y="365.9102">measurement</text><line style="stroke:#181818;stroke-width:0.5;" x1="145.22" x2="261.6604" y1="377.125" y2="377.125"/><text fill="#000000" font-family="sans-serif" font-size="14" lengthAdjust="spacing" textLength="52.1035" x="150.22" y="394.1133">subject?</text><text fill="#000000" font-family="sans-serif" font-size="14" lengthAdjust="spacing" textLength="73.8213" x="150.22" y="410.5195">measurers[]</text><text fill="#000000" font-family="sans-serif" font-size="14" lengthAdjust="spacing" textLength="39.7578" x="150.22" y="426.9258">metric</text><text fill="#000000" font-family="sans-serif" font-size="14" lengthAdjust="spacing" textLength="32.9424" x="150.22" y="443.332">value</text><text fill="#000000" font-family="sans-serif" font-size="14" lengthAdjust="spacing" textLength="84.752" x="150.22" y="459.7383">methodType?</text><text fill="#000000" font-family="sans-serif" font-size="14" lengthAdjust="spacing" textLength="76.002" x="150.22" y="476.1445">methodURI?</text><text fill="#000000" font-family="sans-serif" font-size="14" lengthAdjust="spacing" textLength="90.9658" x="150.22" y="492.5508">evidenceURI[]?</text><text fill="#000000" font-family="sans-serif" font-size="14" lengthAdjust="spacing" textLength="56.6494" x="150.22" y="508.957">location?</text><text fill="#000000" font-family="sans-serif" font-size="14" lengthAdjust="spacing" textLength="60.7236" x="150.22" y="525.3633">createdAt</text></g><!--class evaluation--><g class="entity" data-entity="evaluation" data-source-line="100" data-uid="ent0006" id="entity_evaluation"><rect fill="#F1F1F1" height="171.25" rx="2.5" ry="2.5" style="stroke:#181818;stroke-width:0.5;" width="119.707" x="196.72" y="80.625"/><ellipse cx="222.2721" cy="96.625" fill="#7E57C2" rx="11" ry="11" style="stroke:#181818;stroke-width:1;"/><path d="M219.4596,102.625 L222.6784,102.625 C225.7565,102.625 227.8659,100.8438 227.8659,97.0313 C227.8659,93.2188 225.7565,91.5469 222.5221,91.5469 L219.4596,91.5469 L219.4596,102.625 Z M221.9753,100.6094 L221.9753,93.5625 L222.3815,93.5625 C224.1159,93.5625 225.2878,94.375 225.2878,97.0313 C225.2878,99.6875 224.1159,100.6094 222.3815,100.6094 L221.9753,100.6094 Z " fill="#000000"/><text fill="#000000" font-family="sans-serif" font-size="14" lengthAdjust="spacing" textLength="64.2578" x="238.6171" y="101.4102">evaluation</text><line style="stroke:#181818;stroke-width:0.5;" x1="197.72" x2="315.427" y1="112.625" y2="112.625"/><text fill="#000000" font-family="sans-serif" font-size="14" lengthAdjust="spacing" textLength="52.1035" x="202.72" y="129.6133">subject?</text><text fill="#000000" font-family="sans-serif" font-size="14" lengthAdjust="spacing" textLength="58.4814" x="202.72" y="146.0195">summary</text><text fill="#000000" font-family="sans-serif" font-size="14" lengthAdjust="spacing" textLength="72.5156" x="202.72" y="162.4258">evaluators[]</text><text fill="#000000" font-family="sans-serif" font-size="14" lengthAdjust="spacing" textLength="61.4004" x="202.72" y="178.832">content[]?</text><text fill="#000000" font-family="sans-serif" font-size="14" lengthAdjust="spacing" textLength="107.707" x="202.72" y="195.2383">measurements[]?</text><text fill="#000000" font-family="sans-serif" font-size="14" lengthAdjust="spacing" textLength="34.7061" x="202.72" y="211.6445">score</text><text fill="#000000" font-family="sans-serif" font-size="14" lengthAdjust="spacing" textLength="56.6494" x="202.72" y="228.0508">location?</text><text fill="#000000" font-family="sans-serif" font-size="14" lengthAdjust="spacing" textLength="60.7236" x="202.72" y="244.457">createdAt</text></g><!--class contribution--><g class="entity" data-entity="contribution" data-source-line="114" data-uid="ent0007" id="entity_contribution"><rect fill="#F1F1F1" height="138.4375" rx="2.5" ry="2.5" style="stroke:#181818;stroke-width:0.5;" width="107.0518" x="1048.72" y="369.625"/><ellipse cx="1063.72" cy="385.625" fill="#7E57C2" rx="11" ry="11" style="stroke:#181818;stroke-width:1;"/><path d="M1060.9075,391.625 L1064.1263,391.625 C1067.2044,391.625 1069.3138,389.8438 1069.3138,386.0313 C1069.3138,382.2188 1067.2044,380.5469 1063.97,380.5469 L1060.9075,380.5469 L1060.9075,391.625 Z M1063.4231,389.6094 L1063.4231,382.5625 L1063.8294,382.5625 C1065.5638,382.5625 1066.7356,383.375 1066.7356,386.0313 C1066.7356,388.6875 1065.5638,389.6094 1063.8294,389.6094 L1063.4231,389.6094 Z " fill="#000000"/><text fill="#000000" font-family="sans-serif" font-size="14" lengthAdjust="spacing" textLength="75.0518" x="1077.72" y="390.4102">contribution</text><line style="stroke:#181818;stroke-width:0.5;" x1="1049.72" x2="1154.7718" y1="401.625" y2="401.625"/><text fill="#000000" font-family="sans-serif" font-size="14" lengthAdjust="spacing" textLength="30.1738" x="1054.72" y="418.6133">role?</text><text fill="#000000" font-family="sans-serif" font-size="14" lengthAdjust="spacing" textLength="83.3096" x="1054.72" y="435.0195">contributors[]</text><text fill="#000000" font-family="sans-serif" font-size="14" lengthAdjust="spacing" textLength="76.2002" x="1054.72" y="451.4258">description?</text><text fill="#000000" font-family="sans-serif" font-size="14" lengthAdjust="spacing" textLength="64.1689" x="1054.72" y="467.832">startDate?</text><text fill="#000000" font-family="sans-serif" font-size="14" lengthAdjust="spacing" textLength="58.4746" x="1054.72" y="484.2383">endDate?</text><text fill="#000000" font-family="sans-serif" font-size="14" lengthAdjust="spacing" textLength="60.7236" x="1054.72" y="500.6445">createdAt</text></g><!--class location--><g class="entity" data-entity="location" data-source-line="126" data-uid="ent0008" id="entity_location"><rect fill="#F1F1F1" height="154.8438" rx="2.5" ry="2.5" style="stroke:#181818;stroke-width:0.5;" width="92.2949" x="455.07" y="923.125"/><ellipse cx="474.6882" cy="939.125" fill="#7E57C2" rx="11" ry="11" style="stroke:#181818;stroke-width:1;"/><path d="M471.8757,945.125 L475.0945,945.125 C478.1726,945.125 480.282,943.3438 480.282,939.5313 C480.282,935.7188 478.1726,934.0469 474.9382,934.0469 L471.8757,934.0469 L471.8757,945.125 Z M474.3913,943.1094 L474.3913,936.0625 L474.7976,936.0625 C476.532,936.0625 477.7038,936.875 477.7038,939.5313 C477.7038,942.1875 476.532,943.1094 474.7976,943.1094 L474.3913,943.1094 Z " fill="#000000"/><text fill="#000000" font-family="sans-serif" font-size="14" lengthAdjust="spacing" textLength="50.0322" x="489.7145" y="943.9102">location</text><line style="stroke:#181818;stroke-width:0.5;" x1="456.07" x2="546.3649" y1="955.125" y2="955.125"/><text fill="#000000" font-family="sans-serif" font-size="14" lengthAdjust="spacing" textLength="58.6934" x="461.07" y="972.1133">lpVersion</text><text fill="#000000" font-family="sans-serif" font-size="14" lengthAdjust="spacing" textLength="19.1953" x="461.07" y="988.5195">srs</text><text fill="#000000" font-family="sans-serif" font-size="14" lengthAdjust="spacing" textLength="80.2949" x="461.07" y="1004.9258">locationType</text><text fill="#000000" font-family="sans-serif" font-size="14" lengthAdjust="spacing" textLength="50.0322" x="461.07" y="1021.332">location</text><text fill="#000000" font-family="sans-serif" font-size="14" lengthAdjust="spacing" textLength="41.665" x="461.07" y="1037.7383">name?</text><text fill="#000000" font-family="sans-serif" font-size="14" lengthAdjust="spacing" textLength="76.2002" x="461.07" y="1054.1445">description?</text><text fill="#000000" font-family="sans-serif" font-size="14" lengthAdjust="spacing" textLength="60.7236" x="461.07" y="1070.5508">createdAt</text></g><!--class badgeDefinition--><g class="entity" data-entity="badgeDefinition" data-source-line="139" data-uid="ent0009" id="entity_badgeDefinition"><rect fill="#F1F1F1" height="138.4375" rx="2.5" ry="2.5" style="stroke:#181818;stroke-width:0.5;" width="130.376" x="1268.03" y="666.405"/><ellipse cx="1283.03" cy="682.405" fill="#7E57C2" rx="11" ry="11" style="stroke:#181818;stroke-width:1;"/><path d="M1280.2175,688.405 L1283.4363,688.405 C1286.5144,688.405 1288.6238,686.6238 1288.6238,682.8113 C1288.6238,678.9988 1286.5144,677.3269 1283.28,677.3269 L1280.2175,677.3269 L1280.2175,688.405 Z M1282.7331,686.3894 L1282.7331,679.3425 L1283.1394,679.3425 C1284.8738,679.3425 1286.0456,680.155 1286.0456,682.8113 C1286.0456,685.4675 1284.8738,686.3894 1283.1394,686.3894 L1282.7331,686.3894 Z " fill="#000000"/><text fill="#000000" font-family="sans-serif" font-size="14" lengthAdjust="spacing" textLength="98.376" x="1297.03" y="687.1902">badgeDefinition</text><line style="stroke:#181818;stroke-width:0.5;" x1="1269.03" x2="1397.406" y1="698.405" y2="698.405"/><text fill="#000000" font-family="sans-serif" font-size="14" lengthAdjust="spacing" textLength="68.9199" x="1274.03" y="715.3933">badgeType</text><text fill="#000000" font-family="sans-serif" font-size="14" lengthAdjust="spacing" textLength="23.3926" x="1274.03" y="731.7995">title</text><text fill="#000000" font-family="sans-serif" font-size="14" lengthAdjust="spacing" textLength="26.4482" x="1274.03" y="748.2058">icon</text><text fill="#000000" font-family="sans-serif" font-size="14" lengthAdjust="spacing" textLength="76.2002" x="1274.03" y="764.612">description?</text><text fill="#000000" font-family="sans-serif" font-size="14" lengthAdjust="spacing" textLength="107.6592" x="1274.03" y="781.0183">allowedIssuers[]?</text><text fill="#000000" font-family="sans-serif" font-size="14" lengthAdjust="spacing" textLength="60.7236" x="1274.03" y="797.4245">createdAt</text></g><!--class badgeAward--><g class="entity" data-entity="badgeAward" data-source-line="150" data-uid="ent0010" id="entity_badgeAward"><rect fill="#F1F1F1" height="105.625" rx="2.5" ry="2.5" style="stroke:#181818;stroke-width:0.5;" width="110.5654" x="1278.22" y="386.125"/><ellipse cx="1293.22" cy="402.125" fill="#7E57C2" rx="11" ry="11" style="stroke:#181818;stroke-width:1;"/><path d="M1290.4075,408.125 L1293.6263,408.125 C1296.7044,408.125 1298.8138,406.3438 1298.8138,402.5313 C1298.8138,398.7188 1296.7044,397.0469 1293.47,397.0469 L1290.4075,397.0469 L1290.4075,408.125 Z M1292.9231,406.1094 L1292.9231,399.0625 L1293.3294,399.0625 C1295.0638,399.0625 1296.2356,399.875 1296.2356,402.5313 C1296.2356,405.1875 1295.0638,406.1094 1293.3294,406.1094 L1292.9231,406.1094 Z " fill="#000000"/><text fill="#000000" font-family="sans-serif" font-size="14" lengthAdjust="spacing" textLength="78.5654" x="1307.22" y="406.9102">badgeAward</text><line style="stroke:#181818;stroke-width:0.5;" x1="1279.22" x2="1387.7854" y1="418.125" y2="418.125"/><text fill="#000000" font-family="sans-serif" font-size="14" lengthAdjust="spacing" textLength="38.6572" x="1284.22" y="435.1133">badge</text><text fill="#000000" font-family="sans-serif" font-size="14" lengthAdjust="spacing" textLength="45.4863" x="1284.22" y="451.5195">subject</text><text fill="#000000" font-family="sans-serif" font-size="14" lengthAdjust="spacing" textLength="34.3369" x="1284.22" y="467.9258">note?</text><text fill="#000000" font-family="sans-serif" font-size="14" lengthAdjust="spacing" textLength="60.7236" x="1284.22" y="484.332">createdAt</text></g><!--class badgeResponse--><g class="entity" data-entity="badgeResponse" data-source-line="159" data-uid="ent0011" id="entity_badgeResponse"><rect fill="#F1F1F1" height="105.625" rx="2.5" ry="2.5" style="stroke:#181818;stroke-width:0.5;" width="132.1602" x="1267.22" y="113.625"/><ellipse cx="1282.22" cy="129.625" fill="#7E57C2" rx="11" ry="11" style="stroke:#181818;stroke-width:1;"/><path d="M1279.4075,135.625 L1282.6263,135.625 C1285.7044,135.625 1287.8138,133.8438 1287.8138,130.0313 C1287.8138,126.2188 1285.7044,124.5469 1282.47,124.5469 L1279.4075,124.5469 L1279.4075,135.625 Z M1281.9231,133.6094 L1281.9231,126.5625 L1282.3294,126.5625 C1284.0638,126.5625 1285.2356,127.375 1285.2356,130.0313 C1285.2356,132.6875 1284.0638,133.6094 1282.3294,133.6094 L1281.9231,133.6094 Z " fill="#000000"/><text fill="#000000" font-family="sans-serif" font-size="14" lengthAdjust="spacing" textLength="100.1602" x="1296.22" y="134.4102">badgeResponse</text><line style="stroke:#181818;stroke-width:0.5;" x1="1268.22" x2="1398.3802" y1="145.625" y2="145.625"/><text fill="#000000" font-family="sans-serif" font-size="14" lengthAdjust="spacing" textLength="78.5654" x="1273.22" y="162.6133">badgeAward</text><text fill="#000000" font-family="sans-serif" font-size="14" lengthAdjust="spacing" textLength="57.6201" x="1273.22" y="179.0195">response</text><text fill="#000000" font-family="sans-serif" font-size="14" lengthAdjust="spacing" textLength="48.1182" x="1273.22" y="195.4258">weight?</text><text fill="#000000" font-family="sans-serif" font-size="14" lengthAdjust="spacing" textLength="60.7236" x="1273.22" y="211.832">createdAt</text></g><!--class rights--><g class="entity" data-entity="rights" data-source-line="169" data-uid="ent0012" id="entity_rights"><rect fill="#F1F1F1" height="122.0313" rx="2.5" ry="2.5" style="stroke:#181818;stroke-width:0.5;" width="118.4014" x="634.02" y="939.525"/><ellipse cx="671.9137" cy="955.525" fill="#7E57C2" rx="11" ry="11" style="stroke:#181818;stroke-width:1;"/><path d="M669.1012,961.525 L672.32,961.525 C675.3981,961.525 677.5075,959.7438 677.5075,955.9313 C677.5075,952.1188 675.3981,950.4469 672.1637,950.4469 L669.1012,950.4469 L669.1012,961.525 Z M671.6169,959.5094 L671.6169,952.4625 L672.0231,952.4625 C673.7575,952.4625 674.9294,953.275 674.9294,955.9313 C674.9294,958.5875 673.7575,959.5094 672.0231,959.5094 L671.6169,959.5094 Z " fill="#000000"/><text fill="#000000" font-family="sans-serif" font-size="14" lengthAdjust="spacing" textLength="35.5264" x="691.0013" y="960.3102">rights</text><line style="stroke:#181818;stroke-width:0.5;" x1="635.02" x2="751.4214" y1="971.525" y2="971.525"/><text fill="#000000" font-family="sans-serif" font-size="14" lengthAdjust="spacing" textLength="72.8301" x="640.02" y="988.5133">rightsName</text><text fill="#000000" font-family="sans-serif" font-size="14" lengthAdjust="spacing" textLength="65.7891" x="640.02" y="1004.9195">rightsType</text><text fill="#000000" font-family="sans-serif" font-size="14" lengthAdjust="spacing" textLength="106.4014" x="640.02" y="1021.3258">rightsDescription</text><text fill="#000000" font-family="sans-serif" font-size="14" lengthAdjust="spacing" textLength="78.0596" x="640.02" y="1037.732">attachment?</text><text fill="#000000" font-family="sans-serif" font-size="14" lengthAdjust="spacing" textLength="60.7236" x="640.02" y="1054.1383">createdAt</text></g><!--class collection--><g class="entity" data-entity="collection" data-source-line="182" data-uid="ent0013" id="entity_collection"><rect fill="#F1F1F1" height="146.4375" rx="2.5" ry="2.5" style="stroke:#181818;stroke-width:0.5;" width="164.7012" x="833.22" y="365.625"/><ellipse cx="881.034" cy="381.625" fill="#7E57C2" rx="11" ry="11" style="stroke:#181818;stroke-width:1;"/><path d="M878.2215,387.625 L881.4402,387.625 C884.5183,387.625 886.6277,385.8438 886.6277,382.0313 C886.6277,378.2188 884.5183,376.5469 881.284,376.5469 L878.2215,376.5469 L878.2215,387.625 Z M880.7371,385.6094 L880.7371,378.5625 L881.1433,378.5625 C882.8777,378.5625 884.0496,379.375 884.0496,382.0313 C884.0496,384.6875 882.8777,385.6094 881.1433,385.6094 L880.7371,385.6094 Z " fill="#000000"/><text fill="#000000" font-family="sans-serif" font-size="14" lengthAdjust="spacing" textLength="60.5732" x="901.534" y="386.4102">collection</text><line style="stroke:#181818;stroke-width:0.5;" x1="834.22" x2="996.9212" y1="397.625" y2="397.625"/><text fill="#000000" font-family="sans-serif" font-size="14" lengthAdjust="spacing" textLength="33.1064" x="839.22" y="414.6133">type?</text><text fill="#000000" font-family="sans-serif" font-size="14" lengthAdjust="spacing" textLength="23.3926" x="839.22" y="431.0195">title</text><text fill="#000000" font-family="sans-serif" font-size="14" lengthAdjust="spacing" textLength="109.7373" x="839.22" y="447.4258">shortDescription?</text><text fill="#000000" font-family="sans-serif" font-size="14" lengthAdjust="spacing" textLength="42.335" x="839.22" y="463.832">items[]</text><text fill="#000000" font-family="sans-serif" font-size="14" lengthAdjust="spacing" textLength="60.7236" x="839.22" y="480.2383">createdAt</text><line style="stroke:#181818;stroke-width:0.5;" x1="834.22" x2="996.9212" y1="487.6563" y2="487.6563"/><text fill="#000000" font-family="sans-serif" font-size="14" lengthAdjust="spacing" textLength="152.7012" x="839.22" y="504.6445">description? (Leaflet ref)</text></g><!--class collectionProject--><g class="entity" data-entity="collectionProject" data-source-line="194" data-uid="ent0014" id="entity_collectionProject"><rect fill="#F1F1F1" height="146.4375" rx="2.5" ry="2.5" style="stroke:#181818;stroke-width:0.5;" width="202.6475" x="813.9" y="662.405"/><ellipse cx="858.566" cy="678.405" fill="#7E57C2" rx="11" ry="11" style="stroke:#181818;stroke-width:1;"/><path d="M855.7535,684.405 L858.9723,684.405 C862.0504,684.405 864.1598,682.6238 864.1598,678.8113 C864.1598,674.9988 862.0504,673.3269 858.816,673.3269 L855.7535,673.3269 L855.7535,684.405 Z M858.2691,682.3894 L858.2691,675.3425 L858.6754,675.3425 C860.4098,675.3425 861.5816,676.155 861.5816,678.8113 C861.5816,681.4675 860.4098,682.3894 858.6754,682.3894 L858.2691,682.3894 Z " fill="#000000"/><text fill="#000000" font-family="sans-serif" font-size="14" lengthAdjust="spacing" textLength="104.8154" x="879.066" y="683.1902">collectionProject</text><line style="stroke:#181818;stroke-width:0.5;" x1="814.9" x2="1015.5475" y1="694.405" y2="694.405"/><text fill="#000000" font-family="sans-serif" font-size="14" lengthAdjust="spacing" textLength="77.0547" x="819.9" y="711.3933">projectTitle?</text><text fill="#000000" font-family="sans-serif" font-size="14" lengthAdjust="spacing" textLength="153.9795" x="819.9" y="727.7995">shortProjectDescription?</text><text fill="#000000" font-family="sans-serif" font-size="14" lengthAdjust="spacing" textLength="45.5684" x="819.9" y="744.2058">avatar?</text><text fill="#000000" font-family="sans-serif" font-size="14" lengthAdjust="spacing" textLength="77.9707" x="819.9" y="760.612">coverPhoto?</text><text fill="#000000" font-family="sans-serif" font-size="14" lengthAdjust="spacing" textLength="60.7236" x="819.9" y="777.0183">createdAt</text><line style="stroke:#181818;stroke-width:0.5;" x1="814.9" x2="1015.5475" y1="784.4363" y2="784.4363"/><text fill="#000000" font-family="sans-serif" font-size="14" lengthAdjust="spacing" textLength="190.6475" x="819.9" y="801.4245">projectDescription (Leaflet ref)</text></g><!--class funder--><g class="entity" data-entity="funder" data-source-line="209" data-uid="ent0015" id="entity_funder"><rect fill="#FFD4A3" height="56.4063" rx="2.5" ry="2.5" style="stroke:#181818;stroke-width:0.5;" width="167.4219" x="525.51" y="410.415"/><ellipse cx="584.781" cy="426.415" fill="#ADD1B2" rx="11" ry="11" style="stroke:#181818;stroke-width:1;"/><path d="M580.8435,432.415 L588.3591,432.415 L588.3591,430.3056 L583.3591,430.3056 L583.3591,427.7588 L587.4529,427.7588 L587.4529,425.665 L583.3591,425.665 L583.3591,423.4463 L588.1872,423.4463 L588.1872,421.3369 L580.8435,421.3369 L580.8435,432.415 Z " fill="#000000"/><text fill="#000000" font-family="sans-serif" font-size="14" lengthAdjust="spacing" textLength="40.3799" x="605.281" y="431.2002">funder</text><line style="stroke:#181818;stroke-width:0.5;" x1="526.51" x2="691.9319" y1="442.415" y2="442.415"/><text fill="#000000" font-family="sans-serif" font-size="14" lengthAdjust="spacing" textLength="155.4219" x="531.51" y="459.4033">DID or name/pseudonym</text></g><!--class fundingReceipt--><g class="entity" data-entity="fundingReceipt" data-source-line="216" data-uid="ent0016" id="entity_fundingReceipt"><rect fill="#F1F1F1" height="220.4688" rx="2.5" ry="2.5" style="stroke:#181818;stroke-width:0.5;" width="125.8574" x="700.72" y="56.125"/><ellipse cx="715.72" cy="72.125" fill="#7E57C2" rx="11" ry="11" style="stroke:#181818;stroke-width:1;"/><path d="M712.9075,78.125 L716.1262,78.125 C719.2044,78.125 721.3137,76.3438 721.3137,72.5313 C721.3137,68.7188 719.2044,67.0469 715.97,67.0469 L712.9075,67.0469 L712.9075,78.125 Z M715.4231,76.1094 L715.4231,69.0625 L715.8294,69.0625 C717.5637,69.0625 718.7356,69.875 718.7356,72.5313 C718.7356,75.1875 717.5637,76.1094 715.8294,76.1094 L715.4231,76.1094 Z " fill="#000000"/><text fill="#000000" font-family="sans-serif" font-size="14" lengthAdjust="spacing" textLength="93.8574" x="729.72" y="76.9102">fundingReceipt</text><line style="stroke:#181818;stroke-width:0.5;" x1="701.72" x2="825.5774" y1="88.125" y2="88.125"/><text fill="#000000" font-family="sans-serif" font-size="14" lengthAdjust="spacing" textLength="12.5645" x="706.72" y="105.1133">to</text><text fill="#000000" font-family="sans-serif" font-size="14" lengthAdjust="spacing" textLength="29.873" x="706.72" y="121.5195">from</text><text fill="#000000" font-family="sans-serif" font-size="14" lengthAdjust="spacing" textLength="24.2129" x="706.72" y="137.9258">for?</text><text fill="#000000" font-family="sans-serif" font-size="14" lengthAdjust="spacing" textLength="47.9063" x="706.72" y="154.332">amount</text><text fill="#000000" font-family="sans-serif" font-size="14" lengthAdjust="spacing" textLength="53.6416" x="706.72" y="170.7383">currency</text><text fill="#000000" font-family="sans-serif" font-size="14" lengthAdjust="spacing" textLength="83.7813" x="706.72" y="187.1445">paymentRail?</text><text fill="#000000" font-family="sans-serif" font-size="14" lengthAdjust="spacing" textLength="113.0664" x="706.72" y="203.5508">paymentNetwork?</text><text fill="#000000" font-family="sans-serif" font-size="14" lengthAdjust="spacing" textLength="88.8604" x="706.72" y="219.957">transactionId?</text><text fill="#000000" font-family="sans-serif" font-size="14" lengthAdjust="spacing" textLength="41.5625" x="706.72" y="236.3633">notes?</text><text fill="#000000" font-family="sans-serif" font-size="14" lengthAdjust="spacing" textLength="75.4961" x="706.72" y="252.7695">occurredAt?</text><text fill="#000000" font-family="sans-serif" font-size="14" lengthAdjust="spacing" textLength="60.7236" x="706.72" y="269.1758">createdAt</text></g><!--class token--><g class="entity" data-entity="token" data-source-line="237" data-uid="ent0017" id="entity_token"><rect fill="#FFB6C1" height="65.8438" rx="2.5" ry="2.5" style="stroke:#181818;stroke-width:0.5;" width="104.2578" x="361.09" y="702.695"/><ellipse cx="385.7632" cy="719.4138" fill="#F1F1F1" rx="11" ry="11" style="stroke:#181818;stroke-width:1;"/><path d="M382.5445,725.4138 L385.0445,725.4138 L385.0445,721.6638 L386.4664,721.6638 C388.8101,721.6638 390.7945,720.5075 390.7945,717.8981 C390.7945,715.2106 388.857,714.3356 386.4664,714.3356 L382.5445,714.3356 L382.5445,725.4138 Z M385.0445,719.6638 L385.0445,716.32 L386.3101,716.32 C387.6382,716.32 388.357,716.7419 388.357,717.8981 C388.357,719.0544 387.6851,719.6638 386.3101,719.6638 L385.0445,719.6638 Z " fill="#000000"/><text fill="#000000" font-family="sans-serif" font-size="20" font-weight="bold" lengthAdjust="spacing" textLength="50.7617" x="401.9129" y="726.2497">token</text><line style="stroke:#181818;stroke-width:0.5;" x1="362.09" x2="464.3478" y1="736.1325" y2="736.1325"/><line style="stroke:#181818;stroke-width:0.5;" x1="362.09" x2="464.3478" y1="744.1325" y2="744.1325"/><text fill="#000000" font-family="sans-serif" font-size="14" lengthAdjust="spacing" textLength="92.2578" x="367.09" y="761.1208">(on-chain only)</text></g><!--class hiddenLocation1--><g class="entity" data-entity="hiddenLocation1" data-source-line="270" data-uid="ent0023" id="entity_hiddenLocation1"><rect fill="none" height="34.4063" rx="2.5" ry="2.5" style="stroke:none;stroke-width:0.5;" width="12" x="478.22" y="421.415"/><text fill="#000000" font-family="sans-serif" font-size="14" lengthAdjust="spacing" textLength="3.4727" x="482.4837" y="439.4033">&#160;</text><line style="stroke:none;stroke-width:0.5;" x1="479.22" x2="489.22" y1="447.8213" y2="447.8213"/></g><!--class hiddenLocation2--><g class="entity" data-entity="hiddenLocation2" data-source-line="287" data-uid="ent0028" id="entity_hiddenLocation2"><rect fill="none" height="34.4063" rx="2.5" ry="2.5" style="stroke:none;stroke-width:0.5;" width="12" x="175.22" y="718.415"/><text fill="#000000" font-family="sans-serif" font-size="14" lengthAdjust="spacing" textLength="3.4727" x="179.4837" y="736.4033">&#160;</text><line style="stroke:none;stroke-width:0.5;" x1="176.22" x2="186.22" y1="744.8213" y2="744.8213"/></g><!--reverse link token to activity--><!--link token to activity--><g class="link" data-entity-1="token" data-entity-2="activity" data-source-line="308" data-uid="lnk39" id="link_token_activity"><path codeLine="308" d="M465.75,735.625 C489.79,735.625 512.52,735.625 537.93,735.625" fill="none" id="token-to-activity" style="stroke:#666666;stroke-width:1;stroke-dasharray:7,7;"/><polygon fill="#666666" points="543.93,735.625,534.93,731.625,538.93,735.625,534.93,739.625,543.93,735.625" style="stroke:#666666;stroke-width:1;"/><text fill="#666666" font-family="sans-serif" font-size="10" lengthAdjust="spacing" textLength="42.7246" x="483.54" y="729.9023">tokenizes</text></g><!--link evaluation to evidence--><g class="link" data-entity-1="evaluation" data-entity-2="evidence" data-source-line="257" data-uid="lnk20" id="link_evaluation_evidence"><path codeLine="257" d="M316.72,124.625 C364.1,124.625 373.7191,259.0955 374.9691,351.8255" fill="none" id="evaluation-to-evidence" style="stroke:#666666;stroke-width:1;"/><polygon fill="#666666" points="375.05,357.825,378.9283,348.7719,374.9826,352.8255,370.9291,348.8797,375.05,357.825" style="stroke:#666666;stroke-width:1;"/></g><!--link evaluation to measurement--><g class="link" data-entity-1="evaluation" data-entity-2="measurement" data-source-line="258" data-uid="lnk21" id="link_evaluation_measurement"><path codeLine="258" d="M195.72,189.625 C132.29,189.625 142.5297,265.9452 164.1897,335.6552" fill="none" id="evaluation-to-measurement" style="stroke:#666666;stroke-width:1;"/><polygon fill="#666666" points="165.97,341.385,167.1194,331.6034,164.4864,336.6102,159.4796,333.9772,165.97,341.385" style="stroke:#666666;stroke-width:1;"/></g><!--link evaluation to activity--><g class="link" data-entity-1="evaluation" data-entity-2="activity" data-source-line="259" data-uid="lnk22" id="link_evaluation_activity"><path codeLine="259" d="M195.72,124.625 C9.62,124.625 6,387.655 118.22,536.125 C218.66,668.995 333.49,548.155 483.22,621.125 C504.92,631.695 521.1627,643.162 539.3127,659.272" fill="none" id="evaluation-to-activity" style="stroke:#666666;stroke-width:1;"/><polygon fill="#666666" points="543.8,663.255,539.7243,654.289,540.0606,659.9359,534.4137,660.2721,543.8,663.255" style="stroke:#666666;stroke-width:1;"/></g><!--link evaluation to hiddenLocation1--><g class="link" data-entity-1="evaluation" data-entity-2="hiddenLocation1" data-source-line="272" data-uid="lnk24" id="link_evaluation_hiddenLocation1"><path codeLine="272" d="M316.72,222.625 C399.43,222.625 416.14,271.135 460.22,341.125 C475.96,366.095 480.8288,394.7904 482.6988,415.0604" fill="none" id="evaluation-to-hiddenLocation1" style="stroke:#666666;stroke-width:1;"/><polygon fill="#666666" points="483.25,421.035,486.4063,411.7056,482.7907,416.0561,478.4401,412.4405,483.25,421.035" style="stroke:#666666;stroke-width:1;"/></g><!--link hiddenLocation1 to activity--><!--link evidence to activity--><g class="link" data-entity-1="evidence" data-entity-2="activity" data-source-line="281" data-uid="lnk26" id="link_evidence_activity"><path codeLine="281" d="M435.72,405.625 C465.23,405.625 448.33,509.115 460.22,536.125 C480.71,582.655 510.1283,623.8562 540.0283,659.7262" fill="none" id="evidence-to-activity" style="stroke:#666666;stroke-width:1;"/><polygon fill="#666666" points="543.87,664.335,541.1799,654.8606,540.6686,660.4943,535.0349,659.983,543.87,664.335" style="stroke:#666666;stroke-width:1;"/></g><!--link measurement to activity--><g class="link" data-entity-1="measurement" data-entity-2="activity" data-source-line="283" data-uid="lnk27" id="link_measurement_activity"><path codeLine="283" d="M263.22,389.125 C296.36,389.125 267.8,510.025 288.22,536.125 C346.49,610.575 403.74,569.935 483.22,621.125 C504.26,634.675 520.7604,647.7211 539.3704,664.4711" fill="none" id="measurement-to-activity" style="stroke:#666666;stroke-width:1;"/><polygon fill="#666666" points="543.83,668.485,539.8165,659.491,540.1136,665.1401,534.4646,665.4372,543.83,668.485" style="stroke:#666666;stroke-width:1;"/></g><!--link measurement to hiddenLocation2--><g class="link" data-entity-1="measurement" data-entity-2="hiddenLocation2" data-source-line="289" data-uid="lnk29" id="link_measurement_hiddenLocation2"><path codeLine="289" d="M143.22,503.125 C52.6,503.125 145.1977,672.806 171.7677,718.576" fill="none" id="measurement-to-hiddenLocation2" style="stroke:#666666;stroke-width:1;"/><polygon fill="#666666" points="174.78,723.765,173.7209,713.9733,172.2698,719.4408,166.8022,717.9896,174.78,723.765" style="stroke:#666666;stroke-width:1;"/></g><!--link hiddenLocation2 to location--><!--link collection to activity--><g class="link" data-entity-1="collection" data-entity-2="activity" data-source-line="296" data-uid="lnk31" id="link_collection_activity"><path codeLine="296" d="M832.22,458.625 C770.31,458.625 824.47,540.225 789.22,591.125 C759.3,634.325 717.6175,667.6846 679.2975,693.1446" fill="none" id="collection-to-activity" style="stroke:#666666;stroke-width:1;"/><polygon fill="#666666" points="674.3,696.465,684.0098,694.8161,678.4646,693.698,679.5827,688.1528,674.3,696.465" style="stroke:#666666;stroke-width:1;"/></g><!--link collection to collection--><g class="link" data-entity-1="collection" data-entity-2="collection" data-source-line="297" data-uid="lnk32" id="link_collection_collection"><path codeLine="297" d="M917.84,450.655 C932.67,399.915 931.8,297.625 915.22,297.625 C905.38,297.625 900.8555,321.3688 902.0855,355.7588" fill="none" id="collection-to-collection" style="stroke:#666666;stroke-width:1;"/><polygon fill="#666666" points="902.3,361.755,905.9758,352.6178,902.1213,356.7582,897.9809,352.9037,902.3,361.755" style="stroke:#666666;stroke-width:1;"/><text fill="#666666" font-family="sans-serif" font-size="10" lengthAdjust="spacing" textLength="40.5664" x="895.22" y="277.9023">recursive</text><text fill="#666666" font-family="sans-serif" font-size="10" lengthAdjust="spacing" textLength="32.8271" x="899.0896" y="289.6211">nesting</text></g><!--link collection to collectionProject--><g class="link" data-entity-1="collection" data-entity-2="collectionProject" data-source-line="298" data-uid="lnk33" id="link_collection_collectionProject"><path codeLine="298" d="M915.22,515.595 C915.22,560.655 915.22,599.485 915.22,643.965" fill="none" id="collection-to-collectionProject" style="stroke:#666666;stroke-width:1;stroke-dasharray:7,7;"/><polygon fill="none" points="915.22,661.965,921.22,643.965,909.22,643.965,915.22,661.965" style="stroke:#666666;stroke-width:1;"/><text fill="#666666" font-family="sans-serif" font-size="10" lengthAdjust="spacing" textLength="32.5977" x="924.5745" y="576.4023">sidecar</text><text fill="#666666" font-family="sans-serif" font-size="10" lengthAdjust="spacing" textLength="49.3066" x="916.22" y="588.1211">(same TID)</text></g><!--reverse link contribution to activity--><g class="link" data-entity-1="contribution" data-entity-2="activity" data-source-line="300" data-uid="lnk35" id="link_contribution_activity"><path codeLine="300" d="M1055.0558,516.229 C1033.3958,545.689 1008.12,572.385 974.22,591.125 C904.01,629.935 865.17,580.105 796.22,621.125 C716.64,668.455 760.32,785.125 667.72,785.125" fill="none" id="contribution-backto-activity" style="stroke:#666666;stroke-width:1;"/><polygon fill="#666666" points="1058.61,511.395,1050.0561,516.2766,1055.6482,515.4234,1056.5015,521.0155,1058.61,511.395" style="stroke:#666666;stroke-width:1;"/></g><!--link activity to rights--><g class="link" data-entity-1="activity" data-entity-2="rights" data-source-line="301" data-uid="lnk36" id="link_activity_rights"><path codeLine="301" d="M667.72,818.125 C680.21,818.125 686.5888,880.3671 689.9488,933.1471" fill="none" id="activity-to-rights" style="stroke:#666666;stroke-width:1;"/><polygon fill="#666666" points="690.33,939.135,693.7501,929.8991,690.0123,934.1451,685.7663,930.4073,690.33,939.135" style="stroke:#666666;stroke-width:1;"/></g><!--link activity to location--><g class="link" data-entity-1="activity" data-entity-2="location" data-source-line="302" data-uid="lnk37" id="link_activity_location"><path codeLine="302" d="M550.72,801.125 C498.35,801.125 489.6595,860.9998 491.8995,916.8298" fill="none" id="activity-to-location" style="stroke:#666666;stroke-width:1;"/><polygon fill="#666666" points="492.14,922.825,495.776,913.6719,491.9396,917.829,487.7824,913.9926,492.14,922.825" style="stroke:#666666;stroke-width:1;"/></g><!--link contribution to contributor--><g class="link" data-entity-1="contribution" data-entity-2="contributor" data-source-line="304" data-uid="lnk38" id="link_contribution_contributor"><path codeLine="304" d="M1156.72,429.625 C1193.17,429.625 1157.11,475.205 1155.72,511.625 C1154.8,535.875 1153.72,541.895 1152.22,566.125 C1149.15,615.845 1146.0984,667.8451 1144.1584,701.1951" fill="none" id="contribution-to-contributor" style="stroke:#666666;stroke-width:1;"/><polygon fill="#666666" points="1143.81,707.185,1148.3259,698.4325,1144.1004,702.1934,1140.3394,697.9679,1143.81,707.185" style="stroke:#666666;stroke-width:1;"/><text fill="#666666" font-family="sans-serif" font-size="10" lengthAdjust="spacing" textLength="37.9785" x="1153.22" y="582.4023">made by</text></g><!--link funder to activity--><g class="link" data-entity-1="funder" data-entity-2="activity" data-source-line="309" data-uid="lnk40" id="link_funder_activity"><path codeLine="309" d="M609.22,467.105 C609.22,502.225 609.22,559.165 609.22,615.185" fill="none" id="funder-to-activity" style="stroke:#666666;stroke-width:1;stroke-dasharray:7,7;"/><polygon fill="#666666" points="609.22,621.185,613.22,612.185,609.22,616.185,605.22,612.185,609.22,621.185" style="stroke:#666666;stroke-width:1;"/><text fill="#666666" font-family="sans-serif" font-size="10" lengthAdjust="spacing" textLength="25.3125" x="610.22" y="582.4023">funds</text></g><!--link contributor to rights--><g class="link" data-entity-1="contributor" data-entity-2="rights" data-source-line="310" data-uid="lnk41" id="link_contributor_rights"><path codeLine="310" d="M1121.56,763.895 C1101.47,788.945 1068.96,825.755 1034.22,850.125 C944.39,913.115 829.462,956.3977 758.372,979.6777" fill="none" id="contributor-to-rights" style="stroke:#666666;stroke-width:1;stroke-dasharray:7,7;"/><polygon fill="#666666" points="752.67,981.545,762.4679,982.5455,757.4217,979.9889,759.9782,974.9427,752.67,981.545" style="stroke:#666666;stroke-width:1;"/><text fill="#666666" font-family="sans-serif" font-size="10" lengthAdjust="spacing" textLength="16.1084" x="983.9" y="890.4023">has</text></g><!--link fundingReceipt to funder--><g class="link" data-entity-1="fundingReceipt" data-entity-2="funder" data-source-line="316" data-uid="lnk42" id="link_fundingReceipt_funder"><path codeLine="316" d="M699.72,116.125 C578.1,116.125 594.2502,325.9946 604.3402,403.9846" fill="none" id="fundingReceipt-to-funder" style="stroke:#666666;stroke-width:1;"/><polygon fill="#666666" points="605.11,409.935,607.9222,400.4962,604.4685,404.9763,599.9883,401.5226,605.11,409.935" style="stroke:#666666;stroke-width:1;"/></g><!--link fundingReceipt to contributor--><g class="link" data-entity-1="fundingReceipt" data-entity-2="contributor" data-source-line="317" data-uid="lnk43" id="link_fundingReceipt_contributor"><path codeLine="317" d="M826.72,100.125 C1017.24,100.125 1086.9,175.595 1181.22,341.125 C1250.39,462.505 1187.3692,634.0643 1157.6192,701.5843" fill="none" id="fundingReceipt-to-contributor" style="stroke:#666666;stroke-width:1;"/><polygon fill="#666666" points="1155.2,707.075,1162.4893,700.4518,1157.216,702.4995,1155.1684,697.2262,1155.2,707.075" style="stroke:#666666;stroke-width:1;"/></g><!--link fundingReceipt to activity--><g class="link" data-entity-1="fundingReceipt" data-entity-2="activity" data-source-line="319" data-uid="lnk44" id="link_fundingReceipt_activity"><path codeLine="319" d="M826.72,132.125 C892.5,132.125 846.32,217.655 825.72,280.125 C815.21,311.995 797.01,311.505 781.22,341.125 C737.84,422.515 746.98,451.535 710.22,536.125 C698.05,564.135 686.475,588.4094 672.545,615.9894" fill="none" id="fundingReceipt-to-activity" style="stroke:#666666;stroke-width:1;"/><polygon fill="#666666" points="669.84,621.345,677.4679,615.1149,672.0942,616.882,670.3271,611.5082,669.84,621.345" style="stroke:#666666;stroke-width:1;"/><text fill="#666666" font-family="sans-serif" font-size="10" lengthAdjust="spacing" textLength="25.3125" x="782.22" y="442.4023">funds</text></g><!--link badgeAward to badgeDefinition--><g class="link" data-entity-1="badgeAward" data-entity-2="badgeDefinition" data-source-line="321" data-uid="lnk45" id="link_badgeAward_badgeDefinition"><path codeLine="321" d="M1389.22,430.125 C1484.5,430.125 1423.8218,570.8053 1375.7418,660.6153" fill="none" id="badgeAward-to-badgeDefinition" style="stroke:#666666;stroke-width:1;"/><polygon fill="#666666" points="1372.91,665.905,1380.6842,659.8584,1375.2699,661.4969,1373.6313,656.0826,1372.91,665.905" style="stroke:#666666;stroke-width:1;"/></g><!--link badgeResponse to badgeAward--><g class="link" data-entity-1="badgeResponse" data-entity-2="badgeAward" data-source-line="322" data-uid="lnk46" id="link_badgeResponse_badgeAward"><path codeLine="322" d="M1400.22,157.625 C1491.69,157.625 1421.2564,295.5717 1371.8764,377.1717" fill="none" id="badgeResponse-to-badgeAward" style="stroke:#666666;stroke-width:1;"/><polygon fill="#666666" points="1368.77,382.305,1376.8517,376.676,1371.3586,378.0273,1370.0074,372.5342,1368.77,382.305" style="stroke:#666666;stroke-width:1;"/></g><!--link badgeAward to contributor--><g class="link" data-entity-1="badgeAward" data-entity-2="contributor" data-source-line="323" data-uid="lnk47" id="link_badgeAward_contributor"><path codeLine="323" d="M1277.22,446.125 C1211.03,446.125 1270.32,530.735 1243.22,591.125 C1223.51,635.035 1193.509,674.8023 1170.479,702.3423" fill="none" id="badgeAward-to-contributor" style="stroke:#666666;stroke-width:1;"/><polygon fill="#666666" points="1166.63,706.945,1175.472,702.6069,1169.8375,703.1094,1169.335,697.4749,1166.63,706.945" style="stroke:#666666;stroke-width:1;"/></g><!--link badgeAward to activity--><g class="link" data-entity-1="badgeAward" data-entity-2="activity" data-source-line="324" data-uid="lnk48" id="link_badgeAward_activity"><path codeLine="324" d="M1277.22,446.125 C1190.97,446.125 1225.34,552.495 1148.22,591.125 C1007.84,661.445 945.49,572.435 796.22,621.125 C752.71,635.315 713.6809,657.8956 679.3109,681.4256" fill="none" id="badgeAward-to-activity" style="stroke:#666666;stroke-width:1;"/><polygon fill="#666666" points="674.36,684.815,684.046,683.0314,678.4858,681.9905,679.5268,676.4302,674.36,684.815" style="stroke:#666666;stroke-width:1;"/></g><!--SRC=[Kqn9JSlCIrK8zl0FZtVpTFLn2LOeAIfDvU9IpCnBpYbDILLm3NBHAoZDpU420000]--></g></svg>