<svg xmlns="http://www.w3.org/2000/svg" xmlns:xlink="http://www.w3.org/1999/xlink" contentStyleType="text/css" data-diagram-type="CLASS" height="1267px" preserveAspectRatio="none" style="width:1523px;height:1267px;background:#FFFFFF;" version="1.1" viewBox="0 0 1523 1267" width="1523px" zoomAndPan="magnify"><title>Hypercert ERD</title><defs/><g><g class="title" data-source-line="7"><text fill="#000000" font-family="sans-serif" font-size="24" font-weight="bold" lengthAdjust="spacing" textLength="157.0547" x="676.3977" y="32.2656">Hypercert ERD</text></g><!--class contributorEntity--><g class="entity" data-entity="contributorEntity" data-source-line="47" data-uid="ent0002" id="entity_contributorEntity"><rect fill="#FFD4A3" height="56.4063" rx="2.5" ry="2.5" style="stroke:#181818;stroke-width:0.5;" width="181.4473" x="419.78" y="960.335"/><ellipse cx="434.78" cy="976.335" fill="#ADD1B2" rx="11" ry="11" style="stroke:#181818;stroke-width:1;"/><path d="M430.8425,982.335 L438.3581,982.335 L438.3581,980.2256 L433.3581,980.2256 L433.3581,977.6787 L437.4519,977.6787 L437.4519,975.585 L433.3581,975.585 L433.3581,973.3662 L438.1863,973.3662 L438.1863,971.2569 L430.8425,971.2569 L430.8425,982.335 Z " fill="#000000"/><text fill="#000000" font-family="sans-serif" font-size="14" lengthAdjust="spacing" textLength="149.4473" x="448.78" y="981.1202">contributor (DID/profile)</text><line style="stroke:#181818;stroke-width:0.5;" x1="420.78" x2="600.2273" y1="992.335" y2="992.335"/><text fill="#000000" font-family="sans-serif" font-size="14" lengthAdjust="spacing" textLength="146.9658" x="425.78" y="1009.3233">DID or social profile URI</text></g><!--class activity--><g class="entity" data-entity="activity" data-source-line="55" data-uid="ent0003" id="entity_activity"><rect fill="#B4E5D0" height="221.9063" rx="2.5" ry="2.5" style="stroke:#181818;stroke-width:0.5;" width="115.1201" x="655" y="613.125"/><ellipse cx="677.9519" cy="629.8437" fill="#7E57C2" rx="11" ry="11" style="stroke:#181818;stroke-width:1;"/><path d="M675.1394,635.8437 L678.3582,635.8437 C681.4363,635.8437 683.5457,634.0625 683.5457,630.25 C683.5457,626.4375 681.4363,624.7656 678.2019,624.7656 L675.1394,624.7656 L675.1394,635.8437 Z M677.655,633.8281 L677.655,626.7812 L678.0613,626.7812 C679.7957,626.7812 680.9675,627.5937 680.9675,630.25 C680.9675,632.9062 679.7957,633.8281 678.0613,633.8281 L677.655,633.8281 Z " fill="#000000"/><text fill="#000000" font-family="sans-serif" font-size="20" font-weight="bold" lengthAdjust="spacing" textLength="65.4492" x="693.719" y="636.6797">activity</text><line style="stroke:#181818;stroke-width:0.5;" x1="656" x2="769.1201" y1="646.5625" y2="646.5625"/><text fill="#000000" font-family="sans-serif" font-size="14" lengthAdjust="spacing" textLength="23.3926" x="661" y="663.5508">title</text><text fill="#000000" font-family="sans-serif" font-size="14" lengthAdjust="spacing" textLength="103.1201" x="661" y="679.957">shortDescription</text><text fill="#000000" font-family="sans-serif" font-size="14" lengthAdjust="spacing" textLength="76.2002" x="661" y="696.3633">description?</text><text fill="#000000" font-family="sans-serif" font-size="14" lengthAdjust="spacing" textLength="45.1992" x="661" y="712.7695">image?</text><text fill="#000000" font-family="sans-serif" font-size="14" lengthAdjust="spacing" textLength="75.8721" x="661" y="729.1758">workScope?</text><text fill="#000000" font-family="sans-serif" font-size="14" lengthAdjust="spacing" textLength="64.1689" x="661" y="745.582">startDate?</text><text fill="#000000" font-family="sans-serif" font-size="14" lengthAdjust="spacing" textLength="58.4746" x="661" y="761.9883">endDate?</text><text fill="#000000" font-family="sans-serif" font-size="14" lengthAdjust="spacing" textLength="89.9268" x="661" y="778.3945">contributors[]?</text><text fill="#000000" font-family="sans-serif" font-size="14" lengthAdjust="spacing" textLength="71.2988" x="661" y="794.8008">locations[]?</text><text fill="#000000" font-family="sans-serif" font-size="14" lengthAdjust="spacing" textLength="42.1436" x="661" y="811.207">rights?</text><text fill="#000000" font-family="sans-serif" font-size="14" lengthAdjust="spacing" textLength="60.7236" x="661" y="827.6133">createdAt</text></g><!--class attachment--><g class="entity" data-entity="attachment" data-source-line="72" data-uid="ent0004" id="entity_attachment"><rect fill="#F1F1F1" height="171.25" rx="2.5" ry="2.5" style="stroke:#181818;stroke-width:0.5;" width="121.7373" x="7" y="353.125"/><ellipse cx="30.2327" cy="369.125" fill="#7E57C2" rx="11" ry="11" style="stroke:#181818;stroke-width:1;"/><path d="M27.4202,375.125 L30.639,375.125 C33.7171,375.125 35.8265,373.3437 35.8265,369.5312 C35.8265,365.7187 33.7171,364.0469 30.4827,364.0469 L27.4202,364.0469 L27.4202,375.125 Z M29.9358,373.1094 L29.9358,366.0625 L30.3421,366.0625 C32.0765,366.0625 33.2483,366.875 33.2483,369.5312 C33.2483,372.1875 32.0765,373.1094 30.3421,373.1094 L29.9358,373.1094 Z " fill="#000000"/><text fill="#000000" font-family="sans-serif" font-size="14" lengthAdjust="spacing" textLength="71.4424" x="46.0622" y="373.9102">attachment</text><line style="stroke:#181818;stroke-width:0.5;" x1="8" x2="127.7373" y1="385.125" y2="385.125"/><text fill="#000000" font-family="sans-serif" font-size="14" lengthAdjust="spacing" textLength="66.7529" x="13" y="402.1133">subjects[]?</text><text fill="#000000" font-family="sans-serif" font-size="14" lengthAdjust="spacing" textLength="84.2393" x="13" y="418.5195">contentType?</text><text fill="#000000" font-family="sans-serif" font-size="14" lengthAdjust="spacing" textLength="54.7832" x="13" y="434.9258">content[]</text><text fill="#000000" font-family="sans-serif" font-size="14" lengthAdjust="spacing" textLength="23.3926" x="13" y="451.332">title</text><text fill="#000000" font-family="sans-serif" font-size="14" lengthAdjust="spacing" textLength="109.7373" x="13" y="467.7383">shortDescription?</text><text fill="#000000" font-family="sans-serif" font-size="14" lengthAdjust="spacing" textLength="76.2002" x="13" y="484.1445">description?</text><text fill="#000000" font-family="sans-serif" font-size="14" lengthAdjust="spacing" textLength="56.6494" x="13" y="500.5508">location?</text><text fill="#000000" font-family="sans-serif" font-size="14" lengthAdjust="spacing" textLength="60.7236" x="13" y="516.957">createdAt</text></g><!--class measurement--><g class="entity" data-entity="measurement" data-source-line="86" data-uid="ent0005" id="entity_measurement"><rect fill="#F1F1F1" height="187.6563" rx="2.5" ry="2.5" style="stroke:#181818;stroke-width:0.5;" width="118.4404" x="179.5" y="345.125"/><ellipse cx="194.5" cy="361.125" fill="#7E57C2" rx="11" ry="11" style="stroke:#181818;stroke-width:1;"/><path d="M191.6875,367.125 L194.9063,367.125 C197.9844,367.125 200.0938,365.3437 200.0938,361.5312 C200.0938,357.7187 197.9844,356.0469 194.75,356.0469 L191.6875,356.0469 L191.6875,367.125 Z M194.2031,365.1094 L194.2031,358.0625 L194.6094,358.0625 C196.3438,358.0625 197.5156,358.875 197.5156,361.5312 C197.5156,364.1875 196.3438,365.1094 194.6094,365.1094 L194.2031,365.1094 Z " fill="#000000"/><text fill="#000000" font-family="sans-serif" font-size="14" lengthAdjust="spacing" textLength="86.4404" x="208.5" y="365.9102">measurement</text><line style="stroke:#181818;stroke-width:0.5;" x1="180.5" x2="296.9404" y1="377.125" y2="377.125"/><text fill="#000000" font-family="sans-serif" font-size="14" lengthAdjust="spacing" textLength="52.1035" x="185.5" y="394.1133">subject?</text><text fill="#000000" font-family="sans-serif" font-size="14" lengthAdjust="spacing" textLength="73.8213" x="185.5" y="410.5195">measurers[]</text><text fill="#000000" font-family="sans-serif" font-size="14" lengthAdjust="spacing" textLength="39.7578" x="185.5" y="426.9258">metric</text><text fill="#000000" font-family="sans-serif" font-size="14" lengthAdjust="spacing" textLength="32.9424" x="185.5" y="443.332">value</text><text fill="#000000" font-family="sans-serif" font-size="14" lengthAdjust="spacing" textLength="84.752" x="185.5" y="459.7383">methodType?</text><text fill="#000000" font-family="sans-serif" font-size="14" lengthAdjust="spacing" textLength="76.002" x="185.5" y="476.1445">methodURI?</text><text fill="#000000" font-family="sans-serif" font-size="14" lengthAdjust="spacing" textLength="90.9658" x="185.5" y="492.5508">evidenceURI[]?</text><text fill="#000000" font-family="sans-serif" font-size="14" lengthAdjust="spacing" textLength="56.6494" x="185.5" y="508.957">location?</text><text fill="#000000" font-family="sans-serif" font-size="14" lengthAdjust="spacing" textLength="60.7236" x="185.5" y="525.3633">createdAt</text></g><!--class evaluation--><g class="entity" data-entity="evaluation" data-source-line="101" data-uid="ent0006" id="entity_evaluation"><rect fill="#F1F1F1" height="171.25" rx="2.5" ry="2.5" style="stroke:#181818;stroke-width:0.5;" width="119.707" x="239" y="80.625"/><ellipse cx="264.5521" cy="96.625" fill="#7E57C2" rx="11" ry="11" style="stroke:#181818;stroke-width:1;"/><path d="M261.7396,102.625 L264.9584,102.625 C268.0365,102.625 270.1459,100.8438 270.1459,97.0313 C270.1459,93.2188 268.0365,91.5469 264.8021,91.5469 L261.7396,91.5469 L261.7396,102.625 Z M264.2553,100.6094 L264.2553,93.5625 L264.6615,93.5625 C266.3959,93.5625 267.5678,94.375 267.5678,97.0313 C267.5678,99.6875 266.3959,100.6094 264.6615,100.6094 L264.2553,100.6094 Z " fill="#000000"/><text fill="#000000" font-family="sans-serif" font-size="14" lengthAdjust="spacing" textLength="64.2578" x="280.8971" y="101.4102">evaluation</text><line style="stroke:#181818;stroke-width:0.5;" x1="240" x2="357.707" y1="112.625" y2="112.625"/><text fill="#000000" font-family="sans-serif" font-size="14" lengthAdjust="spacing" textLength="52.1035" x="245" y="129.6133">subject?</text><text fill="#000000" font-family="sans-serif" font-size="14" lengthAdjust="spacing" textLength="58.4814" x="245" y="146.0195">summary</text><text fill="#000000" font-family="sans-serif" font-size="14" lengthAdjust="spacing" textLength="72.5156" x="245" y="162.4258">evaluators[]</text><text fill="#000000" font-family="sans-serif" font-size="14" lengthAdjust="spacing" textLength="61.4004" x="245" y="178.832">content[]?</text><text fill="#000000" font-family="sans-serif" font-size="14" lengthAdjust="spacing" textLength="107.707" x="245" y="195.2383">measurements[]?</text><text fill="#000000" font-family="sans-serif" font-size="14" lengthAdjust="spacing" textLength="34.7061" x="245" y="211.6445">score</text><text fill="#000000" font-family="sans-serif" font-size="14" lengthAdjust="spacing" textLength="56.6494" x="245" y="228.0508">location?</text><text fill="#000000" font-family="sans-serif" font-size="14" lengthAdjust="spacing" textLength="60.7236" x="245" y="244.457">createdAt</text></g><!--class contributorInformation--><g class="entity" data-entity="contributorInformation" data-source-line="115" data-uid="ent0007" id="entity_contributorInformation"><rect fill="#F1F1F1" height="105.625" rx="2.5" ry="2.5" style="stroke:#181818;stroke-width:0.5;" width="173.3877" x="431" y="671.125"/><ellipse cx="446" cy="687.125" fill="#7E57C2" rx="11" ry="11" style="stroke:#181818;stroke-width:1;"/><path d="M443.1875,693.125 L446.4063,693.125 C449.4844,693.125 451.5938,691.3437 451.5938,687.5312 C451.5938,683.7187 449.4844,682.0469 446.25,682.0469 L443.1875,682.0469 L443.1875,693.125 Z M445.7031,691.1094 L445.7031,684.0625 L446.1094,684.0625 C447.8438,684.0625 449.0156,684.875 449.0156,687.5312 C449.0156,690.1875 447.8438,691.1094 446.1094,691.1094 L445.7031,691.1094 Z " fill="#000000"/><text fill="#000000" font-family="sans-serif" font-size="14" lengthAdjust="spacing" textLength="141.3877" x="460" y="691.9102">contributorInformation</text><line style="stroke:#181818;stroke-width:0.5;" x1="432" x2="603.3877" y1="703.125" y2="703.125"/><text fill="#000000" font-family="sans-serif" font-size="14" lengthAdjust="spacing" textLength="61.4961" x="437" y="720.1133">identifier?</text><text fill="#000000" font-family="sans-serif" font-size="14" lengthAdjust="spacing" textLength="87.9512" x="437" y="736.5195">displayName?</text><text fill="#000000" font-family="sans-serif" font-size="14" lengthAdjust="spacing" textLength="45.1992" x="437" y="752.9258">image?</text><text fill="#000000" font-family="sans-serif" font-size="14" lengthAdjust="spacing" textLength="60.7236" x="437" y="769.332">createdAt</text></g><!--class contributionDetails--><g class="entity" data-entity="contributionDetails" data-source-line="125" data-uid="ent0008" id="entity_contributionDetails"><rect fill="#F1F1F1" height="122.0313" rx="2.5" ry="2.5" style="stroke:#181818;stroke-width:0.5;" width="164.5439" x="636.23" y="927.525"/><ellipse cx="657.8231" cy="943.525" fill="#7E57C2" rx="11" ry="11" style="stroke:#181818;stroke-width:1;"/><path d="M655.0106,949.525 L658.2294,949.525 C661.3075,949.525 663.4169,947.7437 663.4169,943.9312 C663.4169,940.1187 661.3075,938.4469 658.0731,938.4469 L655.0106,938.4469 L655.0106,949.525 Z M657.5262,947.5094 L657.5262,940.4625 L657.9325,940.4625 C659.6669,940.4625 660.8387,941.275 660.8387,943.9312 C660.8387,946.5875 659.6669,947.5094 657.9325,947.5094 L657.5262,947.5094 Z " fill="#000000"/><text fill="#000000" font-family="sans-serif" font-size="14" lengthAdjust="spacing" textLength="117.8926" x="673.2883" y="948.3102">contributionDetails</text><line style="stroke:#181818;stroke-width:0.5;" x1="637.23" x2="799.7739" y1="959.525" y2="959.525"/><text fill="#000000" font-family="sans-serif" font-size="14" lengthAdjust="spacing" textLength="30.1738" x="642.23" y="976.5133">role?</text><text fill="#000000" font-family="sans-serif" font-size="14" lengthAdjust="spacing" textLength="152.5439" x="642.23" y="992.9195">contributionDescription?</text><text fill="#000000" font-family="sans-serif" font-size="14" lengthAdjust="spacing" textLength="64.1689" x="642.23" y="1009.3258">startDate?</text><text fill="#000000" font-family="sans-serif" font-size="14" lengthAdjust="spacing" textLength="58.4746" x="642.23" y="1025.732">endDate?</text><text fill="#000000" font-family="sans-serif" font-size="14" lengthAdjust="spacing" textLength="60.7236" x="642.23" y="1042.1383">createdAt</text></g><!--class location--><g class="entity" data-entity="location" data-source-line="136" data-uid="ent0009" id="entity_location"><rect fill="#F1F1F1" height="154.8438" rx="2.5" ry="2.5" style="stroke:#181818;stroke-width:0.5;" width="92.2949" x="160.35" y="911.125"/><ellipse cx="179.9682" cy="927.125" fill="#7E57C2" rx="11" ry="11" style="stroke:#181818;stroke-width:1;"/><path d="M177.1557,933.125 L180.3745,933.125 C183.4526,933.125 185.562,931.3437 185.562,927.5312 C185.562,923.7187 183.4526,922.0469 180.2182,922.0469 L177.1557,922.0469 L177.1557,933.125 Z M179.6713,931.1094 L179.6713,924.0625 L180.0776,924.0625 C181.812,924.0625 182.9838,924.875 182.9838,927.5312 C182.9838,930.1875 181.812,931.1094 180.0776,931.1094 L179.6713,931.1094 Z " fill="#000000"/><text fill="#000000" font-family="sans-serif" font-size="14" lengthAdjust="spacing" textLength="50.0322" x="194.9945" y="931.9102">location</text><line style="stroke:#181818;stroke-width:0.5;" x1="161.35" x2="251.6449" y1="943.125" y2="943.125"/><text fill="#000000" font-family="sans-serif" font-size="14" lengthAdjust="spacing" textLength="58.6934" x="166.35" y="960.1133">lpVersion</text><text fill="#000000" font-family="sans-serif" font-size="14" lengthAdjust="spacing" textLength="19.1953" x="166.35" y="976.5195">srs</text><text fill="#000000" font-family="sans-serif" font-size="14" lengthAdjust="spacing" textLength="80.2949" x="166.35" y="992.9258">locationType</text><text fill="#000000" font-family="sans-serif" font-size="14" lengthAdjust="spacing" textLength="50.0322" x="166.35" y="1009.332">location</text><text fill="#000000" font-family="sans-serif" font-size="14" lengthAdjust="spacing" textLength="41.665" x="166.35" y="1025.7383">name?</text><text fill="#000000" font-family="sans-serif" font-size="14" lengthAdjust="spacing" textLength="76.2002" x="166.35" y="1042.1445">description?</text><text fill="#000000" font-family="sans-serif" font-size="14" lengthAdjust="spacing" textLength="60.7236" x="166.35" y="1058.5508">createdAt</text></g><!--class badgeDefinition--><g class="entity" data-entity="badgeDefinition" data-source-line="149" data-uid="ent0010" id="entity_badgeDefinition"><rect fill="#F1F1F1" height="138.4375" rx="2.5" ry="2.5" style="stroke:#181818;stroke-width:0.5;" width="130.376" x="1108.31" y="654.405"/><ellipse cx="1123.31" cy="670.405" fill="#7E57C2" rx="11" ry="11" style="stroke:#181818;stroke-width:1;"/><path d="M1120.4975,676.405 L1123.7163,676.405 C1126.7944,676.405 1128.9038,674.6237 1128.9038,670.8112 C1128.9038,666.9987 1126.7944,665.3269 1123.56,665.3269 L1120.4975,665.3269 L1120.4975,676.405 Z M1123.0131,674.3894 L1123.0131,667.3425 L1123.4194,667.3425 C1125.1538,667.3425 1126.3256,668.155 1126.3256,670.8112 C1126.3256,673.4675 1125.1538,674.3894 1123.4194,674.3894 L1123.0131,674.3894 Z " fill="#000000"/><text fill="#000000" font-family="sans-serif" font-size="14" lengthAdjust="spacing" textLength="98.376" x="1137.31" y="675.1902">badgeDefinition</text><line style="stroke:#181818;stroke-width:0.5;" x1="1109.31" x2="1237.686" y1="686.405" y2="686.405"/><text fill="#000000" font-family="sans-serif" font-size="14" lengthAdjust="spacing" textLength="68.9199" x="1114.31" y="703.3933">badgeType</text><text fill="#000000" font-family="sans-serif" font-size="14" lengthAdjust="spacing" textLength="23.3926" x="1114.31" y="719.7995">title</text><text fill="#000000" font-family="sans-serif" font-size="14" lengthAdjust="spacing" textLength="26.4482" x="1114.31" y="736.2058">icon</text><text fill="#000000" font-family="sans-serif" font-size="14" lengthAdjust="spacing" textLength="76.2002" x="1114.31" y="752.612">description?</text><text fill="#000000" font-family="sans-serif" font-size="14" lengthAdjust="spacing" textLength="107.6592" x="1114.31" y="769.0183">allowedIssuers[]?</text><text fill="#000000" font-family="sans-serif" font-size="14" lengthAdjust="spacing" textLength="60.7236" x="1114.31" y="785.4245">createdAt</text></g><!--class badgeAward--><g class="entity" data-entity="badgeAward" data-source-line="160" data-uid="ent0011" id="entity_badgeAward"><rect fill="#F1F1F1" height="105.625" rx="2.5" ry="2.5" style="stroke:#181818;stroke-width:0.5;" width="110.5654" x="1120.5" y="386.125"/><ellipse cx="1135.5" cy="402.125" fill="#7E57C2" rx="11" ry="11" style="stroke:#181818;stroke-width:1;"/><path d="M1132.6875,408.125 L1135.9063,408.125 C1138.9844,408.125 1141.0938,406.3437 1141.0938,402.5312 C1141.0938,398.7187 1138.9844,397.0469 1135.75,397.0469 L1132.6875,397.0469 L1132.6875,408.125 Z M1135.2031,406.1094 L1135.2031,399.0625 L1135.6094,399.0625 C1137.3438,399.0625 1138.5156,399.875 1138.5156,402.5312 C1138.5156,405.1875 1137.3438,406.1094 1135.6094,406.1094 L1135.2031,406.1094 Z " fill="#000000"/><text fill="#000000" font-family="sans-serif" font-size="14" lengthAdjust="spacing" textLength="78.5654" x="1149.5" y="406.9102">badgeAward</text><line style="stroke:#181818;stroke-width:0.5;" x1="1121.5" x2="1230.0654" y1="418.125" y2="418.125"/><text fill="#000000" font-family="sans-serif" font-size="14" lengthAdjust="spacing" textLength="38.6572" x="1126.5" y="435.1133">badge</text><text fill="#000000" font-family="sans-serif" font-size="14" lengthAdjust="spacing" textLength="45.4863" x="1126.5" y="451.5195">subject</text><text fill="#000000" font-family="sans-serif" font-size="14" lengthAdjust="spacing" textLength="34.3369" x="1126.5" y="467.9258">note?</text><text fill="#000000" font-family="sans-serif" font-size="14" lengthAdjust="spacing" textLength="60.7236" x="1126.5" y="484.332">createdAt</text></g><!--class badgeResponse--><g class="entity" data-entity="badgeResponse" data-source-line="169" data-uid="ent0012" id="entity_badgeResponse"><rect fill="#F1F1F1" height="105.625" rx="2.5" ry="2.5" style="stroke:#181818;stroke-width:0.5;" width="132.1602" x="1266.5" y="113.625"/><ellipse cx="1281.5" cy="129.625" fill="#7E57C2" rx="11" ry="11" style="stroke:#181818;stroke-width:1;"/><path d="M1278.6875,135.625 L1281.9063,135.625 C1284.9844,135.625 1287.0938,133.8438 1287.0938,130.0313 C1287.0938,126.2188 1284.9844,124.5469 1281.75,124.5469 L1278.6875,124.5469 L1278.6875,135.625 Z M1281.2031,133.6094 L1281.2031,126.5625 L1281.6094,126.5625 C1283.3438,126.5625 1284.5156,127.375 1284.5156,130.0313 C1284.5156,132.6875 1283.3438,133.6094 1281.6094,133.6094 L1281.2031,133.6094 Z " fill="#000000"/><text fill="#000000" font-family="sans-serif" font-size="14" lengthAdjust="spacing" textLength="100.1602" x="1295.5" y="134.4102">badgeResponse</text><line style="stroke:#181818;stroke-width:0.5;" x1="1267.5" x2="1397.6602" y1="145.625" y2="145.625"/><text fill="#000000" font-family="sans-serif" font-size="14" lengthAdjust="spacing" textLength="78.5654" x="1272.5" y="162.6133">badgeAward</text><text fill="#000000" font-family="sans-serif" font-size="14" lengthAdjust="spacing" textLength="57.6201" x="1272.5" y="179.0195">response</text><text fill="#000000" font-family="sans-serif" font-size="14" lengthAdjust="spacing" textLength="48.1182" x="1272.5" y="195.4258">weight?</text><text fill="#000000" font-family="sans-serif" font-size="14" lengthAdjust="spacing" textLength="60.7236" x="1272.5" y="211.832">createdAt</text></g><!--class rights--><g class="entity" data-entity="rights" data-source-line="179" data-uid="ent0013" id="entity_rights"><rect fill="#F1F1F1" height="122.0313" rx="2.5" ry="2.5" style="stroke:#181818;stroke-width:0.5;" width="118.4014" x="622.3" y="1138.965"/><ellipse cx="660.1937" cy="1154.965" fill="#7E57C2" rx="11" ry="11" style="stroke:#181818;stroke-width:1;"/><path d="M657.3812,1160.965 L660.6,1160.965 C663.6781,1160.965 665.7875,1159.1838 665.7875,1155.3713 C665.7875,1151.5588 663.6781,1149.8869 660.4437,1149.8869 L657.3812,1149.8869 L657.3812,1160.965 Z M659.8969,1158.9494 L659.8969,1151.9025 L660.3031,1151.9025 C662.0375,1151.9025 663.2094,1152.715 663.2094,1155.3713 C663.2094,1158.0275 662.0375,1158.9494 660.3031,1158.9494 L659.8969,1158.9494 Z " fill="#000000"/><text fill="#000000" font-family="sans-serif" font-size="14" lengthAdjust="spacing" textLength="35.5264" x="679.2813" y="1159.7502">rights</text><line style="stroke:#181818;stroke-width:0.5;" x1="623.3" x2="739.7014" y1="1170.965" y2="1170.965"/><text fill="#000000" font-family="sans-serif" font-size="14" lengthAdjust="spacing" textLength="72.8301" x="628.3" y="1187.9533">rightsName</text><text fill="#000000" font-family="sans-serif" font-size="14" lengthAdjust="spacing" textLength="65.7891" x="628.3" y="1204.3595">rightsType</text><text fill="#000000" font-family="sans-serif" font-size="14" lengthAdjust="spacing" textLength="106.4014" x="628.3" y="1220.7658">rightsDescription</text><text fill="#000000" font-family="sans-serif" font-size="14" lengthAdjust="spacing" textLength="78.0596" x="628.3" y="1237.172">attachment?</text><text fill="#000000" font-family="sans-serif" font-size="14" lengthAdjust="spacing" textLength="60.7236" x="628.3" y="1253.5783">createdAt</text></g><!--class collection--><g class="entity" data-entity="collection" data-source-line="190" data-uid="ent0014" id="entity_collection"><rect fill="#F1F1F1" height="162.8438" rx="2.5" ry="2.5" style="stroke:#181818;stroke-width:0.5;" width="164.7012" x="419.5" y="357.625"/><ellipse cx="467.314" cy="373.625" fill="#7E57C2" rx="11" ry="11" style="stroke:#181818;stroke-width:1;"/><path d="M464.5015,379.625 L467.7202,379.625 C470.7983,379.625 472.9077,377.8437 472.9077,374.0312 C472.9077,370.2187 470.7983,368.5469 467.564,368.5469 L464.5015,368.5469 L464.5015,379.625 Z M467.0171,377.6094 L467.0171,370.5625 L467.4233,370.5625 C469.1577,370.5625 470.3296,371.375 470.3296,374.0312 C470.3296,376.6875 469.1577,377.6094 467.4233,377.6094 L467.0171,377.6094 Z " fill="#000000"/><text fill="#000000" font-family="sans-serif" font-size="14" lengthAdjust="spacing" textLength="60.5732" x="487.814" y="378.4102">collection</text><line style="stroke:#181818;stroke-width:0.5;" x1="420.5" x2="583.2012" y1="389.625" y2="389.625"/><text fill="#000000" font-family="sans-serif" font-size="14" lengthAdjust="spacing" textLength="33.1064" x="425.5" y="406.6133">type?</text><text fill="#000000" font-family="sans-serif" font-size="14" lengthAdjust="spacing" textLength="23.3926" x="425.5" y="423.0195">title</text><text fill="#000000" font-family="sans-serif" font-size="14" lengthAdjust="spacing" textLength="109.7373" x="425.5" y="439.4258">shortDescription?</text><text fill="#000000" font-family="sans-serif" font-size="14" lengthAdjust="spacing" textLength="42.335" x="425.5" y="455.832">items[]</text><text fill="#000000" font-family="sans-serif" font-size="14" lengthAdjust="spacing" textLength="56.6494" x="425.5" y="472.2383">location?</text><text fill="#000000" font-family="sans-serif" font-size="14" lengthAdjust="spacing" textLength="60.7236" x="425.5" y="488.6445">createdAt</text><line style="stroke:#181818;stroke-width:0.5;" x1="420.5" x2="583.2012" y1="496.0625" y2="496.0625"/><text fill="#000000" font-family="sans-serif" font-size="14" lengthAdjust="spacing" textLength="152.7012" x="425.5" y="513.0508">description? (Leaflet ref)</text></g><!--class funder--><g class="entity" data-entity="funder" data-source-line="206" data-uid="ent0015" id="entity_funder"><rect fill="#FFD4A3" height="56.4063" rx="2.5" ry="2.5" style="stroke:#181818;stroke-width:0.5;" width="167.4219" x="812.79" y="410.415"/><ellipse cx="872.061" cy="426.415" fill="#ADD1B2" rx="11" ry="11" style="stroke:#181818;stroke-width:1;"/><path d="M868.1235,432.415 L875.6391,432.415 L875.6391,430.3056 L870.6391,430.3056 L870.6391,427.7587 L874.7329,427.7587 L874.7329,425.665 L870.6391,425.665 L870.6391,423.4462 L875.4672,423.4462 L875.4672,421.3369 L868.1235,421.3369 L868.1235,432.415 Z " fill="#000000"/><text fill="#000000" font-family="sans-serif" font-size="14" lengthAdjust="spacing" textLength="40.3799" x="892.561" y="431.2002">funder</text><line style="stroke:#181818;stroke-width:0.5;" x1="813.79" x2="979.2119" y1="442.415" y2="442.415"/><text fill="#000000" font-family="sans-serif" font-size="14" lengthAdjust="spacing" textLength="155.4219" x="818.79" y="459.4033">DID or name/pseudonym</text></g><!--class fundingReceipt--><g class="entity" data-entity="fundingReceipt" data-source-line="213" data-uid="ent0016" id="entity_fundingReceipt"><rect fill="#F1F1F1" height="220.4688" rx="2.5" ry="2.5" style="stroke:#181818;stroke-width:0.5;" width="125.8574" x="988" y="56.125"/><ellipse cx="1003" cy="72.125" fill="#7E57C2" rx="11" ry="11" style="stroke:#181818;stroke-width:1;"/><path d="M1000.1875,78.125 L1003.4063,78.125 C1006.4844,78.125 1008.5938,76.3438 1008.5938,72.5313 C1008.5938,68.7188 1006.4844,67.0469 1003.25,67.0469 L1000.1875,67.0469 L1000.1875,78.125 Z M1002.7031,76.1094 L1002.7031,69.0625 L1003.1094,69.0625 C1004.8438,69.0625 1006.0156,69.875 1006.0156,72.5313 C1006.0156,75.1875 1004.8438,76.1094 1003.1094,76.1094 L1002.7031,76.1094 Z " fill="#000000"/><text fill="#000000" font-family="sans-serif" font-size="14" lengthAdjust="spacing" textLength="93.8574" x="1017" y="76.9102">fundingReceipt</text><line style="stroke:#181818;stroke-width:0.5;" x1="989" x2="1112.8574" y1="88.125" y2="88.125"/><text fill="#000000" font-family="sans-serif" font-size="14" lengthAdjust="spacing" textLength="12.5645" x="994" y="105.1133">to</text><text fill="#000000" font-family="sans-serif" font-size="14" lengthAdjust="spacing" textLength="29.873" x="994" y="121.5195">from</text><text fill="#000000" font-family="sans-serif" font-size="14" lengthAdjust="spacing" textLength="24.2129" x="994" y="137.9258">for?</text><text fill="#000000" font-family="sans-serif" font-size="14" lengthAdjust="spacing" textLength="47.9063" x="994" y="154.332">amount</text><text fill="#000000" font-family="sans-serif" font-size="14" lengthAdjust="spacing" textLength="53.6416" x="994" y="170.7383">currency</text><text fill="#000000" font-family="sans-serif" font-size="14" lengthAdjust="spacing" textLength="83.7813" x="994" y="187.1445">paymentRail?</text><text fill="#000000" font-family="sans-serif" font-size="14" lengthAdjust="spacing" textLength="113.0664" x="994" y="203.5508">paymentNetwork?</text><text fill="#000000" font-family="sans-serif" font-size="14" lengthAdjust="spacing" textLength="88.8604" x="994" y="219.957">transactionId?</text><text fill="#000000" font-family="sans-serif" font-size="14" lengthAdjust="spacing" textLength="41.5625" x="994" y="236.3633">notes?</text><text fill="#000000" font-family="sans-serif" font-size="14" lengthAdjust="spacing" textLength="75.4961" x="994" y="252.7695">occurredAt?</text><text fill="#000000" font-family="sans-serif" font-size="14" lengthAdjust="spacing" textLength="60.7236" x="994" y="269.1758">createdAt</text></g><!--class token--><g class="entity" data-entity="token" data-source-line="234" data-uid="ent0017" id="entity_token"><rect fill="#FFB6C1" height="65.8438" rx="2.5" ry="2.5" style="stroke:#181818;stroke-width:0.5;" width="104.2578" x="626.37" y="405.695"/><ellipse cx="651.0432" cy="422.4137" fill="#F1F1F1" rx="11" ry="11" style="stroke:#181818;stroke-width:1;"/><path d="M647.8245,428.4137 L650.3245,428.4137 L650.3245,424.6637 L651.7464,424.6637 C654.0901,424.6637 656.0745,423.5075 656.0745,420.8981 C656.0745,418.2106 654.137,417.3356 651.7464,417.3356 L647.8245,417.3356 L647.8245,428.4137 Z M650.3245,422.6637 L650.3245,419.32 L651.5901,419.32 C652.9182,419.32 653.637,419.7419 653.637,420.8981 C653.637,422.0544 652.9651,422.6637 651.5901,422.6637 L650.3245,422.6637 Z " fill="#000000"/><text fill="#000000" font-family="sans-serif" font-size="20" font-weight="bold" lengthAdjust="spacing" textLength="50.7617" x="667.1929" y="429.2497">token</text><line style="stroke:#181818;stroke-width:0.5;" x1="627.37" x2="729.6278" y1="439.1325" y2="439.1325"/><line style="stroke:#181818;stroke-width:0.5;" x1="627.37" x2="729.6278" y1="447.1325" y2="447.1325"/><text fill="#000000" font-family="sans-serif" font-size="14" lengthAdjust="spacing" textLength="92.2578" x="632.37" y="464.1208">(on-chain only)</text></g><!--class hiddenLocation1--><g class="entity" data-entity="hiddenLocation1" data-source-line="267" data-uid="ent0021" id="entity_hiddenLocation1"><rect fill="none" height="34.4063" rx="2.5" ry="2.5" style="stroke:none;stroke-width:0.5;" width="12" x="765.5" y="421.415"/><text fill="#000000" font-family="sans-serif" font-size="14" lengthAdjust="spacing" textLength="3.4727" x="769.7637" y="439.4033">&#160;</text><line style="stroke:none;stroke-width:0.5;" x1="766.5" x2="776.5" y1="447.8212" y2="447.8212"/></g><!--class hiddenLocation2--><g class="entity" data-entity="hiddenLocation2" data-source-line="285" data-uid="ent0027" id="entity_hiddenLocation2"><rect fill="none" height="34.4063" rx="2.5" ry="2.5" style="stroke:none;stroke-width:0.5;" width="12" x="170.5" y="706.415"/><text fill="#000000" font-family="sans-serif" font-size="14" lengthAdjust="spacing" textLength="3.4727" x="174.7637" y="724.4033">&#160;</text><line style="stroke:none;stroke-width:0.5;" x1="171.5" x2="181.5" y1="732.8212" y2="732.8212"/></g><!--link evaluation to attachment--><g class="link" data-entity-1="evaluation" data-entity-2="attachment" data-source-line="254" data-uid="lnk18" id="link_evaluation_attachment"><path codeLine="254" d="M238,124.625 C135.13,124.625 94.9956,250.7151 78.7756,343.2751" fill="none" id="evaluation-to-attachment" style="stroke:#666666;stroke-width:1;"/><polygon fill="#666666" points="77.74,349.185,83.2334,341.0105,78.603,344.26,75.3535,339.6297,77.74,349.185" style="stroke:#666666;stroke-width:1;"/></g><!--link evaluation to measurement--><g class="link" data-entity-1="evaluation" data-entity-2="measurement" data-source-line="255" data-uid="lnk19" id="link_evaluation_measurement"><path codeLine="255" d="M238,189.625 C174.6,189.625 182.6698,265.9007 202.3498,335.6107" fill="none" id="evaluation-to-measurement" style="stroke:#666666;stroke-width:1;"/><polygon fill="#666666" points="203.98,341.385,205.3843,331.6368,202.6215,336.5731,197.6852,333.8103,203.98,341.385" style="stroke:#666666;stroke-width:1;"/></g><!--link evaluation to activity--><g class="link" data-entity-1="evaluation" data-entity-2="activity" data-source-line="256" data-uid="lnk20" id="link_evaluation_activity"><path codeLine="256" d="M359,124.625 C542.57,124.625 279.38,393.135 394.5,536.125 C463.09,621.315 540.51,545.545 629.5,609.125 C635.66,613.515 637.2208,614.3503 642.8108,619.7403" fill="none" id="evaluation-to-activity" style="stroke:#666666;stroke-width:1;"/><polygon fill="#666666" points="647.13,623.905,643.4276,614.7785,643.5307,620.4344,637.8747,620.5375,647.13,623.905" style="stroke:#666666;stroke-width:1;"/></g><!--link evaluation to hiddenLocation1--><g class="link" data-entity-1="evaluation" data-entity-2="hiddenLocation1" data-source-line="269" data-uid="lnk22" id="link_evaluation_hiddenLocation1"><path codeLine="269" d="M359,222.625 C449.47,222.625 686.52,275.215 748.5,341.125 C769.03,362.955 772.2885,393.685 772.2585,414.975" fill="none" id="evaluation-to-hiddenLocation1" style="stroke:#666666;stroke-width:1;"/><polygon fill="#666666" points="772.25,420.975,776.2627,411.9806,772.257,415.975,768.2627,411.9694,772.25,420.975" style="stroke:#666666;stroke-width:1;"/></g><!--link hiddenLocation1 to activity--><!--link attachment to activity--><g class="link" data-entity-1="attachment" data-entity-2="activity" data-source-line="278" data-uid="lnk24" id="link_attachment_activity"><path codeLine="278" d="M129,397.125 C160.37,397.125 132.15,513.145 153.5,536.125 C206.55,593.215 246.72,565.725 323.5,579.125 C390.81,590.865 570.16,575.255 629.5,609.125 C635.75,612.685 637.0965,613.0613 642.6665,617.7913" fill="none" id="attachment-to-activity" style="stroke:#666666;stroke-width:1;"/><polygon fill="#666666" points="647.24,621.675,642.969,612.8004,643.4288,618.4385,637.7906,618.8984,647.24,621.675" style="stroke:#666666;stroke-width:1;"/></g><!--link attachment to location--><g class="link" data-entity-1="attachment" data-entity-2="location" data-source-line="279" data-uid="lnk25" id="link_attachment_location"><path codeLine="279" d="M129,495.125 C148.1,495.125 148.56,819.425 152.5,838.125 C157.59,862.275 163.6566,882.171 172.0766,905.161" fill="none" id="attachment-to-location" style="stroke:#666666;stroke-width:1;"/><polygon fill="#666666" points="174.14,910.795,174.8009,900.9683,172.4205,906.1,167.2888,903.7196,174.14,910.795" style="stroke:#666666;stroke-width:1;"/></g><!--link measurement to activity--><g class="link" data-entity-1="measurement" data-entity-2="activity" data-source-line="281" data-uid="lnk26" id="link_measurement_activity"><path codeLine="281" d="M298.5,389.125 C341.69,389.125 307.33,550.295 339.5,579.125 C387.75,622.355 573.32,576.855 629.5,609.125 C635.75,612.705 637.0806,613.0865 642.6506,617.8265" fill="none" id="measurement-to-activity" style="stroke:#666666;stroke-width:1;"/><polygon fill="#666666" points="647.22,621.715,642.9582,612.836,643.4122,618.4746,637.7735,618.9285,647.22,621.715" style="stroke:#666666;stroke-width:1;"/></g><!--link measurement to hiddenLocation2--><g class="link" data-entity-1="measurement" data-entity-2="hiddenLocation2" data-source-line="287" data-uid="lnk28" id="link_measurement_hiddenLocation2"><path codeLine="287" d="M178.5,503.125 C137.91,503.125 162.3555,649.1813 172.0955,700.2313" fill="none" id="measurement-to-hiddenLocation2" style="stroke:#666666;stroke-width:1;"/><polygon fill="#666666" points="173.22,706.125,175.4624,696.5348,172.2829,701.2136,167.6042,698.0341,173.22,706.125" style="stroke:#666666;stroke-width:1;"/></g><!--link hiddenLocation2 to location--><!--link collection to activity--><g class="link" data-entity-1="collection" data-entity-2="activity" data-source-line="294" data-uid="lnk30" id="link_collection_activity"><path codeLine="294" d="M584.5,450.625 C623.97,450.625 593.45,499.635 608.5,536.125 C619.38,562.505 630.2496,584.6316 644.1496,610.0316" fill="none" id="collection-to-activity" style="stroke:#666666;stroke-width:1;"/><polygon fill="#666666" points="647.03,615.295,646.2184,605.4796,644.6297,610.9088,639.2005,609.3201,647.03,615.295" style="stroke:#666666;stroke-width:1;"/></g><!--link collection to collection--><g class="link" data-entity-1="collection" data-entity-2="collection" data-source-line="295" data-uid="lnk31" id="link_collection_collection"><path codeLine="295" d="M503.94,442.925 C518.96,390.345 518.15,289.625 501.5,289.625 C492,289.625 487.5201,312.9066 488.3301,347.6266" fill="none" id="collection-to-collection" style="stroke:#666666;stroke-width:1;"/><polygon fill="#666666" points="488.47,353.625,492.259,344.5342,488.3534,348.6264,484.2612,344.7207,488.47,353.625" style="stroke:#666666;stroke-width:1;"/><text fill="#666666" font-family="sans-serif" font-size="10" lengthAdjust="spacing" textLength="40.5664" x="481.5" y="269.9023">recursive</text><text fill="#666666" font-family="sans-serif" font-size="10" lengthAdjust="spacing" textLength="32.8271" x="485.3696" y="281.6211">nesting</text></g><!--link collection to location--><g class="link" data-entity-1="collection" data-entity-2="location" data-source-line="296" data-uid="lnk32" id="link_collection_location"><path codeLine="296" d="M418.5,466.625 C323.79,466.625 252.0871,759.8977 222.3271,904.7977" fill="none" id="collection-to-location" style="stroke:#666666;stroke-width:1;"/><polygon fill="#666666" points="221.12,910.675,226.8489,902.6638,222.1259,905.7772,219.0124,901.0543,221.12,910.675" style="stroke:#666666;stroke-width:1;"/></g><!--reverse link contributorInformation to activity--><g class="link" data-entity-1="contributorInformation" data-entity-2="activity" data-source-line="298" data-uid="lnk34" id="link_contributorInformation_activity"><path codeLine="298" d="M617.4981,768.5984 C631.3981,772.2984 639.97,773.125 654,773.125" fill="none" id="contributorInformation-backto-activity" style="stroke:#666666;stroke-width:1;"/><polygon fill="#666666" points="611.7,767.055,619.3682,773.2355,616.5318,768.3411,621.4261,765.5047,611.7,767.055" style="stroke:#666666;stroke-width:1;"/></g><!--link activity to contributionDetails--><g class="link" data-entity-1="activity" data-entity-2="contributionDetails" data-source-line="299" data-uid="lnk35" id="link_activity_contributionDetails"><path codeLine="299" d="M771,773.125 C834.81,773.125 796.4183,858.6336 759.6683,922.0536" fill="none" id="activity-to-contributionDetails" style="stroke:#666666;stroke-width:1;"/><polygon fill="#666666" points="756.66,927.245,764.6333,921.4634,759.1669,922.9188,757.7115,917.4524,756.66,927.245" style="stroke:#666666;stroke-width:1;"/></g><!--link activity to rights--><g class="link" data-entity-1="activity" data-entity-2="rights" data-source-line="300" data-uid="lnk36" id="link_activity_rights"><path codeLine="300" d="M771,806.125 C871.01,806.125 832.61,1032.605 818.5,1065.965 C802.62,1103.515 775.0619,1131.9553 745.8419,1155.2453" fill="none" id="activity-to-rights" style="stroke:#666666;stroke-width:1;"/><polygon fill="#666666" points="741.15,1158.985,750.6811,1156.5033,745.06,1155.8685,745.6947,1150.2474,741.15,1158.985" style="stroke:#666666;stroke-width:1;"/></g><!--link activity to location--><g class="link" data-entity-1="activity" data-entity-2="location" data-source-line="301" data-uid="lnk37" id="link_activity_location"><path codeLine="301" d="M654,789.125 C629.65,789.125 649.22,823.835 629.5,838.125 C555.64,891.625 513.01,839.255 426.5,868.125 C362.81,889.365 300.908,925.2219 257.838,952.8919" fill="none" id="activity-to-location" style="stroke:#666666;stroke-width:1;"/><polygon fill="#666666" points="252.79,956.135,262.5241,954.6358,256.9967,953.4324,258.2,947.9051,252.79,956.135" style="stroke:#666666;stroke-width:1;"/></g><!--link contributorInformation to contributorEntity--><g class="link" data-entity-1="contributorInformation" data-entity-2="contributorEntity" data-source-line="303" data-uid="lnk38" id="link_contributorInformation_contributorEntity"><path codeLine="303" d="M430,715.125 C328.65,715.125 438.4427,885.7542 487.0627,955.0142" fill="none" id="contributorInformation-to-contributorEntity" style="stroke:#666666;stroke-width:1;"/><polygon fill="#666666" points="490.51,959.925,488.6129,950.2606,487.6372,955.8327,482.0651,954.857,490.51,959.925" style="stroke:#666666;stroke-width:1;"/><text fill="#666666" font-family="sans-serif" font-size="10" lengthAdjust="spacing" textLength="40.9717" x="438.95" y="878.4023">identifies</text></g><!--link token to activity--><g class="link" data-entity-1="token" data-entity-2="activity" data-source-line="307" data-uid="lnk39" id="link_token_activity"><path codeLine="307" d="M679.95,471.835 C681.43,500.165 684.13,542.475 688.5,579.125 C689.67,588.905 690.1643,593.0978 691.6443,603.2478" fill="none" id="token-to-activity" style="stroke:#666666;stroke-width:1;stroke-dasharray:7,7;"/><polygon fill="#666666" points="692.51,609.185,695.1696,599.702,691.7886,604.2373,687.2533,600.8563,692.51,609.185" style="stroke:#666666;stroke-width:1;"/><text fill="#666666" font-family="sans-serif" font-size="10" lengthAdjust="spacing" textLength="42.7246" x="689.5" y="576.4023">tokenizes</text></g><!--link funder to activity--><g class="link" data-entity-1="funder" data-entity-2="activity" data-source-line="308" data-uid="lnk40" id="link_funder_activity"><path codeLine="308" d="M878.52,467.275 C855.33,502.945 816.9702,561.9345 781.2102,616.9445" fill="none" id="funder-to-activity" style="stroke:#666666;stroke-width:1;stroke-dasharray:7,7;"/><polygon fill="#666666" points="777.94,621.975,786.1989,616.6093,780.6651,617.7829,779.4916,612.2491,777.94,621.975" style="stroke:#666666;stroke-width:1;"/><text fill="#666666" font-family="sans-serif" font-size="10" lengthAdjust="spacing" textLength="25.3125" x="811.02" y="576.4023">funds</text></g><!--link contributorEntity to rights--><g class="link" data-entity-1="contributorEntity" data-entity-2="rights" data-source-line="309" data-uid="lnk41" id="link_contributorEntity_rights"><path codeLine="309" d="M532.86,1016.925 C557.93,1047.635 595.585,1093.7576 628.355,1133.8876" fill="none" id="contributorEntity-to-rights" style="stroke:#666666;stroke-width:1;stroke-dasharray:7,7;"/><polygon fill="#666666" points="632.15,1138.535,629.5557,1129.034,628.9875,1134.6622,623.3592,1134.094,632.15,1138.535" style="stroke:#666666;stroke-width:1;"/><text fill="#666666" font-family="sans-serif" font-size="10" lengthAdjust="spacing" textLength="16.1084" x="607.24" y="1106.2423">has</text></g><!--link fundingReceipt to funder--><g class="link" data-entity-1="fundingReceipt" data-entity-2="funder" data-source-line="315" data-uid="lnk42" id="link_fundingReceipt_funder"><path codeLine="315" d="M987,116.125 C865.38,116.125 881.5302,325.9946 891.6202,403.9846" fill="none" id="fundingReceipt-to-funder" style="stroke:#666666;stroke-width:1;"/><polygon fill="#666666" points="892.39,409.935,895.2022,400.4962,891.7485,404.9763,887.2683,401.5226,892.39,409.935" style="stroke:#666666;stroke-width:1;"/></g><!--link fundingReceipt to contributorEntity--><g class="link" data-entity-1="fundingReceipt" data-entity-2="contributorEntity" data-source-line="316" data-uid="lnk43" id="link_fundingReceipt_contributorEntity"><path codeLine="316" d="M1114,100.125 C1176.22,100.125 1240.09,281.105 1256.5,341.125 C1314.78,554.185 1403.55,673.285 1256.5,838.125 C1161.5,944.605 751.81,860.195 618.5,911.125 C589.53,922.185 565.6867,938.9908 545.2667,956.0308" fill="none" id="fundingReceipt-to-contributorEntity" style="stroke:#666666;stroke-width:1;"/><polygon fill="#666666" points="540.66,959.875,550.1329,957.1798,544.4989,956.6715,545.0073,951.0375,540.66,959.875" style="stroke:#666666;stroke-width:1;"/></g><!--link fundingReceipt to activity--><g class="link" data-entity-1="fundingReceipt" data-entity-2="activity" data-source-line="318" data-uid="lnk44" id="link_fundingReceipt_activity"><path codeLine="318" d="M1114,132.125 C1179.78,132.125 1133.6,217.645 1113,280.125 C1102.49,311.995 1084.29,311.505 1068.5,341.125 C1025.12,422.515 1054.79,463.845 997.5,536.125 C938.73,610.265 847.5159,662.0137 783.3059,692.3237" fill="none" id="fundingReceipt-to-activity" style="stroke:#666666;stroke-width:1;"/><polygon fill="#666666" points="777.88,694.885,787.7263,694.6604,782.4016,692.7506,784.3113,687.4259,777.88,694.885" style="stroke:#666666;stroke-width:1;"/><text fill="#666666" font-family="sans-serif" font-size="10" lengthAdjust="spacing" textLength="25.3125" x="1069.5" y="442.4023">funds</text></g><!--link badgeAward to badgeDefinition--><g class="link" data-entity-1="badgeAward" data-entity-2="badgeDefinition" data-source-line="320" data-uid="lnk45" id="link_badgeAward_badgeDefinition"><path codeLine="320" d="M1119.5,430.125 C1090.61,430.125 1114.38,466.885 1120.5,495.125 C1127.8,528.775 1142.13,532.985 1151.5,566.125 C1159.49,594.365 1163.9411,620.387 1167.2311,648.037" fill="none" id="badgeAward-to-badgeDefinition" style="stroke:#666666;stroke-width:1;"/><polygon fill="#666666" points="1167.94,653.995,1170.8486,644.5854,1167.3492,649.03,1162.9046,645.5307,1167.94,653.995" style="stroke:#666666;stroke-width:1;"/></g><!--link badgeResponse to badgeAward--><g class="link" data-entity-1="badgeResponse" data-entity-2="badgeAward" data-source-line="321" data-uid="lnk46" id="link_badgeResponse_badgeAward"><path codeLine="321" d="M1399.5,157.625 C1516.85,157.625 1344.6402,305.7183 1243.1902,385.7683" fill="none" id="badgeResponse-to-badgeAward" style="stroke:#666666;stroke-width:1;"/><polygon fill="#666666" points="1238.48,389.485,1248.0231,387.0502,1242.4052,386.3878,1243.0676,380.7698,1238.48,389.485" style="stroke:#666666;stroke-width:1;"/></g><!--link badgeAward to contributorInformation--><g class="link" data-entity-1="badgeAward" data-entity-2="contributorInformation" data-source-line="322" data-uid="lnk47" id="link_badgeAward_contributorInformation"><path codeLine="322" d="M1119.5,446.125 C1076.74,446.125 1118.38,508.785 1085.5,536.125 C1006.58,601.715 721.23,563.095 629.5,609.125 C602.28,622.775 581.7494,641.1557 562.6494,662.8057" fill="none" id="badgeAward-to-contributorInformation" style="stroke:#666666;stroke-width:1;"/><polygon fill="#666666" points="558.68,667.305,567.6336,663.2023,561.9878,663.5556,561.6345,657.9097,558.68,667.305" style="stroke:#666666;stroke-width:1;"/></g><!--link badgeAward to activity--><g class="link" data-entity-1="badgeAward" data-entity-2="activity" data-source-line="323" data-uid="lnk48" id="link_badgeAward_activity"><path codeLine="323" d="M1119.5,446.125 C1060.25,446.125 1146.17,531.815 1110.5,579.125 C1031.44,683.945 874.7292,711.8456 783.7392,719.4456" fill="none" id="badgeAward-to-activity" style="stroke:#666666;stroke-width:1;"/><polygon fill="#666666" points="777.76,719.945,787.0617,723.182,782.7426,719.5288,786.3958,715.2098,777.76,719.945" style="stroke:#666666;stroke-width:1;"/></g><!--SRC=[Kqn9JSlCIrK8zl0FZtVpTFLn2LOeAIfDvU9IpCnBpYbDILLm3NBHAoZDpU420000]--></g></svg>