<svg xmlns="http://www.w3.org/2000/svg" xmlns:xlink="http://www.w3.org/1999/xlink" contentStyleType="text/css" data-diagram-type="CLASS" height="1335px" preserveAspectRatio="none" style="width:1117px;height:1335px;background:#FFFFFF;" version="1.1" viewBox="0 0 1117 1335" width="1117px" zoomAndPan="magnify"><title>Hypercert ERD</title><defs/><g><g class="title" data-source-line="7"><text fill="#000000" font-family="sans-serif" font-size="24" font-weight="bold" lengthAdjust="spacing" textLength="169.3945" x="466.8491" y="32.5117">Hypercert ERD</text></g><!--class contributor--><g class="entity" data-entity="contributor" data-source-line="47" data-uid="ent0002" id="entity_contributor"><rect fill="#FFD4A3" height="56.0986" rx="2.5" ry="2.5" style="stroke:#181818;stroke-width:0.5;" width="167.627" x="46.19" y="695.5477"/><ellipse cx="92.6812" cy="711.5477" fill="#ADD1B2" rx="11" ry="11" style="stroke:#181818;stroke-width:1;"/><path d="M88.7437,717.5477 L96.2593,717.5477 L96.2593,715.4383 L91.2593,715.4383 L91.2593,712.8914 L95.3531,712.8914 L95.3531,710.7977 L91.2593,710.7977 L91.2593,708.5789 L96.0875,708.5789 L96.0875,706.4695 L88.7437,706.4695 L88.7437,717.5477 Z " fill="#000000"/><text fill="#000000" font-family="sans-serif" font-size="14" lengthAdjust="spacing" textLength="66.1445" x="113.1812" y="716.6302">contributor</text><line style="stroke:#181818;stroke-width:0.5;" x1="47.19" x2="212.817" y1="727.5477" y2="727.5477"/><text fill="#000000" font-family="sans-serif" font-size="14" lengthAdjust="spacing" textLength="155.627" x="52.19" y="744.6795">DID or name/pseudonym</text></g><!--class activity--><g class="entity" data-entity="activity" data-source-line="55" data-uid="ent0003" id="entity_activity"><rect fill="#B4E5D0" height="234.1816" rx="2.5" ry="2.5" style="stroke:#181818;stroke-width:0.5;" width="113.1514" x="614.5" y="606.5977"/><ellipse cx="635.0015" cy="623.0967" fill="#7E57C2" rx="11" ry="11" style="stroke:#181818;stroke-width:1;"/><path d="M632.189,629.0967 L635.4078,629.0967 C638.4859,629.0967 640.5953,627.3154 640.5953,623.5029 C640.5953,619.6904 638.4859,618.0186 635.2515,618.0186 L632.189,618.0186 L632.189,629.0967 Z M634.7046,627.0811 L634.7046,620.0342 L635.1109,620.0342 C636.8453,620.0342 638.0171,620.8467 638.0171,623.5029 C638.0171,626.1592 636.8453,627.0811 635.1109,627.0811 L634.7046,627.0811 Z " fill="#000000"/><text fill="#000000" font-family="sans-serif" font-size="20" font-weight="bold" lengthAdjust="spacing" textLength="68.9258" x="650.2241" y="630.3574">activity</text><line style="stroke:#181818;stroke-width:0.5;" x1="615.5" x2="726.6514" y1="639.5957" y2="639.5957"/><text fill="#000000" font-family="sans-serif" font-size="14" lengthAdjust="spacing" textLength="21.7861" x="620.5" y="656.7275">title</text><text fill="#000000" font-family="sans-serif" font-size="14" lengthAdjust="spacing" textLength="101.1514" x="620.5" y="672.8262">shortDescription</text><text fill="#000000" font-family="sans-serif" font-size="14" lengthAdjust="spacing" textLength="75.4893" x="620.5" y="688.9248">description?</text><text fill="#000000" font-family="sans-serif" font-size="14" lengthAdjust="spacing" textLength="45.917" x="620.5" y="705.0234">image?</text><text fill="#000000" font-family="sans-serif" font-size="14" lengthAdjust="spacing" textLength="77.041" x="620.5" y="721.1221">workScope?</text><text fill="#000000" font-family="sans-serif" font-size="14" lengthAdjust="spacing" textLength="56.7998" x="620.5" y="737.2207">startDate</text><text fill="#000000" font-family="sans-serif" font-size="14" lengthAdjust="spacing" textLength="52.9307" x="620.5" y="753.3193">endDate</text><text fill="#000000" font-family="sans-serif" font-size="14" lengthAdjust="spacing" textLength="94.9443" x="620.5" y="769.418">contributions[]?</text><text fill="#000000" font-family="sans-serif" font-size="14" lengthAdjust="spacing" textLength="56.041" x="620.5" y="785.5166">location?</text><text fill="#000000" font-family="sans-serif" font-size="14" lengthAdjust="spacing" textLength="42.0205" x="620.5" y="801.6152">rights?</text><text fill="#000000" font-family="sans-serif" font-size="14" lengthAdjust="spacing" textLength="49.8066" x="620.5" y="817.7139">project?</text><text fill="#000000" font-family="sans-serif" font-size="14" lengthAdjust="spacing" textLength="59.9238" x="620.5" y="833.8125">createdAt</text></g><!--class evidence--><g class="entity" data-entity="evidence" data-source-line="73" data-uid="ent0004" id="entity_evidence"><rect fill="#F1F1F1" height="136.5918" rx="2.5" ry="2.5" style="stroke:#181818;stroke-width:0.5;" width="120.9375" x="821" y="365.5977"/><ellipse cx="850.8034" cy="381.5977" fill="#7E57C2" rx="11" ry="11" style="stroke:#181818;stroke-width:1;"/><path d="M847.9909,387.5977 L851.2097,387.5977 C854.2878,387.5977 856.3972,385.8164 856.3972,382.0039 C856.3972,378.1914 854.2878,376.5195 851.0534,376.5195 L847.9909,376.5195 L847.9909,387.5977 Z M850.5065,385.582 L850.5065,378.5352 L850.9128,378.5352 C852.6472,378.5352 853.819,379.3477 853.819,382.0039 C853.819,384.6602 852.6472,385.582 850.9128,385.582 L850.5065,385.582 Z " fill="#000000"/><text fill="#000000" font-family="sans-serif" font-size="14" lengthAdjust="spacing" textLength="56.041" x="868.0931" y="386.6802">evidence</text><line style="stroke:#181818;stroke-width:0.5;" x1="822" x2="940.9375" y1="397.5977" y2="397.5977"/><text fill="#000000" font-family="sans-serif" font-size="14" lengthAdjust="spacing" textLength="50.5723" x="827" y="414.7295">activity?</text><text fill="#000000" font-family="sans-serif" font-size="14" lengthAdjust="spacing" textLength="45.9238" x="827" y="430.8281">content</text><text fill="#000000" font-family="sans-serif" font-size="14" lengthAdjust="spacing" textLength="21.7861" x="827" y="446.9268">title</text><text fill="#000000" font-family="sans-serif" font-size="14" lengthAdjust="spacing" textLength="108.9375" x="827" y="463.0254">shortDescription?</text><text fill="#000000" font-family="sans-serif" font-size="14" lengthAdjust="spacing" textLength="75.4893" x="827" y="479.124">description?</text><text fill="#000000" font-family="sans-serif" font-size="14" lengthAdjust="spacing" textLength="59.9238" x="827" y="495.2227">createdAt</text></g><!--class measurement--><g class="entity" data-entity="measurement" data-source-line="85" data-uid="ent0005" id="entity_measurement"><rect fill="#F1F1F1" height="184.8877" rx="2.5" ry="2.5" style="stroke:#181818;stroke-width:0.5;" width="117.5928" x="992.5" y="341.5977"/><ellipse cx="1007.5" cy="357.5977" fill="#7E57C2" rx="11" ry="11" style="stroke:#181818;stroke-width:1;"/><path d="M1004.6875,363.5977 L1007.9063,363.5977 C1010.9844,363.5977 1013.0938,361.8164 1013.0938,358.0039 C1013.0938,354.1914 1010.9844,352.5195 1007.75,352.5195 L1004.6875,352.5195 L1004.6875,363.5977 Z M1007.2031,361.582 L1007.2031,354.5352 L1007.6094,354.5352 C1009.3438,354.5352 1010.5156,355.3477 1010.5156,358.0039 C1010.5156,360.6602 1009.3438,361.582 1007.6094,361.582 L1007.2031,361.582 Z " fill="#000000"/><text fill="#000000" font-family="sans-serif" font-size="14" lengthAdjust="spacing" textLength="85.5928" x="1021.5" y="362.6802">measurement</text><line style="stroke:#181818;stroke-width:0.5;" x1="993.5" x2="1109.0928" y1="373.5977" y2="373.5977"/><text fill="#000000" font-family="sans-serif" font-size="14" lengthAdjust="spacing" textLength="50.5723" x="998.5" y="390.7295">activity?</text><text fill="#000000" font-family="sans-serif" font-size="14" lengthAdjust="spacing" textLength="73.9102" x="998.5" y="406.8281">measurers[]</text><text fill="#000000" font-family="sans-serif" font-size="14" lengthAdjust="spacing" textLength="38.1104" x="998.5" y="422.9268">metric</text><text fill="#000000" font-family="sans-serif" font-size="14" lengthAdjust="spacing" textLength="33.4688" x="998.5" y="439.0254">value</text><text fill="#000000" font-family="sans-serif" font-size="14" lengthAdjust="spacing" textLength="85.6064" x="998.5" y="455.124">methodType?</text><text fill="#000000" font-family="sans-serif" font-size="14" lengthAdjust="spacing" textLength="78.5928" x="998.5" y="471.2227">methodURI?</text><text fill="#000000" font-family="sans-serif" font-size="14" lengthAdjust="spacing" textLength="95.7168" x="998.5" y="487.3213">evidenceURI[]?</text><text fill="#000000" font-family="sans-serif" font-size="14" lengthAdjust="spacing" textLength="56.041" x="998.5" y="503.4199">location?</text><text fill="#000000" font-family="sans-serif" font-size="14" lengthAdjust="spacing" textLength="59.9238" x="998.5" y="519.5186">createdAt</text></g><!--class evaluation--><g class="entity" data-entity="evaluation" data-source-line="100" data-uid="ent0006" id="entity_evaluation"><rect fill="#F1F1F1" height="152.6904" rx="2.5" ry="2.5" style="stroke:#181818;stroke-width:0.5;" width="120.1582" x="749" y="88.0977"/><ellipse cx="774.949" cy="104.0977" fill="#7E57C2" rx="11" ry="11" style="stroke:#181818;stroke-width:1;"/><path d="M772.1365,110.0977 L775.3552,110.0977 C778.4333,110.0977 780.5427,108.3164 780.5427,104.5039 C780.5427,100.6914 778.4333,99.0195 775.199,99.0195 L772.1365,99.0195 L772.1365,110.0977 Z M774.6521,108.082 L774.6521,101.0352 L775.0583,101.0352 C776.7927,101.0352 777.9646,101.8477 777.9646,104.5039 C777.9646,107.1602 776.7927,108.082 775.0583,108.082 L774.6521,108.082 Z " fill="#000000"/><text fill="#000000" font-family="sans-serif" font-size="14" lengthAdjust="spacing" textLength="63.8271" x="791.3821" y="109.1802">evaluation</text><line style="stroke:#181818;stroke-width:0.5;" x1="750" x2="868.1582" y1="120.0977" y2="120.0977"/><text fill="#000000" font-family="sans-serif" font-size="14" lengthAdjust="spacing" textLength="44.3584" x="755" y="137.2295">subject</text><text fill="#000000" font-family="sans-serif" font-size="14" lengthAdjust="spacing" textLength="57.5586" x="755" y="153.3281">summary</text><text fill="#000000" font-family="sans-serif" font-size="14" lengthAdjust="spacing" textLength="72.3721" x="755" y="169.4268">evaluators[]</text><text fill="#000000" font-family="sans-serif" font-size="14" lengthAdjust="spacing" textLength="108.1582" x="755" y="185.5254">measurements[]?</text><text fill="#000000" font-family="sans-serif" font-size="14" lengthAdjust="spacing" textLength="71.6064" x="755" y="201.624">evidence[]?</text><text fill="#000000" font-family="sans-serif" font-size="14" lengthAdjust="spacing" textLength="56.041" x="755" y="217.7227">location?</text><text fill="#000000" font-family="sans-serif" font-size="14" lengthAdjust="spacing" textLength="59.9238" x="755" y="233.8213">createdAt</text></g><!--class contribution--><g class="entity" data-entity="contribution" data-source-line="113" data-uid="ent0007" id="entity_contribution"><rect fill="#F1F1F1" height="136.5918" rx="2.5" ry="2.5" style="stroke:#181818;stroke-width:0.5;" width="104.3789" x="78" y="365.5977"/><ellipse cx="93" cy="381.5977" fill="#7E57C2" rx="11" ry="11" style="stroke:#181818;stroke-width:1;"/><path d="M90.1875,387.5977 L93.4063,387.5977 C96.4844,387.5977 98.5938,385.8164 98.5938,382.0039 C98.5938,378.1914 96.4844,376.5195 93.25,376.5195 L90.1875,376.5195 L90.1875,387.5977 Z M92.7031,385.582 L92.7031,378.5352 L93.1094,378.5352 C94.8438,378.5352 96.0156,379.3477 96.0156,382.0039 C96.0156,384.6602 94.8438,385.582 93.1094,385.582 L92.7031,385.582 Z " fill="#000000"/><text fill="#000000" font-family="sans-serif" font-size="14" lengthAdjust="spacing" textLength="72.3789" x="107" y="386.6802">contribution</text><line style="stroke:#181818;stroke-width:0.5;" x1="79" x2="181.3789" y1="397.5977" y2="397.5977"/><text fill="#000000" font-family="sans-serif" font-size="14" lengthAdjust="spacing" textLength="31.1309" x="84" y="414.7295">role?</text><text fill="#000000" font-family="sans-serif" font-size="14" lengthAdjust="spacing" textLength="80.9238" x="84" y="430.8281">contributors[]</text><text fill="#000000" font-family="sans-serif" font-size="14" lengthAdjust="spacing" textLength="75.4893" x="84" y="446.9268">description?</text><text fill="#000000" font-family="sans-serif" font-size="14" lengthAdjust="spacing" textLength="56.7998" x="84" y="463.0254">startDate</text><text fill="#000000" font-family="sans-serif" font-size="14" lengthAdjust="spacing" textLength="52.9307" x="84" y="479.124">endDate</text><text fill="#000000" font-family="sans-serif" font-size="14" lengthAdjust="spacing" textLength="59.9238" x="84" y="495.2227">createdAt</text></g><!--class location--><g class="entity" data-entity="location" data-source-line="125" data-uid="ent0008" id="entity_location"><rect fill="#F1F1F1" height="152.6904" rx="2.5" ry="2.5" style="stroke:#181818;stroke-width:0.5;" width="91.3789" x="742.31" y="1175.6977"/><ellipse cx="762.3158" cy="1191.6977" fill="#7E57C2" rx="11" ry="11" style="stroke:#181818;stroke-width:1;"/><path d="M759.5033,1197.6977 L762.7221,1197.6977 C765.8002,1197.6977 767.9096,1195.9164 767.9096,1192.1039 C767.9096,1188.2914 765.8002,1186.6195 762.5658,1186.6195 L759.5033,1186.6195 L759.5033,1197.6977 Z M762.0189,1195.682 L762.0189,1188.6352 L762.4252,1188.6352 C764.1596,1188.6352 765.3314,1189.4477 765.3314,1192.1039 C765.3314,1194.7602 764.1596,1195.682 762.4252,1195.682 L762.0189,1195.682 Z " fill="#000000"/><text fill="#000000" font-family="sans-serif" font-size="14" lengthAdjust="spacing" textLength="48.2549" x="777.4282" y="1196.7802">location</text><line style="stroke:#181818;stroke-width:0.5;" x1="743.31" x2="832.6889" y1="1207.6977" y2="1207.6977"/><text fill="#000000" font-family="sans-serif" font-size="14" lengthAdjust="spacing" textLength="58.3652" x="748.31" y="1224.8295">lpVersion</text><text fill="#000000" font-family="sans-serif" font-size="14" lengthAdjust="spacing" textLength="18.6621" x="748.31" y="1240.9281">srs</text><text fill="#000000" font-family="sans-serif" font-size="14" lengthAdjust="spacing" textLength="79.3789" x="748.31" y="1257.0268">locationType</text><text fill="#000000" font-family="sans-serif" font-size="14" lengthAdjust="spacing" textLength="48.2549" x="748.31" y="1273.1254">location</text><text fill="#000000" font-family="sans-serif" font-size="14" lengthAdjust="spacing" textLength="42.8066" x="748.31" y="1289.224">name?</text><text fill="#000000" font-family="sans-serif" font-size="14" lengthAdjust="spacing" textLength="75.4893" x="748.31" y="1305.3227">description?</text><text fill="#000000" font-family="sans-serif" font-size="14" lengthAdjust="spacing" textLength="59.9238" x="748.31" y="1321.4213">createdAt</text></g><!--class rights--><g class="entity" data-entity="rights" data-source-line="138" data-uid="ent0009" id="entity_rights"><rect fill="#F1F1F1" height="120.4932" rx="2.5" ry="2.5" style="stroke:#181818;stroke-width:0.5;" width="116.2617" x="377.87" y="966.4477"/><ellipse cx="415.3823" cy="982.4477" fill="#7E57C2" rx="11" ry="11" style="stroke:#181818;stroke-width:1;"/><path d="M412.5698,988.4477 L415.7886,988.4477 C418.8667,988.4477 420.9761,986.6664 420.9761,982.8539 C420.9761,979.0414 418.8667,977.3695 415.6323,977.3695 L412.5698,977.3695 L412.5698,988.4477 Z M415.0854,986.432 L415.0854,979.3852 L415.4917,979.3852 C417.2261,979.3852 418.3979,980.1977 418.3979,982.8539 C418.3979,985.5102 417.2261,986.432 415.4917,986.432 L415.0854,986.432 Z " fill="#000000"/><text fill="#000000" font-family="sans-serif" font-size="14" lengthAdjust="spacing" textLength="34.2344" x="434.385" y="987.5302">rights</text><line style="stroke:#181818;stroke-width:0.5;" x1="378.87" x2="493.1317" y1="998.4477" y2="998.4477"/><text fill="#000000" font-family="sans-serif" font-size="14" lengthAdjust="spacing" textLength="71.5791" x="383.87" y="1015.5795">rightsName</text><text fill="#000000" font-family="sans-serif" font-size="14" lengthAdjust="spacing" textLength="65.3584" x="383.87" y="1031.6781">rightsType</text><text fill="#000000" font-family="sans-serif" font-size="14" lengthAdjust="spacing" textLength="104.2617" x="383.87" y="1047.7768">rightsDescription</text><text fill="#000000" font-family="sans-serif" font-size="14" lengthAdjust="spacing" textLength="77.0479" x="383.87" y="1063.8754">attachment?</text><text fill="#000000" font-family="sans-serif" font-size="14" lengthAdjust="spacing" textLength="59.9238" x="383.87" y="1079.974">createdAt</text></g><!--class collection--><g class="entity" data-entity="collection" data-source-line="149" data-uid="ent0010" id="entity_collection"><rect fill="#F1F1F1" height="136.5918" rx="2.5" ry="2.5" style="stroke:#181818;stroke-width:0.5;" width="120.9375" x="436" y="365.5977"/><ellipse cx="464.7575" cy="381.5977" fill="#7E57C2" rx="11" ry="11" style="stroke:#181818;stroke-width:1;"/><path d="M461.945,387.5977 L465.1638,387.5977 C468.2419,387.5977 470.3513,385.8164 470.3513,382.0039 C470.3513,378.1914 468.2419,376.5195 465.0075,376.5195 L461.945,376.5195 L461.945,387.5977 Z M464.4606,385.582 L464.4606,378.5352 L464.8669,378.5352 C466.6013,378.5352 467.7731,379.3477 467.7731,382.0039 C467.7731,384.6602 466.6013,385.582 464.8669,385.582 L464.4606,385.582 Z " fill="#000000"/><text fill="#000000" font-family="sans-serif" font-size="14" lengthAdjust="spacing" textLength="58.3652" x="481.8147" y="386.6802">collection</text><line style="stroke:#181818;stroke-width:0.5;" x1="437" x2="555.9375" y1="397.5977" y2="397.5977"/><text fill="#000000" font-family="sans-serif" font-size="14" lengthAdjust="spacing" textLength="21.7861" x="442" y="414.7295">title</text><text fill="#000000" font-family="sans-serif" font-size="14" lengthAdjust="spacing" textLength="108.9375" x="442" y="430.8281">shortDescription?</text><text fill="#000000" font-family="sans-serif" font-size="14" lengthAdjust="spacing" textLength="46.6963" x="442" y="446.9268">avatar?</text><text fill="#000000" font-family="sans-serif" font-size="14" lengthAdjust="spacing" textLength="78.6064" x="442" y="463.0254">coverPhoto?</text><text fill="#000000" font-family="sans-serif" font-size="14" lengthAdjust="spacing" textLength="61.4619" x="442" y="479.124">activities[]</text><text fill="#000000" font-family="sans-serif" font-size="14" lengthAdjust="spacing" textLength="59.9238" x="442" y="495.2227">createdAt</text></g><!--class project--><g class="entity" data-entity="project" data-source-line="161" data-uid="ent0011" id="entity_project"><rect fill="#F1F1F1" height="168.7891" rx="2.5" ry="2.5" style="stroke:#181818;stroke-width:0.5;" width="113.1514" x="613.5" y="942.6977"/><ellipse cx="646.1089" cy="958.6977" fill="#7E57C2" rx="11" ry="11" style="stroke:#181818;stroke-width:1;"/><path d="M643.2964,964.6977 L646.5151,964.6977 C649.5933,964.6977 651.7026,962.9164 651.7026,959.1039 C651.7026,955.2914 649.5933,953.6195 646.3589,953.6195 L643.2964,953.6195 L643.2964,964.6977 Z M645.812,962.682 L645.812,955.6352 L646.2183,955.6352 C647.9526,955.6352 649.1245,956.4477 649.1245,959.1039 C649.1245,961.7602 647.9526,962.682 646.2183,962.682 L645.812,962.682 Z " fill="#000000"/><text fill="#000000" font-family="sans-serif" font-size="14" lengthAdjust="spacing" textLength="42.0205" x="664.022" y="963.7802">project</text><line style="stroke:#181818;stroke-width:0.5;" x1="614.5" x2="725.6514" y1="974.6977" y2="974.6977"/><text fill="#000000" font-family="sans-serif" font-size="14" lengthAdjust="spacing" textLength="21.7861" x="619.5" y="991.8295">title</text><text fill="#000000" font-family="sans-serif" font-size="14" lengthAdjust="spacing" textLength="101.1514" x="619.5" y="1007.9281">shortDescription</text><text fill="#000000" font-family="sans-serif" font-size="14" lengthAdjust="spacing" textLength="75.4893" x="619.5" y="1024.0268">description?</text><text fill="#000000" font-family="sans-serif" font-size="14" lengthAdjust="spacing" textLength="46.6963" x="619.5" y="1040.1254">avatar?</text><text fill="#000000" font-family="sans-serif" font-size="14" lengthAdjust="spacing" textLength="78.6064" x="619.5" y="1056.224">coverPhoto?</text><text fill="#000000" font-family="sans-serif" font-size="14" lengthAdjust="spacing" textLength="69.248" x="619.5" y="1072.3227">activities[]?</text><text fill="#000000" font-family="sans-serif" font-size="14" lengthAdjust="spacing" textLength="56.041" x="619.5" y="1088.4213">location?</text><text fill="#000000" font-family="sans-serif" font-size="14" lengthAdjust="spacing" textLength="59.9238" x="619.5" y="1104.5199">createdAt</text></g><!--class funder--><g class="entity" data-entity="funder" data-source-line="178" data-uid="ent0012" id="entity_funder"><rect fill="#FFD4A3" height="56.0986" rx="2.5" ry="2.5" style="stroke:#181818;stroke-width:0.5;" width="167.627" x="225.19" y="405.5477"/><ellipse cx="284.9053" cy="421.5477" fill="#ADD1B2" rx="11" ry="11" style="stroke:#181818;stroke-width:1;"/><path d="M280.9678,427.5477 L288.4835,427.5477 L288.4835,425.4383 L283.4835,425.4383 L283.4835,422.8914 L287.5772,422.8914 L287.5772,420.7977 L283.4835,420.7977 L283.4835,418.5789 L288.3116,418.5789 L288.3116,416.4695 L280.9678,416.4695 L280.9678,427.5477 Z " fill="#000000"/><text fill="#000000" font-family="sans-serif" font-size="14" lengthAdjust="spacing" textLength="39.6963" x="305.4053" y="426.6302">funder</text><line style="stroke:#181818;stroke-width:0.5;" x1="226.19" x2="391.817" y1="437.5477" y2="437.5477"/><text fill="#000000" font-family="sans-serif" font-size="14" lengthAdjust="spacing" textLength="155.627" x="231.19" y="454.6795">DID or name/pseudonym</text></g><!--class fundingReceipt--><g class="entity" data-entity="fundingReceipt" data-source-line="185" data-uid="ent0013" id="entity_fundingReceipt"><rect fill="#F1F1F1" height="217.085" rx="2.5" ry="2.5" style="stroke:#181818;stroke-width:0.5;" width="125.3994" x="246.5" y="55.5977"/><ellipse cx="261.5" cy="71.5977" fill="#7E57C2" rx="11" ry="11" style="stroke:#181818;stroke-width:1;"/><path d="M258.6875,77.5977 L261.9063,77.5977 C264.9844,77.5977 267.0938,75.8164 267.0938,72.0039 C267.0938,68.1914 264.9844,66.5195 261.75,66.5195 L258.6875,66.5195 L258.6875,77.5977 Z M261.2031,75.582 L261.2031,68.5352 L261.6094,68.5352 C263.3438,68.5352 264.5156,69.3477 264.5156,72.0039 C264.5156,74.6602 263.3438,75.582 261.6094,75.582 L261.2031,75.582 Z " fill="#000000"/><text fill="#000000" font-family="sans-serif" font-size="14" lengthAdjust="spacing" textLength="93.3994" x="275.5" y="76.6802">fundingReceipt</text><line style="stroke:#181818;stroke-width:0.5;" x1="247.5" x2="370.8994" y1="87.5977" y2="87.5977"/><text fill="#000000" font-family="sans-serif" font-size="14" lengthAdjust="spacing" textLength="11.6758" x="252.5" y="104.7295">to</text><text fill="#000000" font-family="sans-serif" font-size="14" lengthAdjust="spacing" textLength="28" x="252.5" y="120.8281">from</text><text fill="#000000" font-family="sans-serif" font-size="14" lengthAdjust="spacing" textLength="24.124" x="252.5" y="136.9268">for?</text><text fill="#000000" font-family="sans-serif" font-size="14" lengthAdjust="spacing" textLength="46.6963" x="252.5" y="153.0254">amount</text><text fill="#000000" font-family="sans-serif" font-size="14" lengthAdjust="spacing" textLength="53.6826" x="252.5" y="169.124">currency</text><text fill="#000000" font-family="sans-serif" font-size="14" lengthAdjust="spacing" textLength="85.5996" x="252.5" y="185.2227">paymentRail?</text><text fill="#000000" font-family="sans-serif" font-size="14" lengthAdjust="spacing" textLength="112.8271" x="252.5" y="201.3213">paymentNetwork?</text><text fill="#000000" font-family="sans-serif" font-size="14" lengthAdjust="spacing" textLength="87.9443" x="252.5" y="217.4199">transactionId?</text><text fill="#000000" font-family="sans-serif" font-size="14" lengthAdjust="spacing" textLength="42.0342" x="252.5" y="233.5186">notes?</text><text fill="#000000" font-family="sans-serif" font-size="14" lengthAdjust="spacing" textLength="75.4824" x="252.5" y="249.6172">occurredAt?</text><text fill="#000000" font-family="sans-serif" font-size="14" lengthAdjust="spacing" textLength="59.9238" x="252.5" y="265.7158">createdAt</text></g><!--class token--><g class="entity" data-entity="token" data-source-line="206" data-uid="ent0014" id="entity_token"><rect fill="#FFB6C1" height="65.0967" rx="2.5" ry="2.5" style="stroke:#181818;stroke-width:0.5;" width="104.5996" x="423.7" y="691.0477"/><ellipse cx="447.3669" cy="707.5467" fill="#F1F1F1" rx="11" ry="11" style="stroke:#181818;stroke-width:1;"/><path d="M444.1481,713.5467 L446.6481,713.5467 L446.6481,709.7967 L448.07,709.7967 C450.4138,709.7967 452.3981,708.6404 452.3981,706.0311 C452.3981,703.3436 450.4606,702.4686 448.07,702.4686 L444.1481,702.4686 L444.1481,713.5467 Z M446.6481,707.7967 L446.6481,704.4529 L447.9138,704.4529 C449.2419,704.4529 449.9606,704.8748 449.9606,706.0311 C449.9606,707.1873 449.2888,707.7967 447.9138,707.7967 L446.6481,707.7967 Z " fill="#000000"/><text fill="#000000" font-family="sans-serif" font-size="20" font-weight="bold" lengthAdjust="spacing" textLength="53.3398" x="463.2929" y="714.8074">token</text><line style="stroke:#181818;stroke-width:0.5;" x1="424.7" x2="527.2996" y1="724.0457" y2="724.0457"/><line style="stroke:#181818;stroke-width:0.5;" x1="424.7" x2="527.2996" y1="732.0457" y2="732.0457"/><text fill="#000000" font-family="sans-serif" font-size="14" lengthAdjust="spacing" textLength="92.5996" x="429.7" y="749.1775">(on-chain only)</text></g><!--class hiddenLocation1--><g class="entity" data-entity="hiddenLocation1" data-source-line="241" data-uid="ent0020" id="entity_hiddenLocation1"><rect fill="none" height="34.0986" rx="2.5" ry="2.5" style="stroke:none;stroke-width:0.5;" width="12" x="766" y="416.5477"/><text fill="#000000" font-family="sans-serif" font-size="14" lengthAdjust="spacing" textLength="3.8896" x="770.0552" y="434.6795">&#160;</text><line style="stroke:none;stroke-width:0.5;" x1="767" x2="777" y1="442.6463" y2="442.6463"/></g><!--class hiddenLocation2--><g class="entity" data-entity="hiddenLocation2" data-source-line="258" data-uid="ent0025" id="entity_hiddenLocation2"><rect fill="none" height="34.0986" rx="2.5" ry="2.5" style="stroke:none;stroke-width:0.5;" width="12" x="975" y="874.5977"/><text fill="#000000" font-family="sans-serif" font-size="14" lengthAdjust="spacing" textLength="3.8896" x="979.0552" y="892.7295">&#160;</text><line style="stroke:none;stroke-width:0.5;" x1="976" x2="986" y1="900.6963" y2="900.6963"/></g><!--link token to activity--><g class="link" data-entity-1="token" data-entity-2="activity" data-source-line="277" data-uid="lnk36" id="link_token_activity"><path codeLine="277" d="M528.77,723.5977 C552.79,723.5977 575.44,723.5977 600.72,723.5977" fill="none" id="token-to-activity" style="stroke:#666666;stroke-width:1;"/><polygon fill="#666666" points="606.72,723.5977,597.72,719.5977,601.72,723.5977,597.72,727.5977,606.72,723.5977" style="stroke:#666666;stroke-width:1;"/><text fill="#666666" font-family="sans-serif" font-size="10" lengthAdjust="spacing" textLength="42.2461" x="546.4" y="717.9775">tokenizes</text></g><!--link evaluation to evidence--><g class="link" data-entity-1="evaluation" data-entity-2="evidence" data-source-line="228" data-uid="lnk17" id="link_evaluation_evidence"><path codeLine="228" d="M870,196.0977 C937,196.0977 924.7127,286.1874 905.7927,355.8474" fill="none" id="evaluation-to-evidence" style="stroke:#666666;stroke-width:1;"/><polygon fill="#666666" points="904.22,361.6377,910.4391,354.0007,905.5305,356.8125,902.7188,351.9039,904.22,361.6377" style="stroke:#666666;stroke-width:1;"/></g><!--link evaluation to measurement--><g class="link" data-entity-1="evaluation" data-entity-2="measurement" data-source-line="229" data-uid="lnk18" id="link_evaluation_measurement"><path codeLine="229" d="M870,180.0977 C950.63,180.0977 996.7643,260.5708 1022.8943,332.2208" fill="none" id="evaluation-to-measurement" style="stroke:#666666;stroke-width:1;"/><polygon fill="#666666" points="1024.95,337.8577,1025.6244,328.0319,1023.2369,333.1603,1018.1085,330.7728,1024.95,337.8577" style="stroke:#666666;stroke-width:1;"/></g><!--link evaluation to activity--><g class="link" data-entity-1="evaluation" data-entity-2="activity" data-source-line="230" data-uid="lnk19" id="link_evaluation_activity"><path codeLine="230" d="M748,132.0977 C700.99,132.0977 682.157,424.1527 675.047,596.7527" fill="none" id="evaluation-to-activity" style="stroke:#666666;stroke-width:1;"/><polygon fill="#666666" points="674.8,602.7477,679.167,593.9199,675.0058,597.7519,671.1738,593.5906,674.8,602.7477" style="stroke:#666666;stroke-width:1;"/></g><!--link evaluation to hiddenLocation1--><g class="link" data-entity-1="evaluation" data-entity-2="hiddenLocation1" data-source-line="243" data-uid="lnk21" id="link_evaluation_hiddenLocation1"><path codeLine="243" d="M748,212.0977 C727.45,212.0977 756.6406,359.595 767.3006,410.515" fill="none" id="evaluation-to-hiddenLocation1" style="stroke:#666666;stroke-width:1;"/><polygon fill="#666666" points="768.53,416.3877,770.601,406.759,767.5055,411.4937,762.7707,408.3982,768.53,416.3877" style="stroke:#666666;stroke-width:1;"/></g><!--link hiddenLocation1 to activity--><!--link evidence to activity--><g class="link" data-entity-1="evidence" data-entity-2="activity" data-source-line="252" data-uid="lnk23" id="link_evidence_activity"><path codeLine="252" d="M820,409.5977 C792.8,409.5977 806.24,504.4077 796,529.5977 C780.59,567.5077 760.859,601.0396 738.689,633.5696" fill="none" id="evidence-to-activity" style="stroke:#666666;stroke-width:1;"/><polygon fill="#666666" points="735.31,638.5277,743.6839,633.3433,738.1259,634.396,737.0732,628.8379,735.31,638.5277" style="stroke:#666666;stroke-width:1;"/></g><!--link measurement to activity--><g class="link" data-entity-1="measurement" data-entity-2="activity" data-source-line="254" data-uid="lnk24" id="link_measurement_activity"><path codeLine="254" d="M991.5,385.5977 C959.04,385.5977 984.81,502.4577 967,529.5977 C911.38,614.3577 809.7645,667.7905 740.7845,696.6705" fill="none" id="measurement-to-activity" style="stroke:#666666;stroke-width:1;"/><polygon fill="#666666" points="735.25,698.9877,745.0965,699.2016,739.8621,697.0567,742.007,691.8223,735.25,698.9877" style="stroke:#666666;stroke-width:1;"/></g><!--link measurement to hiddenLocation2--><g class="link" data-entity-1="measurement" data-entity-2="hiddenLocation2" data-source-line="260" data-uid="lnk26" id="link_measurement_hiddenLocation2"><path codeLine="260" d="M991.5,497.5977 C953.19,497.5977 973.5416,793.8852 979.2416,868.2752" fill="none" id="measurement-to-hiddenLocation2" style="stroke:#666666;stroke-width:1;"/><polygon fill="#666666" points="979.7,874.2577,983.0007,864.9784,979.318,869.2723,975.0241,865.5896,979.7,874.2577" style="stroke:#666666;stroke-width:1;"/></g><!--link hiddenLocation2 to location--><!--link collection to activity--><g class="link" data-entity-1="collection" data-entity-2="activity" data-source-line="267" data-uid="lnk28" id="link_collection_activity"><path codeLine="267" d="M557,473.5977 C560.9,473.5977 588.3455,533.5593 616.5255,597.3493" fill="none" id="collection-to-activity" style="stroke:#666666;stroke-width:1;"/><polygon fill="#666666" points="618.95,602.8377,618.9721,592.9888,616.9296,598.2641,611.6543,596.2215,618.95,602.8377" style="stroke:#666666;stroke-width:1;"/></g><!--link activity to project--><g class="link" data-entity-1="activity" data-entity-2="project" data-source-line="275" data-uid="lnk35" id="link_activity_project"><path codeLine="275" d="M728.5,811.5977 C784.08,811.5977 761.3637,874.3326 728.3937,933.6826" fill="none" id="activity-to-project" style="stroke:#666666;stroke-width:1;"/><polygon fill="#666666" points="725.48,938.9277,733.3472,933.0026,727.9081,934.5568,726.3539,929.1176,725.48,938.9277" style="stroke:#666666;stroke-width:1;"/></g><!--link project to location--><g class="link" data-entity-1="project" data-entity-2="location" data-source-line="270" data-uid="lnk30" id="link_project_location"><path codeLine="270" d="M727.5,1082.6977 C738.1,1082.6977 752.9019,1124.8 766.0019,1169.48" fill="none" id="project-to-location" style="stroke:#666666;stroke-width:1;"/><polygon fill="#666666" points="767.69,1175.2377,768.9962,1165.4758,766.2832,1170.4396,761.3194,1167.7266,767.69,1175.2377" style="stroke:#666666;stroke-width:1;"/></g><!--link activity to rights--><g class="link" data-entity-1="activity" data-entity-2="rights" data-source-line="273" data-uid="lnk33" id="link_activity_rights"><path codeLine="273" d="M613.5,795.5977 C570.43,795.5977 508.7854,892.7347 470.5454,960.9047" fill="none" id="activity-to-rights" style="stroke:#666666;stroke-width:1;"/><polygon fill="#666666" points="467.61,966.1377,475.5017,960.2452,470.0562,961.7769,468.5245,956.3313,467.61,966.1377" style="stroke:#666666;stroke-width:1;"/></g><!--link activity to location--><g class="link" data-entity-1="activity" data-entity-2="location" data-source-line="274" data-uid="lnk34" id="link_activity_location"><path codeLine="274" d="M728.5,779.5977 C886.07,779.5977 843.071,1036.2008 810.341,1169.4708" fill="none" id="activity-to-location" style="stroke:#666666;stroke-width:1;"/><polygon fill="#666666" points="808.91,1175.2977,814.9411,1167.5114,810.1025,1170.4419,807.172,1165.6034,808.91,1175.2977" style="stroke:#666666;stroke-width:1;"/></g><!--link contribution to contributor--><g class="link" data-entity-1="contribution" data-entity-2="contributor" data-source-line="279" data-uid="lnk37" id="link_contribution_contributor"><path codeLine="279" d="M183,425.5977 C237.47,425.5977 170.5621,616.0555 142.7621,689.5755" fill="none" id="contribution-to-contributor" style="stroke:#666666;stroke-width:1;"/><polygon fill="#666666" points="140.64,695.1877,147.5646,688.1841,142.4084,690.5108,140.0817,685.3546,140.64,695.1877" style="stroke:#666666;stroke-width:1;"/><text fill="#666666" font-family="sans-serif" font-size="10" lengthAdjust="spacing" textLength="38.3545" x="184.77" y="569.9775">made by</text></g><!--link contributor to rights--><g class="link" data-entity-1="contributor" data-entity-2="rights" data-source-line="280" data-uid="lnk38" id="link_contributor_rights"><path codeLine="280" d="M157.97,752.1177 C207.54,800.8977 307.5131,899.2696 373.3231,964.0196" fill="none" id="contributor-to-rights" style="stroke:#666666;stroke-width:1;"/><polygon fill="#666666" points="377.6,968.2277,373.99,959.0643,374.0359,964.7209,368.3792,964.7669,377.6,968.2277" style="stroke:#666666;stroke-width:1;"/><text fill="#666666" font-family="sans-serif" font-size="10" lengthAdjust="spacing" textLength="16.123" x="311.41" y="895.5275">has</text></g><!--link funder to activity--><g class="link" data-entity-1="funder" data-entity-2="activity" data-source-line="282" data-uid="lnk39" id="link_funder_activity"><path codeLine="282" d="M334.65,461.9877 C354.36,482.1377 382.89,509.4177 411,529.5977 C466.4,569.3877 490.9,562.3977 546,602.5977 C567.02,617.9377 583.7884,632.4455 602.4884,650.4555" fill="none" id="funder-to-activity" style="stroke:#666666;stroke-width:1;"/><polygon fill="#666666" points="606.81,654.6177,603.1023,645.4933,603.2086,651.1492,597.5528,651.2555,606.81,654.6177" style="stroke:#666666;stroke-width:1;"/><text fill="#666666" font-family="sans-serif" font-size="10" lengthAdjust="spacing" textLength="24.4629" x="494.07" y="569.9775">funds</text></g><!--link fundingReceipt to funder--><g class="link" data-entity-1="fundingReceipt" data-entity-2="funder" data-source-line="283" data-uid="lnk40" id="link_fundingReceipt_funder"><path codeLine="283" d="M372.5,115.5977 C490.23,115.5977 375.5105,323.2709 329.1005,400.1609" fill="none" id="fundingReceipt-to-funder" style="stroke:#666666;stroke-width:1;"/><polygon fill="#666666" points="326,405.2977,334.0753,399.6595,328.5838,401.017,327.2262,395.5254,326,405.2977" style="stroke:#666666;stroke-width:1;"/></g><!--link fundingReceipt to contributor--><g class="link" data-entity-1="fundingReceipt" data-entity-2="contributor" data-source-line="284" data-uid="lnk41" id="link_fundingReceipt_contributor"><path codeLine="284" d="M245.5,99.5977 C109.17,99.5977 97.63,209.1377 52,337.5977 C6,467.0877 77.9326,625.955 111.8326,689.985" fill="none" id="fundingReceipt-to-contributor" style="stroke:#666666;stroke-width:1;"/><polygon fill="#666666" points="114.64,695.2877,113.964,685.462,112.3005,690.8688,106.8937,689.2053,114.64,695.2877" style="stroke:#666666;stroke-width:1;"/></g><!--link fundingReceipt to activity--><g class="link" data-entity-1="fundingReceipt" data-entity-2="activity" data-source-line="285" data-uid="lnk42" id="link_fundingReceipt_activity"><path codeLine="285" d="M372.5,131.5977 C503.08,131.5977 518.19,223.6677 582,337.5977 C607.18,382.5677 632.3827,501.4652 649.8027,596.9052" fill="none" id="fundingReceipt-to-activity" style="stroke:#666666;stroke-width:1;"/><polygon fill="#666666" points="650.88,602.8077,653.199,593.2357,649.9822,597.8889,645.329,594.6722,650.88,602.8077" style="stroke:#666666;stroke-width:1;"/><text fill="#666666" font-family="sans-serif" font-size="10" lengthAdjust="spacing" textLength="24.4629" x="637.47" y="437.4775">funds</text></g><!--SRC=[Kqn9JSlCIrK8zl0FZtVpTFLn2LOeAIfDvU9IpCnBpYbDILLm3NBHAoZDpU420000]--></g></svg>