<svg xmlns="http://www.w3.org/2000/svg" xmlns:xlink="http://www.w3.org/1999/xlink" contentStyleType="text/css" data-diagram-type="CLASS" height="1267px" preserveAspectRatio="none" style="width:1558px;height:1267px;background:#FFFFFF;" version="1.1" viewBox="0 0 1558 1267" width="1558px" zoomAndPan="magnify"><title>Hypercert ERD</title><defs/><g><g class="title" data-source-line="7"><text fill="#000000" font-family="sans-serif" font-size="24" font-weight="bold" lengthAdjust="spacing" textLength="157.0547" x="693.7866" y="32.2656">Hypercert ERD</text></g><!--class contributorEntity--><g class="entity" data-entity="contributorEntity" data-source-line="47" data-uid="ent0002" id="entity_contributorEntity"><rect fill="#FFD4A3" height="56.4063" rx="2.5" ry="2.5" style="stroke:#181818;stroke-width:0.5;" width="181.4473" x="324.46" y="960.335"/><ellipse cx="339.46" cy="976.335" fill="#ADD1B2" rx="11" ry="11" style="stroke:#181818;stroke-width:1;"/><path d="M335.5225,982.335 L343.0381,982.335 L343.0381,980.2256 L338.0381,980.2256 L338.0381,977.6787 L342.1319,977.6787 L342.1319,975.585 L338.0381,975.585 L338.0381,973.3662 L342.8663,973.3662 L342.8663,971.2569 L335.5225,971.2569 L335.5225,982.335 Z " fill="#000000"/><text fill="#000000" font-family="sans-serif" font-size="14" lengthAdjust="spacing" textLength="149.4473" x="353.46" y="981.1202">contributor (DID/profile)</text><line style="stroke:#181818;stroke-width:0.5;" x1="325.46" x2="504.9073" y1="992.335" y2="992.335"/><text fill="#000000" font-family="sans-serif" font-size="14" lengthAdjust="spacing" textLength="146.9658" x="330.46" y="1009.3233">DID or social profile URI</text></g><!--class activity--><g class="entity" data-entity="activity" data-source-line="55" data-uid="ent0003" id="entity_activity"><rect fill="#B4E5D0" height="221.9063" rx="2.5" ry="2.5" style="stroke:#181818;stroke-width:0.5;" width="115.1201" x="903.69" y="613.125"/><ellipse cx="926.6419" cy="629.8437" fill="#7E57C2" rx="11" ry="11" style="stroke:#181818;stroke-width:1;"/><path d="M923.8294,635.8437 L927.0482,635.8437 C930.1263,635.8437 932.2357,634.0625 932.2357,630.25 C932.2357,626.4375 930.1263,624.7656 926.8919,624.7656 L923.8294,624.7656 L923.8294,635.8437 Z M926.345,633.8281 L926.345,626.7812 L926.7513,626.7812 C928.4857,626.7812 929.6575,627.5937 929.6575,630.25 C929.6575,632.9062 928.4857,633.8281 926.7513,633.8281 L926.345,633.8281 Z " fill="#000000"/><text fill="#000000" font-family="sans-serif" font-size="20" font-weight="bold" lengthAdjust="spacing" textLength="65.4492" x="942.409" y="636.6797">activity</text><line style="stroke:#181818;stroke-width:0.5;" x1="904.69" x2="1017.8101" y1="646.5625" y2="646.5625"/><text fill="#000000" font-family="sans-serif" font-size="14" lengthAdjust="spacing" textLength="23.3926" x="909.69" y="663.5508">title</text><text fill="#000000" font-family="sans-serif" font-size="14" lengthAdjust="spacing" textLength="103.1201" x="909.69" y="679.957">shortDescription</text><text fill="#000000" font-family="sans-serif" font-size="14" lengthAdjust="spacing" textLength="76.2002" x="909.69" y="696.3633">description?</text><text fill="#000000" font-family="sans-serif" font-size="14" lengthAdjust="spacing" textLength="45.1992" x="909.69" y="712.7695">image?</text><text fill="#000000" font-family="sans-serif" font-size="14" lengthAdjust="spacing" textLength="75.8721" x="909.69" y="729.1758">workScope?</text><text fill="#000000" font-family="sans-serif" font-size="14" lengthAdjust="spacing" textLength="64.1689" x="909.69" y="745.582">startDate?</text><text fill="#000000" font-family="sans-serif" font-size="14" lengthAdjust="spacing" textLength="58.4746" x="909.69" y="761.9883">endDate?</text><text fill="#000000" font-family="sans-serif" font-size="14" lengthAdjust="spacing" textLength="89.9268" x="909.69" y="778.3945">contributors[]?</text><text fill="#000000" font-family="sans-serif" font-size="14" lengthAdjust="spacing" textLength="71.2988" x="909.69" y="794.8008">locations[]?</text><text fill="#000000" font-family="sans-serif" font-size="14" lengthAdjust="spacing" textLength="42.1436" x="909.69" y="811.207">rights?</text><text fill="#000000" font-family="sans-serif" font-size="14" lengthAdjust="spacing" textLength="60.7236" x="909.69" y="827.6133">createdAt</text></g><!--class evidence--><g class="entity" data-entity="evidence" data-source-line="72" data-uid="ent0004" id="entity_evidence"><rect fill="#F1F1F1" height="154.8438" rx="2.5" ry="2.5" style="stroke:#181818;stroke-width:0.5;" width="121.7373" x="1201.69" y="361.625"/><ellipse cx="1232.1363" cy="377.625" fill="#7E57C2" rx="11" ry="11" style="stroke:#181818;stroke-width:1;"/><path d="M1229.3238,383.625 L1232.5426,383.625 C1235.6207,383.625 1237.7301,381.8437 1237.7301,378.0312 C1237.7301,374.2187 1235.6207,372.5469 1232.3863,372.5469 L1229.3238,372.5469 L1229.3238,383.625 Z M1231.8395,381.6094 L1231.8395,374.5625 L1232.2457,374.5625 C1233.9801,374.5625 1235.152,375.375 1235.152,378.0312 C1235.152,380.6875 1233.9801,381.6094 1232.2457,381.6094 L1231.8395,381.6094 Z " fill="#000000"/><text fill="#000000" font-family="sans-serif" font-size="14" lengthAdjust="spacing" textLength="55.4121" x="1249.5689" y="382.4102">evidence</text><line style="stroke:#181818;stroke-width:0.5;" x1="1202.69" x2="1322.4273" y1="393.625" y2="393.625"/><text fill="#000000" font-family="sans-serif" font-size="14" lengthAdjust="spacing" textLength="52.1035" x="1207.69" y="410.6133">subject?</text><text fill="#000000" font-family="sans-serif" font-size="14" lengthAdjust="spacing" textLength="47.3594" x="1207.69" y="427.0195">content</text><text fill="#000000" font-family="sans-serif" font-size="14" lengthAdjust="spacing" textLength="23.3926" x="1207.69" y="443.4258">title</text><text fill="#000000" font-family="sans-serif" font-size="14" lengthAdjust="spacing" textLength="109.7373" x="1207.69" y="459.832">shortDescription?</text><text fill="#000000" font-family="sans-serif" font-size="14" lengthAdjust="spacing" textLength="76.2002" x="1207.69" y="476.2383">description?</text><text fill="#000000" font-family="sans-serif" font-size="14" lengthAdjust="spacing" textLength="83.7676" x="1207.69" y="492.6445">relationType?</text><text fill="#000000" font-family="sans-serif" font-size="14" lengthAdjust="spacing" textLength="60.7236" x="1207.69" y="509.0508">createdAt</text></g><!--class measurement--><g class="entity" data-entity="measurement" data-source-line="85" data-uid="ent0005" id="entity_measurement"><rect fill="#F1F1F1" height="187.6563" rx="2.5" ry="2.5" style="stroke:#181818;stroke-width:0.5;" width="118.4404" x="1374.19" y="345.125"/><ellipse cx="1389.19" cy="361.125" fill="#7E57C2" rx="11" ry="11" style="stroke:#181818;stroke-width:1;"/><path d="M1386.3775,367.125 L1389.5963,367.125 C1392.6744,367.125 1394.7838,365.3437 1394.7838,361.5312 C1394.7838,357.7187 1392.6744,356.0469 1389.44,356.0469 L1386.3775,356.0469 L1386.3775,367.125 Z M1388.8931,365.1094 L1388.8931,358.0625 L1389.2994,358.0625 C1391.0338,358.0625 1392.2056,358.875 1392.2056,361.5312 C1392.2056,364.1875 1391.0338,365.1094 1389.2994,365.1094 L1388.8931,365.1094 Z " fill="#000000"/><text fill="#000000" font-family="sans-serif" font-size="14" lengthAdjust="spacing" textLength="86.4404" x="1403.19" y="365.9102">measurement</text><line style="stroke:#181818;stroke-width:0.5;" x1="1375.19" x2="1491.6304" y1="377.125" y2="377.125"/><text fill="#000000" font-family="sans-serif" font-size="14" lengthAdjust="spacing" textLength="52.1035" x="1380.19" y="394.1133">subject?</text><text fill="#000000" font-family="sans-serif" font-size="14" lengthAdjust="spacing" textLength="73.8213" x="1380.19" y="410.5195">measurers[]</text><text fill="#000000" font-family="sans-serif" font-size="14" lengthAdjust="spacing" textLength="39.7578" x="1380.19" y="426.9258">metric</text><text fill="#000000" font-family="sans-serif" font-size="14" lengthAdjust="spacing" textLength="32.9424" x="1380.19" y="443.332">value</text><text fill="#000000" font-family="sans-serif" font-size="14" lengthAdjust="spacing" textLength="84.752" x="1380.19" y="459.7383">methodType?</text><text fill="#000000" font-family="sans-serif" font-size="14" lengthAdjust="spacing" textLength="76.002" x="1380.19" y="476.1445">methodURI?</text><text fill="#000000" font-family="sans-serif" font-size="14" lengthAdjust="spacing" textLength="90.9658" x="1380.19" y="492.5508">evidenceURI[]?</text><text fill="#000000" font-family="sans-serif" font-size="14" lengthAdjust="spacing" textLength="56.6494" x="1380.19" y="508.957">location?</text><text fill="#000000" font-family="sans-serif" font-size="14" lengthAdjust="spacing" textLength="60.7236" x="1380.19" y="525.3633">createdAt</text></g><!--class evaluation--><g class="entity" data-entity="evaluation" data-source-line="100" data-uid="ent0006" id="entity_evaluation"><rect fill="#F1F1F1" height="171.25" rx="2.5" ry="2.5" style="stroke:#181818;stroke-width:0.5;" width="119.707" x="1287.69" y="80.625"/><ellipse cx="1313.2421" cy="96.625" fill="#7E57C2" rx="11" ry="11" style="stroke:#181818;stroke-width:1;"/><path d="M1310.4296,102.625 L1313.6484,102.625 C1316.7265,102.625 1318.8359,100.8438 1318.8359,97.0313 C1318.8359,93.2188 1316.7265,91.5469 1313.4921,91.5469 L1310.4296,91.5469 L1310.4296,102.625 Z M1312.9453,100.6094 L1312.9453,93.5625 L1313.3515,93.5625 C1315.0859,93.5625 1316.2578,94.375 1316.2578,97.0313 C1316.2578,99.6875 1315.0859,100.6094 1313.3515,100.6094 L1312.9453,100.6094 Z " fill="#000000"/><text fill="#000000" font-family="sans-serif" font-size="14" lengthAdjust="spacing" textLength="64.2578" x="1329.5871" y="101.4102">evaluation</text><line style="stroke:#181818;stroke-width:0.5;" x1="1288.69" x2="1406.397" y1="112.625" y2="112.625"/><text fill="#000000" font-family="sans-serif" font-size="14" lengthAdjust="spacing" textLength="52.1035" x="1293.69" y="129.6133">subject?</text><text fill="#000000" font-family="sans-serif" font-size="14" lengthAdjust="spacing" textLength="58.4814" x="1293.69" y="146.0195">summary</text><text fill="#000000" font-family="sans-serif" font-size="14" lengthAdjust="spacing" textLength="72.5156" x="1293.69" y="162.4258">evaluators[]</text><text fill="#000000" font-family="sans-serif" font-size="14" lengthAdjust="spacing" textLength="61.4004" x="1293.69" y="178.832">content[]?</text><text fill="#000000" font-family="sans-serif" font-size="14" lengthAdjust="spacing" textLength="107.707" x="1293.69" y="195.2383">measurements[]?</text><text fill="#000000" font-family="sans-serif" font-size="14" lengthAdjust="spacing" textLength="34.7061" x="1293.69" y="211.6445">score</text><text fill="#000000" font-family="sans-serif" font-size="14" lengthAdjust="spacing" textLength="56.6494" x="1293.69" y="228.0508">location?</text><text fill="#000000" font-family="sans-serif" font-size="14" lengthAdjust="spacing" textLength="60.7236" x="1293.69" y="244.457">createdAt</text></g><!--class contributorInformation--><g class="entity" data-entity="contributorInformation" data-source-line="114" data-uid="ent0007" id="entity_contributorInformation"><rect fill="#F1F1F1" height="105.625" rx="2.5" ry="2.5" style="stroke:#181818;stroke-width:0.5;" width="173.3877" x="180.69" y="671.125"/><ellipse cx="195.69" cy="687.125" fill="#7E57C2" rx="11" ry="11" style="stroke:#181818;stroke-width:1;"/><path d="M192.8775,693.125 L196.0963,693.125 C199.1744,693.125 201.2838,691.3437 201.2838,687.5312 C201.2838,683.7187 199.1744,682.0469 195.94,682.0469 L192.8775,682.0469 L192.8775,693.125 Z M195.3931,691.1094 L195.3931,684.0625 L195.7994,684.0625 C197.5338,684.0625 198.7056,684.875 198.7056,687.5312 C198.7056,690.1875 197.5338,691.1094 195.7994,691.1094 L195.3931,691.1094 Z " fill="#000000"/><text fill="#000000" font-family="sans-serif" font-size="14" lengthAdjust="spacing" textLength="141.3877" x="209.69" y="691.9102">contributorInformation</text><line style="stroke:#181818;stroke-width:0.5;" x1="181.69" x2="353.0777" y1="703.125" y2="703.125"/><text fill="#000000" font-family="sans-serif" font-size="14" lengthAdjust="spacing" textLength="61.4961" x="186.69" y="720.1133">identifier?</text><text fill="#000000" font-family="sans-serif" font-size="14" lengthAdjust="spacing" textLength="87.9512" x="186.69" y="736.5195">displayName?</text><text fill="#000000" font-family="sans-serif" font-size="14" lengthAdjust="spacing" textLength="45.1992" x="186.69" y="752.9258">image?</text><text fill="#000000" font-family="sans-serif" font-size="14" lengthAdjust="spacing" textLength="60.7236" x="186.69" y="769.332">createdAt</text></g><!--class contributionDetails--><g class="entity" data-entity="contributionDetails" data-source-line="124" data-uid="ent0008" id="entity_contributionDetails"><rect fill="#F1F1F1" height="122.0313" rx="2.5" ry="2.5" style="stroke:#181818;stroke-width:0.5;" width="164.5439" x="743.92" y="927.525"/><ellipse cx="765.5131" cy="943.525" fill="#7E57C2" rx="11" ry="11" style="stroke:#181818;stroke-width:1;"/><path d="M762.7006,949.525 L765.9194,949.525 C768.9975,949.525 771.1069,947.7437 771.1069,943.9312 C771.1069,940.1187 768.9975,938.4469 765.7631,938.4469 L762.7006,938.4469 L762.7006,949.525 Z M765.2162,947.5094 L765.2162,940.4625 L765.6225,940.4625 C767.3569,940.4625 768.5287,941.275 768.5287,943.9312 C768.5287,946.5875 767.3569,947.5094 765.6225,947.5094 L765.2162,947.5094 Z " fill="#000000"/><text fill="#000000" font-family="sans-serif" font-size="14" lengthAdjust="spacing" textLength="117.8926" x="780.9783" y="948.3102">contributionDetails</text><line style="stroke:#181818;stroke-width:0.5;" x1="744.92" x2="907.4639" y1="959.525" y2="959.525"/><text fill="#000000" font-family="sans-serif" font-size="14" lengthAdjust="spacing" textLength="30.1738" x="749.92" y="976.5133">role?</text><text fill="#000000" font-family="sans-serif" font-size="14" lengthAdjust="spacing" textLength="152.5439" x="749.92" y="992.9195">contributionDescription?</text><text fill="#000000" font-family="sans-serif" font-size="14" lengthAdjust="spacing" textLength="64.1689" x="749.92" y="1009.3258">startDate?</text><text fill="#000000" font-family="sans-serif" font-size="14" lengthAdjust="spacing" textLength="58.4746" x="749.92" y="1025.732">endDate?</text><text fill="#000000" font-family="sans-serif" font-size="14" lengthAdjust="spacing" textLength="60.7236" x="749.92" y="1042.1383">createdAt</text></g><!--class location--><g class="entity" data-entity="location" data-source-line="135" data-uid="ent0009" id="entity_location"><rect fill="#F1F1F1" height="154.8438" rx="2.5" ry="2.5" style="stroke:#181818;stroke-width:0.5;" width="92.2949" x="1091.04" y="911.125"/><ellipse cx="1110.6582" cy="927.125" fill="#7E57C2" rx="11" ry="11" style="stroke:#181818;stroke-width:1;"/><path d="M1107.8457,933.125 L1111.0645,933.125 C1114.1426,933.125 1116.252,931.3437 1116.252,927.5312 C1116.252,923.7187 1114.1426,922.0469 1110.9082,922.0469 L1107.8457,922.0469 L1107.8457,933.125 Z M1110.3613,931.1094 L1110.3613,924.0625 L1110.7676,924.0625 C1112.502,924.0625 1113.6738,924.875 1113.6738,927.5312 C1113.6738,930.1875 1112.502,931.1094 1110.7676,931.1094 L1110.3613,931.1094 Z " fill="#000000"/><text fill="#000000" font-family="sans-serif" font-size="14" lengthAdjust="spacing" textLength="50.0322" x="1125.6845" y="931.9102">location</text><line style="stroke:#181818;stroke-width:0.5;" x1="1092.04" x2="1182.3349" y1="943.125" y2="943.125"/><text fill="#000000" font-family="sans-serif" font-size="14" lengthAdjust="spacing" textLength="58.6934" x="1097.04" y="960.1133">lpVersion</text><text fill="#000000" font-family="sans-serif" font-size="14" lengthAdjust="spacing" textLength="19.1953" x="1097.04" y="976.5195">srs</text><text fill="#000000" font-family="sans-serif" font-size="14" lengthAdjust="spacing" textLength="80.2949" x="1097.04" y="992.9258">locationType</text><text fill="#000000" font-family="sans-serif" font-size="14" lengthAdjust="spacing" textLength="50.0322" x="1097.04" y="1009.332">location</text><text fill="#000000" font-family="sans-serif" font-size="14" lengthAdjust="spacing" textLength="41.665" x="1097.04" y="1025.7383">name?</text><text fill="#000000" font-family="sans-serif" font-size="14" lengthAdjust="spacing" textLength="76.2002" x="1097.04" y="1042.1445">description?</text><text fill="#000000" font-family="sans-serif" font-size="14" lengthAdjust="spacing" textLength="60.7236" x="1097.04" y="1058.5508">createdAt</text></g><!--class badgeDefinition--><g class="entity" data-entity="badgeDefinition" data-source-line="148" data-uid="ent0010" id="entity_badgeDefinition"><rect fill="#F1F1F1" height="138.4375" rx="2.5" ry="2.5" style="stroke:#181818;stroke-width:0.5;" width="130.376" x="7" y="654.405"/><ellipse cx="22" cy="670.405" fill="#7E57C2" rx="11" ry="11" style="stroke:#181818;stroke-width:1;"/><path d="M19.1875,676.405 L22.4063,676.405 C25.4844,676.405 27.5938,674.6237 27.5938,670.8112 C27.5938,666.9987 25.4844,665.3269 22.25,665.3269 L19.1875,665.3269 L19.1875,676.405 Z M21.7031,674.3894 L21.7031,667.3425 L22.1094,667.3425 C23.8438,667.3425 25.0156,668.155 25.0156,670.8112 C25.0156,673.4675 23.8438,674.3894 22.1094,674.3894 L21.7031,674.3894 Z " fill="#000000"/><text fill="#000000" font-family="sans-serif" font-size="14" lengthAdjust="spacing" textLength="98.376" x="36" y="675.1902">badgeDefinition</text><line style="stroke:#181818;stroke-width:0.5;" x1="8" x2="136.376" y1="686.405" y2="686.405"/><text fill="#000000" font-family="sans-serif" font-size="14" lengthAdjust="spacing" textLength="68.9199" x="13" y="703.3933">badgeType</text><text fill="#000000" font-family="sans-serif" font-size="14" lengthAdjust="spacing" textLength="23.3926" x="13" y="719.7995">title</text><text fill="#000000" font-family="sans-serif" font-size="14" lengthAdjust="spacing" textLength="26.4482" x="13" y="736.2058">icon</text><text fill="#000000" font-family="sans-serif" font-size="14" lengthAdjust="spacing" textLength="76.2002" x="13" y="752.612">description?</text><text fill="#000000" font-family="sans-serif" font-size="14" lengthAdjust="spacing" textLength="107.6592" x="13" y="769.0183">allowedIssuers[]?</text><text fill="#000000" font-family="sans-serif" font-size="14" lengthAdjust="spacing" textLength="60.7236" x="13" y="785.4245">createdAt</text></g><!--class badgeAward--><g class="entity" data-entity="badgeAward" data-source-line="159" data-uid="ent0011" id="entity_badgeAward"><rect fill="#F1F1F1" height="105.625" rx="2.5" ry="2.5" style="stroke:#181818;stroke-width:0.5;" width="110.5654" x="212.19" y="386.125"/><ellipse cx="227.19" cy="402.125" fill="#7E57C2" rx="11" ry="11" style="stroke:#181818;stroke-width:1;"/><path d="M224.3775,408.125 L227.5963,408.125 C230.6744,408.125 232.7838,406.3437 232.7838,402.5312 C232.7838,398.7187 230.6744,397.0469 227.44,397.0469 L224.3775,397.0469 L224.3775,408.125 Z M226.8931,406.1094 L226.8931,399.0625 L227.2994,399.0625 C229.0338,399.0625 230.2056,399.875 230.2056,402.5312 C230.2056,405.1875 229.0338,406.1094 227.2994,406.1094 L226.8931,406.1094 Z " fill="#000000"/><text fill="#000000" font-family="sans-serif" font-size="14" lengthAdjust="spacing" textLength="78.5654" x="241.19" y="406.9102">badgeAward</text><line style="stroke:#181818;stroke-width:0.5;" x1="213.19" x2="321.7554" y1="418.125" y2="418.125"/><text fill="#000000" font-family="sans-serif" font-size="14" lengthAdjust="spacing" textLength="38.6572" x="218.19" y="435.1133">badge</text><text fill="#000000" font-family="sans-serif" font-size="14" lengthAdjust="spacing" textLength="45.4863" x="218.19" y="451.5195">subject</text><text fill="#000000" font-family="sans-serif" font-size="14" lengthAdjust="spacing" textLength="34.3369" x="218.19" y="467.9258">note?</text><text fill="#000000" font-family="sans-serif" font-size="14" lengthAdjust="spacing" textLength="60.7236" x="218.19" y="484.332">createdAt</text></g><!--class badgeResponse--><g class="entity" data-entity="badgeResponse" data-source-line="168" data-uid="ent0012" id="entity_badgeResponse"><rect fill="#F1F1F1" height="105.625" rx="2.5" ry="2.5" style="stroke:#181818;stroke-width:0.5;" width="132.1602" x="201.19" y="113.625"/><ellipse cx="216.19" cy="129.625" fill="#7E57C2" rx="11" ry="11" style="stroke:#181818;stroke-width:1;"/><path d="M213.3775,135.625 L216.5963,135.625 C219.6744,135.625 221.7838,133.8438 221.7838,130.0313 C221.7838,126.2188 219.6744,124.5469 216.44,124.5469 L213.3775,124.5469 L213.3775,135.625 Z M215.8931,133.6094 L215.8931,126.5625 L216.2994,126.5625 C218.0338,126.5625 219.2056,127.375 219.2056,130.0313 C219.2056,132.6875 218.0338,133.6094 216.2994,133.6094 L215.8931,133.6094 Z " fill="#000000"/><text fill="#000000" font-family="sans-serif" font-size="14" lengthAdjust="spacing" textLength="100.1602" x="230.19" y="134.4102">badgeResponse</text><line style="stroke:#181818;stroke-width:0.5;" x1="202.19" x2="332.3502" y1="145.625" y2="145.625"/><text fill="#000000" font-family="sans-serif" font-size="14" lengthAdjust="spacing" textLength="78.5654" x="207.19" y="162.6133">badgeAward</text><text fill="#000000" font-family="sans-serif" font-size="14" lengthAdjust="spacing" textLength="57.6201" x="207.19" y="179.0195">response</text><text fill="#000000" font-family="sans-serif" font-size="14" lengthAdjust="spacing" textLength="48.1182" x="207.19" y="195.4258">weight?</text><text fill="#000000" font-family="sans-serif" font-size="14" lengthAdjust="spacing" textLength="60.7236" x="207.19" y="211.832">createdAt</text></g><!--class rights--><g class="entity" data-entity="rights" data-source-line="178" data-uid="ent0013" id="entity_rights"><rect fill="#F1F1F1" height="122.0313" rx="2.5" ry="2.5" style="stroke:#181818;stroke-width:0.5;" width="118.4014" x="608.99" y="1138.965"/><ellipse cx="646.8838" cy="1154.965" fill="#7E57C2" rx="11" ry="11" style="stroke:#181818;stroke-width:1;"/><path d="M644.0713,1160.965 L647.29,1160.965 C650.3681,1160.965 652.4775,1159.1838 652.4775,1155.3713 C652.4775,1151.5588 650.3681,1149.8869 647.1338,1149.8869 L644.0713,1149.8869 L644.0713,1160.965 Z M646.5869,1158.9494 L646.5869,1151.9025 L646.9931,1151.9025 C648.7275,1151.9025 649.8994,1152.715 649.8994,1155.3713 C649.8994,1158.0275 648.7275,1158.9494 646.9931,1158.9494 L646.5869,1158.9494 Z " fill="#000000"/><text fill="#000000" font-family="sans-serif" font-size="14" lengthAdjust="spacing" textLength="35.5264" x="665.9713" y="1159.7502">rights</text><line style="stroke:#181818;stroke-width:0.5;" x1="609.99" x2="726.3914" y1="1170.965" y2="1170.965"/><text fill="#000000" font-family="sans-serif" font-size="14" lengthAdjust="spacing" textLength="72.8301" x="614.99" y="1187.9533">rightsName</text><text fill="#000000" font-family="sans-serif" font-size="14" lengthAdjust="spacing" textLength="65.7891" x="614.99" y="1204.3595">rightsType</text><text fill="#000000" font-family="sans-serif" font-size="14" lengthAdjust="spacing" textLength="106.4014" x="614.99" y="1220.7658">rightsDescription</text><text fill="#000000" font-family="sans-serif" font-size="14" lengthAdjust="spacing" textLength="78.0596" x="614.99" y="1237.172">attachment?</text><text fill="#000000" font-family="sans-serif" font-size="14" lengthAdjust="spacing" textLength="60.7236" x="614.99" y="1253.5783">createdAt</text></g><!--class collection--><g class="entity" data-entity="collection" data-source-line="191" data-uid="ent0014" id="entity_collection"><rect fill="#F1F1F1" height="146.4375" rx="2.5" ry="2.5" style="stroke:#181818;stroke-width:0.5;" width="164.7012" x="476.19" y="365.625"/><ellipse cx="524.004" cy="381.625" fill="#7E57C2" rx="11" ry="11" style="stroke:#181818;stroke-width:1;"/><path d="M521.1915,387.625 L524.4102,387.625 C527.4883,387.625 529.5977,385.8437 529.5977,382.0312 C529.5977,378.2187 527.4883,376.5469 524.254,376.5469 L521.1915,376.5469 L521.1915,387.625 Z M523.7071,385.6094 L523.7071,378.5625 L524.1133,378.5625 C525.8477,378.5625 527.0196,379.375 527.0196,382.0312 C527.0196,384.6875 525.8477,385.6094 524.1133,385.6094 L523.7071,385.6094 Z " fill="#000000"/><text fill="#000000" font-family="sans-serif" font-size="14" lengthAdjust="spacing" textLength="60.5732" x="544.504" y="386.4102">collection</text><line style="stroke:#181818;stroke-width:0.5;" x1="477.19" x2="639.8912" y1="397.625" y2="397.625"/><text fill="#000000" font-family="sans-serif" font-size="14" lengthAdjust="spacing" textLength="33.1064" x="482.19" y="414.6133">type?</text><text fill="#000000" font-family="sans-serif" font-size="14" lengthAdjust="spacing" textLength="23.3926" x="482.19" y="431.0195">title</text><text fill="#000000" font-family="sans-serif" font-size="14" lengthAdjust="spacing" textLength="109.7373" x="482.19" y="447.4258">shortDescription?</text><text fill="#000000" font-family="sans-serif" font-size="14" lengthAdjust="spacing" textLength="42.335" x="482.19" y="463.832">items[]</text><text fill="#000000" font-family="sans-serif" font-size="14" lengthAdjust="spacing" textLength="60.7236" x="482.19" y="480.2383">createdAt</text><line style="stroke:#181818;stroke-width:0.5;" x1="477.19" x2="639.8912" y1="487.6562" y2="487.6562"/><text fill="#000000" font-family="sans-serif" font-size="14" lengthAdjust="spacing" textLength="152.7012" x="482.19" y="504.6445">description? (Leaflet ref)</text></g><!--class funder--><g class="entity" data-entity="funder" data-source-line="206" data-uid="ent0015" id="entity_funder"><rect fill="#FFD4A3" height="56.4063" rx="2.5" ry="2.5" style="stroke:#181818;stroke-width:0.5;" width="167.4219" x="683.48" y="410.415"/><ellipse cx="742.751" cy="426.415" fill="#ADD1B2" rx="11" ry="11" style="stroke:#181818;stroke-width:1;"/><path d="M738.8135,432.415 L746.3291,432.415 L746.3291,430.3056 L741.3291,430.3056 L741.3291,427.7587 L745.4229,427.7587 L745.4229,425.665 L741.3291,425.665 L741.3291,423.4462 L746.1572,423.4462 L746.1572,421.3369 L738.8135,421.3369 L738.8135,432.415 Z " fill="#000000"/><text fill="#000000" font-family="sans-serif" font-size="14" lengthAdjust="spacing" textLength="40.3799" x="763.251" y="431.2002">funder</text><line style="stroke:#181818;stroke-width:0.5;" x1="684.48" x2="849.9019" y1="442.415" y2="442.415"/><text fill="#000000" font-family="sans-serif" font-size="14" lengthAdjust="spacing" textLength="155.4219" x="689.48" y="459.4033">DID or name/pseudonym</text></g><!--class fundingReceipt--><g class="entity" data-entity="fundingReceipt" data-source-line="213" data-uid="ent0016" id="entity_fundingReceipt"><rect fill="#F1F1F1" height="220.4688" rx="2.5" ry="2.5" style="stroke:#181818;stroke-width:0.5;" width="125.8574" x="704.69" y="56.125"/><ellipse cx="719.69" cy="72.125" fill="#7E57C2" rx="11" ry="11" style="stroke:#181818;stroke-width:1;"/><path d="M716.8775,78.125 L720.0963,78.125 C723.1744,78.125 725.2838,76.3438 725.2838,72.5313 C725.2838,68.7188 723.1744,67.0469 719.94,67.0469 L716.8775,67.0469 L716.8775,78.125 Z M719.3931,76.1094 L719.3931,69.0625 L719.7994,69.0625 C721.5338,69.0625 722.7056,69.875 722.7056,72.5313 C722.7056,75.1875 721.5338,76.1094 719.7994,76.1094 L719.3931,76.1094 Z " fill="#000000"/><text fill="#000000" font-family="sans-serif" font-size="14" lengthAdjust="spacing" textLength="93.8574" x="733.69" y="76.9102">fundingReceipt</text><line style="stroke:#181818;stroke-width:0.5;" x1="705.69" x2="829.5474" y1="88.125" y2="88.125"/><text fill="#000000" font-family="sans-serif" font-size="14" lengthAdjust="spacing" textLength="12.5645" x="710.69" y="105.1133">to</text><text fill="#000000" font-family="sans-serif" font-size="14" lengthAdjust="spacing" textLength="29.873" x="710.69" y="121.5195">from</text><text fill="#000000" font-family="sans-serif" font-size="14" lengthAdjust="spacing" textLength="24.2129" x="710.69" y="137.9258">for?</text><text fill="#000000" font-family="sans-serif" font-size="14" lengthAdjust="spacing" textLength="47.9063" x="710.69" y="154.332">amount</text><text fill="#000000" font-family="sans-serif" font-size="14" lengthAdjust="spacing" textLength="53.6416" x="710.69" y="170.7383">currency</text><text fill="#000000" font-family="sans-serif" font-size="14" lengthAdjust="spacing" textLength="83.7813" x="710.69" y="187.1445">paymentRail?</text><text fill="#000000" font-family="sans-serif" font-size="14" lengthAdjust="spacing" textLength="113.0664" x="710.69" y="203.5508">paymentNetwork?</text><text fill="#000000" font-family="sans-serif" font-size="14" lengthAdjust="spacing" textLength="88.8604" x="710.69" y="219.957">transactionId?</text><text fill="#000000" font-family="sans-serif" font-size="14" lengthAdjust="spacing" textLength="41.5625" x="710.69" y="236.3633">notes?</text><text fill="#000000" font-family="sans-serif" font-size="14" lengthAdjust="spacing" textLength="75.4961" x="710.69" y="252.7695">occurredAt?</text><text fill="#000000" font-family="sans-serif" font-size="14" lengthAdjust="spacing" textLength="60.7236" x="710.69" y="269.1758">createdAt</text></g><!--class token--><g class="entity" data-entity="token" data-source-line="234" data-uid="ent0017" id="entity_token"><rect fill="#FFB6C1" height="65.8438" rx="2.5" ry="2.5" style="stroke:#181818;stroke-width:0.5;" width="104.2578" x="1054.06" y="405.695"/><ellipse cx="1078.7332" cy="422.4137" fill="#F1F1F1" rx="11" ry="11" style="stroke:#181818;stroke-width:1;"/><path d="M1075.5145,428.4137 L1078.0145,428.4137 L1078.0145,424.6637 L1079.4364,424.6637 C1081.7801,424.6637 1083.7645,423.5075 1083.7645,420.8981 C1083.7645,418.2106 1081.827,417.3356 1079.4364,417.3356 L1075.5145,417.3356 L1075.5145,428.4137 Z M1078.0145,422.6637 L1078.0145,419.32 L1079.2801,419.32 C1080.6082,419.32 1081.327,419.7419 1081.327,420.8981 C1081.327,422.0544 1080.6551,422.6637 1079.2801,422.6637 L1078.0145,422.6637 Z " fill="#000000"/><text fill="#000000" font-family="sans-serif" font-size="20" font-weight="bold" lengthAdjust="spacing" textLength="50.7617" x="1094.8829" y="429.2497">token</text><line style="stroke:#181818;stroke-width:0.5;" x1="1055.06" x2="1157.3178" y1="439.1325" y2="439.1325"/><line style="stroke:#181818;stroke-width:0.5;" x1="1055.06" x2="1157.3178" y1="447.1325" y2="447.1325"/><text fill="#000000" font-family="sans-serif" font-size="14" lengthAdjust="spacing" textLength="92.2578" x="1060.06" y="464.1208">(on-chain only)</text></g><!--class hiddenLocation1--><g class="entity" data-entity="hiddenLocation1" data-source-line="267" data-uid="ent0021" id="entity_hiddenLocation1"><rect fill="none" height="34.4063" rx="2.5" ry="2.5" style="stroke:none;stroke-width:0.5;" width="12" x="1535.19" y="421.415"/><text fill="#000000" font-family="sans-serif" font-size="14" lengthAdjust="spacing" textLength="3.4727" x="1539.4537" y="439.4033">&#160;</text><line style="stroke:none;stroke-width:0.5;" x1="1536.19" x2="1546.19" y1="447.8212" y2="447.8212"/></g><!--class hiddenLocation2--><g class="entity" data-entity="hiddenLocation2" data-source-line="284" data-uid="ent0026" id="entity_hiddenLocation2"><rect fill="none" height="34.4063" rx="2.5" ry="2.5" style="stroke:none;stroke-width:0.5;" width="12" x="1338.19" y="706.415"/><text fill="#000000" font-family="sans-serif" font-size="14" lengthAdjust="spacing" textLength="3.4727" x="1342.4537" y="724.4033">&#160;</text><line style="stroke:none;stroke-width:0.5;" x1="1339.19" x2="1349.19" y1="732.8212" y2="732.8212"/></g><!--link evaluation to evidence--><g class="link" data-entity-1="evaluation" data-entity-2="evidence" data-source-line="254" data-uid="lnk18" id="link_evaluation_evidence"><path codeLine="254" d="M1286.69,124.625 C1193.21,124.625 1212.4825,259.2849 1236.3825,352.0149" fill="none" id="evaluation-to-evidence" style="stroke:#666666;stroke-width:1;"/><polygon fill="#666666" points="1237.88,357.825,1239.5072,348.1115,1236.6321,352.9832,1231.7604,350.1081,1237.88,357.825" style="stroke:#666666;stroke-width:1;"/></g><!--link evaluation to measurement--><g class="link" data-entity-1="evaluation" data-entity-2="measurement" data-source-line="255" data-uid="lnk19" id="link_evaluation_measurement"><path codeLine="255" d="M1407.69,189.625 C1471.42,189.625 1471.3265,265.7688 1458.8565,335.4788" fill="none" id="evaluation-to-measurement" style="stroke:#666666;stroke-width:1;"/><polygon fill="#666666" points="1457.8,341.385,1463.3223,333.23,1458.6804,336.4631,1455.4473,331.8213,1457.8,341.385" style="stroke:#666666;stroke-width:1;"/></g><!--link evaluation to activity--><g class="link" data-entity-1="evaluation" data-entity-2="activity" data-source-line="256" data-uid="lnk20" id="link_evaluation_activity"><path codeLine="256" d="M1286.69,124.625 C1139.54,124.625 1110.08,213.865 1036.19,341.125 C1010.22,385.845 989.2867,507.7922 976.0067,603.2522" fill="none" id="evaluation-to-activity" style="stroke:#666666;stroke-width:1;"/><polygon fill="#666666" points="975.18,609.195,980.3819,600.832,975.8689,604.2427,972.4583,599.7297,975.18,609.195" style="stroke:#666666;stroke-width:1;"/></g><!--link evaluation to hiddenLocation1--><g class="link" data-entity-1="evaluation" data-entity-2="hiddenLocation1" data-source-line="269" data-uid="lnk22" id="link_evaluation_hiddenLocation1"><path codeLine="269" d="M1407.69,222.625 C1501.05,222.625 1530.502,364.8326 1538.122,415.1726" fill="none" id="evaluation-to-hiddenLocation1" style="stroke:#666666;stroke-width:1;"/><polygon fill="#666666" points="1539.02,421.105,1541.628,411.6077,1538.2717,416.1613,1533.7181,412.805,1539.02,421.105" style="stroke:#666666;stroke-width:1;"/></g><!--link hiddenLocation1 to activity--><!--link evidence to activity--><g class="link" data-entity-1="evidence" data-entity-2="activity" data-source-line="278" data-uid="lnk24" id="link_evidence_activity"><path codeLine="278" d="M1200.69,405.625 C1171.18,405.625 1190.87,510.525 1176.19,536.125 C1140.35,598.585 1080.6088,647.0267 1031.5088,680.0467" fill="none" id="evidence-to-activity" style="stroke:#666666;stroke-width:1;"/><polygon fill="#666666" points="1026.53,683.395,1036.2305,681.6918,1030.679,680.6048,1031.7661,675.0533,1026.53,683.395" style="stroke:#666666;stroke-width:1;"/></g><!--link measurement to activity--><g class="link" data-entity-1="measurement" data-entity-2="activity" data-source-line="280" data-uid="lnk25" id="link_measurement_activity"><path codeLine="280" d="M1373.19,389.125 C1340.05,389.125 1368.11,509.645 1348.19,536.125 C1268.81,641.605 1120.0495,689.0396 1032.1795,709.0996" fill="none" id="measurement-to-activity" style="stroke:#666666;stroke-width:1;"/><polygon fill="#666666" points="1026.33,710.435,1035.9945,712.3316,1031.2046,709.3222,1034.214,704.5322,1026.33,710.435" style="stroke:#666666;stroke-width:1;"/></g><!--link measurement to hiddenLocation2--><g class="link" data-entity-1="measurement" data-entity-2="hiddenLocation2" data-source-line="286" data-uid="lnk27" id="link_measurement_hiddenLocation2"><path codeLine="286" d="M1373.19,503.125 C1352.72,503.125 1346.428,649.0779 1344.828,700.1279" fill="none" id="measurement-to-hiddenLocation2" style="stroke:#666666;stroke-width:1;"/><polygon fill="#666666" points="1344.64,706.125,1348.92,697.2547,1344.7966,701.1275,1340.9239,697.0041,1344.64,706.125" style="stroke:#666666;stroke-width:1;"/></g><!--link hiddenLocation2 to location--><!--link collection to activity--><g class="link" data-entity-1="collection" data-entity-2="activity" data-source-line="293" data-uid="lnk29" id="link_collection_activity"><path codeLine="293" d="M641.19,458.625 C677.38,458.625 644.01,507.515 666.19,536.125 C726.43,613.815 823.3119,665.5328 890.2119,694.7628" fill="none" id="collection-to-activity" style="stroke:#666666;stroke-width:1;"/><polygon fill="#666666" points="895.71,697.165,889.0643,689.8962,891.1282,695.1631,885.8613,697.227,895.71,697.165" style="stroke:#666666;stroke-width:1;"/></g><!--link collection to collection--><g class="link" data-entity-1="collection" data-entity-2="collection" data-source-line="294" data-uid="lnk30" id="link_collection_collection"><path codeLine="294" d="M560.81,450.655 C575.64,399.915 574.77,297.625 558.19,297.625 C548.34,297.625 543.8255,321.3688 545.0555,355.7588" fill="none" id="collection-to-collection" style="stroke:#666666;stroke-width:1;"/><polygon fill="#666666" points="545.27,361.755,548.9458,352.6178,545.0913,356.7582,540.9509,352.9037,545.27,361.755" style="stroke:#666666;stroke-width:1;"/><text fill="#666666" font-family="sans-serif" font-size="10" lengthAdjust="spacing" textLength="40.5664" x="538.19" y="277.9023">recursive</text><text fill="#666666" font-family="sans-serif" font-size="10" lengthAdjust="spacing" textLength="32.8271" x="542.0596" y="289.6211">nesting</text></g><!--reverse link contributorInformation to activity--><g class="link" data-entity-1="contributorInformation" data-entity-2="activity" data-source-line="296" data-uid="lnk32" id="link_contributorInformation_activity"><path codeLine="296" d="M367.4983,736.1814 C491.0683,750.8314 709.88,773.125 902.69,773.125" fill="none" id="contributorInformation-backto-activity" style="stroke:#666666;stroke-width:1;"/><polygon fill="#666666" points="361.54,735.475,370.0065,740.5068,366.5052,736.0637,370.9483,732.5624,361.54,735.475" style="stroke:#666666;stroke-width:1;"/></g><!--link activity to contributionDetails--><g class="link" data-entity-1="activity" data-entity-2="contributionDetails" data-source-line="297" data-uid="lnk33" id="link_activity_contributionDetails"><path codeLine="297" d="M902.69,773.125 C836.88,773.125 824.38,857.8254 823.64,921.2454" fill="none" id="activity-to-contributionDetails" style="stroke:#666666;stroke-width:1;"/><polygon fill="#666666" points="823.57,927.245,827.6747,918.2923,823.6283,922.2453,819.6753,918.1989,823.57,927.245" style="stroke:#666666;stroke-width:1;"/></g><!--link activity to rights--><g class="link" data-entity-1="activity" data-entity-2="rights" data-source-line="298" data-uid="lnk34" id="link_activity_rights"><path codeLine="298" d="M1019.69,806.125 C1047.96,806.125 1120.25,853.525 926.19,1065.965 C872.06,1125.215 791.1244,1160.3046 733.3744,1179.8146" fill="none" id="activity-to-rights" style="stroke:#666666;stroke-width:1;"/><polygon fill="#666666" points="727.69,1181.735,737.4968,1182.644,732.427,1180.1347,734.9363,1175.0648,727.69,1181.735" style="stroke:#666666;stroke-width:1;"/></g><!--link activity to location--><g class="link" data-entity-1="activity" data-entity-2="location" data-source-line="299" data-uid="lnk35" id="link_activity_location"><path codeLine="299" d="M1019.69,789.125 C1078.74,789.125 1107.2096,849.1961 1122.0396,905.0261" fill="none" id="activity-to-location" style="stroke:#666666;stroke-width:1;"/><polygon fill="#666666" points="1123.58,910.825,1125.1354,901.0997,1122.2964,905.9926,1117.4035,903.1535,1123.58,910.825" style="stroke:#666666;stroke-width:1;"/></g><!--link contributorInformation to contributorEntity--><g class="link" data-entity-1="contributorInformation" data-entity-2="contributorEntity" data-source-line="301" data-uid="lnk36" id="link_contributorInformation_contributorEntity"><path codeLine="301" d="M354.69,715.125 C361.38,715.125 348.1,843.405 347.19,868.125 C346.98,873.895 345.57,875.575 347.19,881.125 C355.8,910.585 371.6259,934.9248 387.5559,955.2248" fill="none" id="contributorInformation-to-contributorEntity" style="stroke:#666666;stroke-width:1;"/><polygon fill="#666666" points="391.26,959.945,388.8507,950.3954,388.1733,956.0115,382.5571,955.3341,391.26,959.945" style="stroke:#666666;stroke-width:1;"/><text fill="#666666" font-family="sans-serif" font-size="10" lengthAdjust="spacing" textLength="40.9717" x="348.19" y="878.4023">identifies</text></g><!--link token to activity--><g class="link" data-entity-1="token" data-entity-2="activity" data-source-line="305" data-uid="lnk37" id="link_token_activity"><path codeLine="305" d="M1089.7,471.805 C1072.55,505.275 1047.4562,554.2552 1022.0662,603.8052" fill="none" id="token-to-activity" style="stroke:#666666;stroke-width:1;stroke-dasharray:7,7;"/><polygon fill="#666666" points="1019.33,609.145,1026.9941,602.9594,1021.6101,604.6952,1019.8744,599.3112,1019.33,609.145" style="stroke:#666666;stroke-width:1;"/><text fill="#666666" font-family="sans-serif" font-size="10" lengthAdjust="spacing" textLength="42.7246" x="1039.04" y="576.4023">tokenizes</text></g><!--link funder to activity--><g class="link" data-entity-1="funder" data-entity-2="activity" data-source-line="306" data-uid="lnk38" id="link_funder_activity"><path codeLine="306" d="M786.14,467.275 C811.36,504.055 853.8478,566.036 892.3078,622.146" fill="none" id="funder-to-activity" style="stroke:#666666;stroke-width:1;stroke-dasharray:7,7;"/><polygon fill="#666666" points="895.7,627.095,893.911,617.41,892.8731,622.9708,887.3123,621.933,895.7,627.095" style="stroke:#666666;stroke-width:1;"/><text fill="#666666" font-family="sans-serif" font-size="10" lengthAdjust="spacing" textLength="25.3125" x="859.37" y="576.4023">funds</text></g><!--link contributorEntity to rights--><g class="link" data-entity-1="contributorEntity" data-entity-2="rights" data-source-line="307" data-uid="lnk39" id="link_contributorEntity_rights"><path codeLine="307" d="M448.52,1017.135 C489.18,1050.795 554.0281,1104.479 603.9681,1145.819" fill="none" id="contributorEntity-to-rights" style="stroke:#666666;stroke-width:1;stroke-dasharray:7,7;"/><polygon fill="#666666" points="608.59,1149.645,604.2078,1140.8248,604.7384,1146.4567,599.1065,1146.9873,608.59,1149.645" style="stroke:#666666;stroke-width:1;"/><text fill="#666666" font-family="sans-serif" font-size="10" lengthAdjust="spacing" textLength="16.1084" x="557.84" y="1106.2423">has</text></g><!--link fundingReceipt to funder--><g class="link" data-entity-1="fundingReceipt" data-entity-2="funder" data-source-line="313" data-uid="lnk40" id="link_fundingReceipt_funder"><path codeLine="313" d="M830.69,116.125 C950.02,116.125 834.2692,326.8014 787.4292,404.7914" fill="none" id="fundingReceipt-to-funder" style="stroke:#666666;stroke-width:1;"/><polygon fill="#666666" points="784.34,409.935,792.4029,404.279,786.9143,405.6487,785.5447,400.1601,784.34,409.935" style="stroke:#666666;stroke-width:1;"/></g><!--link fundingReceipt to contributorEntity--><g class="link" data-entity-1="fundingReceipt" data-entity-2="contributorEntity" data-source-line="314" data-uid="lnk41" id="link_fundingReceipt_contributorEntity"><path codeLine="314" d="M703.69,100.125 C332.7,100.125 393.8963,804.2641 411.0763,954.0541" fill="none" id="fundingReceipt-to-contributorEntity" style="stroke:#666666;stroke-width:1;"/><polygon fill="#666666" points="411.76,960.015,414.7084,950.6178,411.1903,955.0476,406.7605,951.5294,411.76,960.015" style="stroke:#666666;stroke-width:1;"/></g><!--link fundingReceipt to activity--><g class="link" data-entity-1="fundingReceipt" data-entity-2="activity" data-source-line="316" data-uid="lnk42" id="link_fundingReceipt_activity"><path codeLine="316" d="M830.69,132.125 C879.05,132.125 924.6303,432.0546 946.8103,603.5146" fill="none" id="fundingReceipt-to-activity" style="stroke:#666666;stroke-width:1;"/><polygon fill="#666666" points="947.58,609.465,950.3923,600.0262,946.9385,604.5063,942.4584,601.0525,947.58,609.465" style="stroke:#666666;stroke-width:1;"/><text fill="#666666" font-family="sans-serif" font-size="10" lengthAdjust="spacing" textLength="25.3125" x="938.61" y="442.4023">funds</text></g><!--link badgeAward to badgeDefinition--><g class="link" data-entity-1="badgeAward" data-entity-2="badgeDefinition" data-source-line="318" data-uid="lnk43" id="link_badgeAward_badgeDefinition"><path codeLine="318" d="M211.19,430.125 C112.52,430.125 84.3834,561.6125 76.0834,648.0725" fill="none" id="badgeAward-to-badgeDefinition" style="stroke:#666666;stroke-width:1;"/><polygon fill="#666666" points="75.51,654.045,80.3517,645.4684,75.9878,649.0679,72.3883,644.704,75.51,654.045" style="stroke:#666666;stroke-width:1;"/></g><!--link badgeResponse to badgeAward--><g class="link" data-entity-1="badgeResponse" data-entity-2="badgeAward" data-source-line="319" data-uid="lnk44" id="link_badgeResponse_badgeAward"><path codeLine="319" d="M334.19,157.625 C425.66,157.625 355.2264,295.5717 305.8464,377.1717" fill="none" id="badgeResponse-to-badgeAward" style="stroke:#666666;stroke-width:1;"/><polygon fill="#666666" points="302.74,382.305,310.8217,376.676,305.3286,378.0273,303.9774,372.5342,302.74,382.305" style="stroke:#666666;stroke-width:1;"/></g><!--link badgeAward to contributorInformation--><g class="link" data-entity-1="badgeAward" data-entity-2="contributorInformation" data-source-line="320" data-uid="lnk45" id="link_badgeAward_contributorInformation"><path codeLine="320" d="M323.19,446.125 C345.53,446.125 309.2476,580.8872 285.5976,661.5772" fill="none" id="badgeAward-to-contributorInformation" style="stroke:#666666;stroke-width:1;"/><polygon fill="#666666" points="283.91,667.335,290.2799,659.8234,285.3163,662.5368,282.6029,657.5733,283.91,667.335" style="stroke:#666666;stroke-width:1;"/></g><!--link badgeAward to activity--><g class="link" data-entity-1="badgeAward" data-entity-2="activity" data-source-line="321" data-uid="lnk46" id="link_badgeAward_activity"><path codeLine="321" d="M323.19,446.125 C392.37,446.125 388.93,503.975 450.19,536.125 C602.39,615.985 790.6796,674.9111 890.1596,703.2511" fill="none" id="badgeAward-to-activity" style="stroke:#666666;stroke-width:1;"/><polygon fill="#666666" points="895.93,704.895,888.3703,698.5822,891.1213,703.5251,886.1785,706.2761,895.93,704.895" style="stroke:#666666;stroke-width:1;"/></g><!--SRC=[Kqn9JSlCIrK8zl0FZtVpTFLn2LOeAIfDvU9IpCnBpYbDILLm3NBHAoZDpU420000]--></g></svg>