<svg xmlns="http://www.w3.org/2000/svg" xmlns:xlink="http://www.w3.org/1999/xlink" contentStyleType="text/css" data-diagram-type="CLASS" height="1003px" preserveAspectRatio="none" style="width:1084px;height:1003px;background:#FFFFFF;" version="1.1" viewBox="0 0 1084 1003" width="1084px" zoomAndPan="magnify"><title>Hypercert ERD</title><defs/><g><g class="title" data-source-line="1"><text fill="#000000" font-family="sans-serif" font-size="24" font-weight="bold" lengthAdjust="spacing" textLength="157.0547" x="456.6327" y="32.2656">Hypercert ERD</text></g><!--class contributor--><g class="entity" data-entity="contributor" data-source-line="39" data-uid="ent0002" id="entity_contributor"><rect fill="#FFD4A3" height="56.4063" rx="2.5" ry="2.5" style="stroke:#181818;stroke-width:0.5;" width="167.4219" x="19.22" y="96.915"/><ellipse cx="64.3509" cy="112.915" fill="#ADD1B2" rx="11" ry="11" style="stroke:#181818;stroke-width:1;"/><path d="M60.4134,118.915 L67.929,118.915 L67.929,116.8056 L62.929,116.8056 L62.929,114.2588 L67.0227,114.2588 L67.0227,112.165 L62.929,112.165 L62.929,109.9463 L67.7571,109.9463 L67.7571,107.8369 L60.4134,107.8369 L60.4134,118.915 Z " fill="#000000"/><text fill="#000000" font-family="sans-serif" font-size="14" lengthAdjust="spacing" textLength="68.6602" x="84.8509" y="117.7002">contributor</text><line style="stroke:#181818;stroke-width:0.5;" x1="20.22" x2="185.6419" y1="128.915" y2="128.915"/><text fill="#000000" font-family="sans-serif" font-size="14" lengthAdjust="spacing" textLength="155.4219" x="25.22" y="145.9033">DID or name/pseudonym</text></g><!--class activity--><g class="entity" data-entity="activity" data-source-line="45" data-uid="ent0003" id="entity_activity"><rect fill="#B4E5D0" height="238.3125" rx="2.5" ry="2.5" style="stroke:#181818;stroke-width:0.5;" width="146.3467" x="345.93" y="527.125"/><ellipse cx="382.9339" cy="543.8438" fill="#7E57C2" rx="11" ry="11" style="stroke:#181818;stroke-width:1;"/><path d="M380.1214,549.8438 L383.3401,549.8438 C386.4182,549.8438 388.5276,548.0625 388.5276,544.25 C388.5276,540.4375 386.4182,538.7656 383.1839,538.7656 L380.1214,538.7656 L380.1214,549.8438 Z M382.637,547.8281 L382.637,540.7813 L383.0432,540.7813 C384.7776,540.7813 385.9495,541.5938 385.9495,544.25 C385.9495,546.9063 384.7776,547.8281 383.0432,547.8281 L382.637,547.8281 Z " fill="#000000"/><text fill="#000000" font-family="sans-serif" font-size="20" font-weight="bold" lengthAdjust="spacing" textLength="65.4492" x="401.8236" y="550.6797">activity</text><line style="stroke:#181818;stroke-width:0.5;" x1="346.93" x2="491.2767" y1="560.5625" y2="560.5625"/><text fill="#000000" font-family="sans-serif" font-size="14" lengthAdjust="spacing" textLength="23.3926" x="351.93" y="577.5508">title</text><text fill="#000000" font-family="sans-serif" font-size="14" lengthAdjust="spacing" textLength="103.1201" x="351.93" y="593.957">shortDescription</text><text fill="#000000" font-family="sans-serif" font-size="14" lengthAdjust="spacing" textLength="76.2002" x="351.93" y="610.3633">description?</text><text fill="#000000" font-family="sans-serif" font-size="14" lengthAdjust="spacing" textLength="45.1992" x="351.93" y="626.7695">image?</text><text fill="#000000" font-family="sans-serif" font-size="14" lengthAdjust="spacing" textLength="69.2549" x="351.93" y="643.1758">workScope</text><text fill="#000000" font-family="sans-serif" font-size="14" lengthAdjust="spacing" textLength="134.3467" x="351.93" y="659.582">workTimeFrameFrom</text><text fill="#000000" font-family="sans-serif" font-size="14" lengthAdjust="spacing" textLength="117.9404" x="351.93" y="675.9883">workTimeFrameTo</text><text fill="#000000" font-family="sans-serif" font-size="14" lengthAdjust="spacing" textLength="69.4531" x="351.93" y="692.3945">evidence[]?</text><text fill="#000000" font-family="sans-serif" font-size="14" lengthAdjust="spacing" textLength="96.3184" x="351.93" y="708.8008">contributions[]?</text><text fill="#000000" font-family="sans-serif" font-size="14" lengthAdjust="spacing" textLength="42.1436" x="351.93" y="725.207">rights?</text><text fill="#000000" font-family="sans-serif" font-size="14" lengthAdjust="spacing" textLength="56.6494" x="351.93" y="741.6133">location?</text><text fill="#000000" font-family="sans-serif" font-size="14" lengthAdjust="spacing" textLength="60.7236" x="351.93" y="758.0195">createdAt</text></g><!--class evidence--><g class="entity" data-entity="evidence" data-source-line="62" data-uid="ent0004" id="entity_evidence"><rect fill="#F1F1F1" height="138.4375" rx="2.5" ry="2.5" style="stroke:#181818;stroke-width:0.5;" width="115.1201" x="469.43" y="850.545"/><ellipse cx="496.8986" cy="866.545" fill="#7E57C2" rx="11" ry="11" style="stroke:#181818;stroke-width:1;"/><path d="M494.0861,872.545 L497.3049,872.545 C500.383,872.545 502.4924,870.7638 502.4924,866.9513 C502.4924,863.1388 500.383,861.4669 497.1486,861.4669 L494.0861,861.4669 L494.0861,872.545 Z M496.6017,870.5294 L496.6017,863.4825 L497.008,863.4825 C498.7424,863.4825 499.9142,864.295 499.9142,866.9513 C499.9142,869.6075 498.7424,870.5294 497.008,870.5294 L496.6017,870.5294 Z " fill="#000000"/><text fill="#000000" font-family="sans-serif" font-size="14" lengthAdjust="spacing" textLength="55.4121" x="513.6694" y="871.3302">evidence</text><line style="stroke:#181818;stroke-width:0.5;" x1="470.43" x2="583.5501" y1="882.545" y2="882.545"/><text fill="#000000" font-family="sans-serif" font-size="14" lengthAdjust="spacing" textLength="65.0576" x="475.43" y="899.5333">hypercert?</text><text fill="#000000" font-family="sans-serif" font-size="14" lengthAdjust="spacing" textLength="47.3594" x="475.43" y="915.9395">content</text><text fill="#000000" font-family="sans-serif" font-size="14" lengthAdjust="spacing" textLength="30.0098" x="475.43" y="932.3458">title?</text><text fill="#000000" font-family="sans-serif" font-size="14" lengthAdjust="spacing" textLength="103.1201" x="475.43" y="948.752">shortDescription</text><text fill="#000000" font-family="sans-serif" font-size="14" lengthAdjust="spacing" textLength="76.2002" x="475.43" y="965.1583">description?</text><text fill="#000000" font-family="sans-serif" font-size="14" lengthAdjust="spacing" textLength="60.7236" x="475.43" y="981.5645">createdAt</text></g><!--class measurements--><g class="entity" data-entity="measurements" data-source-line="73" data-uid="ent0005" id="entity_measurements"><rect fill="#F1F1F1" height="171.25" rx="2.5" ry="2.5" style="stroke:#181818;stroke-width:0.5;" width="174.3877" x="516.93" y="275.125"/><ellipse cx="553.8548" cy="291.125" fill="#7E57C2" rx="11" ry="11" style="stroke:#181818;stroke-width:1;"/><path d="M551.0423,297.125 L554.261,297.125 C557.3391,297.125 559.4485,295.3438 559.4485,291.5313 C559.4485,287.7188 557.3391,286.0469 554.1048,286.0469 L551.0423,286.0469 L551.0423,297.125 Z M553.5579,295.1094 L553.5579,288.0625 L553.9641,288.0625 C555.6985,288.0625 556.8704,288.875 556.8704,291.5313 C556.8704,294.1875 555.6985,295.1094 553.9641,295.1094 L553.5579,295.1094 Z " fill="#000000"/><text fill="#000000" font-family="sans-serif" font-size="14" lengthAdjust="spacing" textLength="93.666" x="572.7269" y="295.9102">measurements</text><line style="stroke:#181818;stroke-width:0.5;" x1="517.93" x2="690.3177" y1="307.125" y2="307.125"/><text fill="#000000" font-family="sans-serif" font-size="14" lengthAdjust="spacing" textLength="58.4404" x="522.93" y="324.1133">hypercert</text><text fill="#000000" font-family="sans-serif" font-size="14" lengthAdjust="spacing" textLength="73.8213" x="522.93" y="340.5195">measurers[]</text><text fill="#000000" font-family="sans-serif" font-size="14" lengthAdjust="spacing" textLength="39.7578" x="522.93" y="356.9258">metric</text><text fill="#000000" font-family="sans-serif" font-size="14" lengthAdjust="spacing" textLength="32.9424" x="522.93" y="373.332">value</text><text fill="#000000" font-family="sans-serif" font-size="14" lengthAdjust="spacing" textLength="162.3877" x="522.93" y="389.7383">measurementMethodURI?</text><text fill="#000000" font-family="sans-serif" font-size="14" lengthAdjust="spacing" textLength="90.9658" x="522.93" y="406.1445">evidenceURI[]?</text><text fill="#000000" font-family="sans-serif" font-size="14" lengthAdjust="spacing" textLength="56.6494" x="522.93" y="422.5508">location?</text><text fill="#000000" font-family="sans-serif" font-size="14" lengthAdjust="spacing" textLength="60.7236" x="522.93" y="438.957">createdAt</text></g><!--class evaluations--><g class="entity" data-entity="evaluations" data-source-line="86" data-uid="ent0006" id="entity_evaluations"><rect fill="#F1F1F1" height="138.4375" rx="2.5" ry="2.5" style="stroke:#181818;stroke-width:0.5;" width="103.4834" x="663.43" y="56.125"/><ellipse cx="678.43" cy="72.125" fill="#7E57C2" rx="11" ry="11" style="stroke:#181818;stroke-width:1;"/><path d="M675.6175,78.125 L678.8363,78.125 C681.9144,78.125 684.0238,76.3438 684.0238,72.5313 C684.0238,68.7188 681.9144,67.0469 678.68,67.0469 L675.6175,67.0469 L675.6175,78.125 Z M678.1331,76.1094 L678.1331,69.0625 L678.5394,69.0625 C680.2738,69.0625 681.4456,69.875 681.4456,72.5313 C681.4456,75.1875 680.2738,76.1094 678.5394,76.1094 L678.1331,76.1094 Z " fill="#000000"/><text fill="#000000" font-family="sans-serif" font-size="14" lengthAdjust="spacing" textLength="71.4834" x="692.43" y="76.9102">evaluations</text><line style="stroke:#181818;stroke-width:0.5;" x1="664.43" x2="765.9134" y1="88.125" y2="88.125"/><text fill="#000000" font-family="sans-serif" font-size="14" lengthAdjust="spacing" textLength="45.4863" x="669.43" y="105.1133">subject</text><text fill="#000000" font-family="sans-serif" font-size="14" lengthAdjust="spacing" textLength="72.5156" x="669.43" y="121.5195">evaluators[]</text><text fill="#000000" font-family="sans-serif" font-size="14" lengthAdjust="spacing" textLength="85.5244" x="669.43" y="137.9258">evaluations[]?</text><text fill="#000000" font-family="sans-serif" font-size="14" lengthAdjust="spacing" textLength="58.4814" x="669.43" y="154.332">summary</text><text fill="#000000" font-family="sans-serif" font-size="14" lengthAdjust="spacing" textLength="56.6494" x="669.43" y="170.7383">location?</text><text fill="#000000" font-family="sans-serif" font-size="14" lengthAdjust="spacing" textLength="60.7236" x="669.43" y="187.1445">createdAt</text></g><!--class contributions--><g class="entity" data-entity="contributions" data-source-line="97" data-uid="ent0007" id="entity_contributions"><rect fill="#F1F1F1" height="154.8438" rx="2.5" ry="2.5" style="stroke:#181818;stroke-width:0.5;" width="150.0928" x="244.93" y="283.625"/><ellipse cx="276.0469" cy="299.625" fill="#7E57C2" rx="11" ry="11" style="stroke:#181818;stroke-width:1;"/><path d="M273.2344,305.625 L276.4532,305.625 C279.5313,305.625 281.6407,303.8438 281.6407,300.0313 C281.6407,296.2188 279.5313,294.5469 276.2969,294.5469 L273.2344,294.5469 L273.2344,305.625 Z M275.7501,303.6094 L275.7501,296.5625 L276.1563,296.5625 C277.8907,296.5625 279.0626,297.375 279.0626,300.0313 C279.0626,302.6875 277.8907,303.6094 276.1563,303.6094 L275.7501,303.6094 Z " fill="#000000"/><text fill="#000000" font-family="sans-serif" font-size="14" lengthAdjust="spacing" textLength="82.2773" x="293.6285" y="304.4102">contributions</text><line style="stroke:#181818;stroke-width:0.5;" x1="245.93" x2="394.0228" y1="315.625" y2="315.625"/><text fill="#000000" font-family="sans-serif" font-size="14" lengthAdjust="spacing" textLength="58.4404" x="250.93" y="332.6133">hypercert</text><text fill="#000000" font-family="sans-serif" font-size="14" lengthAdjust="spacing" textLength="30.1738" x="250.93" y="349.0195">role?</text><text fill="#000000" font-family="sans-serif" font-size="14" lengthAdjust="spacing" textLength="76.084" x="250.93" y="365.4258">contributor[]</text><text fill="#000000" font-family="sans-serif" font-size="14" lengthAdjust="spacing" textLength="76.2002" x="250.93" y="381.832">description?</text><text fill="#000000" font-family="sans-serif" font-size="14" lengthAdjust="spacing" textLength="138.0928" x="250.93" y="398.2383">workTimeframeFrom?</text><text fill="#000000" font-family="sans-serif" font-size="14" lengthAdjust="spacing" textLength="121.6865" x="250.93" y="414.6445">workTimeframeTo?</text><text fill="#000000" font-family="sans-serif" font-size="14" lengthAdjust="spacing" textLength="60.7236" x="250.93" y="431.0508">createdAt</text></g><!--class location--><g class="entity" data-entity="location" data-source-line="109" data-uid="ent0008" id="entity_location"><rect fill="#F1F1F1" height="154.8438" rx="2.5" ry="2.5" style="stroke:#181818;stroke-width:0.5;" width="92.2949" x="664.78" y="842.125"/><ellipse cx="684.3982" cy="858.125" fill="#7E57C2" rx="11" ry="11" style="stroke:#181818;stroke-width:1;"/><path d="M681.5857,864.125 L684.8045,864.125 C687.8826,864.125 689.992,862.3438 689.992,858.5313 C689.992,854.7188 687.8826,853.0469 684.6482,853.0469 L681.5857,853.0469 L681.5857,864.125 Z M684.1013,862.1094 L684.1013,855.0625 L684.5076,855.0625 C686.242,855.0625 687.4138,855.875 687.4138,858.5313 C687.4138,861.1875 686.242,862.1094 684.5076,862.1094 L684.1013,862.1094 Z " fill="#000000"/><text fill="#000000" font-family="sans-serif" font-size="14" lengthAdjust="spacing" textLength="50.0322" x="699.4245" y="862.9102">location</text><line style="stroke:#181818;stroke-width:0.5;" x1="665.78" x2="756.0749" y1="874.125" y2="874.125"/><text fill="#000000" font-family="sans-serif" font-size="14" lengthAdjust="spacing" textLength="58.6934" x="670.78" y="891.1133">lpVersion</text><text fill="#000000" font-family="sans-serif" font-size="14" lengthAdjust="spacing" textLength="19.1953" x="670.78" y="907.5195">srs</text><text fill="#000000" font-family="sans-serif" font-size="14" lengthAdjust="spacing" textLength="80.2949" x="670.78" y="923.9258">locationType</text><text fill="#000000" font-family="sans-serif" font-size="14" lengthAdjust="spacing" textLength="50.0322" x="670.78" y="940.332">location</text><text fill="#000000" font-family="sans-serif" font-size="14" lengthAdjust="spacing" textLength="41.665" x="670.78" y="956.7383">name?</text><text fill="#000000" font-family="sans-serif" font-size="14" lengthAdjust="spacing" textLength="76.2002" x="670.78" y="973.1445">description?</text><text fill="#000000" font-family="sans-serif" font-size="14" lengthAdjust="spacing" textLength="60.7236" x="670.78" y="989.5508">createdAt</text></g><!--class rights--><g class="entity" data-entity="rights" data-source-line="121" data-uid="ent0009" id="entity_rights"><rect fill="#F1F1F1" height="105.625" rx="2.5" ry="2.5" style="stroke:#181818;stroke-width:0.5;" width="118.4014" x="66.73" y="866.735"/><ellipse cx="104.6237" cy="882.735" fill="#7E57C2" rx="11" ry="11" style="stroke:#181818;stroke-width:1;"/><path d="M101.8112,888.735 L105.03,888.735 C108.1081,888.735 110.2175,886.9538 110.2175,883.1413 C110.2175,879.3288 108.1081,877.6569 104.8737,877.6569 L101.8112,877.6569 L101.8112,888.735 Z M104.3269,886.7194 L104.3269,879.6725 L104.7331,879.6725 C106.4675,879.6725 107.6394,880.485 107.6394,883.1413 C107.6394,885.7975 106.4675,886.7194 104.7331,886.7194 L104.3269,886.7194 Z " fill="#000000"/><text fill="#000000" font-family="sans-serif" font-size="14" lengthAdjust="spacing" textLength="35.5264" x="123.7112" y="887.5202">rights</text><line style="stroke:#181818;stroke-width:0.5;" x1="67.73" x2="184.1314" y1="898.735" y2="898.735"/><text fill="#000000" font-family="sans-serif" font-size="14" lengthAdjust="spacing" textLength="72.8301" x="72.73" y="915.7233">rightsName</text><text fill="#000000" font-family="sans-serif" font-size="14" lengthAdjust="spacing" textLength="65.7891" x="72.73" y="932.1295">rightsType</text><text fill="#000000" font-family="sans-serif" font-size="14" lengthAdjust="spacing" textLength="106.4014" x="72.73" y="948.5358">rightsDescription</text><text fill="#000000" font-family="sans-serif" font-size="14" lengthAdjust="spacing" textLength="60.7236" x="72.73" y="964.942">createdAt</text></g><!--class collection--><g class="entity" data-entity="collection" data-source-line="130" data-uid="ent0010" id="entity_collection"><rect fill="#F1F1F1" height="122.0313" rx="2.5" ry="2.5" style="stroke:#181818;stroke-width:0.5;" width="121.7373" x="72.43" y="299.625"/><ellipse cx="100.5538" cy="315.625" fill="#7E57C2" rx="11" ry="11" style="stroke:#181818;stroke-width:1;"/><path d="M97.7413,321.625 L100.9601,321.625 C104.0382,321.625 106.1476,319.8438 106.1476,316.0313 C106.1476,312.2188 104.0382,310.5469 100.8038,310.5469 L97.7413,310.5469 L97.7413,321.625 Z M100.257,319.6094 L100.257,312.5625 L100.6632,312.5625 C102.3976,312.5625 103.5695,313.375 103.5695,316.0313 C103.5695,318.6875 102.3976,319.6094 100.6632,319.6094 L100.257,319.6094 Z " fill="#000000"/><text fill="#000000" font-family="sans-serif" font-size="14" lengthAdjust="spacing" textLength="60.5732" x="117.4702" y="320.4102">collection</text><line style="stroke:#181818;stroke-width:0.5;" x1="73.43" x2="193.1673" y1="331.625" y2="331.625"/><text fill="#000000" font-family="sans-serif" font-size="14" lengthAdjust="spacing" textLength="23.3926" x="78.43" y="348.6133">title</text><text fill="#000000" font-family="sans-serif" font-size="14" lengthAdjust="spacing" textLength="109.7373" x="78.43" y="365.0195">shortDescription?</text><text fill="#000000" font-family="sans-serif" font-size="14" lengthAdjust="spacing" textLength="77.9707" x="78.43" y="381.4258">coverPhoto?</text><text fill="#000000" font-family="sans-serif" font-size="14" lengthAdjust="spacing" textLength="48.6787" x="78.43" y="397.832">claims[]</text><text fill="#000000" font-family="sans-serif" font-size="14" lengthAdjust="spacing" textLength="60.7236" x="78.43" y="414.2383">createdAt</text></g><!--class token--><g class="entity" data-entity="token" data-source-line="140" data-uid="ent0011" id="entity_token"><rect fill="#FFB6C1" height="65.8438" rx="2.5" ry="2.5" style="stroke:#181818;stroke-width:0.5;" width="104.2578" x="321.8" y="886.625"/><ellipse cx="346.4732" cy="903.3438" fill="#F1F1F1" rx="11" ry="11" style="stroke:#181818;stroke-width:1;"/><path d="M343.2545,909.3438 L345.7545,909.3438 L345.7545,905.5938 L347.1764,905.5938 C349.5201,905.5938 351.5045,904.4375 351.5045,901.8281 C351.5045,899.1406 349.567,898.2656 347.1764,898.2656 L343.2545,898.2656 L343.2545,909.3438 Z M345.7545,903.5938 L345.7545,900.25 L347.0201,900.25 C348.3482,900.25 349.067,900.6719 349.067,901.8281 C349.067,902.9844 348.3951,903.5938 347.0201,903.5938 L345.7545,903.5938 Z " fill="#000000"/><text fill="#000000" font-family="sans-serif" font-size="20" font-weight="bold" lengthAdjust="spacing" textLength="50.7617" x="362.6229" y="910.1797">token</text><line style="stroke:#181818;stroke-width:0.5;" x1="322.8" x2="425.0578" y1="920.0625" y2="920.0625"/><line style="stroke:#181818;stroke-width:0.5;" x1="322.8" x2="425.0578" y1="928.0625" y2="928.0625"/><text fill="#000000" font-family="sans-serif" font-size="14" lengthAdjust="spacing" textLength="92.2578" x="327.8" y="945.0508">(on-chain only)</text></g><!--link activity to evidence--><g class="link" data-entity-1="activity" data-entity-2="evidence" data-source-line="146" data-uid="lnk12" id="link_activity_evidence"><path codeLine="146" d="M492.93,687.125 C558.31,687.125 555.904,772.7396 544.374,840.6696" fill="none" id="activity-to-evidence" style="stroke:#666666;stroke-width:1;"/><polygon fill="#666666" points="543.37,846.585,548.8197,838.3813,544.2067,841.6555,540.9325,837.0425,543.37,846.585" style="stroke:#666666;stroke-width:1;"/></g><!--link evidence to activity--><g class="link" data-entity-1="evidence" data-entity-2="activity" data-source-line="150" data-uid="lnk16" id="link_evidence_activity"><path codeLine="150" d="M468.43,894.545 C454.28,894.545 442.6456,837.4151 433.7556,774.9651" fill="none" id="evidence-to-activity" style="stroke:#666666;stroke-width:1;"/><polygon fill="#666666" points="432.91,769.025,430.2183,778.4989,433.6147,773.9751,438.1385,777.3714,432.91,769.025" style="stroke:#666666;stroke-width:1;"/></g><!--link activity to contributions--><g class="link" data-entity-1="activity" data-entity-2="contributions" data-source-line="147" data-uid="lnk13" id="link_activity_contributions"><path codeLine="147" d="M344.93,703.125 C264.93,703.125 321.67,599.355 345.93,523.125 C350.87,507.615 362.04,508.645 366.93,493.125 C368.67,487.615 368.02,485.795 366.93,480.125 C364.48,467.295 362.628,459.7531 358.208,447.0231" fill="none" id="activity-to-contributions" style="stroke:#666666;stroke-width:1;"/><polygon fill="#666666" points="356.24,441.355,355.4133,451.1691,357.88,446.0784,362.9707,448.5451,356.24,441.355" style="stroke:#666666;stroke-width:1;"/></g><!--link contributions to activity--><g class="link" data-entity-1="contributions" data-entity-2="activity" data-source-line="157" data-uid="lnk23" id="link_contributions_activity"><path codeLine="157" d="M395.93,327.625 C446.6,327.625 412.36,394.045 394.93,441.625 C387.28,462.515 370.49,459.195 362.93,480.125 C360.97,485.555 361.92,487.435 362.93,493.125 C364.71,503.085 365.4953,507.4708 368.2853,517.5908" fill="none" id="contributions-to-activity" style="stroke:#666666;stroke-width:1;"/><polygon fill="#666666" points="369.88,523.375,371.3442,513.6356,368.5511,518.5548,363.6319,515.7618,369.88,523.375" style="stroke:#666666;stroke-width:1;"/></g><!--link activity to rights--><g class="link" data-entity-1="activity" data-entity-2="rights" data-source-line="148" data-uid="lnk14" id="link_activity_rights"><path codeLine="148" d="M344.93,720.125 C257.71,720.125 192.8819,802.5012 157.0619,861.2912" fill="none" id="activity-to-rights" style="stroke:#666666;stroke-width:1;"/><polygon fill="#666666" points="153.94,866.415,162.0387,860.8105,156.5416,862.1451,155.2069,856.648,153.94,866.415" style="stroke:#666666;stroke-width:1;"/></g><!--link activity to location--><g class="link" data-entity-1="activity" data-entity-2="location" data-source-line="149" data-uid="lnk15" id="link_activity_location"><path codeLine="149" d="M492.93,736.125 C564.86,736.125 621.9063,790.4881 660.8363,841.4181" fill="none" id="activity-to-location" style="stroke:#666666;stroke-width:1;"/><polygon fill="#666666" points="664.48,846.185,662.1923,836.6055,661.4436,842.2126,655.8365,841.4638,664.48,846.185" style="stroke:#666666;stroke-width:1;"/></g><!--link measurements to activity--><g class="link" data-entity-1="measurements" data-entity-2="activity" data-source-line="151" data-uid="lnk17" id="link_measurements_activity"><path codeLine="151" d="M515.93,319.125 C476.53,319.125 493.31,455.405 481.93,493.125 C478.92,503.105 477.5262,507.6811 473.8462,517.8811" fill="none" id="measurements-to-activity" style="stroke:#666666;stroke-width:1;"/><polygon fill="#666666" points="471.81,523.525,478.627,516.4166,473.5069,518.8217,471.1017,513.7016,471.81,523.525" style="stroke:#666666;stroke-width:1;"/></g><!--link measurements to location--><g class="link" data-entity-1="measurements" data-entity-2="location" data-source-line="152" data-uid="lnk18" id="link_measurements_location"><path codeLine="152" d="M691.93,417.125 C859.84,417.125 787.5805,695.684 740.6705,836.154" fill="none" id="measurements-to-location" style="stroke:#666666;stroke-width:1;"/><polygon fill="#666666" points="738.77,841.845,745.4148,834.5754,740.3538,837.1025,737.8268,832.0414,738.77,841.845" style="stroke:#666666;stroke-width:1;"/></g><!--link evaluations to evidence--><g class="link" data-entity-1="evaluations" data-entity-2="evidence" data-source-line="153" data-uid="lnk19" id="link_evaluations_evidence"><path codeLine="153" d="M767.43,100.125 C1077.32,100.125 723.3883,642.0219 582.5283,841.7319" fill="none" id="evaluations-to-evidence" style="stroke:#666666;stroke-width:1;"/><polygon fill="#666666" points="579.07,846.635,587.5261,841.5859,581.9519,842.5491,580.9887,836.9748,579.07,846.635" style="stroke:#666666;stroke-width:1;"/></g><!--link evaluations to measurements--><g class="link" data-entity-1="evaluations" data-entity-2="measurements" data-source-line="154" data-uid="lnk20" id="link_evaluations_measurements"><path codeLine="154" d="M662.43,100.125 C590.5,100.125 583.9401,190.1959 590.2301,265.4259" fill="none" id="evaluations-to-measurements" style="stroke:#666666;stroke-width:1;"/><polygon fill="#666666" points="590.73,271.405,593.9662,262.103,590.3134,266.4224,585.994,262.7696,590.73,271.405" style="stroke:#666666;stroke-width:1;"/></g><!--link evaluations to activity--><g class="link" data-entity-1="evaluations" data-entity-2="activity" data-source-line="155" data-uid="lnk21" id="link_evaluations_activity"><path codeLine="155" d="M662.43,100.125 C478.35,100.125 432.8932,356.5086 422.0732,517.1686" fill="none" id="evaluations-to-activity" style="stroke:#666666;stroke-width:1;"/><polygon fill="#666666" points="421.67,523.155,426.2657,514.4441,422.006,518.1663,418.2838,513.9066,421.67,523.155" style="stroke:#666666;stroke-width:1;"/></g><!--link evaluations to location--><g class="link" data-entity-1="evaluations" data-entity-2="location" data-source-line="156" data-uid="lnk22" id="link_evaluations_location"><path codeLine="156" d="M767.43,165.125 C1036.29,165.125 870.91,509.535 800.93,769.125 C792.34,800.995 778.0804,827.8242 760.7104,853.8542" fill="none" id="evaluations-to-location" style="stroke:#666666;stroke-width:1;"/><polygon fill="#666666" points="757.38,858.845,765.7028,853.579,760.1553,854.686,759.0484,849.1385,757.38,858.845" style="stroke:#666666;stroke-width:1;"/></g><!--link collection to activity--><g class="link" data-entity-1="collection" data-entity-2="activity" data-source-line="158" data-uid="lnk24" id="link_collection_activity"><path codeLine="158" d="M194.43,392.625 C222.39,392.625 204,427.155 219.93,450.125 C253.02,497.815 294.3413,539.6411 333.6613,574.8711" fill="none" id="collection-to-activity" style="stroke:#666666;stroke-width:1;"/><polygon fill="#666666" points="338.13,578.875,334.0962,569.8901,334.4061,575.5385,328.7577,575.8483,338.13,578.875" style="stroke:#666666;stroke-width:1;"/></g><!--reverse link activity to token--><g class="link" data-entity-1="activity" data-entity-2="token" data-source-line="159" data-uid="lnk25" id="link_activity_token"><path codeLine="159" d="M387.1777,774.6294 C385.1377,784.8694 384.47,789.205 382.93,799.125 C378.39,828.395 376.12,862.085 374.99,886.205" fill="none" id="activity-backto-token" style="stroke:#666666;stroke-width:1;"/><polygon fill="#666666" points="388.35,768.745,382.6687,776.79,387.3731,773.6486,390.5145,778.3531,388.35,768.745" style="stroke:#666666;stroke-width:1;"/><text fill="#666666" font-family="sans-serif" font-size="10" lengthAdjust="spacing" textLength="42.7246" x="383.93" y="809.4023">tokenizes</text></g><!--link contributor to contributions--><g class="link" data-entity-1="contributor" data-entity-2="contributions" data-source-line="160" data-uid="lnk26" id="link_contributor_contributions"><path codeLine="160" d="M128.68,153.825 C157.36,184.685 200.9557,231.5997 241.5357,275.2697" fill="none" id="contributor-to-contributions" style="stroke:#666666;stroke-width:1;"/><polygon fill="#666666" points="245.62,279.665,242.4238,270.3492,242.2164,276.0023,236.5634,275.7949,245.62,279.665" style="stroke:#666666;stroke-width:1;"/><text fill="#666666" font-family="sans-serif" font-size="10" lengthAdjust="spacing" textLength="29.7412" x="205.92" y="238.4023">makes</text></g><!--link contributor to rights--><g class="link" data-entity-1="contributor" data-entity-2="rights" data-source-line="161" data-uid="lnk27" id="link_contributor_rights"><path codeLine="161" d="M88.81,153.555 C74.99,182.075 54.89,228.405 46.93,271.125 C6,490.695 73.2906,750.5288 107.1306,860.8588" fill="none" id="contributor-to-rights" style="stroke:#666666;stroke-width:1;"/><polygon fill="#666666" points="108.89,866.595,110.0751,856.8177,107.4238,861.8148,102.4267,859.1636,108.89,866.595" style="stroke:#666666;stroke-width:1;"/><text fill="#666666" font-family="sans-serif" font-size="10" lengthAdjust="spacing" textLength="16.1084" x="37.64" y="490.4023">has</text></g><!--SRC=[Kqn9JSlCIrK8zl0FZtVpTFLn2LOeAIfDvU9IpCnBpYbDILLm3NBHAoZDpU420000]--></g></svg>