<svg xmlns="http://www.w3.org/2000/svg" xmlns:xlink="http://www.w3.org/1999/xlink" contentStyleType="text/css" data-diagram-type="CLASS" height="1335px" preserveAspectRatio="none" style="width:1465px;height:1335px;background:#FFFFFF;" version="1.1" viewBox="0 0 1465 1335" width="1465px" zoomAndPan="magnify"><title>Hypercert ERD</title><defs/><g><g class="title" data-source-line="7"><text fill="#000000" font-family="sans-serif" font-size="24" font-weight="bold" lengthAdjust="spacing" textLength="169.3945" x="640.8727" y="32.5117">Hypercert ERD</text></g><!--class contributor--><g class="entity" data-entity="contributor" data-source-line="47" data-uid="ent0002" id="entity_contributor"><rect fill="#FFD4A3" height="56.0986" rx="2.5" ry="2.5" style="stroke:#181818;stroke-width:0.5;" width="167.627" x="1010.53" y="695.5477"/><ellipse cx="1057.0212" cy="711.5477" fill="#ADD1B2" rx="11" ry="11" style="stroke:#181818;stroke-width:1;"/><path d="M1053.0837,717.5477 L1060.5993,717.5477 L1060.5993,715.4383 L1055.5993,715.4383 L1055.5993,712.8914 L1059.6931,712.8914 L1059.6931,710.7977 L1055.5993,710.7977 L1055.5993,708.5789 L1060.4275,708.5789 L1060.4275,706.4695 L1053.0837,706.4695 L1053.0837,717.5477 Z " fill="#000000"/><text fill="#000000" font-family="sans-serif" font-size="14" lengthAdjust="spacing" textLength="66.1445" x="1077.5212" y="716.6302">contributor</text><line style="stroke:#181818;stroke-width:0.5;" x1="1011.53" x2="1177.157" y1="727.5477" y2="727.5477"/><text fill="#000000" font-family="sans-serif" font-size="14" lengthAdjust="spacing" textLength="155.627" x="1016.53" y="744.6795">DID or name/pseudonym</text></g><!--class activity--><g class="entity" data-entity="activity" data-source-line="55" data-uid="ent0003" id="entity_activity"><rect fill="#B4E5D0" height="234.1816" rx="2.5" ry="2.5" style="stroke:#181818;stroke-width:0.5;" width="113.1514" x="568.84" y="606.5977"/><ellipse cx="589.3415" cy="623.0967" fill="#7E57C2" rx="11" ry="11" style="stroke:#181818;stroke-width:1;"/><path d="M586.529,629.0967 L589.7478,629.0967 C592.8259,629.0967 594.9353,627.3154 594.9353,623.5029 C594.9353,619.6904 592.8259,618.0186 589.5915,618.0186 L586.529,618.0186 L586.529,629.0967 Z M589.0446,627.0811 L589.0446,620.0342 L589.4509,620.0342 C591.1853,620.0342 592.3571,620.8467 592.3571,623.5029 C592.3571,626.1592 591.1853,627.0811 589.4509,627.0811 L589.0446,627.0811 Z " fill="#000000"/><text fill="#000000" font-family="sans-serif" font-size="20" font-weight="bold" lengthAdjust="spacing" textLength="68.9258" x="604.5641" y="630.3574">activity</text><line style="stroke:#181818;stroke-width:0.5;" x1="569.84" x2="680.9914" y1="639.5957" y2="639.5957"/><text fill="#000000" font-family="sans-serif" font-size="14" lengthAdjust="spacing" textLength="21.7861" x="574.84" y="656.7275">title</text><text fill="#000000" font-family="sans-serif" font-size="14" lengthAdjust="spacing" textLength="101.1514" x="574.84" y="672.8262">shortDescription</text><text fill="#000000" font-family="sans-serif" font-size="14" lengthAdjust="spacing" textLength="75.4893" x="574.84" y="688.9248">description?</text><text fill="#000000" font-family="sans-serif" font-size="14" lengthAdjust="spacing" textLength="45.917" x="574.84" y="705.0234">image?</text><text fill="#000000" font-family="sans-serif" font-size="14" lengthAdjust="spacing" textLength="77.041" x="574.84" y="721.1221">workScope?</text><text fill="#000000" font-family="sans-serif" font-size="14" lengthAdjust="spacing" textLength="56.7998" x="574.84" y="737.2207">startDate</text><text fill="#000000" font-family="sans-serif" font-size="14" lengthAdjust="spacing" textLength="52.9307" x="574.84" y="753.3193">endDate</text><text fill="#000000" font-family="sans-serif" font-size="14" lengthAdjust="spacing" textLength="94.9443" x="574.84" y="769.418">contributions[]?</text><text fill="#000000" font-family="sans-serif" font-size="14" lengthAdjust="spacing" textLength="56.041" x="574.84" y="785.5166">location?</text><text fill="#000000" font-family="sans-serif" font-size="14" lengthAdjust="spacing" textLength="42.0205" x="574.84" y="801.6152">rights?</text><text fill="#000000" font-family="sans-serif" font-size="14" lengthAdjust="spacing" textLength="49.8066" x="574.84" y="817.7139">project?</text><text fill="#000000" font-family="sans-serif" font-size="14" lengthAdjust="spacing" textLength="59.9238" x="574.84" y="833.8125">createdAt</text></g><!--class evidence--><g class="entity" data-entity="evidence" data-source-line="73" data-uid="ent0004" id="entity_evidence"><rect fill="#F1F1F1" height="152.6904" rx="2.5" ry="2.5" style="stroke:#181818;stroke-width:0.5;" width="120.9375" x="331.34" y="357.5977"/><ellipse cx="361.1434" cy="373.5977" fill="#7E57C2" rx="11" ry="11" style="stroke:#181818;stroke-width:1;"/><path d="M358.3309,379.5977 L361.5497,379.5977 C364.6278,379.5977 366.7372,377.8164 366.7372,374.0039 C366.7372,370.1914 364.6278,368.5195 361.3934,368.5195 L358.3309,368.5195 L358.3309,379.5977 Z M360.8465,377.582 L360.8465,370.5352 L361.2528,370.5352 C362.9872,370.5352 364.159,371.3477 364.159,374.0039 C364.159,376.6602 362.9872,377.582 361.2528,377.582 L360.8465,377.582 Z " fill="#000000"/><text fill="#000000" font-family="sans-serif" font-size="14" lengthAdjust="spacing" textLength="56.041" x="378.4331" y="378.6802">evidence</text><line style="stroke:#181818;stroke-width:0.5;" x1="332.34" x2="451.2775" y1="389.5977" y2="389.5977"/><text fill="#000000" font-family="sans-serif" font-size="14" lengthAdjust="spacing" textLength="52.1445" x="337.34" y="406.7295">subject?</text><text fill="#000000" font-family="sans-serif" font-size="14" lengthAdjust="spacing" textLength="45.9238" x="337.34" y="422.8281">content</text><text fill="#000000" font-family="sans-serif" font-size="14" lengthAdjust="spacing" textLength="21.7861" x="337.34" y="438.9268">title</text><text fill="#000000" font-family="sans-serif" font-size="14" lengthAdjust="spacing" textLength="108.9375" x="337.34" y="455.0254">shortDescription?</text><text fill="#000000" font-family="sans-serif" font-size="14" lengthAdjust="spacing" textLength="75.4893" x="337.34" y="471.124">description?</text><text fill="#000000" font-family="sans-serif" font-size="14" lengthAdjust="spacing" textLength="84.8271" x="337.34" y="487.2227">relationType?</text><text fill="#000000" font-family="sans-serif" font-size="14" lengthAdjust="spacing" textLength="59.9238" x="337.34" y="503.3213">createdAt</text></g><!--class measurement--><g class="entity" data-entity="measurement" data-source-line="86" data-uid="ent0005" id="entity_measurement"><rect fill="#F1F1F1" height="184.8877" rx="2.5" ry="2.5" style="stroke:#181818;stroke-width:0.5;" width="117.5928" x="162.84" y="341.5977"/><ellipse cx="177.84" cy="357.5977" fill="#7E57C2" rx="11" ry="11" style="stroke:#181818;stroke-width:1;"/><path d="M175.0275,363.5977 L178.2463,363.5977 C181.3244,363.5977 183.4338,361.8164 183.4338,358.0039 C183.4338,354.1914 181.3244,352.5195 178.09,352.5195 L175.0275,352.5195 L175.0275,363.5977 Z M177.5431,361.582 L177.5431,354.5352 L177.9494,354.5352 C179.6838,354.5352 180.8556,355.3477 180.8556,358.0039 C180.8556,360.6602 179.6838,361.582 177.9494,361.582 L177.5431,361.582 Z " fill="#000000"/><text fill="#000000" font-family="sans-serif" font-size="14" lengthAdjust="spacing" textLength="85.5928" x="191.84" y="362.6802">measurement</text><line style="stroke:#181818;stroke-width:0.5;" x1="163.84" x2="279.4328" y1="373.5977" y2="373.5977"/><text fill="#000000" font-family="sans-serif" font-size="14" lengthAdjust="spacing" textLength="52.1445" x="168.84" y="390.7295">subject?</text><text fill="#000000" font-family="sans-serif" font-size="14" lengthAdjust="spacing" textLength="73.9102" x="168.84" y="406.8281">measurers[]</text><text fill="#000000" font-family="sans-serif" font-size="14" lengthAdjust="spacing" textLength="38.1104" x="168.84" y="422.9268">metric</text><text fill="#000000" font-family="sans-serif" font-size="14" lengthAdjust="spacing" textLength="33.4688" x="168.84" y="439.0254">value</text><text fill="#000000" font-family="sans-serif" font-size="14" lengthAdjust="spacing" textLength="85.6064" x="168.84" y="455.124">methodType?</text><text fill="#000000" font-family="sans-serif" font-size="14" lengthAdjust="spacing" textLength="78.5928" x="168.84" y="471.2227">methodURI?</text><text fill="#000000" font-family="sans-serif" font-size="14" lengthAdjust="spacing" textLength="95.7168" x="168.84" y="487.3213">evidenceURI[]?</text><text fill="#000000" font-family="sans-serif" font-size="14" lengthAdjust="spacing" textLength="56.041" x="168.84" y="503.4199">location?</text><text fill="#000000" font-family="sans-serif" font-size="14" lengthAdjust="spacing" textLength="59.9238" x="168.84" y="519.5186">createdAt</text></g><!--class evaluation--><g class="entity" data-entity="evaluation" data-source-line="101" data-uid="ent0006" id="entity_evaluation"><rect fill="#F1F1F1" height="168.7891" rx="2.5" ry="2.5" style="stroke:#181818;stroke-width:0.5;" width="120.1582" x="214.34" y="80.0977"/><ellipse cx="240.289" cy="96.0977" fill="#7E57C2" rx="11" ry="11" style="stroke:#181818;stroke-width:1;"/><path d="M237.4765,102.0977 L240.6952,102.0977 C243.7733,102.0977 245.8827,100.3164 245.8827,96.5039 C245.8827,92.6914 243.7733,91.0195 240.539,91.0195 L237.4765,91.0195 L237.4765,102.0977 Z M239.9921,100.082 L239.9921,93.0352 L240.3983,93.0352 C242.1327,93.0352 243.3046,93.8477 243.3046,96.5039 C243.3046,99.1602 242.1327,100.082 240.3983,100.082 L239.9921,100.082 Z " fill="#000000"/><text fill="#000000" font-family="sans-serif" font-size="14" lengthAdjust="spacing" textLength="63.8271" x="256.7221" y="101.1802">evaluation</text><line style="stroke:#181818;stroke-width:0.5;" x1="215.34" x2="333.4982" y1="112.0977" y2="112.0977"/><text fill="#000000" font-family="sans-serif" font-size="14" lengthAdjust="spacing" textLength="52.1445" x="220.34" y="129.2295">subject?</text><text fill="#000000" font-family="sans-serif" font-size="14" lengthAdjust="spacing" textLength="57.5586" x="220.34" y="145.3281">summary</text><text fill="#000000" font-family="sans-serif" font-size="14" lengthAdjust="spacing" textLength="72.3721" x="220.34" y="161.4268">evaluators[]</text><text fill="#000000" font-family="sans-serif" font-size="14" lengthAdjust="spacing" textLength="61.4893" x="220.34" y="177.5254">content[]?</text><text fill="#000000" font-family="sans-serif" font-size="14" lengthAdjust="spacing" textLength="108.1582" x="220.34" y="193.624">measurements[]?</text><text fill="#000000" font-family="sans-serif" font-size="14" lengthAdjust="spacing" textLength="34.2344" x="220.34" y="209.7227">score</text><text fill="#000000" font-family="sans-serif" font-size="14" lengthAdjust="spacing" textLength="56.041" x="220.34" y="225.8213">location?</text><text fill="#000000" font-family="sans-serif" font-size="14" lengthAdjust="spacing" textLength="59.9238" x="220.34" y="241.9199">createdAt</text></g><!--class contribution--><g class="entity" data-entity="contribution" data-source-line="115" data-uid="ent0007" id="entity_contribution"><rect fill="#F1F1F1" height="136.5918" rx="2.5" ry="2.5" style="stroke:#181818;stroke-width:0.5;" width="104.3789" x="1019.34" y="365.5977"/><ellipse cx="1034.34" cy="381.5977" fill="#7E57C2" rx="11" ry="11" style="stroke:#181818;stroke-width:1;"/><path d="M1031.5275,387.5977 L1034.7463,387.5977 C1037.8244,387.5977 1039.9338,385.8164 1039.9338,382.0039 C1039.9338,378.1914 1037.8244,376.5195 1034.59,376.5195 L1031.5275,376.5195 L1031.5275,387.5977 Z M1034.0431,385.582 L1034.0431,378.5352 L1034.4494,378.5352 C1036.1838,378.5352 1037.3556,379.3477 1037.3556,382.0039 C1037.3556,384.6602 1036.1838,385.582 1034.4494,385.582 L1034.0431,385.582 Z " fill="#000000"/><text fill="#000000" font-family="sans-serif" font-size="14" lengthAdjust="spacing" textLength="72.3789" x="1048.34" y="386.6802">contribution</text><line style="stroke:#181818;stroke-width:0.5;" x1="1020.34" x2="1122.7189" y1="397.5977" y2="397.5977"/><text fill="#000000" font-family="sans-serif" font-size="14" lengthAdjust="spacing" textLength="31.1309" x="1025.34" y="414.7295">role?</text><text fill="#000000" font-family="sans-serif" font-size="14" lengthAdjust="spacing" textLength="80.9238" x="1025.34" y="430.8281">contributors[]</text><text fill="#000000" font-family="sans-serif" font-size="14" lengthAdjust="spacing" textLength="75.4893" x="1025.34" y="446.9268">description?</text><text fill="#000000" font-family="sans-serif" font-size="14" lengthAdjust="spacing" textLength="64.5859" x="1025.34" y="463.0254">startDate?</text><text fill="#000000" font-family="sans-serif" font-size="14" lengthAdjust="spacing" textLength="60.7168" x="1025.34" y="479.124">endDate?</text><text fill="#000000" font-family="sans-serif" font-size="14" lengthAdjust="spacing" textLength="59.9238" x="1025.34" y="495.2227">createdAt</text></g><!--class location--><g class="entity" data-entity="location" data-source-line="127" data-uid="ent0008" id="entity_location"><rect fill="#F1F1F1" height="152.6904" rx="2.5" ry="2.5" style="stroke:#181818;stroke-width:0.5;" width="91.3789" x="460.65" y="1175.6977"/><ellipse cx="480.6558" cy="1191.6977" fill="#7E57C2" rx="11" ry="11" style="stroke:#181818;stroke-width:1;"/><path d="M477.8433,1197.6977 L481.0621,1197.6977 C484.1402,1197.6977 486.2496,1195.9164 486.2496,1192.1039 C486.2496,1188.2914 484.1402,1186.6195 480.9058,1186.6195 L477.8433,1186.6195 L477.8433,1197.6977 Z M480.3589,1195.682 L480.3589,1188.6352 L480.7652,1188.6352 C482.4996,1188.6352 483.6714,1189.4477 483.6714,1192.1039 C483.6714,1194.7602 482.4996,1195.682 480.7652,1195.682 L480.3589,1195.682 Z " fill="#000000"/><text fill="#000000" font-family="sans-serif" font-size="14" lengthAdjust="spacing" textLength="48.2549" x="495.7682" y="1196.7802">location</text><line style="stroke:#181818;stroke-width:0.5;" x1="461.65" x2="551.0289" y1="1207.6977" y2="1207.6977"/><text fill="#000000" font-family="sans-serif" font-size="14" lengthAdjust="spacing" textLength="58.3652" x="466.65" y="1224.8295">lpVersion</text><text fill="#000000" font-family="sans-serif" font-size="14" lengthAdjust="spacing" textLength="18.6621" x="466.65" y="1240.9281">srs</text><text fill="#000000" font-family="sans-serif" font-size="14" lengthAdjust="spacing" textLength="79.3789" x="466.65" y="1257.0268">locationType</text><text fill="#000000" font-family="sans-serif" font-size="14" lengthAdjust="spacing" textLength="48.2549" x="466.65" y="1273.1254">location</text><text fill="#000000" font-family="sans-serif" font-size="14" lengthAdjust="spacing" textLength="42.8066" x="466.65" y="1289.224">name?</text><text fill="#000000" font-family="sans-serif" font-size="14" lengthAdjust="spacing" textLength="75.4893" x="466.65" y="1305.3227">description?</text><text fill="#000000" font-family="sans-serif" font-size="14" lengthAdjust="spacing" textLength="59.9238" x="466.65" y="1321.4213">createdAt</text></g><!--class badgeDefinition--><g class="entity" data-entity="badgeDefinition" data-source-line="140" data-uid="ent0009" id="entity_badgeDefinition"><rect fill="#F1F1F1" height="136.5918" rx="2.5" ry="2.5" style="stroke:#181818;stroke-width:0.5;" width="129.2959" x="1235.69" y="655.3077"/><ellipse cx="1250.69" cy="671.3077" fill="#7E57C2" rx="11" ry="11" style="stroke:#181818;stroke-width:1;"/><path d="M1247.8775,677.3077 L1251.0963,677.3077 C1254.1744,677.3077 1256.2838,675.5264 1256.2838,671.7139 C1256.2838,667.9014 1254.1744,666.2295 1250.94,666.2295 L1247.8775,666.2295 L1247.8775,677.3077 Z M1250.3931,675.292 L1250.3931,668.2452 L1250.7994,668.2452 C1252.5338,668.2452 1253.7056,669.0577 1253.7056,671.7139 C1253.7056,674.3702 1252.5338,675.292 1250.7994,675.292 L1250.3931,675.292 Z " fill="#000000"/><text fill="#000000" font-family="sans-serif" font-size="14" lengthAdjust="spacing" textLength="97.2959" x="1264.69" y="676.3902">badgeDefinition</text><line style="stroke:#181818;stroke-width:0.5;" x1="1236.69" x2="1363.9859" y1="687.3077" y2="687.3077"/><text fill="#000000" font-family="sans-serif" font-size="14" lengthAdjust="spacing" textLength="70.0547" x="1241.69" y="704.4395">badgeType</text><text fill="#000000" font-family="sans-serif" font-size="14" lengthAdjust="spacing" textLength="21.7861" x="1241.69" y="720.5381">title</text><text fill="#000000" font-family="sans-serif" font-size="14" lengthAdjust="spacing" textLength="25.6826" x="1241.69" y="736.6368">icon</text><text fill="#000000" font-family="sans-serif" font-size="14" lengthAdjust="spacing" textLength="75.4893" x="1241.69" y="752.7354">description?</text><text fill="#000000" font-family="sans-serif" font-size="14" lengthAdjust="spacing" textLength="108.165" x="1241.69" y="768.834">allowedIssuers[]?</text><text fill="#000000" font-family="sans-serif" font-size="14" lengthAdjust="spacing" textLength="59.9238" x="1241.69" y="784.9327">createdAt</text></g><!--class badgeAward--><g class="entity" data-entity="badgeAward" data-source-line="151" data-uid="ent0010" id="entity_badgeAward"><rect fill="#F1F1F1" height="104.3945" rx="2.5" ry="2.5" style="stroke:#181818;stroke-width:0.5;" width="110.6133" x="1245.34" y="381.5977"/><ellipse cx="1260.34" cy="397.5977" fill="#7E57C2" rx="11" ry="11" style="stroke:#181818;stroke-width:1;"/><path d="M1257.5275,403.5977 L1260.7463,403.5977 C1263.8244,403.5977 1265.9338,401.8164 1265.9338,398.0039 C1265.9338,394.1914 1263.8244,392.5195 1260.59,392.5195 L1257.5275,392.5195 L1257.5275,403.5977 Z M1260.0431,401.582 L1260.0431,394.5352 L1260.4494,394.5352 C1262.1838,394.5352 1263.3556,395.3477 1263.3556,398.0039 C1263.3556,400.6602 1262.1838,401.582 1260.4494,401.582 L1260.0431,401.582 Z " fill="#000000"/><text fill="#000000" font-family="sans-serif" font-size="14" lengthAdjust="spacing" textLength="78.6133" x="1274.34" y="402.6802">badgeAward</text><line style="stroke:#181818;stroke-width:0.5;" x1="1246.34" x2="1354.9533" y1="413.5977" y2="413.5977"/><text fill="#000000" font-family="sans-serif" font-size="14" lengthAdjust="spacing" textLength="38.9307" x="1251.34" y="430.7295">badge</text><text fill="#000000" font-family="sans-serif" font-size="14" lengthAdjust="spacing" textLength="44.3584" x="1251.34" y="446.8281">subject</text><text fill="#000000" font-family="sans-serif" font-size="14" lengthAdjust="spacing" textLength="35.0342" x="1251.34" y="462.9268">note?</text><text fill="#000000" font-family="sans-serif" font-size="14" lengthAdjust="spacing" textLength="59.9238" x="1251.34" y="479.0254">createdAt</text></g><!--class badgeResponse--><g class="entity" data-entity="badgeResponse" data-source-line="160" data-uid="ent0011" id="entity_badgeResponse"><rect fill="#F1F1F1" height="104.3945" rx="2.5" ry="2.5" style="stroke:#181818;stroke-width:0.5;" width="133.9717" x="1233.84" y="112.0977"/><ellipse cx="1248.84" cy="128.0977" fill="#7E57C2" rx="11" ry="11" style="stroke:#181818;stroke-width:1;"/><path d="M1246.0275,134.0977 L1249.2463,134.0977 C1252.3244,134.0977 1254.4338,132.3164 1254.4338,128.5039 C1254.4338,124.6914 1252.3244,123.0195 1249.09,123.0195 L1246.0275,123.0195 L1246.0275,134.0977 Z M1248.5431,132.082 L1248.5431,125.0352 L1248.9494,125.0352 C1250.6838,125.0352 1251.8556,125.8477 1251.8556,128.5039 C1251.8556,131.1602 1250.6838,132.082 1248.9494,132.082 L1248.5431,132.082 Z " fill="#000000"/><text fill="#000000" font-family="sans-serif" font-size="14" lengthAdjust="spacing" textLength="101.9717" x="1262.84" y="133.1802">badgeResponse</text><line style="stroke:#181818;stroke-width:0.5;" x1="1234.84" x2="1366.8117" y1="144.0977" y2="144.0977"/><text fill="#000000" font-family="sans-serif" font-size="14" lengthAdjust="spacing" textLength="78.6133" x="1239.84" y="161.2295">badgeAward</text><text fill="#000000" font-family="sans-serif" font-size="14" lengthAdjust="spacing" textLength="57.5928" x="1239.84" y="177.3281">response</text><text fill="#000000" font-family="sans-serif" font-size="14" lengthAdjust="spacing" textLength="48.2549" x="1239.84" y="193.4268">weight?</text><text fill="#000000" font-family="sans-serif" font-size="14" lengthAdjust="spacing" textLength="59.9238" x="1239.84" y="209.5254">createdAt</text></g><!--class rights--><g class="entity" data-entity="rights" data-source-line="170" data-uid="ent0012" id="entity_rights"><rect fill="#F1F1F1" height="120.4932" rx="2.5" ry="2.5" style="stroke:#181818;stroke-width:0.5;" width="116.2617" x="911.21" y="966.4477"/><ellipse cx="948.7223" cy="982.4477" fill="#7E57C2" rx="11" ry="11" style="stroke:#181818;stroke-width:1;"/><path d="M945.9098,988.4477 L949.1286,988.4477 C952.2067,988.4477 954.3161,986.6664 954.3161,982.8539 C954.3161,979.0414 952.2067,977.3695 948.9723,977.3695 L945.9098,977.3695 L945.9098,988.4477 Z M948.4254,986.432 L948.4254,979.3852 L948.8317,979.3852 C950.5661,979.3852 951.7379,980.1977 951.7379,982.8539 C951.7379,985.5102 950.5661,986.432 948.8317,986.432 L948.4254,986.432 Z " fill="#000000"/><text fill="#000000" font-family="sans-serif" font-size="14" lengthAdjust="spacing" textLength="34.2344" x="967.725" y="987.5302">rights</text><line style="stroke:#181818;stroke-width:0.5;" x1="912.21" x2="1026.4717" y1="998.4477" y2="998.4477"/><text fill="#000000" font-family="sans-serif" font-size="14" lengthAdjust="spacing" textLength="71.5791" x="917.21" y="1015.5795">rightsName</text><text fill="#000000" font-family="sans-serif" font-size="14" lengthAdjust="spacing" textLength="65.3584" x="917.21" y="1031.6781">rightsType</text><text fill="#000000" font-family="sans-serif" font-size="14" lengthAdjust="spacing" textLength="104.2617" x="917.21" y="1047.7768">rightsDescription</text><text fill="#000000" font-family="sans-serif" font-size="14" lengthAdjust="spacing" textLength="77.0479" x="917.21" y="1063.8754">attachment?</text><text fill="#000000" font-family="sans-serif" font-size="14" lengthAdjust="spacing" textLength="59.9238" x="917.21" y="1079.974">createdAt</text></g><!--class collection--><g class="entity" data-entity="collection" data-source-line="181" data-uid="ent0013" id="entity_collection"><rect fill="#F1F1F1" height="136.5918" rx="2.5" ry="2.5" style="stroke:#181818;stroke-width:0.5;" width="120.9375" x="752.34" y="365.5977"/><ellipse cx="781.0975" cy="381.5977" fill="#7E57C2" rx="11" ry="11" style="stroke:#181818;stroke-width:1;"/><path d="M778.285,387.5977 L781.5038,387.5977 C784.5819,387.5977 786.6913,385.8164 786.6913,382.0039 C786.6913,378.1914 784.5819,376.5195 781.3475,376.5195 L778.285,376.5195 L778.285,387.5977 Z M780.8006,385.582 L780.8006,378.5352 L781.2069,378.5352 C782.9413,378.5352 784.1131,379.3477 784.1131,382.0039 C784.1131,384.6602 782.9413,385.582 781.2069,385.582 L780.8006,385.582 Z " fill="#000000"/><text fill="#000000" font-family="sans-serif" font-size="14" lengthAdjust="spacing" textLength="58.3652" x="798.1547" y="386.6802">collection</text><line style="stroke:#181818;stroke-width:0.5;" x1="753.34" x2="872.2775" y1="397.5977" y2="397.5977"/><text fill="#000000" font-family="sans-serif" font-size="14" lengthAdjust="spacing" textLength="21.7861" x="758.34" y="414.7295">title</text><text fill="#000000" font-family="sans-serif" font-size="14" lengthAdjust="spacing" textLength="108.9375" x="758.34" y="430.8281">shortDescription?</text><text fill="#000000" font-family="sans-serif" font-size="14" lengthAdjust="spacing" textLength="46.6963" x="758.34" y="446.9268">avatar?</text><text fill="#000000" font-family="sans-serif" font-size="14" lengthAdjust="spacing" textLength="78.6064" x="758.34" y="463.0254">coverPhoto?</text><text fill="#000000" font-family="sans-serif" font-size="14" lengthAdjust="spacing" textLength="61.4619" x="758.34" y="479.124">activities[]</text><text fill="#000000" font-family="sans-serif" font-size="14" lengthAdjust="spacing" textLength="59.9238" x="758.34" y="495.2227">createdAt</text></g><!--class project--><g class="entity" data-entity="project" data-source-line="193" data-uid="ent0014" id="entity_project"><rect fill="#F1F1F1" height="168.7891" rx="2.5" ry="2.5" style="stroke:#181818;stroke-width:0.5;" width="113.1514" x="567.84" y="942.6977"/><ellipse cx="600.4489" cy="958.6977" fill="#7E57C2" rx="11" ry="11" style="stroke:#181818;stroke-width:1;"/><path d="M597.6364,964.6977 L600.8551,964.6977 C603.9333,964.6977 606.0426,962.9164 606.0426,959.1039 C606.0426,955.2914 603.9333,953.6195 600.6989,953.6195 L597.6364,953.6195 L597.6364,964.6977 Z M600.152,962.682 L600.152,955.6352 L600.5583,955.6352 C602.2926,955.6352 603.4645,956.4477 603.4645,959.1039 C603.4645,961.7602 602.2926,962.682 600.5583,962.682 L600.152,962.682 Z " fill="#000000"/><text fill="#000000" font-family="sans-serif" font-size="14" lengthAdjust="spacing" textLength="42.0205" x="618.362" y="963.7802">project</text><line style="stroke:#181818;stroke-width:0.5;" x1="568.84" x2="679.9914" y1="974.6977" y2="974.6977"/><text fill="#000000" font-family="sans-serif" font-size="14" lengthAdjust="spacing" textLength="21.7861" x="573.84" y="991.8295">title</text><text fill="#000000" font-family="sans-serif" font-size="14" lengthAdjust="spacing" textLength="101.1514" x="573.84" y="1007.9281">shortDescription</text><text fill="#000000" font-family="sans-serif" font-size="14" lengthAdjust="spacing" textLength="75.4893" x="573.84" y="1024.0268">description?</text><text fill="#000000" font-family="sans-serif" font-size="14" lengthAdjust="spacing" textLength="46.6963" x="573.84" y="1040.1254">avatar?</text><text fill="#000000" font-family="sans-serif" font-size="14" lengthAdjust="spacing" textLength="78.6064" x="573.84" y="1056.224">coverPhoto?</text><text fill="#000000" font-family="sans-serif" font-size="14" lengthAdjust="spacing" textLength="69.248" x="573.84" y="1072.3227">activities[]?</text><text fill="#000000" font-family="sans-serif" font-size="14" lengthAdjust="spacing" textLength="56.041" x="573.84" y="1088.4213">location?</text><text fill="#000000" font-family="sans-serif" font-size="14" lengthAdjust="spacing" textLength="59.9238" x="573.84" y="1104.5199">createdAt</text></g><!--class funder--><g class="entity" data-entity="funder" data-source-line="210" data-uid="ent0015" id="entity_funder"><rect fill="#FFD4A3" height="56.0986" rx="2.5" ry="2.5" style="stroke:#181818;stroke-width:0.5;" width="167.627" x="541.53" y="405.5477"/><ellipse cx="601.2453" cy="421.5477" fill="#ADD1B2" rx="11" ry="11" style="stroke:#181818;stroke-width:1;"/><path d="M597.3078,427.5477 L604.8235,427.5477 L604.8235,425.4383 L599.8235,425.4383 L599.8235,422.8914 L603.9172,422.8914 L603.9172,420.7977 L599.8235,420.7977 L599.8235,418.5789 L604.6516,418.5789 L604.6516,416.4695 L597.3078,416.4695 L597.3078,427.5477 Z " fill="#000000"/><text fill="#000000" font-family="sans-serif" font-size="14" lengthAdjust="spacing" textLength="39.6963" x="621.7453" y="426.6302">funder</text><line style="stroke:#181818;stroke-width:0.5;" x1="542.53" x2="708.157" y1="437.5477" y2="437.5477"/><text fill="#000000" font-family="sans-serif" font-size="14" lengthAdjust="spacing" textLength="155.627" x="547.53" y="454.6795">DID or name/pseudonym</text></g><!--class fundingReceipt--><g class="entity" data-entity="fundingReceipt" data-source-line="217" data-uid="ent0016" id="entity_fundingReceipt"><rect fill="#F1F1F1" height="217.085" rx="2.5" ry="2.5" style="stroke:#181818;stroke-width:0.5;" width="125.3994" x="887.84" y="55.5977"/><ellipse cx="902.84" cy="71.5977" fill="#7E57C2" rx="11" ry="11" style="stroke:#181818;stroke-width:1;"/><path d="M900.0275,77.5977 L903.2462,77.5977 C906.3244,77.5977 908.4337,75.8164 908.4337,72.0039 C908.4337,68.1914 906.3244,66.5195 903.09,66.5195 L900.0275,66.5195 L900.0275,77.5977 Z M902.5431,75.582 L902.5431,68.5352 L902.9494,68.5352 C904.6837,68.5352 905.8556,69.3477 905.8556,72.0039 C905.8556,74.6602 904.6837,75.582 902.9494,75.582 L902.5431,75.582 Z " fill="#000000"/><text fill="#000000" font-family="sans-serif" font-size="14" lengthAdjust="spacing" textLength="93.3994" x="916.84" y="76.6802">fundingReceipt</text><line style="stroke:#181818;stroke-width:0.5;" x1="888.84" x2="1012.2394" y1="87.5977" y2="87.5977"/><text fill="#000000" font-family="sans-serif" font-size="14" lengthAdjust="spacing" textLength="11.6758" x="893.84" y="104.7295">to</text><text fill="#000000" font-family="sans-serif" font-size="14" lengthAdjust="spacing" textLength="28" x="893.84" y="120.8281">from</text><text fill="#000000" font-family="sans-serif" font-size="14" lengthAdjust="spacing" textLength="24.124" x="893.84" y="136.9268">for?</text><text fill="#000000" font-family="sans-serif" font-size="14" lengthAdjust="spacing" textLength="46.6963" x="893.84" y="153.0254">amount</text><text fill="#000000" font-family="sans-serif" font-size="14" lengthAdjust="spacing" textLength="53.6826" x="893.84" y="169.124">currency</text><text fill="#000000" font-family="sans-serif" font-size="14" lengthAdjust="spacing" textLength="85.5996" x="893.84" y="185.2227">paymentRail?</text><text fill="#000000" font-family="sans-serif" font-size="14" lengthAdjust="spacing" textLength="112.8271" x="893.84" y="201.3213">paymentNetwork?</text><text fill="#000000" font-family="sans-serif" font-size="14" lengthAdjust="spacing" textLength="87.9443" x="893.84" y="217.4199">transactionId?</text><text fill="#000000" font-family="sans-serif" font-size="14" lengthAdjust="spacing" textLength="42.0342" x="893.84" y="233.5186">notes?</text><text fill="#000000" font-family="sans-serif" font-size="14" lengthAdjust="spacing" textLength="75.4824" x="893.84" y="249.6172">occurredAt?</text><text fill="#000000" font-family="sans-serif" font-size="14" lengthAdjust="spacing" textLength="59.9238" x="893.84" y="265.7158">createdAt</text></g><!--class token--><g class="entity" data-entity="token" data-source-line="238" data-uid="ent0017" id="entity_token"><rect fill="#FFB6C1" height="65.0967" rx="2.5" ry="2.5" style="stroke:#181818;stroke-width:0.5;" width="104.5996" x="378.04" y="691.0477"/><ellipse cx="401.7069" cy="707.5467" fill="#F1F1F1" rx="11" ry="11" style="stroke:#181818;stroke-width:1;"/><path d="M398.4881,713.5467 L400.9881,713.5467 L400.9881,709.7967 L402.41,709.7967 C404.7538,709.7967 406.7381,708.6404 406.7381,706.0311 C406.7381,703.3436 404.8006,702.4686 402.41,702.4686 L398.4881,702.4686 L398.4881,713.5467 Z M400.9881,707.7967 L400.9881,704.4529 L402.2538,704.4529 C403.5819,704.4529 404.3006,704.8748 404.3006,706.0311 C404.3006,707.1873 403.6288,707.7967 402.2538,707.7967 L400.9881,707.7967 Z " fill="#000000"/><text fill="#000000" font-family="sans-serif" font-size="20" font-weight="bold" lengthAdjust="spacing" textLength="53.3398" x="417.6329" y="714.8074">token</text><line style="stroke:#181818;stroke-width:0.5;" x1="379.04" x2="481.6396" y1="724.0457" y2="724.0457"/><line style="stroke:#181818;stroke-width:0.5;" x1="379.04" x2="481.6396" y1="732.0457" y2="732.0457"/><text fill="#000000" font-family="sans-serif" font-size="14" lengthAdjust="spacing" textLength="92.5996" x="384.04" y="749.1775">(on-chain only)</text></g><!--class hiddenLocation1--><g class="entity" data-entity="hiddenLocation1" data-source-line="273" data-uid="ent0023" id="entity_hiddenLocation1"><rect fill="none" height="34.0986" rx="2.5" ry="2.5" style="stroke:none;stroke-width:0.5;" width="12" x="494.34" y="416.5477"/><text fill="#000000" font-family="sans-serif" font-size="14" lengthAdjust="spacing" textLength="3.8896" x="498.3952" y="434.6795">&#160;</text><line style="stroke:none;stroke-width:0.5;" x1="495.34" x2="505.34" y1="442.6463" y2="442.6463"/></g><!--class hiddenLocation2--><g class="entity" data-entity="hiddenLocation2" data-source-line="290" data-uid="ent0028" id="entity_hiddenLocation2"><rect fill="none" height="34.0986" rx="2.5" ry="2.5" style="stroke:none;stroke-width:0.5;" width="12" x="178.34" y="874.5977"/><text fill="#000000" font-family="sans-serif" font-size="14" lengthAdjust="spacing" textLength="3.8896" x="182.3952" y="892.7295">&#160;</text><line style="stroke:none;stroke-width:0.5;" x1="179.34" x2="189.34" y1="900.6963" y2="900.6963"/></g><!--link token to activity--><g class="link" data-entity-1="token" data-entity-2="activity" data-source-line="313" data-uid="lnk40" id="link_token_activity"><path codeLine="313" d="M483.11,723.5977 C507.14,723.5977 529.79,723.5977 555.06,723.5977" fill="none" id="token-to-activity" style="stroke:#666666;stroke-width:1;stroke-dasharray:7,7;"/><polygon fill="#666666" points="561.06,723.5977,552.06,719.5977,556.06,723.5977,552.06,727.5977,561.06,723.5977" style="stroke:#666666;stroke-width:1;"/><text fill="#666666" font-family="sans-serif" font-size="10" lengthAdjust="spacing" textLength="42.2461" x="500.74" y="717.9775">tokenizes</text></g><!--link evaluation to evidence--><g class="link" data-entity-1="evaluation" data-entity-2="evidence" data-source-line="260" data-uid="lnk20" id="link_evaluation_evidence"><path codeLine="260" d="M335.34,124.0977 C382.02,124.0977 391.2224,256.548 392.2524,347.958" fill="none" id="evaluation-to-evidence" style="stroke:#666666;stroke-width:1;"/><polygon fill="#666666" points="392.32,353.9577,396.2183,344.9132,392.2637,348.958,388.2188,345.0033,392.32,353.9577" style="stroke:#666666;stroke-width:1;"/></g><!--link evaluation to measurement--><g class="link" data-entity-1="evaluation" data-entity-2="measurement" data-source-line="261" data-uid="lnk21" id="link_evaluation_measurement"><path codeLine="261" d="M213.34,188.0977 C150.8,188.0977 161.0564,263.262 182.5864,331.992" fill="none" id="evaluation-to-measurement" style="stroke:#666666;stroke-width:1;"/><polygon fill="#666666" points="184.38,337.7177,185.5067,327.9335,182.8853,332.9463,177.8725,330.3249,184.38,337.7177" style="stroke:#666666;stroke-width:1;"/></g><!--link evaluation to activity--><g class="link" data-entity-1="evaluation" data-entity-2="activity" data-source-line="262" data-uid="lnk22" id="link_evaluation_activity"><path codeLine="262" d="M213.34,124.0977 C29.98,124.0977 22.49,386.6677 137.34,529.5977 C240.42,657.8777 353.68,527.9477 500.34,602.5977 C522.32,613.7877 538.6893,626.0065 556.7093,643.0365" fill="none" id="evaluation-to-activity" style="stroke:#666666;stroke-width:1;"/><polygon fill="#666666" points="561.07,647.1577,557.2763,638.0688,557.4361,643.7234,551.7815,643.8831,561.07,647.1577" style="stroke:#666666;stroke-width:1;"/></g><!--link evaluation to hiddenLocation1--><g class="link" data-entity-1="evaluation" data-entity-2="hiddenLocation1" data-source-line="275" data-uid="lnk24" id="link_evaluation_hiddenLocation1"><path codeLine="275" d="M335.34,220.0977 C416.91,220.0977 432.89,268.5577 476.34,337.5977 C491.84,362.2177 496.756,390.3661 498.706,410.3061" fill="none" id="evaluation-to-hiddenLocation1" style="stroke:#666666;stroke-width:1;"/><polygon fill="#666666" points="499.29,416.2777,502.395,406.9311,498.8034,411.3014,494.433,407.7097,499.29,416.2777" style="stroke:#666666;stroke-width:1;"/></g><!--link hiddenLocation1 to activity--><!--link evidence to activity--><g class="link" data-entity-1="evidence" data-entity-2="activity" data-source-line="284" data-uid="lnk26" id="link_evidence_activity"><path codeLine="284" d="M452.34,401.5977 C481.28,401.5977 464.5,503.1877 476.34,529.5977 C497.03,575.7577 526.9489,616.3362 557.1589,651.3262" fill="none" id="evidence-to-activity" style="stroke:#666666;stroke-width:1;"/><polygon fill="#666666" points="561.08,655.8677,558.226,646.4414,557.8124,652.0831,552.1707,651.6695,561.08,655.8677" style="stroke:#666666;stroke-width:1;"/></g><!--link measurement to activity--><g class="link" data-entity-1="measurement" data-entity-2="activity" data-source-line="286" data-uid="lnk27" id="link_measurement_activity"><path codeLine="286" d="M280.84,385.5977 C313.3,385.5977 284.67,504.5777 305.34,529.5977 C364.29,600.9377 422.01,553.3177 500.34,602.5977 C521.73,616.0577 538.2037,629.4508 556.5137,646.9608" fill="none" id="measurement-to-activity" style="stroke:#666666;stroke-width:1;"/><polygon fill="#666666" points="560.85,651.1077,557.1101,641.9965,557.2364,647.6519,551.581,647.7783,560.85,651.1077" style="stroke:#666666;stroke-width:1;"/></g><!--link measurement to hiddenLocation2--><g class="link" data-entity-1="measurement" data-entity-2="hiddenLocation2" data-source-line="292" data-uid="lnk29" id="link_measurement_hiddenLocation2"><path codeLine="292" d="M161.84,497.5977 C6,497.5977 143.0253,803.9481 175.4253,872.1481" fill="none" id="measurement-to-hiddenLocation2" style="stroke:#666666;stroke-width:1;"/><polygon fill="#666666" points="178,877.5677,177.751,867.7219,175.8544,873.0514,170.525,871.1548,178,877.5677" style="stroke:#666666;stroke-width:1;"/></g><!--link hiddenLocation2 to location--><!--link collection to activity--><g class="link" data-entity-1="collection" data-entity-2="activity" data-source-line="299" data-uid="lnk31" id="link_collection_activity"><path codeLine="299" d="M873.34,473.5977 C928.79,473.5977 785.1788,595.3514 694.4988,668.1514" fill="none" id="collection-to-activity" style="stroke:#666666;stroke-width:1;"/><polygon fill="#666666" points="689.82,671.9077,699.3423,669.3925,693.719,668.7775,694.334,663.1542,689.82,671.9077" style="stroke:#666666;stroke-width:1;"/></g><!--link activity to project--><g class="link" data-entity-1="activity" data-entity-2="project" data-source-line="307" data-uid="lnk38" id="link_activity_project"><path codeLine="307" d="M567.84,811.5977 C512.39,811.5977 534.4971,874.3102 566.8671,933.6602" fill="none" id="activity-to-project" style="stroke:#666666;stroke-width:1;"/><polygon fill="#666666" points="569.74,938.9277,568.9423,929.1112,567.3459,934.5381,561.919,932.9417,569.74,938.9277" style="stroke:#666666;stroke-width:1;"/></g><!--link project to location--><g class="link" data-entity-1="project" data-entity-2="location" data-source-line="302" data-uid="lnk33" id="link_project_location"><path codeLine="302" d="M566.84,1082.6977 C556.24,1082.6977 541.4381,1124.8 528.3381,1169.48" fill="none" id="project-to-location" style="stroke:#666666;stroke-width:1;"/><polygon fill="#666666" points="526.65,1175.2377,533.0206,1167.7266,528.0568,1170.4396,525.3438,1165.4758,526.65,1175.2377" style="stroke:#666666;stroke-width:1;"/></g><!--link activity to rights--><g class="link" data-entity-1="activity" data-entity-2="rights" data-source-line="305" data-uid="lnk36" id="link_activity_rights"><path codeLine="305" d="M682.84,795.5977 C791.77,795.5977 879.3679,893.0814 927.9479,961.2514" fill="none" id="activity-to-rights" style="stroke:#666666;stroke-width:1;"/><polygon fill="#666666" points="931.43,966.1377,929.4644,956.4869,928.5283,962.0658,922.9494,961.1297,931.43,966.1377" style="stroke:#666666;stroke-width:1;"/></g><!--link activity to location--><g class="link" data-entity-1="activity" data-entity-2="location" data-source-line="306" data-uid="lnk37" id="link_activity_location"><path codeLine="306" d="M567.84,779.5977 C489.01,779.5977 493.2474,1036.0369 500.6474,1169.3069" fill="none" id="activity-to-location" style="stroke:#666666;stroke-width:1;"/><polygon fill="#666666" points="500.98,1175.2977,504.4749,1166.0897,500.7028,1170.3053,496.4872,1166.5333,500.98,1175.2977" style="stroke:#666666;stroke-width:1;"/></g><!--link contribution to contributor--><g class="link" data-entity-1="contribution" data-entity-2="contributor" data-source-line="309" data-uid="lnk39" id="link_contribution_contributor"><path codeLine="309" d="M1124.34,425.5977 C1137.82,425.5977 1110.4826,615.7344 1099.4226,689.2544" fill="none" id="contribution-to-contributor" style="stroke:#666666;stroke-width:1;"/><polygon fill="#666666" points="1098.53,695.1877,1103.8243,686.8828,1099.2738,690.2433,1095.9134,685.6928,1098.53,695.1877" style="stroke:#666666;stroke-width:1;"/><text fill="#666666" font-family="sans-serif" font-size="10" lengthAdjust="spacing" textLength="38.3545" x="1117.51" y="569.9775">made by</text></g><!--link funder to activity--><g class="link" data-entity-1="funder" data-entity-2="activity" data-source-line="314" data-uid="lnk41" id="link_funder_activity"><path codeLine="314" d="M625.34,461.9477 C625.34,494.4577 625.34,544.8577 625.34,596.8877" fill="none" id="funder-to-activity" style="stroke:#666666;stroke-width:1;stroke-dasharray:7,7;"/><polygon fill="#666666" points="625.34,602.8877,629.34,593.8877,625.34,597.8877,621.34,593.8877,625.34,602.8877" style="stroke:#666666;stroke-width:1;"/><text fill="#666666" font-family="sans-serif" font-size="10" lengthAdjust="spacing" textLength="24.4629" x="626.34" y="569.9775">funds</text></g><!--link contributor to rights--><g class="link" data-entity-1="contributor" data-entity-2="rights" data-source-line="315" data-uid="lnk42" id="link_contributor_rights"><path codeLine="315" d="M1082.92,752.1177 C1062.88,800.3877 1023.2708,895.7963 996.3408,960.6563" fill="none" id="contributor-to-rights" style="stroke:#666666;stroke-width:1;stroke-dasharray:7,7;"/><polygon fill="#666666" points="994.04,966.1977,1001.1854,959.4195,995.9573,961.5799,993.7969,956.3518,994.04,966.1977" style="stroke:#666666;stroke-width:1;"/><text fill="#666666" font-family="sans-serif" font-size="10" lengthAdjust="spacing" textLength="16.123" x="1032.84" y="895.5275">has</text></g><!--link fundingReceipt to funder--><g class="link" data-entity-1="fundingReceipt" data-entity-2="funder" data-source-line="321" data-uid="lnk43" id="link_fundingReceipt_funder"><path codeLine="321" d="M886.84,115.5977 C737.2,115.5977 659.0084,322.6804 634.9984,399.5704" fill="none" id="fundingReceipt-to-funder" style="stroke:#666666;stroke-width:1;"/><polygon fill="#666666" points="633.21,405.2977,639.7108,397.899,634.7003,400.5249,632.0745,395.5145,633.21,405.2977" style="stroke:#666666;stroke-width:1;"/></g><!--link fundingReceipt to contributor--><g class="link" data-entity-1="fundingReceipt" data-entity-2="contributor" data-source-line="322" data-uid="lnk44" id="link_fundingReceipt_contributor"><path codeLine="322" d="M1013.84,99.5977 C1234.18,99.5977 1208.88,357.2277 1162.34,572.5977 C1152.56,617.8777 1130.9205,660.716 1114.1505,689.886" fill="none" id="fundingReceipt-to-contributor" style="stroke:#666666;stroke-width:1;"/><polygon fill="#666666" points="1111.16,695.0877,1119.1135,689.2788,1113.652,690.7529,1112.1779,685.2915,1111.16,695.0877" style="stroke:#666666;stroke-width:1;"/></g><!--link fundingReceipt to activity--><g class="link" data-entity-1="fundingReceipt" data-entity-2="activity" data-source-line="324" data-uid="lnk45" id="link_fundingReceipt_activity"><path codeLine="324" d="M1013.84,131.5977 C1078.29,131.5977 1033.03,215.3977 1012.84,276.5977 C1002.33,308.4677 984.13,307.9877 968.34,337.5977 C925.6,417.7377 952.06,456.3577 898.34,529.5977 C843.76,604.0177 756.9982,657.689 695.0382,689.769" fill="none" id="fundingReceipt-to-activity" style="stroke:#666666;stroke-width:1;"/><polygon fill="#666666" points="689.71,692.5277,699.5414,691.9418,694.1502,690.2287,695.8632,684.8375,689.71,692.5277" style="stroke:#666666;stroke-width:1;"/><text fill="#666666" font-family="sans-serif" font-size="10" lengthAdjust="spacing" textLength="24.4629" x="969.34" y="437.4775">funds</text></g><!--link badgeAward to badgeDefinition--><g class="link" data-entity-1="badgeAward" data-entity-2="badgeDefinition" data-source-line="326" data-uid="lnk46" id="link_badgeAward_badgeDefinition"><path codeLine="326" d="M1356.34,425.5977 C1449.08,425.5977 1389.9187,561.8971 1342.6287,649.5571" fill="none" id="badgeAward-to-badgeDefinition" style="stroke:#666666;stroke-width:1;"/><polygon fill="#666666" points="1339.78,654.8377,1347.5735,648.8159,1342.1539,650.4372,1340.5327,645.0176,1339.78,654.8377" style="stroke:#666666;stroke-width:1;"/></g><!--link badgeResponse to badgeAward--><g class="link" data-entity-1="badgeResponse" data-entity-2="badgeAward" data-source-line="327" data-uid="lnk47" id="link_badgeResponse_badgeAward"><path codeLine="327" d="M1367.84,156.0977 C1458.14,156.0977 1388.2444,291.8853 1339.0644,372.5153" fill="none" id="badgeResponse-to-badgeAward" style="stroke:#666666;stroke-width:1;"/><polygon fill="#666666" points="1335.94,377.6377,1344.0414,372.037,1338.5436,373.369,1337.2116,367.8712,1335.94,377.6377" style="stroke:#666666;stroke-width:1;"/></g><!--link badgeAward to contributor--><g class="link" data-entity-1="badgeAward" data-entity-2="contributor" data-source-line="328" data-uid="lnk48" id="link_badgeAward_contributor"><path codeLine="328" d="M1244.34,441.5977 C1184.19,441.5977 1236.83,518.5977 1210.34,572.5977 C1187.14,619.8877 1151.7103,662.2586 1125.3403,690.6886" fill="none" id="badgeAward-to-contributor" style="stroke:#666666;stroke-width:1;"/><polygon fill="#666666" points="1121.26,695.0877,1130.3131,691.2093,1124.6602,691.4218,1124.4477,685.7689,1121.26,695.0877" style="stroke:#666666;stroke-width:1;"/></g><!--link badgeAward to activity--><g class="link" data-entity-1="badgeAward" data-entity-2="activity" data-source-line="329" data-uid="lnk49" id="link_badgeAward_activity"><path codeLine="329" d="M1244.34,441.5977 C1163.25,441.5977 1187.75,532.3677 1117.34,572.5977 C1068.11,600.7277 1047.89,587.1277 993.34,602.5977 C885.86,633.0777 768.4487,672.6116 695.3587,697.9616" fill="none" id="badgeAward-to-activity" style="stroke:#666666;stroke-width:1;"/><polygon fill="#666666" points="689.69,699.9277,699.5038,700.7577,694.4139,698.2892,696.8824,693.1994,689.69,699.9277" style="stroke:#666666;stroke-width:1;"/></g><!--SRC=[Kqn9JSlCIrK8zl0FZtVpTFLn2LOeAIfDvU9IpCnBpYbDILLm3NBHAoZDpU420000]--></g></svg>