<svg xmlns="http://www.w3.org/2000/svg" xmlns:xlink="http://www.w3.org/1999/xlink" contentStyleType="text/css" data-diagram-type="CLASS" height="994px" preserveAspectRatio="none" style="width:819px;height:994px;background:#FFFFFF;" version="1.1" viewBox="0 0 819 994" width="819px" zoomAndPan="magnify"><title>Hypercert ERD</title><defs/><g><g class="title" data-source-line="1"><text fill="#000000" font-family="sans-serif" font-size="24" font-weight="bold" lengthAdjust="spacing" textLength="157.0547" x="324.2877" y="32.2656">Hypercert ERD</text></g><!--class contributor--><g class="entity" data-entity="contributor" data-source-line="39" data-uid="ent0002" id="entity_contributor"><rect fill="#FFD4A3" height="56.4063" rx="2.5" ry="2.5" style="stroke:#181818;stroke-width:0.5;" width="167.4219" x="101.95" y="617.415"/><ellipse cx="147.0809" cy="633.415" fill="#ADD1B2" rx="11" ry="11" style="stroke:#181818;stroke-width:1;"/><path d="M143.1434,639.415 L150.659,639.415 L150.659,637.3056 L145.659,637.3056 L145.659,634.7588 L149.7527,634.7588 L149.7527,632.665 L145.659,632.665 L145.659,630.4463 L150.4871,630.4463 L150.4871,628.3369 L143.1434,628.3369 L143.1434,639.415 Z " fill="#000000"/><text fill="#000000" font-family="sans-serif" font-size="14" lengthAdjust="spacing" textLength="68.6602" x="167.5809" y="638.2002">contributor</text><line style="stroke:#181818;stroke-width:0.5;" x1="102.95" x2="268.3719" y1="649.415" y2="649.415"/><text fill="#000000" font-family="sans-serif" font-size="14" lengthAdjust="spacing" textLength="155.4219" x="107.95" y="666.4033">DID or name/pseudonym</text></g><!--class activity--><g class="entity" data-entity="activity" data-source-line="45" data-uid="ent0003" id="entity_activity"><rect fill="#B4E5D0" height="221.9063" rx="2.5" ry="2.5" style="stroke:#181818;stroke-width:0.5;" width="115.1201" x="318.16" y="535.125"/><ellipse cx="341.1119" cy="551.8438" fill="#7E57C2" rx="11" ry="11" style="stroke:#181818;stroke-width:1;"/><path d="M338.2994,557.8438 L341.5182,557.8438 C344.5963,557.8438 346.7057,556.0625 346.7057,552.25 C346.7057,548.4375 344.5963,546.7656 341.3619,546.7656 L338.2994,546.7656 L338.2994,557.8438 Z M340.815,555.8281 L340.815,548.7813 L341.2213,548.7813 C342.9557,548.7813 344.1275,549.5938 344.1275,552.25 C344.1275,554.9063 342.9557,555.8281 341.2213,555.8281 L340.815,555.8281 Z " fill="#000000"/><text fill="#000000" font-family="sans-serif" font-size="20" font-weight="bold" lengthAdjust="spacing" textLength="65.4492" x="356.879" y="558.6797">activity</text><line style="stroke:#181818;stroke-width:0.5;" x1="319.16" x2="432.2801" y1="568.5625" y2="568.5625"/><text fill="#000000" font-family="sans-serif" font-size="14" lengthAdjust="spacing" textLength="23.3926" x="324.16" y="585.5508">title</text><text fill="#000000" font-family="sans-serif" font-size="14" lengthAdjust="spacing" textLength="103.1201" x="324.16" y="601.957">shortDescription</text><text fill="#000000" font-family="sans-serif" font-size="14" lengthAdjust="spacing" textLength="76.2002" x="324.16" y="618.3633">description?</text><text fill="#000000" font-family="sans-serif" font-size="14" lengthAdjust="spacing" textLength="45.1992" x="324.16" y="634.7695">image?</text><text fill="#000000" font-family="sans-serif" font-size="14" lengthAdjust="spacing" textLength="75.8721" x="324.16" y="651.1758">workScope?</text><text fill="#000000" font-family="sans-serif" font-size="14" lengthAdjust="spacing" textLength="57.5518" x="324.16" y="667.582">startDate</text><text fill="#000000" font-family="sans-serif" font-size="14" lengthAdjust="spacing" textLength="51.8574" x="324.16" y="683.9883">endDate</text><text fill="#000000" font-family="sans-serif" font-size="14" lengthAdjust="spacing" textLength="96.3184" x="324.16" y="700.3945">contributions[]?</text><text fill="#000000" font-family="sans-serif" font-size="14" lengthAdjust="spacing" textLength="42.1436" x="324.16" y="716.8008">rights?</text><text fill="#000000" font-family="sans-serif" font-size="14" lengthAdjust="spacing" textLength="56.6494" x="324.16" y="733.207">location?</text><text fill="#000000" font-family="sans-serif" font-size="14" lengthAdjust="spacing" textLength="60.7236" x="324.16" y="749.6133">createdAt</text></g><!--class evidence--><g class="entity" data-entity="evidence" data-source-line="61" data-uid="ent0004" id="entity_evidence"><rect fill="#F1F1F1" height="138.4375" rx="2.5" ry="2.5" style="stroke:#181818;stroke-width:0.5;" width="121.7373" x="146.16" y="303.625"/><ellipse cx="176.6063" cy="319.625" fill="#7E57C2" rx="11" ry="11" style="stroke:#181818;stroke-width:1;"/><path d="M173.7938,325.625 L177.0126,325.625 C180.0907,325.625 182.2001,323.8438 182.2001,320.0313 C182.2001,316.2188 180.0907,314.5469 176.8563,314.5469 L173.7938,314.5469 L173.7938,325.625 Z M176.3095,323.6094 L176.3095,316.5625 L176.7157,316.5625 C178.4501,316.5625 179.622,317.375 179.622,320.0313 C179.622,322.6875 178.4501,323.6094 176.7157,323.6094 L176.3095,323.6094 Z " fill="#000000"/><text fill="#000000" font-family="sans-serif" font-size="14" lengthAdjust="spacing" textLength="55.4121" x="194.0389" y="324.4102">evidence</text><line style="stroke:#181818;stroke-width:0.5;" x1="147.16" x2="266.8973" y1="335.625" y2="335.625"/><text fill="#000000" font-family="sans-serif" font-size="14" lengthAdjust="spacing" textLength="58.4404" x="152.16" y="352.6133">hypercert</text><text fill="#000000" font-family="sans-serif" font-size="14" lengthAdjust="spacing" textLength="47.3594" x="152.16" y="369.0195">content</text><text fill="#000000" font-family="sans-serif" font-size="14" lengthAdjust="spacing" textLength="23.3926" x="152.16" y="385.4258">title</text><text fill="#000000" font-family="sans-serif" font-size="14" lengthAdjust="spacing" textLength="109.7373" x="152.16" y="401.832">shortDescription?</text><text fill="#000000" font-family="sans-serif" font-size="14" lengthAdjust="spacing" textLength="76.2002" x="152.16" y="418.2383">description?</text><text fill="#000000" font-family="sans-serif" font-size="14" lengthAdjust="spacing" textLength="60.7236" x="152.16" y="434.6445">createdAt</text></g><!--class measurements--><g class="entity" data-entity="measurements" data-source-line="72" data-uid="ent0005" id="entity_measurements"><rect fill="#F1F1F1" height="187.6563" rx="2.5" ry="2.5" style="stroke:#181818;stroke-width:0.5;" width="176.5205" x="490.66" y="279.125"/><ellipse cx="528.5445" cy="295.125" fill="#7E57C2" rx="11" ry="11" style="stroke:#181818;stroke-width:1;"/><path d="M525.732,301.125 L528.9508,301.125 C532.0289,301.125 534.1383,299.3438 534.1383,295.5313 C534.1383,291.7188 532.0289,290.0469 528.7945,290.0469 L525.732,290.0469 L525.732,301.125 Z M528.2476,299.1094 L528.2476,292.0625 L528.6539,292.0625 C530.3883,292.0625 531.5601,292.875 531.5601,295.5313 C531.5601,298.1875 530.3883,299.1094 528.6539,299.1094 L528.2476,299.1094 Z " fill="#000000"/><text fill="#000000" font-family="sans-serif" font-size="14" lengthAdjust="spacing" textLength="93.666" x="547.63" y="299.9102">measurements</text><line style="stroke:#181818;stroke-width:0.5;" x1="491.66" x2="666.1805" y1="311.125" y2="311.125"/><text fill="#000000" font-family="sans-serif" font-size="14" lengthAdjust="spacing" textLength="58.4404" x="496.66" y="328.1133">hypercert</text><text fill="#000000" font-family="sans-serif" font-size="14" lengthAdjust="spacing" textLength="73.8213" x="496.66" y="344.5195">measurers[]</text><text fill="#000000" font-family="sans-serif" font-size="14" lengthAdjust="spacing" textLength="39.7578" x="496.66" y="360.9258">metric</text><text fill="#000000" font-family="sans-serif" font-size="14" lengthAdjust="spacing" textLength="32.9424" x="496.66" y="377.332">value</text><text fill="#000000" font-family="sans-serif" font-size="14" lengthAdjust="spacing" textLength="164.5205" x="496.66" y="393.7383">measurementMethodType</text><text fill="#000000" font-family="sans-serif" font-size="14" lengthAdjust="spacing" textLength="155.7705" x="496.66" y="410.1445">measurementMethodURI</text><text fill="#000000" font-family="sans-serif" font-size="14" lengthAdjust="spacing" textLength="90.9658" x="496.66" y="426.5508">evidenceURI[]?</text><text fill="#000000" font-family="sans-serif" font-size="14" lengthAdjust="spacing" textLength="56.6494" x="496.66" y="442.957">location?</text><text fill="#000000" font-family="sans-serif" font-size="14" lengthAdjust="spacing" textLength="60.7236" x="496.66" y="459.3633">createdAt</text></g><!--class evaluations--><g class="entity" data-entity="evaluations" data-source-line="86" data-uid="ent0006" id="entity_evaluations"><rect fill="#F1F1F1" height="154.8438" rx="2.5" ry="2.5" style="stroke:#181818;stroke-width:0.5;" width="119.707" x="379.16" y="56.125"/><ellipse cx="401.4606" cy="72.125" fill="#7E57C2" rx="11" ry="11" style="stroke:#181818;stroke-width:1;"/><path d="M398.6481,78.125 L401.8669,78.125 C404.945,78.125 407.0544,76.3438 407.0544,72.5313 C407.0544,68.7188 404.945,67.0469 401.7106,67.0469 L398.6481,67.0469 L398.6481,78.125 Z M401.1638,76.1094 L401.1638,69.0625 L401.57,69.0625 C403.3044,69.0625 404.4763,69.875 404.4763,72.5313 C404.4763,75.1875 403.3044,76.1094 401.57,76.1094 L401.1638,76.1094 Z " fill="#000000"/><text fill="#000000" font-family="sans-serif" font-size="14" lengthAdjust="spacing" textLength="71.4834" x="417.083" y="76.9102">evaluations</text><line style="stroke:#181818;stroke-width:0.5;" x1="380.16" x2="497.867" y1="88.125" y2="88.125"/><text fill="#000000" font-family="sans-serif" font-size="14" lengthAdjust="spacing" textLength="45.4863" x="385.16" y="105.1133">subject</text><text fill="#000000" font-family="sans-serif" font-size="14" lengthAdjust="spacing" textLength="58.4814" x="385.16" y="121.5195">summary</text><text fill="#000000" font-family="sans-serif" font-size="14" lengthAdjust="spacing" textLength="72.5156" x="385.16" y="137.9258">evaluators[]</text><text fill="#000000" font-family="sans-serif" font-size="14" lengthAdjust="spacing" textLength="69.4531" x="385.16" y="154.332">evidence[]?</text><text fill="#000000" font-family="sans-serif" font-size="14" lengthAdjust="spacing" textLength="107.707" x="385.16" y="170.7383">measurements[]?</text><text fill="#000000" font-family="sans-serif" font-size="14" lengthAdjust="spacing" textLength="56.6494" x="385.16" y="187.1445">location?</text><text fill="#000000" font-family="sans-serif" font-size="14" lengthAdjust="spacing" textLength="60.7236" x="385.16" y="203.5508">createdAt</text></g><!--class contributions--><g class="entity" data-entity="contributions" data-source-line="98" data-uid="ent0007" id="entity_contributions"><rect fill="#F1F1F1" height="154.8438" rx="2.5" ry="2.5" style="stroke:#181818;stroke-width:0.5;" width="114.2773" x="94.52" y="833.125"/><ellipse cx="109.52" cy="849.125" fill="#7E57C2" rx="11" ry="11" style="stroke:#181818;stroke-width:1;"/><path d="M106.7075,855.125 L109.9263,855.125 C113.0044,855.125 115.1138,853.3438 115.1138,849.5313 C115.1138,845.7188 113.0044,844.0469 109.77,844.0469 L106.7075,844.0469 L106.7075,855.125 Z M109.2231,853.1094 L109.2231,846.0625 L109.6294,846.0625 C111.3638,846.0625 112.5356,846.875 112.5356,849.5313 C112.5356,852.1875 111.3638,853.1094 109.6294,853.1094 L109.2231,853.1094 Z " fill="#000000"/><text fill="#000000" font-family="sans-serif" font-size="14" lengthAdjust="spacing" textLength="82.2773" x="123.52" y="853.9102">contributions</text><line style="stroke:#181818;stroke-width:0.5;" x1="95.52" x2="207.7973" y1="865.125" y2="865.125"/><text fill="#000000" font-family="sans-serif" font-size="14" lengthAdjust="spacing" textLength="58.4404" x="100.52" y="882.1133">hypercert</text><text fill="#000000" font-family="sans-serif" font-size="14" lengthAdjust="spacing" textLength="30.1738" x="100.52" y="898.5195">role?</text><text fill="#000000" font-family="sans-serif" font-size="14" lengthAdjust="spacing" textLength="76.084" x="100.52" y="914.9258">contributor[]</text><text fill="#000000" font-family="sans-serif" font-size="14" lengthAdjust="spacing" textLength="76.2002" x="100.52" y="931.332">description?</text><text fill="#000000" font-family="sans-serif" font-size="14" lengthAdjust="spacing" textLength="57.5518" x="100.52" y="947.7383">startDate</text><text fill="#000000" font-family="sans-serif" font-size="14" lengthAdjust="spacing" textLength="51.8574" x="100.52" y="964.1445">endDate</text><text fill="#000000" font-family="sans-serif" font-size="14" lengthAdjust="spacing" textLength="60.7236" x="100.52" y="980.5508">createdAt</text></g><!--class location--><g class="entity" data-entity="location" data-source-line="110" data-uid="ent0008" id="entity_location"><rect fill="#F1F1F1" height="154.8438" rx="2.5" ry="2.5" style="stroke:#181818;stroke-width:0.5;" width="92.2949" x="535.51" y="833.125"/><ellipse cx="555.1282" cy="849.125" fill="#7E57C2" rx="11" ry="11" style="stroke:#181818;stroke-width:1;"/><path d="M552.3157,855.125 L555.5345,855.125 C558.6126,855.125 560.722,853.3438 560.722,849.5313 C560.722,845.7188 558.6126,844.0469 555.3782,844.0469 L552.3157,844.0469 L552.3157,855.125 Z M554.8313,853.1094 L554.8313,846.0625 L555.2376,846.0625 C556.972,846.0625 558.1438,846.875 558.1438,849.5313 C558.1438,852.1875 556.972,853.1094 555.2376,853.1094 L554.8313,853.1094 Z " fill="#000000"/><text fill="#000000" font-family="sans-serif" font-size="14" lengthAdjust="spacing" textLength="50.0322" x="570.1545" y="853.9102">location</text><line style="stroke:#181818;stroke-width:0.5;" x1="536.51" x2="626.8049" y1="865.125" y2="865.125"/><text fill="#000000" font-family="sans-serif" font-size="14" lengthAdjust="spacing" textLength="58.6934" x="541.51" y="882.1133">lpVersion</text><text fill="#000000" font-family="sans-serif" font-size="14" lengthAdjust="spacing" textLength="19.1953" x="541.51" y="898.5195">srs</text><text fill="#000000" font-family="sans-serif" font-size="14" lengthAdjust="spacing" textLength="80.2949" x="541.51" y="914.9258">locationType</text><text fill="#000000" font-family="sans-serif" font-size="14" lengthAdjust="spacing" textLength="50.0322" x="541.51" y="931.332">location</text><text fill="#000000" font-family="sans-serif" font-size="14" lengthAdjust="spacing" textLength="41.665" x="541.51" y="947.7383">name?</text><text fill="#000000" font-family="sans-serif" font-size="14" lengthAdjust="spacing" textLength="76.2002" x="541.51" y="964.1445">description?</text><text fill="#000000" font-family="sans-serif" font-size="14" lengthAdjust="spacing" textLength="60.7236" x="541.51" y="980.5508">createdAt</text></g><!--class rights--><g class="entity" data-entity="rights" data-source-line="122" data-uid="ent0009" id="entity_rights"><rect fill="#F1F1F1" height="122.0313" rx="2.5" ry="2.5" style="stroke:#181818;stroke-width:0.5;" width="118.4014" x="243.46" y="849.525"/><ellipse cx="281.3538" cy="865.525" fill="#7E57C2" rx="11" ry="11" style="stroke:#181818;stroke-width:1;"/><path d="M278.5413,871.525 L281.76,871.525 C284.8381,871.525 286.9475,869.7438 286.9475,865.9313 C286.9475,862.1188 284.8381,860.4469 281.6038,860.4469 L278.5413,860.4469 L278.5413,871.525 Z M281.0569,869.5094 L281.0569,862.4625 L281.4631,862.4625 C283.1975,862.4625 284.3694,863.275 284.3694,865.9313 C284.3694,868.5875 283.1975,869.5094 281.4631,869.5094 L281.0569,869.5094 Z " fill="#000000"/><text fill="#000000" font-family="sans-serif" font-size="14" lengthAdjust="spacing" textLength="35.5264" x="300.4412" y="870.3102">rights</text><line style="stroke:#181818;stroke-width:0.5;" x1="244.46" x2="360.8614" y1="881.525" y2="881.525"/><text fill="#000000" font-family="sans-serif" font-size="14" lengthAdjust="spacing" textLength="72.8301" x="249.46" y="898.5133">rightsName</text><text fill="#000000" font-family="sans-serif" font-size="14" lengthAdjust="spacing" textLength="65.7891" x="249.46" y="914.9195">rightsType</text><text fill="#000000" font-family="sans-serif" font-size="14" lengthAdjust="spacing" textLength="106.4014" x="249.46" y="931.3258">rightsDescription</text><text fill="#000000" font-family="sans-serif" font-size="14" lengthAdjust="spacing" textLength="71.4424" x="249.46" y="947.732">attachment</text><text fill="#000000" font-family="sans-serif" font-size="14" lengthAdjust="spacing" textLength="60.7236" x="249.46" y="964.1383">createdAt</text></g><!--class collection--><g class="entity" data-entity="collection" data-source-line="132" data-uid="ent0010" id="entity_collection"><rect fill="#F1F1F1" height="122.0313" rx="2.5" ry="2.5" style="stroke:#181818;stroke-width:0.5;" width="121.7373" x="318.16" y="311.625"/><ellipse cx="346.2838" cy="327.625" fill="#7E57C2" rx="11" ry="11" style="stroke:#181818;stroke-width:1;"/><path d="M343.4713,333.625 L346.6901,333.625 C349.7682,333.625 351.8776,331.8438 351.8776,328.0313 C351.8776,324.2188 349.7682,322.5469 346.5338,322.5469 L343.4713,322.5469 L343.4713,333.625 Z M345.987,331.6094 L345.987,324.5625 L346.3932,324.5625 C348.1276,324.5625 349.2995,325.375 349.2995,328.0313 C349.2995,330.6875 348.1276,331.6094 346.3932,331.6094 L345.987,331.6094 Z " fill="#000000"/><text fill="#000000" font-family="sans-serif" font-size="14" lengthAdjust="spacing" textLength="60.5732" x="363.2002" y="332.4102">collection</text><line style="stroke:#181818;stroke-width:0.5;" x1="319.16" x2="438.8973" y1="343.625" y2="343.625"/><text fill="#000000" font-family="sans-serif" font-size="14" lengthAdjust="spacing" textLength="23.3926" x="324.16" y="360.6133">title</text><text fill="#000000" font-family="sans-serif" font-size="14" lengthAdjust="spacing" textLength="109.7373" x="324.16" y="377.0195">shortDescription?</text><text fill="#000000" font-family="sans-serif" font-size="14" lengthAdjust="spacing" textLength="77.9707" x="324.16" y="393.4258">coverPhoto?</text><text fill="#000000" font-family="sans-serif" font-size="14" lengthAdjust="spacing" textLength="48.6787" x="324.16" y="409.832">claims[]</text><text fill="#000000" font-family="sans-serif" font-size="14" lengthAdjust="spacing" textLength="60.7236" x="324.16" y="426.2383">createdAt</text></g><!--class token--><g class="entity" data-entity="token" data-source-line="142" data-uid="ent0011" id="entity_token"><rect fill="#FFB6C1" height="65.8438" rx="2.5" ry="2.5" style="stroke:#181818;stroke-width:0.5;" width="104.2578" x="396.53" y="877.625"/><ellipse cx="421.2032" cy="894.3438" fill="#F1F1F1" rx="11" ry="11" style="stroke:#181818;stroke-width:1;"/><path d="M417.9845,900.3438 L420.4845,900.3438 L420.4845,896.5938 L421.9064,896.5938 C424.2501,896.5938 426.2345,895.4375 426.2345,892.8281 C426.2345,890.1406 424.297,889.2656 421.9064,889.2656 L417.9845,889.2656 L417.9845,900.3438 Z M420.4845,894.5938 L420.4845,891.25 L421.7501,891.25 C423.0782,891.25 423.797,891.6719 423.797,892.8281 C423.797,893.9844 423.1251,894.5938 421.7501,894.5938 L420.4845,894.5938 Z " fill="#000000"/><text fill="#000000" font-family="sans-serif" font-size="20" font-weight="bold" lengthAdjust="spacing" textLength="50.7617" x="437.3529" y="901.1797">token</text><line style="stroke:#181818;stroke-width:0.5;" x1="397.53" x2="499.7878" y1="911.0625" y2="911.0625"/><line style="stroke:#181818;stroke-width:0.5;" x1="397.53" x2="499.7878" y1="919.0625" y2="919.0625"/><text fill="#000000" font-family="sans-serif" font-size="14" lengthAdjust="spacing" textLength="92.2578" x="402.53" y="936.0508">(on-chain only)</text></g><!--link activity to contributions--><g class="link" data-entity-1="activity" data-entity-2="contributions" data-source-line="148" data-uid="lnk12" id="link_activity_contributions"><path codeLine="148" d="M317.16,695.125 C266.49,695.125 313.25,764.325 280.66,803.125 C262.75,824.445 247.82,816.265 225.66,833.125 C220.08,837.375 218.983,838.0349 213.563,842.9049" fill="none" id="activity-to-contributions" style="stroke:#666666;stroke-width:1;"/><polygon fill="#666666" points="209.1,846.915,218.468,843.8751,212.8192,843.5732,213.1211,837.9244,209.1,846.915" style="stroke:#666666;stroke-width:1;"/></g><!--link activity to rights--><g class="link" data-entity-1="activity" data-entity-2="rights" data-source-line="149" data-uid="lnk13" id="link_activity_rights"><path codeLine="149" d="M317.16,711.125 C295.38,711.125 310.64,739.675 318.16,760.125 C324.11,776.275 336.88,773.905 342.66,790.125 C344.6,795.565 343.69,797.435 342.66,803.125 C339.87,818.465 337.0599,828.8397 331.6499,843.6397" fill="none" id="activity-to-rights" style="stroke:#666666;stroke-width:1;"/><polygon fill="#666666" points="329.59,849.275,336.4368,842.1953,331.3066,844.5789,328.923,839.4488,329.59,849.275" style="stroke:#666666;stroke-width:1;"/></g><!--link activity to location--><g class="link" data-entity-1="activity" data-entity-2="location" data-source-line="150" data-uid="lnk14" id="link_activity_location"><path codeLine="150" d="M434.16,728.125 C491.5,728.125 527.9053,777.9308 551.3153,827.4408" fill="none" id="activity-to-location" style="stroke:#666666;stroke-width:1;"/><polygon fill="#666666" points="553.88,832.865,553.649,823.0189,551.7427,828.3448,546.4167,826.4385,553.88,832.865" style="stroke:#666666;stroke-width:1;"/></g><!--link evidence to activity--><g class="link" data-entity-1="evidence" data-entity-2="activity" data-source-line="151" data-uid="lnk15" id="link_evidence_activity"><path codeLine="151" d="M268.16,347.625 C295.92,347.625 283.91,443.775 292.66,470.125 C299.38,490.335 305.4177,505.789 314.3877,525.819" fill="none" id="evidence-to-activity" style="stroke:#666666;stroke-width:1;"/><polygon fill="#666666" points="316.84,531.295,316.8122,521.4462,314.7964,526.7317,309.5109,524.7159,316.84,531.295" style="stroke:#666666;stroke-width:1;"/></g><!--link measurements to activity--><g class="link" data-entity-1="measurements" data-entity-2="activity" data-source-line="152" data-uid="lnk16" id="link_measurements_activity"><path codeLine="152" d="M489.66,323.125 C449.69,323.125 477.28,463.535 463.66,501.125 C457.74,517.475 452.7105,528.7227 444.0405,544.4227" fill="none" id="measurements-to-activity" style="stroke:#666666;stroke-width:1;"/><polygon fill="#666666" points="441.14,549.675,448.9923,543.7302,443.5571,545.298,441.9892,539.8628,441.14,549.675" style="stroke:#666666;stroke-width:1;"/></g><!--link measurements to location--><g class="link" data-entity-1="measurements" data-entity-2="location" data-source-line="153" data-uid="lnk17" id="link_measurements_location"><path codeLine="153" d="M667.66,437.125 C747.12,437.125 662.6379,693.4363 613.2479,827.2263" fill="none" id="measurements-to-location" style="stroke:#666666;stroke-width:1;"/><polygon fill="#666666" points="611.17,832.855,618.0393,825.7972,612.9016,828.1644,610.5344,823.0267,611.17,832.855" style="stroke:#666666;stroke-width:1;"/></g><!--link evaluations to evidence--><g class="link" data-entity-1="evaluations" data-entity-2="evidence" data-source-line="154" data-uid="lnk18" id="link_evaluations_evidence"><path codeLine="154" d="M378.16,149.125 C300.74,149.125 255.5288,229.0792 230.7288,294.0792" fill="none" id="evaluations-to-evidence" style="stroke:#666666;stroke-width:1;"/><polygon fill="#666666" points="228.59,299.685,235.5355,292.7021,230.3724,295.0135,228.061,289.8504,228.59,299.685" style="stroke:#666666;stroke-width:1;"/></g><!--link evaluations to measurements--><g class="link" data-entity-1="evaluations" data-entity-2="measurements" data-source-line="155" data-uid="lnk19" id="link_evaluations_measurements"><path codeLine="155" d="M499.16,165.125 C550.54,165.125 569.1771,215.5324 575.9871,269.3724" fill="none" id="evaluations-to-measurements" style="stroke:#666666;stroke-width:1;"/><polygon fill="#666666" points="576.74,275.325,579.579,265.8942,576.1126,270.3645,571.6422,266.8981,576.74,275.325" style="stroke:#666666;stroke-width:1;"/></g><!--link evaluations to activity--><g class="link" data-entity-1="evaluations" data-entity-2="activity" data-source-line="156" data-uid="lnk20" id="link_evaluations_activity"><path codeLine="156" d="M378.16,100.125 C177.81,100.125 6,305.825 120.66,470.125 C165.65,534.575 223.1,484.875 286.66,531.125 C294.96,537.165 298.6672,539.9126 306.1272,547.4426" fill="none" id="evaluations-to-activity" style="stroke:#666666;stroke-width:1;"/><polygon fill="#666666" points="310.35,551.705,306.8574,542.4962,306.831,548.153,301.1742,548.1266,310.35,551.705" style="stroke:#666666;stroke-width:1;"/></g><!--link evaluations to location--><g class="link" data-entity-1="evaluations" data-entity-2="location" data-source-line="157" data-uid="lnk21" id="link_evaluations_location"><path codeLine="157" d="M499.16,182.125 C594.58,182.125 639.56,195.845 692.66,275.125 C812.63,454.205 765.47,557.235 692.66,760.125 C678.96,798.295 655.9609,830.4307 632.0509,857.8807" fill="none" id="evaluations-to-location" style="stroke:#666666;stroke-width:1;"/><polygon fill="#666666" points="628.11,862.405,637.0375,858.2457,631.3941,858.6347,631.0051,852.9913,628.11,862.405" style="stroke:#666666;stroke-width:1;"/></g><!--link collection to activity--><g class="link" data-entity-1="collection" data-entity-2="activity" data-source-line="158" data-uid="lnk22" id="link_collection_activity"><path codeLine="158" d="M440.16,404.625 C468.8,404.625 452.5799,463.5689 428.2199,525.7089" fill="none" id="collection-to-activity" style="stroke:#666666;stroke-width:1;"/><polygon fill="#666666" points="426.03,531.295,433.0388,524.3757,427.8549,526.6399,425.5907,521.4559,426.03,531.295" style="stroke:#666666;stroke-width:1;"/></g><!--reverse link activity to token--><g class="link" data-entity-1="activity" data-entity-2="token" data-source-line="159" data-uid="lnk23" id="link_activity_token"><path codeLine="159" d="M408.7559,765.8161 C420.6059,808.4761 431.56,847.955 439.72,877.355" fill="none" id="activity-backto-token" style="stroke:#666666;stroke-width:1;"/><polygon fill="#666666" points="407.15,760.035,405.7047,769.7772,408.4882,764.8526,413.4129,767.6361,407.15,760.035" style="stroke:#666666;stroke-width:1;"/><text fill="#666666" font-family="sans-serif" font-size="10" lengthAdjust="spacing" textLength="42.7246" x="419.7" y="800.4023">tokenizes</text></g><!--link contributor to contributions--><g class="link" data-entity-1="contributor" data-entity-2="contributions" data-source-line="160" data-uid="lnk24" id="link_contributor_contributions"><path codeLine="160" d="M182.09,674.265 C177.26,711.575 169.2391,773.5745 162.3491,826.8845" fill="none" id="contributor-to-contributions" style="stroke:#666666;stroke-width:1;"/><polygon fill="#666666" points="161.58,832.835,166.7006,824.422,162.2209,827.8762,158.7666,823.3965,161.58,832.835" style="stroke:#666666;stroke-width:1;"/><text fill="#666666" font-family="sans-serif" font-size="10" lengthAdjust="spacing" textLength="29.7412" x="167.63" y="800.4023">makes</text></g><!--link contributor to rights--><g class="link" data-entity-1="contributor" data-entity-2="rights" data-source-line="161" data-uid="lnk25" id="link_contributor_rights"><path codeLine="161" d="M197.96,674.265 C216.32,715.525 248.9199,788.7936 273.3899,843.7636" fill="none" id="contributor-to-rights" style="stroke:#666666;stroke-width:1;"/><polygon fill="#666666" points="275.83,849.245,275.8242,839.3961,273.7966,844.6771,268.5156,842.6496,275.83,849.245" style="stroke:#666666;stroke-width:1;"/><text fill="#666666" font-family="sans-serif" font-size="10" lengthAdjust="spacing" textLength="16.1084" x="255.64" y="800.4023">has</text></g><!--SRC=[Kqn9JSlCIrK8zl0FZtVpTFLn2LOeAIfDvU9IpCnBpYbDILLm3NBHAoZDpU420000]--></g></svg>