<svg xmlns="http://www.w3.org/2000/svg" xmlns:xlink="http://www.w3.org/1999/xlink" contentStyleType="text/css" data-diagram-type="CLASS" height="1003px" preserveAspectRatio="none" style="width:1063px;height:1003px;background:#FFFFFF;" version="1.1" viewBox="0 0 1063 1003" width="1063px" zoomAndPan="magnify"><title>Hypercert ERD</title><defs/><g><g class="title" data-source-line="1"><text fill="#000000" font-family="sans-serif" font-size="24" font-weight="bold" lengthAdjust="spacing" textLength="157.0547" x="446.3727" y="32.2656">Hypercert ERD</text></g><!--class contributor--><g class="entity" data-entity="contributor" data-source-line="39" data-uid="ent0002" id="entity_contributor"><rect fill="#FFD4A3" height="56.4063" rx="2.5" ry="2.5" style="stroke:#181818;stroke-width:0.5;" width="167.4219" x="15.8" y="96.915"/><ellipse cx="60.9309" cy="112.915" fill="#ADD1B2" rx="11" ry="11" style="stroke:#181818;stroke-width:1;"/><path d="M56.9934,118.915 L64.509,118.915 L64.509,116.8056 L59.509,116.8056 L59.509,114.2588 L63.6027,114.2588 L63.6027,112.165 L59.509,112.165 L59.509,109.9463 L64.3371,109.9463 L64.3371,107.8369 L56.9934,107.8369 L56.9934,118.915 Z " fill="#000000"/><text fill="#000000" font-family="sans-serif" font-size="14" lengthAdjust="spacing" textLength="68.6602" x="81.4309" y="117.7002">contributor</text><line style="stroke:#181818;stroke-width:0.5;" x1="16.8" x2="182.2219" y1="128.915" y2="128.915"/><text fill="#000000" font-family="sans-serif" font-size="14" lengthAdjust="spacing" textLength="155.4219" x="21.8" y="145.9033">DID or name/pseudonym</text></g><!--class activity--><g class="entity" data-entity="activity" data-source-line="45" data-uid="ent0003" id="entity_activity"><rect fill="#B4E5D0" height="238.3125" rx="2.5" ry="2.5" style="stroke:#181818;stroke-width:0.5;" width="146.3467" x="326.51" y="527.125"/><ellipse cx="363.5139" cy="543.8438" fill="#7E57C2" rx="11" ry="11" style="stroke:#181818;stroke-width:1;"/><path d="M360.7014,549.8438 L363.9201,549.8438 C366.9982,549.8438 369.1076,548.0625 369.1076,544.25 C369.1076,540.4375 366.9982,538.7656 363.7639,538.7656 L360.7014,538.7656 L360.7014,549.8438 Z M363.217,547.8281 L363.217,540.7813 L363.6232,540.7813 C365.3576,540.7813 366.5295,541.5938 366.5295,544.25 C366.5295,546.9063 365.3576,547.8281 363.6232,547.8281 L363.217,547.8281 Z " fill="#000000"/><text fill="#000000" font-family="sans-serif" font-size="20" font-weight="bold" lengthAdjust="spacing" textLength="65.4492" x="382.4036" y="550.6797">activity</text><line style="stroke:#181818;stroke-width:0.5;" x1="327.51" x2="471.8567" y1="560.5625" y2="560.5625"/><text fill="#000000" font-family="sans-serif" font-size="14" lengthAdjust="spacing" textLength="23.3926" x="332.51" y="577.5508">title</text><text fill="#000000" font-family="sans-serif" font-size="14" lengthAdjust="spacing" textLength="103.1201" x="332.51" y="593.957">shortDescription</text><text fill="#000000" font-family="sans-serif" font-size="14" lengthAdjust="spacing" textLength="69.583" x="332.51" y="610.3633">description</text><text fill="#000000" font-family="sans-serif" font-size="14" lengthAdjust="spacing" textLength="38.582" x="332.51" y="626.7695">image</text><text fill="#000000" font-family="sans-serif" font-size="14" lengthAdjust="spacing" textLength="69.2549" x="332.51" y="643.1758">workScope</text><text fill="#000000" font-family="sans-serif" font-size="14" lengthAdjust="spacing" textLength="134.3467" x="332.51" y="659.582">workTimeFrameFrom</text><text fill="#000000" font-family="sans-serif" font-size="14" lengthAdjust="spacing" textLength="117.9404" x="332.51" y="675.9883">workTimeFrameTo</text><text fill="#000000" font-family="sans-serif" font-size="14" lengthAdjust="spacing" textLength="62.8359" x="332.51" y="692.3945">evidence[]</text><text fill="#000000" font-family="sans-serif" font-size="14" lengthAdjust="spacing" textLength="89.7012" x="332.51" y="708.8008">contributions[]</text><text fill="#000000" font-family="sans-serif" font-size="14" lengthAdjust="spacing" textLength="35.5264" x="332.51" y="725.207">rights</text><text fill="#000000" font-family="sans-serif" font-size="14" lengthAdjust="spacing" textLength="50.0322" x="332.51" y="741.6133">location</text><text fill="#000000" font-family="sans-serif" font-size="14" lengthAdjust="spacing" textLength="60.7236" x="332.51" y="758.0195">createdAt</text></g><!--class evidence--><g class="entity" data-entity="evidence" data-source-line="62" data-uid="ent0004" id="entity_evidence"><rect fill="#F1F1F1" height="138.4375" rx="2.5" ry="2.5" style="stroke:#181818;stroke-width:0.5;" width="115.1201" x="450.01" y="850.545"/><ellipse cx="477.4786" cy="866.545" fill="#7E57C2" rx="11" ry="11" style="stroke:#181818;stroke-width:1;"/><path d="M474.6661,872.545 L477.8849,872.545 C480.963,872.545 483.0724,870.7638 483.0724,866.9513 C483.0724,863.1388 480.963,861.4669 477.7286,861.4669 L474.6661,861.4669 L474.6661,872.545 Z M477.1817,870.5294 L477.1817,863.4825 L477.588,863.4825 C479.3224,863.4825 480.4942,864.295 480.4942,866.9513 C480.4942,869.6075 479.3224,870.5294 477.588,870.5294 L477.1817,870.5294 Z " fill="#000000"/><text fill="#000000" font-family="sans-serif" font-size="14" lengthAdjust="spacing" textLength="55.4121" x="494.2494" y="871.3302">evidence</text><line style="stroke:#181818;stroke-width:0.5;" x1="451.01" x2="564.1301" y1="882.545" y2="882.545"/><text fill="#000000" font-family="sans-serif" font-size="14" lengthAdjust="spacing" textLength="58.4404" x="456.01" y="899.5333">hypercert</text><text fill="#000000" font-family="sans-serif" font-size="14" lengthAdjust="spacing" textLength="47.3594" x="456.01" y="915.9395">content</text><text fill="#000000" font-family="sans-serif" font-size="14" lengthAdjust="spacing" textLength="23.3926" x="456.01" y="932.3458">title</text><text fill="#000000" font-family="sans-serif" font-size="14" lengthAdjust="spacing" textLength="103.1201" x="456.01" y="948.752">shortDescription</text><text fill="#000000" font-family="sans-serif" font-size="14" lengthAdjust="spacing" textLength="69.583" x="456.01" y="965.1583">description</text><text fill="#000000" font-family="sans-serif" font-size="14" lengthAdjust="spacing" textLength="60.7236" x="456.01" y="981.5645">createdAt</text></g><!--class measurements--><g class="entity" data-entity="measurements" data-source-line="73" data-uid="ent0005" id="entity_measurements"><rect fill="#F1F1F1" height="171.25" rx="2.5" ry="2.5" style="stroke:#181818;stroke-width:0.5;" width="167.7705" x="503.01" y="275.125"/><ellipse cx="536.957" cy="291.125" fill="#7E57C2" rx="11" ry="11" style="stroke:#181818;stroke-width:1;"/><path d="M534.1445,297.125 L537.3633,297.125 C540.4414,297.125 542.5508,295.3438 542.5508,291.5313 C542.5508,287.7188 540.4414,286.0469 537.207,286.0469 L534.1445,286.0469 L534.1445,297.125 Z M536.6601,295.1094 L536.6601,288.0625 L537.0664,288.0625 C538.8008,288.0625 539.9726,288.875 539.9726,291.5313 C539.9726,294.1875 538.8008,295.1094 537.0664,295.1094 L536.6601,295.1094 Z " fill="#000000"/><text fill="#000000" font-family="sans-serif" font-size="14" lengthAdjust="spacing" textLength="93.666" x="555.1675" y="295.9102">measurements</text><line style="stroke:#181818;stroke-width:0.5;" x1="504.01" x2="669.7805" y1="307.125" y2="307.125"/><text fill="#000000" font-family="sans-serif" font-size="14" lengthAdjust="spacing" textLength="58.4404" x="509.01" y="324.1133">hypercert</text><text fill="#000000" font-family="sans-serif" font-size="14" lengthAdjust="spacing" textLength="73.8213" x="509.01" y="340.5195">measurers[]</text><text fill="#000000" font-family="sans-serif" font-size="14" lengthAdjust="spacing" textLength="39.7578" x="509.01" y="356.9258">metric</text><text fill="#000000" font-family="sans-serif" font-size="14" lengthAdjust="spacing" textLength="32.9424" x="509.01" y="373.332">value</text><text fill="#000000" font-family="sans-serif" font-size="14" lengthAdjust="spacing" textLength="155.7705" x="509.01" y="389.7383">measurementMethodURI</text><text fill="#000000" font-family="sans-serif" font-size="14" lengthAdjust="spacing" textLength="84.3486" x="509.01" y="406.1445">evidenceURI[]</text><text fill="#000000" font-family="sans-serif" font-size="14" lengthAdjust="spacing" textLength="50.0322" x="509.01" y="422.5508">location</text><text fill="#000000" font-family="sans-serif" font-size="14" lengthAdjust="spacing" textLength="60.7236" x="509.01" y="438.957">createdAt</text></g><!--class evaluations--><g class="entity" data-entity="evaluations" data-source-line="86" data-uid="ent0006" id="entity_evaluations"><rect fill="#F1F1F1" height="138.4375" rx="2.5" ry="2.5" style="stroke:#181818;stroke-width:0.5;" width="103.4834" x="643.01" y="56.125"/><ellipse cx="658.01" cy="72.125" fill="#7E57C2" rx="11" ry="11" style="stroke:#181818;stroke-width:1;"/><path d="M655.1975,78.125 L658.4163,78.125 C661.4944,78.125 663.6038,76.3438 663.6038,72.5313 C663.6038,68.7188 661.4944,67.0469 658.26,67.0469 L655.1975,67.0469 L655.1975,78.125 Z M657.7131,76.1094 L657.7131,69.0625 L658.1194,69.0625 C659.8538,69.0625 661.0256,69.875 661.0256,72.5313 C661.0256,75.1875 659.8538,76.1094 658.1194,76.1094 L657.7131,76.1094 Z " fill="#000000"/><text fill="#000000" font-family="sans-serif" font-size="14" lengthAdjust="spacing" textLength="71.4834" x="672.01" y="76.9102">evaluations</text><line style="stroke:#181818;stroke-width:0.5;" x1="644.01" x2="745.4934" y1="88.125" y2="88.125"/><text fill="#000000" font-family="sans-serif" font-size="14" lengthAdjust="spacing" textLength="45.4863" x="649.01" y="105.1133">subject</text><text fill="#000000" font-family="sans-serif" font-size="14" lengthAdjust="spacing" textLength="72.5156" x="649.01" y="121.5195">evaluators[]</text><text fill="#000000" font-family="sans-serif" font-size="14" lengthAdjust="spacing" textLength="78.9072" x="649.01" y="137.9258">evaluations[]</text><text fill="#000000" font-family="sans-serif" font-size="14" lengthAdjust="spacing" textLength="58.4814" x="649.01" y="154.332">summary</text><text fill="#000000" font-family="sans-serif" font-size="14" lengthAdjust="spacing" textLength="50.0322" x="649.01" y="170.7383">location</text><text fill="#000000" font-family="sans-serif" font-size="14" lengthAdjust="spacing" textLength="60.7236" x="649.01" y="187.1445">createdAt</text></g><!--class contributions--><g class="entity" data-entity="contributions" data-source-line="97" data-uid="ent0007" id="entity_contributions"><rect fill="#F1F1F1" height="154.8438" rx="2.5" ry="2.5" style="stroke:#181818;stroke-width:0.5;" width="143.4756" x="237.01" y="283.625"/><ellipse cx="265.1492" cy="299.625" fill="#7E57C2" rx="11" ry="11" style="stroke:#181818;stroke-width:1;"/><path d="M262.3367,305.625 L265.5555,305.625 C268.6336,305.625 270.743,303.8438 270.743,300.0313 C270.743,296.2188 268.6336,294.5469 265.3992,294.5469 L262.3367,294.5469 L262.3367,305.625 Z M264.8523,303.6094 L264.8523,296.5625 L265.2586,296.5625 C266.993,296.5625 268.1648,297.375 268.1648,300.0313 C268.1648,302.6875 266.993,303.6094 265.2586,303.6094 L264.8523,303.6094 Z " fill="#000000"/><text fill="#000000" font-family="sans-serif" font-size="14" lengthAdjust="spacing" textLength="82.2773" x="282.069" y="304.4102">contributions</text><line style="stroke:#181818;stroke-width:0.5;" x1="238.01" x2="379.4856" y1="315.625" y2="315.625"/><text fill="#000000" font-family="sans-serif" font-size="14" lengthAdjust="spacing" textLength="58.4404" x="243.01" y="332.6133">hypercert</text><text fill="#000000" font-family="sans-serif" font-size="14" lengthAdjust="spacing" textLength="23.5566" x="243.01" y="349.0195">role</text><text fill="#000000" font-family="sans-serif" font-size="14" lengthAdjust="spacing" textLength="76.084" x="243.01" y="365.4258">contributor[]</text><text fill="#000000" font-family="sans-serif" font-size="14" lengthAdjust="spacing" textLength="69.583" x="243.01" y="381.832">description</text><text fill="#000000" font-family="sans-serif" font-size="14" lengthAdjust="spacing" textLength="131.4756" x="243.01" y="398.2383">workTimeframeFrom</text><text fill="#000000" font-family="sans-serif" font-size="14" lengthAdjust="spacing" textLength="115.0693" x="243.01" y="414.6445">workTimeframeTo</text><text fill="#000000" font-family="sans-serif" font-size="14" lengthAdjust="spacing" textLength="60.7236" x="243.01" y="431.0508">createdAt</text></g><!--class location--><g class="entity" data-entity="location" data-source-line="109" data-uid="ent0008" id="entity_location"><rect fill="#F1F1F1" height="154.8438" rx="2.5" ry="2.5" style="stroke:#181818;stroke-width:0.5;" width="92.2949" x="644.36" y="842.125"/><ellipse cx="663.9782" cy="858.125" fill="#7E57C2" rx="11" ry="11" style="stroke:#181818;stroke-width:1;"/><path d="M661.1657,864.125 L664.3845,864.125 C667.4626,864.125 669.572,862.3438 669.572,858.5313 C669.572,854.7188 667.4626,853.0469 664.2282,853.0469 L661.1657,853.0469 L661.1657,864.125 Z M663.6813,862.1094 L663.6813,855.0625 L664.0876,855.0625 C665.822,855.0625 666.9938,855.875 666.9938,858.5313 C666.9938,861.1875 665.822,862.1094 664.0876,862.1094 L663.6813,862.1094 Z " fill="#000000"/><text fill="#000000" font-family="sans-serif" font-size="14" lengthAdjust="spacing" textLength="50.0322" x="679.0045" y="862.9102">location</text><line style="stroke:#181818;stroke-width:0.5;" x1="645.36" x2="735.6549" y1="874.125" y2="874.125"/><text fill="#000000" font-family="sans-serif" font-size="14" lengthAdjust="spacing" textLength="58.6934" x="650.36" y="891.1133">lpVersion</text><text fill="#000000" font-family="sans-serif" font-size="14" lengthAdjust="spacing" textLength="19.1953" x="650.36" y="907.5195">srs</text><text fill="#000000" font-family="sans-serif" font-size="14" lengthAdjust="spacing" textLength="80.2949" x="650.36" y="923.9258">locationType</text><text fill="#000000" font-family="sans-serif" font-size="14" lengthAdjust="spacing" textLength="50.0322" x="650.36" y="940.332">location</text><text fill="#000000" font-family="sans-serif" font-size="14" lengthAdjust="spacing" textLength="35.0479" x="650.36" y="956.7383">name</text><text fill="#000000" font-family="sans-serif" font-size="14" lengthAdjust="spacing" textLength="69.583" x="650.36" y="973.1445">description</text><text fill="#000000" font-family="sans-serif" font-size="14" lengthAdjust="spacing" textLength="60.7236" x="650.36" y="989.5508">createdAt</text></g><!--class rights--><g class="entity" data-entity="rights" data-source-line="121" data-uid="ent0009" id="entity_rights"><rect fill="#F1F1F1" height="105.625" rx="2.5" ry="2.5" style="stroke:#181818;stroke-width:0.5;" width="118.4014" x="52.31" y="866.735"/><ellipse cx="90.2038" cy="882.735" fill="#7E57C2" rx="11" ry="11" style="stroke:#181818;stroke-width:1;"/><path d="M87.3913,888.735 L90.61,888.735 C93.6881,888.735 95.7975,886.9538 95.7975,883.1413 C95.7975,879.3288 93.6881,877.6569 90.4538,877.6569 L87.3913,877.6569 L87.3913,888.735 Z M89.9069,886.7194 L89.9069,879.6725 L90.3131,879.6725 C92.0475,879.6725 93.2194,880.485 93.2194,883.1413 C93.2194,885.7975 92.0475,886.7194 90.3131,886.7194 L89.9069,886.7194 Z " fill="#000000"/><text fill="#000000" font-family="sans-serif" font-size="14" lengthAdjust="spacing" textLength="35.5264" x="109.2912" y="887.5202">rights</text><line style="stroke:#181818;stroke-width:0.5;" x1="53.31" x2="169.7114" y1="898.735" y2="898.735"/><text fill="#000000" font-family="sans-serif" font-size="14" lengthAdjust="spacing" textLength="72.8301" x="58.31" y="915.7233">rightsName</text><text fill="#000000" font-family="sans-serif" font-size="14" lengthAdjust="spacing" textLength="65.7891" x="58.31" y="932.1295">rightsType</text><text fill="#000000" font-family="sans-serif" font-size="14" lengthAdjust="spacing" textLength="106.4014" x="58.31" y="948.5358">rightsDescription</text><text fill="#000000" font-family="sans-serif" font-size="14" lengthAdjust="spacing" textLength="60.7236" x="58.31" y="964.942">createdAt</text></g><!--class collection--><g class="entity" data-entity="collection" data-source-line="130" data-uid="ent0010" id="entity_collection"><rect fill="#F1F1F1" height="122.0313" rx="2.5" ry="2.5" style="stroke:#181818;stroke-width:0.5;" width="115.1201" x="71.01" y="299.625"/><ellipse cx="96.1561" cy="315.625" fill="#7E57C2" rx="11" ry="11" style="stroke:#181818;stroke-width:1;"/><path d="M93.3436,321.625 L96.5623,321.625 C99.6405,321.625 101.7498,319.8438 101.7498,316.0313 C101.7498,312.2188 99.6405,310.5469 96.4061,310.5469 L93.3436,310.5469 L93.3436,321.625 Z M95.8592,319.6094 L95.8592,312.5625 L96.2655,312.5625 C97.9998,312.5625 99.1717,313.375 99.1717,316.0313 C99.1717,318.6875 97.9998,319.6094 96.2655,319.6094 L95.8592,319.6094 Z " fill="#000000"/><text fill="#000000" font-family="sans-serif" font-size="14" lengthAdjust="spacing" textLength="60.5732" x="112.4108" y="320.4102">collection</text><line style="stroke:#181818;stroke-width:0.5;" x1="72.01" x2="185.1301" y1="331.625" y2="331.625"/><text fill="#000000" font-family="sans-serif" font-size="14" lengthAdjust="spacing" textLength="23.3926" x="77.01" y="348.6133">title</text><text fill="#000000" font-family="sans-serif" font-size="14" lengthAdjust="spacing" textLength="103.1201" x="77.01" y="365.0195">shortDescription</text><text fill="#000000" font-family="sans-serif" font-size="14" lengthAdjust="spacing" textLength="71.3535" x="77.01" y="381.4258">coverPhoto</text><text fill="#000000" font-family="sans-serif" font-size="14" lengthAdjust="spacing" textLength="48.6787" x="77.01" y="397.832">claims[]</text><text fill="#000000" font-family="sans-serif" font-size="14" lengthAdjust="spacing" textLength="60.7236" x="77.01" y="414.2383">createdAt</text></g><!--class token--><g class="entity" data-entity="token" data-source-line="140" data-uid="ent0011" id="entity_token"><rect fill="#FFB6C1" height="65.8438" rx="2.5" ry="2.5" style="stroke:#181818;stroke-width:0.5;" width="104.2578" x="302.38" y="886.625"/><ellipse cx="327.0532" cy="903.3438" fill="#F1F1F1" rx="11" ry="11" style="stroke:#181818;stroke-width:1;"/><path d="M323.8345,909.3438 L326.3345,909.3438 L326.3345,905.5938 L327.7564,905.5938 C330.1001,905.5938 332.0845,904.4375 332.0845,901.8281 C332.0845,899.1406 330.147,898.2656 327.7564,898.2656 L323.8345,898.2656 L323.8345,909.3438 Z M326.3345,903.5938 L326.3345,900.25 L327.6001,900.25 C328.9282,900.25 329.647,900.6719 329.647,901.8281 C329.647,902.9844 328.9751,903.5938 327.6001,903.5938 L326.3345,903.5938 Z " fill="#000000"/><text fill="#000000" font-family="sans-serif" font-size="20" font-weight="bold" lengthAdjust="spacing" textLength="50.7617" x="343.2029" y="910.1797">token</text><line style="stroke:#181818;stroke-width:0.5;" x1="303.38" x2="405.6378" y1="920.0625" y2="920.0625"/><line style="stroke:#181818;stroke-width:0.5;" x1="303.38" x2="405.6378" y1="928.0625" y2="928.0625"/><text fill="#000000" font-family="sans-serif" font-size="14" lengthAdjust="spacing" textLength="92.2578" x="308.38" y="945.0508">(on-chain only)</text></g><!--link activity to evidence--><g class="link" data-entity-1="activity" data-entity-2="evidence" data-source-line="146" data-uid="lnk12" id="link_activity_evidence"><path codeLine="146" d="M473.51,687.125 C538.89,687.125 536.484,772.7396 524.954,840.6696" fill="none" id="activity-to-evidence" style="stroke:#666666;stroke-width:1;"/><polygon fill="#666666" points="523.95,846.585,529.3997,838.3813,524.7867,841.6555,521.5125,837.0425,523.95,846.585" style="stroke:#666666;stroke-width:1;"/></g><!--link evidence to activity--><g class="link" data-entity-1="evidence" data-entity-2="activity" data-source-line="150" data-uid="lnk16" id="link_evidence_activity"><path codeLine="150" d="M449.01,894.545 C434.86,894.545 423.2256,837.4151 414.3356,774.9651" fill="none" id="evidence-to-activity" style="stroke:#666666;stroke-width:1;"/><polygon fill="#666666" points="413.49,769.025,410.7983,778.4989,414.1947,773.9751,418.7185,777.3714,413.49,769.025" style="stroke:#666666;stroke-width:1;"/></g><!--link activity to contributions--><g class="link" data-entity-1="activity" data-entity-2="contributions" data-source-line="147" data-uid="lnk13" id="link_activity_contributions"><path codeLine="147" d="M325.51,703.125 C245.51,703.125 296.97,597.465 326.51,523.125 C333.25,506.175 347.82,510.085 354.51,493.125 C356.63,487.745 355.57,485.805 354.51,480.125 C352.11,467.325 350.3121,459.8154 345.9821,447.0854" fill="none" id="activity-to-contributions" style="stroke:#666666;stroke-width:1;"/><polygon fill="#666666" points="344.05,441.405,343.1613,451.2137,345.6601,446.1387,350.7351,448.6375,344.05,441.405" style="stroke:#666666;stroke-width:1;"/></g><!--link contributions to activity--><g class="link" data-entity-1="contributions" data-entity-2="activity" data-source-line="157" data-uid="lnk23" id="link_contributions_activity"><path codeLine="157" d="M381.01,327.625 C431.68,327.625 396.49,393.705 380.01,441.625 C373,462.005 357.43,459.705 350.51,480.125 C348.66,485.595 349.61,487.415 350.51,493.125 C352.06,502.985 352.7257,507.2441 355.1657,517.3041" fill="none" id="contributions-to-activity" style="stroke:#666666;stroke-width:1;"/><polygon fill="#666666" points="356.58,523.135,358.3459,513.4457,355.4014,518.2759,350.5713,515.3314,356.58,523.135" style="stroke:#666666;stroke-width:1;"/></g><!--link activity to rights--><g class="link" data-entity-1="activity" data-entity-2="rights" data-source-line="148" data-uid="lnk14" id="link_activity_rights"><path codeLine="148" d="M325.51,720.125 C239.38,720.125 176.3191,802.4575 141.6291,861.2475" fill="none" id="activity-to-rights" style="stroke:#666666;stroke-width:1;"/><polygon fill="#666666" points="138.58,866.415,146.5987,860.6966,141.121,862.1088,139.7087,856.631,138.58,866.415" style="stroke:#666666;stroke-width:1;"/></g><!--link activity to location--><g class="link" data-entity-1="activity" data-entity-2="location" data-source-line="149" data-uid="lnk15" id="link_activity_location"><path codeLine="149" d="M473.51,736.125 C545,736.125 601.5827,790.0732 640.3127,840.8832" fill="none" id="activity-to-location" style="stroke:#666666;stroke-width:1;"/><polygon fill="#666666" points="643.95,845.655,641.6752,836.0724,640.9189,841.6785,635.3128,840.9222,643.95,845.655" style="stroke:#666666;stroke-width:1;"/></g><!--link measurements to activity--><g class="link" data-entity-1="measurements" data-entity-2="activity" data-source-line="151" data-uid="lnk17" id="link_measurements_activity"><path codeLine="151" d="M502.01,319.125 C462.59,319.125 479.47,455.555 467.51,493.125 C464.35,503.035 462.8935,507.5748 459.0135,517.6648" fill="none" id="measurements-to-activity" style="stroke:#666666;stroke-width:1;"/><polygon fill="#666666" points="456.86,523.265,463.8237,516.3003,458.6546,518.5982,456.3568,513.429,456.86,523.265" style="stroke:#666666;stroke-width:1;"/></g><!--link measurements to location--><g class="link" data-entity-1="measurements" data-entity-2="location" data-source-line="152" data-uid="lnk18" id="link_measurements_location"><path codeLine="152" d="M671.01,417.125 C838.93,417.125 766.9351,695.6821 720.1751,836.1521" fill="none" id="measurements-to-location" style="stroke:#666666;stroke-width:1;"/><polygon fill="#666666" points="718.28,841.845,724.9178,834.5691,719.8592,837.1009,717.3273,832.0423,718.28,841.845" style="stroke:#666666;stroke-width:1;"/></g><!--link evaluations to evidence--><g class="link" data-entity-1="evaluations" data-entity-2="evidence" data-source-line="153" data-uid="lnk19" id="link_evaluations_evidence"><path codeLine="153" d="M747.01,100.125 C1056.8,100.125 703.5938,642.0188 563.0038,841.7288" fill="none" id="evaluations-to-evidence" style="stroke:#666666;stroke-width:1;"/><polygon fill="#666666" points="559.55,846.635,568.0016,841.5782,562.4282,842.5465,561.4599,836.9731,559.55,846.635" style="stroke:#666666;stroke-width:1;"/></g><!--link evaluations to measurements--><g class="link" data-entity-1="evaluations" data-entity-2="measurements" data-source-line="154" data-uid="lnk20" id="link_evaluations_measurements"><path codeLine="154" d="M642.01,100.125 C570.26,100.125 564.7062,190.2015 571.8062,265.4315" fill="none" id="evaluations-to-measurements" style="stroke:#666666;stroke-width:1;"/><polygon fill="#666666" points="572.37,271.405,575.5067,262.069,571.9002,266.4271,567.5421,262.8207,572.37,271.405" style="stroke:#666666;stroke-width:1;"/></g><!--link evaluations to activity--><g class="link" data-entity-1="evaluations" data-entity-2="activity" data-source-line="155" data-uid="lnk21" id="link_evaluations_activity"><path codeLine="155" d="M642.01,100.125 C458.06,100.125 413.0239,356.5079 402.4539,517.1679" fill="none" id="evaluations-to-activity" style="stroke:#666666;stroke-width:1;"/><polygon fill="#666666" points="402.06,523.155,406.6422,514.437,402.3882,518.1658,398.6595,513.9118,402.06,523.155" style="stroke:#666666;stroke-width:1;"/></g><!--link evaluations to location--><g class="link" data-entity-1="evaluations" data-entity-2="location" data-source-line="156" data-uid="lnk22" id="link_evaluations_location"><path codeLine="156" d="M747.01,165.125 C1015.87,165.125 850.49,509.535 780.51,769.125 C771.92,800.995 757.6604,827.8242 740.2904,853.8542" fill="none" id="evaluations-to-location" style="stroke:#666666;stroke-width:1;"/><polygon fill="#666666" points="736.96,858.845,745.2828,853.579,739.7353,854.686,738.6284,849.1385,736.96,858.845" style="stroke:#666666;stroke-width:1;"/></g><!--link collection to activity--><g class="link" data-entity-1="collection" data-entity-2="activity" data-source-line="158" data-uid="lnk24" id="link_collection_activity"><path codeLine="158" d="M187.01,392.625 C214.79,392.625 196.17,426.965 211.51,450.125 C241.5,495.405 278.3739,535.3675 314.5639,570.1475" fill="none" id="collection-to-activity" style="stroke:#666666;stroke-width:1;"/><polygon fill="#666666" points="318.89,574.305,315.1726,565.1847,315.2849,570.8404,309.6292,570.9528,318.89,574.305" style="stroke:#666666;stroke-width:1;"/></g><!--reverse link activity to token--><g class="link" data-entity-1="activity" data-entity-2="token" data-source-line="159" data-uid="lnk25" id="link_activity_token"><path codeLine="159" d="M367.7577,774.6294 C365.7177,784.8694 365.05,789.205 363.51,799.125 C358.97,828.395 356.7,862.085 355.57,886.205" fill="none" id="activity-backto-token" style="stroke:#666666;stroke-width:1;"/><polygon fill="#666666" points="368.93,768.745,363.2487,776.79,367.9531,773.6486,371.0945,778.3531,368.93,768.745" style="stroke:#666666;stroke-width:1;"/><text fill="#666666" font-family="sans-serif" font-size="10" lengthAdjust="spacing" textLength="42.7246" x="364.51" y="809.4023">tokenizes</text></g><!--link contributor to contributions--><g class="link" data-entity-1="contributor" data-entity-2="contributions" data-source-line="160" data-uid="lnk26" id="link_contributor_contributions"><path codeLine="160" d="M124.31,153.825 C151.93,184.685 193.8588,231.5239 232.9388,275.1939" fill="none" id="contributor-to-contributions" style="stroke:#666666;stroke-width:1;"/><polygon fill="#666666" points="236.94,279.665,233.919,270.2909,233.6057,275.9391,227.9575,275.6258,236.94,279.665" style="stroke:#666666;stroke-width:1;"/><text fill="#666666" font-family="sans-serif" font-size="10" lengthAdjust="spacing" textLength="29.7412" x="198.74" y="238.4023">makes</text></g><!--link contributor to rights--><g class="link" data-entity-1="contributor" data-entity-2="rights" data-source-line="161" data-uid="lnk27" id="link_contributor_rights"><path codeLine="161" d="M85.89,153.625 C72.56,182.185 53.18,228.555 45.51,271.125 C6,490.445 64.9925,750.3634 94.8725,860.7634" fill="none" id="contributor-to-rights" style="stroke:#666666;stroke-width:1;"/><polygon fill="#666666" points="96.44,866.555,97.9498,856.8226,95.1337,861.7286,90.2276,858.9126,96.44,866.555" style="stroke:#666666;stroke-width:1;"/><text fill="#666666" font-family="sans-serif" font-size="10" lengthAdjust="spacing" textLength="16.1084" x="35.02" y="490.4023">has</text></g><!--SRC=[Kqn9JSlCIrK8zl0FZtVpTFLn2LOeAIfDvU9IpCnBpYbDILLm3NBHAoZDpU420000]--></g></svg>