<svg xmlns="http://www.w3.org/2000/svg" xmlns:xlink="http://www.w3.org/1999/xlink" contentStyleType="text/css" data-diagram-type="CLASS" height="1237px" preserveAspectRatio="none" style="width:687px;height:1237px;background:#FFFFFF;" version="1.1" viewBox="0 0 687 1237" width="687px" zoomAndPan="magnify"><title>Hypercert ERD</title><defs/><g><g class="title" data-source-line="4"><text fill="#000000" font-family="sans-serif" font-size="24" font-weight="bold" lengthAdjust="spacing" textLength="169.3945" x="252.0827" y="32.5117">Hypercert ERD</text></g><!--class contributor--><g class="entity" data-entity="contributor" data-source-line="44" data-uid="ent0002" id="entity_contributor"><rect fill="#FFD4A3" height="56.0986" rx="2.5" ry="2.5" style="stroke:#181818;stroke-width:0.5;" width="167.627" x="7" y="1125.8977"/><ellipse cx="53.4912" cy="1141.8977" fill="#ADD1B2" rx="11" ry="11" style="stroke:#181818;stroke-width:1;"/><path d="M49.5537,1147.8977 L57.0693,1147.8977 L57.0693,1145.7883 L52.0693,1145.7883 L52.0693,1143.2414 L56.1631,1143.2414 L56.1631,1141.1477 L52.0693,1141.1477 L52.0693,1138.9289 L56.8975,1138.9289 L56.8975,1136.8195 L49.5537,1136.8195 L49.5537,1147.8977 Z " fill="#000000"/><text fill="#000000" font-family="sans-serif" font-size="14" lengthAdjust="spacing" textLength="66.1445" x="73.9912" y="1146.9802">contributor</text><line style="stroke:#181818;stroke-width:0.5;" x1="8" x2="173.627" y1="1157.8977" y2="1157.8977"/><text fill="#000000" font-family="sans-serif" font-size="14" lengthAdjust="spacing" textLength="155.627" x="13" y="1175.0295">DID or name/pseudonym</text></g><!--class activity--><g class="entity" data-entity="activity" data-source-line="52" data-uid="ent0003" id="entity_activity"><rect fill="#B4E5D0" height="234.1816" rx="2.5" ry="2.5" style="stroke:#181818;stroke-width:0.5;" width="113.1514" x="224.31" y="529.5977"/><ellipse cx="244.8115" cy="546.0967" fill="#7E57C2" rx="11" ry="11" style="stroke:#181818;stroke-width:1;"/><path d="M241.999,552.0967 L245.2178,552.0967 C248.2959,552.0967 250.4053,550.3154 250.4053,546.5029 C250.4053,542.6904 248.2959,541.0186 245.0615,541.0186 L241.999,541.0186 L241.999,552.0967 Z M244.5146,550.0811 L244.5146,543.0342 L244.9209,543.0342 C246.6553,543.0342 247.8271,543.8467 247.8271,546.5029 C247.8271,549.1592 246.6553,550.0811 244.9209,550.0811 L244.5146,550.0811 Z " fill="#000000"/><text fill="#000000" font-family="sans-serif" font-size="20" font-weight="bold" lengthAdjust="spacing" textLength="68.9258" x="260.0341" y="553.3574">activity</text><line style="stroke:#181818;stroke-width:0.5;" x1="225.31" x2="336.4614" y1="562.5957" y2="562.5957"/><text fill="#000000" font-family="sans-serif" font-size="14" lengthAdjust="spacing" textLength="21.7861" x="230.31" y="579.7275">title</text><text fill="#000000" font-family="sans-serif" font-size="14" lengthAdjust="spacing" textLength="101.1514" x="230.31" y="595.8262">shortDescription</text><text fill="#000000" font-family="sans-serif" font-size="14" lengthAdjust="spacing" textLength="75.4893" x="230.31" y="611.9248">description?</text><text fill="#000000" font-family="sans-serif" font-size="14" lengthAdjust="spacing" textLength="45.917" x="230.31" y="628.0234">image?</text><text fill="#000000" font-family="sans-serif" font-size="14" lengthAdjust="spacing" textLength="77.041" x="230.31" y="644.1221">workScope?</text><text fill="#000000" font-family="sans-serif" font-size="14" lengthAdjust="spacing" textLength="56.7998" x="230.31" y="660.2207">startDate</text><text fill="#000000" font-family="sans-serif" font-size="14" lengthAdjust="spacing" textLength="52.9307" x="230.31" y="676.3193">endDate</text><text fill="#000000" font-family="sans-serif" font-size="14" lengthAdjust="spacing" textLength="94.9443" x="230.31" y="692.418">contributions[]?</text><text fill="#000000" font-family="sans-serif" font-size="14" lengthAdjust="spacing" textLength="56.041" x="230.31" y="708.5166">location?</text><text fill="#000000" font-family="sans-serif" font-size="14" lengthAdjust="spacing" textLength="42.0205" x="230.31" y="724.6152">rights?</text><text fill="#000000" font-family="sans-serif" font-size="14" lengthAdjust="spacing" textLength="49.8066" x="230.31" y="740.7139">project?</text><text fill="#000000" font-family="sans-serif" font-size="14" lengthAdjust="spacing" textLength="59.9238" x="230.31" y="756.8125">createdAt</text></g><!--class evidence--><g class="entity" data-entity="evidence" data-source-line="70" data-uid="ent0004" id="entity_evidence"><rect fill="#F1F1F1" height="136.5918" rx="2.5" ry="2.5" style="stroke:#181818;stroke-width:0.5;" width="120.9375" x="155.81" y="300.5977"/><ellipse cx="185.6134" cy="316.5977" fill="#7E57C2" rx="11" ry="11" style="stroke:#181818;stroke-width:1;"/><path d="M182.8009,322.5977 L186.0197,322.5977 C189.0978,322.5977 191.2072,320.8164 191.2072,317.0039 C191.2072,313.1914 189.0978,311.5195 185.8634,311.5195 L182.8009,311.5195 L182.8009,322.5977 Z M185.3165,320.582 L185.3165,313.5352 L185.7228,313.5352 C187.4572,313.5352 188.629,314.3477 188.629,317.0039 C188.629,319.6602 187.4572,320.582 185.7228,320.582 L185.3165,320.582 Z " fill="#000000"/><text fill="#000000" font-family="sans-serif" font-size="14" lengthAdjust="spacing" textLength="56.041" x="202.9031" y="321.6802">evidence</text><line style="stroke:#181818;stroke-width:0.5;" x1="156.81" x2="275.7475" y1="332.5977" y2="332.5977"/><text fill="#000000" font-family="sans-serif" font-size="14" lengthAdjust="spacing" textLength="50.5723" x="161.81" y="349.7295">activity?</text><text fill="#000000" font-family="sans-serif" font-size="14" lengthAdjust="spacing" textLength="45.9238" x="161.81" y="365.8281">content</text><text fill="#000000" font-family="sans-serif" font-size="14" lengthAdjust="spacing" textLength="21.7861" x="161.81" y="381.9268">title</text><text fill="#000000" font-family="sans-serif" font-size="14" lengthAdjust="spacing" textLength="108.9375" x="161.81" y="398.0254">shortDescription?</text><text fill="#000000" font-family="sans-serif" font-size="14" lengthAdjust="spacing" textLength="75.4893" x="161.81" y="414.124">description?</text><text fill="#000000" font-family="sans-serif" font-size="14" lengthAdjust="spacing" textLength="59.9238" x="161.81" y="430.2227">createdAt</text></g><!--class measurement--><g class="entity" data-entity="measurement" data-source-line="82" data-uid="ent0005" id="entity_measurement"><rect fill="#F1F1F1" height="184.8877" rx="2.5" ry="2.5" style="stroke:#181818;stroke-width:0.5;" width="117.5928" x="498.31" y="276.5977"/><ellipse cx="513.31" cy="292.5977" fill="#7E57C2" rx="11" ry="11" style="stroke:#181818;stroke-width:1;"/><path d="M510.4975,298.5977 L513.7163,298.5977 C516.7944,298.5977 518.9038,296.8164 518.9038,293.0039 C518.9038,289.1914 516.7944,287.5195 513.56,287.5195 L510.4975,287.5195 L510.4975,298.5977 Z M513.0131,296.582 L513.0131,289.5352 L513.4194,289.5352 C515.1538,289.5352 516.3256,290.3477 516.3256,293.0039 C516.3256,295.6602 515.1538,296.582 513.4194,296.582 L513.0131,296.582 Z " fill="#000000"/><text fill="#000000" font-family="sans-serif" font-size="14" lengthAdjust="spacing" textLength="85.5928" x="527.31" y="297.6802">measurement</text><line style="stroke:#181818;stroke-width:0.5;" x1="499.31" x2="614.9028" y1="308.5977" y2="308.5977"/><text fill="#000000" font-family="sans-serif" font-size="14" lengthAdjust="spacing" textLength="50.5723" x="504.31" y="325.7295">activity?</text><text fill="#000000" font-family="sans-serif" font-size="14" lengthAdjust="spacing" textLength="73.9102" x="504.31" y="341.8281">measurers[]</text><text fill="#000000" font-family="sans-serif" font-size="14" lengthAdjust="spacing" textLength="38.1104" x="504.31" y="357.9268">metric</text><text fill="#000000" font-family="sans-serif" font-size="14" lengthAdjust="spacing" textLength="33.4688" x="504.31" y="374.0254">value</text><text fill="#000000" font-family="sans-serif" font-size="14" lengthAdjust="spacing" textLength="85.6064" x="504.31" y="390.124">methodType?</text><text fill="#000000" font-family="sans-serif" font-size="14" lengthAdjust="spacing" textLength="78.5928" x="504.31" y="406.2227">methodURI?</text><text fill="#000000" font-family="sans-serif" font-size="14" lengthAdjust="spacing" textLength="95.7168" x="504.31" y="422.3213">evidenceURI[]?</text><text fill="#000000" font-family="sans-serif" font-size="14" lengthAdjust="spacing" textLength="56.041" x="504.31" y="438.4199">location?</text><text fill="#000000" font-family="sans-serif" font-size="14" lengthAdjust="spacing" textLength="59.9238" x="504.31" y="454.5186">createdAt</text></g><!--class evaluation--><g class="entity" data-entity="evaluation" data-source-line="97" data-uid="ent0006" id="entity_evaluation"><rect fill="#F1F1F1" height="152.6904" rx="2.5" ry="2.5" style="stroke:#181818;stroke-width:0.5;" width="120.1582" x="368.81" y="55.5977"/><ellipse cx="394.759" cy="71.5977" fill="#7E57C2" rx="11" ry="11" style="stroke:#181818;stroke-width:1;"/><path d="M391.9465,77.5977 L395.1652,77.5977 C398.2433,77.5977 400.3527,75.8164 400.3527,72.0039 C400.3527,68.1914 398.2433,66.5195 395.009,66.5195 L391.9465,66.5195 L391.9465,77.5977 Z M394.4621,75.582 L394.4621,68.5352 L394.8683,68.5352 C396.6027,68.5352 397.7746,69.3477 397.7746,72.0039 C397.7746,74.6602 396.6027,75.582 394.8683,75.582 L394.4621,75.582 Z " fill="#000000"/><text fill="#000000" font-family="sans-serif" font-size="14" lengthAdjust="spacing" textLength="63.8271" x="411.1921" y="76.6802">evaluation</text><line style="stroke:#181818;stroke-width:0.5;" x1="369.81" x2="487.9682" y1="87.5977" y2="87.5977"/><text fill="#000000" font-family="sans-serif" font-size="14" lengthAdjust="spacing" textLength="44.3584" x="374.81" y="104.7295">subject</text><text fill="#000000" font-family="sans-serif" font-size="14" lengthAdjust="spacing" textLength="57.5586" x="374.81" y="120.8281">summary</text><text fill="#000000" font-family="sans-serif" font-size="14" lengthAdjust="spacing" textLength="72.3721" x="374.81" y="136.9268">evaluators[]</text><text fill="#000000" font-family="sans-serif" font-size="14" lengthAdjust="spacing" textLength="71.6064" x="374.81" y="153.0254">evidence[]?</text><text fill="#000000" font-family="sans-serif" font-size="14" lengthAdjust="spacing" textLength="56.041" x="374.81" y="169.124">location?</text><text fill="#000000" font-family="sans-serif" font-size="14" lengthAdjust="spacing" textLength="108.1582" x="374.81" y="185.2227">measurements[]?</text><text fill="#000000" font-family="sans-serif" font-size="14" lengthAdjust="spacing" textLength="59.9238" x="374.81" y="201.3213">createdAt</text></g><!--class contribution--><g class="entity" data-entity="contribution" data-source-line="110" data-uid="ent0007" id="entity_contribution"><rect fill="#F1F1F1" height="136.5918" rx="2.5" ry="2.5" style="stroke:#181818;stroke-width:0.5;" width="104.3789" x="98.81" y="848.5977"/><ellipse cx="113.81" cy="864.5977" fill="#7E57C2" rx="11" ry="11" style="stroke:#181818;stroke-width:1;"/><path d="M110.9975,870.5977 L114.2163,870.5977 C117.2944,870.5977 119.4038,868.8164 119.4038,865.0039 C119.4038,861.1914 117.2944,859.5195 114.06,859.5195 L110.9975,859.5195 L110.9975,870.5977 Z M113.5131,868.582 L113.5131,861.5352 L113.9194,861.5352 C115.6538,861.5352 116.8256,862.3477 116.8256,865.0039 C116.8256,867.6602 115.6538,868.582 113.9194,868.582 L113.5131,868.582 Z " fill="#000000"/><text fill="#000000" font-family="sans-serif" font-size="14" lengthAdjust="spacing" textLength="72.3789" x="127.81" y="869.6802">contribution</text><line style="stroke:#181818;stroke-width:0.5;" x1="99.81" x2="202.1889" y1="880.5977" y2="880.5977"/><text fill="#000000" font-family="sans-serif" font-size="14" lengthAdjust="spacing" textLength="31.1309" x="104.81" y="897.7295">role?</text><text fill="#000000" font-family="sans-serif" font-size="14" lengthAdjust="spacing" textLength="80.9238" x="104.81" y="913.8281">contributors[]</text><text fill="#000000" font-family="sans-serif" font-size="14" lengthAdjust="spacing" textLength="75.4893" x="104.81" y="929.9268">description?</text><text fill="#000000" font-family="sans-serif" font-size="14" lengthAdjust="spacing" textLength="56.7998" x="104.81" y="946.0254">startDate</text><text fill="#000000" font-family="sans-serif" font-size="14" lengthAdjust="spacing" textLength="52.9307" x="104.81" y="962.124">endDate</text><text fill="#000000" font-family="sans-serif" font-size="14" lengthAdjust="spacing" textLength="59.9238" x="104.81" y="978.2227">createdAt</text></g><!--class location--><g class="entity" data-entity="location" data-source-line="122" data-uid="ent0008" id="entity_location"><rect fill="#F1F1F1" height="152.6904" rx="2.5" ry="2.5" style="stroke:#181818;stroke-width:0.5;" width="91.3789" x="500.12" y="1077.5977"/><ellipse cx="520.1258" cy="1093.5977" fill="#7E57C2" rx="11" ry="11" style="stroke:#181818;stroke-width:1;"/><path d="M517.3133,1099.5977 L520.5321,1099.5977 C523.6102,1099.5977 525.7196,1097.8164 525.7196,1094.0039 C525.7196,1090.1914 523.6102,1088.5195 520.3758,1088.5195 L517.3133,1088.5195 L517.3133,1099.5977 Z M519.8289,1097.582 L519.8289,1090.5352 L520.2352,1090.5352 C521.9696,1090.5352 523.1414,1091.3477 523.1414,1094.0039 C523.1414,1096.6602 521.9696,1097.582 520.2352,1097.582 L519.8289,1097.582 Z " fill="#000000"/><text fill="#000000" font-family="sans-serif" font-size="14" lengthAdjust="spacing" textLength="48.2549" x="535.2382" y="1098.6802">location</text><line style="stroke:#181818;stroke-width:0.5;" x1="501.12" x2="590.4989" y1="1109.5977" y2="1109.5977"/><text fill="#000000" font-family="sans-serif" font-size="14" lengthAdjust="spacing" textLength="58.3652" x="506.12" y="1126.7295">lpVersion</text><text fill="#000000" font-family="sans-serif" font-size="14" lengthAdjust="spacing" textLength="18.6621" x="506.12" y="1142.8281">srs</text><text fill="#000000" font-family="sans-serif" font-size="14" lengthAdjust="spacing" textLength="79.3789" x="506.12" y="1158.9268">locationType</text><text fill="#000000" font-family="sans-serif" font-size="14" lengthAdjust="spacing" textLength="48.2549" x="506.12" y="1175.0254">location</text><text fill="#000000" font-family="sans-serif" font-size="14" lengthAdjust="spacing" textLength="42.8066" x="506.12" y="1191.124">name?</text><text fill="#000000" font-family="sans-serif" font-size="14" lengthAdjust="spacing" textLength="75.4893" x="506.12" y="1207.2227">description?</text><text fill="#000000" font-family="sans-serif" font-size="14" lengthAdjust="spacing" textLength="59.9238" x="506.12" y="1223.3213">createdAt</text></g><!--class rights--><g class="entity" data-entity="rights" data-source-line="135" data-uid="ent0009" id="entity_rights"><rect fill="#F1F1F1" height="120.4932" rx="2.5" ry="2.5" style="stroke:#181818;stroke-width:0.5;" width="116.2617" x="226.68" y="1093.6977"/><ellipse cx="264.1923" cy="1109.6977" fill="#7E57C2" rx="11" ry="11" style="stroke:#181818;stroke-width:1;"/><path d="M261.3798,1115.6977 L264.5986,1115.6977 C267.6767,1115.6977 269.7861,1113.9164 269.7861,1110.1039 C269.7861,1106.2914 267.6767,1104.6195 264.4423,1104.6195 L261.3798,1104.6195 L261.3798,1115.6977 Z M263.8954,1113.682 L263.8954,1106.6352 L264.3017,1106.6352 C266.0361,1106.6352 267.2079,1107.4477 267.2079,1110.1039 C267.2079,1112.7602 266.0361,1113.682 264.3017,1113.682 L263.8954,1113.682 Z " fill="#000000"/><text fill="#000000" font-family="sans-serif" font-size="14" lengthAdjust="spacing" textLength="34.2344" x="283.195" y="1114.7802">rights</text><line style="stroke:#181818;stroke-width:0.5;" x1="227.68" x2="341.9417" y1="1125.6977" y2="1125.6977"/><text fill="#000000" font-family="sans-serif" font-size="14" lengthAdjust="spacing" textLength="71.5791" x="232.68" y="1142.8295">rightsName</text><text fill="#000000" font-family="sans-serif" font-size="14" lengthAdjust="spacing" textLength="65.3584" x="232.68" y="1158.9281">rightsType</text><text fill="#000000" font-family="sans-serif" font-size="14" lengthAdjust="spacing" textLength="104.2617" x="232.68" y="1175.0268">rightsDescription</text><text fill="#000000" font-family="sans-serif" font-size="14" lengthAdjust="spacing" textLength="77.0479" x="232.68" y="1191.1254">attachment?</text><text fill="#000000" font-family="sans-serif" font-size="14" lengthAdjust="spacing" textLength="59.9238" x="232.68" y="1207.224">createdAt</text></g><!--class collection--><g class="entity" data-entity="collection" data-source-line="146" data-uid="ent0010" id="entity_collection"><rect fill="#F1F1F1" height="136.5918" rx="2.5" ry="2.5" style="stroke:#181818;stroke-width:0.5;" width="120.9375" x="326.81" y="300.5977"/><ellipse cx="355.5675" cy="316.5977" fill="#7E57C2" rx="11" ry="11" style="stroke:#181818;stroke-width:1;"/><path d="M352.755,322.5977 L355.9738,322.5977 C359.0519,322.5977 361.1613,320.8164 361.1613,317.0039 C361.1613,313.1914 359.0519,311.5195 355.8175,311.5195 L352.755,311.5195 L352.755,322.5977 Z M355.2706,320.582 L355.2706,313.5352 L355.6769,313.5352 C357.4113,313.5352 358.5831,314.3477 358.5831,317.0039 C358.5831,319.6602 357.4113,320.582 355.6769,320.582 L355.2706,320.582 Z " fill="#000000"/><text fill="#000000" font-family="sans-serif" font-size="14" lengthAdjust="spacing" textLength="58.3652" x="372.6247" y="321.6802">collection</text><line style="stroke:#181818;stroke-width:0.5;" x1="327.81" x2="446.7475" y1="332.5977" y2="332.5977"/><text fill="#000000" font-family="sans-serif" font-size="14" lengthAdjust="spacing" textLength="21.7861" x="332.81" y="349.7295">title</text><text fill="#000000" font-family="sans-serif" font-size="14" lengthAdjust="spacing" textLength="108.9375" x="332.81" y="365.8281">shortDescription?</text><text fill="#000000" font-family="sans-serif" font-size="14" lengthAdjust="spacing" textLength="46.6963" x="332.81" y="381.9268">avatar?</text><text fill="#000000" font-family="sans-serif" font-size="14" lengthAdjust="spacing" textLength="78.6064" x="332.81" y="398.0254">coverPhoto?</text><text fill="#000000" font-family="sans-serif" font-size="14" lengthAdjust="spacing" textLength="61.4619" x="332.81" y="414.124">activities[]</text><text fill="#000000" font-family="sans-serif" font-size="14" lengthAdjust="spacing" textLength="59.9238" x="332.81" y="430.2227">createdAt</text></g><!--class project--><g class="entity" data-entity="project" data-source-line="158" data-uid="ent0011" id="entity_project"><rect fill="#F1F1F1" height="168.7891" rx="2.5" ry="2.5" style="stroke:#181818;stroke-width:0.5;" width="113.1514" x="335.31" y="832.5977"/><ellipse cx="367.9189" cy="848.5977" fill="#7E57C2" rx="11" ry="11" style="stroke:#181818;stroke-width:1;"/><path d="M365.1064,854.5977 L368.3251,854.5977 C371.4033,854.5977 373.5126,852.8164 373.5126,849.0039 C373.5126,845.1914 371.4033,843.5195 368.1689,843.5195 L365.1064,843.5195 L365.1064,854.5977 Z M367.622,852.582 L367.622,845.5352 L368.0283,845.5352 C369.7626,845.5352 370.9345,846.3477 370.9345,849.0039 C370.9345,851.6602 369.7626,852.582 368.0283,852.582 L367.622,852.582 Z " fill="#000000"/><text fill="#000000" font-family="sans-serif" font-size="14" lengthAdjust="spacing" textLength="42.0205" x="385.832" y="853.6802">project</text><line style="stroke:#181818;stroke-width:0.5;" x1="336.31" x2="447.4614" y1="864.5977" y2="864.5977"/><text fill="#000000" font-family="sans-serif" font-size="14" lengthAdjust="spacing" textLength="21.7861" x="341.31" y="881.7295">title</text><text fill="#000000" font-family="sans-serif" font-size="14" lengthAdjust="spacing" textLength="101.1514" x="341.31" y="897.8281">shortDescription</text><text fill="#000000" font-family="sans-serif" font-size="14" lengthAdjust="spacing" textLength="75.4893" x="341.31" y="913.9268">description?</text><text fill="#000000" font-family="sans-serif" font-size="14" lengthAdjust="spacing" textLength="46.6963" x="341.31" y="930.0254">avatar?</text><text fill="#000000" font-family="sans-serif" font-size="14" lengthAdjust="spacing" textLength="78.6064" x="341.31" y="946.124">coverPhoto?</text><text fill="#000000" font-family="sans-serif" font-size="14" lengthAdjust="spacing" textLength="69.248" x="341.31" y="962.2227">activities[]?</text><text fill="#000000" font-family="sans-serif" font-size="14" lengthAdjust="spacing" textLength="56.041" x="341.31" y="978.3213">location?</text><text fill="#000000" font-family="sans-serif" font-size="14" lengthAdjust="spacing" textLength="59.9238" x="341.31" y="994.4199">createdAt</text></g><!--class token--><g class="entity" data-entity="token" data-source-line="174" data-uid="ent0012" id="entity_token"><rect fill="#FFB6C1" height="65.0967" rx="2.5" ry="2.5" style="stroke:#181818;stroke-width:0.5;" width="104.5996" x="423.51" y="614.0477"/><ellipse cx="447.1769" cy="630.5467" fill="#F1F1F1" rx="11" ry="11" style="stroke:#181818;stroke-width:1;"/><path d="M443.9581,636.5467 L446.4581,636.5467 L446.4581,632.7967 L447.88,632.7967 C450.2238,632.7967 452.2081,631.6404 452.2081,629.0311 C452.2081,626.3436 450.2706,625.4686 447.88,625.4686 L443.9581,625.4686 L443.9581,636.5467 Z M446.4581,630.7967 L446.4581,627.4529 L447.7238,627.4529 C449.0519,627.4529 449.7706,627.8748 449.7706,629.0311 C449.7706,630.1873 449.0988,630.7967 447.7238,630.7967 L446.4581,630.7967 Z " fill="#000000"/><text fill="#000000" font-family="sans-serif" font-size="20" font-weight="bold" lengthAdjust="spacing" textLength="53.3398" x="463.1029" y="637.8074">token</text><line style="stroke:#181818;stroke-width:0.5;" x1="424.51" x2="527.1096" y1="647.0457" y2="647.0457"/><line style="stroke:#181818;stroke-width:0.5;" x1="424.51" x2="527.1096" y1="655.0457" y2="655.0457"/><text fill="#000000" font-family="sans-serif" font-size="14" lengthAdjust="spacing" textLength="92.5996" x="429.51" y="672.1775">(on-chain only)</text></g><!--link activity to contribution--><g class="link" data-entity-1="activity" data-entity-2="contribution" data-source-line="180" data-uid="lnk13" id="link_activity_contribution"><path codeLine="180" d="M223.31,686.5977 C156.07,686.5977 144.6942,771.4581 145.5442,838.7081" fill="none" id="activity-to-contribution" style="stroke:#666666;stroke-width:1;"/><polygon fill="#666666" points="145.62,844.7077,149.5059,835.6578,145.5568,839.7081,141.5066,835.7589,145.62,844.7077" style="stroke:#666666;stroke-width:1;"/></g><!--link activity to rights--><g class="link" data-entity-1="activity" data-entity-2="rights" data-source-line="181" data-uid="lnk14" id="link_activity_rights"><path codeLine="181" d="M223.31,718.5977 C204.61,718.5977 249.7344,968.6123 272.2444,1087.5623" fill="none" id="activity-to-rights" style="stroke:#666666;stroke-width:1;"/><polygon fill="#666666" points="273.36,1093.4577,275.6168,1083.8708,272.4303,1088.5448,267.7563,1085.3584,273.36,1093.4577" style="stroke:#666666;stroke-width:1;"/></g><!--link activity to location--><g class="link" data-entity-1="activity" data-entity-2="location" data-source-line="182" data-uid="lnk15" id="link_activity_location"><path codeLine="182" d="M338.31,702.5977 C379.96,702.5977 375.31,739.2477 405.81,767.5977 C435.55,795.2377 453.32,793.5477 473.81,828.5977 C518.94,905.7777 535.2642,1002.4225 541.5642,1071.3925" fill="none" id="activity-to-location" style="stroke:#666666;stroke-width:1;"/><polygon fill="#666666" points="542.11,1077.3677,545.2747,1068.0411,541.6552,1072.3884,537.3079,1068.7688,542.11,1077.3677" style="stroke:#666666;stroke-width:1;"/></g><!--link activity to project--><g class="link" data-entity-1="activity" data-entity-2="project" data-source-line="183" data-uid="lnk16" id="link_activity_project"><path codeLine="183" d="M338.31,734.5977 C381.4,734.5977 394.0317,776.3656 396.4217,822.8156" fill="none" id="activity-to-project" style="stroke:#666666;stroke-width:1;"/><polygon fill="#666666" points="396.73,828.8077,400.2622,819.614,396.4731,823.8143,392.2728,820.0251,396.73,828.8077" style="stroke:#666666;stroke-width:1;"/></g><!--link evidence to activity--><g class="link" data-entity-1="evidence" data-entity-2="activity" data-source-line="184" data-uid="lnk17" id="link_evidence_activity"><path codeLine="184" d="M276.81,344.5977 C295.82,344.5977 294.8533,435.8369 290.1833,519.7769" fill="none" id="evidence-to-activity" style="stroke:#666666;stroke-width:1;"/><polygon fill="#666666" points="289.85,525.7677,294.3438,517.0037,290.1277,520.7754,286.3561,516.5594,289.85,525.7677" style="stroke:#666666;stroke-width:1;"/></g><!--link measurement to activity--><g class="link" data-entity-1="measurement" data-entity-2="activity" data-source-line="185" data-uid="lnk18" id="link_measurement_activity"><path codeLine="185" d="M497.31,320.5977 C464.85,320.5977 487.94,435.8777 472.81,464.5977 C463.58,482.1177 455.45,482.2577 440.81,495.5977 C425.67,509.3977 420.99,511.8277 405.81,525.5977 C385.76,543.7877 368.6846,559.8586 349.3546,578.4486" fill="none" id="measurement-to-activity" style="stroke:#666666;stroke-width:1;"/><polygon fill="#666666" points="345.03,582.6077,354.2896,579.2521,348.6338,579.1418,348.7442,573.486,345.03,582.6077" style="stroke:#666666;stroke-width:1;"/></g><!--link measurement to location--><g class="link" data-entity-1="measurement" data-entity-2="location" data-source-line="186" data-uid="lnk19" id="link_measurement_location"><path codeLine="186" d="M616.31,432.5977 C680.56,432.5977 598.321,886.3791 562.171,1071.3291" fill="none" id="measurement-to-location" style="stroke:#666666;stroke-width:1;"/><polygon fill="#666666" points="561.02,1077.2177,566.6722,1069.1521,561.9791,1072.3105,558.8207,1067.6175,561.02,1077.2177" style="stroke:#666666;stroke-width:1;"/></g><!--link evaluation to evidence--><g class="link" data-entity-1="evaluation" data-entity-2="evidence" data-source-line="187" data-uid="lnk20" id="link_evaluation_evidence"><path codeLine="187" d="M367.81,147.5977 C294,147.5977 255.0453,226.7457 234.7553,291.0557" fill="none" id="evaluation-to-evidence" style="stroke:#666666;stroke-width:1;"/><polygon fill="#666666" points="232.95,296.7777,239.4726,289.3982,234.4544,292.0094,231.8433,286.9912,232.95,296.7777" style="stroke:#666666;stroke-width:1;"/></g><!--link evaluation to measurement--><g class="link" data-entity-1="evaluation" data-entity-2="measurement" data-source-line="188" data-uid="lnk21" id="link_evaluation_measurement"><path codeLine="188" d="M489.81,179.5977 C533.91,179.5977 549.9858,220.0927 555.7458,266.8127" fill="none" id="evaluation-to-measurement" style="stroke:#666666;stroke-width:1;"/><polygon fill="#666666" points="556.48,272.7677,559.3487,263.3458,555.8682,267.8052,551.4088,264.3247,556.48,272.7677" style="stroke:#666666;stroke-width:1;"/></g><!--link evaluation to activity--><g class="link" data-entity-1="evaluation" data-entity-2="activity" data-source-line="189" data-uid="lnk22" id="link_evaluation_activity"><path codeLine="189" d="M367.81,99.5977 C237.04,99.5977 189.17,156.0777 129.81,272.5977 C91.08,348.6377 100.74,384.3677 129.81,464.5977 C147.24,512.6877 179.4093,552.7231 212.1093,585.4531" fill="none" id="evaluation-to-activity" style="stroke:#666666;stroke-width:1;"/><polygon fill="#666666" points="216.35,589.6977,212.8187,580.5036,212.8161,586.1605,207.1592,586.1579,216.35,589.6977" style="stroke:#666666;stroke-width:1;"/></g><!--link evaluation to location--><g class="link" data-entity-1="evaluation" data-entity-2="location" data-source-line="190" data-uid="lnk23" id="link_evaluation_location"><path codeLine="190" d="M489.81,163.5977 C612.81,163.5977 676.81,244.5977 676.81,367.5977 C303.81,1230.2877 303.81,1230.2877 676.81,917.5977 C676.81,989.3777 633.5738,1055.0974 595.8638,1099.8974" fill="none" id="evaluation-to-location" style="stroke:#666666;stroke-width:1;"/><polygon fill="#666666" points="592,1104.4877,600.8559,1100.1781,595.2199,1100.6624,594.7356,1095.0263,592,1104.4877" style="stroke:#666666;stroke-width:1;"/></g><!--link collection to activity--><g class="link" data-entity-1="collection" data-entity-2="activity" data-source-line="191" data-uid="lnk24" id="link_collection_activity"><path codeLine="191" d="M447.81,408.5977 C489.28,408.5977 412.2268,502.3006 349.1668,572.2706" fill="none" id="collection-to-activity" style="stroke:#666666;stroke-width:1;"/><polygon fill="#666666" points="345.15,576.7277,354.1466,572.72,348.4974,573.0135,348.2039,567.3642,345.15,576.7277" style="stroke:#666666;stroke-width:1;"/></g><!--link project to location--><g class="link" data-entity-1="project" data-entity-2="location" data-source-line="193" data-uid="lnk26" id="link_project_location"><path codeLine="193" d="M449.31,972.5977 C486,972.5977 466.82,1015.0777 483.81,1047.5977 C488.88,1057.2877 491.4474,1062.1201 497.0574,1072.0001" fill="none" id="project-to-location" style="stroke:#666666;stroke-width:1;"/><polygon fill="#666666" points="500.02,1077.2177,499.0545,1067.4162,497.5512,1072.8697,492.0977,1071.3664,500.02,1077.2177" style="stroke:#666666;stroke-width:1;"/></g><!--reverse link activity to token--><g class="link" data-entity-1="activity" data-entity-2="token" data-source-line="194" data-uid="lnk28" id="link_activity_token"><path codeLine="194" d="M351.2,646.5977 C376.5,646.5977 399.16,646.5977 423.18,646.5977" fill="none" id="activity-backto-token" style="stroke:#666666;stroke-width:1;"/><polygon fill="#666666" points="345.2,646.5977,354.2,650.5977,350.2,646.5977,354.2,642.5977,345.2,646.5977" style="stroke:#666666;stroke-width:1;"/><text fill="#666666" font-family="sans-serif" font-size="10" lengthAdjust="spacing" textLength="42.2461" x="363.41" y="640.9775">tokenizes</text></g><!--link contribution to contributor--><g class="link" data-entity-1="contribution" data-entity-2="contributor" data-source-line="195" data-uid="lnk29" id="link_contribution_contributor"><path codeLine="195" d="M97.81,908.5977 C11.66,908.5977 55.7182,1056.5886 78.4882,1120.2086" fill="none" id="contribution-to-contributor" style="stroke:#666666;stroke-width:1;"/><polygon fill="#666666" points="80.51,1125.8577,81.2433,1116.0361,78.8251,1121.1501,73.7112,1118.7319,80.51,1125.8577" style="stroke:#666666;stroke-width:1;"/><text fill="#666666" font-family="sans-serif" font-size="10" lengthAdjust="spacing" textLength="38.3545" x="57.11" y="1044.9775">made by</text></g><!--link contributor to rights--><g class="link" data-entity-1="contributor" data-entity-2="rights" data-source-line="196" data-uid="lnk30" id="link_contributor_rights"><path codeLine="196" d="M175.06,1153.9377 C192.34,1153.9377 204.17,1153.9377 220.31,1153.9377" fill="none" id="contributor-to-rights" style="stroke:#666666;stroke-width:1;"/><polygon fill="#666666" points="226.31,1153.9377,217.31,1149.9377,221.31,1153.9377,217.31,1157.9377,226.31,1153.9377" style="stroke:#666666;stroke-width:1;"/><text fill="#666666" font-family="sans-serif" font-size="10" lengthAdjust="spacing" textLength="16.123" x="192.65" y="1148.3175">has</text></g><!--SRC=[Kqn9JSlCIrK8zl0FZtVpTFLn2LOeAIfDvU9IpCnBpYbDILLm3NBHAoZDpU420000]--></g></svg>