<svg xmlns="http://www.w3.org/2000/svg" xmlns:xlink="http://www.w3.org/1999/xlink" contentStyleType="text/css" data-diagram-type="CLASS" height="1335px" preserveAspectRatio="none" style="width:1136px;height:1335px;background:#FFFFFF;" version="1.1" viewBox="0 0 1136 1335" width="1136px" zoomAndPan="magnify"><title>Hypercert ERD</title><defs/><g><g class="title" data-source-line="7"><text fill="#000000" font-family="sans-serif" font-size="24" font-weight="bold" lengthAdjust="spacing" textLength="169.3945" x="476.7241" y="32.5117">Hypercert ERD</text></g><!--class contributor--><g class="entity" data-entity="contributor" data-source-line="47" data-uid="ent0002" id="entity_contributor"><rect fill="#FFD4A3" height="56.0986" rx="2.5" ry="2.5" style="stroke:#181818;stroke-width:0.5;" width="167.627" x="65.93" y="695.5477"/><ellipse cx="112.4212" cy="711.5477" fill="#ADD1B2" rx="11" ry="11" style="stroke:#181818;stroke-width:1;"/><path d="M108.4837,717.5477 L115.9993,717.5477 L115.9993,715.4383 L110.9993,715.4383 L110.9993,712.8914 L115.0931,712.8914 L115.0931,710.7977 L110.9993,710.7977 L110.9993,708.5789 L115.8275,708.5789 L115.8275,706.4695 L108.4837,706.4695 L108.4837,717.5477 Z " fill="#000000"/><text fill="#000000" font-family="sans-serif" font-size="14" lengthAdjust="spacing" textLength="66.1445" x="132.9212" y="716.6302">contributor</text><line style="stroke:#181818;stroke-width:0.5;" x1="66.93" x2="232.557" y1="727.5477" y2="727.5477"/><text fill="#000000" font-family="sans-serif" font-size="14" lengthAdjust="spacing" textLength="155.627" x="71.93" y="744.6795">DID or name/pseudonym</text></g><!--class activity--><g class="entity" data-entity="activity" data-source-line="55" data-uid="ent0003" id="entity_activity"><rect fill="#B4E5D0" height="234.1816" rx="2.5" ry="2.5" style="stroke:#181818;stroke-width:0.5;" width="113.1514" x="624.25" y="606.5977"/><ellipse cx="644.7515" cy="623.0967" fill="#7E57C2" rx="11" ry="11" style="stroke:#181818;stroke-width:1;"/><path d="M641.939,629.0967 L645.1578,629.0967 C648.2359,629.0967 650.3453,627.3154 650.3453,623.5029 C650.3453,619.6904 648.2359,618.0186 645.0015,618.0186 L641.939,618.0186 L641.939,629.0967 Z M644.4546,627.0811 L644.4546,620.0342 L644.8609,620.0342 C646.5953,620.0342 647.7671,620.8467 647.7671,623.5029 C647.7671,626.1592 646.5953,627.0811 644.8609,627.0811 L644.4546,627.0811 Z " fill="#000000"/><text fill="#000000" font-family="sans-serif" font-size="20" font-weight="bold" lengthAdjust="spacing" textLength="68.9258" x="659.9741" y="630.3574">activity</text><line style="stroke:#181818;stroke-width:0.5;" x1="625.25" x2="736.4014" y1="639.5957" y2="639.5957"/><text fill="#000000" font-family="sans-serif" font-size="14" lengthAdjust="spacing" textLength="21.7861" x="630.25" y="656.7275">title</text><text fill="#000000" font-family="sans-serif" font-size="14" lengthAdjust="spacing" textLength="101.1514" x="630.25" y="672.8262">shortDescription</text><text fill="#000000" font-family="sans-serif" font-size="14" lengthAdjust="spacing" textLength="75.4893" x="630.25" y="688.9248">description?</text><text fill="#000000" font-family="sans-serif" font-size="14" lengthAdjust="spacing" textLength="45.917" x="630.25" y="705.0234">image?</text><text fill="#000000" font-family="sans-serif" font-size="14" lengthAdjust="spacing" textLength="77.041" x="630.25" y="721.1221">workScope?</text><text fill="#000000" font-family="sans-serif" font-size="14" lengthAdjust="spacing" textLength="56.7998" x="630.25" y="737.2207">startDate</text><text fill="#000000" font-family="sans-serif" font-size="14" lengthAdjust="spacing" textLength="52.9307" x="630.25" y="753.3193">endDate</text><text fill="#000000" font-family="sans-serif" font-size="14" lengthAdjust="spacing" textLength="94.9443" x="630.25" y="769.418">contributions[]?</text><text fill="#000000" font-family="sans-serif" font-size="14" lengthAdjust="spacing" textLength="56.041" x="630.25" y="785.5166">location?</text><text fill="#000000" font-family="sans-serif" font-size="14" lengthAdjust="spacing" textLength="42.0205" x="630.25" y="801.6152">rights?</text><text fill="#000000" font-family="sans-serif" font-size="14" lengthAdjust="spacing" textLength="49.8066" x="630.25" y="817.7139">project?</text><text fill="#000000" font-family="sans-serif" font-size="14" lengthAdjust="spacing" textLength="59.9238" x="630.25" y="833.8125">createdAt</text></g><!--class evidence--><g class="entity" data-entity="evidence" data-source-line="73" data-uid="ent0004" id="entity_evidence"><rect fill="#F1F1F1" height="152.6904" rx="2.5" ry="2.5" style="stroke:#181818;stroke-width:0.5;" width="120.9375" x="722.75" y="357.5977"/><ellipse cx="752.5534" cy="373.5977" fill="#7E57C2" rx="11" ry="11" style="stroke:#181818;stroke-width:1;"/><path d="M749.7409,379.5977 L752.9597,379.5977 C756.0378,379.5977 758.1472,377.8164 758.1472,374.0039 C758.1472,370.1914 756.0378,368.5195 752.8034,368.5195 L749.7409,368.5195 L749.7409,379.5977 Z M752.2565,377.582 L752.2565,370.5352 L752.6628,370.5352 C754.3972,370.5352 755.569,371.3477 755.569,374.0039 C755.569,376.6602 754.3972,377.582 752.6628,377.582 L752.2565,377.582 Z " fill="#000000"/><text fill="#000000" font-family="sans-serif" font-size="14" lengthAdjust="spacing" textLength="56.041" x="769.8431" y="378.6802">evidence</text><line style="stroke:#181818;stroke-width:0.5;" x1="723.75" x2="842.6875" y1="389.5977" y2="389.5977"/><text fill="#000000" font-family="sans-serif" font-size="14" lengthAdjust="spacing" textLength="52.1445" x="728.75" y="406.7295">subject?</text><text fill="#000000" font-family="sans-serif" font-size="14" lengthAdjust="spacing" textLength="45.9238" x="728.75" y="422.8281">content</text><text fill="#000000" font-family="sans-serif" font-size="14" lengthAdjust="spacing" textLength="21.7861" x="728.75" y="438.9268">title</text><text fill="#000000" font-family="sans-serif" font-size="14" lengthAdjust="spacing" textLength="108.9375" x="728.75" y="455.0254">shortDescription?</text><text fill="#000000" font-family="sans-serif" font-size="14" lengthAdjust="spacing" textLength="75.4893" x="728.75" y="471.124">description?</text><text fill="#000000" font-family="sans-serif" font-size="14" lengthAdjust="spacing" textLength="84.8271" x="728.75" y="487.2227">relationType?</text><text fill="#000000" font-family="sans-serif" font-size="14" lengthAdjust="spacing" textLength="59.9238" x="728.75" y="503.3213">createdAt</text></g><!--class measurement--><g class="entity" data-entity="measurement" data-source-line="86" data-uid="ent0005" id="entity_measurement"><rect fill="#F1F1F1" height="184.8877" rx="2.5" ry="2.5" style="stroke:#181818;stroke-width:0.5;" width="117.5928" x="1012.25" y="341.5977"/><ellipse cx="1027.25" cy="357.5977" fill="#7E57C2" rx="11" ry="11" style="stroke:#181818;stroke-width:1;"/><path d="M1024.4375,363.5977 L1027.6563,363.5977 C1030.7344,363.5977 1032.8438,361.8164 1032.8438,358.0039 C1032.8438,354.1914 1030.7344,352.5195 1027.5,352.5195 L1024.4375,352.5195 L1024.4375,363.5977 Z M1026.9531,361.582 L1026.9531,354.5352 L1027.3594,354.5352 C1029.0938,354.5352 1030.2656,355.3477 1030.2656,358.0039 C1030.2656,360.6602 1029.0938,361.582 1027.3594,361.582 L1026.9531,361.582 Z " fill="#000000"/><text fill="#000000" font-family="sans-serif" font-size="14" lengthAdjust="spacing" textLength="85.5928" x="1041.25" y="362.6802">measurement</text><line style="stroke:#181818;stroke-width:0.5;" x1="1013.25" x2="1128.8428" y1="373.5977" y2="373.5977"/><text fill="#000000" font-family="sans-serif" font-size="14" lengthAdjust="spacing" textLength="52.1445" x="1018.25" y="390.7295">subject?</text><text fill="#000000" font-family="sans-serif" font-size="14" lengthAdjust="spacing" textLength="73.9102" x="1018.25" y="406.8281">measurers[]</text><text fill="#000000" font-family="sans-serif" font-size="14" lengthAdjust="spacing" textLength="38.1104" x="1018.25" y="422.9268">metric</text><text fill="#000000" font-family="sans-serif" font-size="14" lengthAdjust="spacing" textLength="33.4688" x="1018.25" y="439.0254">value</text><text fill="#000000" font-family="sans-serif" font-size="14" lengthAdjust="spacing" textLength="85.6064" x="1018.25" y="455.124">methodType?</text><text fill="#000000" font-family="sans-serif" font-size="14" lengthAdjust="spacing" textLength="78.5928" x="1018.25" y="471.2227">methodURI?</text><text fill="#000000" font-family="sans-serif" font-size="14" lengthAdjust="spacing" textLength="95.7168" x="1018.25" y="487.3213">evidenceURI[]?</text><text fill="#000000" font-family="sans-serif" font-size="14" lengthAdjust="spacing" textLength="56.041" x="1018.25" y="503.4199">location?</text><text fill="#000000" font-family="sans-serif" font-size="14" lengthAdjust="spacing" textLength="59.9238" x="1018.25" y="519.5186">createdAt</text></g><!--class evaluation--><g class="entity" data-entity="evaluation" data-source-line="101" data-uid="ent0006" id="entity_evaluation"><rect fill="#F1F1F1" height="168.7891" rx="2.5" ry="2.5" style="stroke:#181818;stroke-width:0.5;" width="120.1582" x="863.75" y="80.0977"/><ellipse cx="889.699" cy="96.0977" fill="#7E57C2" rx="11" ry="11" style="stroke:#181818;stroke-width:1;"/><path d="M886.8865,102.0977 L890.1052,102.0977 C893.1833,102.0977 895.2927,100.3164 895.2927,96.5039 C895.2927,92.6914 893.1833,91.0195 889.949,91.0195 L886.8865,91.0195 L886.8865,102.0977 Z M889.4021,100.082 L889.4021,93.0352 L889.8083,93.0352 C891.5427,93.0352 892.7146,93.8477 892.7146,96.5039 C892.7146,99.1602 891.5427,100.082 889.8083,100.082 L889.4021,100.082 Z " fill="#000000"/><text fill="#000000" font-family="sans-serif" font-size="14" lengthAdjust="spacing" textLength="63.8271" x="906.1321" y="101.1802">evaluation</text><line style="stroke:#181818;stroke-width:0.5;" x1="864.75" x2="982.9082" y1="112.0977" y2="112.0977"/><text fill="#000000" font-family="sans-serif" font-size="14" lengthAdjust="spacing" textLength="52.1445" x="869.75" y="129.2295">subject?</text><text fill="#000000" font-family="sans-serif" font-size="14" lengthAdjust="spacing" textLength="57.5586" x="869.75" y="145.3281">summary</text><text fill="#000000" font-family="sans-serif" font-size="14" lengthAdjust="spacing" textLength="72.3721" x="869.75" y="161.4268">evaluators[]</text><text fill="#000000" font-family="sans-serif" font-size="14" lengthAdjust="spacing" textLength="61.4893" x="869.75" y="177.5254">content[]?</text><text fill="#000000" font-family="sans-serif" font-size="14" lengthAdjust="spacing" textLength="108.1582" x="869.75" y="193.624">measurements[]?</text><text fill="#000000" font-family="sans-serif" font-size="14" lengthAdjust="spacing" textLength="34.2344" x="869.75" y="209.7227">score</text><text fill="#000000" font-family="sans-serif" font-size="14" lengthAdjust="spacing" textLength="56.041" x="869.75" y="225.8213">location?</text><text fill="#000000" font-family="sans-serif" font-size="14" lengthAdjust="spacing" textLength="59.9238" x="869.75" y="241.9199">createdAt</text></g><!--class contribution--><g class="entity" data-entity="contribution" data-source-line="115" data-uid="ent0007" id="entity_contribution"><rect fill="#F1F1F1" height="136.5918" rx="2.5" ry="2.5" style="stroke:#181818;stroke-width:0.5;" width="104.3789" x="97.75" y="365.5977"/><ellipse cx="112.75" cy="381.5977" fill="#7E57C2" rx="11" ry="11" style="stroke:#181818;stroke-width:1;"/><path d="M109.9375,387.5977 L113.1563,387.5977 C116.2344,387.5977 118.3438,385.8164 118.3438,382.0039 C118.3438,378.1914 116.2344,376.5195 113,376.5195 L109.9375,376.5195 L109.9375,387.5977 Z M112.4531,385.582 L112.4531,378.5352 L112.8594,378.5352 C114.5938,378.5352 115.7656,379.3477 115.7656,382.0039 C115.7656,384.6602 114.5938,385.582 112.8594,385.582 L112.4531,385.582 Z " fill="#000000"/><text fill="#000000" font-family="sans-serif" font-size="14" lengthAdjust="spacing" textLength="72.3789" x="126.75" y="386.6802">contribution</text><line style="stroke:#181818;stroke-width:0.5;" x1="98.75" x2="201.1289" y1="397.5977" y2="397.5977"/><text fill="#000000" font-family="sans-serif" font-size="14" lengthAdjust="spacing" textLength="31.1309" x="103.75" y="414.7295">role?</text><text fill="#000000" font-family="sans-serif" font-size="14" lengthAdjust="spacing" textLength="80.9238" x="103.75" y="430.8281">contributors[]</text><text fill="#000000" font-family="sans-serif" font-size="14" lengthAdjust="spacing" textLength="75.4893" x="103.75" y="446.9268">description?</text><text fill="#000000" font-family="sans-serif" font-size="14" lengthAdjust="spacing" textLength="64.5859" x="103.75" y="463.0254">startDate?</text><text fill="#000000" font-family="sans-serif" font-size="14" lengthAdjust="spacing" textLength="60.7168" x="103.75" y="479.124">endDate?</text><text fill="#000000" font-family="sans-serif" font-size="14" lengthAdjust="spacing" textLength="59.9238" x="103.75" y="495.2227">createdAt</text></g><!--class location--><g class="entity" data-entity="location" data-source-line="127" data-uid="ent0008" id="entity_location"><rect fill="#F1F1F1" height="152.6904" rx="2.5" ry="2.5" style="stroke:#181818;stroke-width:0.5;" width="91.3789" x="752.06" y="1175.6977"/><ellipse cx="772.0658" cy="1191.6977" fill="#7E57C2" rx="11" ry="11" style="stroke:#181818;stroke-width:1;"/><path d="M769.2533,1197.6977 L772.4721,1197.6977 C775.5502,1197.6977 777.6596,1195.9164 777.6596,1192.1039 C777.6596,1188.2914 775.5502,1186.6195 772.3158,1186.6195 L769.2533,1186.6195 L769.2533,1197.6977 Z M771.7689,1195.682 L771.7689,1188.6352 L772.1752,1188.6352 C773.9096,1188.6352 775.0814,1189.4477 775.0814,1192.1039 C775.0814,1194.7602 773.9096,1195.682 772.1752,1195.682 L771.7689,1195.682 Z " fill="#000000"/><text fill="#000000" font-family="sans-serif" font-size="14" lengthAdjust="spacing" textLength="48.2549" x="787.1782" y="1196.7802">location</text><line style="stroke:#181818;stroke-width:0.5;" x1="753.06" x2="842.4389" y1="1207.6977" y2="1207.6977"/><text fill="#000000" font-family="sans-serif" font-size="14" lengthAdjust="spacing" textLength="58.3652" x="758.06" y="1224.8295">lpVersion</text><text fill="#000000" font-family="sans-serif" font-size="14" lengthAdjust="spacing" textLength="18.6621" x="758.06" y="1240.9281">srs</text><text fill="#000000" font-family="sans-serif" font-size="14" lengthAdjust="spacing" textLength="79.3789" x="758.06" y="1257.0268">locationType</text><text fill="#000000" font-family="sans-serif" font-size="14" lengthAdjust="spacing" textLength="48.2549" x="758.06" y="1273.1254">location</text><text fill="#000000" font-family="sans-serif" font-size="14" lengthAdjust="spacing" textLength="42.8066" x="758.06" y="1289.224">name?</text><text fill="#000000" font-family="sans-serif" font-size="14" lengthAdjust="spacing" textLength="75.4893" x="758.06" y="1305.3227">description?</text><text fill="#000000" font-family="sans-serif" font-size="14" lengthAdjust="spacing" textLength="59.9238" x="758.06" y="1321.4213">createdAt</text></g><!--class rights--><g class="entity" data-entity="rights" data-source-line="140" data-uid="ent0009" id="entity_rights"><rect fill="#F1F1F1" height="120.4932" rx="2.5" ry="2.5" style="stroke:#181818;stroke-width:0.5;" width="116.2617" x="387.61" y="966.4477"/><ellipse cx="425.1223" cy="982.4477" fill="#7E57C2" rx="11" ry="11" style="stroke:#181818;stroke-width:1;"/><path d="M422.3098,988.4477 L425.5286,988.4477 C428.6067,988.4477 430.7161,986.6664 430.7161,982.8539 C430.7161,979.0414 428.6067,977.3695 425.3723,977.3695 L422.3098,977.3695 L422.3098,988.4477 Z M424.8254,986.432 L424.8254,979.3852 L425.2317,979.3852 C426.9661,979.3852 428.1379,980.1977 428.1379,982.8539 C428.1379,985.5102 426.9661,986.432 425.2317,986.432 L424.8254,986.432 Z " fill="#000000"/><text fill="#000000" font-family="sans-serif" font-size="14" lengthAdjust="spacing" textLength="34.2344" x="444.125" y="987.5302">rights</text><line style="stroke:#181818;stroke-width:0.5;" x1="388.61" x2="502.8717" y1="998.4477" y2="998.4477"/><text fill="#000000" font-family="sans-serif" font-size="14" lengthAdjust="spacing" textLength="71.5791" x="393.61" y="1015.5795">rightsName</text><text fill="#000000" font-family="sans-serif" font-size="14" lengthAdjust="spacing" textLength="65.3584" x="393.61" y="1031.6781">rightsType</text><text fill="#000000" font-family="sans-serif" font-size="14" lengthAdjust="spacing" textLength="104.2617" x="393.61" y="1047.7768">rightsDescription</text><text fill="#000000" font-family="sans-serif" font-size="14" lengthAdjust="spacing" textLength="77.0479" x="393.61" y="1063.8754">attachment?</text><text fill="#000000" font-family="sans-serif" font-size="14" lengthAdjust="spacing" textLength="59.9238" x="393.61" y="1079.974">createdAt</text></g><!--class collection--><g class="entity" data-entity="collection" data-source-line="151" data-uid="ent0010" id="entity_collection"><rect fill="#F1F1F1" height="136.5918" rx="2.5" ry="2.5" style="stroke:#181818;stroke-width:0.5;" width="120.9375" x="252.75" y="365.5977"/><ellipse cx="281.5075" cy="381.5977" fill="#7E57C2" rx="11" ry="11" style="stroke:#181818;stroke-width:1;"/><path d="M278.695,387.5977 L281.9138,387.5977 C284.9919,387.5977 287.1013,385.8164 287.1013,382.0039 C287.1013,378.1914 284.9919,376.5195 281.7575,376.5195 L278.695,376.5195 L278.695,387.5977 Z M281.2106,385.582 L281.2106,378.5352 L281.6169,378.5352 C283.3513,378.5352 284.5231,379.3477 284.5231,382.0039 C284.5231,384.6602 283.3513,385.582 281.6169,385.582 L281.2106,385.582 Z " fill="#000000"/><text fill="#000000" font-family="sans-serif" font-size="14" lengthAdjust="spacing" textLength="58.3652" x="298.5647" y="386.6802">collection</text><line style="stroke:#181818;stroke-width:0.5;" x1="253.75" x2="372.6875" y1="397.5977" y2="397.5977"/><text fill="#000000" font-family="sans-serif" font-size="14" lengthAdjust="spacing" textLength="21.7861" x="258.75" y="414.7295">title</text><text fill="#000000" font-family="sans-serif" font-size="14" lengthAdjust="spacing" textLength="108.9375" x="258.75" y="430.8281">shortDescription?</text><text fill="#000000" font-family="sans-serif" font-size="14" lengthAdjust="spacing" textLength="46.6963" x="258.75" y="446.9268">avatar?</text><text fill="#000000" font-family="sans-serif" font-size="14" lengthAdjust="spacing" textLength="78.6064" x="258.75" y="463.0254">coverPhoto?</text><text fill="#000000" font-family="sans-serif" font-size="14" lengthAdjust="spacing" textLength="61.4619" x="258.75" y="479.124">activities[]</text><text fill="#000000" font-family="sans-serif" font-size="14" lengthAdjust="spacing" textLength="59.9238" x="258.75" y="495.2227">createdAt</text></g><!--class project--><g class="entity" data-entity="project" data-source-line="163" data-uid="ent0011" id="entity_project"><rect fill="#F1F1F1" height="168.7891" rx="2.5" ry="2.5" style="stroke:#181818;stroke-width:0.5;" width="113.1514" x="623.25" y="942.6977"/><ellipse cx="655.8589" cy="958.6977" fill="#7E57C2" rx="11" ry="11" style="stroke:#181818;stroke-width:1;"/><path d="M653.0464,964.6977 L656.2651,964.6977 C659.3433,964.6977 661.4526,962.9164 661.4526,959.1039 C661.4526,955.2914 659.3433,953.6195 656.1089,953.6195 L653.0464,953.6195 L653.0464,964.6977 Z M655.562,962.682 L655.562,955.6352 L655.9683,955.6352 C657.7026,955.6352 658.8745,956.4477 658.8745,959.1039 C658.8745,961.7602 657.7026,962.682 655.9683,962.682 L655.562,962.682 Z " fill="#000000"/><text fill="#000000" font-family="sans-serif" font-size="14" lengthAdjust="spacing" textLength="42.0205" x="673.772" y="963.7802">project</text><line style="stroke:#181818;stroke-width:0.5;" x1="624.25" x2="735.4014" y1="974.6977" y2="974.6977"/><text fill="#000000" font-family="sans-serif" font-size="14" lengthAdjust="spacing" textLength="21.7861" x="629.25" y="991.8295">title</text><text fill="#000000" font-family="sans-serif" font-size="14" lengthAdjust="spacing" textLength="101.1514" x="629.25" y="1007.9281">shortDescription</text><text fill="#000000" font-family="sans-serif" font-size="14" lengthAdjust="spacing" textLength="75.4893" x="629.25" y="1024.0268">description?</text><text fill="#000000" font-family="sans-serif" font-size="14" lengthAdjust="spacing" textLength="46.6963" x="629.25" y="1040.1254">avatar?</text><text fill="#000000" font-family="sans-serif" font-size="14" lengthAdjust="spacing" textLength="78.6064" x="629.25" y="1056.224">coverPhoto?</text><text fill="#000000" font-family="sans-serif" font-size="14" lengthAdjust="spacing" textLength="69.248" x="629.25" y="1072.3227">activities[]?</text><text fill="#000000" font-family="sans-serif" font-size="14" lengthAdjust="spacing" textLength="56.041" x="629.25" y="1088.4213">location?</text><text fill="#000000" font-family="sans-serif" font-size="14" lengthAdjust="spacing" textLength="59.9238" x="629.25" y="1104.5199">createdAt</text></g><!--class funder--><g class="entity" data-entity="funder" data-source-line="180" data-uid="ent0012" id="entity_funder"><rect fill="#FFD4A3" height="56.0986" rx="2.5" ry="2.5" style="stroke:#181818;stroke-width:0.5;" width="167.627" x="415.93" y="405.5477"/><ellipse cx="475.6453" cy="421.5477" fill="#ADD1B2" rx="11" ry="11" style="stroke:#181818;stroke-width:1;"/><path d="M471.7078,427.5477 L479.2235,427.5477 L479.2235,425.4383 L474.2235,425.4383 L474.2235,422.8914 L478.3172,422.8914 L478.3172,420.7977 L474.2235,420.7977 L474.2235,418.5789 L479.0516,418.5789 L479.0516,416.4695 L471.7078,416.4695 L471.7078,427.5477 Z " fill="#000000"/><text fill="#000000" font-family="sans-serif" font-size="14" lengthAdjust="spacing" textLength="39.6963" x="496.1453" y="426.6302">funder</text><line style="stroke:#181818;stroke-width:0.5;" x1="416.93" x2="582.557" y1="437.5477" y2="437.5477"/><text fill="#000000" font-family="sans-serif" font-size="14" lengthAdjust="spacing" textLength="155.627" x="421.93" y="454.6795">DID or name/pseudonym</text></g><!--class fundingReceipt--><g class="entity" data-entity="fundingReceipt" data-source-line="187" data-uid="ent0013" id="entity_fundingReceipt"><rect fill="#F1F1F1" height="217.085" rx="2.5" ry="2.5" style="stroke:#181818;stroke-width:0.5;" width="125.3994" x="437.25" y="55.5977"/><ellipse cx="452.25" cy="71.5977" fill="#7E57C2" rx="11" ry="11" style="stroke:#181818;stroke-width:1;"/><path d="M449.4375,77.5977 L452.6563,77.5977 C455.7344,77.5977 457.8438,75.8164 457.8438,72.0039 C457.8438,68.1914 455.7344,66.5195 452.5,66.5195 L449.4375,66.5195 L449.4375,77.5977 Z M451.9531,75.582 L451.9531,68.5352 L452.3594,68.5352 C454.0938,68.5352 455.2656,69.3477 455.2656,72.0039 C455.2656,74.6602 454.0938,75.582 452.3594,75.582 L451.9531,75.582 Z " fill="#000000"/><text fill="#000000" font-family="sans-serif" font-size="14" lengthAdjust="spacing" textLength="93.3994" x="466.25" y="76.6802">fundingReceipt</text><line style="stroke:#181818;stroke-width:0.5;" x1="438.25" x2="561.6494" y1="87.5977" y2="87.5977"/><text fill="#000000" font-family="sans-serif" font-size="14" lengthAdjust="spacing" textLength="11.6758" x="443.25" y="104.7295">to</text><text fill="#000000" font-family="sans-serif" font-size="14" lengthAdjust="spacing" textLength="28" x="443.25" y="120.8281">from</text><text fill="#000000" font-family="sans-serif" font-size="14" lengthAdjust="spacing" textLength="24.124" x="443.25" y="136.9268">for?</text><text fill="#000000" font-family="sans-serif" font-size="14" lengthAdjust="spacing" textLength="46.6963" x="443.25" y="153.0254">amount</text><text fill="#000000" font-family="sans-serif" font-size="14" lengthAdjust="spacing" textLength="53.6826" x="443.25" y="169.124">currency</text><text fill="#000000" font-family="sans-serif" font-size="14" lengthAdjust="spacing" textLength="85.5996" x="443.25" y="185.2227">paymentRail?</text><text fill="#000000" font-family="sans-serif" font-size="14" lengthAdjust="spacing" textLength="112.8271" x="443.25" y="201.3213">paymentNetwork?</text><text fill="#000000" font-family="sans-serif" font-size="14" lengthAdjust="spacing" textLength="87.9443" x="443.25" y="217.4199">transactionId?</text><text fill="#000000" font-family="sans-serif" font-size="14" lengthAdjust="spacing" textLength="42.0342" x="443.25" y="233.5186">notes?</text><text fill="#000000" font-family="sans-serif" font-size="14" lengthAdjust="spacing" textLength="75.4824" x="443.25" y="249.6172">occurredAt?</text><text fill="#000000" font-family="sans-serif" font-size="14" lengthAdjust="spacing" textLength="59.9238" x="443.25" y="265.7158">createdAt</text></g><!--class token--><g class="entity" data-entity="token" data-source-line="208" data-uid="ent0014" id="entity_token"><rect fill="#FFB6C1" height="65.0967" rx="2.5" ry="2.5" style="stroke:#181818;stroke-width:0.5;" width="104.5996" x="433.45" y="691.0477"/><ellipse cx="457.1169" cy="707.5467" fill="#F1F1F1" rx="11" ry="11" style="stroke:#181818;stroke-width:1;"/><path d="M453.8981,713.5467 L456.3981,713.5467 L456.3981,709.7967 L457.82,709.7967 C460.1638,709.7967 462.1481,708.6404 462.1481,706.0311 C462.1481,703.3436 460.2106,702.4686 457.82,702.4686 L453.8981,702.4686 L453.8981,713.5467 Z M456.3981,707.7967 L456.3981,704.4529 L457.6638,704.4529 C458.9919,704.4529 459.7106,704.8748 459.7106,706.0311 C459.7106,707.1873 459.0388,707.7967 457.6638,707.7967 L456.3981,707.7967 Z " fill="#000000"/><text fill="#000000" font-family="sans-serif" font-size="20" font-weight="bold" lengthAdjust="spacing" textLength="53.3398" x="473.0429" y="714.8074">token</text><line style="stroke:#181818;stroke-width:0.5;" x1="434.45" x2="537.0496" y1="724.0457" y2="724.0457"/><line style="stroke:#181818;stroke-width:0.5;" x1="434.45" x2="537.0496" y1="732.0457" y2="732.0457"/><text fill="#000000" font-family="sans-serif" font-size="14" lengthAdjust="spacing" textLength="92.5996" x="439.45" y="749.1775">(on-chain only)</text></g><!--class hiddenLocation1--><g class="entity" data-entity="hiddenLocation1" data-source-line="243" data-uid="ent0020" id="entity_hiddenLocation1"><rect fill="none" height="34.0986" rx="2.5" ry="2.5" style="stroke:none;stroke-width:0.5;" width="12" x="956.75" y="416.5477"/><text fill="#000000" font-family="sans-serif" font-size="14" lengthAdjust="spacing" textLength="3.8896" x="960.8052" y="434.6795">&#160;</text><line style="stroke:none;stroke-width:0.5;" x1="957.75" x2="967.75" y1="442.6463" y2="442.6463"/></g><!--class hiddenLocation2--><g class="entity" data-entity="hiddenLocation2" data-source-line="260" data-uid="ent0025" id="entity_hiddenLocation2"><rect fill="none" height="34.0986" rx="2.5" ry="2.5" style="stroke:none;stroke-width:0.5;" width="12" x="1028.75" y="874.5977"/><text fill="#000000" font-family="sans-serif" font-size="14" lengthAdjust="spacing" textLength="3.8896" x="1032.8052" y="892.7295">&#160;</text><line style="stroke:none;stroke-width:0.5;" x1="1029.75" x2="1039.75" y1="900.6963" y2="900.6963"/></g><!--link token to activity--><g class="link" data-entity-1="token" data-entity-2="activity" data-source-line="283" data-uid="lnk37" id="link_token_activity"><path codeLine="283" d="M538.52,723.5977 C562.54,723.5977 585.19,723.5977 610.46,723.5977" fill="none" id="token-to-activity" style="stroke:#666666;stroke-width:1;stroke-dasharray:7,7;"/><polygon fill="#666666" points="616.46,723.5977,607.46,719.5977,611.46,723.5977,607.46,727.5977,616.46,723.5977" style="stroke:#666666;stroke-width:1;"/><text fill="#666666" font-family="sans-serif" font-size="10" lengthAdjust="spacing" textLength="42.2461" x="556.15" y="717.9775">tokenizes</text></g><!--link evaluation to evidence--><g class="link" data-entity-1="evaluation" data-entity-2="evidence" data-source-line="230" data-uid="lnk17" id="link_evaluation_evidence"><path codeLine="230" d="M862.75,124.0977 C767.85,124.0977 763.6821,256.5701 771.6021,347.9801" fill="none" id="evaluation-to-evidence" style="stroke:#666666;stroke-width:1;"/><polygon fill="#666666" points="772.12,353.9577,775.3282,344.646,771.6884,348.9763,767.3581,345.3365,772.12,353.9577" style="stroke:#666666;stroke-width:1;"/></g><!--link evaluation to measurement--><g class="link" data-entity-1="evaluation" data-entity-2="measurement" data-source-line="231" data-uid="lnk18" id="link_evaluation_measurement"><path codeLine="231" d="M984.75,188.0977 C1051,188.0977 1069.1631,262.9966 1072.9131,331.7266" fill="none" id="evaluation-to-measurement" style="stroke:#666666;stroke-width:1;"/><polygon fill="#666666" points="1073.24,337.7177,1076.7437,328.5131,1072.9676,332.7251,1068.7556,328.9489,1073.24,337.7177" style="stroke:#666666;stroke-width:1;"/></g><!--link evaluation to activity--><g class="link" data-entity-1="evaluation" data-entity-2="activity" data-source-line="232" data-uid="lnk19" id="link_evaluation_activity"><path codeLine="232" d="M862.75,124.0977 C805.85,124.0977 861.86,195.2377 863.75,252.0977 C867.83,375.3877 915.2,415.3277 868.75,529.5977 C843.82,590.9177 793.7229,639.6943 749.6829,674.3943" fill="none" id="evaluation-to-activity" style="stroke:#666666;stroke-width:1;"/><polygon fill="#666666" points="744.97,678.1077,754.5149,675.6795,748.8974,675.0132,749.5637,669.3957,744.97,678.1077" style="stroke:#666666;stroke-width:1;"/></g><!--link evaluation to hiddenLocation1--><g class="link" data-entity-1="evaluation" data-entity-2="hiddenLocation1" data-source-line="245" data-uid="lnk21" id="link_evaluation_hiddenLocation1"><path codeLine="245" d="M984.75,220.0977 C1004.45,220.0977 977.478,360.6385 967.338,410.3985" fill="none" id="evaluation-to-hiddenLocation1" style="stroke:#666666;stroke-width:1;"/><polygon fill="#666666" points="966.14,416.2777,971.8565,408.2576,967.1384,411.3783,964.0176,406.6602,966.14,416.2777" style="stroke:#666666;stroke-width:1;"/></g><!--link hiddenLocation1 to activity--><!--link evidence to activity--><g class="link" data-entity-1="evidence" data-entity-2="activity" data-source-line="254" data-uid="lnk23" id="link_evidence_activity"><path codeLine="254" d="M721.75,401.5977 C700.71,401.5977 690.5925,505.4469 685.5325,596.6269" fill="none" id="evidence-to-activity" style="stroke:#666666;stroke-width:1;"/><polygon fill="#666666" points="685.2,602.6177,689.6925,593.8531,685.477,597.6253,681.7048,593.4098,685.2,602.6177" style="stroke:#666666;stroke-width:1;"/></g><!--link measurement to activity--><g class="link" data-entity-1="measurement" data-entity-2="activity" data-source-line="256" data-uid="lnk24" id="link_measurement_activity"><path codeLine="256" d="M1011.25,385.5977 C978.79,385.5977 998.32,499.2677 986.75,529.5977 C978.7,550.6777 976.23,557.1877 959.75,572.5977 C896.57,631.6577 811.3049,672.5145 750.6249,696.9745" fill="none" id="measurement-to-activity" style="stroke:#666666;stroke-width:1;"/><polygon fill="#666666" points="745.06,699.2177,754.9028,699.5628,749.6974,697.3483,751.9119,692.1429,745.06,699.2177" style="stroke:#666666;stroke-width:1;"/></g><!--link measurement to hiddenLocation2--><g class="link" data-entity-1="measurement" data-entity-2="hiddenLocation2" data-source-line="262" data-uid="lnk26" id="link_measurement_hiddenLocation2"><path codeLine="262" d="M1011.25,497.5977 C972.88,497.5977 1018.9136,793.946 1031.0536,868.336" fill="none" id="measurement-to-hiddenLocation2" style="stroke:#666666;stroke-width:1;"/><polygon fill="#666666" points="1032.02,874.2577,1034.5182,864.7309,1031.2147,869.3229,1026.6227,866.0194,1032.02,874.2577" style="stroke:#666666;stroke-width:1;"/></g><!--link hiddenLocation2 to location--><!--link collection to activity--><g class="link" data-entity-1="collection" data-entity-2="activity" data-source-line="269" data-uid="lnk28" id="link_collection_activity"><path codeLine="269" d="M373.75,473.5977 C401,473.5977 379.62,510.1777 398.75,529.5977 C452.74,584.4277 492.24,559.1377 555.75,602.5977 C576.97,617.1277 593.6331,631.171 612.1831,648.991" fill="none" id="collection-to-activity" style="stroke:#666666;stroke-width:1;"/><polygon fill="#666666" points="616.51,653.1477,612.7907,644.0281,612.9042,649.6838,607.2485,649.7973,616.51,653.1477" style="stroke:#666666;stroke-width:1;"/></g><!--link activity to project--><g class="link" data-entity-1="activity" data-entity-2="project" data-source-line="277" data-uid="lnk35" id="link_activity_project"><path codeLine="277" d="M738.25,811.5977 C793.83,811.5977 771.1137,874.3326 738.1437,933.6826" fill="none" id="activity-to-project" style="stroke:#666666;stroke-width:1;"/><polygon fill="#666666" points="735.23,938.9277,743.0972,933.0026,737.6581,934.5568,736.1039,929.1176,735.23,938.9277" style="stroke:#666666;stroke-width:1;"/></g><!--link project to location--><g class="link" data-entity-1="project" data-entity-2="location" data-source-line="272" data-uid="lnk30" id="link_project_location"><path codeLine="272" d="M737.25,1082.6977 C747.84,1082.6977 762.6531,1124.7997 775.7431,1169.4797" fill="none" id="project-to-location" style="stroke:#666666;stroke-width:1;"/><polygon fill="#666666" points="777.43,1175.2377,778.7383,1165.4761,776.0242,1170.4393,771.061,1167.7253,777.43,1175.2377" style="stroke:#666666;stroke-width:1;"/></g><!--link activity to rights--><g class="link" data-entity-1="activity" data-entity-2="rights" data-source-line="275" data-uid="lnk33" id="link_activity_rights"><path codeLine="275" d="M623.25,795.5977 C580.17,795.5977 518.5248,892.7344 480.2948,960.9044" fill="none" id="activity-to-rights" style="stroke:#666666;stroke-width:1;"/><polygon fill="#666666" points="477.36,966.1377,485.2511,960.2443,479.8057,961.7766,478.2734,956.3312,477.36,966.1377" style="stroke:#666666;stroke-width:1;"/></g><!--link activity to location--><g class="link" data-entity-1="activity" data-entity-2="location" data-source-line="276" data-uid="lnk34" id="link_activity_location"><path codeLine="276" d="M738.25,779.5977 C895.81,779.5977 852.8106,1036.2007 820.0906,1169.4707" fill="none" id="activity-to-location" style="stroke:#666666;stroke-width:1;"/><polygon fill="#666666" points="818.66,1175.2977,824.6906,1167.511,819.8522,1170.4419,816.9213,1165.6035,818.66,1175.2977" style="stroke:#666666;stroke-width:1;"/></g><!--link contribution to contributor--><g class="link" data-entity-1="contribution" data-entity-2="contributor" data-source-line="279" data-uid="lnk36" id="link_contribution_contributor"><path codeLine="279" d="M202.75,425.5977 C238.3,425.5977 209.61,470.9177 201.75,505.5977 C195.9,531.3877 184.53,534.3277 176.75,559.5977 C162.43,606.0677 155.8162,656.4864 152.5962,689.2864" fill="none" id="contribution-to-contributor" style="stroke:#666666;stroke-width:1;"/><polygon fill="#666666" points="152.01,695.2577,156.8702,686.6915,152.4985,690.2816,148.9084,685.9099,152.01,695.2577" style="stroke:#666666;stroke-width:1;"/><text fill="#666666" font-family="sans-serif" font-size="10" lengthAdjust="spacing" textLength="38.3545" x="177.75" y="569.9775">made by</text></g><!--link funder to activity--><g class="link" data-entity-1="funder" data-entity-2="activity" data-source-line="284" data-uid="lnk38" id="link_funder_activity"><path codeLine="284" d="M516.94,461.9477 C539.66,498.1077 577.7673,558.7476 613.2073,615.1376" fill="none" id="funder-to-activity" style="stroke:#666666;stroke-width:1;stroke-dasharray:7,7;"/><polygon fill="#666666" points="616.4,620.2177,614.9976,610.4691,613.7394,615.9843,608.2243,614.7261,616.4,620.2177" style="stroke:#666666;stroke-width:1;"/><text fill="#666666" font-family="sans-serif" font-size="10" lengthAdjust="spacing" textLength="24.4629" x="585.82" y="569.9775">funds</text></g><!--link contributor to rights--><g class="link" data-entity-1="contributor" data-entity-2="rights" data-source-line="285" data-uid="lnk39" id="link_contributor_rights"><path codeLine="285" d="M176.8,752.1177 C224.25,800.3877 319.2941,897.0586 383.0441,961.9186" fill="none" id="contributor-to-rights" style="stroke:#666666;stroke-width:1;stroke-dasharray:7,7;"/><polygon fill="#666666" points="387.25,966.1977,383.7939,956.9751,383.7451,962.6317,378.0885,962.5829,387.25,966.1977" style="stroke:#666666;stroke-width:1;"/><text fill="#666666" font-family="sans-serif" font-size="10" lengthAdjust="spacing" textLength="16.123" x="325.26" y="895.5275">has</text></g><!--link fundingReceipt to funder--><g class="link" data-entity-1="fundingReceipt" data-entity-2="funder" data-source-line="291" data-uid="lnk40" id="link_fundingReceipt_funder"><path codeLine="291" d="M563.25,115.5977 C680.97,115.5977 566.261,323.2711 519.841,400.1611" fill="none" id="fundingReceipt-to-funder" style="stroke:#666666;stroke-width:1;"/><polygon fill="#666666" points="516.74,405.2977,524.8159,399.6602,519.3242,401.0172,517.9672,395.5256,516.74,405.2977" style="stroke:#666666;stroke-width:1;"/></g><!--link fundingReceipt to contributor--><g class="link" data-entity-1="fundingReceipt" data-entity-2="contributor" data-source-line="292" data-uid="lnk41" id="link_fundingReceipt_contributor"><path codeLine="292" d="M436.25,99.5977 C242.77,99.5977 163.85,167.4577 71.75,337.5977 C6,459.0477 89.9965,624.1046 129.2665,689.9446" fill="none" id="fundingReceipt-to-contributor" style="stroke:#666666;stroke-width:1;"/><polygon fill="#666666" points="132.34,695.0977,131.1651,685.3191,129.7788,690.8035,124.2944,689.4171,132.34,695.0977" style="stroke:#666666;stroke-width:1;"/></g><!--link fundingReceipt to activity--><g class="link" data-entity-1="fundingReceipt" data-entity-2="activity" data-source-line="294" data-uid="lnk42" id="link_fundingReceipt_activity"><path codeLine="294" d="M563.25,131.5977 C610.81,131.5977 649.4522,423.9327 668.2122,596.6827" fill="none" id="fundingReceipt-to-activity" style="stroke:#666666;stroke-width:1;"/><polygon fill="#666666" points="668.86,602.6477,671.865,593.2684,668.3202,597.6769,663.9117,594.1321,668.86,602.6477" style="stroke:#666666;stroke-width:1;"/><text fill="#666666" font-family="sans-serif" font-size="10" lengthAdjust="spacing" textLength="24.4629" x="661.39" y="437.4775">funds</text></g><!--SRC=[Kqn9JSlCIrK8zl0FZtVpTFLn2LOeAIfDvU9IpCnBpYbDILLm3NBHAoZDpU420000]--></g></svg>