<svg xmlns="http://www.w3.org/2000/svg" xmlns:xlink="http://www.w3.org/1999/xlink" contentStyleType="text/css" data-diagram-type="CLASS" height="1072px" preserveAspectRatio="none" style="width:1388px;height:1072px;background:#FFFFFF;" version="1.1" viewBox="0 0 1388 1072" width="1388px" zoomAndPan="magnify"><title>Hypercert ERD</title><defs/><g><g class="title" data-source-line="7"><text fill="#000000" font-family="sans-serif" font-size="24" font-weight="bold" lengthAdjust="spacing" textLength="157.0547" x="608.9577" y="32.2656">Hypercert ERD</text></g><!--class contributor--><g class="entity" data-entity="contributor" data-source-line="47" data-uid="ent0002" id="entity_contributor"><rect fill="#FFD4A3" height="56.4063" rx="2.5" ry="2.5" style="stroke:#181818;stroke-width:0.5;" width="167.4219" x="932.79" y="695.415"/><ellipse cx="977.9209" cy="711.415" fill="#ADD1B2" rx="11" ry="11" style="stroke:#181818;stroke-width:1;"/><path d="M973.9834,717.415 L981.499,717.415 L981.499,715.3056 L976.499,715.3056 L976.499,712.7588 L980.5927,712.7588 L980.5927,710.665 L976.499,710.665 L976.499,708.4463 L981.3271,708.4463 L981.3271,706.3369 L973.9834,706.3369 L973.9834,717.415 Z " fill="#000000"/><text fill="#000000" font-family="sans-serif" font-size="14" lengthAdjust="spacing" textLength="68.6602" x="998.4209" y="716.2002">contributor</text><line style="stroke:#181818;stroke-width:0.5;" x1="933.79" x2="1099.2119" y1="727.415" y2="727.415"/><text fill="#000000" font-family="sans-serif" font-size="14" lengthAdjust="spacing" textLength="155.4219" x="938.79" y="744.4033">DID or name/pseudonym</text></g><!--class activity--><g class="entity" data-entity="activity" data-source-line="55" data-uid="ent0003" id="entity_activity"><rect fill="#B4E5D0" height="221.9063" rx="2.5" ry="2.5" style="stroke:#181818;stroke-width:0.5;" width="115.1201" x="556" y="613.125"/><ellipse cx="578.9519" cy="629.8438" fill="#7E57C2" rx="11" ry="11" style="stroke:#181818;stroke-width:1;"/><path d="M576.1394,635.8438 L579.3582,635.8438 C582.4363,635.8438 584.5457,634.0625 584.5457,630.25 C584.5457,626.4375 582.4363,624.7656 579.2019,624.7656 L576.1394,624.7656 L576.1394,635.8438 Z M578.655,633.8281 L578.655,626.7813 L579.0613,626.7813 C580.7957,626.7813 581.9675,627.5938 581.9675,630.25 C581.9675,632.9063 580.7957,633.8281 579.0613,633.8281 L578.655,633.8281 Z " fill="#000000"/><text fill="#000000" font-family="sans-serif" font-size="20" font-weight="bold" lengthAdjust="spacing" textLength="65.4492" x="594.719" y="636.6797">activity</text><line style="stroke:#181818;stroke-width:0.5;" x1="557" x2="670.1201" y1="646.5625" y2="646.5625"/><text fill="#000000" font-family="sans-serif" font-size="14" lengthAdjust="spacing" textLength="23.3926" x="562" y="663.5508">title</text><text fill="#000000" font-family="sans-serif" font-size="14" lengthAdjust="spacing" textLength="103.1201" x="562" y="679.957">shortDescription</text><text fill="#000000" font-family="sans-serif" font-size="14" lengthAdjust="spacing" textLength="76.2002" x="562" y="696.3633">description?</text><text fill="#000000" font-family="sans-serif" font-size="14" lengthAdjust="spacing" textLength="45.1992" x="562" y="712.7695">image?</text><text fill="#000000" font-family="sans-serif" font-size="14" lengthAdjust="spacing" textLength="75.8721" x="562" y="729.1758">workScope?</text><text fill="#000000" font-family="sans-serif" font-size="14" lengthAdjust="spacing" textLength="57.5518" x="562" y="745.582">startDate</text><text fill="#000000" font-family="sans-serif" font-size="14" lengthAdjust="spacing" textLength="51.8574" x="562" y="761.9883">endDate</text><text fill="#000000" font-family="sans-serif" font-size="14" lengthAdjust="spacing" textLength="96.3184" x="562" y="778.3945">contributions[]?</text><text fill="#000000" font-family="sans-serif" font-size="14" lengthAdjust="spacing" textLength="71.2988" x="562" y="794.8008">locations[]?</text><text fill="#000000" font-family="sans-serif" font-size="14" lengthAdjust="spacing" textLength="42.1436" x="562" y="811.207">rights?</text><text fill="#000000" font-family="sans-serif" font-size="14" lengthAdjust="spacing" textLength="60.7236" x="562" y="827.6133">createdAt</text></g><!--class evidence--><g class="entity" data-entity="evidence" data-source-line="72" data-uid="ent0004" id="entity_evidence"><rect fill="#F1F1F1" height="154.8438" rx="2.5" ry="2.5" style="stroke:#181818;stroke-width:0.5;" width="121.7373" x="179" y="361.625"/><ellipse cx="209.4463" cy="377.625" fill="#7E57C2" rx="11" ry="11" style="stroke:#181818;stroke-width:1;"/><path d="M206.6338,383.625 L209.8526,383.625 C212.9307,383.625 215.0401,381.8438 215.0401,378.0313 C215.0401,374.2188 212.9307,372.5469 209.6963,372.5469 L206.6338,372.5469 L206.6338,383.625 Z M209.1495,381.6094 L209.1495,374.5625 L209.5557,374.5625 C211.2901,374.5625 212.462,375.375 212.462,378.0313 C212.462,380.6875 211.2901,381.6094 209.5557,381.6094 L209.1495,381.6094 Z " fill="#000000"/><text fill="#000000" font-family="sans-serif" font-size="14" lengthAdjust="spacing" textLength="55.4121" x="226.8789" y="382.4102">evidence</text><line style="stroke:#181818;stroke-width:0.5;" x1="180" x2="299.7373" y1="393.625" y2="393.625"/><text fill="#000000" font-family="sans-serif" font-size="14" lengthAdjust="spacing" textLength="52.1035" x="185" y="410.6133">subject?</text><text fill="#000000" font-family="sans-serif" font-size="14" lengthAdjust="spacing" textLength="47.3594" x="185" y="427.0195">content</text><text fill="#000000" font-family="sans-serif" font-size="14" lengthAdjust="spacing" textLength="23.3926" x="185" y="443.4258">title</text><text fill="#000000" font-family="sans-serif" font-size="14" lengthAdjust="spacing" textLength="109.7373" x="185" y="459.832">shortDescription?</text><text fill="#000000" font-family="sans-serif" font-size="14" lengthAdjust="spacing" textLength="76.2002" x="185" y="476.2383">description?</text><text fill="#000000" font-family="sans-serif" font-size="14" lengthAdjust="spacing" textLength="83.7676" x="185" y="492.6445">relationType?</text><text fill="#000000" font-family="sans-serif" font-size="14" lengthAdjust="spacing" textLength="60.7236" x="185" y="509.0508">createdAt</text></g><!--class measurement--><g class="entity" data-entity="measurement" data-source-line="85" data-uid="ent0005" id="entity_measurement"><rect fill="#F1F1F1" height="187.6563" rx="2.5" ry="2.5" style="stroke:#181818;stroke-width:0.5;" width="118.4404" x="351.5" y="345.125"/><ellipse cx="366.5" cy="361.125" fill="#7E57C2" rx="11" ry="11" style="stroke:#181818;stroke-width:1;"/><path d="M363.6875,367.125 L366.9063,367.125 C369.9844,367.125 372.0938,365.3438 372.0938,361.5313 C372.0938,357.7188 369.9844,356.0469 366.75,356.0469 L363.6875,356.0469 L363.6875,367.125 Z M366.2031,365.1094 L366.2031,358.0625 L366.6094,358.0625 C368.3438,358.0625 369.5156,358.875 369.5156,361.5313 C369.5156,364.1875 368.3438,365.1094 366.6094,365.1094 L366.2031,365.1094 Z " fill="#000000"/><text fill="#000000" font-family="sans-serif" font-size="14" lengthAdjust="spacing" textLength="86.4404" x="380.5" y="365.9102">measurement</text><line style="stroke:#181818;stroke-width:0.5;" x1="352.5" x2="468.9404" y1="377.125" y2="377.125"/><text fill="#000000" font-family="sans-serif" font-size="14" lengthAdjust="spacing" textLength="52.1035" x="357.5" y="394.1133">subject?</text><text fill="#000000" font-family="sans-serif" font-size="14" lengthAdjust="spacing" textLength="73.8213" x="357.5" y="410.5195">measurers[]</text><text fill="#000000" font-family="sans-serif" font-size="14" lengthAdjust="spacing" textLength="39.7578" x="357.5" y="426.9258">metric</text><text fill="#000000" font-family="sans-serif" font-size="14" lengthAdjust="spacing" textLength="32.9424" x="357.5" y="443.332">value</text><text fill="#000000" font-family="sans-serif" font-size="14" lengthAdjust="spacing" textLength="84.752" x="357.5" y="459.7383">methodType?</text><text fill="#000000" font-family="sans-serif" font-size="14" lengthAdjust="spacing" textLength="76.002" x="357.5" y="476.1445">methodURI?</text><text fill="#000000" font-family="sans-serif" font-size="14" lengthAdjust="spacing" textLength="90.9658" x="357.5" y="492.5508">evidenceURI[]?</text><text fill="#000000" font-family="sans-serif" font-size="14" lengthAdjust="spacing" textLength="56.6494" x="357.5" y="508.957">location?</text><text fill="#000000" font-family="sans-serif" font-size="14" lengthAdjust="spacing" textLength="60.7236" x="357.5" y="525.3633">createdAt</text></g><!--class evaluation--><g class="entity" data-entity="evaluation" data-source-line="100" data-uid="ent0006" id="entity_evaluation"><rect fill="#F1F1F1" height="171.25" rx="2.5" ry="2.5" style="stroke:#181818;stroke-width:0.5;" width="119.707" x="411" y="80.625"/><ellipse cx="436.5521" cy="96.625" fill="#7E57C2" rx="11" ry="11" style="stroke:#181818;stroke-width:1;"/><path d="M433.7396,102.625 L436.9584,102.625 C440.0365,102.625 442.1459,100.8438 442.1459,97.0313 C442.1459,93.2188 440.0365,91.5469 436.8021,91.5469 L433.7396,91.5469 L433.7396,102.625 Z M436.2553,100.6094 L436.2553,93.5625 L436.6615,93.5625 C438.3959,93.5625 439.5678,94.375 439.5678,97.0313 C439.5678,99.6875 438.3959,100.6094 436.6615,100.6094 L436.2553,100.6094 Z " fill="#000000"/><text fill="#000000" font-family="sans-serif" font-size="14" lengthAdjust="spacing" textLength="64.2578" x="452.8971" y="101.4102">evaluation</text><line style="stroke:#181818;stroke-width:0.5;" x1="412" x2="529.707" y1="112.625" y2="112.625"/><text fill="#000000" font-family="sans-serif" font-size="14" lengthAdjust="spacing" textLength="52.1035" x="417" y="129.6133">subject?</text><text fill="#000000" font-family="sans-serif" font-size="14" lengthAdjust="spacing" textLength="58.4814" x="417" y="146.0195">summary</text><text fill="#000000" font-family="sans-serif" font-size="14" lengthAdjust="spacing" textLength="72.5156" x="417" y="162.4258">evaluators[]</text><text fill="#000000" font-family="sans-serif" font-size="14" lengthAdjust="spacing" textLength="61.4004" x="417" y="178.832">content[]?</text><text fill="#000000" font-family="sans-serif" font-size="14" lengthAdjust="spacing" textLength="107.707" x="417" y="195.2383">measurements[]?</text><text fill="#000000" font-family="sans-serif" font-size="14" lengthAdjust="spacing" textLength="34.7061" x="417" y="211.6445">score</text><text fill="#000000" font-family="sans-serif" font-size="14" lengthAdjust="spacing" textLength="56.6494" x="417" y="228.0508">location?</text><text fill="#000000" font-family="sans-serif" font-size="14" lengthAdjust="spacing" textLength="60.7236" x="417" y="244.457">createdAt</text></g><!--class contribution--><g class="entity" data-entity="contribution" data-source-line="114" data-uid="ent0007" id="entity_contribution"><rect fill="#F1F1F1" height="138.4375" rx="2.5" ry="2.5" style="stroke:#181818;stroke-width:0.5;" width="107.0518" x="939" y="369.625"/><ellipse cx="954" cy="385.625" fill="#7E57C2" rx="11" ry="11" style="stroke:#181818;stroke-width:1;"/><path d="M951.1875,391.625 L954.4063,391.625 C957.4844,391.625 959.5938,389.8438 959.5938,386.0313 C959.5938,382.2188 957.4844,380.5469 954.25,380.5469 L951.1875,380.5469 L951.1875,391.625 Z M953.7031,389.6094 L953.7031,382.5625 L954.1094,382.5625 C955.8438,382.5625 957.0156,383.375 957.0156,386.0313 C957.0156,388.6875 955.8438,389.6094 954.1094,389.6094 L953.7031,389.6094 Z " fill="#000000"/><text fill="#000000" font-family="sans-serif" font-size="14" lengthAdjust="spacing" textLength="75.0518" x="968" y="390.4102">contribution</text><line style="stroke:#181818;stroke-width:0.5;" x1="940" x2="1045.0518" y1="401.625" y2="401.625"/><text fill="#000000" font-family="sans-serif" font-size="14" lengthAdjust="spacing" textLength="30.1738" x="945" y="418.6133">role?</text><text fill="#000000" font-family="sans-serif" font-size="14" lengthAdjust="spacing" textLength="83.3096" x="945" y="435.0195">contributors[]</text><text fill="#000000" font-family="sans-serif" font-size="14" lengthAdjust="spacing" textLength="76.2002" x="945" y="451.4258">description?</text><text fill="#000000" font-family="sans-serif" font-size="14" lengthAdjust="spacing" textLength="64.1689" x="945" y="467.832">startDate?</text><text fill="#000000" font-family="sans-serif" font-size="14" lengthAdjust="spacing" textLength="58.4746" x="945" y="484.2383">endDate?</text><text fill="#000000" font-family="sans-serif" font-size="14" lengthAdjust="spacing" textLength="60.7236" x="945" y="500.6445">createdAt</text></g><!--class location--><g class="entity" data-entity="location" data-source-line="126" data-uid="ent0008" id="entity_location"><rect fill="#F1F1F1" height="154.8438" rx="2.5" ry="2.5" style="stroke:#181818;stroke-width:0.5;" width="92.2949" x="278.35" y="911.125"/><ellipse cx="297.9682" cy="927.125" fill="#7E57C2" rx="11" ry="11" style="stroke:#181818;stroke-width:1;"/><path d="M295.1557,933.125 L298.3745,933.125 C301.4526,933.125 303.562,931.3438 303.562,927.5313 C303.562,923.7188 301.4526,922.0469 298.2182,922.0469 L295.1557,922.0469 L295.1557,933.125 Z M297.6713,931.1094 L297.6713,924.0625 L298.0776,924.0625 C299.812,924.0625 300.9838,924.875 300.9838,927.5313 C300.9838,930.1875 299.812,931.1094 298.0776,931.1094 L297.6713,931.1094 Z " fill="#000000"/><text fill="#000000" font-family="sans-serif" font-size="14" lengthAdjust="spacing" textLength="50.0322" x="312.9945" y="931.9102">location</text><line style="stroke:#181818;stroke-width:0.5;" x1="279.35" x2="369.6449" y1="943.125" y2="943.125"/><text fill="#000000" font-family="sans-serif" font-size="14" lengthAdjust="spacing" textLength="58.6934" x="284.35" y="960.1133">lpVersion</text><text fill="#000000" font-family="sans-serif" font-size="14" lengthAdjust="spacing" textLength="19.1953" x="284.35" y="976.5195">srs</text><text fill="#000000" font-family="sans-serif" font-size="14" lengthAdjust="spacing" textLength="80.2949" x="284.35" y="992.9258">locationType</text><text fill="#000000" font-family="sans-serif" font-size="14" lengthAdjust="spacing" textLength="50.0322" x="284.35" y="1009.332">location</text><text fill="#000000" font-family="sans-serif" font-size="14" lengthAdjust="spacing" textLength="41.665" x="284.35" y="1025.7383">name?</text><text fill="#000000" font-family="sans-serif" font-size="14" lengthAdjust="spacing" textLength="76.2002" x="284.35" y="1042.1445">description?</text><text fill="#000000" font-family="sans-serif" font-size="14" lengthAdjust="spacing" textLength="60.7236" x="284.35" y="1058.5508">createdAt</text></g><!--class badgeDefinition--><g class="entity" data-entity="badgeDefinition" data-source-line="139" data-uid="ent0009" id="entity_badgeDefinition"><rect fill="#F1F1F1" height="138.4375" rx="2.5" ry="2.5" style="stroke:#181818;stroke-width:0.5;" width="130.376" x="1158.31" y="654.405"/><ellipse cx="1173.31" cy="670.405" fill="#7E57C2" rx="11" ry="11" style="stroke:#181818;stroke-width:1;"/><path d="M1170.4975,676.405 L1173.7163,676.405 C1176.7944,676.405 1178.9038,674.6238 1178.9038,670.8113 C1178.9038,666.9988 1176.7944,665.3269 1173.56,665.3269 L1170.4975,665.3269 L1170.4975,676.405 Z M1173.0131,674.3894 L1173.0131,667.3425 L1173.4194,667.3425 C1175.1538,667.3425 1176.3256,668.155 1176.3256,670.8113 C1176.3256,673.4675 1175.1538,674.3894 1173.4194,674.3894 L1173.0131,674.3894 Z " fill="#000000"/><text fill="#000000" font-family="sans-serif" font-size="14" lengthAdjust="spacing" textLength="98.376" x="1187.31" y="675.1902">badgeDefinition</text><line style="stroke:#181818;stroke-width:0.5;" x1="1159.31" x2="1287.686" y1="686.405" y2="686.405"/><text fill="#000000" font-family="sans-serif" font-size="14" lengthAdjust="spacing" textLength="68.9199" x="1164.31" y="703.3933">badgeType</text><text fill="#000000" font-family="sans-serif" font-size="14" lengthAdjust="spacing" textLength="23.3926" x="1164.31" y="719.7995">title</text><text fill="#000000" font-family="sans-serif" font-size="14" lengthAdjust="spacing" textLength="26.4482" x="1164.31" y="736.2058">icon</text><text fill="#000000" font-family="sans-serif" font-size="14" lengthAdjust="spacing" textLength="76.2002" x="1164.31" y="752.612">description?</text><text fill="#000000" font-family="sans-serif" font-size="14" lengthAdjust="spacing" textLength="107.6592" x="1164.31" y="769.0183">allowedIssuers[]?</text><text fill="#000000" font-family="sans-serif" font-size="14" lengthAdjust="spacing" textLength="60.7236" x="1164.31" y="785.4245">createdAt</text></g><!--class badgeAward--><g class="entity" data-entity="badgeAward" data-source-line="150" data-uid="ent0010" id="entity_badgeAward"><rect fill="#F1F1F1" height="105.625" rx="2.5" ry="2.5" style="stroke:#181818;stroke-width:0.5;" width="110.5654" x="1168.5" y="386.125"/><ellipse cx="1183.5" cy="402.125" fill="#7E57C2" rx="11" ry="11" style="stroke:#181818;stroke-width:1;"/><path d="M1180.6875,408.125 L1183.9063,408.125 C1186.9844,408.125 1189.0938,406.3438 1189.0938,402.5313 C1189.0938,398.7188 1186.9844,397.0469 1183.75,397.0469 L1180.6875,397.0469 L1180.6875,408.125 Z M1183.2031,406.1094 L1183.2031,399.0625 L1183.6094,399.0625 C1185.3438,399.0625 1186.5156,399.875 1186.5156,402.5313 C1186.5156,405.1875 1185.3438,406.1094 1183.6094,406.1094 L1183.2031,406.1094 Z " fill="#000000"/><text fill="#000000" font-family="sans-serif" font-size="14" lengthAdjust="spacing" textLength="78.5654" x="1197.5" y="406.9102">badgeAward</text><line style="stroke:#181818;stroke-width:0.5;" x1="1169.5" x2="1278.0654" y1="418.125" y2="418.125"/><text fill="#000000" font-family="sans-serif" font-size="14" lengthAdjust="spacing" textLength="38.6572" x="1174.5" y="435.1133">badge</text><text fill="#000000" font-family="sans-serif" font-size="14" lengthAdjust="spacing" textLength="45.4863" x="1174.5" y="451.5195">subject</text><text fill="#000000" font-family="sans-serif" font-size="14" lengthAdjust="spacing" textLength="34.3369" x="1174.5" y="467.9258">note?</text><text fill="#000000" font-family="sans-serif" font-size="14" lengthAdjust="spacing" textLength="60.7236" x="1174.5" y="484.332">createdAt</text></g><!--class badgeResponse--><g class="entity" data-entity="badgeResponse" data-source-line="159" data-uid="ent0011" id="entity_badgeResponse"><rect fill="#F1F1F1" height="105.625" rx="2.5" ry="2.5" style="stroke:#181818;stroke-width:0.5;" width="132.1602" x="1157.5" y="113.625"/><ellipse cx="1172.5" cy="129.625" fill="#7E57C2" rx="11" ry="11" style="stroke:#181818;stroke-width:1;"/><path d="M1169.6875,135.625 L1172.9063,135.625 C1175.9844,135.625 1178.0938,133.8438 1178.0938,130.0313 C1178.0938,126.2188 1175.9844,124.5469 1172.75,124.5469 L1169.6875,124.5469 L1169.6875,135.625 Z M1172.2031,133.6094 L1172.2031,126.5625 L1172.6094,126.5625 C1174.3438,126.5625 1175.5156,127.375 1175.5156,130.0313 C1175.5156,132.6875 1174.3438,133.6094 1172.6094,133.6094 L1172.2031,133.6094 Z " fill="#000000"/><text fill="#000000" font-family="sans-serif" font-size="14" lengthAdjust="spacing" textLength="100.1602" x="1186.5" y="134.4102">badgeResponse</text><line style="stroke:#181818;stroke-width:0.5;" x1="1158.5" x2="1288.6602" y1="145.625" y2="145.625"/><text fill="#000000" font-family="sans-serif" font-size="14" lengthAdjust="spacing" textLength="78.5654" x="1163.5" y="162.6133">badgeAward</text><text fill="#000000" font-family="sans-serif" font-size="14" lengthAdjust="spacing" textLength="57.6201" x="1163.5" y="179.0195">response</text><text fill="#000000" font-family="sans-serif" font-size="14" lengthAdjust="spacing" textLength="48.1182" x="1163.5" y="195.4258">weight?</text><text fill="#000000" font-family="sans-serif" font-size="14" lengthAdjust="spacing" textLength="60.7236" x="1163.5" y="211.832">createdAt</text></g><!--class rights--><g class="entity" data-entity="rights" data-source-line="169" data-uid="ent0012" id="entity_rights"><rect fill="#F1F1F1" height="122.0313" rx="2.5" ry="2.5" style="stroke:#181818;stroke-width:0.5;" width="118.4014" x="655.3" y="927.525"/><ellipse cx="693.1937" cy="943.525" fill="#7E57C2" rx="11" ry="11" style="stroke:#181818;stroke-width:1;"/><path d="M690.3812,949.525 L693.6,949.525 C696.6781,949.525 698.7875,947.7438 698.7875,943.9313 C698.7875,940.1188 696.6781,938.4469 693.4437,938.4469 L690.3812,938.4469 L690.3812,949.525 Z M692.8969,947.5094 L692.8969,940.4625 L693.3031,940.4625 C695.0375,940.4625 696.2094,941.275 696.2094,943.9313 C696.2094,946.5875 695.0375,947.5094 693.3031,947.5094 L692.8969,947.5094 Z " fill="#000000"/><text fill="#000000" font-family="sans-serif" font-size="14" lengthAdjust="spacing" textLength="35.5264" x="712.2813" y="948.3102">rights</text><line style="stroke:#181818;stroke-width:0.5;" x1="656.3" x2="772.7014" y1="959.525" y2="959.525"/><text fill="#000000" font-family="sans-serif" font-size="14" lengthAdjust="spacing" textLength="72.8301" x="661.3" y="976.5133">rightsName</text><text fill="#000000" font-family="sans-serif" font-size="14" lengthAdjust="spacing" textLength="65.7891" x="661.3" y="992.9195">rightsType</text><text fill="#000000" font-family="sans-serif" font-size="14" lengthAdjust="spacing" textLength="106.4014" x="661.3" y="1009.3258">rightsDescription</text><text fill="#000000" font-family="sans-serif" font-size="14" lengthAdjust="spacing" textLength="78.0596" x="661.3" y="1025.732">attachment?</text><text fill="#000000" font-family="sans-serif" font-size="14" lengthAdjust="spacing" textLength="60.7236" x="661.3" y="1042.1383">createdAt</text></g><!--class collection--><g class="entity" data-entity="collection" data-source-line="180" data-uid="ent0013" id="entity_collection"><rect fill="#F1F1F1" height="187.6563" rx="2.5" ry="2.5" style="stroke:#181818;stroke-width:0.5;" width="121.7373" x="7" y="345.125"/><ellipse cx="35.1238" cy="361.125" fill="#7E57C2" rx="11" ry="11" style="stroke:#181818;stroke-width:1;"/><path d="M32.3113,367.125 L35.5301,367.125 C38.6082,367.125 40.7176,365.3438 40.7176,361.5313 C40.7176,357.7188 38.6082,356.0469 35.3738,356.0469 L32.3113,356.0469 L32.3113,367.125 Z M34.827,365.1094 L34.827,358.0625 L35.2332,358.0625 C36.9676,358.0625 38.1395,358.875 38.1395,361.5313 C38.1395,364.1875 36.9676,365.1094 35.2332,365.1094 L34.827,365.1094 Z " fill="#000000"/><text fill="#000000" font-family="sans-serif" font-size="14" lengthAdjust="spacing" textLength="60.5732" x="52.0402" y="365.9102">collection</text><line style="stroke:#181818;stroke-width:0.5;" x1="8" x2="127.7373" y1="377.125" y2="377.125"/><text fill="#000000" font-family="sans-serif" font-size="14" lengthAdjust="spacing" textLength="26.4893" x="13" y="394.1133">type</text><text fill="#000000" font-family="sans-serif" font-size="14" lengthAdjust="spacing" textLength="23.3926" x="13" y="410.5195">title</text><text fill="#000000" font-family="sans-serif" font-size="14" lengthAdjust="spacing" textLength="109.7373" x="13" y="426.9258">shortDescription?</text><text fill="#000000" font-family="sans-serif" font-size="14" lengthAdjust="spacing" textLength="76.2002" x="13" y="443.332">description?</text><text fill="#000000" font-family="sans-serif" font-size="14" lengthAdjust="spacing" textLength="45.5684" x="13" y="459.7383">avatar?</text><text fill="#000000" font-family="sans-serif" font-size="14" lengthAdjust="spacing" textLength="77.9707" x="13" y="476.1445">coverPhoto?</text><text fill="#000000" font-family="sans-serif" font-size="14" lengthAdjust="spacing" textLength="63.1709" x="13" y="492.5508">activities[]</text><text fill="#000000" font-family="sans-serif" font-size="14" lengthAdjust="spacing" textLength="56.6494" x="13" y="508.957">location?</text><text fill="#000000" font-family="sans-serif" font-size="14" lengthAdjust="spacing" textLength="60.7236" x="13" y="525.3633">createdAt</text></g><!--class funder--><g class="entity" data-entity="funder" data-source-line="198" data-uid="ent0014" id="entity_funder"><rect fill="#FFD4A3" height="56.4063" rx="2.5" ry="2.5" style="stroke:#181818;stroke-width:0.5;" width="167.4219" x="630.79" y="410.415"/><ellipse cx="690.061" cy="426.415" fill="#ADD1B2" rx="11" ry="11" style="stroke:#181818;stroke-width:1;"/><path d="M686.1235,432.415 L693.6391,432.415 L693.6391,430.3056 L688.6391,430.3056 L688.6391,427.7588 L692.7329,427.7588 L692.7329,425.665 L688.6391,425.665 L688.6391,423.4463 L693.4672,423.4463 L693.4672,421.3369 L686.1235,421.3369 L686.1235,432.415 Z " fill="#000000"/><text fill="#000000" font-family="sans-serif" font-size="14" lengthAdjust="spacing" textLength="40.3799" x="710.561" y="431.2002">funder</text><line style="stroke:#181818;stroke-width:0.5;" x1="631.79" x2="797.2119" y1="442.415" y2="442.415"/><text fill="#000000" font-family="sans-serif" font-size="14" lengthAdjust="spacing" textLength="155.4219" x="636.79" y="459.4033">DID or name/pseudonym</text></g><!--class fundingReceipt--><g class="entity" data-entity="fundingReceipt" data-source-line="205" data-uid="ent0015" id="entity_fundingReceipt"><rect fill="#F1F1F1" height="220.4688" rx="2.5" ry="2.5" style="stroke:#181818;stroke-width:0.5;" width="125.8574" x="806" y="56.125"/><ellipse cx="821" cy="72.125" fill="#7E57C2" rx="11" ry="11" style="stroke:#181818;stroke-width:1;"/><path d="M818.1875,78.125 L821.4063,78.125 C824.4844,78.125 826.5938,76.3438 826.5938,72.5313 C826.5938,68.7188 824.4844,67.0469 821.25,67.0469 L818.1875,67.0469 L818.1875,78.125 Z M820.7031,76.1094 L820.7031,69.0625 L821.1094,69.0625 C822.8438,69.0625 824.0156,69.875 824.0156,72.5313 C824.0156,75.1875 822.8438,76.1094 821.1094,76.1094 L820.7031,76.1094 Z " fill="#000000"/><text fill="#000000" font-family="sans-serif" font-size="14" lengthAdjust="spacing" textLength="93.8574" x="835" y="76.9102">fundingReceipt</text><line style="stroke:#181818;stroke-width:0.5;" x1="807" x2="930.8574" y1="88.125" y2="88.125"/><text fill="#000000" font-family="sans-serif" font-size="14" lengthAdjust="spacing" textLength="12.5645" x="812" y="105.1133">to</text><text fill="#000000" font-family="sans-serif" font-size="14" lengthAdjust="spacing" textLength="29.873" x="812" y="121.5195">from</text><text fill="#000000" font-family="sans-serif" font-size="14" lengthAdjust="spacing" textLength="24.2129" x="812" y="137.9258">for?</text><text fill="#000000" font-family="sans-serif" font-size="14" lengthAdjust="spacing" textLength="47.9063" x="812" y="154.332">amount</text><text fill="#000000" font-family="sans-serif" font-size="14" lengthAdjust="spacing" textLength="53.6416" x="812" y="170.7383">currency</text><text fill="#000000" font-family="sans-serif" font-size="14" lengthAdjust="spacing" textLength="83.7813" x="812" y="187.1445">paymentRail?</text><text fill="#000000" font-family="sans-serif" font-size="14" lengthAdjust="spacing" textLength="113.0664" x="812" y="203.5508">paymentNetwork?</text><text fill="#000000" font-family="sans-serif" font-size="14" lengthAdjust="spacing" textLength="88.8604" x="812" y="219.957">transactionId?</text><text fill="#000000" font-family="sans-serif" font-size="14" lengthAdjust="spacing" textLength="41.5625" x="812" y="236.3633">notes?</text><text fill="#000000" font-family="sans-serif" font-size="14" lengthAdjust="spacing" textLength="75.4961" x="812" y="252.7695">occurredAt?</text><text fill="#000000" font-family="sans-serif" font-size="14" lengthAdjust="spacing" textLength="60.7236" x="812" y="269.1758">createdAt</text></g><!--class token--><g class="entity" data-entity="token" data-source-line="226" data-uid="ent0016" id="entity_token"><rect fill="#FFB6C1" height="65.8438" rx="2.5" ry="2.5" style="stroke:#181818;stroke-width:0.5;" width="104.2578" x="365.37" y="690.695"/><ellipse cx="390.0432" cy="707.4138" fill="#F1F1F1" rx="11" ry="11" style="stroke:#181818;stroke-width:1;"/><path d="M386.8245,713.4138 L389.3245,713.4138 L389.3245,709.6638 L390.7464,709.6638 C393.0901,709.6638 395.0745,708.5075 395.0745,705.8981 C395.0745,703.2106 393.137,702.3356 390.7464,702.3356 L386.8245,702.3356 L386.8245,713.4138 Z M389.3245,707.6638 L389.3245,704.32 L390.5901,704.32 C391.9182,704.32 392.637,704.7419 392.637,705.8981 C392.637,707.0544 391.9651,707.6638 390.5901,707.6638 L389.3245,707.6638 Z " fill="#000000"/><text fill="#000000" font-family="sans-serif" font-size="20" font-weight="bold" lengthAdjust="spacing" textLength="50.7617" x="406.1929" y="714.2497">token</text><line style="stroke:#181818;stroke-width:0.5;" x1="366.37" x2="468.6278" y1="724.1325" y2="724.1325"/><line style="stroke:#181818;stroke-width:0.5;" x1="366.37" x2="468.6278" y1="732.1325" y2="732.1325"/><text fill="#000000" font-family="sans-serif" font-size="14" lengthAdjust="spacing" textLength="92.2578" x="371.37" y="749.1208">(on-chain only)</text></g><!--class hiddenLocation1--><g class="entity" data-entity="hiddenLocation1" data-source-line="259" data-uid="ent0022" id="entity_hiddenLocation1"><rect fill="none" height="34.4063" rx="2.5" ry="2.5" style="stroke:none;stroke-width:0.5;" width="12" x="583.5" y="421.415"/><text fill="#000000" font-family="sans-serif" font-size="14" lengthAdjust="spacing" textLength="3.4727" x="587.7637" y="439.4033">&#160;</text><line style="stroke:none;stroke-width:0.5;" x1="584.5" x2="594.5" y1="447.8213" y2="447.8213"/></g><!--class hiddenLocation2--><g class="entity" data-entity="hiddenLocation2" data-source-line="276" data-uid="ent0027" id="entity_hiddenLocation2"><rect fill="none" height="34.4063" rx="2.5" ry="2.5" style="stroke:none;stroke-width:0.5;" width="12" x="318.5" y="706.415"/><text fill="#000000" font-family="sans-serif" font-size="14" lengthAdjust="spacing" textLength="3.4727" x="322.7637" y="724.4033">&#160;</text><line style="stroke:none;stroke-width:0.5;" x1="319.5" x2="329.5" y1="732.8213" y2="732.8213"/></g><!--reverse link token to activity--><!--link token to activity--><g class="link" data-entity-1="token" data-entity-2="activity" data-source-line="296" data-uid="lnk37" id="link_token_activity"><path codeLine="296" d="M470.02,723.625 C494.06,723.625 516.79,723.625 542.21,723.625" fill="none" id="token-to-activity" style="stroke:#666666;stroke-width:1;stroke-dasharray:7,7;"/><polygon fill="#666666" points="548.21,723.625,539.21,719.625,543.21,723.625,539.21,727.625,548.21,723.625" style="stroke:#666666;stroke-width:1;"/><text fill="#666666" font-family="sans-serif" font-size="10" lengthAdjust="spacing" textLength="42.7246" x="487.81" y="717.9023">tokenizes</text></g><!--link evaluation to evidence--><g class="link" data-entity-1="evaluation" data-entity-2="evidence" data-source-line="246" data-uid="lnk19" id="link_evaluation_evidence"><path codeLine="246" d="M410,124.625 C303.88,124.625 264.3868,259.1734 249.2468,351.9034" fill="none" id="evaluation-to-evidence" style="stroke:#666666;stroke-width:1;"/><polygon fill="#666666" points="248.28,357.825,253.678,349.5872,249.0857,352.8903,245.7825,348.2981,248.28,357.825" style="stroke:#666666;stroke-width:1;"/></g><!--link evaluation to measurement--><g class="link" data-entity-1="evaluation" data-entity-2="measurement" data-source-line="247" data-uid="lnk20" id="link_evaluation_measurement"><path codeLine="247" d="M410,189.625 C346.6,189.625 354.6698,265.9007 374.3498,335.6107" fill="none" id="evaluation-to-measurement" style="stroke:#666666;stroke-width:1;"/><polygon fill="#666666" points="375.98,341.385,377.3843,331.6368,374.6215,336.5731,369.6852,333.8103,375.98,341.385" style="stroke:#666666;stroke-width:1;"/></g><!--link evaluation to activity--><g class="link" data-entity-1="evaluation" data-entity-2="activity" data-source-line="248" data-uid="lnk21" id="link_evaluation_activity"><path codeLine="248" d="M531,124.625 C576.88,124.625 557.84,490.885 565.5,536.125 C569.55,560.025 573.7051,579.5216 579.6651,603.5416" fill="none" id="evaluation-to-activity" style="stroke:#666666;stroke-width:1;"/><polygon fill="#666666" points="581.11,609.365,582.8249,599.6666,579.9059,604.5122,575.0603,601.5932,581.11,609.365" style="stroke:#666666;stroke-width:1;"/></g><!--link evaluation to hiddenLocation1--><g class="link" data-entity-1="evaluation" data-entity-2="hiddenLocation1" data-source-line="261" data-uid="lnk23" id="link_evaluation_hiddenLocation1"><path codeLine="261" d="M531,222.625 C613.2,222.625 600.0791,364.824 592.9691,415.164" fill="none" id="evaluation-to-hiddenLocation1" style="stroke:#666666;stroke-width:1;"/><polygon fill="#666666" points="592.13,421.105,597.3494,412.7529,592.8293,416.1541,589.428,411.634,592.13,421.105" style="stroke:#666666;stroke-width:1;"/></g><!--link hiddenLocation1 to activity--><!--link evidence to activity--><g class="link" data-entity-1="evidence" data-entity-2="activity" data-source-line="270" data-uid="lnk25" id="link_evidence_activity"><path codeLine="270" d="M301,405.625 C360.1,405.625 289.85,489.765 326.5,536.125 C375.23,597.755 421.76,566.095 487.5,609.125 C508.56,622.905 525.1514,636.1299 543.8514,652.9699" fill="none" id="evidence-to-activity" style="stroke:#666666;stroke-width:1;"/><polygon fill="#666666" points="548.31,656.985,544.2989,647.99,544.5945,653.6391,538.9454,653.9347,548.31,656.985" style="stroke:#666666;stroke-width:1;"/></g><!--link measurement to activity--><g class="link" data-entity-1="measurement" data-entity-2="activity" data-source-line="272" data-uid="lnk26" id="link_measurement_activity"><path codeLine="272" d="M470.5,389.125 C513.39,389.125 487.27,539.845 504.5,579.125 C515.43,604.045 527.8763,623.8381 544.3563,645.3981" fill="none" id="measurement-to-activity" style="stroke:#666666;stroke-width:1;"/><polygon fill="#666666" points="548,650.165,545.7124,640.5855,544.9636,646.1926,539.3565,645.4438,548,650.165" style="stroke:#666666;stroke-width:1;"/></g><!--link measurement to hiddenLocation2--><g class="link" data-entity-1="measurement" data-entity-2="hiddenLocation2" data-source-line="278" data-uid="lnk28" id="link_measurement_hiddenLocation2"><path codeLine="278" d="M350.5,503.125 C309.63,503.125 318.2745,649.0955 322.5045,700.1455" fill="none" id="measurement-to-hiddenLocation2" style="stroke:#666666;stroke-width:1;"/><polygon fill="#666666" points="323,706.125,326.2431,696.8254,322.5871,701.1421,318.2705,697.486,323,706.125" style="stroke:#666666;stroke-width:1;"/></g><!--link hiddenLocation2 to location--><!--link collection to activity--><g class="link" data-entity-1="collection" data-entity-2="activity" data-source-line="285" data-uid="lnk30" id="link_collection_activity"><path codeLine="285" d="M129,487.125 C153.35,487.125 134.28,521.175 153.5,536.125 C168.49,547.785 470.6,600.445 487.5,609.125 C509.11,620.215 525.3998,631.9541 543.6198,648.1841" fill="none" id="collection-to-activity" style="stroke:#666666;stroke-width:1;"/><polygon fill="#666666" points="548.1,652.175,544.0402,643.2018,544.3665,648.8492,538.719,649.1755,548.1,652.175" style="stroke:#666666;stroke-width:1;"/></g><!--link collection to location--><g class="link" data-entity-1="collection" data-entity-2="location" data-source-line="286" data-uid="lnk31" id="link_collection_location"><path codeLine="286" d="M129,503.125 C150.71,503.125 247.339,768.5385 295.659,905.1285" fill="none" id="collection-to-location" style="stroke:#666666;stroke-width:1;"/><polygon fill="#666666" points="297.66,910.785,298.4294,900.9662,295.9925,906.0713,290.8875,903.6343,297.66,910.785" style="stroke:#666666;stroke-width:1;"/></g><!--reverse link contribution to activity--><g class="link" data-entity-1="contribution" data-entity-2="activity" data-source-line="288" data-uid="lnk33" id="link_contribution_activity"><path codeLine="288" d="M959.5789,516.9914 C912.8589,615.0314 815.94,773.125 672,773.125" fill="none" id="contribution-backto-activity" style="stroke:#666666;stroke-width:1;"/><polygon fill="#666666" points="962.16,511.575,954.6773,517.9789,960.009,516.0887,961.8992,521.4204,962.16,511.575" style="stroke:#666666;stroke-width:1;"/></g><!--link activity to rights--><g class="link" data-entity-1="activity" data-entity-2="rights" data-source-line="289" data-uid="lnk34" id="link_activity_rights"><path codeLine="289" d="M672,806.125 C722.79,806.125 727.7392,868.3734 723.5992,921.1534" fill="none" id="activity-to-rights" style="stroke:#666666;stroke-width:1;"/><polygon fill="#666666" points="723.13,927.135,727.8215,918.4754,723.521,922.1503,719.846,917.8498,723.13,927.135" style="stroke:#666666;stroke-width:1;"/></g><!--link activity to location--><g class="link" data-entity-1="activity" data-entity-2="location" data-source-line="290" data-uid="lnk35" id="link_activity_location"><path codeLine="290" d="M555,789.125 C543.17,789.125 439.3301,882.3585 375.4701,940.6885" fill="none" id="activity-to-location" style="stroke:#666666;stroke-width:1;"/><polygon fill="#666666" points="371.04,944.735,380.3828,941.6187,374.7318,941.3629,374.9875,935.7119,371.04,944.735" style="stroke:#666666;stroke-width:1;"/></g><!--link contribution to contributor--><g class="link" data-entity-1="contribution" data-entity-2="contributor" data-source-line="292" data-uid="lnk36" id="link_contribution_contributor"><path codeLine="292" d="M1047,429.625 C1083.45,429.625 1048.75,475.275 1046,511.625 C1040.99,577.825 1029.5315,649.0143 1022.5215,689.1843" fill="none" id="contribution-to-contributor" style="stroke:#666666;stroke-width:1;"/><polygon fill="#666666" points="1021.49,695.095,1026.9776,686.9166,1022.3496,690.1694,1019.0967,685.5413,1021.49,695.095" style="stroke:#666666;stroke-width:1;"/><text fill="#666666" font-family="sans-serif" font-size="10" lengthAdjust="spacing" textLength="37.9785" x="1041.19" y="576.4023">made by</text></g><!--link funder to activity--><g class="link" data-entity-1="funder" data-entity-2="activity" data-source-line="297" data-uid="lnk38" id="link_funder_activity"><path codeLine="297" d="M704.63,467.275 C692.87,500.235 674.4868,551.7441 655.9668,603.6341" fill="none" id="funder-to-activity" style="stroke:#666666;stroke-width:1;stroke-dasharray:7,7;"/><polygon fill="#666666" points="653.95,609.285,660.7425,602.1533,655.6307,604.5759,653.208,599.4641,653.95,609.285" style="stroke:#666666;stroke-width:1;"/><text fill="#666666" font-family="sans-serif" font-size="10" lengthAdjust="spacing" textLength="25.3125" x="668.03" y="576.4023">funds</text></g><!--link contributor to rights--><g class="link" data-entity-1="contributor" data-entity-2="rights" data-source-line="298" data-uid="lnk39" id="link_contributor_rights"><path codeLine="298" d="M984.75,752.265 C934.85,795.705 841.7752,876.7351 778.5352,931.7951" fill="none" id="contributor-to-rights" style="stroke:#666666;stroke-width:1;stroke-dasharray:7,7;"/><polygon fill="#666666" points="774.01,935.735,783.4244,932.842,777.781,932.4518,778.1712,926.8084,774.01,935.735" style="stroke:#666666;stroke-width:1;"/><text fill="#666666" font-family="sans-serif" font-size="10" lengthAdjust="spacing" textLength="16.1084" x="848.42" y="878.4023">has</text></g><!--link fundingReceipt to funder--><g class="link" data-entity-1="fundingReceipt" data-entity-2="funder" data-source-line="304" data-uid="lnk40" id="link_fundingReceipt_funder"><path codeLine="304" d="M805,116.125 C683.38,116.125 699.5302,325.9946 709.6202,403.9846" fill="none" id="fundingReceipt-to-funder" style="stroke:#666666;stroke-width:1;"/><polygon fill="#666666" points="710.39,409.935,713.2022,400.4962,709.7485,404.9763,705.2683,401.5226,710.39,409.935" style="stroke:#666666;stroke-width:1;"/></g><!--link fundingReceipt to contributor--><g class="link" data-entity-1="fundingReceipt" data-entity-2="contributor" data-source-line="305" data-uid="lnk41" id="link_fundingReceipt_contributor"><path codeLine="305" d="M932,100.125 C1150.06,100.125 1078.73,348.165 1085.5,566.125 C1085.68,571.895 1086.78,573.485 1085.5,579.125 C1075.7,622.115 1054.4499,662.1099 1037.4599,690.0199" fill="none" id="fundingReceipt-to-contributor" style="stroke:#666666;stroke-width:1;"/><polygon fill="#666666" points="1034.34,695.145,1042.4365,689.5373,1036.9399,690.8741,1035.6031,685.3775,1034.34,695.145" style="stroke:#666666;stroke-width:1;"/></g><!--link fundingReceipt to activity--><g class="link" data-entity-1="fundingReceipt" data-entity-2="activity" data-source-line="307" data-uid="lnk42" id="link_fundingReceipt_activity"><path codeLine="307" d="M932,132.125 C997.78,132.125 951.6,217.655 931,280.125 C920.49,311.995 902.29,311.505 886.5,341.125 C843.12,422.515 866.6,459.335 815.5,536.125 C778.87,591.155 727.4697,637.5204 683.6697,671.9004" fill="none" id="fundingReceipt-to-activity" style="stroke:#666666;stroke-width:1;"/><polygon fill="#666666" points="678.95,675.605,688.4993,673.1945,682.8831,672.5178,683.5598,666.9016,678.95,675.605" style="stroke:#666666;stroke-width:1;"/><text fill="#666666" font-family="sans-serif" font-size="10" lengthAdjust="spacing" textLength="25.3125" x="887.5" y="442.4023">funds</text></g><!--link badgeAward to badgeDefinition--><g class="link" data-entity-1="badgeAward" data-entity-2="badgeDefinition" data-source-line="309" data-uid="lnk43" id="link_badgeAward_badgeDefinition"><path codeLine="309" d="M1279.5,430.125 C1370.24,430.125 1313.1014,562.3059 1266.4014,648.7659" fill="none" id="badgeAward-to-badgeDefinition" style="stroke:#666666;stroke-width:1;"/><polygon fill="#666666" points="1263.55,654.045,1271.3466,648.0273,1265.9262,649.6457,1264.3077,644.2253,1263.55,654.045" style="stroke:#666666;stroke-width:1;"/></g><!--link badgeResponse to badgeAward--><g class="link" data-entity-1="badgeResponse" data-entity-2="badgeAward" data-source-line="310" data-uid="lnk44" id="link_badgeResponse_badgeAward"><path codeLine="310" d="M1290.5,157.625 C1381.97,157.625 1311.5364,295.5717 1262.1564,377.1717" fill="none" id="badgeResponse-to-badgeAward" style="stroke:#666666;stroke-width:1;"/><polygon fill="#666666" points="1259.05,382.305,1267.1317,376.676,1261.6386,378.0273,1260.2874,372.5342,1259.05,382.305" style="stroke:#666666;stroke-width:1;"/></g><!--link badgeAward to contributor--><g class="link" data-entity-1="badgeAward" data-entity-2="contributor" data-source-line="311" data-uid="lnk45" id="link_badgeAward_contributor"><path codeLine="311" d="M1167.5,446.125 C1106.49,446.125 1160.98,524.645 1133.5,579.125 C1110.77,624.185 1076.127,663.667 1049.467,690.777" fill="none" id="badgeAward-to-contributor" style="stroke:#666666;stroke-width:1;"/><polygon fill="#666666" points="1045.26,695.055,1054.4225,691.4427,1048.7658,691.49,1048.7185,685.8333,1045.26,695.055" style="stroke:#666666;stroke-width:1;"/></g><!--link badgeAward to activity--><g class="link" data-entity-1="badgeAward" data-entity-2="activity" data-source-line="312" data-uid="lnk46" id="link_badgeAward_activity"><path codeLine="312" d="M1167.5,446.125 C1085.15,446.125 1109.97,538.205 1038.5,579.125 C989.67,607.075 969.27,592.525 915.5,609.125 C832.68,634.685 745.1906,668.5611 684.5506,693.1411" fill="none" id="badgeAward-to-activity" style="stroke:#666666;stroke-width:1;"/><polygon fill="#666666" points="678.99,695.395,688.8335,695.7211,683.6238,693.5167,685.8282,688.3071,678.99,695.395" style="stroke:#666666;stroke-width:1;"/></g><!--SRC=[Kqn9JSlCIrK8zl0FZtVpTFLn2LOeAIfDvU9IpCnBpYbDILLm3NBHAoZDpU420000]--></g></svg>