<svg xmlns="http://www.w3.org/2000/svg" xmlns:xlink="http://www.w3.org/1999/xlink" contentStyleType="text/css" data-diagram-type="CLASS" height="970px" preserveAspectRatio="none" style="width:936px;height:970px;background:#FFFFFF;" version="1.1" viewBox="0 0 936 970" width="936px" zoomAndPan="magnify"><title>Hypercert ERD</title><defs/><g><g class="title" data-source-line="1"><text fill="#000000" font-family="sans-serif" font-size="24" font-weight="bold" lengthAdjust="spacing" textLength="157.0547" x="382.7827" y="32.2656">Hypercert ERD</text></g><!--class contributor--><g class="entity" data-entity="contributor" data-source-line="39" data-uid="ent0002" id="entity_contributor"><rect fill="#FFD4A3" height="56.4063" rx="2.5" ry="2.5" style="stroke:#181818;stroke-width:0.5;" width="167.4219" x="16.61" y="88.915"/><ellipse cx="61.7409" cy="104.915" fill="#ADD1B2" rx="11" ry="11" style="stroke:#181818;stroke-width:1;"/><path d="M57.8034,110.915 L65.319,110.915 L65.319,108.8056 L60.319,108.8056 L60.319,106.2588 L64.4127,106.2588 L64.4127,104.165 L60.319,104.165 L60.319,101.9463 L65.1471,101.9463 L65.1471,99.8369 L57.8034,99.8369 L57.8034,110.915 Z " fill="#000000"/><text fill="#000000" font-family="sans-serif" font-size="14" lengthAdjust="spacing" textLength="68.6602" x="82.2409" y="109.7002">contributor</text><line style="stroke:#181818;stroke-width:0.5;" x1="17.61" x2="183.0319" y1="120.915" y2="120.915"/><text fill="#000000" font-family="sans-serif" font-size="14" lengthAdjust="spacing" textLength="155.4219" x="22.61" y="137.9033">DID or name/pseudonym</text></g><!--class activity--><g class="entity" data-entity="activity" data-source-line="45" data-uid="ent0003" id="entity_activity"><rect fill="#B4E5D0" height="238.3125" rx="2.5" ry="2.5" style="stroke:#181818;stroke-width:0.5;" width="146.3467" x="277.32" y="494.125"/><ellipse cx="314.3239" cy="510.8438" fill="#7E57C2" rx="11" ry="11" style="stroke:#181818;stroke-width:1;"/><path d="M311.5114,516.8438 L314.7301,516.8438 C317.8082,516.8438 319.9176,515.0625 319.9176,511.25 C319.9176,507.4375 317.8082,505.7656 314.5739,505.7656 L311.5114,505.7656 L311.5114,516.8438 Z M314.027,514.8281 L314.027,507.7813 L314.4332,507.7813 C316.1676,507.7813 317.3395,508.5938 317.3395,511.25 C317.3395,513.9063 316.1676,514.8281 314.4332,514.8281 L314.027,514.8281 Z " fill="#000000"/><text fill="#000000" font-family="sans-serif" font-size="20" font-weight="bold" lengthAdjust="spacing" textLength="65.4492" x="333.2136" y="517.6797">activity</text><line style="stroke:#181818;stroke-width:0.5;" x1="278.32" x2="422.6667" y1="527.5625" y2="527.5625"/><text fill="#000000" font-family="sans-serif" font-size="14" lengthAdjust="spacing" textLength="23.3926" x="283.32" y="544.5508">title</text><text fill="#000000" font-family="sans-serif" font-size="14" lengthAdjust="spacing" textLength="103.1201" x="283.32" y="560.957">shortDescription</text><text fill="#000000" font-family="sans-serif" font-size="14" lengthAdjust="spacing" textLength="69.583" x="283.32" y="577.3633">description</text><text fill="#000000" font-family="sans-serif" font-size="14" lengthAdjust="spacing" textLength="38.582" x="283.32" y="593.7695">image</text><text fill="#000000" font-family="sans-serif" font-size="14" lengthAdjust="spacing" textLength="69.2549" x="283.32" y="610.1758">workScope</text><text fill="#000000" font-family="sans-serif" font-size="14" lengthAdjust="spacing" textLength="134.3467" x="283.32" y="626.582">workTimeFrameFrom</text><text fill="#000000" font-family="sans-serif" font-size="14" lengthAdjust="spacing" textLength="117.9404" x="283.32" y="642.9883">workTimeFrameTo</text><text fill="#000000" font-family="sans-serif" font-size="14" lengthAdjust="spacing" textLength="62.8359" x="283.32" y="659.3945">evidence[]</text><text fill="#000000" font-family="sans-serif" font-size="14" lengthAdjust="spacing" textLength="89.7012" x="283.32" y="675.8008">contributions[]</text><text fill="#000000" font-family="sans-serif" font-size="14" lengthAdjust="spacing" textLength="35.5264" x="283.32" y="692.207">rights</text><text fill="#000000" font-family="sans-serif" font-size="14" lengthAdjust="spacing" textLength="50.0322" x="283.32" y="708.6133">location</text><text fill="#000000" font-family="sans-serif" font-size="14" lengthAdjust="spacing" textLength="60.7236" x="283.32" y="725.0195">createdAt</text></g><!--class evidence--><g class="entity" data-entity="evidence" data-source-line="62" data-uid="ent0004" id="entity_evidence"><rect fill="#F1F1F1" height="122.0313" rx="2.5" ry="2.5" style="stroke:#181818;stroke-width:0.5;" width="115.1201" x="595.76" y="825.525"/><ellipse cx="623.2286" cy="841.525" fill="#7E57C2" rx="11" ry="11" style="stroke:#181818;stroke-width:1;"/><path d="M620.4161,847.525 L623.6349,847.525 C626.713,847.525 628.8224,845.7438 628.8224,841.9313 C628.8224,838.1188 626.713,836.4469 623.4786,836.4469 L620.4161,836.4469 L620.4161,847.525 Z M622.9317,845.5094 L622.9317,838.4625 L623.338,838.4625 C625.0724,838.4625 626.2442,839.275 626.2442,841.9313 C626.2442,844.5875 625.0724,845.5094 623.338,845.5094 L622.9317,845.5094 Z " fill="#000000"/><text fill="#000000" font-family="sans-serif" font-size="14" lengthAdjust="spacing" textLength="55.4121" x="639.9994" y="846.3102">evidence</text><line style="stroke:#181818;stroke-width:0.5;" x1="596.76" x2="709.8801" y1="857.525" y2="857.525"/><text fill="#000000" font-family="sans-serif" font-size="14" lengthAdjust="spacing" textLength="47.3594" x="601.76" y="874.5133">content</text><text fill="#000000" font-family="sans-serif" font-size="14" lengthAdjust="spacing" textLength="23.3926" x="601.76" y="890.9195">title</text><text fill="#000000" font-family="sans-serif" font-size="14" lengthAdjust="spacing" textLength="103.1201" x="601.76" y="907.3258">shortDescription</text><text fill="#000000" font-family="sans-serif" font-size="14" lengthAdjust="spacing" textLength="69.583" x="601.76" y="923.732">description</text><text fill="#000000" font-family="sans-serif" font-size="14" lengthAdjust="spacing" textLength="60.7236" x="601.76" y="940.1383">createdAt</text></g><!--class measurements--><g class="entity" data-entity="measurements" data-source-line="72" data-uid="ent0005" id="entity_measurements"><rect fill="#F1F1F1" height="154.8438" rx="2.5" ry="2.5" style="stroke:#181818;stroke-width:0.5;" width="167.7705" x="503.82" y="259.125"/><ellipse cx="537.767" cy="275.125" fill="#7E57C2" rx="11" ry="11" style="stroke:#181818;stroke-width:1;"/><path d="M534.9545,281.125 L538.1733,281.125 C541.2514,281.125 543.3608,279.3438 543.3608,275.5313 C543.3608,271.7188 541.2514,270.0469 538.017,270.0469 L534.9545,270.0469 L534.9545,281.125 Z M537.4701,279.1094 L537.4701,272.0625 L537.8764,272.0625 C539.6108,272.0625 540.7826,272.875 540.7826,275.5313 C540.7826,278.1875 539.6108,279.1094 537.8764,279.1094 L537.4701,279.1094 Z " fill="#000000"/><text fill="#000000" font-family="sans-serif" font-size="14" lengthAdjust="spacing" textLength="93.666" x="555.9775" y="279.9102">measurements</text><line style="stroke:#181818;stroke-width:0.5;" x1="504.82" x2="670.5905" y1="291.125" y2="291.125"/><text fill="#000000" font-family="sans-serif" font-size="14" lengthAdjust="spacing" textLength="58.4404" x="509.82" y="308.1133">hypercert</text><text fill="#000000" font-family="sans-serif" font-size="14" lengthAdjust="spacing" textLength="73.8213" x="509.82" y="324.5195">measurers[]</text><text fill="#000000" font-family="sans-serif" font-size="14" lengthAdjust="spacing" textLength="39.7578" x="509.82" y="340.9258">metric</text><text fill="#000000" font-family="sans-serif" font-size="14" lengthAdjust="spacing" textLength="32.9424" x="509.82" y="357.332">value</text><text fill="#000000" font-family="sans-serif" font-size="14" lengthAdjust="spacing" textLength="155.7705" x="509.82" y="373.7383">measurementMethodURI</text><text fill="#000000" font-family="sans-serif" font-size="14" lengthAdjust="spacing" textLength="84.3486" x="509.82" y="390.1445">evidenceURI[]</text><text fill="#000000" font-family="sans-serif" font-size="14" lengthAdjust="spacing" textLength="60.7236" x="509.82" y="406.5508">createdAt</text></g><!--class evaluations--><g class="entity" data-entity="evaluations" data-source-line="84" data-uid="ent0006" id="entity_evaluations"><rect fill="#F1F1F1" height="122.0313" rx="2.5" ry="2.5" style="stroke:#181818;stroke-width:0.5;" width="103.4834" x="535.82" y="56.125"/><ellipse cx="550.82" cy="72.125" fill="#7E57C2" rx="11" ry="11" style="stroke:#181818;stroke-width:1;"/><path d="M548.0075,78.125 L551.2263,78.125 C554.3044,78.125 556.4138,76.3438 556.4138,72.5313 C556.4138,68.7188 554.3044,67.0469 551.07,67.0469 L548.0075,67.0469 L548.0075,78.125 Z M550.5231,76.1094 L550.5231,69.0625 L550.9294,69.0625 C552.6638,69.0625 553.8356,69.875 553.8356,72.5313 C553.8356,75.1875 552.6638,76.1094 550.9294,76.1094 L550.5231,76.1094 Z " fill="#000000"/><text fill="#000000" font-family="sans-serif" font-size="14" lengthAdjust="spacing" textLength="71.4834" x="564.82" y="76.9102">evaluations</text><line style="stroke:#181818;stroke-width:0.5;" x1="536.82" x2="638.3034" y1="88.125" y2="88.125"/><text fill="#000000" font-family="sans-serif" font-size="14" lengthAdjust="spacing" textLength="45.4863" x="541.82" y="105.1133">subject</text><text fill="#000000" font-family="sans-serif" font-size="14" lengthAdjust="spacing" textLength="72.5156" x="541.82" y="121.5195">evaluators[]</text><text fill="#000000" font-family="sans-serif" font-size="14" lengthAdjust="spacing" textLength="78.9072" x="541.82" y="137.9258">evaluations[]</text><text fill="#000000" font-family="sans-serif" font-size="14" lengthAdjust="spacing" textLength="58.4814" x="541.82" y="154.332">summary</text><text fill="#000000" font-family="sans-serif" font-size="14" lengthAdjust="spacing" textLength="60.7236" x="541.82" y="170.7383">createdAt</text></g><!--class contributions--><g class="entity" data-entity="contributions" data-source-line="94" data-uid="ent0007" id="entity_contributions"><rect fill="#F1F1F1" height="154.8438" rx="2.5" ry="2.5" style="stroke:#181818;stroke-width:0.5;" width="143.4756" x="237.82" y="259.125"/><ellipse cx="265.9592" cy="275.125" fill="#7E57C2" rx="11" ry="11" style="stroke:#181818;stroke-width:1;"/><path d="M263.1467,281.125 L266.3655,281.125 C269.4436,281.125 271.553,279.3438 271.553,275.5313 C271.553,271.7188 269.4436,270.0469 266.2092,270.0469 L263.1467,270.0469 L263.1467,281.125 Z M265.6623,279.1094 L265.6623,272.0625 L266.0686,272.0625 C267.803,272.0625 268.9748,272.875 268.9748,275.5313 C268.9748,278.1875 267.803,279.1094 266.0686,279.1094 L265.6623,279.1094 Z " fill="#000000"/><text fill="#000000" font-family="sans-serif" font-size="14" lengthAdjust="spacing" textLength="82.2773" x="282.879" y="279.9102">contributions</text><line style="stroke:#181818;stroke-width:0.5;" x1="238.82" x2="380.2956" y1="291.125" y2="291.125"/><text fill="#000000" font-family="sans-serif" font-size="14" lengthAdjust="spacing" textLength="58.4404" x="243.82" y="308.1133">hypercert</text><text fill="#000000" font-family="sans-serif" font-size="14" lengthAdjust="spacing" textLength="23.5566" x="243.82" y="324.5195">role</text><text fill="#000000" font-family="sans-serif" font-size="14" lengthAdjust="spacing" textLength="76.084" x="243.82" y="340.9258">contributor[]</text><text fill="#000000" font-family="sans-serif" font-size="14" lengthAdjust="spacing" textLength="69.583" x="243.82" y="357.332">description</text><text fill="#000000" font-family="sans-serif" font-size="14" lengthAdjust="spacing" textLength="131.4756" x="243.82" y="373.7383">workTimeframeFrom</text><text fill="#000000" font-family="sans-serif" font-size="14" lengthAdjust="spacing" textLength="115.0693" x="243.82" y="390.1445">workTimeframeTo</text><text fill="#000000" font-family="sans-serif" font-size="14" lengthAdjust="spacing" textLength="60.7236" x="243.82" y="406.5508">createdAt</text></g><!--class location--><g class="entity" data-entity="location" data-source-line="106" data-uid="ent0008" id="entity_location"><rect fill="#F1F1F1" height="154.8438" rx="2.5" ry="2.5" style="stroke:#181818;stroke-width:0.5;" width="92.2949" x="370.17" y="809.125"/><ellipse cx="389.7882" cy="825.125" fill="#7E57C2" rx="11" ry="11" style="stroke:#181818;stroke-width:1;"/><path d="M386.9757,831.125 L390.1945,831.125 C393.2726,831.125 395.382,829.3438 395.382,825.5313 C395.382,821.7188 393.2726,820.0469 390.0382,820.0469 L386.9757,820.0469 L386.9757,831.125 Z M389.4913,829.1094 L389.4913,822.0625 L389.8976,822.0625 C391.632,822.0625 392.8038,822.875 392.8038,825.5313 C392.8038,828.1875 391.632,829.1094 389.8976,829.1094 L389.4913,829.1094 Z " fill="#000000"/><text fill="#000000" font-family="sans-serif" font-size="14" lengthAdjust="spacing" textLength="50.0322" x="404.8145" y="829.9102">location</text><line style="stroke:#181818;stroke-width:0.5;" x1="371.17" x2="461.4649" y1="841.125" y2="841.125"/><text fill="#000000" font-family="sans-serif" font-size="14" lengthAdjust="spacing" textLength="58.6934" x="376.17" y="858.1133">lpVersion</text><text fill="#000000" font-family="sans-serif" font-size="14" lengthAdjust="spacing" textLength="19.1953" x="376.17" y="874.5195">srs</text><text fill="#000000" font-family="sans-serif" font-size="14" lengthAdjust="spacing" textLength="80.2949" x="376.17" y="890.9258">locationType</text><text fill="#000000" font-family="sans-serif" font-size="14" lengthAdjust="spacing" textLength="50.0322" x="376.17" y="907.332">location</text><text fill="#000000" font-family="sans-serif" font-size="14" lengthAdjust="spacing" textLength="35.0479" x="376.17" y="923.7383">name</text><text fill="#000000" font-family="sans-serif" font-size="14" lengthAdjust="spacing" textLength="69.583" x="376.17" y="940.1445">description</text><text fill="#000000" font-family="sans-serif" font-size="14" lengthAdjust="spacing" textLength="60.7236" x="376.17" y="956.5508">createdAt</text></g><!--class rights--><g class="entity" data-entity="rights" data-source-line="118" data-uid="ent0009" id="entity_rights"><rect fill="#F1F1F1" height="105.625" rx="2.5" ry="2.5" style="stroke:#181818;stroke-width:0.5;" width="118.4014" x="48.12" y="833.735"/><ellipse cx="86.0138" cy="849.735" fill="#7E57C2" rx="11" ry="11" style="stroke:#181818;stroke-width:1;"/><path d="M83.2013,855.735 L86.42,855.735 C89.4981,855.735 91.6075,853.9538 91.6075,850.1413 C91.6075,846.3288 89.4981,844.6569 86.2638,844.6569 L83.2013,844.6569 L83.2013,855.735 Z M85.7169,853.7194 L85.7169,846.6725 L86.1231,846.6725 C87.8575,846.6725 89.0294,847.485 89.0294,850.1413 C89.0294,852.7975 87.8575,853.7194 86.1231,853.7194 L85.7169,853.7194 Z " fill="#000000"/><text fill="#000000" font-family="sans-serif" font-size="14" lengthAdjust="spacing" textLength="35.5264" x="105.1013" y="854.5202">rights</text><line style="stroke:#181818;stroke-width:0.5;" x1="49.12" x2="165.5214" y1="865.735" y2="865.735"/><text fill="#000000" font-family="sans-serif" font-size="14" lengthAdjust="spacing" textLength="72.8301" x="54.12" y="882.7233">rightsName</text><text fill="#000000" font-family="sans-serif" font-size="14" lengthAdjust="spacing" textLength="65.7891" x="54.12" y="899.1295">rightsType</text><text fill="#000000" font-family="sans-serif" font-size="14" lengthAdjust="spacing" textLength="106.4014" x="54.12" y="915.5358">rightsDescription</text><text fill="#000000" font-family="sans-serif" font-size="14" lengthAdjust="spacing" textLength="60.7236" x="54.12" y="931.942">createdAt</text></g><!--class collection--><g class="entity" data-entity="collection" data-source-line="127" data-uid="ent0010" id="entity_collection"><rect fill="#F1F1F1" height="122.0313" rx="2.5" ry="2.5" style="stroke:#181818;stroke-width:0.5;" width="115.1201" x="71.82" y="275.125"/><ellipse cx="96.9661" cy="291.125" fill="#7E57C2" rx="11" ry="11" style="stroke:#181818;stroke-width:1;"/><path d="M94.1536,297.125 L97.3723,297.125 C100.4505,297.125 102.5598,295.3438 102.5598,291.5313 C102.5598,287.7188 100.4505,286.0469 97.2161,286.0469 L94.1536,286.0469 L94.1536,297.125 Z M96.6692,295.1094 L96.6692,288.0625 L97.0755,288.0625 C98.8098,288.0625 99.9817,288.875 99.9817,291.5313 C99.9817,294.1875 98.8098,295.1094 97.0755,295.1094 L96.6692,295.1094 Z " fill="#000000"/><text fill="#000000" font-family="sans-serif" font-size="14" lengthAdjust="spacing" textLength="60.5732" x="113.2208" y="295.9102">collection</text><line style="stroke:#181818;stroke-width:0.5;" x1="72.82" x2="185.9401" y1="307.125" y2="307.125"/><text fill="#000000" font-family="sans-serif" font-size="14" lengthAdjust="spacing" textLength="23.3926" x="77.82" y="324.1133">title</text><text fill="#000000" font-family="sans-serif" font-size="14" lengthAdjust="spacing" textLength="103.1201" x="77.82" y="340.5195">shortDescription</text><text fill="#000000" font-family="sans-serif" font-size="14" lengthAdjust="spacing" textLength="71.3535" x="77.82" y="356.9258">coverPhoto</text><text fill="#000000" font-family="sans-serif" font-size="14" lengthAdjust="spacing" textLength="48.6787" x="77.82" y="373.332">claims[]</text><text fill="#000000" font-family="sans-serif" font-size="14" lengthAdjust="spacing" textLength="60.7236" x="77.82" y="389.7383">createdAt</text></g><!--class token--><g class="entity" data-entity="token" data-source-line="137" data-uid="ent0011" id="entity_token"><rect fill="#FFB6C1" height="65.8438" rx="2.5" ry="2.5" style="stroke:#181818;stroke-width:0.5;" width="104.2578" x="231.19" y="853.625"/><ellipse cx="255.8632" cy="870.3438" fill="#F1F1F1" rx="11" ry="11" style="stroke:#181818;stroke-width:1;"/><path d="M252.6445,876.3438 L255.1445,876.3438 L255.1445,872.5938 L256.5664,872.5938 C258.9101,872.5938 260.8945,871.4375 260.8945,868.8281 C260.8945,866.1406 258.957,865.2656 256.5664,865.2656 L252.6445,865.2656 L252.6445,876.3438 Z M255.1445,870.5938 L255.1445,867.25 L256.4101,867.25 C257.7382,867.25 258.457,867.6719 258.457,868.8281 C258.457,869.9844 257.7851,870.5938 256.4101,870.5938 L255.1445,870.5938 Z " fill="#000000"/><text fill="#000000" font-family="sans-serif" font-size="20" font-weight="bold" lengthAdjust="spacing" textLength="50.7617" x="272.0129" y="877.1797">token</text><line style="stroke:#181818;stroke-width:0.5;" x1="232.19" x2="334.4478" y1="887.0625" y2="887.0625"/><line style="stroke:#181818;stroke-width:0.5;" x1="232.19" x2="334.4478" y1="895.0625" y2="895.0625"/><text fill="#000000" font-family="sans-serif" font-size="14" lengthAdjust="spacing" textLength="92.2578" x="237.19" y="912.0508">(on-chain only)</text></g><!--link activity to evidence--><g class="link" data-entity-1="activity" data-entity-2="evidence" data-source-line="143" data-uid="lnk12" id="link_activity_evidence"><path codeLine="143" d="M424.32,654.125 C520.55,654.125 587.2949,751.1553 623.0649,819.7253" fill="none" id="activity-to-evidence" style="stroke:#666666;stroke-width:1;"/><polygon fill="#666666" points="625.84,825.045,625.2239,815.2154,623.5275,820.6119,618.131,818.9155,625.84,825.045" style="stroke:#666666;stroke-width:1;"/></g><!--link activity to contributions--><g class="link" data-entity-1="activity" data-entity-2="contributions" data-source-line="144" data-uid="lnk13" id="link_activity_contributions"><path codeLine="144" d="M424.32,670.125 C504.32,670.125 448.71,565.985 423.32,490.125 C414.65,464.205 403.2823,443.9404 387.0323,421.8204" fill="none" id="activity-to-contributions" style="stroke:#666666;stroke-width:1;"/><polygon fill="#666666" points="383.48,416.985,385.5848,426.6063,386.4402,421.0145,392.032,421.87,383.48,416.985" style="stroke:#666666;stroke-width:1;"/></g><!--link contributions to activity--><g class="link" data-entity-1="contributions" data-entity-2="activity" data-source-line="151" data-uid="lnk20" id="link_contributions_activity"><path codeLine="151" d="M381.82,303.125 C421.25,303.125 406.7583,398.1326 385.8783,484.6026" fill="none" id="contributions-to-activity" style="stroke:#666666;stroke-width:1;"/><polygon fill="#666666" points="384.47,490.435,390.4708,482.6253,385.6436,485.5747,382.6943,480.7475,384.47,490.435" style="stroke:#666666;stroke-width:1;"/></g><!--link activity to rights--><g class="link" data-entity-1="activity" data-entity-2="rights" data-source-line="145" data-uid="lnk14" id="link_activity_rights"><path codeLine="145" d="M276.32,687.125 C199.4,687.125 152.4124,769.0843 127.9824,827.8743" fill="none" id="activity-to-rights" style="stroke:#666666;stroke-width:1;"/><polygon fill="#666666" points="125.68,833.415,132.8274,826.6389,127.5987,828.7978,125.4398,823.5691,125.68,833.415" style="stroke:#666666;stroke-width:1;"/></g><!--link activity to location--><g class="link" data-entity-1="activity" data-entity-2="location" data-source-line="146" data-uid="lnk15" id="link_activity_location"><path codeLine="146" d="M424.32,703.125 C469.18,703.125 463.7699,753.122 448.3799,802.972" fill="none" id="activity-to-location" style="stroke:#666666;stroke-width:1;"/><polygon fill="#666666" points="446.61,808.705,453.0869,801.2854,448.0849,803.9275,445.4429,798.9255,446.61,808.705" style="stroke:#666666;stroke-width:1;"/></g><!--link measurements to activity--><g class="link" data-entity-1="measurements" data-entity-2="activity" data-source-line="147" data-uid="lnk16" id="link_measurements_activity"><path codeLine="147" d="M502.82,303.125 C431.38,303.125 498.64,395.425 468.32,460.125 C458.47,481.145 448.8086,497.1096 434.8086,516.2796" fill="none" id="measurements-to-activity" style="stroke:#666666;stroke-width:1;"/><polygon fill="#666666" points="431.27,521.125,439.8082,516.216,434.2189,517.0872,433.3477,511.4978,431.27,521.125" style="stroke:#666666;stroke-width:1;"/></g><!--link evaluations to evidence--><g class="link" data-entity-1="evaluations" data-entity-2="evidence" data-source-line="148" data-uid="lnk17" id="link_evaluations_evidence"><path codeLine="148" d="M639.82,100.125 C929.62,100.125 749.7502,635.6997 679.5302,819.6097" fill="none" id="evaluations-to-evidence" style="stroke:#666666;stroke-width:1;"/><polygon fill="#666666" points="677.39,825.215,684.3372,818.2338,679.1735,820.5439,676.8634,815.3802,677.39,825.215" style="stroke:#666666;stroke-width:1;"/></g><!--link evaluations to measurements--><g class="link" data-entity-1="evaluations" data-entity-2="measurements" data-source-line="149" data-uid="lnk18" id="link_evaluations_measurements"><path codeLine="149" d="M639.82,100.125 C704.93,100.125 674.1989,181.8084 637.9389,249.9384" fill="none" id="evaluations-to-measurements" style="stroke:#666666;stroke-width:1;"/><polygon fill="#666666" points="635.12,255.235,642.8794,249.1694,637.4691,250.8212,635.8173,245.4109,635.12,255.235" style="stroke:#666666;stroke-width:1;"/></g><!--link evaluations to activity--><g class="link" data-entity-1="evaluations" data-entity-2="activity" data-source-line="150" data-uid="lnk19" id="link_evaluations_activity"><path codeLine="150" d="M534.82,100.125 C513.23,100.125 434.31,422.245 420.32,460.125 C416.65,470.065 414.9069,474.7362 410.6669,484.9162" fill="none" id="evaluations-to-activity" style="stroke:#666666;stroke-width:1;"/><polygon fill="#666666" points="408.36,490.455,415.5129,483.6848,410.2824,485.8393,408.1279,480.6089,408.36,490.455" style="stroke:#666666;stroke-width:1;"/></g><!--link collection to activity--><g class="link" data-entity-1="collection" data-entity-2="activity" data-source-line="152" data-uid="lnk21" id="link_collection_activity"><path codeLine="152" d="M187.82,368.125 C212.17,368.125 199.81,396.235 212.32,417.125 C229.64,446.025 246.4164,471.3186 265.9564,499.0786" fill="none" id="collection-to-activity" style="stroke:#666666;stroke-width:1;"/><polygon fill="#666666" points="269.41,503.985,267.5006,494.323,266.532,499.8963,260.9587,498.9278,269.41,503.985" style="stroke:#666666;stroke-width:1;"/></g><!--reverse link activity to token--><g class="link" data-entity-1="activity" data-entity-2="token" data-source-line="153" data-uid="lnk22" id="link_activity_token"><path codeLine="153" d="M318.8129,741.7604 C308.1729,784.8904 298.49,824.075 291.28,853.315" fill="none" id="activity-backto-token" style="stroke:#666666;stroke-width:1;"/><polygon fill="#666666" points="320.25,735.935,314.2108,743.715,319.0524,740.7895,321.9779,745.6311,320.25,735.935" style="stroke:#666666;stroke-width:1;"/><text fill="#666666" font-family="sans-serif" font-size="10" lengthAdjust="spacing" textLength="42.7246" x="311.82" y="776.4023">tokenizes</text></g><!--link contributor to contributions--><g class="link" data-entity-1="contributor" data-entity-2="contributions" data-source-line="154" data-uid="lnk23" id="link_contributor_contributions"><path codeLine="154" d="M126.79,145.605 C153.26,173.085 191.0985,212.3628 228.1285,250.8228" fill="none" id="contributor-to-contributions" style="stroke:#666666;stroke-width:1;"/><polygon fill="#666666" points="232.29,255.145,228.9292,245.8873,228.8221,251.5431,223.1662,251.436,232.29,255.145" style="stroke:#666666;stroke-width:1;"/><text fill="#666666" font-family="sans-serif" font-size="10" lengthAdjust="spacing" textLength="24.5801" x="199.55" y="222.4023">make</text></g><!--link contributor to rights--><g class="link" data-entity-1="contributor" data-entity-2="rights" data-source-line="155" data-uid="lnk24" id="link_contributor_rights"><path codeLine="155" d="M85.83,145.795 C72.54,172.825 53.84,215.565 46.32,255.125 C6,467.395 61.9736,719.4277 90.8836,827.8077" fill="none" id="contributor-to-rights" style="stroke:#666666;stroke-width:1;"/><polygon fill="#666666" points="92.43,833.605,93.9752,823.8781,91.1413,828.7739,86.2455,825.94,92.43,833.605" style="stroke:#666666;stroke-width:1;"/><text fill="#666666" font-family="sans-serif" font-size="10" lengthAdjust="spacing" textLength="21.0938" x="34.05" y="457.4023">have</text></g><!--SRC=[Kqn9JSlCIrK8zl0FZtVpTFLn2LOeAIfDvU9IpCnBpYbDILLm3NBHAoZDpU420000]--></g></svg>