<svg xmlns="http://www.w3.org/2000/svg" xmlns:xlink="http://www.w3.org/1999/xlink" contentStyleType="text/css" data-diagram-type="CLASS" height="1335px" preserveAspectRatio="none" style="width:1123px;height:1335px;background:#FFFFFF;" version="1.1" viewBox="0 0 1123 1335" width="1123px" zoomAndPan="magnify"><title>Hypercert ERD</title><defs/><g><g class="title" data-source-line="7"><text fill="#000000" font-family="sans-serif" font-size="24" font-weight="bold" lengthAdjust="spacing" textLength="169.3945" x="470.0727" y="32.5117">Hypercert ERD</text></g><!--class contributor--><g class="entity" data-entity="contributor" data-source-line="47" data-uid="ent0002" id="entity_contributor"><rect fill="#FFD4A3" height="56.0986" rx="2.5" ry="2.5" style="stroke:#181818;stroke-width:0.5;" width="167.627" x="902.69" y="695.5477"/><ellipse cx="949.1812" cy="711.5477" fill="#ADD1B2" rx="11" ry="11" style="stroke:#181818;stroke-width:1;"/><path d="M945.2437,717.5477 L952.7593,717.5477 L952.7593,715.4383 L947.7593,715.4383 L947.7593,712.8914 L951.8531,712.8914 L951.8531,710.7977 L947.7593,710.7977 L947.7593,708.5789 L952.5875,708.5789 L952.5875,706.4695 L945.2437,706.4695 L945.2437,717.5477 Z " fill="#000000"/><text fill="#000000" font-family="sans-serif" font-size="14" lengthAdjust="spacing" textLength="66.1445" x="969.6812" y="716.6302">contributor</text><line style="stroke:#181818;stroke-width:0.5;" x1="903.69" x2="1069.317" y1="727.5477" y2="727.5477"/><text fill="#000000" font-family="sans-serif" font-size="14" lengthAdjust="spacing" textLength="155.627" x="908.69" y="744.6795">DID or name/pseudonym</text></g><!--class activity--><g class="entity" data-entity="activity" data-source-line="55" data-uid="ent0003" id="entity_activity"><rect fill="#B4E5D0" height="234.1816" rx="2.5" ry="2.5" style="stroke:#181818;stroke-width:0.5;" width="113.1514" x="405" y="606.5977"/><ellipse cx="425.5015" cy="623.0967" fill="#7E57C2" rx="11" ry="11" style="stroke:#181818;stroke-width:1;"/><path d="M422.689,629.0967 L425.9078,629.0967 C428.9859,629.0967 431.0953,627.3154 431.0953,623.5029 C431.0953,619.6904 428.9859,618.0186 425.7515,618.0186 L422.689,618.0186 L422.689,629.0967 Z M425.2046,627.0811 L425.2046,620.0342 L425.6109,620.0342 C427.3453,620.0342 428.5171,620.8467 428.5171,623.5029 C428.5171,626.1592 427.3453,627.0811 425.6109,627.0811 L425.2046,627.0811 Z " fill="#000000"/><text fill="#000000" font-family="sans-serif" font-size="20" font-weight="bold" lengthAdjust="spacing" textLength="68.9258" x="440.7241" y="630.3574">activity</text><line style="stroke:#181818;stroke-width:0.5;" x1="406" x2="517.1514" y1="639.5957" y2="639.5957"/><text fill="#000000" font-family="sans-serif" font-size="14" lengthAdjust="spacing" textLength="21.7861" x="411" y="656.7275">title</text><text fill="#000000" font-family="sans-serif" font-size="14" lengthAdjust="spacing" textLength="101.1514" x="411" y="672.8262">shortDescription</text><text fill="#000000" font-family="sans-serif" font-size="14" lengthAdjust="spacing" textLength="75.4893" x="411" y="688.9248">description?</text><text fill="#000000" font-family="sans-serif" font-size="14" lengthAdjust="spacing" textLength="45.917" x="411" y="705.0234">image?</text><text fill="#000000" font-family="sans-serif" font-size="14" lengthAdjust="spacing" textLength="77.041" x="411" y="721.1221">workScope?</text><text fill="#000000" font-family="sans-serif" font-size="14" lengthAdjust="spacing" textLength="56.7998" x="411" y="737.2207">startDate</text><text fill="#000000" font-family="sans-serif" font-size="14" lengthAdjust="spacing" textLength="52.9307" x="411" y="753.3193">endDate</text><text fill="#000000" font-family="sans-serif" font-size="14" lengthAdjust="spacing" textLength="94.9443" x="411" y="769.418">contributions[]?</text><text fill="#000000" font-family="sans-serif" font-size="14" lengthAdjust="spacing" textLength="56.041" x="411" y="785.5166">location?</text><text fill="#000000" font-family="sans-serif" font-size="14" lengthAdjust="spacing" textLength="42.0205" x="411" y="801.6152">rights?</text><text fill="#000000" font-family="sans-serif" font-size="14" lengthAdjust="spacing" textLength="49.8066" x="411" y="817.7139">project?</text><text fill="#000000" font-family="sans-serif" font-size="14" lengthAdjust="spacing" textLength="59.9238" x="411" y="833.8125">createdAt</text></g><!--class evidence--><g class="entity" data-entity="evidence" data-source-line="73" data-uid="ent0004" id="entity_evidence"><rect fill="#F1F1F1" height="152.6904" rx="2.5" ry="2.5" style="stroke:#181818;stroke-width:0.5;" width="120.9375" x="246.5" y="357.5977"/><ellipse cx="276.3034" cy="373.5977" fill="#7E57C2" rx="11" ry="11" style="stroke:#181818;stroke-width:1;"/><path d="M273.4909,379.5977 L276.7097,379.5977 C279.7878,379.5977 281.8972,377.8164 281.8972,374.0039 C281.8972,370.1914 279.7878,368.5195 276.5534,368.5195 L273.4909,368.5195 L273.4909,379.5977 Z M276.0065,377.582 L276.0065,370.5352 L276.4128,370.5352 C278.1472,370.5352 279.319,371.3477 279.319,374.0039 C279.319,376.6602 278.1472,377.582 276.4128,377.582 L276.0065,377.582 Z " fill="#000000"/><text fill="#000000" font-family="sans-serif" font-size="14" lengthAdjust="spacing" textLength="56.041" x="293.5931" y="378.6802">evidence</text><line style="stroke:#181818;stroke-width:0.5;" x1="247.5" x2="366.4375" y1="389.5977" y2="389.5977"/><text fill="#000000" font-family="sans-serif" font-size="14" lengthAdjust="spacing" textLength="52.1445" x="252.5" y="406.7295">subject?</text><text fill="#000000" font-family="sans-serif" font-size="14" lengthAdjust="spacing" textLength="45.9238" x="252.5" y="422.8281">content</text><text fill="#000000" font-family="sans-serif" font-size="14" lengthAdjust="spacing" textLength="21.7861" x="252.5" y="438.9268">title</text><text fill="#000000" font-family="sans-serif" font-size="14" lengthAdjust="spacing" textLength="108.9375" x="252.5" y="455.0254">shortDescription?</text><text fill="#000000" font-family="sans-serif" font-size="14" lengthAdjust="spacing" textLength="75.4893" x="252.5" y="471.124">description?</text><text fill="#000000" font-family="sans-serif" font-size="14" lengthAdjust="spacing" textLength="84.8271" x="252.5" y="487.2227">relationType?</text><text fill="#000000" font-family="sans-serif" font-size="14" lengthAdjust="spacing" textLength="59.9238" x="252.5" y="503.3213">createdAt</text></g><!--class measurement--><g class="entity" data-entity="measurement" data-source-line="86" data-uid="ent0005" id="entity_measurement"><rect fill="#F1F1F1" height="184.8877" rx="2.5" ry="2.5" style="stroke:#181818;stroke-width:0.5;" width="117.5928" x="7" y="341.5977"/><ellipse cx="22" cy="357.5977" fill="#7E57C2" rx="11" ry="11" style="stroke:#181818;stroke-width:1;"/><path d="M19.1875,363.5977 L22.4063,363.5977 C25.4844,363.5977 27.5938,361.8164 27.5938,358.0039 C27.5938,354.1914 25.4844,352.5195 22.25,352.5195 L19.1875,352.5195 L19.1875,363.5977 Z M21.7031,361.582 L21.7031,354.5352 L22.1094,354.5352 C23.8438,354.5352 25.0156,355.3477 25.0156,358.0039 C25.0156,360.6602 23.8438,361.582 22.1094,361.582 L21.7031,361.582 Z " fill="#000000"/><text fill="#000000" font-family="sans-serif" font-size="14" lengthAdjust="spacing" textLength="85.5928" x="36" y="362.6802">measurement</text><line style="stroke:#181818;stroke-width:0.5;" x1="8" x2="123.5928" y1="373.5977" y2="373.5977"/><text fill="#000000" font-family="sans-serif" font-size="14" lengthAdjust="spacing" textLength="52.1445" x="13" y="390.7295">subject?</text><text fill="#000000" font-family="sans-serif" font-size="14" lengthAdjust="spacing" textLength="73.9102" x="13" y="406.8281">measurers[]</text><text fill="#000000" font-family="sans-serif" font-size="14" lengthAdjust="spacing" textLength="38.1104" x="13" y="422.9268">metric</text><text fill="#000000" font-family="sans-serif" font-size="14" lengthAdjust="spacing" textLength="33.4688" x="13" y="439.0254">value</text><text fill="#000000" font-family="sans-serif" font-size="14" lengthAdjust="spacing" textLength="85.6064" x="13" y="455.124">methodType?</text><text fill="#000000" font-family="sans-serif" font-size="14" lengthAdjust="spacing" textLength="78.5928" x="13" y="471.2227">methodURI?</text><text fill="#000000" font-family="sans-serif" font-size="14" lengthAdjust="spacing" textLength="95.7168" x="13" y="487.3213">evidenceURI[]?</text><text fill="#000000" font-family="sans-serif" font-size="14" lengthAdjust="spacing" textLength="56.041" x="13" y="503.4199">location?</text><text fill="#000000" font-family="sans-serif" font-size="14" lengthAdjust="spacing" textLength="59.9238" x="13" y="519.5186">createdAt</text></g><!--class evaluation--><g class="entity" data-entity="evaluation" data-source-line="101" data-uid="ent0006" id="entity_evaluation"><rect fill="#F1F1F1" height="152.6904" rx="2.5" ry="2.5" style="stroke:#181818;stroke-width:0.5;" width="95.8271" x="169" y="88.0977"/><ellipse cx="184" cy="104.0977" fill="#7E57C2" rx="11" ry="11" style="stroke:#181818;stroke-width:1;"/><path d="M181.1875,110.0977 L184.4063,110.0977 C187.4844,110.0977 189.5938,108.3164 189.5938,104.5039 C189.5938,100.6914 187.4844,99.0195 184.25,99.0195 L181.1875,99.0195 L181.1875,110.0977 Z M183.7031,108.082 L183.7031,101.0352 L184.1094,101.0352 C185.8438,101.0352 187.0156,101.8477 187.0156,104.5039 C187.0156,107.1602 185.8438,108.082 184.1094,108.082 L183.7031,108.082 Z " fill="#000000"/><text fill="#000000" font-family="sans-serif" font-size="14" lengthAdjust="spacing" textLength="63.8271" x="198" y="109.1802">evaluation</text><line style="stroke:#181818;stroke-width:0.5;" x1="170" x2="263.8271" y1="120.0977" y2="120.0977"/><text fill="#000000" font-family="sans-serif" font-size="14" lengthAdjust="spacing" textLength="52.1445" x="175" y="137.2295">subject?</text><text fill="#000000" font-family="sans-serif" font-size="14" lengthAdjust="spacing" textLength="57.5586" x="175" y="153.3281">summary</text><text fill="#000000" font-family="sans-serif" font-size="14" lengthAdjust="spacing" textLength="72.3721" x="175" y="169.4268">evaluators[]</text><text fill="#000000" font-family="sans-serif" font-size="14" lengthAdjust="spacing" textLength="61.4893" x="175" y="185.5254">content[]?</text><text fill="#000000" font-family="sans-serif" font-size="14" lengthAdjust="spacing" textLength="34.2344" x="175" y="201.624">score</text><text fill="#000000" font-family="sans-serif" font-size="14" lengthAdjust="spacing" textLength="56.041" x="175" y="217.7227">location?</text><text fill="#000000" font-family="sans-serif" font-size="14" lengthAdjust="spacing" textLength="59.9238" x="175" y="233.8213">createdAt</text></g><!--class contribution--><g class="entity" data-entity="contribution" data-source-line="114" data-uid="ent0007" id="entity_contribution"><rect fill="#F1F1F1" height="136.5918" rx="2.5" ry="2.5" style="stroke:#181818;stroke-width:0.5;" width="104.3789" x="934.5" y="365.5977"/><ellipse cx="949.5" cy="381.5977" fill="#7E57C2" rx="11" ry="11" style="stroke:#181818;stroke-width:1;"/><path d="M946.6875,387.5977 L949.9063,387.5977 C952.9844,387.5977 955.0938,385.8164 955.0938,382.0039 C955.0938,378.1914 952.9844,376.5195 949.75,376.5195 L946.6875,376.5195 L946.6875,387.5977 Z M949.2031,385.582 L949.2031,378.5352 L949.6094,378.5352 C951.3438,378.5352 952.5156,379.3477 952.5156,382.0039 C952.5156,384.6602 951.3438,385.582 949.6094,385.582 L949.2031,385.582 Z " fill="#000000"/><text fill="#000000" font-family="sans-serif" font-size="14" lengthAdjust="spacing" textLength="72.3789" x="963.5" y="386.6802">contribution</text><line style="stroke:#181818;stroke-width:0.5;" x1="935.5" x2="1037.8789" y1="397.5977" y2="397.5977"/><text fill="#000000" font-family="sans-serif" font-size="14" lengthAdjust="spacing" textLength="31.1309" x="940.5" y="414.7295">role?</text><text fill="#000000" font-family="sans-serif" font-size="14" lengthAdjust="spacing" textLength="80.9238" x="940.5" y="430.8281">contributors[]</text><text fill="#000000" font-family="sans-serif" font-size="14" lengthAdjust="spacing" textLength="75.4893" x="940.5" y="446.9268">description?</text><text fill="#000000" font-family="sans-serif" font-size="14" lengthAdjust="spacing" textLength="64.5859" x="940.5" y="463.0254">startDate?</text><text fill="#000000" font-family="sans-serif" font-size="14" lengthAdjust="spacing" textLength="60.7168" x="940.5" y="479.124">endDate?</text><text fill="#000000" font-family="sans-serif" font-size="14" lengthAdjust="spacing" textLength="59.9238" x="940.5" y="495.2227">createdAt</text></g><!--class location--><g class="entity" data-entity="location" data-source-line="126" data-uid="ent0008" id="entity_location"><rect fill="#F1F1F1" height="152.6904" rx="2.5" ry="2.5" style="stroke:#181818;stroke-width:0.5;" width="91.3789" x="296.81" y="1175.6977"/><ellipse cx="316.8158" cy="1191.6977" fill="#7E57C2" rx="11" ry="11" style="stroke:#181818;stroke-width:1;"/><path d="M314.0033,1197.6977 L317.2221,1197.6977 C320.3002,1197.6977 322.4096,1195.9164 322.4096,1192.1039 C322.4096,1188.2914 320.3002,1186.6195 317.0658,1186.6195 L314.0033,1186.6195 L314.0033,1197.6977 Z M316.5189,1195.682 L316.5189,1188.6352 L316.9252,1188.6352 C318.6596,1188.6352 319.8314,1189.4477 319.8314,1192.1039 C319.8314,1194.7602 318.6596,1195.682 316.9252,1195.682 L316.5189,1195.682 Z " fill="#000000"/><text fill="#000000" font-family="sans-serif" font-size="14" lengthAdjust="spacing" textLength="48.2549" x="331.9282" y="1196.7802">location</text><line style="stroke:#181818;stroke-width:0.5;" x1="297.81" x2="387.1889" y1="1207.6977" y2="1207.6977"/><text fill="#000000" font-family="sans-serif" font-size="14" lengthAdjust="spacing" textLength="58.3652" x="302.81" y="1224.8295">lpVersion</text><text fill="#000000" font-family="sans-serif" font-size="14" lengthAdjust="spacing" textLength="18.6621" x="302.81" y="1240.9281">srs</text><text fill="#000000" font-family="sans-serif" font-size="14" lengthAdjust="spacing" textLength="79.3789" x="302.81" y="1257.0268">locationType</text><text fill="#000000" font-family="sans-serif" font-size="14" lengthAdjust="spacing" textLength="48.2549" x="302.81" y="1273.1254">location</text><text fill="#000000" font-family="sans-serif" font-size="14" lengthAdjust="spacing" textLength="42.8066" x="302.81" y="1289.224">name?</text><text fill="#000000" font-family="sans-serif" font-size="14" lengthAdjust="spacing" textLength="75.4893" x="302.81" y="1305.3227">description?</text><text fill="#000000" font-family="sans-serif" font-size="14" lengthAdjust="spacing" textLength="59.9238" x="302.81" y="1321.4213">createdAt</text></g><!--class rights--><g class="entity" data-entity="rights" data-source-line="139" data-uid="ent0009" id="entity_rights"><rect fill="#F1F1F1" height="120.4932" rx="2.5" ry="2.5" style="stroke:#181818;stroke-width:0.5;" width="116.2617" x="787.37" y="966.4477"/><ellipse cx="824.8823" cy="982.4477" fill="#7E57C2" rx="11" ry="11" style="stroke:#181818;stroke-width:1;"/><path d="M822.0698,988.4477 L825.2886,988.4477 C828.3667,988.4477 830.4761,986.6664 830.4761,982.8539 C830.4761,979.0414 828.3667,977.3695 825.1323,977.3695 L822.0698,977.3695 L822.0698,988.4477 Z M824.5854,986.432 L824.5854,979.3852 L824.9917,979.3852 C826.7261,979.3852 827.8979,980.1977 827.8979,982.8539 C827.8979,985.5102 826.7261,986.432 824.9917,986.432 L824.5854,986.432 Z " fill="#000000"/><text fill="#000000" font-family="sans-serif" font-size="14" lengthAdjust="spacing" textLength="34.2344" x="843.885" y="987.5302">rights</text><line style="stroke:#181818;stroke-width:0.5;" x1="788.37" x2="902.6317" y1="998.4477" y2="998.4477"/><text fill="#000000" font-family="sans-serif" font-size="14" lengthAdjust="spacing" textLength="71.5791" x="793.37" y="1015.5795">rightsName</text><text fill="#000000" font-family="sans-serif" font-size="14" lengthAdjust="spacing" textLength="65.3584" x="793.37" y="1031.6781">rightsType</text><text fill="#000000" font-family="sans-serif" font-size="14" lengthAdjust="spacing" textLength="104.2617" x="793.37" y="1047.7768">rightsDescription</text><text fill="#000000" font-family="sans-serif" font-size="14" lengthAdjust="spacing" textLength="77.0479" x="793.37" y="1063.8754">attachment?</text><text fill="#000000" font-family="sans-serif" font-size="14" lengthAdjust="spacing" textLength="59.9238" x="793.37" y="1079.974">createdAt</text></g><!--class collection--><g class="entity" data-entity="collection" data-source-line="150" data-uid="ent0010" id="entity_collection"><rect fill="#F1F1F1" height="136.5918" rx="2.5" ry="2.5" style="stroke:#181818;stroke-width:0.5;" width="120.9375" x="763.5" y="365.5977"/><ellipse cx="792.2575" cy="381.5977" fill="#7E57C2" rx="11" ry="11" style="stroke:#181818;stroke-width:1;"/><path d="M789.445,387.5977 L792.6638,387.5977 C795.7419,387.5977 797.8513,385.8164 797.8513,382.0039 C797.8513,378.1914 795.7419,376.5195 792.5075,376.5195 L789.445,376.5195 L789.445,387.5977 Z M791.9606,385.582 L791.9606,378.5352 L792.3669,378.5352 C794.1013,378.5352 795.2731,379.3477 795.2731,382.0039 C795.2731,384.6602 794.1013,385.582 792.3669,385.582 L791.9606,385.582 Z " fill="#000000"/><text fill="#000000" font-family="sans-serif" font-size="14" lengthAdjust="spacing" textLength="58.3652" x="809.3147" y="386.6802">collection</text><line style="stroke:#181818;stroke-width:0.5;" x1="764.5" x2="883.4375" y1="397.5977" y2="397.5977"/><text fill="#000000" font-family="sans-serif" font-size="14" lengthAdjust="spacing" textLength="21.7861" x="769.5" y="414.7295">title</text><text fill="#000000" font-family="sans-serif" font-size="14" lengthAdjust="spacing" textLength="108.9375" x="769.5" y="430.8281">shortDescription?</text><text fill="#000000" font-family="sans-serif" font-size="14" lengthAdjust="spacing" textLength="46.6963" x="769.5" y="446.9268">avatar?</text><text fill="#000000" font-family="sans-serif" font-size="14" lengthAdjust="spacing" textLength="78.6064" x="769.5" y="463.0254">coverPhoto?</text><text fill="#000000" font-family="sans-serif" font-size="14" lengthAdjust="spacing" textLength="61.4619" x="769.5" y="479.124">activities[]</text><text fill="#000000" font-family="sans-serif" font-size="14" lengthAdjust="spacing" textLength="59.9238" x="769.5" y="495.2227">createdAt</text></g><!--class project--><g class="entity" data-entity="project" data-source-line="162" data-uid="ent0011" id="entity_project"><rect fill="#F1F1F1" height="168.7891" rx="2.5" ry="2.5" style="stroke:#181818;stroke-width:0.5;" width="113.1514" x="404" y="942.6977"/><ellipse cx="436.6089" cy="958.6977" fill="#7E57C2" rx="11" ry="11" style="stroke:#181818;stroke-width:1;"/><path d="M433.7964,964.6977 L437.0151,964.6977 C440.0933,964.6977 442.2026,962.9164 442.2026,959.1039 C442.2026,955.2914 440.0933,953.6195 436.8589,953.6195 L433.7964,953.6195 L433.7964,964.6977 Z M436.312,962.682 L436.312,955.6352 L436.7183,955.6352 C438.4526,955.6352 439.6245,956.4477 439.6245,959.1039 C439.6245,961.7602 438.4526,962.682 436.7183,962.682 L436.312,962.682 Z " fill="#000000"/><text fill="#000000" font-family="sans-serif" font-size="14" lengthAdjust="spacing" textLength="42.0205" x="454.522" y="963.7802">project</text><line style="stroke:#181818;stroke-width:0.5;" x1="405" x2="516.1514" y1="974.6977" y2="974.6977"/><text fill="#000000" font-family="sans-serif" font-size="14" lengthAdjust="spacing" textLength="21.7861" x="410" y="991.8295">title</text><text fill="#000000" font-family="sans-serif" font-size="14" lengthAdjust="spacing" textLength="101.1514" x="410" y="1007.9281">shortDescription</text><text fill="#000000" font-family="sans-serif" font-size="14" lengthAdjust="spacing" textLength="75.4893" x="410" y="1024.0268">description?</text><text fill="#000000" font-family="sans-serif" font-size="14" lengthAdjust="spacing" textLength="46.6963" x="410" y="1040.1254">avatar?</text><text fill="#000000" font-family="sans-serif" font-size="14" lengthAdjust="spacing" textLength="78.6064" x="410" y="1056.224">coverPhoto?</text><text fill="#000000" font-family="sans-serif" font-size="14" lengthAdjust="spacing" textLength="69.248" x="410" y="1072.3227">activities[]?</text><text fill="#000000" font-family="sans-serif" font-size="14" lengthAdjust="spacing" textLength="56.041" x="410" y="1088.4213">location?</text><text fill="#000000" font-family="sans-serif" font-size="14" lengthAdjust="spacing" textLength="59.9238" x="410" y="1104.5199">createdAt</text></g><!--class funder--><g class="entity" data-entity="funder" data-source-line="179" data-uid="ent0012" id="entity_funder"><rect fill="#FFD4A3" height="56.0986" rx="2.5" ry="2.5" style="stroke:#181818;stroke-width:0.5;" width="167.627" x="552.69" y="405.5477"/><ellipse cx="612.4053" cy="421.5477" fill="#ADD1B2" rx="11" ry="11" style="stroke:#181818;stroke-width:1;"/><path d="M608.4678,427.5477 L615.9835,427.5477 L615.9835,425.4383 L610.9835,425.4383 L610.9835,422.8914 L615.0772,422.8914 L615.0772,420.7977 L610.9835,420.7977 L610.9835,418.5789 L615.8116,418.5789 L615.8116,416.4695 L608.4678,416.4695 L608.4678,427.5477 Z " fill="#000000"/><text fill="#000000" font-family="sans-serif" font-size="14" lengthAdjust="spacing" textLength="39.6963" x="632.9053" y="426.6302">funder</text><line style="stroke:#181818;stroke-width:0.5;" x1="553.69" x2="719.317" y1="437.5477" y2="437.5477"/><text fill="#000000" font-family="sans-serif" font-size="14" lengthAdjust="spacing" textLength="155.627" x="558.69" y="454.6795">DID or name/pseudonym</text></g><!--class fundingReceipt--><g class="entity" data-entity="fundingReceipt" data-source-line="186" data-uid="ent0013" id="entity_fundingReceipt"><rect fill="#F1F1F1" height="217.085" rx="2.5" ry="2.5" style="stroke:#181818;stroke-width:0.5;" width="125.3994" x="574" y="55.5977"/><ellipse cx="589" cy="71.5977" fill="#7E57C2" rx="11" ry="11" style="stroke:#181818;stroke-width:1;"/><path d="M586.1875,77.5977 L589.4063,77.5977 C592.4844,77.5977 594.5938,75.8164 594.5938,72.0039 C594.5938,68.1914 592.4844,66.5195 589.25,66.5195 L586.1875,66.5195 L586.1875,77.5977 Z M588.7031,75.582 L588.7031,68.5352 L589.1094,68.5352 C590.8438,68.5352 592.0156,69.3477 592.0156,72.0039 C592.0156,74.6602 590.8438,75.582 589.1094,75.582 L588.7031,75.582 Z " fill="#000000"/><text fill="#000000" font-family="sans-serif" font-size="14" lengthAdjust="spacing" textLength="93.3994" x="603" y="76.6802">fundingReceipt</text><line style="stroke:#181818;stroke-width:0.5;" x1="575" x2="698.3994" y1="87.5977" y2="87.5977"/><text fill="#000000" font-family="sans-serif" font-size="14" lengthAdjust="spacing" textLength="11.6758" x="580" y="104.7295">to</text><text fill="#000000" font-family="sans-serif" font-size="14" lengthAdjust="spacing" textLength="28" x="580" y="120.8281">from</text><text fill="#000000" font-family="sans-serif" font-size="14" lengthAdjust="spacing" textLength="24.124" x="580" y="136.9268">for?</text><text fill="#000000" font-family="sans-serif" font-size="14" lengthAdjust="spacing" textLength="46.6963" x="580" y="153.0254">amount</text><text fill="#000000" font-family="sans-serif" font-size="14" lengthAdjust="spacing" textLength="53.6826" x="580" y="169.124">currency</text><text fill="#000000" font-family="sans-serif" font-size="14" lengthAdjust="spacing" textLength="85.5996" x="580" y="185.2227">paymentRail?</text><text fill="#000000" font-family="sans-serif" font-size="14" lengthAdjust="spacing" textLength="112.8271" x="580" y="201.3213">paymentNetwork?</text><text fill="#000000" font-family="sans-serif" font-size="14" lengthAdjust="spacing" textLength="87.9443" x="580" y="217.4199">transactionId?</text><text fill="#000000" font-family="sans-serif" font-size="14" lengthAdjust="spacing" textLength="42.0342" x="580" y="233.5186">notes?</text><text fill="#000000" font-family="sans-serif" font-size="14" lengthAdjust="spacing" textLength="75.4824" x="580" y="249.6172">occurredAt?</text><text fill="#000000" font-family="sans-serif" font-size="14" lengthAdjust="spacing" textLength="59.9238" x="580" y="265.7158">createdAt</text></g><!--class token--><g class="entity" data-entity="token" data-source-line="207" data-uid="ent0014" id="entity_token"><rect fill="#FFB6C1" height="65.0967" rx="2.5" ry="2.5" style="stroke:#181818;stroke-width:0.5;" width="104.5996" x="214.2" y="691.0477"/><ellipse cx="237.8669" cy="707.5467" fill="#F1F1F1" rx="11" ry="11" style="stroke:#181818;stroke-width:1;"/><path d="M234.6481,713.5467 L237.1481,713.5467 L237.1481,709.7967 L238.57,709.7967 C240.9138,709.7967 242.8981,708.6404 242.8981,706.0311 C242.8981,703.3436 240.9606,702.4686 238.57,702.4686 L234.6481,702.4686 L234.6481,713.5467 Z M237.1481,707.7967 L237.1481,704.4529 L238.4138,704.4529 C239.7419,704.4529 240.4606,704.8748 240.4606,706.0311 C240.4606,707.1873 239.7888,707.7967 238.4138,707.7967 L237.1481,707.7967 Z " fill="#000000"/><text fill="#000000" font-family="sans-serif" font-size="20" font-weight="bold" lengthAdjust="spacing" textLength="53.3398" x="253.7929" y="714.8074">token</text><line style="stroke:#181818;stroke-width:0.5;" x1="215.2" x2="317.7996" y1="724.0457" y2="724.0457"/><line style="stroke:#181818;stroke-width:0.5;" x1="215.2" x2="317.7996" y1="732.0457" y2="732.0457"/><text fill="#000000" font-family="sans-serif" font-size="14" lengthAdjust="spacing" textLength="92.5996" x="220.2" y="749.1775">(on-chain only)</text></g><!--class hiddenLocation1--><g class="entity" data-entity="hiddenLocation1" data-source-line="242" data-uid="ent0020" id="entity_hiddenLocation1"><rect fill="none" height="34.0986" rx="2.5" ry="2.5" style="stroke:none;stroke-width:0.5;" width="12" x="409.5" y="416.5477"/><text fill="#000000" font-family="sans-serif" font-size="14" lengthAdjust="spacing" textLength="3.8896" x="413.5552" y="434.6795">&#160;</text><line style="stroke:none;stroke-width:0.5;" x1="410.5" x2="420.5" y1="442.6463" y2="442.6463"/></g><!--class hiddenLocation2--><g class="entity" data-entity="hiddenLocation2" data-source-line="259" data-uid="ent0025" id="entity_hiddenLocation2"><rect fill="none" height="34.0986" rx="2.5" ry="2.5" style="stroke:none;stroke-width:0.5;" width="12" x="204.5" y="874.5977"/><text fill="#000000" font-family="sans-serif" font-size="14" lengthAdjust="spacing" textLength="3.8896" x="208.5552" y="892.7295">&#160;</text><line style="stroke:none;stroke-width:0.5;" x1="205.5" x2="215.5" y1="900.6963" y2="900.6963"/></g><!--link token to activity--><g class="link" data-entity-1="token" data-entity-2="activity" data-source-line="282" data-uid="lnk37" id="link_token_activity"><path codeLine="282" d="M319.27,723.5977 C343.29,723.5977 365.95,723.5977 391.22,723.5977" fill="none" id="token-to-activity" style="stroke:#666666;stroke-width:1;stroke-dasharray:7,7;"/><polygon fill="#666666" points="397.22,723.5977,388.22,719.5977,392.22,723.5977,388.22,727.5977,397.22,723.5977" style="stroke:#666666;stroke-width:1;"/><text fill="#666666" font-family="sans-serif" font-size="10" lengthAdjust="spacing" textLength="42.2461" x="336.9" y="717.9775">tokenizes</text></g><!--link evaluation to evidence--><g class="link" data-entity-1="evaluation" data-entity-2="evidence" data-source-line="229" data-uid="lnk17" id="link_evaluation_evidence"><path codeLine="229" d="M265,132.0977 C354.53,132.0977 344.6098,258.7308 327.0698,347.7608" fill="none" id="evaluation-to-evidence" style="stroke:#666666;stroke-width:1;"/><polygon fill="#666666" points="325.91,353.6477,331.5742,345.5906,326.8765,348.742,323.7251,344.0442,325.91,353.6477" style="stroke:#666666;stroke-width:1;"/></g><!--link evaluation to measurement--><g class="link" data-entity-1="evaluation" data-entity-2="measurement" data-source-line="230" data-uid="lnk18" id="link_evaluation_measurement"><path codeLine="230" d="M168,132.0977 C79.67,132.0977 61.8308,243.8481 60.7908,331.9281" fill="none" id="evaluation-to-measurement" style="stroke:#666666;stroke-width:1;"/><polygon fill="#666666" points="60.72,337.9277,64.826,328.9755,60.779,332.928,56.8265,328.8811,60.72,337.9277" style="stroke:#666666;stroke-width:1;"/></g><!--link evaluation to activity--><g class="link" data-entity-1="evaluation" data-entity-2="activity" data-source-line="231" data-uid="lnk19" id="link_evaluation_activity"><path codeLine="231" d="M168,132.0977 C142.17,132.0977 171.37,456.8277 220.5,529.5977 C254.58,580.0877 288.5,565.0877 336.5,602.5977 C357.24,618.8077 374.0891,633.7948 392.9591,651.9748" fill="none" id="evaluation-to-activity" style="stroke:#666666;stroke-width:1;"/><polygon fill="#666666" points="397.28,656.1377,393.5739,647.0127,393.6792,652.6686,388.0234,652.7739,397.28,656.1377" style="stroke:#666666;stroke-width:1;"/></g><!--link evaluation to hiddenLocation1--><g class="link" data-entity-1="evaluation" data-entity-2="hiddenLocation1" data-source-line="244" data-uid="lnk21" id="link_evaluation_hiddenLocation1"><path codeLine="244" d="M265,212.0977 C344.2,212.0977 352.26,268.8077 391.5,337.5977 C405.83,362.7177 411.0051,390.4092 413.3451,410.1892" fill="none" id="evaluation-to-hiddenLocation1" style="stroke:#666666;stroke-width:1;"/><polygon fill="#666666" points="414.05,416.1477,416.965,406.7401,413.4626,411.1823,409.0204,407.6799,414.05,416.1477" style="stroke:#666666;stroke-width:1;"/></g><!--link hiddenLocation1 to activity--><!--link evidence to activity--><g class="link" data-entity-1="evidence" data-entity-2="activity" data-source-line="253" data-uid="lnk23" id="link_evidence_activity"><path codeLine="253" d="M367.5,401.5977 C396.44,401.5977 383.87,501.6777 391.5,529.5977 C398.05,553.5777 404.2445,573.1557 412.6745,597.1957" fill="none" id="evidence-to-activity" style="stroke:#666666;stroke-width:1;"/><polygon fill="#666666" points="414.66,602.8577,415.4565,593.0411,413.0055,598.1393,407.9072,595.6883,414.66,602.8577" style="stroke:#666666;stroke-width:1;"/></g><!--link measurement to activity--><g class="link" data-entity-1="measurement" data-entity-2="activity" data-source-line="255" data-uid="lnk24" id="link_measurement_activity"><path codeLine="255" d="M125,385.5977 C209.51,385.5977 99.31,513.2777 159.5,572.5977 C216.33,628.6077 265.23,566.7177 336.5,602.5977 C358.53,613.6877 374.9204,625.8653 392.9304,642.8953" fill="none" id="measurement-to-activity" style="stroke:#666666;stroke-width:1;"/><polygon fill="#666666" points="397.29,647.0177,393.4989,637.9277,393.657,643.5823,388.0024,643.7405,397.29,647.0177" style="stroke:#666666;stroke-width:1;"/></g><!--link measurement to hiddenLocation2--><g class="link" data-entity-1="measurement" data-entity-2="hiddenLocation2" data-source-line="261" data-uid="lnk26" id="link_measurement_hiddenLocation2"><path codeLine="261" d="M125,497.5977 C127.46,497.5977 195.89,842.2177 196.5,844.5977 C199.01,854.4777 200.5013,859.6768 203.2613,868.4068" fill="none" id="measurement-to-hiddenLocation2" style="stroke:#666666;stroke-width:1;"/><polygon fill="#666666" points="205.07,874.1277,206.1709,864.3405,203.5628,869.3602,198.5431,866.7521,205.07,874.1277" style="stroke:#666666;stroke-width:1;"/></g><!--link hiddenLocation2 to location--><!--link collection to activity--><g class="link" data-entity-1="collection" data-entity-2="activity" data-source-line="268" data-uid="lnk28" id="link_collection_activity"><path codeLine="268" d="M884.5,473.5977 C898.73,473.5977 891.1,493.5677 883.5,505.5977 C803.08,632.8677 628.2746,687.7046 531.4746,709.4146" fill="none" id="collection-to-activity" style="stroke:#666666;stroke-width:1;"/><polygon fill="#666666" points="525.62,710.7277,535.2772,712.6611,530.4988,709.6335,533.5265,704.855,525.62,710.7277" style="stroke:#666666;stroke-width:1;"/></g><!--link activity to project--><g class="link" data-entity-1="activity" data-entity-2="project" data-source-line="276" data-uid="lnk35" id="link_activity_project"><path codeLine="276" d="M519,811.5977 C574.58,811.5977 551.8637,874.3326 518.8937,933.6826" fill="none" id="activity-to-project" style="stroke:#666666;stroke-width:1;"/><polygon fill="#666666" points="515.98,938.9277,523.8472,933.0026,518.4081,934.5568,516.8539,929.1176,515.98,938.9277" style="stroke:#666666;stroke-width:1;"/></g><!--link project to location--><g class="link" data-entity-1="project" data-entity-2="location" data-source-line="271" data-uid="lnk30" id="link_project_location"><path codeLine="271" d="M403,1082.6977 C392.4,1082.6977 377.5981,1124.8 364.4981,1169.48" fill="none" id="project-to-location" style="stroke:#666666;stroke-width:1;"/><polygon fill="#666666" points="362.81,1175.2377,369.1806,1167.7266,364.2168,1170.4396,361.5038,1165.4758,362.81,1175.2377" style="stroke:#666666;stroke-width:1;"/></g><!--link activity to rights--><g class="link" data-entity-1="activity" data-entity-2="rights" data-source-line="274" data-uid="lnk33" id="link_activity_rights"><path codeLine="274" d="M519,795.5977 C637.41,795.5977 739.2502,893.374 796.5302,961.544" fill="none" id="activity-to-rights" style="stroke:#666666;stroke-width:1;"/><polygon fill="#666666" points="800.39,966.1377,797.6627,956.6739,797.1735,962.3096,791.5378,961.8204,800.39,966.1377" style="stroke:#666666;stroke-width:1;"/></g><!--link activity to location--><g class="link" data-entity-1="activity" data-entity-2="location" data-source-line="275" data-uid="lnk34" id="link_activity_location"><path codeLine="275" d="M404,779.5977 C325.17,779.5977 329.4074,1036.0369 336.8074,1169.3069" fill="none" id="activity-to-location" style="stroke:#666666;stroke-width:1;"/><polygon fill="#666666" points="337.14,1175.2977,340.6349,1166.0897,336.8628,1170.3053,332.6472,1166.5333,337.14,1175.2977" style="stroke:#666666;stroke-width:1;"/></g><!--link contribution to contributor--><g class="link" data-entity-1="contribution" data-entity-2="contributor" data-source-line="278" data-uid="lnk36" id="link_contribution_contributor"><path codeLine="278" d="M1039.5,425.5977 C1066.74,425.5977 1016.3394,615.8875 995.8694,689.4075" fill="none" id="contribution-to-contributor" style="stroke:#666666;stroke-width:1;"/><polygon fill="#666666" points="994.26,695.1877,1000.5275,687.5903,995.6011,690.3709,992.8206,685.4445,994.26,695.1877" style="stroke:#666666;stroke-width:1;"/><text fill="#666666" font-family="sans-serif" font-size="10" lengthAdjust="spacing" textLength="38.3545" x="1028.3" y="569.9775">made by</text></g><!--link funder to activity--><g class="link" data-entity-1="funder" data-entity-2="activity" data-source-line="283" data-uid="lnk38" id="link_funder_activity"><path codeLine="283" d="M619.88,461.9477 C598.38,497.3377 562.796,555.9002 529.026,611.4702" fill="none" id="funder-to-activity" style="stroke:#666666;stroke-width:1;stroke-dasharray:7,7;"/><polygon fill="#666666" points="525.91,616.5977,534.0022,610.9838,528.5066,612.3248,527.1656,606.8292,525.91,616.5977" style="stroke:#666666;stroke-width:1;"/><text fill="#666666" font-family="sans-serif" font-size="10" lengthAdjust="spacing" textLength="24.4629" x="560.48" y="569.9775">funds</text></g><!--link contributor to rights--><g class="link" data-entity-1="contributor" data-entity-2="rights" data-source-line="284" data-uid="lnk39" id="link_contributor_rights"><path codeLine="284" d="M973.61,752.1177 C951.01,800.3877 906.2743,895.9038 875.9043,960.7638" fill="none" id="contributor-to-rights" style="stroke:#666666;stroke-width:1;stroke-dasharray:7,7;"/><polygon fill="#666666" points="873.36,966.1977,880.799,959.7431,875.4803,961.6695,873.5539,956.3507,873.36,966.1977" style="stroke:#666666;stroke-width:1;"/><text fill="#666666" font-family="sans-serif" font-size="10" lengthAdjust="spacing" textLength="16.123" x="917" y="895.5275">has</text></g><!--link fundingReceipt to funder--><g class="link" data-entity-1="fundingReceipt" data-entity-2="funder" data-source-line="290" data-uid="lnk40" id="link_fundingReceipt_funder"><path codeLine="290" d="M700,115.5977 C817.73,115.5977 703.0105,323.2709 656.6005,400.1609" fill="none" id="fundingReceipt-to-funder" style="stroke:#666666;stroke-width:1;"/><polygon fill="#666666" points="653.5,405.2977,661.5753,399.6595,656.0838,401.017,654.7262,395.5254,653.5,405.2977" style="stroke:#666666;stroke-width:1;"/></g><!--link fundingReceipt to contributor--><g class="link" data-entity-1="fundingReceipt" data-entity-2="contributor" data-source-line="291" data-uid="lnk41" id="link_fundingReceipt_contributor"><path codeLine="291" d="M700,99.5977 C893.48,99.5977 968.21,169.7877 1064.5,337.5977 C1116.54,428.2877 1103.16,471.7677 1075.5,572.5977 C1062.64,619.4677 1034.5654,661.7621 1012.6954,690.3521" fill="none" id="fundingReceipt-to-contributor" style="stroke:#666666;stroke-width:1;"/><polygon fill="#666666" points="1009.05,695.1177,1017.6952,690.3996,1012.0879,691.1463,1011.3411,685.539,1009.05,695.1177" style="stroke:#666666;stroke-width:1;"/></g><!--link fundingReceipt to activity--><g class="link" data-entity-1="fundingReceipt" data-entity-2="activity" data-source-line="293" data-uid="lnk42" id="link_fundingReceipt_activity"><path codeLine="293" d="M573,131.5977 C525.52,131.5977 489.819,423.9266 472.779,596.6766" fill="none" id="fundingReceipt-to-activity" style="stroke:#666666;stroke-width:1;"/><polygon fill="#666666" points="472.19,602.6477,477.0542,594.0838,472.6808,597.6718,469.0928,593.2985,472.19,602.6477" style="stroke:#666666;stroke-width:1;"/><text fill="#666666" font-family="sans-serif" font-size="10" lengthAdjust="spacing" textLength="24.4629" x="505.88" y="437.4775">funds</text></g><!--SRC=[Kqn9JSlCIrK8zl0FZtVpTFLn2LOeAIfDvU9IpCnBpYbDILLm3NBHAoZDpU420000]--></g></svg>