<svg xmlns="http://www.w3.org/2000/svg" xmlns:xlink="http://www.w3.org/1999/xlink" contentStyleType="text/css" data-diagram-type="CLASS" height="994px" preserveAspectRatio="none" style="width:819px;height:994px;background:#FFFFFF;" version="1.1" viewBox="0 0 819 994" width="819px" zoomAndPan="magnify"><title>Hypercert ERD</title><defs/><g><g class="title" data-source-line="1"><text fill="#000000" font-family="sans-serif" font-size="24" font-weight="bold" lengthAdjust="spacing" textLength="157.0547" x="324.3677" y="32.2656">Hypercert ERD</text></g><!--class contributor--><g class="entity" data-entity="contributor" data-source-line="39" data-uid="ent0002" id="entity_contributor"><rect fill="#FFD4A3" height="56.4063" rx="2.5" ry="2.5" style="stroke:#181818;stroke-width:0.5;" width="167.4219" x="103.11" y="617.415"/><ellipse cx="148.2409" cy="633.415" fill="#ADD1B2" rx="11" ry="11" style="stroke:#181818;stroke-width:1;"/><path d="M144.3034,639.415 L151.819,639.415 L151.819,637.3056 L146.819,637.3056 L146.819,634.7588 L150.9127,634.7588 L150.9127,632.665 L146.819,632.665 L146.819,630.4463 L151.6471,630.4463 L151.6471,628.3369 L144.3034,628.3369 L144.3034,639.415 Z " fill="#000000"/><text fill="#000000" font-family="sans-serif" font-size="14" lengthAdjust="spacing" textLength="68.6602" x="168.7409" y="638.2002">contributor</text><line style="stroke:#181818;stroke-width:0.5;" x1="104.11" x2="269.5319" y1="649.415" y2="649.415"/><text fill="#000000" font-family="sans-serif" font-size="14" lengthAdjust="spacing" textLength="155.4219" x="109.11" y="666.4033">DID or name/pseudonym</text></g><!--class activity--><g class="entity" data-entity="activity" data-source-line="45" data-uid="ent0003" id="entity_activity"><rect fill="#B4E5D0" height="221.9063" rx="2.5" ry="2.5" style="stroke:#181818;stroke-width:0.5;" width="115.1201" x="318.32" y="535.125"/><ellipse cx="341.2719" cy="551.8438" fill="#7E57C2" rx="11" ry="11" style="stroke:#181818;stroke-width:1;"/><path d="M338.4594,557.8438 L341.6782,557.8438 C344.7563,557.8438 346.8657,556.0625 346.8657,552.25 C346.8657,548.4375 344.7563,546.7656 341.5219,546.7656 L338.4594,546.7656 L338.4594,557.8438 Z M340.975,555.8281 L340.975,548.7813 L341.3813,548.7813 C343.1157,548.7813 344.2875,549.5938 344.2875,552.25 C344.2875,554.9063 343.1157,555.8281 341.3813,555.8281 L340.975,555.8281 Z " fill="#000000"/><text fill="#000000" font-family="sans-serif" font-size="20" font-weight="bold" lengthAdjust="spacing" textLength="65.4492" x="357.039" y="558.6797">activity</text><line style="stroke:#181818;stroke-width:0.5;" x1="319.32" x2="432.4401" y1="568.5625" y2="568.5625"/><text fill="#000000" font-family="sans-serif" font-size="14" lengthAdjust="spacing" textLength="23.3926" x="324.32" y="585.5508">title</text><text fill="#000000" font-family="sans-serif" font-size="14" lengthAdjust="spacing" textLength="103.1201" x="324.32" y="601.957">shortDescription</text><text fill="#000000" font-family="sans-serif" font-size="14" lengthAdjust="spacing" textLength="76.2002" x="324.32" y="618.3633">description?</text><text fill="#000000" font-family="sans-serif" font-size="14" lengthAdjust="spacing" textLength="45.1992" x="324.32" y="634.7695">image?</text><text fill="#000000" font-family="sans-serif" font-size="14" lengthAdjust="spacing" textLength="75.8721" x="324.32" y="651.1758">workScope?</text><text fill="#000000" font-family="sans-serif" font-size="14" lengthAdjust="spacing" textLength="57.5518" x="324.32" y="667.582">startDate</text><text fill="#000000" font-family="sans-serif" font-size="14" lengthAdjust="spacing" textLength="51.8574" x="324.32" y="683.9883">endDate</text><text fill="#000000" font-family="sans-serif" font-size="14" lengthAdjust="spacing" textLength="96.3184" x="324.32" y="700.3945">contributions[]?</text><text fill="#000000" font-family="sans-serif" font-size="14" lengthAdjust="spacing" textLength="42.1436" x="324.32" y="716.8008">rights?</text><text fill="#000000" font-family="sans-serif" font-size="14" lengthAdjust="spacing" textLength="56.6494" x="324.32" y="733.207">location?</text><text fill="#000000" font-family="sans-serif" font-size="14" lengthAdjust="spacing" textLength="60.7236" x="324.32" y="749.6133">createdAt</text></g><!--class evidence--><g class="entity" data-entity="evidence" data-source-line="61" data-uid="ent0004" id="entity_evidence"><rect fill="#F1F1F1" height="138.4375" rx="2.5" ry="2.5" style="stroke:#181818;stroke-width:0.5;" width="121.7373" x="146.32" y="303.625"/><ellipse cx="176.7663" cy="319.625" fill="#7E57C2" rx="11" ry="11" style="stroke:#181818;stroke-width:1;"/><path d="M173.9538,325.625 L177.1726,325.625 C180.2507,325.625 182.3601,323.8438 182.3601,320.0313 C182.3601,316.2188 180.2507,314.5469 177.0163,314.5469 L173.9538,314.5469 L173.9538,325.625 Z M176.4695,323.6094 L176.4695,316.5625 L176.8757,316.5625 C178.6101,316.5625 179.782,317.375 179.782,320.0313 C179.782,322.6875 178.6101,323.6094 176.8757,323.6094 L176.4695,323.6094 Z " fill="#000000"/><text fill="#000000" font-family="sans-serif" font-size="14" lengthAdjust="spacing" textLength="55.4121" x="194.1989" y="324.4102">evidence</text><line style="stroke:#181818;stroke-width:0.5;" x1="147.32" x2="267.0573" y1="335.625" y2="335.625"/><text fill="#000000" font-family="sans-serif" font-size="14" lengthAdjust="spacing" textLength="50.9346" x="152.32" y="352.6133">activity?</text><text fill="#000000" font-family="sans-serif" font-size="14" lengthAdjust="spacing" textLength="47.3594" x="152.32" y="369.0195">content</text><text fill="#000000" font-family="sans-serif" font-size="14" lengthAdjust="spacing" textLength="23.3926" x="152.32" y="385.4258">title</text><text fill="#000000" font-family="sans-serif" font-size="14" lengthAdjust="spacing" textLength="109.7373" x="152.32" y="401.832">shortDescription?</text><text fill="#000000" font-family="sans-serif" font-size="14" lengthAdjust="spacing" textLength="76.2002" x="152.32" y="418.2383">description?</text><text fill="#000000" font-family="sans-serif" font-size="14" lengthAdjust="spacing" textLength="60.7236" x="152.32" y="434.6445">createdAt</text></g><!--class measurement--><g class="entity" data-entity="measurement" data-source-line="72" data-uid="ent0005" id="entity_measurement"><rect fill="#F1F1F1" height="187.6563" rx="2.5" ry="2.5" style="stroke:#181818;stroke-width:0.5;" width="176.5205" x="490.82" y="279.125"/><ellipse cx="531.956" cy="295.125" fill="#7E57C2" rx="11" ry="11" style="stroke:#181818;stroke-width:1;"/><path d="M529.1435,301.125 L532.3623,301.125 C535.4404,301.125 537.5498,299.3438 537.5498,295.5313 C537.5498,291.7188 535.4404,290.0469 532.206,290.0469 L529.1435,290.0469 L529.1435,301.125 Z M531.6592,299.1094 L531.6592,292.0625 L532.0654,292.0625 C533.7998,292.0625 534.9717,292.875 534.9717,295.5313 C534.9717,298.1875 533.7998,299.1094 532.0654,299.1094 L531.6592,299.1094 Z " fill="#000000"/><text fill="#000000" font-family="sans-serif" font-size="14" lengthAdjust="spacing" textLength="86.4404" x="551.764" y="299.9102">measurement</text><line style="stroke:#181818;stroke-width:0.5;" x1="491.82" x2="666.3405" y1="311.125" y2="311.125"/><text fill="#000000" font-family="sans-serif" font-size="14" lengthAdjust="spacing" textLength="44.3174" x="496.82" y="328.1133">activity</text><text fill="#000000" font-family="sans-serif" font-size="14" lengthAdjust="spacing" textLength="73.8213" x="496.82" y="344.5195">measurers[]</text><text fill="#000000" font-family="sans-serif" font-size="14" lengthAdjust="spacing" textLength="39.7578" x="496.82" y="360.9258">metric</text><text fill="#000000" font-family="sans-serif" font-size="14" lengthAdjust="spacing" textLength="32.9424" x="496.82" y="377.332">value</text><text fill="#000000" font-family="sans-serif" font-size="14" lengthAdjust="spacing" textLength="164.5205" x="496.82" y="393.7383">measurementMethodType</text><text fill="#000000" font-family="sans-serif" font-size="14" lengthAdjust="spacing" textLength="155.7705" x="496.82" y="410.1445">measurementMethodURI</text><text fill="#000000" font-family="sans-serif" font-size="14" lengthAdjust="spacing" textLength="90.9658" x="496.82" y="426.5508">evidenceURI[]?</text><text fill="#000000" font-family="sans-serif" font-size="14" lengthAdjust="spacing" textLength="56.6494" x="496.82" y="442.957">location?</text><text fill="#000000" font-family="sans-serif" font-size="14" lengthAdjust="spacing" textLength="60.7236" x="496.82" y="459.3633">createdAt</text></g><!--class evaluation--><g class="entity" data-entity="evaluation" data-source-line="86" data-uid="ent0006" id="entity_evaluation"><rect fill="#F1F1F1" height="154.8438" rx="2.5" ry="2.5" style="stroke:#181818;stroke-width:0.5;" width="119.707" x="379.32" y="56.125"/><ellipse cx="404.8721" cy="72.125" fill="#7E57C2" rx="11" ry="11" style="stroke:#181818;stroke-width:1;"/><path d="M402.0596,78.125 L405.2784,78.125 C408.3565,78.125 410.4659,76.3438 410.4659,72.5313 C410.4659,68.7188 408.3565,67.0469 405.1221,67.0469 L402.0596,67.0469 L402.0596,78.125 Z M404.5753,76.1094 L404.5753,69.0625 L404.9815,69.0625 C406.7159,69.0625 407.8878,69.875 407.8878,72.5313 C407.8878,75.1875 406.7159,76.1094 404.9815,76.1094 L404.5753,76.1094 Z " fill="#000000"/><text fill="#000000" font-family="sans-serif" font-size="14" lengthAdjust="spacing" textLength="64.2578" x="421.2171" y="76.9102">evaluation</text><line style="stroke:#181818;stroke-width:0.5;" x1="380.32" x2="498.027" y1="88.125" y2="88.125"/><text fill="#000000" font-family="sans-serif" font-size="14" lengthAdjust="spacing" textLength="45.4863" x="385.32" y="105.1133">subject</text><text fill="#000000" font-family="sans-serif" font-size="14" lengthAdjust="spacing" textLength="58.4814" x="385.32" y="121.5195">summary</text><text fill="#000000" font-family="sans-serif" font-size="14" lengthAdjust="spacing" textLength="72.5156" x="385.32" y="137.9258">evaluators[]</text><text fill="#000000" font-family="sans-serif" font-size="14" lengthAdjust="spacing" textLength="69.4531" x="385.32" y="154.332">evidence[]?</text><text fill="#000000" font-family="sans-serif" font-size="14" lengthAdjust="spacing" textLength="107.707" x="385.32" y="170.7383">measurements[]?</text><text fill="#000000" font-family="sans-serif" font-size="14" lengthAdjust="spacing" textLength="56.6494" x="385.32" y="187.1445">location?</text><text fill="#000000" font-family="sans-serif" font-size="14" lengthAdjust="spacing" textLength="60.7236" x="385.32" y="203.5508">createdAt</text></g><!--class contribution--><g class="entity" data-entity="contribution" data-source-line="98" data-uid="ent0007" id="entity_contribution"><rect fill="#F1F1F1" height="138.4375" rx="2.5" ry="2.5" style="stroke:#181818;stroke-width:0.5;" width="107.0518" x="101.29" y="841.325"/><ellipse cx="116.29" cy="857.325" fill="#7E57C2" rx="11" ry="11" style="stroke:#181818;stroke-width:1;"/><path d="M113.4775,863.325 L116.6962,863.325 C119.7744,863.325 121.8837,861.5438 121.8837,857.7313 C121.8837,853.9188 119.7744,852.2469 116.54,852.2469 L113.4775,852.2469 L113.4775,863.325 Z M115.9931,861.3094 L115.9931,854.2625 L116.3994,854.2625 C118.1337,854.2625 119.3056,855.075 119.3056,857.7313 C119.3056,860.3875 118.1337,861.3094 116.3994,861.3094 L115.9931,861.3094 Z " fill="#000000"/><text fill="#000000" font-family="sans-serif" font-size="14" lengthAdjust="spacing" textLength="75.0518" x="130.29" y="862.1102">contribution</text><line style="stroke:#181818;stroke-width:0.5;" x1="102.29" x2="207.3418" y1="873.325" y2="873.325"/><text fill="#000000" font-family="sans-serif" font-size="14" lengthAdjust="spacing" textLength="30.1738" x="107.29" y="890.3133">role?</text><text fill="#000000" font-family="sans-serif" font-size="14" lengthAdjust="spacing" textLength="76.084" x="107.29" y="906.7195">contributor[]</text><text fill="#000000" font-family="sans-serif" font-size="14" lengthAdjust="spacing" textLength="76.2002" x="107.29" y="923.1258">description?</text><text fill="#000000" font-family="sans-serif" font-size="14" lengthAdjust="spacing" textLength="57.5518" x="107.29" y="939.532">startDate</text><text fill="#000000" font-family="sans-serif" font-size="14" lengthAdjust="spacing" textLength="51.8574" x="107.29" y="955.9383">endDate</text><text fill="#000000" font-family="sans-serif" font-size="14" lengthAdjust="spacing" textLength="60.7236" x="107.29" y="972.3445">createdAt</text></g><!--class location--><g class="entity" data-entity="location" data-source-line="109" data-uid="ent0008" id="entity_location"><rect fill="#F1F1F1" height="154.8438" rx="2.5" ry="2.5" style="stroke:#181818;stroke-width:0.5;" width="92.2949" x="535.67" y="833.125"/><ellipse cx="555.2882" cy="849.125" fill="#7E57C2" rx="11" ry="11" style="stroke:#181818;stroke-width:1;"/><path d="M552.4757,855.125 L555.6945,855.125 C558.7726,855.125 560.882,853.3438 560.882,849.5313 C560.882,845.7188 558.7726,844.0469 555.5382,844.0469 L552.4757,844.0469 L552.4757,855.125 Z M554.9913,853.1094 L554.9913,846.0625 L555.3976,846.0625 C557.132,846.0625 558.3038,846.875 558.3038,849.5313 C558.3038,852.1875 557.132,853.1094 555.3976,853.1094 L554.9913,853.1094 Z " fill="#000000"/><text fill="#000000" font-family="sans-serif" font-size="14" lengthAdjust="spacing" textLength="50.0322" x="570.3145" y="853.9102">location</text><line style="stroke:#181818;stroke-width:0.5;" x1="536.67" x2="626.9649" y1="865.125" y2="865.125"/><text fill="#000000" font-family="sans-serif" font-size="14" lengthAdjust="spacing" textLength="58.6934" x="541.67" y="882.1133">lpVersion</text><text fill="#000000" font-family="sans-serif" font-size="14" lengthAdjust="spacing" textLength="19.1953" x="541.67" y="898.5195">srs</text><text fill="#000000" font-family="sans-serif" font-size="14" lengthAdjust="spacing" textLength="80.2949" x="541.67" y="914.9258">locationType</text><text fill="#000000" font-family="sans-serif" font-size="14" lengthAdjust="spacing" textLength="50.0322" x="541.67" y="931.332">location</text><text fill="#000000" font-family="sans-serif" font-size="14" lengthAdjust="spacing" textLength="41.665" x="541.67" y="947.7383">name?</text><text fill="#000000" font-family="sans-serif" font-size="14" lengthAdjust="spacing" textLength="76.2002" x="541.67" y="964.1445">description?</text><text fill="#000000" font-family="sans-serif" font-size="14" lengthAdjust="spacing" textLength="60.7236" x="541.67" y="980.5508">createdAt</text></g><!--class rights--><g class="entity" data-entity="rights" data-source-line="121" data-uid="ent0009" id="entity_rights"><rect fill="#F1F1F1" height="122.0313" rx="2.5" ry="2.5" style="stroke:#181818;stroke-width:0.5;" width="118.4014" x="243.62" y="849.525"/><ellipse cx="281.5138" cy="865.525" fill="#7E57C2" rx="11" ry="11" style="stroke:#181818;stroke-width:1;"/><path d="M278.7013,871.525 L281.92,871.525 C284.9981,871.525 287.1075,869.7438 287.1075,865.9313 C287.1075,862.1188 284.9981,860.4469 281.7638,860.4469 L278.7013,860.4469 L278.7013,871.525 Z M281.2169,869.5094 L281.2169,862.4625 L281.6231,862.4625 C283.3575,862.4625 284.5294,863.275 284.5294,865.9313 C284.5294,868.5875 283.3575,869.5094 281.6231,869.5094 L281.2169,869.5094 Z " fill="#000000"/><text fill="#000000" font-family="sans-serif" font-size="14" lengthAdjust="spacing" textLength="35.5264" x="300.6013" y="870.3102">rights</text><line style="stroke:#181818;stroke-width:0.5;" x1="244.62" x2="361.0214" y1="881.525" y2="881.525"/><text fill="#000000" font-family="sans-serif" font-size="14" lengthAdjust="spacing" textLength="72.8301" x="249.62" y="898.5133">rightsName</text><text fill="#000000" font-family="sans-serif" font-size="14" lengthAdjust="spacing" textLength="65.7891" x="249.62" y="914.9195">rightsType</text><text fill="#000000" font-family="sans-serif" font-size="14" lengthAdjust="spacing" textLength="106.4014" x="249.62" y="931.3258">rightsDescription</text><text fill="#000000" font-family="sans-serif" font-size="14" lengthAdjust="spacing" textLength="71.4424" x="249.62" y="947.732">attachment</text><text fill="#000000" font-family="sans-serif" font-size="14" lengthAdjust="spacing" textLength="60.7236" x="249.62" y="964.1383">createdAt</text></g><!--class collection--><g class="entity" data-entity="collection" data-source-line="131" data-uid="ent0010" id="entity_collection"><rect fill="#F1F1F1" height="122.0313" rx="2.5" ry="2.5" style="stroke:#181818;stroke-width:0.5;" width="121.7373" x="318.32" y="311.625"/><ellipse cx="346.4438" cy="327.625" fill="#7E57C2" rx="11" ry="11" style="stroke:#181818;stroke-width:1;"/><path d="M343.6313,333.625 L346.8501,333.625 C349.9282,333.625 352.0376,331.8438 352.0376,328.0313 C352.0376,324.2188 349.9282,322.5469 346.6938,322.5469 L343.6313,322.5469 L343.6313,333.625 Z M346.147,331.6094 L346.147,324.5625 L346.5532,324.5625 C348.2876,324.5625 349.4595,325.375 349.4595,328.0313 C349.4595,330.6875 348.2876,331.6094 346.5532,331.6094 L346.147,331.6094 Z " fill="#000000"/><text fill="#000000" font-family="sans-serif" font-size="14" lengthAdjust="spacing" textLength="60.5732" x="363.3602" y="332.4102">collection</text><line style="stroke:#181818;stroke-width:0.5;" x1="319.32" x2="439.0573" y1="343.625" y2="343.625"/><text fill="#000000" font-family="sans-serif" font-size="14" lengthAdjust="spacing" textLength="23.3926" x="324.32" y="360.6133">title</text><text fill="#000000" font-family="sans-serif" font-size="14" lengthAdjust="spacing" textLength="109.7373" x="324.32" y="377.0195">shortDescription?</text><text fill="#000000" font-family="sans-serif" font-size="14" lengthAdjust="spacing" textLength="77.9707" x="324.32" y="393.4258">coverPhoto?</text><text fill="#000000" font-family="sans-serif" font-size="14" lengthAdjust="spacing" textLength="48.6787" x="324.32" y="409.832">claims[]</text><text fill="#000000" font-family="sans-serif" font-size="14" lengthAdjust="spacing" textLength="60.7236" x="324.32" y="426.2383">createdAt</text></g><!--class token--><g class="entity" data-entity="token" data-source-line="141" data-uid="ent0011" id="entity_token"><rect fill="#FFB6C1" height="65.8438" rx="2.5" ry="2.5" style="stroke:#181818;stroke-width:0.5;" width="104.2578" x="396.69" y="877.625"/><ellipse cx="421.3632" cy="894.3438" fill="#F1F1F1" rx="11" ry="11" style="stroke:#181818;stroke-width:1;"/><path d="M418.1445,900.3438 L420.6445,900.3438 L420.6445,896.5938 L422.0664,896.5938 C424.4101,896.5938 426.3945,895.4375 426.3945,892.8281 C426.3945,890.1406 424.457,889.2656 422.0664,889.2656 L418.1445,889.2656 L418.1445,900.3438 Z M420.6445,894.5938 L420.6445,891.25 L421.9101,891.25 C423.2382,891.25 423.957,891.6719 423.957,892.8281 C423.957,893.9844 423.2851,894.5938 421.9101,894.5938 L420.6445,894.5938 Z " fill="#000000"/><text fill="#000000" font-family="sans-serif" font-size="20" font-weight="bold" lengthAdjust="spacing" textLength="50.7617" x="437.5129" y="901.1797">token</text><line style="stroke:#181818;stroke-width:0.5;" x1="397.69" x2="499.9478" y1="911.0625" y2="911.0625"/><line style="stroke:#181818;stroke-width:0.5;" x1="397.69" x2="499.9478" y1="919.0625" y2="919.0625"/><text fill="#000000" font-family="sans-serif" font-size="14" lengthAdjust="spacing" textLength="92.2578" x="402.69" y="936.0508">(on-chain only)</text></g><!--link activity to contribution--><g class="link" data-entity-1="activity" data-entity-2="contribution" data-source-line="147" data-uid="lnk12" id="link_activity_contribution"><path codeLine="147" d="M317.32,695.125 C266.65,695.125 313.41,764.325 280.82,803.125 C262.91,824.445 247.8,816.035 225.82,833.125 C219.95,837.675 218.5229,838.6267 212.9029,843.9067" fill="none" id="activity-to-contribution" style="stroke:#666666;stroke-width:1;"/><polygon fill="#666666" points="208.53,848.015,217.8281,844.7678,212.174,844.5914,212.3504,838.9373,208.53,848.015" style="stroke:#666666;stroke-width:1;"/></g><!--link activity to rights--><g class="link" data-entity-1="activity" data-entity-2="rights" data-source-line="148" data-uid="lnk13" id="link_activity_rights"><path codeLine="148" d="M317.32,711.125 C295.53,711.125 310.79,739.675 318.32,760.125 C324.26,776.275 337.04,773.905 342.82,790.125 C344.76,795.565 343.85,797.435 342.82,803.125 C340.03,818.465 337.2099,828.8397 331.7999,843.6397" fill="none" id="activity-to-rights" style="stroke:#666666;stroke-width:1;"/><polygon fill="#666666" points="329.74,849.275,336.5868,842.1953,331.4566,844.5789,329.073,839.4488,329.74,849.275" style="stroke:#666666;stroke-width:1;"/></g><!--link activity to location--><g class="link" data-entity-1="activity" data-entity-2="location" data-source-line="149" data-uid="lnk14" id="link_activity_location"><path codeLine="149" d="M434.32,728.125 C491.65,728.125 528.0544,777.9312 551.4744,827.4412" fill="none" id="activity-to-location" style="stroke:#666666;stroke-width:1;"/><polygon fill="#666666" points="554.04,832.865,553.8074,823.0189,551.902,828.3452,546.5757,826.4397,554.04,832.865" style="stroke:#666666;stroke-width:1;"/></g><!--link evidence to activity--><g class="link" data-entity-1="evidence" data-entity-2="activity" data-source-line="150" data-uid="lnk15" id="link_evidence_activity"><path codeLine="150" d="M268.32,347.625 C296.08,347.625 284.07,443.775 292.82,470.125 C299.53,490.335 305.5677,505.789 314.5377,525.819" fill="none" id="evidence-to-activity" style="stroke:#666666;stroke-width:1;"/><polygon fill="#666666" points="316.99,531.295,316.9622,521.4462,314.9464,526.7317,309.6609,524.7159,316.99,531.295" style="stroke:#666666;stroke-width:1;"/></g><!--link measurement to activity--><g class="link" data-entity-1="measurement" data-entity-2="activity" data-source-line="151" data-uid="lnk16" id="link_measurement_activity"><path codeLine="151" d="M489.82,323.125 C449.84,323.125 477.43,463.535 463.82,501.125 C457.89,517.475 452.8705,528.7227 444.2005,544.4227" fill="none" id="measurement-to-activity" style="stroke:#666666;stroke-width:1;"/><polygon fill="#666666" points="441.3,549.675,449.1523,543.7302,443.7171,545.298,442.1492,539.8628,441.3,549.675" style="stroke:#666666;stroke-width:1;"/></g><!--link measurement to location--><g class="link" data-entity-1="measurement" data-entity-2="location" data-source-line="152" data-uid="lnk17" id="link_measurement_location"><path codeLine="152" d="M667.82,437.125 C747.27,437.125 662.7879,693.4363 613.3979,827.2263" fill="none" id="measurement-to-location" style="stroke:#666666;stroke-width:1;"/><polygon fill="#666666" points="611.32,832.855,618.1893,825.7972,613.0516,828.1644,610.6844,823.0267,611.32,832.855" style="stroke:#666666;stroke-width:1;"/></g><!--link evaluation to evidence--><g class="link" data-entity-1="evaluation" data-entity-2="evidence" data-source-line="153" data-uid="lnk18" id="link_evaluation_evidence"><path codeLine="153" d="M378.32,149.125 C300.89,149.125 255.6788,229.0792 230.8788,294.0792" fill="none" id="evaluation-to-evidence" style="stroke:#666666;stroke-width:1;"/><polygon fill="#666666" points="228.74,299.685,235.6855,292.7021,230.5224,295.0135,228.211,289.8504,228.74,299.685" style="stroke:#666666;stroke-width:1;"/></g><!--link evaluation to measurement--><g class="link" data-entity-1="evaluation" data-entity-2="measurement" data-source-line="154" data-uid="lnk19" id="link_evaluation_measurement"><path codeLine="154" d="M499.32,165.125 C550.7,165.125 569.3382,215.5323 576.1382,269.3723" fill="none" id="evaluation-to-measurement" style="stroke:#666666;stroke-width:1;"/><polygon fill="#666666" points="576.89,275.325,579.7307,265.8947,576.2635,270.3644,571.7938,266.8972,576.89,275.325" style="stroke:#666666;stroke-width:1;"/></g><!--link evaluation to activity--><g class="link" data-entity-1="evaluation" data-entity-2="activity" data-source-line="155" data-uid="lnk20" id="link_evaluation_activity"><path codeLine="155" d="M378.32,100.125 C177.97,100.125 6,305.935 120.82,470.125 C166.1,534.875 224,484.525 287.82,531.125 C295.77,536.925 299.1321,539.3876 306.2921,546.5976" fill="none" id="evaluation-to-activity" style="stroke:#666666;stroke-width:1;"/><polygon fill="#666666" points="310.52,550.855,307.0165,541.6504,306.9968,547.3072,301.34,547.2875,310.52,550.855" style="stroke:#666666;stroke-width:1;"/></g><!--link evaluation to location--><g class="link" data-entity-1="evaluation" data-entity-2="location" data-source-line="156" data-uid="lnk21" id="link_evaluation_location"><path codeLine="156" d="M499.32,182.125 C594.73,182.125 639.71,195.845 692.82,275.125 C812.79,454.205 765.62,557.235 692.82,760.125 C679.12,798.295 656.1109,830.4307 632.2009,857.8807" fill="none" id="evaluation-to-location" style="stroke:#666666;stroke-width:1;"/><polygon fill="#666666" points="628.26,862.405,637.1875,858.2457,631.5441,858.6347,631.1551,852.9913,628.26,862.405" style="stroke:#666666;stroke-width:1;"/></g><!--link collection to activity--><g class="link" data-entity-1="collection" data-entity-2="activity" data-source-line="157" data-uid="lnk22" id="link_collection_activity"><path codeLine="157" d="M440.32,404.625 C468.95,404.625 452.7399,463.5689 428.3799,525.7089" fill="none" id="collection-to-activity" style="stroke:#666666;stroke-width:1;"/><polygon fill="#666666" points="426.19,531.295,433.1988,524.3757,428.0149,526.6399,425.7507,521.4559,426.19,531.295" style="stroke:#666666;stroke-width:1;"/></g><!--reverse link activity to token--><g class="link" data-entity-1="activity" data-entity-2="token" data-source-line="158" data-uid="lnk23" id="link_activity_token"><path codeLine="158" d="M408.9059,765.8161 C420.7559,808.4761 431.72,847.955 439.88,877.355" fill="none" id="activity-backto-token" style="stroke:#666666;stroke-width:1;"/><polygon fill="#666666" points="407.3,760.035,405.8547,769.7772,408.6382,764.8526,413.5629,767.6361,407.3,760.035" style="stroke:#666666;stroke-width:1;"/><text fill="#666666" font-family="sans-serif" font-size="10" lengthAdjust="spacing" textLength="42.7246" x="419.85" y="800.4023">tokenizes</text></g><!--link contributor to contribution--><g class="link" data-entity-1="contributor" data-entity-2="contribution" data-source-line="159" data-uid="lnk24" id="link_contributor_contribution"><path codeLine="159" d="M183.45,674.265 C178.68,713.485 170.5044,780.6089 163.8944,834.9589" fill="none" id="contributor-to-contribution" style="stroke:#666666;stroke-width:1;"/><polygon fill="#666666" points="163.17,840.915,168.2273,832.4637,163.7736,835.9516,160.2858,831.4979,163.17,840.915" style="stroke:#666666;stroke-width:1;"/><text fill="#666666" font-family="sans-serif" font-size="10" lengthAdjust="spacing" textLength="29.7412" x="169.9" y="800.4023">makes</text></g><!--link contributor to rights--><g class="link" data-entity-1="contributor" data-entity-2="rights" data-source-line="160" data-uid="lnk25" id="link_contributor_rights"><path codeLine="160" d="M199.01,674.265 C217.22,715.525 249.5383,788.7854 273.7883,843.7554" fill="none" id="contributor-to-rights" style="stroke:#666666;stroke-width:1;"/><polygon fill="#666666" points="276.21,849.245,276.2371,839.3962,274.1919,844.6704,268.9177,842.6251,276.21,849.245" style="stroke:#666666;stroke-width:1;"/><text fill="#666666" font-family="sans-serif" font-size="10" lengthAdjust="spacing" textLength="16.1084" x="256.21" y="800.4023">has</text></g><!--SRC=[Kqn9JSlCIrK8zl0FZtVpTFLn2LOeAIfDvU9IpCnBpYbDILLm3NBHAoZDpU420000]--></g></svg>