<svg xmlns="http://www.w3.org/2000/svg" xmlns:xlink="http://www.w3.org/1999/xlink" contentStyleType="text/css" data-diagram-type="CLASS" height="637px" preserveAspectRatio="none" style="width:1557px;height:637px;background:#FFFFFF;" version="1.1" viewBox="0 0 1557 637" width="1557px" zoomAndPan="magnify"><title>Hypercert ERD</title><defs/><g><g class="title" data-source-line="7"><text fill="#000000" font-family="sans-serif" font-size="24" font-weight="bold" lengthAdjust="spacing" textLength="157.0547" x="693.1527" y="32.2656">Hypercert ERD</text></g><!--class organization--><g class="entity" data-entity="organization" data-source-line="46" data-uid="ent0002" id="entity_organization"><rect fill="#F1F1F1" height="32" rx="2.5" ry="2.5" style="stroke:#181818;stroke-width:0.5;" width="109.6016" x="123" y="371.625"/><ellipse cx="138" cy="387.625" fill="#7E57C2" rx="11" ry="11" style="stroke:#181818;stroke-width:1;"/><path d="M135.1875,393.625 L138.4063,393.625 C141.4844,393.625 143.5938,391.8438 143.5938,388.0313 C143.5938,384.2188 141.4844,382.5469 138.25,382.5469 L135.1875,382.5469 L135.1875,393.625 Z M137.7031,391.6094 L137.7031,384.5625 L138.1094,384.5625 C139.8438,384.5625 141.0156,385.375 141.0156,388.0313 C141.0156,390.6875 139.8438,391.6094 138.1094,391.6094 L137.7031,391.6094 Z " fill="#000000"/><text fill="#000000" font-family="sans-serif" font-size="14" lengthAdjust="spacing" textLength="77.6016" x="152" y="392.4102">organization</text></g><!--class contributorEntity--><g class="entity" data-entity="contributorEntity" data-source-line="58" data-uid="ent0003" id="entity_contributorEntity"><rect fill="#FFD4A3" height="32" rx="2.5" ry="2.5" style="stroke:#181818;stroke-width:0.5;" width="181.4473" x="1081.78" y="371.625"/><ellipse cx="1096.78" cy="387.625" fill="#ADD1B2" rx="11" ry="11" style="stroke:#181818;stroke-width:1;"/><path d="M1092.8425,393.625 L1100.3581,393.625 L1100.3581,391.5156 L1095.3581,391.5156 L1095.3581,388.9688 L1099.4519,388.9688 L1099.4519,386.875 L1095.3581,386.875 L1095.3581,384.6563 L1100.1863,384.6563 L1100.1863,382.5469 L1092.8425,382.5469 L1092.8425,393.625 Z " fill="#000000"/><text fill="#000000" font-family="sans-serif" font-size="14" lengthAdjust="spacing" textLength="149.4473" x="1110.78" y="392.4102">contributor (DID/profile)</text></g><!--class activity--><g class="entity" data-entity="activity" data-source-line="66" data-uid="ent0004" id="entity_activity"><rect fill="#B4E5D0" height="33.4375" rx="2.5" ry="2.5" style="stroke:#181818;stroke-width:0.5;" width="97.4492" x="592" y="371.125"/><ellipse cx="607" cy="387.8438" fill="#7E57C2" rx="11" ry="11" style="stroke:#181818;stroke-width:1;"/><path d="M604.1875,393.8438 L607.4063,393.8438 C610.4844,393.8438 612.5938,392.0625 612.5938,388.25 C612.5938,384.4375 610.4844,382.7656 607.25,382.7656 L604.1875,382.7656 L604.1875,393.8438 Z M606.7031,391.8281 L606.7031,384.7813 L607.1094,384.7813 C608.8438,384.7813 610.0156,385.5938 610.0156,388.25 C610.0156,390.9063 608.8438,391.8281 607.1094,391.8281 L606.7031,391.8281 Z " fill="#000000"/><text fill="#000000" font-family="sans-serif" font-size="20" font-weight="bold" lengthAdjust="spacing" textLength="65.4492" x="621" y="394.6797">activity</text></g><!--class attachment--><g class="entity" data-entity="attachment" data-source-line="83" data-uid="ent0005" id="entity_attachment"><rect fill="#F1F1F1" height="32" rx="2.5" ry="2.5" style="stroke:#181818;stroke-width:0.5;" width="103.4424" x="7" y="258.125"/><ellipse cx="22" cy="274.125" fill="#7E57C2" rx="11" ry="11" style="stroke:#181818;stroke-width:1;"/><path d="M19.1875,280.125 L22.4063,280.125 C25.4844,280.125 27.5938,278.3438 27.5938,274.5313 C27.5938,270.7188 25.4844,269.0469 22.25,269.0469 L19.1875,269.0469 L19.1875,280.125 Z M21.7031,278.1094 L21.7031,271.0625 L22.1094,271.0625 C23.8438,271.0625 25.0156,271.875 25.0156,274.5313 C25.0156,277.1875 23.8438,278.1094 22.1094,278.1094 L21.7031,278.1094 Z " fill="#000000"/><text fill="#000000" font-family="sans-serif" font-size="14" lengthAdjust="spacing" textLength="71.4424" x="36" y="278.9102">attachment</text></g><!--class measurement--><g class="entity" data-entity="measurement" data-source-line="97" data-uid="ent0006" id="entity_measurement"><rect fill="#F1F1F1" height="32" rx="2.5" ry="2.5" style="stroke:#181818;stroke-width:0.5;" width="118.4404" x="205.5" y="258.125"/><ellipse cx="220.5" cy="274.125" fill="#7E57C2" rx="11" ry="11" style="stroke:#181818;stroke-width:1;"/><path d="M217.6875,280.125 L220.9063,280.125 C223.9844,280.125 226.0938,278.3438 226.0938,274.5313 C226.0938,270.7188 223.9844,269.0469 220.75,269.0469 L217.6875,269.0469 L217.6875,280.125 Z M220.2031,278.1094 L220.2031,271.0625 L220.6094,271.0625 C222.3438,271.0625 223.5156,271.875 223.5156,274.5313 C223.5156,277.1875 222.3438,278.1094 220.6094,278.1094 L220.2031,278.1094 Z " fill="#000000"/><text fill="#000000" font-family="sans-serif" font-size="14" lengthAdjust="spacing" textLength="86.4404" x="234.5" y="278.9102">measurement</text></g><!--class evaluation--><g class="entity" data-entity="evaluation" data-source-line="116" data-uid="ent0007" id="entity_evaluation"><rect fill="#F1F1F1" height="32" rx="2.5" ry="2.5" style="stroke:#181818;stroke-width:0.5;" width="96.2578" x="136.5" y="157.125"/><ellipse cx="151.5" cy="173.125" fill="#7E57C2" rx="11" ry="11" style="stroke:#181818;stroke-width:1;"/><path d="M148.6875,179.125 L151.9063,179.125 C154.9844,179.125 157.0938,177.3438 157.0938,173.5313 C157.0938,169.7188 154.9844,168.0469 151.75,168.0469 L148.6875,168.0469 L148.6875,179.125 Z M151.2031,177.1094 L151.2031,170.0625 L151.6094,170.0625 C153.3438,170.0625 154.5156,170.875 154.5156,173.5313 C154.5156,176.1875 153.3438,177.1094 151.6094,177.1094 L151.2031,177.1094 Z " fill="#000000"/><text fill="#000000" font-family="sans-serif" font-size="14" lengthAdjust="spacing" textLength="64.2578" x="165.5" y="177.9102">evaluation</text></g><!--class contributorInformation--><g class="entity" data-entity="contributorInformation" data-source-line="130" data-uid="ent0008" id="entity_contributorInformation"><rect fill="#F1F1F1" height="32" rx="2.5" ry="2.5" style="stroke:#181818;stroke-width:0.5;" width="173.3877" x="1086" y="258.125"/><ellipse cx="1101" cy="274.125" fill="#7E57C2" rx="11" ry="11" style="stroke:#181818;stroke-width:1;"/><path d="M1098.1875,280.125 L1101.4063,280.125 C1104.4844,280.125 1106.5938,278.3438 1106.5938,274.5313 C1106.5938,270.7188 1104.4844,269.0469 1101.25,269.0469 L1098.1875,269.0469 L1098.1875,280.125 Z M1100.7031,278.1094 L1100.7031,271.0625 L1101.1094,271.0625 C1102.8438,271.0625 1104.0156,271.875 1104.0156,274.5313 C1104.0156,277.1875 1102.8438,278.1094 1101.1094,278.1094 L1100.7031,278.1094 Z " fill="#000000"/><text fill="#000000" font-family="sans-serif" font-size="14" lengthAdjust="spacing" textLength="141.3877" x="1115" y="278.9102">contributorInformation</text></g><!--class contribution--><g class="entity" data-entity="contribution" data-source-line="140" data-uid="ent0009" id="entity_contribution"><rect fill="#F1F1F1" height="32" rx="2.5" ry="2.5" style="stroke:#181818;stroke-width:0.5;" width="107.0518" x="579.97" y="485.125"/><ellipse cx="594.97" cy="501.125" fill="#7E57C2" rx="11" ry="11" style="stroke:#181818;stroke-width:1;"/><path d="M592.1575,507.125 L595.3763,507.125 C598.4544,507.125 600.5638,505.3438 600.5638,501.5313 C600.5638,497.7188 598.4544,496.0469 595.22,496.0469 L592.1575,496.0469 L592.1575,507.125 Z M594.6731,505.1094 L594.6731,498.0625 L595.0794,498.0625 C596.8138,498.0625 597.9856,498.875 597.9856,501.5313 C597.9856,504.1875 596.8138,505.1094 595.0794,505.1094 L594.6731,505.1094 Z " fill="#000000"/><text fill="#000000" font-family="sans-serif" font-size="14" lengthAdjust="spacing" textLength="75.0518" x="608.97" y="505.9102">contribution</text></g><!--class location--><g class="entity" data-entity="location" data-source-line="151" data-uid="ent0010" id="entity_location"><rect fill="#F1F1F1" height="32" rx="2.5" ry="2.5" style="stroke:#181818;stroke-width:0.5;" width="82.0322" x="252.48" y="485.125"/><ellipse cx="267.48" cy="501.125" fill="#7E57C2" rx="11" ry="11" style="stroke:#181818;stroke-width:1;"/><path d="M264.6675,507.125 L267.8863,507.125 C270.9644,507.125 273.0738,505.3438 273.0738,501.5313 C273.0738,497.7188 270.9644,496.0469 267.73,496.0469 L264.6675,496.0469 L264.6675,507.125 Z M267.1831,505.1094 L267.1831,498.0625 L267.5894,498.0625 C269.3238,498.0625 270.4956,498.875 270.4956,501.5313 C270.4956,504.1875 269.3238,505.1094 267.5894,505.1094 L267.1831,505.1094 Z " fill="#000000"/><text fill="#000000" font-family="sans-serif" font-size="14" lengthAdjust="spacing" textLength="50.0322" x="281.48" y="505.9102">location</text></g><!--class badgeDefinition--><g class="entity" data-entity="badgeDefinition" data-source-line="164" data-uid="ent0011" id="entity_badgeDefinition"><rect fill="#F1F1F1" height="32" rx="2.5" ry="2.5" style="stroke:#181818;stroke-width:0.5;" width="130.376" x="1373.31" y="258.125"/><ellipse cx="1388.31" cy="274.125" fill="#7E57C2" rx="11" ry="11" style="stroke:#181818;stroke-width:1;"/><path d="M1385.4975,280.125 L1388.7163,280.125 C1391.7944,280.125 1393.9038,278.3438 1393.9038,274.5313 C1393.9038,270.7188 1391.7944,269.0469 1388.56,269.0469 L1385.4975,269.0469 L1385.4975,280.125 Z M1388.0131,278.1094 L1388.0131,271.0625 L1388.4194,271.0625 C1390.1538,271.0625 1391.3256,271.875 1391.3256,274.5313 C1391.3256,277.1875 1390.1538,278.1094 1388.4194,278.1094 L1388.0131,278.1094 Z " fill="#000000"/><text fill="#000000" font-family="sans-serif" font-size="14" lengthAdjust="spacing" textLength="98.376" x="1402.31" y="278.9102">badgeDefinition</text></g><!--class badgeAward--><g class="entity" data-entity="badgeAward" data-source-line="175" data-uid="ent0012" id="entity_badgeAward"><rect fill="#F1F1F1" height="32" rx="2.5" ry="2.5" style="stroke:#181818;stroke-width:0.5;" width="110.5654" x="1383.5" y="157.125"/><ellipse cx="1398.5" cy="173.125" fill="#7E57C2" rx="11" ry="11" style="stroke:#181818;stroke-width:1;"/><path d="M1395.6875,179.125 L1398.9063,179.125 C1401.9844,179.125 1404.0938,177.3438 1404.0938,173.5313 C1404.0938,169.7188 1401.9844,168.0469 1398.75,168.0469 L1395.6875,168.0469 L1395.6875,179.125 Z M1398.2031,177.1094 L1398.2031,170.0625 L1398.6094,170.0625 C1400.3438,170.0625 1401.5156,170.875 1401.5156,173.5313 C1401.5156,176.1875 1400.3438,177.1094 1398.6094,177.1094 L1398.2031,177.1094 Z " fill="#000000"/><text fill="#000000" font-family="sans-serif" font-size="14" lengthAdjust="spacing" textLength="78.5654" x="1412.5" y="177.9102">badgeAward</text></g><!--class badgeResponse--><g class="entity" data-entity="badgeResponse" data-source-line="184" data-uid="ent0013" id="entity_badgeResponse"><rect fill="#F1F1F1" height="32" rx="2.5" ry="2.5" style="stroke:#181818;stroke-width:0.5;" width="132.1602" x="1372.5" y="56.125"/><ellipse cx="1387.5" cy="72.125" fill="#7E57C2" rx="11" ry="11" style="stroke:#181818;stroke-width:1;"/><path d="M1384.6875,78.125 L1387.9063,78.125 C1390.9844,78.125 1393.0938,76.3438 1393.0938,72.5313 C1393.0938,68.7188 1390.9844,67.0469 1387.75,67.0469 L1384.6875,67.0469 L1384.6875,78.125 Z M1387.2031,76.1094 L1387.2031,69.0625 L1387.6094,69.0625 C1389.3438,69.0625 1390.5156,69.875 1390.5156,72.5313 C1390.5156,75.1875 1389.3438,76.1094 1387.6094,76.1094 L1387.2031,76.1094 Z " fill="#000000"/><text fill="#000000" font-family="sans-serif" font-size="14" lengthAdjust="spacing" textLength="100.1602" x="1401.5" y="76.9102">badgeResponse</text></g><!--class celExpression--><g class="entity" data-entity="celExpression" data-source-line="194" data-uid="ent0014" id="entity_celExpression"><rect fill="#F1F1F1" height="32" rx="2.5" ry="2.5" style="stroke:#181818;stroke-width:0.5;" width="118.6592" x="730.5" y="485.125"/><ellipse cx="745.5" cy="501.125" fill="#7E57C2" rx="11" ry="11" style="stroke:#181818;stroke-width:1;"/><path d="M742.6875,507.125 L745.9063,507.125 C748.9844,507.125 751.0938,505.3438 751.0938,501.5313 C751.0938,497.7188 748.9844,496.0469 745.75,496.0469 L742.6875,496.0469 L742.6875,507.125 Z M745.2031,505.1094 L745.2031,498.0625 L745.6094,498.0625 C747.3438,498.0625 748.5156,498.875 748.5156,501.5313 C748.5156,504.1875 747.3438,505.1094 745.6094,505.1094 L745.2031,505.1094 Z " fill="#000000"/><text fill="#000000" font-family="sans-serif" font-size="14" lengthAdjust="spacing" textLength="86.6592" x="759.5" y="505.9102">celExpression</text></g><!--class workScopeTag--><g class="entity" data-entity="workScopeTag" data-source-line="204" data-uid="ent0015" id="entity_workScopeTag"><rect fill="#F1F1F1" height="32" rx="2.5" ry="2.5" style="stroke:#181818;stroke-width:0.5;" width="125.085" x="727" y="598.125"/><ellipse cx="742" cy="614.125" fill="#7E57C2" rx="11" ry="11" style="stroke:#181818;stroke-width:1;"/><path d="M739.1875,620.125 L742.4063,620.125 C745.4844,620.125 747.5938,618.3438 747.5938,614.5313 C747.5938,610.7188 745.4844,609.0469 742.25,609.0469 L739.1875,609.0469 L739.1875,620.125 Z M741.7031,618.1094 L741.7031,611.0625 L742.1094,611.0625 C743.8438,611.0625 745.0156,611.875 745.0156,614.5313 C745.0156,617.1875 743.8438,618.1094 742.1094,618.1094 L741.7031,618.1094 Z " fill="#000000"/><text fill="#000000" font-family="sans-serif" font-size="14" lengthAdjust="spacing" textLength="93.085" x="756" y="618.9102">workScopeTag</text></g><!--class rights--><g class="entity" data-entity="rights" data-source-line="221" data-uid="ent0016" id="entity_rights"><rect fill="#F1F1F1" height="32" rx="2.5" ry="2.5" style="stroke:#181818;stroke-width:0.5;" width="67.5264" x="1018.74" y="485.125"/><ellipse cx="1033.74" cy="501.125" fill="#7E57C2" rx="11" ry="11" style="stroke:#181818;stroke-width:1;"/><path d="M1030.9275,507.125 L1034.1463,507.125 C1037.2244,507.125 1039.3338,505.3438 1039.3338,501.5313 C1039.3338,497.7188 1037.2244,496.0469 1033.99,496.0469 L1030.9275,496.0469 L1030.9275,507.125 Z M1033.4431,505.1094 L1033.4431,498.0625 L1033.8494,498.0625 C1035.5838,498.0625 1036.7556,498.875 1036.7556,501.5313 C1036.7556,504.1875 1035.5838,505.1094 1033.8494,505.1094 L1033.4431,505.1094 Z " fill="#000000"/><text fill="#000000" font-family="sans-serif" font-size="14" lengthAdjust="spacing" textLength="35.5264" x="1047.74" y="505.9102">rights</text></g><!--class collection--><g class="entity" data-entity="collection" data-source-line="232" data-uid="ent0017" id="entity_collection"><rect fill="#F1F1F1" height="32" rx="2.5" ry="2.5" style="stroke:#181818;stroke-width:0.5;" width="92.5732" x="550.5" y="258.125"/><ellipse cx="565.5" cy="274.125" fill="#7E57C2" rx="11" ry="11" style="stroke:#181818;stroke-width:1;"/><path d="M562.6875,280.125 L565.9063,280.125 C568.9844,280.125 571.0938,278.3438 571.0938,274.5313 C571.0938,270.7188 568.9844,269.0469 565.75,269.0469 L562.6875,269.0469 L562.6875,280.125 Z M565.2031,278.1094 L565.2031,271.0625 L565.6094,271.0625 C567.3438,271.0625 568.5156,271.875 568.5156,274.5313 C568.5156,277.1875 567.3438,278.1094 565.6094,278.1094 L565.2031,278.1094 Z " fill="#000000"/><text fill="#000000" font-family="sans-serif" font-size="14" lengthAdjust="spacing" textLength="60.5732" x="579.5" y="278.9102">collection</text></g><!--class acknowledgement--><g class="entity" data-entity="acknowledgement" data-source-line="245" data-uid="ent0018" id="entity_acknowledgement"><rect fill="#F1F1F1" height="32" rx="2.5" ry="2.5" style="stroke:#181818;stroke-width:0.5;" width="146.2969" x="444.5" y="157.125"/><ellipse cx="459.5" cy="173.125" fill="#7E57C2" rx="11" ry="11" style="stroke:#181818;stroke-width:1;"/><path d="M456.6875,179.125 L459.9063,179.125 C462.9844,179.125 465.0938,177.3438 465.0938,173.5313 C465.0938,169.7188 462.9844,168.0469 459.75,168.0469 L456.6875,168.0469 L456.6875,179.125 Z M459.2031,177.1094 L459.2031,170.0625 L459.6094,170.0625 C461.3438,170.0625 462.5156,170.875 462.5156,173.5313 C462.5156,176.1875 461.3438,177.1094 459.6094,177.1094 L459.2031,177.1094 Z " fill="#000000"/><text fill="#000000" font-family="sans-serif" font-size="14" lengthAdjust="spacing" textLength="114.2969" x="473.5" y="177.9102">acknowledgement</text></g><!--class funder--><g class="entity" data-entity="funder" data-source-line="259" data-uid="ent0019" id="entity_funder"><rect fill="#FFD4A3" height="32" rx="2.5" ry="2.5" style="stroke:#181818;stroke-width:0.5;" width="72.3799" x="873.31" y="258.125"/><ellipse cx="888.31" cy="274.125" fill="#ADD1B2" rx="11" ry="11" style="stroke:#181818;stroke-width:1;"/><path d="M884.3725,280.125 L891.8881,280.125 L891.8881,278.0156 L886.8881,278.0156 L886.8881,275.4688 L890.9819,275.4688 L890.9819,273.375 L886.8881,273.375 L886.8881,271.1563 L891.7163,271.1563 L891.7163,269.0469 L884.3725,269.0469 L884.3725,280.125 Z " fill="#000000"/><text fill="#000000" font-family="sans-serif" font-size="14" lengthAdjust="spacing" textLength="40.3799" x="902.31" y="278.9102">funder</text></g><!--class fundingReceipt--><g class="entity" data-entity="fundingReceipt" data-source-line="266" data-uid="ent0020" id="entity_fundingReceipt"><rect fill="#F1F1F1" height="32" rx="2.5" ry="2.5" style="stroke:#181818;stroke-width:0.5;" width="125.8574" x="953" y="157.125"/><ellipse cx="968" cy="173.125" fill="#7E57C2" rx="11" ry="11" style="stroke:#181818;stroke-width:1;"/><path d="M965.1875,179.125 L968.4063,179.125 C971.4844,179.125 973.5938,177.3438 973.5938,173.5313 C973.5938,169.7188 971.4844,168.0469 968.25,168.0469 L965.1875,168.0469 L965.1875,179.125 Z M967.7031,177.1094 L967.7031,170.0625 L968.1094,170.0625 C969.8438,170.0625 971.0156,170.875 971.0156,173.5313 C971.0156,176.1875 969.8438,177.1094 968.1094,177.1094 L967.7031,177.1094 Z " fill="#000000"/><text fill="#000000" font-family="sans-serif" font-size="14" lengthAdjust="spacing" textLength="93.8574" x="982" y="177.9102">fundingReceipt</text></g><!--class token--><g class="entity" data-entity="token" data-source-line="287" data-uid="ent0021" id="entity_token"><rect fill="#FFB6C1" height="33.4375" rx="2.5" ry="2.5" style="stroke:#181818;stroke-width:0.5;" width="82.7617" x="755.12" y="257.405"/><ellipse cx="770.12" cy="274.1238" fill="#F1F1F1" rx="11" ry="11" style="stroke:#181818;stroke-width:1;"/><path d="M766.9013,280.1238 L769.4013,280.1238 L769.4013,276.3738 L770.8231,276.3738 C773.1669,276.3738 775.1513,275.2175 775.1513,272.6081 C775.1513,269.9206 773.2138,269.0456 770.8231,269.0456 L766.9013,269.0456 L766.9013,280.1238 Z M769.4013,274.3738 L769.4013,271.03 L770.6669,271.03 C771.995,271.03 772.7138,271.4519 772.7138,272.6081 C772.7138,273.7644 772.0419,274.3738 770.6669,274.3738 L769.4013,274.3738 Z " fill="#000000"/><text fill="#000000" font-family="sans-serif" font-size="20" font-weight="bold" lengthAdjust="spacing" textLength="50.7617" x="784.12" y="280.9597">token</text></g><!--class hiddenLocation1--><g class="entity" data-entity="hiddenLocation1" data-source-line="320" data-uid="ent0025" id="entity_hiddenLocation1"><rect fill="none" height="26.4063" rx="2.5" ry="2.5" style="stroke:none;stroke-width:0.5;" width="9.4727" x="152.76" y="260.925"/><text fill="#000000" font-family="sans-serif" font-size="14" lengthAdjust="spacing" textLength="3.4727" x="155.76" y="278.9133">&#160;</text></g><!--link evaluation to attachment--><g class="link" data-entity-1="evaluation" data-entity-2="attachment" data-source-line="307" data-uid="lnk22" id="link_evaluation_attachment"><path codeLine="307" d="M160.5,192.975 C138.08,210.595 109.5171,233.037 87.1271,250.637" fill="none" id="evaluation-to-attachment" style="stroke:#666666;stroke-width:1;"/><polygon fill="#666666" points="82.41,254.345,91.9576,251.9278,86.3409,251.255,87.0137,245.6383,82.41,254.345" style="stroke:#666666;stroke-width:1;"/></g><!--link evaluation to measurement--><g class="link" data-entity-1="evaluation" data-entity-2="measurement" data-source-line="308" data-uid="lnk23" id="link_evaluation_measurement"><path codeLine="308" d="M199.55,192.745 C213.76,210.335 231.1987,231.9184 245.4787,249.5884" fill="none" id="evaluation-to-measurement" style="stroke:#666666;stroke-width:1;"/><polygon fill="#666666" points="249.25,254.255,246.7041,244.7409,246.1072,250.3662,240.482,249.7693,249.25,254.255" style="stroke:#666666;stroke-width:1;"/></g><!--link evaluation to activity--><g class="link" data-entity-1="evaluation" data-entity-2="activity" data-source-line="309" data-uid="lnk24" id="link_evaluation_activity"><path codeLine="309" d="M224.97,192.985 C311.06,233.105 506.2015,324.0407 593.3715,364.6607" fill="none" id="evaluation-to-activity" style="stroke:#666666;stroke-width:1;"/><polygon fill="#666666" points="598.81,367.195,592.3417,359.7679,594.2779,365.0831,588.9627,367.0193,598.81,367.195" style="stroke:#666666;stroke-width:1;"/></g><!--link evaluation to hiddenLocation1--><g class="link" data-entity-1="evaluation" data-entity-2="hiddenLocation1" data-source-line="322" data-uid="lnk26" id="link_evaluation_hiddenLocation1"><path codeLine="322" d="M179.42,192.745 C174.01,212.575 167.1764,237.6158 162.5064,254.7658" fill="none" id="evaluation-to-hiddenLocation1" style="stroke:#666666;stroke-width:1;"/><polygon fill="#666666" points="160.93,260.555,167.1541,252.9221,162.2437,255.7307,159.4352,250.8202,160.93,260.555" style="stroke:#666666;stroke-width:1;"/></g><!--link attachment to activity--><g class="link" data-entity-1="attachment" data-entity-2="activity" data-source-line="331" data-uid="lnk27" id="link_attachment_activity"><path codeLine="331" d="M117.74,289.885 C123.74,291.335 129.74,292.775 135.5,294.125 C221.06,314.205 242.17,320.675 328.5,337.125 C417.53,354.085 515.6809,368.9224 578.3009,377.9124" fill="none" id="attachment-to-activity" style="stroke:#666666;stroke-width:1;"/><polygon fill="#666666" points="584.24,378.765,575.8998,373.5266,579.2907,378.0545,574.7629,381.4454,584.24,378.765" style="stroke:#666666;stroke-width:1;"/></g><!--link attachment to location--><g class="link" data-entity-1="attachment" data-entity-2="location" data-source-line="332" data-uid="lnk28" id="link_attachment_location"><path codeLine="332" d="M59.25,293.705 C61.31,321.675 69,374.875 97.5,408.125 C137.86,455.215 201.8122,478.3185 246.3022,489.8585" fill="none" id="attachment-to-location" style="stroke:#666666;stroke-width:1;"/><polygon fill="#666666" points="252.11,491.365,244.4026,485.2335,247.2702,490.1096,242.394,492.9772,252.11,491.365" style="stroke:#666666;stroke-width:1;"/></g><!--link measurement to activity--><g class="link" data-entity-1="measurement" data-entity-2="activity" data-source-line="334" data-uid="lnk29" id="link_measurement_activity"><path codeLine="334" d="M288.45,294.025 C307.46,308.075 335.28,326.565 362.5,337.125 C435.97,365.635 520.804,377.3189 578.214,382.4689" fill="none" id="measurement-to-activity" style="stroke:#666666;stroke-width:1;"/><polygon fill="#666666" points="584.19,383.005,575.5834,378.2169,579.21,382.5583,574.8686,386.1849,584.19,383.005" style="stroke:#666666;stroke-width:1;"/></g><!--link measurement to location--><g class="link" data-entity-1="measurement" data-entity-2="location" data-source-line="344" data-uid="lnk30" id="link_measurement_location"><path codeLine="344" d="M266.92,293.925 C272.54,337.545 285.6236,439.0141 290.7636,478.9241" fill="none" id="measurement-to-location" style="stroke:#666666;stroke-width:1;"/><polygon fill="#666666" points="291.53,484.875,294.3476,475.4378,290.8913,479.916,286.4132,476.4597,291.53,484.875" style="stroke:#666666;stroke-width:1;"/></g><!--link collection to activity--><g class="link" data-entity-1="collection" data-entity-2="activity" data-source-line="347" data-uid="lnk31" id="link_collection_activity"><path codeLine="347" d="M603.96,294.035 C612.01,314.415 622.5384,341.1035 630.6484,361.6635" fill="none" id="collection-to-activity" style="stroke:#666666;stroke-width:1;"/><polygon fill="#666666" points="632.85,367.245,633.2685,357.405,631.0153,362.5938,625.8266,360.3406,632.85,367.245" style="stroke:#666666;stroke-width:1;"/></g><!--link collection to collection--><g class="link" data-entity-1="collection" data-entity-2="collection" data-source-line="348" data-uid="lnk32" id="link_collection_collection"><path codeLine="348" d="M650.38,264.665 C669.73,264.465 685.5,267.615 685.5,274.125 C685.5,280.635 675.7297,283.847 656.3797,283.647" fill="none" id="collection-to-collection" style="stroke:#666666;stroke-width:1;"/><polygon fill="#666666" points="650.38,283.585,659.3382,287.6778,655.3797,283.6367,659.4209,279.6782,650.38,283.585" style="stroke:#666666;stroke-width:1;"/><text fill="#666666" font-family="sans-serif" font-size="10" lengthAdjust="spacing" textLength="40.5664" x="691.5" y="271.9023">recursive</text><text fill="#666666" font-family="sans-serif" font-size="10" lengthAdjust="spacing" textLength="32.8271" x="695.3696" y="283.6211">nesting</text></g><!--link collection to location--><g class="link" data-entity-1="collection" data-entity-2="location" data-source-line="349" data-uid="lnk33" id="link_collection_location"><path codeLine="349" d="M570.93,294.115 C512,337.875 372.4473,441.5082 318.8173,481.3282" fill="none" id="collection-to-location" style="stroke:#666666;stroke-width:1;"/><polygon fill="#666666" points="314,484.905,323.6105,482.7513,318.0144,481.9243,318.8414,476.3282,314,484.905" style="stroke:#666666;stroke-width:1;"/></g><!--link acknowledgement to activity--><g class="link" data-entity-1="acknowledgement" data-entity-2="activity" data-source-line="351" data-uid="lnk34" id="link_acknowledgement_activity"><path codeLine="351" d="M502.42,192.825 C493.58,217.535 491.13,261.715 508,294.125 C524.8,326.395 553.0604,348.493 582.5904,364.303" fill="none" id="acknowledgement-to-activity" style="stroke:#666666;stroke-width:1;"/><polygon fill="#666666" points="587.88,367.135,581.8336,359.3606,583.472,364.775,578.0576,366.4134,587.88,367.135" style="stroke:#666666;stroke-width:1;"/></g><!--link acknowledgement to activity--><g class="link" data-entity-1="acknowledgement" data-entity-2="activity" data-source-line="354" data-uid="lnk37" id="link_acknowledgement_activity"><path codeLine="354" d="M526.24,192.825 C528.58,217.535 526.13,261.715 543,294.125 C559.8,326.395 588.3685,347.9807 611.9185,363.7907" fill="none" id="acknowledgement-to-activity-1" style="stroke:#666666;stroke-width:1;"/><polygon fill="#666666" points="616.9,367.135,611.6572,358.7975,612.7487,364.3481,607.1982,365.4396,616.9,367.135" style="stroke:#666666;stroke-width:1;"/></g><!--link acknowledgement to contributorInformation--><g class="link" data-entity-1="acknowledgement" data-entity-2="contributorInformation" data-source-line="352" data-uid="lnk35" id="link_acknowledgement_contributorInformation"><path codeLine="352" d="M598.34,186.115 C702.79,201.645 890.25,229.625 1050.5,254.125 C1059.51,255.505 1062.9504,256.0284 1072.3304,257.4784" fill="none" id="acknowledgement-to-contributorInformation" style="stroke:#666666;stroke-width:1;"/><polygon fill="#666666" points="1078.26,258.395,1069.9767,253.067,1073.3187,257.6312,1068.7546,260.9731,1078.26,258.395" style="stroke:#666666;stroke-width:1;"/></g><!--link acknowledgement to collection--><g class="link" data-entity-1="acknowledgement" data-entity-2="collection" data-source-line="353" data-uid="lnk36" id="link_acknowledgement_collection"><path codeLine="353" d="M532.36,192.745 C546.39,210.335 563.5977,231.8951 577.6977,249.5651" fill="none" id="acknowledgement-to-collection" style="stroke:#666666;stroke-width:1;"/><polygon fill="#666666" points="581.44,254.255,578.9531,244.7253,578.3214,250.3468,572.6999,249.7151,581.44,254.255" style="stroke:#666666;stroke-width:1;"/></g><!--link activity to celExpression--><g class="link" data-entity-1="activity" data-entity-2="celExpression" data-source-line="356" data-uid="lnk38" id="link_activity_celExpression"><path codeLine="356" d="M666.45,408.045 C693.97,428.635 732.326,457.3404 759.536,477.7004" fill="none" id="activity-to-celExpression" style="stroke:#666666;stroke-width:1;"/><polygon fill="#666666" points="764.34,481.295,759.5304,472.7004,760.3366,478.2995,754.7375,479.1057,764.34,481.295" style="stroke:#666666;stroke-width:1;"/></g><!--reverse link contributorInformation to activity--><g class="link" data-entity-1="contributorInformation" data-entity-2="activity" data-source-line="357" data-uid="lnk40" id="link_contributorInformation_activity"><path codeLine="357" d="M1134.7404,296.9924 C1108.9104,311.1724 1076.66,326.925 1041.5,337.125 C921.92,371.825 775.39,382.205 696.76,385.305" fill="none" id="contributorInformation-backto-activity" style="stroke:#666666;stroke-width:1;"/><polygon fill="#666666" points="1140,294.105,1130.1857,294.9297,1135.617,296.5111,1134.0356,301.9424,1140,294.105" style="stroke:#666666;stroke-width:1;"/></g><!--link activity to contribution--><g class="link" data-entity-1="activity" data-entity-2="contribution" data-source-line="358" data-uid="lnk41" id="link_activity_contribution"><path codeLine="358" d="M639.28,408.045 C637.91,429.885 636.0848,458.9067 634.8348,478.8767" fill="none" id="activity-to-contribution" style="stroke:#666666;stroke-width:1;"/><polygon fill="#666666" points="634.46,484.865,639.0144,476.1325,634.7724,479.8748,631.0301,475.6327,634.46,484.865" style="stroke:#666666;stroke-width:1;"/></g><!--link activity to rights--><g class="link" data-entity-1="activity" data-entity-2="rights" data-source-line="359" data-uid="lnk42" id="link_activity_rights"><path codeLine="359" d="M696.92,403.895 C783.75,427.395 941.7184,470.1476 1012.5884,489.3276" fill="none" id="activity-to-rights" style="stroke:#666666;stroke-width:1;"/><polygon fill="#666666" points="1018.38,490.895,1010.7375,484.6828,1013.5536,489.5888,1008.6476,492.405,1018.38,490.895" style="stroke:#666666;stroke-width:1;"/></g><!--link activity to location--><g class="link" data-entity-1="activity" data-entity-2="location" data-source-line="360" data-uid="lnk43" id="link_activity_location"><path codeLine="360" d="M620.11,408.025 C604.07,422.175 580.49,440.645 556.5,451.125 C482.66,483.385 394.085,494.0014 340.815,497.7714" fill="none" id="activity-to-location" style="stroke:#666666;stroke-width:1;"/><polygon fill="#666666" points="334.83,498.195,344.0899,501.5497,339.8175,497.842,343.5252,493.5696,334.83,498.195" style="stroke:#666666;stroke-width:1;"/></g><!--link celExpression to workScopeTag--><g class="link" data-entity-1="celExpression" data-entity-2="workScopeTag" data-source-line="362" data-uid="lnk44" id="link_celExpression_workScopeTag"><path codeLine="362" d="M789.5,520.955 C789.5,541.365 789.5,567.755 789.5,588.205" fill="none" id="celExpression-to-workScopeTag" style="stroke:#666666;stroke-width:1;"/><polygon fill="#666666" points="789.5,594.205,793.5,585.205,789.5,589.205,785.5,585.205,789.5,594.205" style="stroke:#666666;stroke-width:1;"/><text fill="#666666" font-family="sans-serif" font-size="10" lengthAdjust="spacing" textLength="43.6035" x="790.5" y="561.4023">strongRef</text></g><!--link workScopeTag to workScopeTag--><g class="link" data-entity-1="workScopeTag" data-entity-2="workScopeTag" data-source-line="364" data-uid="lnk45" id="link_workScopeTag_workScopeTag"><path codeLine="364" d="M859.5,608.845 C879.55,609.055 895,610.815 895,614.125 C895,617.435 885.5497,619.1322 865.4997,619.3422" fill="none" id="workScopeTag-to-workScopeTag" style="stroke:#666666;stroke-width:1;"/><polygon fill="#666666" points="859.5,619.405,868.5414,623.3105,864.4997,619.3526,868.4576,615.311,859.5,619.405" style="stroke:#666666;stroke-width:1;"/><text fill="#666666" font-family="sans-serif" font-size="10" lengthAdjust="spacing" textLength="40.9326" x="901" y="617.9023">hierarchy</text></g><!--link workScopeTag to workScopeTag--><g class="link" data-entity-1="workScopeTag" data-entity-2="workScopeTag" data-source-line="365" data-uid="lnk46" id="link_workScopeTag_workScopeTag"><path codeLine="365" d="M859.92,604.195 C903.77,601.985 947,605.295 947,614.125 C947,622.955 909.7624,626.567 865.9124,624.357" fill="none" id="workScopeTag-to-workScopeTag-1" style="stroke:#666666;stroke-width:1;"/><polygon fill="#666666" points="859.92,624.055,868.7073,628.5029,864.9137,624.3067,869.1099,620.5131,859.92,624.055" style="stroke:#666666;stroke-width:1;"/><text fill="#666666" font-family="sans-serif" font-size="10" lengthAdjust="spacing" textLength="52.8516" x="953" y="617.9023">deprecation</text></g><!--link contributorInformation to contributorEntity--><g class="link" data-entity-1="contributorInformation" data-entity-2="contributorEntity" data-source-line="367" data-uid="lnk47" id="link_contributorInformation_contributorEntity"><path codeLine="367" d="M1172.5,294.035 C1172.5,315.785 1172.5,345.065 1172.5,365.215" fill="none" id="contributorInformation-to-contributorEntity" style="stroke:#666666;stroke-width:1;"/><polygon fill="#666666" points="1172.5,371.215,1176.5,362.215,1172.5,366.215,1168.5,362.215,1172.5,371.215" style="stroke:#666666;stroke-width:1;"/><text fill="#666666" font-family="sans-serif" font-size="10" lengthAdjust="spacing" textLength="40.9717" x="1173.5" y="334.4023">identifies</text></g><!--link organization to location--><g class="link" data-entity-1="organization" data-entity-2="location" data-source-line="369" data-uid="lnk48" id="link_organization_location"><path codeLine="369" d="M197.18,407.535 C219.8,429.285 252.1846,460.4068 273.1446,480.5568" fill="none" id="organization-to-location" style="stroke:#666666;stroke-width:1;"/><polygon fill="#666666" points="277.47,484.715,273.7541,475.594,273.8655,481.2498,268.2097,481.3612,277.47,484.715" style="stroke:#666666;stroke-width:1;"/></g><!--link token to activity--><g class="link" data-entity-1="token" data-entity-2="activity" data-source-line="373" data-uid="lnk49" id="link_token_activity"><path codeLine="373" d="M773.82,291.335 C745.68,311.455 702.6313,342.216 672.5513,363.716" fill="none" id="token-to-activity" style="stroke:#666666;stroke-width:1;stroke-dasharray:7,7;"/><polygon fill="#666666" points="667.67,367.205,677.3179,365.2258,671.7378,364.2975,672.666,358.7174,667.67,367.205" style="stroke:#666666;stroke-width:1;"/><text fill="#666666" font-family="sans-serif" font-size="10" lengthAdjust="spacing" textLength="42.7246" x="728.84" y="334.4023">tokenizes</text></g><!--link funder to activity--><g class="link" data-entity-1="funder" data-entity-2="activity" data-source-line="374" data-uid="lnk50" id="link_funder_activity"><path codeLine="374" d="M879.43,290.555 C853.33,303.675 814.37,322.645 779.5,337.125 C752.65,348.275 727.952,357.3083 702.472,366.0983" fill="none" id="funder-to-activity" style="stroke:#666666;stroke-width:1;stroke-dasharray:7,7;"/><polygon fill="#666666" points="696.8,368.055,706.6124,368.9013,701.5266,366.4244,704.0035,361.3386,696.8,368.055" style="stroke:#666666;stroke-width:1;"/><text fill="#666666" font-family="sans-serif" font-size="10" lengthAdjust="spacing" textLength="25.3125" x="809.44" y="334.4023">funds</text></g><!--link contributorEntity to rights--><g class="link" data-entity-1="contributorEntity" data-entity-2="rights" data-source-line="375" data-uid="lnk51" id="link_contributorEntity_rights"><path codeLine="375" d="M1156.32,403.665 C1133.41,424.945 1096.1757,459.5412 1073.2057,480.8812" fill="none" id="contributorEntity-to-rights" style="stroke:#666666;stroke-width:1;stroke-dasharray:7,7;"/><polygon fill="#666666" points="1068.81,484.965,1078.1261,481.7698,1072.4731,481.5618,1072.6811,475.9088,1068.81,484.965" style="stroke:#666666;stroke-width:1;"/><text fill="#666666" font-family="sans-serif" font-size="10" lengthAdjust="spacing" textLength="16.1084" x="1117.1" y="448.4023">has</text></g><!--link fundingReceipt to funder--><g class="link" data-entity-1="fundingReceipt" data-entity-2="funder" data-source-line="381" data-uid="lnk52" id="link_fundingReceipt_funder"><path codeLine="381" d="M995.56,192.745 C975.41,211.565 949.025,236.2097 930.255,253.7397" fill="none" id="fundingReceipt-to-funder" style="stroke:#666666;stroke-width:1;"/><polygon fill="#666666" points="925.87,257.835,935.1777,254.6154,929.5242,254.4222,929.7173,248.7687,925.87,257.835" style="stroke:#666666;stroke-width:1;"/></g><!--link fundingReceipt to contributorEntity--><g class="link" data-entity-1="fundingReceipt" data-entity-2="contributorEntity" data-source-line="382" data-uid="lnk53" id="link_fundingReceipt_contributorEntity"><path codeLine="382" d="M1085.83,185.345 C1157.25,198.345 1260.65,222.145 1284.5,254.125 C1317.46,298.305 1251.3006,344.1134 1207.9106,368.3034" fill="none" id="fundingReceipt-to-contributorEntity" style="stroke:#666666;stroke-width:1;"/><polygon fill="#666666" points="1202.67,371.225,1212.4787,370.3363,1207.0372,368.7903,1208.5831,363.3488,1202.67,371.225" style="stroke:#666666;stroke-width:1;"/></g><!--link fundingReceipt to activity--><g class="link" data-entity-1="fundingReceipt" data-entity-2="activity" data-source-line="384" data-uid="lnk54" id="link_fundingReceipt_activity"><path codeLine="384" d="M1012.17,193.055 C1006.61,219.265 992.99,266.485 963.5,294.125 C889.76,363.235 773.8887,380.7968 702.8087,385.1668" fill="none" id="fundingReceipt-to-activity" style="stroke:#666666;stroke-width:1;"/><polygon fill="#666666" points="696.82,385.535,706.0485,388.9752,701.8106,385.2282,705.5576,380.9903,696.82,385.535" style="stroke:#666666;stroke-width:1;"/><text fill="#666666" font-family="sans-serif" font-size="10" lengthAdjust="spacing" textLength="25.3125" x="992.74" y="277.9023">funds</text></g><!--link badgeAward to badgeDefinition--><g class="link" data-entity-1="badgeAward" data-entity-2="badgeDefinition" data-source-line="386" data-uid="lnk55" id="link_badgeAward_badgeDefinition"><path codeLine="386" d="M1438.5,192.745 C1438.5,211.565 1438.5,234.305 1438.5,251.835" fill="none" id="badgeAward-to-badgeDefinition" style="stroke:#666666;stroke-width:1;"/><polygon fill="#666666" points="1438.5,257.835,1442.5,248.835,1438.5,252.835,1434.5,248.835,1438.5,257.835" style="stroke:#666666;stroke-width:1;"/></g><!--link badgeResponse to badgeAward--><g class="link" data-entity-1="badgeResponse" data-entity-2="badgeAward" data-source-line="387" data-uid="lnk56" id="link_badgeResponse_badgeAward"><path codeLine="387" d="M1438.5,91.745 C1438.5,109.335 1438.5,129.585 1438.5,147.255" fill="none" id="badgeResponse-to-badgeAward" style="stroke:#666666;stroke-width:1;"/><polygon fill="#666666" points="1438.5,153.255,1442.5,144.255,1438.5,148.255,1434.5,144.255,1438.5,153.255" style="stroke:#666666;stroke-width:1;"/></g><!--link badgeAward to contributorInformation--><g class="link" data-entity-1="badgeAward" data-entity-2="contributorInformation" data-source-line="388" data-uid="lnk57" id="link_badgeAward_contributorInformation"><path codeLine="388" d="M1387.53,193.095 C1340.31,210.665 1276.0832,234.5724 1228.9232,252.1224" fill="none" id="badgeAward-to-contributorInformation" style="stroke:#666666;stroke-width:1;"/><polygon fill="#666666" points="1223.3,254.215,1233.13,254.8249,1227.986,252.4711,1230.3398,247.3272,1223.3,254.215" style="stroke:#666666;stroke-width:1;"/></g><!--link badgeAward to activity--><g class="link" data-entity-1="badgeAward" data-entity-2="activity" data-source-line="389" data-uid="lnk58" id="link_badgeAward_activity"><path codeLine="389" d="M1467.48,192.925 C1501.65,217.345 1550.36,260.815 1521.5,294.125 C1494.34,325.475 893.1958,369.2722 702.9558,382.3922" fill="none" id="badgeAward-to-activity" style="stroke:#666666;stroke-width:1;"/><polygon fill="#666666" points="696.97,382.805,706.2239,386.1763,701.9582,382.461,705.6735,378.1953,696.97,382.805" style="stroke:#666666;stroke-width:1;"/></g><!--SRC=[lLbRRziu5dxNhs0y3qwmQxVDTkP1oAH8ucGR84W6JdRceLiC6EdOvaGIDQGKHrtql-yv92LHyYLsTh16qKY7jtFvpeqQibkP0PCpLYn00zDbdajLCAwKN6ecbPYBZ1SYcxEPaYaJMIoUHLpoXCq49B4EXWUvulEKiuHNiYoOJg7W6L-XG_AqGdiMt_xGGL288W4s-5pbe2B0qo-daq4G3Dc5p6PYNYfaG6RicIl17nFGmO6OPJ7CsFtdkzz-lxg-l9dS1mT842YAHsCpdcW83W2PdWMqYXtwmp__p0Pcok0eM8WO6AHvKTM2kMNU04gsa3XYIBe01R90db62-l3fvQ_Nbx_zVd5tSpTbFrnTNPrTJ9h1i-dqhXdxoVo2u4GNLGAdGIoZCeMiOFy96FwiIkmp_QvaLjoBRy2EFtPfj9ezoYGsvE_1zo1AkDOJmUUAfsu7Oqrljnjavq8cKlayTVRTFceu-V3U7Kd_ZnEkvd2EV7Z7B837e3n2LvBtg_IkDEts9DV9EwSg10RFyp4XHQ2juZ6F2gd6Kirv9huPh0GnBxXH1FF9ZfMrG2XKIJYWSN_90nhuozTFXbwgHDVFYOpCk7sRoH816Kzu0POGAS3d-Aom1reeVNUOBfHuB95bZOO1fY1Nw7ePJcUF5PjSJuXfjYXJdermcvWmZt1Jw8JeRkIe2cOILyQIPRB03Vui1RwcCeOa8LTz5foXay6BY6Gs3d1lWV0THEtHx13FUPShEHC970qOrymRlRGB4C2JZsV_s55hk27nhMKaC3guhTc_fjShAa3zZXUri-insacaP4ICB7Zg22KKck4_b9IbN6GeOIHLZ2iRNP6Kd3MRZ3s3DnkTd3IWF3rbFvn_lFnnydv7OOp_cIUzm7Wu0HqfaHje4J5ktwszHShdplHBgPxk8vcxLrrmNDy00zNWeSJ3GXzO3G53yABGhy6ghrFS6LwACIzGBGiABBw66kAEsj3bunyG5GrBPlUi8D_e4BvyVKLvdzPhh-jCUmkP0jUbWfwK7lMDOheTb4T0SqKs5cJ2ylVCan9UjRHD7Qt2x3iwXvkBEHMo292m4GUHJ4cMD-e8YCz-R6o9-sd88RjCKwug9u3PoU2uYuYEAac0HY2DJWt_a_rDuF2Sw3h3k9ZsfLm_OKU9oIucpIY7NQ5ph5vkUGehdlzMnZUmkpkJIYRzY8ABL_nkQoZQo7itrzQcyXYkIJioc-I_ealLaLGhtO40kKY7O5woHjqhiMDBfgsPPeyydeDcXyGpiqp_ZV4bLp7-nOIIevl1aIUIMJ2Xiati8PbPrGZGHa7AmkkPvqaYbn1VQrrwOMQJI3t-pem0Ux3ckx1LgtpD_BqZfqvN-vngsBGmTQjjcWJAQtiw3kLMJRaL4PduFWF9vGkL1dftQq6pm0Pq3V43dzVnwzd3w1lOA_ZSOwyf2V207RbxWgf1lcK2MPXBLMrmWnnBoJeve9yNfQw3D7A7ea5yNjMO4rn36uNnWBEss80PLfUOYIQk7tbJPBCbYwS0IzWrcfd9jxNWzhLnA_lQByZQacRl_9Waw0xz45mJToqNcyI-J-t33c-0pnAW4dxcqaq1wOOUO__QBthAv381zC5-0TWTsI_vj-dznIdRsoxUerGfv1oecS7ZKOWhwg3-totHp1pwjaQ7FFDThg6CPLQbhnc5Ja8-njZA09hVCuORcTg1NG4dRT-fPEeQK5UVy1HRKMUZKf4hLou-L6IIAHV99vzm2mL59mTUnJFD3V2luqzDYd2XH4PcHxJaAuRzpePKNB3QmAIEsxk7ox3fxF2jjSRV6TOhJ6IwGCkIAv3l8H0o9hDeWVqVMLW-GTF5onaDDdsUxGx7ZDrBz1-40APw0a46G3rZSmwBcuG-3h0_BIJwkTsvtojUNPt_TF5XHriSocna-4H-a-fe1GdkiciXiFODXbxDFHh5NnOYnWhpw-ZK2s5R9lcjpj3lSBfRETK4Gw_L6wbD-xIjjp_5AAQxm_epl6YvYOlcWD8Rz-hoJLEQ8j0RzuzmYMROgPaxKdGEwRdQQCEye5L_6BgeXtRecCYVuZStPfwltOrxrTf1X5odkSHAX89Q8HawZNKKSpERiQN0Nf5kLj7XbXJBojnSZLXS-M09mwOM7us-P1BT-QcZHZnBoyRLKlu4w1unp-OcHjfhmbAxonMZ6rik1_f9P5XYyDILpzOppZ7opnNTVPdxmfEJVowaBj217YYGs9B4JaG71VNA97lhj6MIkzja0sOkh2o3Dqws3wnPP2ze-yEHK16cvWtQEktF3xQv_P2T9QX8oCZCnXY-jYZ2QPd2aj8I6o0PTLJ0W8pRcABFtcYTvnm0NM2xq_ugb90BrTZmmL7VaxSeRn2hkv3rPtHqs0BDSu5Dkw1SzqPB7BaMgS08d5IKoJfNDrqMjzXa2pQEjsFZkCP6X-dc0cODEex_UWGSTn3W6OKGi5aXpcPj30v3KqDsLRr-s0lS8HjW6Ysnvtc6VsSPQBfX7NJMRJ1qhvRS4EIspjfmWxEonXMTFTwtpslHLZ-5OTEEsPtytj6RvL_Eib6obT7rQ_mLtNck7ngrAQmTw-AkLNI7pp2i-rKpgzDWeYsnD9QKvsQ38F37mj26qhMB5W8KLz6Y6lJM-3tasfKnrUkMpm5XSPsM47ZDLLhVwkvxGzZUjkaWyB_2R4JVa3sOxvOO16thG8MVxR4URVF0iwfRQD8iZdv6zQdj7LZilfPHx47_LOGNMnUEnos4a3zNXY9xhdFeZHDL1wkIqJHdyv0jk6uPn-hRSEIQ6RPSY6Y1mJn9sbxSy1XHNGyAxLTKGsfwN1lIQugeAs67mdpFhOPE8QYsiuTVgE8z6kFApt89pyZyaewbax19GdKfhEOn09Vq6LWc8gu_0Z-YQOb8EnAlk0Eyv8c8iDMjF6LJ1i8Yc9Zj5LfDszMbXw7vfamMjUfS6STmkHOgmUfEKdNylJ56q5v2XQ5vDlDwDtn1vthBJRGNRCriUv7bRxT34DiqlIsE4GYKBIXjwtxINh_Qg-oyCFXV]--></g></svg>