<?plantuml 1.2026.1?><svg xmlns="http://www.w3.org/2000/svg" xmlns:xlink="http://www.w3.org/1999/xlink" contentStyleType="text/css" data-diagram-type="CLASS" height="431px" preserveAspectRatio="none" style="width:1232px;height:431px;background:#FFFFFF;" version="1.1" viewBox="0 0 1232 431" width="1232px" zoomAndPan="magnify"><title>Hypercert ERD</title><defs/><g><g class="title" data-source-line="7"><text fill="#000000" font-family="sans-serif" font-size="24" font-weight="bold" lengthAdjust="spacing" textLength="178.9805" x="519.7802" y="33.2031">Hypercert ERD</text></g><!--class contributor--><g class="entity" data-qualified-name="contributor" data-source-line="47" id="ent0002"><rect fill="#FFD4A3" height="32" rx="2.5" ry="2.5" style="stroke:#181818;stroke-width:0.5;" width="108.5352" x="901.94" y="282.7656"/><ellipse cx="916.94" cy="298.7656" fill="#ADD1B2" rx="11" ry="11" style="stroke:#181818;stroke-width:1;"/><path d="M920.5543,305.2656 L912.8345,305.2656 L912.8345,292.8726 L920.5543,292.8726 L920.5543,295.0308 L915.2833,295.0308 L915.2833,297.7036 L920.0562,297.7036 L920.0562,299.8618 L915.2833,299.8618 L915.2833,303.1074 L920.5543,303.1074 Z " fill="#000000"/><text fill="#000000" font-family="sans-serif" font-size="14" lengthAdjust="spacing" textLength="76.5352" x="930.94" y="304.0566">contributor</text></g><!--class activity--><g class="entity" data-qualified-name="activity" data-source-line="55" id="ent0003"><rect fill="#B4E5D0" height="33.5547" rx="2.5" ry="2.5" style="stroke:#181818;stroke-width:0.5;" width="107.1465" x="449.71" y="282.2656"/><ellipse cx="464.71" cy="299.043" fill="#7E57C2" rx="11" ry="11" style="stroke:#181818;stroke-width:1;"/><path d="M463.7959,295.3579 L463.7959,303.335 L464.46,303.335 Q465.9043,303.335 466.5186,302.426 Q467.1329,301.5171 467.1329,299.334 Q467.1329,297.1675 466.5186,296.2627 Q465.9043,295.3579 464.46,295.3579 Z M461.3472,293.1499 L463.9703,293.1499 Q467.0083,293.1499 468.3448,294.5984 Q469.6812,296.0469 469.6812,299.334 Q469.6812,302.6294 468.3448,304.0862 Q467.0083,305.543 463.9703,305.543 L461.3472,305.543 Z " fill="#000000"/><text fill="#000000" font-family="sans-serif" font-size="20" font-weight="bold" lengthAdjust="spacing" textLength="75.1465" x="478.71" y="306.6016">activity</text></g><!--class evidence--><g class="entity" data-qualified-name="evidence" data-source-line="72" id="ent0004"><rect fill="#F1F1F1" height="32" rx="2.5" ry="2.5" style="stroke:#181818;stroke-width:0.5;" width="91.3633" x="285.71" y="157.2656"/><ellipse cx="300.71" cy="173.2656" fill="#7E57C2" rx="11" ry="11" style="stroke:#181818;stroke-width:1;"/><path d="M299.7959,169.5806 L299.7959,177.5576 L300.46,177.5576 Q301.9043,177.5576 302.5186,176.6487 Q303.1329,175.7397 303.1329,173.5566 Q303.1329,171.3901 302.5186,170.4854 Q301.9043,169.5806 300.46,169.5806 Z M297.3472,167.3726 L299.9703,167.3726 Q303.0083,167.3726 304.3448,168.821 Q305.6812,170.2695 305.6812,173.5566 Q305.6812,176.8521 304.3448,178.3088 Q303.0083,179.7656 299.9703,179.7656 L297.3472,179.7656 Z " fill="#000000"/><text fill="#000000" font-family="sans-serif" font-size="14" lengthAdjust="spacing" textLength="59.3633" x="314.71" y="178.5566">evidence</text></g><!--class measurement--><g class="entity" data-qualified-name="measurement" data-source-line="85" id="ent0005"><rect fill="#F1F1F1" height="32" rx="2.5" ry="2.5" style="stroke:#181818;stroke-width:0.5;" width="124.75" x="65.21" y="157.2656"/><ellipse cx="80.21" cy="173.2656" fill="#7E57C2" rx="11" ry="11" style="stroke:#181818;stroke-width:1;"/><path d="M79.2959,169.5806 L79.2959,177.5576 L79.96,177.5576 Q81.4043,177.5576 82.0186,176.6487 Q82.6329,175.7397 82.6329,173.5566 Q82.6329,171.3901 82.0186,170.4854 Q81.4043,169.5806 79.96,169.5806 Z M76.8472,167.3726 L79.4703,167.3726 Q82.5083,167.3726 83.8448,168.821 Q85.1812,170.2695 85.1812,173.5566 Q85.1812,176.8521 83.8448,178.3088 Q82.5083,179.7656 79.4703,179.7656 L76.8472,179.7656 Z " fill="#000000"/><text fill="#000000" font-family="sans-serif" font-size="14" lengthAdjust="spacing" textLength="92.75" x="94.21" y="178.5566">measurement</text></g><!--class evaluation--><g class="entity" data-qualified-name="evaluation" data-source-line="100" id="ent0006"><rect fill="#F1F1F1" height="32" rx="2.5" ry="2.5" style="stroke:#181818;stroke-width:0.5;" width="101.8154" x="131.71" y="56.2656"/><ellipse cx="146.71" cy="72.2656" fill="#7E57C2" rx="11" ry="11" style="stroke:#181818;stroke-width:1;"/><path d="M145.7959,68.5806 L145.7959,76.5576 L146.46,76.5576 Q147.9043,76.5576 148.5186,75.6487 Q149.1329,74.7397 149.1329,72.5566 Q149.1329,70.3901 148.5186,69.4854 Q147.9043,68.5806 146.46,68.5806 Z M143.3472,66.3726 L145.9703,66.3726 Q149.0083,66.3726 150.3448,67.821 Q151.6812,69.2695 151.6812,72.5566 Q151.6812,75.8521 150.3448,77.3088 Q149.0083,78.7656 145.9703,78.7656 L143.3472,78.7656 Z " fill="#000000"/><text fill="#000000" font-family="sans-serif" font-size="14" lengthAdjust="spacing" textLength="69.8154" x="160.71" y="77.5566">evaluation</text></g><!--class contribution--><g class="entity" data-qualified-name="contribution" data-source-line="114" id="ent0007"><rect fill="#F1F1F1" height="32" rx="2.5" ry="2.5" style="stroke:#181818;stroke-width:0.5;" width="115.542" x="859.71" y="157.2656"/><ellipse cx="874.71" cy="173.2656" fill="#7E57C2" rx="11" ry="11" style="stroke:#181818;stroke-width:1;"/><path d="M873.7959,169.5806 L873.7959,177.5576 L874.46,177.5576 Q875.9043,177.5576 876.5186,176.6487 Q877.1329,175.7397 877.1329,173.5566 Q877.1329,171.3901 876.5186,170.4854 Q875.9043,169.5806 874.46,169.5806 Z M871.3472,167.3726 L873.9703,167.3726 Q877.0083,167.3726 878.3448,168.821 Q879.6812,170.2695 879.6812,173.5566 Q879.6812,176.8521 878.3448,178.3088 Q877.0083,179.7656 873.9703,179.7656 L871.3472,179.7656 Z " fill="#000000"/><text fill="#000000" font-family="sans-serif" font-size="14" lengthAdjust="spacing" textLength="83.542" x="888.71" y="178.5566">contribution</text></g><!--class location--><g class="entity" data-qualified-name="location" data-source-line="126" id="ent0008"><rect fill="#F1F1F1" height="32" rx="2.5" ry="2.5" style="stroke:#181818;stroke-width:0.5;" width="86.1201" x="264.15" y="392.2656"/><ellipse cx="279.15" cy="408.2656" fill="#7E57C2" rx="11" ry="11" style="stroke:#181818;stroke-width:1;"/><path d="M278.2359,404.5806 L278.2359,412.5576 L278.9,412.5576 Q280.3443,412.5576 280.9586,411.6487 Q281.5729,410.7397 281.5729,408.5566 Q281.5729,406.3901 280.9586,405.4854 Q280.3443,404.5806 278.9,404.5806 Z M275.7872,402.3726 L278.4103,402.3726 Q281.4483,402.3726 282.7848,403.821 Q284.1212,405.2695 284.1212,408.5566 Q284.1212,411.8521 282.7848,413.3088 Q281.4483,414.7656 278.4103,414.7656 L275.7872,414.7656 Z " fill="#000000"/><text fill="#000000" font-family="sans-serif" font-size="14" lengthAdjust="spacing" textLength="54.1201" x="293.15" y="413.5566">location</text></g><!--class badgeDefinition--><g class="entity" data-qualified-name="badgeDefinition" data-source-line="139" id="ent0009"><rect fill="#F1F1F1" height="32" rx="2.5" ry="2.5" style="stroke:#181818;stroke-width:0.5;" width="140.6709" x="1084.87" y="282.7656"/><ellipse cx="1099.87" cy="298.7656" fill="#7E57C2" rx="11" ry="11" style="stroke:#181818;stroke-width:1;"/><path d="M1098.9559,295.0806 L1098.9559,303.0576 L1099.62,303.0576 Q1101.0643,303.0576 1101.6786,302.1487 Q1102.2929,301.2397 1102.2929,299.0566 Q1102.2929,296.8901 1101.6786,295.9854 Q1101.0643,295.0806 1099.62,295.0806 Z M1096.5072,292.8726 L1099.1303,292.8726 Q1102.1683,292.8726 1103.5048,294.321 Q1104.8412,295.7695 1104.8412,299.0566 Q1104.8412,302.3521 1103.5048,303.8088 Q1102.1683,305.2656 1099.1303,305.2656 L1096.5072,305.2656 Z " fill="#000000"/><text fill="#000000" font-family="sans-serif" font-size="14" lengthAdjust="spacing" textLength="108.6709" x="1113.87" y="304.0566">badgeDefinition</text></g><!--class badgeAward--><g class="entity" data-qualified-name="badgeAward" data-source-line="150" id="ent0010"><rect fill="#F1F1F1" height="32" rx="2.5" ry="2.5" style="stroke:#181818;stroke-width:0.5;" width="116.6016" x="1097.21" y="157.2656"/><ellipse cx="1112.21" cy="173.2656" fill="#7E57C2" rx="11" ry="11" style="stroke:#181818;stroke-width:1;"/><path d="M1111.2959,169.5806 L1111.2959,177.5576 L1111.96,177.5576 Q1113.4043,177.5576 1114.0186,176.6487 Q1114.6329,175.7397 1114.6329,173.5566 Q1114.6329,171.3901 1114.0186,170.4854 Q1113.4043,169.5806 1111.96,169.5806 Z M1108.8472,167.3726 L1111.4703,167.3726 Q1114.5083,167.3726 1115.8448,168.821 Q1117.1812,170.2695 1117.1812,173.5566 Q1117.1812,176.8521 1115.8448,178.3088 Q1114.5083,179.7656 1111.4703,179.7656 L1108.8472,179.7656 Z " fill="#000000"/><text fill="#000000" font-family="sans-serif" font-size="14" lengthAdjust="spacing" textLength="84.6016" x="1126.21" y="178.5566">badgeAward</text></g><!--class badgeResponse--><g class="entity" data-qualified-name="badgeResponse" data-source-line="159" id="ent0011"><rect fill="#F1F1F1" height="32" rx="2.5" ry="2.5" style="stroke:#181818;stroke-width:0.5;" width="138.709" x="1086.21" y="56.2656"/><ellipse cx="1101.21" cy="72.2656" fill="#7E57C2" rx="11" ry="11" style="stroke:#181818;stroke-width:1;"/><path d="M1100.2959,68.5806 L1100.2959,76.5576 L1100.96,76.5576 Q1102.4043,76.5576 1103.0186,75.6487 Q1103.6329,74.7397 1103.6329,72.5566 Q1103.6329,70.3901 1103.0186,69.4854 Q1102.4043,68.5806 1100.96,68.5806 Z M1097.8472,66.3726 L1100.4703,66.3726 Q1103.5083,66.3726 1104.8448,67.821 Q1106.1812,69.2695 1106.1812,72.5566 Q1106.1812,75.8521 1104.8448,77.3088 Q1103.5083,78.7656 1100.4703,78.7656 L1097.8472,78.7656 Z " fill="#000000"/><text fill="#000000" font-family="sans-serif" font-size="14" lengthAdjust="spacing" textLength="106.709" x="1115.21" y="77.5566">badgeResponse</text></g><!--class rights--><g class="entity" data-qualified-name="rights" data-source-line="169" id="ent0012"><rect fill="#F1F1F1" height="32" rx="2.5" ry="2.5" style="stroke:#181818;stroke-width:0.5;" width="71.5664" x="575.43" y="392.2656"/><ellipse cx="590.43" cy="408.2656" fill="#7E57C2" rx="11" ry="11" style="stroke:#181818;stroke-width:1;"/><path d="M589.5159,404.5806 L589.5159,412.5576 L590.18,412.5576 Q591.6243,412.5576 592.2386,411.6487 Q592.8529,410.7397 592.8529,408.5566 Q592.8529,406.3901 592.2386,405.4854 Q591.6243,404.5806 590.18,404.5806 Z M587.0672,402.3726 L589.6903,402.3726 Q592.7283,402.3726 594.0648,403.821 Q595.4012,405.2695 595.4012,408.5566 Q595.4012,411.8521 594.0648,413.3088 Q592.7283,414.7656 589.6903,414.7656 L587.0672,414.7656 Z " fill="#000000"/><text fill="#000000" font-family="sans-serif" font-size="14" lengthAdjust="spacing" textLength="39.5664" x="604.43" y="413.5566">rights</text></g><!--class collection--><g class="entity" data-qualified-name="collection" data-source-line="182" id="ent0013"><rect fill="#F1F1F1" height="32" rx="2.5" ry="2.5" style="stroke:#181818;stroke-width:0.5;" width="97.4063" x="638.71" y="157.2656"/><ellipse cx="653.71" cy="173.2656" fill="#7E57C2" rx="11" ry="11" style="stroke:#181818;stroke-width:1;"/><path d="M652.7959,169.5806 L652.7959,177.5576 L653.46,177.5576 Q654.9043,177.5576 655.5186,176.6487 Q656.1329,175.7397 656.1329,173.5566 Q656.1329,171.3901 655.5186,170.4854 Q654.9043,169.5806 653.46,169.5806 Z M650.3472,167.3726 L652.9703,167.3726 Q656.0083,167.3726 657.3448,168.821 Q658.6812,170.2695 658.6812,173.5566 Q658.6812,176.8521 657.3448,178.3088 Q656.0083,179.7656 652.9703,179.7656 L650.3472,179.7656 Z " fill="#000000"/><text fill="#000000" font-family="sans-serif" font-size="14" lengthAdjust="spacing" textLength="65.4063" x="667.71" y="178.5566">collection</text></g><!--class collectionProject--><g class="entity" data-qualified-name="collectionProject" data-source-line="194" id="ent0014"><rect fill="#F1F1F1" height="32" rx="2.5" ry="2.5" style="stroke:#181818;stroke-width:0.5;" width="143.9385" x="615.24" y="282.7656"/><ellipse cx="630.24" cy="298.7656" fill="#7E57C2" rx="11" ry="11" style="stroke:#181818;stroke-width:1;"/><path d="M629.3259,295.0806 L629.3259,303.0576 L629.99,303.0576 Q631.4343,303.0576 632.0486,302.1487 Q632.6629,301.2397 632.6629,299.0566 Q632.6629,296.8901 632.0486,295.9854 Q631.4343,295.0806 629.99,295.0806 Z M626.8772,292.8726 L629.5003,292.8726 Q632.5383,292.8726 633.8748,294.321 Q635.2112,295.7695 635.2112,299.0566 Q635.2112,302.3521 633.8748,303.8088 Q632.5383,305.2656 629.5003,305.2656 L626.8772,305.2656 Z " fill="#000000"/><text fill="#000000" font-family="sans-serif" font-size="14" lengthAdjust="spacing" textLength="111.9385" x="644.24" y="304.0566">collectionProject</text></g><!--class funder--><g class="entity" data-qualified-name="funder" data-source-line="209" id="ent0015"><rect fill="#FFD4A3" height="32" rx="2.5" ry="2.5" style="stroke:#181818;stroke-width:0.5;" width="76.8643" x="419.78" y="157.2656"/><ellipse cx="434.78" cy="173.2656" fill="#ADD1B2" rx="11" ry="11" style="stroke:#181818;stroke-width:1;"/><path d="M438.3943,179.7656 L430.6745,179.7656 L430.6745,167.3726 L438.3943,167.3726 L438.3943,169.5308 L433.1233,169.5308 L433.1233,172.2036 L437.8962,172.2036 L437.8962,174.3618 L433.1233,174.3618 L433.1233,177.6074 L438.3943,177.6074 Z " fill="#000000"/><text fill="#000000" font-family="sans-serif" font-size="14" lengthAdjust="spacing" textLength="44.8643" x="448.78" y="178.5566">funder</text></g><!--class fundingReceipt--><g class="entity" data-qualified-name="fundingReceipt" data-source-line="216" id="ent0016"><rect fill="#F1F1F1" height="32" rx="2.5" ry="2.5" style="stroke:#181818;stroke-width:0.5;" width="134.5186" x="499.21" y="56.2656"/><ellipse cx="514.21" cy="72.2656" fill="#7E57C2" rx="11" ry="11" style="stroke:#181818;stroke-width:1;"/><path d="M513.2959,68.5806 L513.2959,76.5576 L513.96,76.5576 Q515.4043,76.5576 516.0186,75.6487 Q516.6329,74.7397 516.6329,72.5566 Q516.6329,70.3901 516.0186,69.4854 Q515.4043,68.5806 513.96,68.5806 Z M510.8472,66.3726 L513.4703,66.3726 Q516.5083,66.3726 517.8448,67.821 Q519.1812,69.2695 519.1812,72.5566 Q519.1812,75.8521 517.8448,77.3088 Q516.5083,78.7656 513.4703,78.7656 L510.8472,78.7656 Z " fill="#000000"/><text fill="#000000" font-family="sans-serif" font-size="14" lengthAdjust="spacing" textLength="102.5186" x="528.21" y="77.5566">fundingReceipt</text></g><!--class token--><g class="entity" data-qualified-name="token" data-source-line="237" id="ent0017"><rect fill="#FFB6C1" height="33.5547" rx="2.5" ry="2.5" style="stroke:#181818;stroke-width:0.5;" width="90.3887" x="269.01" y="281.9856"/><ellipse cx="284.01" cy="298.763" fill="#F1F1F1" rx="11" ry="11" style="stroke:#181818;stroke-width:1;"/><path d="M282.8035,294.9285 L282.8035,298.5642 L283.8079,298.5642 Q285.0115,298.5642 285.4971,298.1575 Q285.9827,297.7508 285.9827,296.7464 Q285.9827,295.742 285.4971,295.3352 Q285.0115,294.9285 283.8079,294.9285 Z M280.3547,292.8699 L283.7165,292.8699 Q286.2815,292.8699 287.4062,293.783 Q288.531,294.6961 288.531,296.7464 Q288.531,298.7967 287.4062,299.7097 Q286.2815,300.6228 283.7165,300.6228 L282.8035,300.6228 L282.8035,305.263 L280.3547,305.263 Z " fill="#000000"/><text fill="#000000" font-family="sans-serif" font-size="20" font-weight="bold" lengthAdjust="spacing" textLength="58.3887" x="298.01" y="306.3216">token</text></g><!--class hiddenLocation1--><g class="entity" data-qualified-name="hiddenLocation1" data-source-line="270" id="ent0023"><rect fill="none" height="26.4883" rx="2.5" ry="2.5" style="stroke:none;stroke-width:0.5;" width="10.4297" x="231.99" y="160.0256"/><text fill="#000000" font-family="sans-serif" font-size="14" lengthAdjust="spacing" textLength="4.4297" x="234.99" y="178.5608">&#160;</text></g><!--reverse link token to activity--><!--link token to activity--><g class="link" data-entity-1="ent0017" data-entity-2="ent0003" data-link-type="dependency" data-source-line="308" id="lnk36"><path codeLine="308" d="M359.48,298.7656 C384.16,298.7656 409.06,298.7656 435.87,298.7656" fill="none" id="token-to-activity" style="stroke:#666666;stroke-width:1;stroke-dasharray:7,7;"/><polygon fill="#666666" points="441.87,298.7656,432.87,294.7656,436.87,298.7656,432.87,302.7656,441.87,298.7656" style="stroke:#666666;stroke-width:1;"/><text fill="#666666" font-family="sans-serif" font-size="10" lengthAdjust="spacing" textLength="46.7969" x="377.56" y="293.4336">tokenizes</text></g><!--link evaluation to evidence--><g class="link" data-entity-1="ent0006" data-entity-2="ent0004" data-link-type="dependency" data-source-line="257" id="lnk20"><path codeLine="257" d="M210.59,92.1156 C237.01,109.6756 271.2128,132.4048 297.6828,149.9948" fill="none" id="evaluation-to-evidence" style="stroke:#666666;stroke-width:1;"/><polygon fill="#666666" points="302.68,153.3156,297.398,145.0029,298.5156,150.5483,292.9703,151.6659,302.68,153.3156" style="stroke:#666666;stroke-width:1;"/></g><!--link evaluation to measurement--><g class="link" data-entity-1="ent0006" data-entity-2="ent0005" data-link-type="dependency" data-source-line="258" id="lnk21"><path codeLine="258" d="M171.86,91.8856 C162.09,109.4756 150.4246,130.4811 140.6046,148.1511" fill="none" id="evaluation-to-measurement" style="stroke:#666666;stroke-width:1;"/><polygon fill="#666666" points="137.69,153.3956,145.5583,147.4719,140.1188,149.0252,138.5656,143.5858,137.69,153.3956" style="stroke:#666666;stroke-width:1;"/></g><!--link evaluation to activity--><g class="link" data-entity-1="ent0006" data-entity-2="ent0003" data-link-type="dependency" data-source-line="259" id="lnk22"><path codeLine="259" d="M128.26,92.0856 C75.01,113.6156 6,151.3456 39.21,193.2656 C64.27,224.8956 315.7347,268.222 435.9847,287.372" fill="none" id="evaluation-to-activity" style="stroke:#666666;stroke-width:1;"/><polygon fill="#666666" points="441.91,288.3156,433.6511,282.95,436.9722,287.5293,432.3929,290.8504,441.91,288.3156" style="stroke:#666666;stroke-width:1;"/></g><!--link evaluation to hiddenLocation1--><g class="link" data-entity-1="ent0006" data-entity-2="ent0023" data-link-type="dependency" data-source-line="272" id="lnk24"><path codeLine="272" d="M192.55,91.8856 C204.13,112.7256 219.5475,140.4699 228.6975,156.9499" fill="none" id="evaluation-to-hiddenLocation1" style="stroke:#666666;stroke-width:1;"/><polygon fill="#666666" points="231.61,162.1956,230.7384,152.3854,229.1829,157.8242,223.7441,156.2688,231.61,162.1956" style="stroke:#666666;stroke-width:1;"/></g><!--link evidence to activity--><g class="link" data-entity-1="ent0004" data-entity-2="ent0003" data-link-type="dependency" data-source-line="281" id="lnk25"><path codeLine="281" d="M357.33,193.0256 C389.47,216.0956 438.886,251.5864 471.396,274.9264" fill="none" id="evidence-to-activity" style="stroke:#666666;stroke-width:1;"/><polygon fill="#666666" points="476.27,278.4256,471.2918,269.9275,472.2084,275.5096,466.6262,276.4262,476.27,278.4256" style="stroke:#666666;stroke-width:1;"/></g><!--link measurement to activity--><g class="link" data-entity-1="ent0005" data-entity-2="ent0003" data-link-type="dependency" data-source-line="283" id="lnk26"><path codeLine="283" d="M184.72,193.1556 C254.98,216.2356 367.4995,253.1936 438.4495,276.4936" fill="none" id="measurement-to-activity" style="stroke:#666666;stroke-width:1;"/><polygon fill="#666666" points="444.15,278.3656,436.8473,271.7572,439.3996,276.8056,434.3513,279.3579,444.15,278.3656" style="stroke:#666666;stroke-width:1;"/></g><!--link measurement to location--><g class="link" data-entity-1="ent0005" data-entity-2="ent0008" data-link-type="dependency" data-source-line="293" id="lnk27"><path codeLine="293" d="M141.63,192.9356 C176.26,237.7556 259.8618,345.9776 291.6918,387.1776" fill="none" id="measurement-to-location" style="stroke:#666666;stroke-width:1;"/><polygon fill="#666666" points="295.36,391.9256,293.023,382.358,292.3031,387.9689,286.6923,387.249,295.36,391.9256" style="stroke:#666666;stroke-width:1;"/></g><!--link collection to activity--><g class="link" data-entity-1="ent0013" data-entity-2="ent0003" data-link-type="dependency" data-source-line="296" id="lnk28"><path codeLine="296" d="M664.91,193.2356 C646.11,208.8256 618.18,231.0756 592.21,248.2656 C575.99,258.9956 562.5619,266.7993 546.4919,275.4593" fill="none" id="collection-to-activity" style="stroke:#666666;stroke-width:1;"/><polygon fill="#666666" points="541.21,278.3056,551.0304,277.5573,545.6116,275.9337,547.2352,270.5148,541.21,278.3056" style="stroke:#666666;stroke-width:1;"/></g><!--link collection to collection--><g class="link" data-entity-1="ent0013" data-entity-2="ent0013" data-link-type="dependency" data-source-line="297" id="lnk29"><path codeLine="297" d="M743.5,163.7956 C762.98,163.6956 778.71,166.8556 778.71,173.2656 C778.71,179.6756 768.9799,182.8664 749.4999,182.7664" fill="none" id="collection-to-collection" style="stroke:#666666;stroke-width:1;"/><polygon fill="#666666" points="743.5,182.7356,752.4793,186.7818,748.4999,182.7613,752.5204,178.7819,743.5,182.7356" style="stroke:#666666;stroke-width:1;"/><text fill="#666666" font-family="sans-serif" font-size="10" lengthAdjust="spacing" textLength="43.8184" x="784.71" y="171.4336">recursive</text><text fill="#666666" font-family="sans-serif" font-size="10" lengthAdjust="spacing" textLength="35.9473" x="788.6455" y="183.2109">nesting</text></g><!--link collection to collectionProject--><g class="link" data-entity-1="ent0013" data-entity-2="ent0014" data-link-type="extension" data-source-line="298" id="lnk30"><path codeLine="298" d="M687.21,193.0256 C687.21,217.4456 687.21,241.6956 687.21,264.3556" fill="none" id="collection-to-collectionProject" style="stroke:#666666;stroke-width:1;stroke-dasharray:7,7;"/><polygon fill="none" points="687.21,282.3556,693.21,264.3556,681.21,264.3556,687.21,282.3556" style="stroke:#666666;stroke-width:1;"/><text fill="#666666" font-family="sans-serif" font-size="10" lengthAdjust="spacing" textLength="34.5898" x="696.8599" y="233.9336">sidecar</text><text fill="#666666" font-family="sans-serif" font-size="10" lengthAdjust="spacing" textLength="51.8896" x="688.21" y="245.7109">(same TID)</text></g><!--reverse link contribution to activity--><g class="link" data-entity-1="ent0007" data-entity-2="ent0003" data-link-type="dependency" data-source-line="300" id="lnk32"><path codeLine="300" d="M874.7975,195.9069 C841.1375,212.4869 795.1,233.4956 748.21,248.2656 C683.36,268.6856 664.84,264.7656 598.21,278.2656 C587.32,280.4756 575.73,282.8356 564.52,285.1356" fill="none" id="contribution-backto-activity" style="stroke:#666666;stroke-width:1;"/><polygon fill="#666666" points="880.18,193.2556,870.3388,193.6442,875.6946,195.465,873.8738,200.8208,880.18,193.2556" style="stroke:#666666;stroke-width:1;"/></g><!--link activity to rights--><g class="link" data-entity-1="ent0003" data-entity-2="ent0012" data-link-type="dependency" data-source-line="301" id="lnk33"><path codeLine="301" d="M522.77,319.2356 C543.68,340.0456 572.1563,368.4041 591.3963,387.5441" fill="none" id="activity-to-rights" style="stroke:#666666;stroke-width:1;"/><polygon fill="#666666" points="595.65,391.7756,592.0905,382.5925,592.1053,388.2493,586.4484,388.2641,595.65,391.7756" style="stroke:#666666;stroke-width:1;"/></g><!--link activity to location--><g class="link" data-entity-1="ent0003" data-entity-2="ent0008" data-link-type="dependency" data-source-line="302" id="lnk34"><path codeLine="302" d="M467.71,319.2356 C429.77,340.0456 375.6211,369.7511 340.7111,388.8911" fill="none" id="activity-to-location" style="stroke:#666666;stroke-width:1;"/><polygon fill="#666666" points="335.45,391.7756,345.2647,390.9563,339.8343,389.3719,341.4187,383.9414,335.45,391.7756" style="stroke:#666666;stroke-width:1;"/></g><!--link contribution to contributor--><g class="link" data-entity-1="ent0007" data-entity-2="ent0002" data-link-type="dependency" data-source-line="304" id="lnk35"><path codeLine="304" d="M923.13,193.0256 C930.85,217.4456 942.3845,253.9737 949.5345,276.6337" fill="none" id="contribution-to-contributor" style="stroke:#666666;stroke-width:1;"/><polygon fill="#666666" points="951.34,282.3556,952.4464,272.5691,949.8355,277.5874,944.8172,274.9764,951.34,282.3556" style="stroke:#666666;stroke-width:1;"/><text fill="#666666" font-family="sans-serif" font-size="10" lengthAdjust="spacing" textLength="41.4063" x="941.2" y="239.9336">made by</text></g><!--link funder to activity--><g class="link" data-entity-1="ent0015" data-entity-2="ent0003" data-link-type="dependency" data-source-line="309" id="lnk37"><path codeLine="309" d="M463.82,189.6556 C472.02,212.1556 485.216,248.3781 494.146,272.8881" fill="none" id="funder-to-activity" style="stroke:#666666;stroke-width:1;stroke-dasharray:7,7;"/><polygon fill="#666666" points="496.2,278.5256,496.8774,268.7001,494.4884,273.8277,489.3607,271.4387,496.2,278.5256" style="stroke:#666666;stroke-width:1;"/><text fill="#666666" font-family="sans-serif" font-size="10" lengthAdjust="spacing" textLength="27.4805" x="485.74" y="239.9336">funds</text></g><!--link contributor to rights--><g class="link" data-entity-1="ent0002" data-entity-2="ent0012" data-link-type="dependency" data-source-line="310" id="lnk38"><path codeLine="310" d="M906.78,315.1656 C836.54,337.0556 715.2185,374.8612 653.0985,394.2112" fill="none" id="contributor-to-rights" style="stroke:#666666;stroke-width:1;stroke-dasharray:7,7;"/><polygon fill="#666666" points="647.37,395.9956,657.1524,397.138,652.1438,394.5086,654.7732,389.5,647.37,395.9956" style="stroke:#666666;stroke-width:1;"/><text fill="#666666" font-family="sans-serif" font-size="10" lengthAdjust="spacing" textLength="16.8262" x="795.05" y="359.9336">has</text></g><!--link fundingReceipt to funder--><g class="link" data-entity-1="ent0016" data-entity-2="ent0015" data-link-type="dependency" data-source-line="316" id="lnk39"><path codeLine="316" d="M545.64,92.1156 C525.08,110.9656 498.2733,135.5417 479.2333,152.9917" fill="none" id="fundingReceipt-to-funder" style="stroke:#666666;stroke-width:1;"/><polygon fill="#666666" points="474.81,157.0456,484.1476,153.9136,478.4961,153.6674,478.7423,148.0159,474.81,157.0456" style="stroke:#666666;stroke-width:1;"/></g><!--link fundingReceipt to contributor--><g class="link" data-entity-1="ent0016" data-entity-2="ent0002" data-link-type="dependency" data-source-line="317" id="lnk40"><path codeLine="317" d="M641.01,75.9256 C752.85,81.6556 955.36,99.3856 1000.21,153.2656 C1032.42,191.9656 995.2788,249.1791 972.8288,277.7291" fill="none" id="fundingReceipt-to-contributor" style="stroke:#666666;stroke-width:1;"/><polygon fill="#666666" points="969.12,282.4456,977.8274,277.8434,972.2106,278.5152,971.5388,272.8984,969.12,282.4456" style="stroke:#666666;stroke-width:1;"/></g><!--link fundingReceipt to activity--><g class="link" data-entity-1="ent0016" data-entity-2="ent0003" data-link-type="dependency" data-source-line="319" id="lnk41"><path codeLine="319" d="M562.25,92.1156 C555.29,124.4156 539.93,192.2656 522.21,248.2656 C518.99,258.4456 517.001,263.9918 513.371,273.1018" fill="none" id="fundingReceipt-to-activity" style="stroke:#666666;stroke-width:1;"/><polygon fill="#666666" points="511.15,278.6756,518.1973,271.7956,513.0008,274.0308,510.7656,268.8343,511.15,278.6756" style="stroke:#666666;stroke-width:1;"/><text fill="#666666" font-family="sans-serif" font-size="10" lengthAdjust="spacing" textLength="27.4805" x="549.15" y="177.4336">funds</text></g><!--link badgeAward to badgeDefinition--><g class="link" data-entity-1="ent0010" data-entity-2="ent0009" data-link-type="dependency" data-source-line="321" id="lnk42"><path codeLine="321" d="M1155.21,193.0256 C1155.21,217.4456 1155.21,253.6956 1155.21,276.3556" fill="none" id="badgeAward-to-badgeDefinition" style="stroke:#666666;stroke-width:1;"/><polygon fill="#666666" points="1155.21,282.3556,1159.21,273.3556,1155.21,277.3556,1151.21,273.3556,1155.21,282.3556" style="stroke:#666666;stroke-width:1;"/></g><!--link badgeResponse to badgeAward--><g class="link" data-entity-1="ent0011" data-entity-2="ent0010" data-link-type="dependency" data-source-line="322" id="lnk43"><path codeLine="322" d="M1155.21,91.8856 C1155.21,109.4756 1155.21,129.7256 1155.21,147.3956" fill="none" id="badgeResponse-to-badgeAward" style="stroke:#666666;stroke-width:1;"/><polygon fill="#666666" points="1155.21,153.3956,1159.21,144.3956,1155.21,148.3956,1151.21,144.3956,1155.21,153.3956" style="stroke:#666666;stroke-width:1;"/></g><!--link badgeAward to contributor--><g class="link" data-entity-1="ent0010" data-entity-2="ent0002" data-link-type="dependency" data-source-line="323" id="lnk44"><path codeLine="323" d="M1134.48,193.1256 C1116.29,209.0656 1088.7,231.8656 1062.21,248.2656 C1040.88,261.4756 1020.9708,271.0827 1000.3708,279.9527" fill="none" id="badgeAward-to-contributor" style="stroke:#666666;stroke-width:1;"/><polygon fill="#666666" points="994.86,282.3256,1004.7082,282.4402,999.4524,280.3482,1001.5444,275.0924,994.86,282.3256" style="stroke:#666666;stroke-width:1;"/></g><!--link badgeAward to activity--><g class="link" data-entity-1="ent0010" data-entity-2="ent0003" data-link-type="dependency" data-source-line="324" id="lnk45"><path codeLine="324" d="M1117.03,193.1556 C1079.78,210.6456 1021.02,235.7756 967.21,248.2656 C806.93,285.4656 761.1,255.0156 598.21,278.2656 C587.29,279.8256 581.6293,280.7184 570.4893,282.8884" fill="none" id="badgeAward-to-activity" style="stroke:#666666;stroke-width:1;"/><polygon fill="#666666" points="564.6,284.0356,574.1988,286.241,569.5078,283.0796,572.6692,278.3886,564.6,284.0356" style="stroke:#666666;stroke-width:1;"/></g><?plantuml-src lLdTK-Cs47_tNo5o3u5fuzxHQnyo50O8z9XXZfj0hm_NJaUnbKH5bbn9XkRQ-z-xAycsd2y2xJGmOA-arNxlJqgVl5UI4JKbTiuC8wOgIwKjeLghHqEKvZCkgULoHgPQ5OJBd3_mlAA2J3aJkKdwUwMciu8IGHUgiiGKp599L-XCtA_G7lZdtqsIM6u58xrtYvBfZC7k5-DHBqdwv5p9APzL6WHGaZnGpUb4C9FiyQdCsPJSlhlv-RVBgulhqMso1mGEgaGqCgN2i6IFWT3J15UH_NZuXnz8pqtf7IHpdZF2Yj8kQiN2icW0D9ih674aOvbcoeBCe46z-VZYuzN5px-TtrpVZCchoylBq_DHCtWw7jyqOz-xJv8S6RiGx3Z9LLOLJ5hoLqBWuqtYd_5pgQIzvPyPENpRfU5gCb4YT-GloPSa4zIO4QSpJOl0mNapudODufmheNGiKuVlzb4doPlNOKlycmggP-mCv8YscJEQCnqHkfgyNgLtjMdPerv7tmHJ-S2mcayggxG1xHZHhDGGlzAod4mMP7Grmk0bywgWSg113WmSy9c6I8QOnMZNRAfWPQw8L1OO_55nU2rKpeJ0U7_Wb42aiZzvfcIQ06yECP2rEwE3HszFlmqAhWqlgokCBXm7cL0aIGlsJMbObIkvAFnA7sbVK3EbP-cyJWIJWZDvaTBCGjR1xWCGd1i2lw00AIYN87YcT0uh6nEWy9GqJD8afvQwg20DewEZnc77n-JLsTkBxqQlTrJ4nQPxCdEe5IDcCirBJ557pDlt4qVW1Pqn__YezFrjfihmQYo5zTI6Lp13-z8O6lYOJxzweb0PxH2WFisj2Il0p-3_KxkRKHdKCIOp5fcd9kre25DDVcUPRUK5upzXePFr9j9CEBtk5hLfdgbCmQYfDCCA4kaJKL-YKbYkmThX7JoIkSS7AYfM4w4ejeBxzv_6Ly6dmQH0M7RY2xq6Exlb7R_Ln9UeQQgYe7eHn7MSLADpS6ijUsJH9WOD923xzvh50H_f5fDtr4uhiPn4hK8hiRSr2JUgGCioHUavTCiyhHMFvAv9EyeioeyGQ7KDCTfq38hXrI6u5oob6n9gi-3djT1aGlCPCsGVPIPUwAy8VQGwX_zGIakeC-mWKiaj664pvy_GpArg56XB0xQLzS9J8TGZow-CgLpoRLTfIRvJfy0pH8iJmfjLFUN-fIt7mLRFsTM96MgVN-qR1CE2_gByyQqWaiqJTiqPD_azH5JqsdZDlovtEcfXgpdMWXScl11WS-JM1nXksH1mJKs2nAUIL63KzPb6A7HpOg2uPbJ3UW0zRdlV_9jP7XsGHsxd3Z8OK93SNOqw1QRUSzV-tzJwv_Gvid_Dw5GmX5fJpuXRLZHrzgMsIqkjC7J9VZ36mLhTFeHPkwaOUDwXVYUjWe79Yfxb2dsDjlG1nD9rNNvW-iDSMVL4v5WrOuXLGMumnMK5nvx_6_5EtQR_1zZ5dK2E58AMWHaZFuQHiH_ODKwL-uVdLl-WWlLfeQg0rB9AQu0dllcNT879FAPSdCI4zymYS0qnhwaqrCNKLNxI5Co0GLNcE88ddt3i5zB7Lajg1wCvtj_SNGmRX0zlhJU-9j34uVGDfqwQOqnXM4CWIA9aDeTp07fOtJF9F_l4XnCz33PutzU1b91R1Ma78G2D3uD0CePdXsOVaZVjBKqWhAs25FASbyyCbvTdtv-_sT4N-qeEd9mWhrWSh4H2k12OSy1LIJ_2SuD1_WdEsu0XVnqSDsXoovGO2VTZ0DoPLHi66GNCFz0RkBIdBn7DS3Q9bwzd7rNN3JDQzbKq7Y6tJLCQB1IDnrk4XjZl8CYEbfrDbd9ii65Uqbf-E0om0LmG-IQU4EDbDoisx2PEZMqWCAwAKXd3iPPPHI1NV7wuIolf-fgxT88yUyGILfMkpVbmYgDaE6nwuc3mIIh8ulkE4M4leveCA-WzT5wIKpbpfT7Ve5GcdAsTPJncJCmzboN5onPVgtn2dD7iVgQXpkJkAkNewCUvCXRovWxh1yolpufda9TCFp7fmfNYBPF2jG_fmGyW0o_WTT3j3MaM-RkhvU6Cwqnq7HTPwtXvVh8js_laL80XcKGtEsV4riB2PbJ17h4RaHwGmKQMzT2vZIkMnHkiovizXdTxORV_AaemWUhOY8EZlaAiOtnJl4RHlJcaRvt-5EJX1OUIAXROcZg7zUxcMwoznUk7sxr-M7kz8_CMjn_-zwuzxBWsiZQwThCzWZFQqZeSEYZPjVJwuQWU3qaFsc85fyu7zekKp21uxaNhI9h-VRm6GyB2W3L_aVireZxe9Ksd60uxjrVGE0Pn5KKbsgdXc39eAtOxrjntTIsGnAoYpV0sTD2jro1iGS7v4nTwT-wI7zB2OqX401wZJpoAf7BHHHmuYuA34AXu44doSBMCCGkErsXh3n3Ij3K_x1lm23D9W91BuqWrIImhJWZc698vDQt80C2SB07FaiSvp-QGs48W66BQjM2KBaDenpIKHRle8-uDI7G95oCm9VlSVUsnw0TJWCTFxpuWw3b8OUKxE8G3J8SpAMoBEm5E1aDf07IGidWqCqhmlFwkP081WKJaYB821_PdANW6XuX5P6QiHe23KDYbbjiWxovzE7HVlQ1ZlI5NnY731ijjUeK7627EZyO1INiU7mxTivktTDcHT4xwOQA_QsXc-pDzp2ukWR5qc-Qqg0ZyZlK4AxPPhjVhLqTDFJfP_mC0?></g></svg>