<svg xmlns="http://www.w3.org/2000/svg" xmlns:xlink="http://www.w3.org/1999/xlink" contentStyleType="text/css" data-diagram-type="CLASS" height="431px" preserveAspectRatio="none" style="width:643px;height:431px;background:#FFFFFF;" version="1.1" viewBox="0 0 643 431" width="643px" zoomAndPan="magnify"><title>Hypercert ERD</title><defs/><g><g class="title" data-source-line="1"><text fill="#000000" font-family="sans-serif" font-size="24" font-weight="bold" lengthAdjust="spacing" textLength="157.0547" x="236.3627" y="32.2656">Hypercert ERD</text></g><!--class contributor--><g class="entity" data-entity="contributor" data-source-line="39" data-uid="ent0002" id="entity_contributor"><rect fill="#FFD4A3" height="32" rx="2.5" ry="2.5" style="stroke:#181818;stroke-width:0.5;" width="100.6602" x="7" y="56.125"/><ellipse cx="22" cy="72.125" fill="#ADD1B2" rx="11" ry="11" style="stroke:#181818;stroke-width:1;"/><path d="M18.0625,78.125 L25.5781,78.125 L25.5781,76.0156 L20.5781,76.0156 L20.5781,73.4688 L24.6719,73.4688 L24.6719,71.375 L20.5781,71.375 L20.5781,69.1563 L25.4063,69.1563 L25.4063,67.0469 L18.0625,67.0469 L18.0625,78.125 Z " fill="#000000"/><text fill="#000000" font-family="sans-serif" font-size="14" lengthAdjust="spacing" textLength="68.6602" x="36" y="76.9102">contributor</text></g><!--class activity--><g class="entity" data-entity="activity" data-source-line="45" data-uid="ent0003" id="entity_activity"><rect fill="#B4E5D0" height="33.4375" rx="2.5" ry="2.5" style="stroke:#181818;stroke-width:0.5;" width="97.4492" x="200.83" y="282.125"/><ellipse cx="215.83" cy="298.8438" fill="#7E57C2" rx="11" ry="11" style="stroke:#181818;stroke-width:1;"/><path d="M213.0175,304.8438 L216.2363,304.8438 C219.3144,304.8438 221.4238,303.0625 221.4238,299.25 C221.4238,295.4375 219.3144,293.7656 216.08,293.7656 L213.0175,293.7656 L213.0175,304.8438 Z M215.5331,302.8281 L215.5331,295.7813 L215.9394,295.7813 C217.6738,295.7813 218.8456,296.5938 218.8456,299.25 C218.8456,301.9063 217.6738,302.8281 215.9394,302.8281 L215.5331,302.8281 Z " fill="#000000"/><text fill="#000000" font-family="sans-serif" font-size="20" font-weight="bold" lengthAdjust="spacing" textLength="65.4492" x="229.83" y="305.6797">activity</text></g><!--class evidence--><g class="entity" data-entity="evidence" data-source-line="62" data-uid="ent0004" id="entity_evidence"><rect fill="#F1F1F1" height="32" rx="2.5" ry="2.5" style="stroke:#181818;stroke-width:0.5;" width="87.4121" x="528.62" y="392.845"/><ellipse cx="543.62" cy="408.845" fill="#7E57C2" rx="11" ry="11" style="stroke:#181818;stroke-width:1;"/><path d="M540.8075,414.845 L544.0263,414.845 C547.1044,414.845 549.2138,413.0637 549.2138,409.2512 C549.2138,405.4387 547.1044,403.7669 543.87,403.7669 L540.8075,403.7669 L540.8075,414.845 Z M543.3231,412.8294 L543.3231,405.7825 L543.7294,405.7825 C545.4638,405.7825 546.6356,406.595 546.6356,409.2512 C546.6356,411.9075 545.4638,412.8294 543.7294,412.8294 L543.3231,412.8294 Z " fill="#000000"/><text fill="#000000" font-family="sans-serif" font-size="14" lengthAdjust="spacing" textLength="55.4121" x="557.62" y="413.6302">evidence</text></g><!--class measurements--><g class="entity" data-entity="measurements" data-source-line="72" data-uid="ent0005" id="entity_measurements"><rect fill="#F1F1F1" height="32" rx="2.5" ry="2.5" style="stroke:#181818;stroke-width:0.5;" width="125.666" x="453.83" y="169.125"/><ellipse cx="468.83" cy="185.125" fill="#7E57C2" rx="11" ry="11" style="stroke:#181818;stroke-width:1;"/><path d="M466.0175,191.125 L469.2363,191.125 C472.3144,191.125 474.4238,189.3438 474.4238,185.5313 C474.4238,181.7188 472.3144,180.0469 469.08,180.0469 L466.0175,180.0469 L466.0175,191.125 Z M468.5331,189.1094 L468.5331,182.0625 L468.9394,182.0625 C470.6738,182.0625 471.8456,182.875 471.8456,185.5313 C471.8456,188.1875 470.6738,189.1094 468.9394,189.1094 L468.5331,189.1094 Z " fill="#000000"/><text fill="#000000" font-family="sans-serif" font-size="14" lengthAdjust="spacing" textLength="93.666" x="482.83" y="189.9102">measurements</text></g><!--class evaluations--><g class="entity" data-entity="evaluations" data-source-line="84" data-uid="ent0006" id="entity_evaluations"><rect fill="#F1F1F1" height="32" rx="2.5" ry="2.5" style="stroke:#181818;stroke-width:0.5;" width="103.4834" x="464.83" y="56.125"/><ellipse cx="479.83" cy="72.125" fill="#7E57C2" rx="11" ry="11" style="stroke:#181818;stroke-width:1;"/><path d="M477.0175,78.125 L480.2363,78.125 C483.3144,78.125 485.4238,76.3438 485.4238,72.5313 C485.4238,68.7188 483.3144,67.0469 480.08,67.0469 L477.0175,67.0469 L477.0175,78.125 Z M479.5331,76.1094 L479.5331,69.0625 L479.9394,69.0625 C481.6738,69.0625 482.8456,69.875 482.8456,72.5313 C482.8456,75.1875 481.6738,76.1094 479.9394,76.1094 L479.5331,76.1094 Z " fill="#000000"/><text fill="#000000" font-family="sans-serif" font-size="14" lengthAdjust="spacing" textLength="71.4834" x="493.83" y="76.9102">evaluations</text></g><!--class contributions--><g class="entity" data-entity="contributions" data-source-line="94" data-uid="ent0007" id="entity_contributions"><rect fill="#F1F1F1" height="32" rx="2.5" ry="2.5" style="stroke:#181818;stroke-width:0.5;" width="114.2773" x="74.33" y="169.125"/><ellipse cx="89.33" cy="185.125" fill="#7E57C2" rx="11" ry="11" style="stroke:#181818;stroke-width:1;"/><path d="M86.5175,191.125 L89.7363,191.125 C92.8144,191.125 94.9238,189.3438 94.9238,185.5313 C94.9238,181.7188 92.8144,180.0469 89.58,180.0469 L86.5175,180.0469 L86.5175,191.125 Z M89.0331,189.1094 L89.0331,182.0625 L89.4394,182.0625 C91.1738,182.0625 92.3456,182.875 92.3456,185.5313 C92.3456,188.1875 91.1738,189.1094 89.4394,189.1094 L89.0331,189.1094 Z " fill="#000000"/><text fill="#000000" font-family="sans-serif" font-size="14" lengthAdjust="spacing" textLength="82.2773" x="103.33" y="189.9102">contributions</text></g><!--class location--><g class="entity" data-entity="location" data-source-line="106" data-uid="ent0008" id="entity_location"><rect fill="#F1F1F1" height="32" rx="2.5" ry="2.5" style="stroke:#181818;stroke-width:0.5;" width="82.0322" x="294.31" y="392.845"/><ellipse cx="309.31" cy="408.845" fill="#7E57C2" rx="11" ry="11" style="stroke:#181818;stroke-width:1;"/><path d="M306.4975,414.845 L309.7163,414.845 C312.7944,414.845 314.9038,413.0637 314.9038,409.2512 C314.9038,405.4387 312.7944,403.7669 309.56,403.7669 L306.4975,403.7669 L306.4975,414.845 Z M309.0131,412.8294 L309.0131,405.7825 L309.4194,405.7825 C311.1538,405.7825 312.3256,406.595 312.3256,409.2512 C312.3256,411.9075 311.1538,412.8294 309.4194,412.8294 L309.0131,412.8294 Z " fill="#000000"/><text fill="#000000" font-family="sans-serif" font-size="14" lengthAdjust="spacing" textLength="50.0322" x="323.31" y="413.6302">location</text></g><!--class rights--><g class="entity" data-entity="rights" data-source-line="118" data-uid="ent0009" id="entity_rights"><rect fill="#F1F1F1" height="32" rx="2.5" ry="2.5" style="stroke:#181818;stroke-width:0.5;" width="67.5264" x="11.57" y="392.845"/><ellipse cx="26.57" cy="408.845" fill="#7E57C2" rx="11" ry="11" style="stroke:#181818;stroke-width:1;"/><path d="M23.7575,414.845 L26.9763,414.845 C30.0544,414.845 32.1638,413.0637 32.1638,409.2512 C32.1638,405.4387 30.0544,403.7669 26.82,403.7669 L23.7575,403.7669 L23.7575,414.845 Z M26.2731,412.8294 L26.2731,405.7825 L26.6794,405.7825 C28.4138,405.7825 29.5856,406.595 29.5856,409.2512 C29.5856,411.9075 28.4138,412.8294 26.6794,412.8294 L26.2731,412.8294 Z " fill="#000000"/><text fill="#000000" font-family="sans-serif" font-size="14" lengthAdjust="spacing" textLength="35.5264" x="40.57" y="413.6302">rights</text></g><!--class collection--><g class="entity" data-entity="collection" data-source-line="127" data-uid="ent0010" id="entity_collection"><rect fill="#F1F1F1" height="32" rx="2.5" ry="2.5" style="stroke:#181818;stroke-width:0.5;" width="92.5732" x="310.33" y="169.125"/><ellipse cx="325.33" cy="185.125" fill="#7E57C2" rx="11" ry="11" style="stroke:#181818;stroke-width:1;"/><path d="M322.5175,191.125 L325.7363,191.125 C328.8144,191.125 330.9238,189.3438 330.9238,185.5313 C330.9238,181.7188 328.8144,180.0469 325.58,180.0469 L322.5175,180.0469 L322.5175,191.125 Z M325.0331,189.1094 L325.0331,182.0625 L325.4394,182.0625 C327.1738,182.0625 328.3456,182.875 328.3456,185.5313 C328.3456,188.1875 327.1738,189.1094 325.4394,189.1094 L325.0331,189.1094 Z " fill="#000000"/><text fill="#000000" font-family="sans-serif" font-size="14" lengthAdjust="spacing" textLength="60.5732" x="339.33" y="189.9102">collection</text></g><!--class token--><g class="entity" data-entity="token" data-source-line="137" data-uid="ent0011" id="entity_token"><rect fill="#FFB6C1" height="33.4375" rx="2.5" ry="2.5" style="stroke:#181818;stroke-width:0.5;" width="82.7617" x="176.95" y="392.125"/><ellipse cx="191.95" cy="408.8438" fill="#F1F1F1" rx="11" ry="11" style="stroke:#181818;stroke-width:1;"/><path d="M188.7313,414.8438 L191.2313,414.8438 L191.2313,411.0938 L192.6531,411.0938 C194.9969,411.0938 196.9813,409.9375 196.9813,407.3281 C196.9813,404.6406 195.0438,403.7656 192.6531,403.7656 L188.7313,403.7656 L188.7313,414.8438 Z M191.2313,409.0938 L191.2313,405.75 L192.4969,405.75 C193.825,405.75 194.5438,406.1719 194.5438,407.3281 C194.5438,408.4844 193.8719,409.0938 192.4969,409.0938 L191.2313,409.0938 Z " fill="#000000"/><text fill="#000000" font-family="sans-serif" font-size="20" font-weight="bold" lengthAdjust="spacing" textLength="50.7617" x="205.95" y="415.6797">token</text></g><!--link activity to evidence--><g class="link" data-entity-1="activity" data-entity-2="evidence" data-source-line="143" data-uid="lnk12" id="link_activity_evidence"><path codeLine="143" d="M305.59,318.475 C369.03,339.735 465.1608,371.9391 522.9208,391.2891" fill="none" id="activity-to-evidence" style="stroke:#666666;stroke-width:1;"/><polygon fill="#666666" points="528.61,393.195,521.3468,386.5433,523.869,391.6067,518.8055,394.1289,528.61,393.195" style="stroke:#666666;stroke-width:1;"/></g><!--link activity to contributions--><g class="link" data-entity-1="activity" data-entity-2="contributions" data-source-line="144" data-uid="lnk13" id="link_activity_contributions"><path codeLine="144" d="M239.05,278.245 C221.18,257.685 191.6877,229.17 166.1777,208.79" fill="none" id="activity-to-contributions" style="stroke:#666666;stroke-width:1;"/><polygon fill="#666666" points="161.49,205.045,166.0249,213.7877,165.3964,208.1659,171.0183,207.5374,161.49,205.045" style="stroke:#666666;stroke-width:1;"/></g><!--link contributions to activity--><g class="link" data-entity-1="contributions" data-entity-2="activity" data-source-line="151" data-uid="lnk20" id="link_contributions_activity"><path codeLine="151" d="M141.2,205.045 C158.83,225.425 188.2591,253.9315 213.8991,274.4915" fill="none" id="contributions-to-activity" style="stroke:#666666;stroke-width:1;"/><polygon fill="#666666" points="218.58,278.245,214.0609,269.4941,214.6792,275.1171,209.0563,275.7354,218.58,278.245" style="stroke:#666666;stroke-width:1;"/></g><!--link activity to rights--><g class="link" data-entity-1="activity" data-entity-2="rights" data-source-line="145" data-uid="lnk14" id="link_activity_rights"><path codeLine="145" d="M212.86,318.975 C173.21,340.015 115.9404,370.3932 79.5404,389.7032" fill="none" id="activity-to-rights" style="stroke:#666666;stroke-width:1;"/><polygon fill="#666666" points="74.24,392.515,84.0651,391.8309,78.657,390.1718,80.316,384.7637,74.24,392.515" style="stroke:#666666;stroke-width:1;"/></g><!--link activity to location--><g class="link" data-entity-1="activity" data-entity-2="location" data-source-line="146" data-uid="lnk15" id="link_activity_location"><path codeLine="146" d="M264.71,318.975 C281.42,340.015 304.0679,368.507 319.4079,387.817" fill="none" id="activity-to-location" style="stroke:#666666;stroke-width:1;"/><polygon fill="#666666" points="323.14,392.515,320.6738,382.9799,320.0299,388.6,314.4098,387.9561,323.14,392.515" style="stroke:#666666;stroke-width:1;"/></g><!--link measurements to activity--><g class="link" data-entity-1="measurements" data-entity-2="activity" data-source-line="147" data-uid="lnk16" id="link_measurements_activity"><path codeLine="147" d="M471.04,205.045 C422.24,225.425 350.5066,255.3728 301.2766,275.9328" fill="none" id="measurements-to-activity" style="stroke:#666666;stroke-width:1;"/><polygon fill="#666666" points="295.74,278.245,305.5863,278.4677,300.3538,276.3181,302.5033,271.0856,295.74,278.245" style="stroke:#666666;stroke-width:1;"/></g><!--link evaluations to evidence--><g class="link" data-entity-1="evaluations" data-entity-2="evidence" data-source-line="148" data-uid="lnk17" id="link_evaluations_evidence"><path codeLine="148" d="M543.17,91.895 C564.27,108.415 592.07,134.565 604.33,165.125 C636.78,245.995 599.1442,347.4977 581.9042,386.9177" fill="none" id="evaluations-to-evidence" style="stroke:#666666;stroke-width:1;"/><polygon fill="#666666" points="579.5,392.415,586.7711,385.7719,581.5035,387.8339,579.4414,382.5663,579.5,392.415" style="stroke:#666666;stroke-width:1;"/></g><!--link evaluations to measurements--><g class="link" data-entity-1="evaluations" data-entity-2="measurements" data-source-line="149" data-uid="lnk18" id="link_evaluations_measurements"><path codeLine="149" d="M516.33,91.955 C516.33,112.365 516.33,138.755 516.33,159.205" fill="none" id="evaluations-to-measurements" style="stroke:#666666;stroke-width:1;"/><polygon fill="#666666" points="516.33,165.205,520.33,156.205,516.33,160.205,512.33,156.205,516.33,165.205" style="stroke:#666666;stroke-width:1;"/></g><!--link evaluations to activity--><g class="link" data-entity-1="evaluations" data-entity-2="activity" data-source-line="150" data-uid="lnk19" id="link_evaluations_activity"><path codeLine="150" d="M456.87,81.625 C404.44,92.235 329.66,115.445 285.33,165.125 C256.6,197.325 250.7357,244.2296 249.6257,272.4696" fill="none" id="evaluations-to-activity" style="stroke:#666666;stroke-width:1;"/><polygon fill="#666666" points="249.39,278.465,253.7404,269.629,249.5864,273.4689,245.7466,269.3148,249.39,278.465" style="stroke:#666666;stroke-width:1;"/></g><!--link collection to activity--><g class="link" data-entity-1="collection" data-entity-2="activity" data-source-line="152" data-uid="lnk21" id="link_collection_activity"><path codeLine="152" d="M338.18,205.045 C318.62,225.425 291.8144,253.3559 272.0844,273.9159" fill="none" id="collection-to-activity" style="stroke:#666666;stroke-width:1;"/><polygon fill="#666666" points="267.93,278.245,277.0476,274.5209,271.392,274.6374,271.2755,268.9817,267.93,278.245" style="stroke:#666666;stroke-width:1;"/></g><!--reverse link activity to token--><g class="link" data-entity-1="activity" data-entity-2="token" data-source-line="153" data-uid="lnk22" id="link_activity_token"><path codeLine="153" d="M242.1365,324.7427 C236.1765,345.5327 228.47,372.435 222.92,391.835" fill="none" id="activity-backto-token" style="stroke:#666666;stroke-width:1;"/><polygon fill="#666666" points="243.79,318.975,237.4647,326.5242,242.4121,323.7814,245.1549,328.7288,243.79,318.975" style="stroke:#666666;stroke-width:1;"/><text fill="#666666" font-family="sans-serif" font-size="10" lengthAdjust="spacing" textLength="42.7246" x="235.76" y="359.4023">tokenizes</text></g><!--link contributor to contributions--><g class="link" data-entity-1="contributor" data-entity-2="contributions" data-source-line="154" data-uid="lnk23" id="link_contributor_contributions"><path codeLine="154" d="M67.62,88.565 C81.04,108.695 101.1818,138.9027 115.5818,160.5027" fill="none" id="contributor-to-contributions" style="stroke:#666666;stroke-width:1;"/><polygon fill="#666666" points="118.91,165.495,117.2459,155.7877,116.1365,161.3347,110.5895,160.2253,118.91,165.495" style="stroke:#666666;stroke-width:1;"/><text fill="#666666" font-family="sans-serif" font-size="10" lengthAdjust="spacing" textLength="24.5801" x="97.55" y="132.4023">make</text></g><!--link contributor to rights--><g class="link" data-entity-1="contributor" data-entity-2="rights" data-source-line="155" data-uid="lnk24" id="link_contributor_rights"><path codeLine="155" d="M55.43,88.395 C53.26,106.625 49.82,138.045 48.33,165.125 C43.61,250.965 44.4224,348.1256 44.9824,386.4956" fill="none" id="contributor-to-rights" style="stroke:#666666;stroke-width:1;"/><polygon fill="#666666" points="45.07,392.495,48.9382,383.4376,44.997,387.4955,40.9391,383.5543,45.07,392.495" style="stroke:#666666;stroke-width:1;"/><text fill="#666666" font-family="sans-serif" font-size="10" lengthAdjust="spacing" textLength="21.0938" x="46.62" y="245.4023">have</text></g><!--SRC=[dLLDRzem6BxxLxZqiFN0scvT3n55eeIeIDsOe6iFqrIPv0tnwiJ8TgZOrFy-nt620sLapG7Yz_Fnytv4KSK0TsxMIn0X28L7Kx-3q3iyv5bC5xaWYl8ChuYWPCv0eYCQPn74U7OpUNWCngDRVuQEj81cuCfmJ9W4T0HPH6DKUE7thlhg2dUCIUS49JG23EbIhN5CWKMoSdCKAQY4QuqHIGK2kDAO9QgJJqVtuz73ut1oEvdYuo081aE_LWwcqqcjkpGFGZsfrWpwAE9XdaAcy1-4zQCC9ULxyGGyKpFw6_37YwQiyCPppY8ZVa4lA6H4If-IXI2fZK24uCzEj5iDPyWP5owcHjn_QmsIypERilZzm8XOmBN6uQH9W4GW747p9cUxykPjDk6BU_LEBLL8qqHrEKBj8UWyLngfvjg_67ookLwjj19vKUX2xuzzh9qoaiBfKa8UyMoTbfvbqLyGYeWYXafCGaLNHS9Uhxvblu-Fhoz6d_spbYbDGSsRJBXGFiXGq6NHrqOORPrfIXQb-JCNJxEGBpUdEvf2e8khVtYwAxtZHWOhtQLP23z-ccDDbiuWhKpGHQAaUMKy97NoK01H40tKNaggu2qlNoJNHNiB4OUnf41aBg0O7jaIJr9j6dEo0KH5YnvpGKFpkY8i1zUeoFB5h87lqt63Ptskg6v1duvh-6wBMERpNn0gcz5uyngm4yvAP9wcHAnRmcdqnfie5DpMr9b92sMxe5MlngzsSEnqy67WLTUsnCoMzxhA5H0fcgr_jxOprfY5OaUyiJ7ByMg9hJJ-McKhZpMaykZ_DuIGCwRRfZr51wOpv2iGtnAkR8KOeQayqFPBeSqr4Apu4sJRIpG8hY-7votHlUTPDqm8pJ3FsFfaAr6rfpslNa_TRhyUK4VVRFZ2g25nB6qD2nExBJUwkliARTqqxZhol7fCZ57bYvo9zJmxsqsmUotS-FkjwaoDY-t5i-aJJOufQbE_-GHskxQENlcll-GIkL_Y7JQrPKgUOCV8KklXXAm0_GK0]--></g></svg>