<svg xmlns="http://www.w3.org/2000/svg" xmlns:xlink="http://www.w3.org/1999/xlink" contentStyleType="text/css" data-diagram-type="CLASS" height="407px" preserveAspectRatio="none" style="width:553px;height:407px;background:#FFFFFF;" version="1.1" viewBox="0 0 553 407" width="553px" zoomAndPan="magnify"><title>Hypercert ERD</title><defs/><g><g class="title" data-source-line="1"><text fill="#000000" font-family="sans-serif" font-size="24" font-weight="bold" lengthAdjust="spacing" textLength="157.0547" x="191.3977" y="32.2656">Hypercert ERD</text></g><!--class contributor--><g class="entity" data-entity="contributor" data-source-line="39" data-uid="ent0002" id="entity_contributor"><rect fill="#FFD4A3" height="32" rx="2.5" ry="2.5" style="stroke:#181818;stroke-width:0.5;" width="100.6602" x="75.67" y="258.625"/><ellipse cx="90.67" cy="274.625" fill="#ADD1B2" rx="11" ry="11" style="stroke:#181818;stroke-width:1;"/><path d="M86.7325,280.625 L94.2481,280.625 L94.2481,278.5156 L89.2481,278.5156 L89.2481,275.9688 L93.3419,275.9688 L93.3419,273.875 L89.2481,273.875 L89.2481,271.6563 L94.0763,271.6563 L94.0763,269.5469 L86.7325,269.5469 L86.7325,280.625 Z " fill="#000000"/><text fill="#000000" font-family="sans-serif" font-size="14" lengthAdjust="spacing" textLength="68.6602" x="104.67" y="279.4102">contributor</text></g><!--class activity--><g class="entity" data-entity="activity" data-source-line="45" data-uid="ent0003" id="entity_activity"><rect fill="#B4E5D0" height="33.4375" rx="2.5" ry="2.5" style="stroke:#181818;stroke-width:0.5;" width="97.4492" x="227.5" y="258.125"/><ellipse cx="242.5" cy="274.8438" fill="#7E57C2" rx="11" ry="11" style="stroke:#181818;stroke-width:1;"/><path d="M239.6875,280.8438 L242.9063,280.8438 C245.9844,280.8438 248.0938,279.0625 248.0938,275.25 C248.0938,271.4375 245.9844,269.7656 242.75,269.7656 L239.6875,269.7656 L239.6875,280.8438 Z M242.2031,278.8281 L242.2031,271.7813 L242.6094,271.7813 C244.3438,271.7813 245.5156,272.5938 245.5156,275.25 C245.5156,277.9063 244.3438,278.8281 242.6094,278.8281 L242.2031,278.8281 Z " fill="#000000"/><text fill="#000000" font-family="sans-serif" font-size="20" font-weight="bold" lengthAdjust="spacing" textLength="65.4492" x="256.5" y="281.6797">activity</text></g><!--class evidence--><g class="entity" data-entity="evidence" data-source-line="61" data-uid="ent0004" id="entity_evidence"><rect fill="#F1F1F1" height="32" rx="2.5" ry="2.5" style="stroke:#181818;stroke-width:0.5;" width="87.4121" x="150.5" y="157.125"/><ellipse cx="165.5" cy="173.125" fill="#7E57C2" rx="11" ry="11" style="stroke:#181818;stroke-width:1;"/><path d="M162.6875,179.125 L165.9063,179.125 C168.9844,179.125 171.0938,177.3438 171.0938,173.5313 C171.0938,169.7188 168.9844,168.0469 165.75,168.0469 L162.6875,168.0469 L162.6875,179.125 Z M165.2031,177.1094 L165.2031,170.0625 L165.6094,170.0625 C167.3438,170.0625 168.5156,170.875 168.5156,173.5313 C168.5156,176.1875 167.3438,177.1094 165.6094,177.1094 L165.2031,177.1094 Z " fill="#000000"/><text fill="#000000" font-family="sans-serif" font-size="14" lengthAdjust="spacing" textLength="55.4121" x="179.5" y="177.9102">evidence</text></g><!--class measurement--><g class="entity" data-entity="measurement" data-source-line="72" data-uid="ent0005" id="entity_measurement"><rect fill="#F1F1F1" height="32" rx="2.5" ry="2.5" style="stroke:#181818;stroke-width:0.5;" width="118.4404" x="360" y="157.125"/><ellipse cx="375" cy="173.125" fill="#7E57C2" rx="11" ry="11" style="stroke:#181818;stroke-width:1;"/><path d="M372.1875,179.125 L375.4063,179.125 C378.4844,179.125 380.5938,177.3438 380.5938,173.5313 C380.5938,169.7188 378.4844,168.0469 375.25,168.0469 L372.1875,168.0469 L372.1875,179.125 Z M374.7031,177.1094 L374.7031,170.0625 L375.1094,170.0625 C376.8438,170.0625 378.0156,170.875 378.0156,173.5313 C378.0156,176.1875 376.8438,177.1094 375.1094,177.1094 L374.7031,177.1094 Z " fill="#000000"/><text fill="#000000" font-family="sans-serif" font-size="14" lengthAdjust="spacing" textLength="86.4404" x="389" y="177.9102">measurement</text></g><!--class evaluation--><g class="entity" data-entity="evaluation" data-source-line="86" data-uid="ent0006" id="entity_evaluation"><rect fill="#F1F1F1" height="32" rx="2.5" ry="2.5" style="stroke:#181818;stroke-width:0.5;" width="96.2578" x="311" y="56.125"/><ellipse cx="326" cy="72.125" fill="#7E57C2" rx="11" ry="11" style="stroke:#181818;stroke-width:1;"/><path d="M323.1875,78.125 L326.4063,78.125 C329.4844,78.125 331.5938,76.3438 331.5938,72.5313 C331.5938,68.7188 329.4844,67.0469 326.25,67.0469 L323.1875,67.0469 L323.1875,78.125 Z M325.7031,76.1094 L325.7031,69.0625 L326.1094,69.0625 C327.8438,69.0625 329.0156,69.875 329.0156,72.5313 C329.0156,75.1875 327.8438,76.1094 326.1094,76.1094 L325.7031,76.1094 Z " fill="#000000"/><text fill="#000000" font-family="sans-serif" font-size="14" lengthAdjust="spacing" textLength="64.2578" x="340" y="76.9102">evaluation</text></g><!--class contribution--><g class="entity" data-entity="contribution" data-source-line="98" data-uid="ent0007" id="entity_contribution"><rect fill="#F1F1F1" height="32" rx="2.5" ry="2.5" style="stroke:#181818;stroke-width:0.5;" width="107.0518" x="44.47" y="368.845"/><ellipse cx="59.47" cy="384.845" fill="#7E57C2" rx="11" ry="11" style="stroke:#181818;stroke-width:1;"/><path d="M56.6575,390.845 L59.8763,390.845 C62.9544,390.845 65.0638,389.0637 65.0638,385.2512 C65.0638,381.4387 62.9544,379.7669 59.72,379.7669 L56.6575,379.7669 L56.6575,390.845 Z M59.1731,388.8294 L59.1731,381.7825 L59.5794,381.7825 C61.3138,381.7825 62.4856,382.595 62.4856,385.2512 C62.4856,387.9075 61.3138,388.8294 59.5794,388.8294 L59.1731,388.8294 Z " fill="#000000"/><text fill="#000000" font-family="sans-serif" font-size="14" lengthAdjust="spacing" textLength="75.0518" x="73.47" y="389.6302">contribution</text></g><!--class location--><g class="entity" data-entity="location" data-source-line="109" data-uid="ent0008" id="entity_location"><rect fill="#F1F1F1" height="32" rx="2.5" ry="2.5" style="stroke:#181818;stroke-width:0.5;" width="82.0322" x="406.98" y="368.845"/><ellipse cx="421.98" cy="384.845" fill="#7E57C2" rx="11" ry="11" style="stroke:#181818;stroke-width:1;"/><path d="M419.1675,390.845 L422.3863,390.845 C425.4644,390.845 427.5738,389.0637 427.5738,385.2512 C427.5738,381.4387 425.4644,379.7669 422.23,379.7669 L419.1675,379.7669 L419.1675,390.845 Z M421.6831,388.8294 L421.6831,381.7825 L422.0894,381.7825 C423.8238,381.7825 424.9956,382.595 424.9956,385.2512 C424.9956,387.9075 423.8238,388.8294 422.0894,388.8294 L421.6831,388.8294 Z " fill="#000000"/><text fill="#000000" font-family="sans-serif" font-size="14" lengthAdjust="spacing" textLength="50.0322" x="435.98" y="389.6302">location</text></g><!--class rights--><g class="entity" data-entity="rights" data-source-line="121" data-uid="ent0009" id="entity_rights"><rect fill="#F1F1F1" height="32" rx="2.5" ry="2.5" style="stroke:#181818;stroke-width:0.5;" width="67.5264" x="304.24" y="368.845"/><ellipse cx="319.24" cy="384.845" fill="#7E57C2" rx="11" ry="11" style="stroke:#181818;stroke-width:1;"/><path d="M316.4275,390.845 L319.6463,390.845 C322.7244,390.845 324.8338,389.0637 324.8338,385.2512 C324.8338,381.4387 322.7244,379.7669 319.49,379.7669 L316.4275,379.7669 L316.4275,390.845 Z M318.9431,388.8294 L318.9431,381.7825 L319.3494,381.7825 C321.0838,381.7825 322.2556,382.595 322.2556,385.2512 C322.2556,387.9075 321.0838,388.8294 319.3494,388.8294 L318.9431,388.8294 Z " fill="#000000"/><text fill="#000000" font-family="sans-serif" font-size="14" lengthAdjust="spacing" textLength="35.5264" x="333.24" y="389.6302">rights</text></g><!--class collection--><g class="entity" data-entity="collection" data-source-line="131" data-uid="ent0010" id="entity_collection"><rect fill="#F1F1F1" height="32" rx="2.5" ry="2.5" style="stroke:#181818;stroke-width:0.5;" width="92.5732" x="7" y="157.125"/><ellipse cx="22" cy="173.125" fill="#7E57C2" rx="11" ry="11" style="stroke:#181818;stroke-width:1;"/><path d="M19.1875,179.125 L22.4063,179.125 C25.4844,179.125 27.5938,177.3438 27.5938,173.5313 C27.5938,169.7188 25.4844,168.0469 22.25,168.0469 L19.1875,168.0469 L19.1875,179.125 Z M21.7031,177.1094 L21.7031,170.0625 L22.1094,170.0625 C23.8438,170.0625 25.0156,170.875 25.0156,173.5313 C25.0156,176.1875 23.8438,177.1094 22.1094,177.1094 L21.7031,177.1094 Z " fill="#000000"/><text fill="#000000" font-family="sans-serif" font-size="14" lengthAdjust="spacing" textLength="60.5732" x="36" y="177.9102">collection</text></g><!--class token--><g class="entity" data-entity="token" data-source-line="141" data-uid="ent0011" id="entity_token"><rect fill="#FFB6C1" height="33.4375" rx="2.5" ry="2.5" style="stroke:#181818;stroke-width:0.5;" width="82.7617" x="186.62" y="368.125"/><ellipse cx="201.62" cy="384.8438" fill="#F1F1F1" rx="11" ry="11" style="stroke:#181818;stroke-width:1;"/><path d="M198.4013,390.8438 L200.9013,390.8438 L200.9013,387.0938 L202.3231,387.0938 C204.6669,387.0938 206.6513,385.9375 206.6513,383.3281 C206.6513,380.6406 204.7138,379.7656 202.3231,379.7656 L198.4013,379.7656 L198.4013,390.8438 Z M200.9013,385.0938 L200.9013,381.75 L202.1669,381.75 C203.495,381.75 204.2138,382.1719 204.2138,383.3281 C204.2138,384.4844 203.5419,385.0938 202.1669,385.0938 L200.9013,385.0938 Z " fill="#000000"/><text fill="#000000" font-family="sans-serif" font-size="20" font-weight="bold" lengthAdjust="spacing" textLength="50.7617" x="215.62" y="391.6797">token</text></g><!--link activity to contribution--><g class="link" data-entity-1="activity" data-entity-2="contribution" data-source-line="147" data-uid="lnk12" id="link_activity_contribution"><path codeLine="147" d="M244.18,294.975 C209.58,316.015 160.1172,346.0886 128.3472,365.3986" fill="none" id="activity-to-contribution" style="stroke:#666666;stroke-width:1;"/><polygon fill="#666666" points="123.22,368.515,132.9884,367.2586,127.4927,365.918,128.8333,360.4223,123.22,368.515" style="stroke:#666666;stroke-width:1;"/></g><!--link activity to rights--><g class="link" data-entity-1="activity" data-entity-2="rights" data-source-line="148" data-uid="lnk13" id="link_activity_rights"><path codeLine="148" d="M304.93,294.945 C314.82,303.075 324.91,313.385 331,325.125 C337.99,338.615 339.3321,350.1357 339.1421,362.5157" fill="none" id="activity-to-rights" style="stroke:#666666;stroke-width:1;"/><polygon fill="#666666" points="339.05,368.515,343.1876,359.5774,339.1267,363.5156,335.1886,359.4547,339.05,368.515" style="stroke:#666666;stroke-width:1;"/></g><!--link activity to location--><g class="link" data-entity-1="activity" data-entity-2="location" data-source-line="149" data-uid="lnk14" id="link_activity_location"><path codeLine="149" d="M309.33,295.035 C324.57,304.035 342.8,314.955 359,325.125 C381.73,339.395 402.2902,352.9882 420.1602,364.9982" fill="none" id="activity-to-location" style="stroke:#666666;stroke-width:1;"/><polygon fill="#666666" points="425.14,368.345,419.9015,360.0049,420.9901,365.556,415.439,366.6446,425.14,368.345" style="stroke:#666666;stroke-width:1;"/></g><!--link evidence to activity--><g class="link" data-entity-1="evidence" data-entity-2="activity" data-source-line="150" data-uid="lnk15" id="link_evidence_activity"><path codeLine="150" d="M209.42,192.845 C223.9,210.405 241.6323,231.9363 256.2723,249.6863" fill="none" id="evidence-to-activity" style="stroke:#666666;stroke-width:1;"/><polygon fill="#666666" points="260.09,254.315,257.4492,244.8268,256.9086,250.4577,251.2776,249.9171,260.09,254.315" style="stroke:#666666;stroke-width:1;"/></g><!--link measurement to activity--><g class="link" data-entity-1="measurement" data-entity-2="activity" data-source-line="151" data-uid="lnk16" id="link_measurement_activity"><path codeLine="151" d="M391.77,193.075 C366.48,210.665 333.956,233.3095 308.546,250.9795" fill="none" id="measurement-to-activity" style="stroke:#666666;stroke-width:1;"/><polygon fill="#666666" points="303.62,254.405,313.2927,252.5507,307.725,251.5504,308.7253,245.9827,303.62,254.405" style="stroke:#666666;stroke-width:1;"/></g><!--link measurement to location--><g class="link" data-entity-1="measurement" data-entity-2="location" data-source-line="152" data-uid="lnk17" id="link_measurement_location"><path codeLine="152" d="M421.62,193.105 C427.31,234.245 439.8576,325.0016 445.0576,362.5816" fill="none" id="measurement-to-location" style="stroke:#666666;stroke-width:1;"/><polygon fill="#666666" points="445.88,368.525,448.6087,359.0617,445.1947,363.5722,440.6842,360.1582,445.88,368.525" style="stroke:#666666;stroke-width:1;"/></g><!--link evaluation to evidence--><g class="link" data-entity-1="evaluation" data-entity-2="evidence" data-source-line="153" data-uid="lnk18" id="link_evaluation_evidence"><path codeLine="153" d="M324.89,92.085 C309.01,101.025 289.94,111.945 273,122.125 C256.3,132.155 242.9517,140.5377 228.1117,150.0477" fill="none" id="evaluation-to-evidence" style="stroke:#666666;stroke-width:1;"/><polygon fill="#666666" points="223.06,153.285,232.7958,151.7968,227.2698,150.5872,228.4794,145.0612,223.06,153.285" style="stroke:#666666;stroke-width:1;"/></g><!--link evaluation to measurement--><g class="link" data-entity-1="evaluation" data-entity-2="measurement" data-source-line="154" data-uid="lnk19" id="link_evaluation_measurement"><path codeLine="154" d="M370.29,91.745 C380.94,109.335 393.74,130.4539 404.45,148.1239" fill="none" id="evaluation-to-measurement" style="stroke:#666666;stroke-width:1;"/><polygon fill="#666666" points="407.56,153.255,406.3157,143.4851,404.9683,148.9791,399.4743,147.6317,407.56,153.255" style="stroke:#666666;stroke-width:1;"/></g><!--link evaluation to activity--><g class="link" data-entity-1="evaluation" data-entity-2="activity" data-source-line="155" data-uid="lnk20" id="link_evaluation_activity"><path codeLine="155" d="M351.19,91.995 C335.41,130.105 302.1746,210.3911 286.2646,248.8311" fill="none" id="evaluation-to-activity" style="stroke:#666666;stroke-width:1;"/><polygon fill="#666666" points="283.97,254.375,291.1078,247.5889,285.8821,249.7551,283.7159,244.5294,283.97,254.375" style="stroke:#666666;stroke-width:1;"/></g><!--link evaluation to location--><g class="link" data-entity-1="evaluation" data-entity-2="location" data-source-line="156" data-uid="lnk21" id="link_evaluation_location"><path codeLine="156" d="M414.89,88.385 C447.05,100.355 484.78,120.575 504,153.125 C546.85,225.715 488.884,324.5936 462.464,363.4436" fill="none" id="evaluation-to-location" style="stroke:#666666;stroke-width:1;"/><polygon fill="#666666" points="459.09,368.405,467.4587,363.2122,461.9017,364.2705,460.8434,358.7135,459.09,368.405" style="stroke:#666666;stroke-width:1;"/></g><!--link collection to activity--><g class="link" data-entity-1="collection" data-entity-2="activity" data-source-line="157" data-uid="lnk22" id="link_collection_activity"><path codeLine="157" d="M95.47,193.075 C134.77,210.615 187.4605,234.1206 227.0705,251.7906" fill="none" id="collection-to-activity" style="stroke:#666666;stroke-width:1;"/><polygon fill="#666666" points="232.55,254.235,225.9604,246.9154,227.9838,252.198,222.7012,254.2214,232.55,254.235" style="stroke:#666666;stroke-width:1;"/></g><!--reverse link activity to token--><g class="link" data-entity-1="activity" data-entity-2="token" data-source-line="158" data-uid="lnk23" id="link_activity_token"><path codeLine="158" d="M243.9212,298.9536 C234.6612,307.0836 229.95,313.425 225,325.125 C219.27,338.665 220.94,355.555 223.49,367.735" fill="none" id="activity-backto-token" style="stroke:#666666;stroke-width:1;"/><polygon fill="#666666" points="248.43,294.995,239.0277,297.927,244.6727,298.2938,244.3058,303.9388,248.43,294.995" style="stroke:#666666;stroke-width:1;"/><text fill="#666666" font-family="sans-serif" font-size="10" lengthAdjust="spacing" textLength="42.7246" x="226" y="335.4023">tokenizes</text></g><!--link contributor to contribution--><g class="link" data-entity-1="contributor" data-entity-2="contribution" data-source-line="159" data-uid="lnk24" id="link_contributor_contribution"><path codeLine="159" d="M120.05,291.055 C116.48,300.735 112.06,313.535 109,325.125 C105.14,339.765 103.0381,350.8788 101.1481,362.8188" fill="none" id="contributor-to-contribution" style="stroke:#666666;stroke-width:1;"/><polygon fill="#666666" points="100.21,368.745,105.5679,360.4811,100.9917,363.8065,97.6663,359.2303,100.21,368.745" style="stroke:#666666;stroke-width:1;"/><text fill="#666666" font-family="sans-serif" font-size="10" lengthAdjust="spacing" textLength="29.7412" x="110" y="335.4023">makes</text></g><!--link contributor to rights--><g class="link" data-entity-1="contributor" data-entity-2="rights" data-source-line="160" data-uid="lnk25" id="link_contributor_rights"><path codeLine="160" d="M176.55,290.245 C212.16,300.995 256.33,315.365 273,325.125 C292.95,336.805 308.0181,350.9361 320.3081,364.0561" fill="none" id="contributor-to-rights" style="stroke:#666666;stroke-width:1;"/><polygon fill="#666666" points="324.41,368.435,321.1765,359.1321,320.9918,364.7859,315.3379,364.6012,324.41,368.435" style="stroke:#666666;stroke-width:1;"/><text fill="#666666" font-family="sans-serif" font-size="10" lengthAdjust="spacing" textLength="16.1084" x="291.76" y="335.4023">has</text></g><!--SRC=[dLPRRzem57xtht3fmzO7rdRh-X1H42MWLkh615lxC4sLIGx4gnCZsw5YK__xJfmB3gKbQnx0v-RpdMjYk150MrVh9QW0bA73YTyYv1qTo6JE5wbYXik4hfZYR2P0amC-JqAOq-dL-Ev-T3syyQVa01ay0PT7vqne80UGX7nECYlwtXLVND2MLMaTaOY7G25UcZMTSn2XBiqSGGmcaYYnB6r0WJI8MPFA-MHuUpsykn-CRyOJUZWQZVe3lnBs9vDn9Jkt3o4TRTO2kYIKGHf3OkXVGl4nDYNvENj6CZ5J_WVenxCwBxEcCob2otuYJoGGJ6kViuLYSN43Kqe-EhVT89o155Avc6htlYwrI4vF2fVPxmV1r08k4OVZ9W8MWd8OzKXEdlFhqMokp-Bg71Uf8fWcZkK8q4BnMMeGAURQF-j_AdpjhBHHQLReJEvV-nID4XR3yL936ifa7UUMUT6V20cPOJQLb0M6hpA7dKuLPRTB3o_FXf_zauOkRK7jIKTI6HzqeFWowslB33Tqpp9up1QG7n-bUfW6SbcGsZ2qPoQ_3V5MvoeXU8l- -IjNLtmH6PsVXGpOnaMW02t3ldanSbXXfoS1D8onJ5IlGeELsXDzRtVu-x75m7Igm9cPfl0iKPWhp5D1O-e2UrmnaOAhbFduOcV_EuxxRicFoNLUZo9bI9SL-F-i8u1yvJKBJAUptn2OuXp7JAqBBFOYMGLPWYkHEL7ejw9rcwuXNYK5zEeTArK1yLadlDBkUx6LiJJ49PQts13bI6gbQmcfQbyoB97ja3VtS3wRJRDcbR-YFuUiGENazbfX1br5SJc6JQef1BPIyvpjc-n0ha1zYwIH1IqOZyj-V0dFKg4-Gg56Fa2olNT7eylpmMb3VEzbqWuYnXCg4x4-sd9KhWJFg-rEscvtQutjA1OropJoeoEh-YsJLcrIJftdLM-IJ5wj8sSA6wcyvANS6fvNxUrCeoHg6kxaMos7KLCiTaiTZgkm6yscZp2rjkJr6pRlr7QxgBAN_-EdWIRkgtsx5gWOiuSTIaLbF1enJVu1]--></g></svg>