<svg xmlns="http://www.w3.org/2000/svg" xmlns:xlink="http://www.w3.org/1999/xlink" contentStyleType="text/css" data-diagram-type="CLASS" height="524px" preserveAspectRatio="none" style="width:1181px;height:524px;background:#FFFFFF;" version="1.1" viewBox="0 0 1181 524" width="1181px" zoomAndPan="magnify"><title>Hypercert ERD</title><defs/><g><g class="title" data-source-line="7"><text fill="#000000" font-family="sans-serif" font-size="24" font-weight="bold" lengthAdjust="spacing" textLength="157.0547" x="505.0656" y="32.2656">Hypercert ERD</text></g><!--class contributorEntity--><g class="entity" data-entity="contributorEntity" data-source-line="47" data-uid="ent0002" id="entity_contributorEntity"><rect fill="#FFD4A3" height="32" rx="2.5" ry="2.5" style="stroke:#181818;stroke-width:0.5;" width="181.4473" x="876.28" y="380.125"/><ellipse cx="891.28" cy="396.125" fill="#ADD1B2" rx="11" ry="11" style="stroke:#181818;stroke-width:1;"/><path d="M887.3425,402.125 L894.8581,402.125 L894.8581,400.0156 L889.8581,400.0156 L889.8581,397.4688 L893.9519,397.4688 L893.9519,395.375 L889.8581,395.375 L889.8581,393.1563 L894.6863,393.1563 L894.6863,391.0469 L887.3425,391.0469 L887.3425,402.125 Z " fill="#000000"/><text fill="#000000" font-family="sans-serif" font-size="14" lengthAdjust="spacing" textLength="149.4473" x="905.28" y="400.9102">contributor (DID/profile)</text></g><!--class activity--><g class="entity" data-entity="activity" data-source-line="55" data-uid="ent0003" id="entity_activity"><rect fill="#B4E5D0" height="33.4375" rx="2.5" ry="2.5" style="stroke:#181818;stroke-width:0.5;" width="97.4492" x="638.5" y="270.125"/><ellipse cx="653.5" cy="286.8438" fill="#7E57C2" rx="11" ry="11" style="stroke:#181818;stroke-width:1;"/><path d="M650.6875,292.8438 L653.9063,292.8438 C656.9844,292.8438 659.0938,291.0625 659.0938,287.25 C659.0938,283.4375 656.9844,281.7656 653.75,281.7656 L650.6875,281.7656 L650.6875,292.8438 Z M653.2031,290.8281 L653.2031,283.7813 L653.6094,283.7813 C655.3438,283.7813 656.5156,284.5938 656.5156,287.25 C656.5156,289.9063 655.3438,290.8281 653.6094,290.8281 L653.2031,290.8281 Z " fill="#000000"/><text fill="#000000" font-family="sans-serif" font-size="20" font-weight="bold" lengthAdjust="spacing" textLength="65.4492" x="667.5" y="293.6797">activity</text></g><!--class attachment--><g class="entity" data-entity="attachment" data-source-line="72" data-uid="ent0004" id="entity_attachment"><rect fill="#F1F1F1" height="32" rx="2.5" ry="2.5" style="stroke:#181818;stroke-width:0.5;" width="103.4424" x="176.5" y="157.125"/><ellipse cx="191.5" cy="173.125" fill="#7E57C2" rx="11" ry="11" style="stroke:#181818;stroke-width:1;"/><path d="M188.6875,179.125 L191.9063,179.125 C194.9844,179.125 197.0938,177.3438 197.0938,173.5313 C197.0938,169.7188 194.9844,168.0469 191.75,168.0469 L188.6875,168.0469 L188.6875,179.125 Z M191.2031,177.1094 L191.2031,170.0625 L191.6094,170.0625 C193.3438,170.0625 194.5156,170.875 194.5156,173.5313 C194.5156,176.1875 193.3438,177.1094 191.6094,177.1094 L191.2031,177.1094 Z " fill="#000000"/><text fill="#000000" font-family="sans-serif" font-size="14" lengthAdjust="spacing" textLength="71.4424" x="205.5" y="177.9102">attachment</text></g><!--class measurement--><g class="entity" data-entity="measurement" data-source-line="86" data-uid="ent0005" id="entity_measurement"><rect fill="#F1F1F1" height="32" rx="2.5" ry="2.5" style="stroke:#181818;stroke-width:0.5;" width="118.4404" x="7" y="157.125"/><ellipse cx="22" cy="173.125" fill="#7E57C2" rx="11" ry="11" style="stroke:#181818;stroke-width:1;"/><path d="M19.1875,179.125 L22.4063,179.125 C25.4844,179.125 27.5938,177.3438 27.5938,173.5313 C27.5938,169.7188 25.4844,168.0469 22.25,168.0469 L19.1875,168.0469 L19.1875,179.125 Z M21.7031,177.1094 L21.7031,170.0625 L22.1094,170.0625 C23.8438,170.0625 25.0156,170.875 25.0156,173.5313 C25.0156,176.1875 23.8438,177.1094 22.1094,177.1094 L21.7031,177.1094 Z " fill="#000000"/><text fill="#000000" font-family="sans-serif" font-size="14" lengthAdjust="spacing" textLength="86.4404" x="36" y="177.9102">measurement</text></g><!--class evaluation--><g class="entity" data-entity="evaluation" data-source-line="101" data-uid="ent0006" id="entity_evaluation"><rect fill="#F1F1F1" height="32" rx="2.5" ry="2.5" style="stroke:#181818;stroke-width:0.5;" width="96.2578" x="259" y="56.125"/><ellipse cx="274" cy="72.125" fill="#7E57C2" rx="11" ry="11" style="stroke:#181818;stroke-width:1;"/><path d="M271.1875,78.125 L274.4063,78.125 C277.4844,78.125 279.5938,76.3438 279.5938,72.5313 C279.5938,68.7188 277.4844,67.0469 274.25,67.0469 L271.1875,67.0469 L271.1875,78.125 Z M273.7031,76.1094 L273.7031,69.0625 L274.1094,69.0625 C275.8438,69.0625 277.0156,69.875 277.0156,72.5313 C277.0156,75.1875 275.8438,76.1094 274.1094,76.1094 L273.7031,76.1094 Z " fill="#000000"/><text fill="#000000" font-family="sans-serif" font-size="14" lengthAdjust="spacing" textLength="64.2578" x="288" y="76.9102">evaluation</text></g><!--class contributorInformation--><g class="entity" data-entity="contributorInformation" data-source-line="115" data-uid="ent0007" id="entity_contributorInformation"><rect fill="#F1F1F1" height="32" rx="2.5" ry="2.5" style="stroke:#181818;stroke-width:0.5;" width="173.3877" x="414.5" y="270.625"/><ellipse cx="429.5" cy="286.625" fill="#7E57C2" rx="11" ry="11" style="stroke:#181818;stroke-width:1;"/><path d="M426.6875,292.625 L429.9063,292.625 C432.9844,292.625 435.0938,290.8438 435.0938,287.0313 C435.0938,283.2188 432.9844,281.5469 429.75,281.5469 L426.6875,281.5469 L426.6875,292.625 Z M429.2031,290.6094 L429.2031,283.5625 L429.6094,283.5625 C431.3438,283.5625 432.5156,284.375 432.5156,287.0313 C432.5156,289.6875 431.3438,290.6094 429.6094,290.6094 L429.2031,290.6094 Z " fill="#000000"/><text fill="#000000" font-family="sans-serif" font-size="14" lengthAdjust="spacing" textLength="141.3877" x="443.5" y="291.4102">contributorInformation</text></g><!--class contributionDetails--><g class="entity" data-entity="contributionDetails" data-source-line="125" data-uid="ent0008" id="entity_contributionDetails"><rect fill="#F1F1F1" height="32" rx="2.5" ry="2.5" style="stroke:#181818;stroke-width:0.5;" width="149.8926" x="691.05" y="380.125"/><ellipse cx="706.05" cy="396.125" fill="#7E57C2" rx="11" ry="11" style="stroke:#181818;stroke-width:1;"/><path d="M703.2375,402.125 L706.4563,402.125 C709.5344,402.125 711.6438,400.3438 711.6438,396.5313 C711.6438,392.7188 709.5344,391.0469 706.3,391.0469 L703.2375,391.0469 L703.2375,402.125 Z M705.7531,400.1094 L705.7531,393.0625 L706.1594,393.0625 C707.8938,393.0625 709.0656,393.875 709.0656,396.5313 C709.0656,399.1875 707.8938,400.1094 706.1594,400.1094 L705.7531,400.1094 Z " fill="#000000"/><text fill="#000000" font-family="sans-serif" font-size="14" lengthAdjust="spacing" textLength="117.8926" x="720.05" y="400.9102">contributionDetails</text></g><!--class location--><g class="entity" data-entity="location" data-source-line="136" data-uid="ent0009" id="entity_location"><rect fill="#F1F1F1" height="32" rx="2.5" ry="2.5" style="stroke:#181818;stroke-width:0.5;" width="82.0322" x="185.98" y="380.125"/><ellipse cx="200.98" cy="396.125" fill="#7E57C2" rx="11" ry="11" style="stroke:#181818;stroke-width:1;"/><path d="M198.1675,402.125 L201.3863,402.125 C204.4644,402.125 206.5738,400.3438 206.5738,396.5313 C206.5738,392.7188 204.4644,391.0469 201.23,391.0469 L198.1675,391.0469 L198.1675,402.125 Z M200.6831,400.1094 L200.6831,393.0625 L201.0894,393.0625 C202.8238,393.0625 203.9956,393.875 203.9956,396.5313 C203.9956,399.1875 202.8238,400.1094 201.0894,400.1094 L200.6831,400.1094 Z " fill="#000000"/><text fill="#000000" font-family="sans-serif" font-size="14" lengthAdjust="spacing" textLength="50.0322" x="214.98" y="400.9102">location</text></g><!--class badgeDefinition--><g class="entity" data-entity="badgeDefinition" data-source-line="149" data-uid="ent0010" id="entity_badgeDefinition"><rect fill="#F1F1F1" height="32" rx="2.5" ry="2.5" style="stroke:#181818;stroke-width:0.5;" width="130.376" x="1043.81" y="270.625"/><ellipse cx="1058.81" cy="286.625" fill="#7E57C2" rx="11" ry="11" style="stroke:#181818;stroke-width:1;"/><path d="M1055.9975,292.625 L1059.2163,292.625 C1062.2944,292.625 1064.4038,290.8438 1064.4038,287.0313 C1064.4038,283.2188 1062.2944,281.5469 1059.06,281.5469 L1055.9975,281.5469 L1055.9975,292.625 Z M1058.5131,290.6094 L1058.5131,283.5625 L1058.9194,283.5625 C1060.6538,283.5625 1061.8256,284.375 1061.8256,287.0313 C1061.8256,289.6875 1060.6538,290.6094 1058.9194,290.6094 L1058.5131,290.6094 Z " fill="#000000"/><text fill="#000000" font-family="sans-serif" font-size="14" lengthAdjust="spacing" textLength="98.376" x="1072.81" y="291.4102">badgeDefinition</text></g><!--class badgeAward--><g class="entity" data-entity="badgeAward" data-source-line="160" data-uid="ent0011" id="entity_badgeAward"><rect fill="#F1F1F1" height="32" rx="2.5" ry="2.5" style="stroke:#181818;stroke-width:0.5;" width="110.5654" x="1052" y="157.125"/><ellipse cx="1067" cy="173.125" fill="#7E57C2" rx="11" ry="11" style="stroke:#181818;stroke-width:1;"/><path d="M1064.1875,179.125 L1067.4063,179.125 C1070.4844,179.125 1072.5938,177.3438 1072.5938,173.5313 C1072.5938,169.7188 1070.4844,168.0469 1067.25,168.0469 L1064.1875,168.0469 L1064.1875,179.125 Z M1066.7031,177.1094 L1066.7031,170.0625 L1067.1094,170.0625 C1068.8438,170.0625 1070.0156,170.875 1070.0156,173.5313 C1070.0156,176.1875 1068.8438,177.1094 1067.1094,177.1094 L1066.7031,177.1094 Z " fill="#000000"/><text fill="#000000" font-family="sans-serif" font-size="14" lengthAdjust="spacing" textLength="78.5654" x="1081" y="177.9102">badgeAward</text></g><!--class badgeResponse--><g class="entity" data-entity="badgeResponse" data-source-line="169" data-uid="ent0012" id="entity_badgeResponse"><rect fill="#F1F1F1" height="32" rx="2.5" ry="2.5" style="stroke:#181818;stroke-width:0.5;" width="132.1602" x="1041" y="56.125"/><ellipse cx="1056" cy="72.125" fill="#7E57C2" rx="11" ry="11" style="stroke:#181818;stroke-width:1;"/><path d="M1053.1875,78.125 L1056.4063,78.125 C1059.4844,78.125 1061.5938,76.3438 1061.5938,72.5313 C1061.5938,68.7188 1059.4844,67.0469 1056.25,67.0469 L1053.1875,67.0469 L1053.1875,78.125 Z M1055.7031,76.1094 L1055.7031,69.0625 L1056.1094,69.0625 C1057.8438,69.0625 1059.0156,69.875 1059.0156,72.5313 C1059.0156,75.1875 1057.8438,76.1094 1056.1094,76.1094 L1055.7031,76.1094 Z " fill="#000000"/><text fill="#000000" font-family="sans-serif" font-size="14" lengthAdjust="spacing" textLength="100.1602" x="1070" y="76.9102">badgeResponse</text></g><!--class rights--><g class="entity" data-entity="rights" data-source-line="179" data-uid="ent0013" id="entity_rights"><rect fill="#F1F1F1" height="32" rx="2.5" ry="2.5" style="stroke:#181818;stroke-width:0.5;" width="67.5264" x="633.24" y="485.125"/><ellipse cx="648.24" cy="501.125" fill="#7E57C2" rx="11" ry="11" style="stroke:#181818;stroke-width:1;"/><path d="M645.4275,507.125 L648.6463,507.125 C651.7244,507.125 653.8338,505.3438 653.8338,501.5313 C653.8338,497.7188 651.7244,496.0469 648.49,496.0469 L645.4275,496.0469 L645.4275,507.125 Z M647.9431,505.1094 L647.9431,498.0625 L648.3494,498.0625 C650.0838,498.0625 651.2556,498.875 651.2556,501.5313 C651.2556,504.1875 650.0838,505.1094 648.3494,505.1094 L647.9431,505.1094 Z " fill="#000000"/><text fill="#000000" font-family="sans-serif" font-size="14" lengthAdjust="spacing" textLength="35.5264" x="662.24" y="505.9102">rights</text></g><!--class collection--><g class="entity" data-entity="collection" data-source-line="190" data-uid="ent0014" id="entity_collection"><rect fill="#F1F1F1" height="32" rx="2.5" ry="2.5" style="stroke:#181818;stroke-width:0.5;" width="92.5732" x="446" y="157.125"/><ellipse cx="461" cy="173.125" fill="#7E57C2" rx="11" ry="11" style="stroke:#181818;stroke-width:1;"/><path d="M458.1875,179.125 L461.4063,179.125 C464.4844,179.125 466.5938,177.3438 466.5938,173.5313 C466.5938,169.7188 464.4844,168.0469 461.25,168.0469 L458.1875,168.0469 L458.1875,179.125 Z M460.7031,177.1094 L460.7031,170.0625 L461.1094,170.0625 C462.8438,170.0625 464.0156,170.875 464.0156,173.5313 C464.0156,176.1875 462.8438,177.1094 461.1094,177.1094 L460.7031,177.1094 Z " fill="#000000"/><text fill="#000000" font-family="sans-serif" font-size="14" lengthAdjust="spacing" textLength="60.5732" x="475" y="177.9102">collection</text></g><!--class funder--><g class="entity" data-entity="funder" data-source-line="206" data-uid="ent0015" id="entity_funder"><rect fill="#FFD4A3" height="32" rx="2.5" ry="2.5" style="stroke:#181818;stroke-width:0.5;" width="72.3799" x="650.81" y="157.125"/><ellipse cx="665.81" cy="173.125" fill="#ADD1B2" rx="11" ry="11" style="stroke:#181818;stroke-width:1;"/><path d="M661.8725,179.125 L669.3881,179.125 L669.3881,177.0156 L664.3881,177.0156 L664.3881,174.4688 L668.4819,174.4688 L668.4819,172.375 L664.3881,172.375 L664.3881,170.1563 L669.2163,170.1563 L669.2163,168.0469 L661.8725,168.0469 L661.8725,179.125 Z " fill="#000000"/><text fill="#000000" font-family="sans-serif" font-size="14" lengthAdjust="spacing" textLength="40.3799" x="679.81" y="177.9102">funder</text></g><!--class fundingReceipt--><g class="entity" data-entity="fundingReceipt" data-source-line="213" data-uid="ent0016" id="entity_fundingReceipt"><rect fill="#F1F1F1" height="32" rx="2.5" ry="2.5" style="stroke:#181818;stroke-width:0.5;" width="125.8574" x="848.5" y="56.125"/><ellipse cx="863.5" cy="72.125" fill="#7E57C2" rx="11" ry="11" style="stroke:#181818;stroke-width:1;"/><path d="M860.6875,78.125 L863.9063,78.125 C866.9844,78.125 869.0938,76.3438 869.0938,72.5313 C869.0938,68.7188 866.9844,67.0469 863.75,67.0469 L860.6875,67.0469 L860.6875,78.125 Z M863.2031,76.1094 L863.2031,69.0625 L863.6094,69.0625 C865.3438,69.0625 866.5156,69.875 866.5156,72.5313 C866.5156,75.1875 865.3438,76.1094 863.6094,76.1094 L863.2031,76.1094 Z " fill="#000000"/><text fill="#000000" font-family="sans-serif" font-size="14" lengthAdjust="spacing" textLength="93.8574" x="877.5" y="76.9102">fundingReceipt</text></g><!--class token--><g class="entity" data-entity="token" data-source-line="234" data-uid="ent0017" id="entity_token"><rect fill="#FFB6C1" height="33.4375" rx="2.5" ry="2.5" style="stroke:#181818;stroke-width:0.5;" width="82.7617" x="758.62" y="156.405"/><ellipse cx="773.62" cy="173.1237" fill="#F1F1F1" rx="11" ry="11" style="stroke:#181818;stroke-width:1;"/><path d="M770.4013,179.1237 L772.9013,179.1237 L772.9013,175.3737 L774.3231,175.3737 C776.6669,175.3737 778.6513,174.2175 778.6513,171.6081 C778.6513,168.9206 776.7138,168.0456 774.3231,168.0456 L770.4013,168.0456 L770.4013,179.1237 Z M772.9013,173.3737 L772.9013,170.03 L774.1669,170.03 C775.495,170.03 776.2138,170.4519 776.2138,171.6081 C776.2138,172.7644 775.5419,173.3737 774.1669,173.3737 L772.9013,173.3737 Z " fill="#000000"/><text fill="#000000" font-family="sans-serif" font-size="20" font-weight="bold" lengthAdjust="spacing" textLength="50.7617" x="787.62" y="179.9597">token</text></g><!--class hiddenLocation1--><g class="entity" data-entity="hiddenLocation1" data-source-line="267" data-uid="ent0021" id="entity_hiddenLocation1"><rect fill="none" height="26.4063" rx="2.5" ry="2.5" style="stroke:none;stroke-width:0.5;" width="9.4727" x="322.26" y="159.925"/><text fill="#000000" font-family="sans-serif" font-size="14" lengthAdjust="spacing" textLength="3.4727" x="325.26" y="177.9133">&#160;</text></g><!--link evaluation to attachment--><g class="link" data-entity-1="evaluation" data-entity-2="attachment" data-source-line="254" data-uid="lnk18" id="link_evaluation_attachment"><path codeLine="254" d="M292.14,91.745 C278.11,109.335 260.9023,130.8951 246.8023,148.5651" fill="none" id="evaluation-to-attachment" style="stroke:#666666;stroke-width:1;"/><polygon fill="#666666" points="243.06,153.255,251.8001,148.7151,246.1786,149.3468,245.5469,143.7253,243.06,153.255" style="stroke:#666666;stroke-width:1;"/></g><!--link evaluation to measurement--><g class="link" data-entity-1="evaluation" data-entity-2="measurement" data-source-line="255" data-uid="lnk19" id="link_evaluation_measurement"><path codeLine="255" d="M260.82,92.095 C218.04,109.665 160.3101,133.3855 117.5801,150.9355" fill="none" id="evaluation-to-measurement" style="stroke:#666666;stroke-width:1;"/><polygon fill="#666666" points="112.03,153.215,121.8749,153.4958,116.6551,151.3154,118.8355,146.0956,112.03,153.215" style="stroke:#666666;stroke-width:1;"/></g><!--link evaluation to activity--><g class="link" data-entity-1="evaluation" data-entity-2="activity" data-source-line="256" data-uid="lnk20" id="link_evaluation_activity"><path codeLine="256" d="M320.17,92.045 C339.31,118.245 377.24,165.445 420,193.125 C455.37,216.015 557.7034,248.1333 625.0134,267.9133" fill="none" id="evaluation-to-activity" style="stroke:#666666;stroke-width:1;"/><polygon fill="#666666" points="630.77,269.605,623.2629,263.2298,625.9728,268.1953,621.0073,270.9052,630.77,269.605" style="stroke:#666666;stroke-width:1;"/></g><!--link evaluation to hiddenLocation1--><g class="link" data-entity-1="evaluation" data-entity-2="hiddenLocation1" data-source-line="269" data-uid="lnk22" id="link_evaluation_hiddenLocation1"><path codeLine="269" d="M310.76,91.745 C314.77,111.575 319.8134,136.5235 323.2734,153.6735" fill="none" id="evaluation-to-hiddenLocation1" style="stroke:#666666;stroke-width:1;"/><polygon fill="#666666" points="324.46,159.555,326.6011,149.9417,323.4712,154.6538,318.7591,151.5238,324.46,159.555" style="stroke:#666666;stroke-width:1;"/></g><!--link attachment to activity--><g class="link" data-entity-1="attachment" data-entity-2="activity" data-source-line="278" data-uid="lnk23" id="link_attachment_activity"><path codeLine="278" d="M262.36,193.075 C289.64,207.245 329.18,225.875 366,236.125 C472.53,265.785 504.39,245.325 613,266.125 C618.74,267.225 618.8589,267.1535 624.7789,268.5435" fill="none" id="attachment-to-activity" style="stroke:#666666;stroke-width:1;"/><polygon fill="#666666" points="630.62,269.915,622.7726,263.9637,625.7524,268.7721,620.944,271.7519,630.62,269.915" style="stroke:#666666;stroke-width:1;"/></g><!--link attachment to location--><g class="link" data-entity-1="attachment" data-entity-2="location" data-source-line="279" data-uid="lnk24" id="link_attachment_location"><path codeLine="279" d="M227.91,192.965 C227.72,235.865 227.2774,334.1651 227.0974,373.6351" fill="none" id="attachment-to-location" style="stroke:#666666;stroke-width:1;"/><polygon fill="#666666" points="227.07,379.635,231.111,370.6533,227.0928,374.6351,223.1111,370.6169,227.07,379.635" style="stroke:#666666;stroke-width:1;"/></g><!--link measurement to activity--><g class="link" data-entity-1="measurement" data-entity-2="activity" data-source-line="281" data-uid="lnk25" id="link_measurement_activity"><path codeLine="281" d="M132.85,192.685 C184.86,206.495 259.03,224.845 325,236.125 C451.85,257.815 486.4,242.995 613,266.125 C618.75,267.175 618.864,267.0944 624.794,268.4644" fill="none" id="measurement-to-activity" style="stroke:#666666;stroke-width:1;"/><polygon fill="#666666" points="630.64,269.815,622.7714,263.8918,625.7683,268.6895,620.9706,271.6864,630.64,269.815" style="stroke:#666666;stroke-width:1;"/></g><!--link measurement to location--><g class="link" data-entity-1="measurement" data-entity-2="location" data-source-line="291" data-uid="lnk26" id="link_measurement_location"><path codeLine="291" d="M79.73,192.965 C110.98,235.865 183.4266,335.3158 212.1866,374.7858" fill="none" id="measurement-to-location" style="stroke:#666666;stroke-width:1;"/><polygon fill="#666666" points="215.72,379.635,213.6527,370.0056,212.7755,375.594,207.1871,374.7168,215.72,379.635" style="stroke:#666666;stroke-width:1;"/></g><!--link collection to activity--><g class="link" data-entity-1="collection" data-entity-2="activity" data-source-line="294" data-uid="lnk27" id="link_collection_activity"><path codeLine="294" d="M525.08,193.035 C560.72,213.415 611.9416,242.7063 647.8916,263.2663" fill="none" id="collection-to-activity" style="stroke:#666666;stroke-width:1;"/><polygon fill="#666666" points="653.1,266.245,647.2732,258.3047,648.7597,263.7627,643.3016,265.2492,653.1,266.245" style="stroke:#666666;stroke-width:1;"/></g><!--link collection to collection--><g class="link" data-entity-1="collection" data-entity-2="collection" data-source-line="295" data-uid="lnk28" id="link_collection_collection"><path codeLine="295" d="M545.88,163.665 C565.23,163.465 581,166.615 581,173.125 C581,179.635 571.2297,182.847 551.8797,182.647" fill="none" id="collection-to-collection" style="stroke:#666666;stroke-width:1;"/><polygon fill="#666666" points="545.88,182.585,554.8382,186.6778,550.8797,182.6367,554.9209,178.6782,545.88,182.585" style="stroke:#666666;stroke-width:1;"/><text fill="#666666" font-family="sans-serif" font-size="10" lengthAdjust="spacing" textLength="40.5664" x="587" y="170.9023">recursive</text><text fill="#666666" font-family="sans-serif" font-size="10" lengthAdjust="spacing" textLength="32.8271" x="590.8696" y="182.6211">nesting</text></g><!--link collection to location--><g class="link" data-entity-1="collection" data-entity-2="location" data-source-line="296" data-uid="lnk29" id="link_collection_location"><path codeLine="296" d="M469.41,192.965 C417.96,235.865 297.5184,336.3227 250.1784,375.7927" fill="none" id="collection-to-location" style="stroke:#666666;stroke-width:1;"/><polygon fill="#666666" points="245.57,379.635,255.0441,376.9439,249.4103,376.4331,249.9211,370.7994,245.57,379.635" style="stroke:#666666;stroke-width:1;"/></g><!--reverse link contributorInformation to activity--><g class="link" data-entity-1="contributorInformation" data-entity-2="activity" data-source-line="298" data-uid="lnk31" id="link_contributorInformation_activity"><path codeLine="298" d="M601.45,286.625 C613.25,286.625 619.06,286.625 630.86,286.625" fill="none" id="contributorInformation-backto-activity" style="stroke:#666666;stroke-width:1;"/><polygon fill="#666666" points="595.45,286.625,604.45,290.625,600.45,286.625,604.45,282.625,595.45,286.625" style="stroke:#666666;stroke-width:1;"/></g><!--link activity to contributionDetails--><g class="link" data-entity-1="activity" data-entity-2="contributionDetails" data-source-line="299" data-uid="lnk32" id="link_activity_contributionDetails"><path codeLine="299" d="M701.12,306.845 C716.48,327.735 737.1573,355.8699 751.2573,375.0599" fill="none" id="activity-to-contributionDetails" style="stroke:#666666;stroke-width:1;"/><polygon fill="#666666" points="754.81,379.895,752.7044,370.2738,751.8495,375.8657,746.2576,375.0107,754.81,379.895" style="stroke:#666666;stroke-width:1;"/></g><!--link activity to rights--><g class="link" data-entity-1="activity" data-entity-2="rights" data-source-line="300" data-uid="lnk33" id="link_activity_rights"><path codeLine="300" d="M683.8,307.055 C680.83,325.735 676.52,354.785 674,380.125 C670.27,417.715 668.5257,456.1389 667.7057,478.9389" fill="none" id="activity-to-rights" style="stroke:#666666;stroke-width:1;"/><polygon fill="#666666" points="667.49,484.935,671.8109,476.0846,667.6697,479.9382,663.8161,475.797,667.49,484.935" style="stroke:#666666;stroke-width:1;"/></g><!--link activity to location--><g class="link" data-entity-1="activity" data-entity-2="location" data-source-line="301" data-uid="lnk34" id="link_activity_location"><path codeLine="301" d="M630.89,302.625 C624.86,304.175 618.81,305.695 613,307.125 C487.85,337.875 344.8224,369.5076 274.1024,384.9176" fill="none" id="activity-to-location" style="stroke:#666666;stroke-width:1;"/><polygon fill="#666666" points="268.24,386.195,277.8853,388.1871,273.1254,385.1305,276.182,380.3706,268.24,386.195" style="stroke:#666666;stroke-width:1;"/></g><!--link contributorInformation to contributorEntity--><g class="link" data-entity-1="contributorInformation" data-entity-2="contributorEntity" data-source-line="303" data-uid="lnk35" id="link_contributorInformation_contributorEntity"><path codeLine="303" d="M583.24,306.595 C673.38,327.395 810.4437,359.0058 894.0737,378.3058" fill="none" id="contributorInformation-to-contributorEntity" style="stroke:#666666;stroke-width:1;"/><polygon fill="#666666" points="899.92,379.655,892.05,373.7336,895.0481,378.5307,890.251,381.5287,899.92,379.655" style="stroke:#666666;stroke-width:1;"/><text fill="#666666" font-family="sans-serif" font-size="10" lengthAdjust="spacing" textLength="40.9717" x="762.9" y="347.4023">identifies</text></g><!--link token to activity--><g class="link" data-entity-1="token" data-entity-2="activity" data-source-line="307" data-uid="lnk36" id="link_token_activity"><path codeLine="307" d="M783.81,190.105 C763.43,210.215 732.7109,240.5208 710.8509,262.0908" fill="none" id="token-to-activity" style="stroke:#666666;stroke-width:1;stroke-dasharray:7,7;"/><polygon fill="#666666" points="706.58,266.305,715.7958,262.8309,710.1391,262.7932,710.1768,257.1364,706.58,266.305" style="stroke:#666666;stroke-width:1;"/><text fill="#666666" font-family="sans-serif" font-size="10" lengthAdjust="spacing" textLength="42.7246" x="751.27" y="233.4023">tokenizes</text></g><!--link funder to activity--><g class="link" data-entity-1="funder" data-entity-2="activity" data-source-line="308" data-uid="lnk37" id="link_funder_activity"><path codeLine="308" d="M687,189.165 C687,209.135 687,238.435 687,260.345" fill="none" id="funder-to-activity" style="stroke:#666666;stroke-width:1;stroke-dasharray:7,7;"/><polygon fill="#666666" points="687,266.345,691,257.345,687,261.345,683,257.345,687,266.345" style="stroke:#666666;stroke-width:1;"/><text fill="#666666" font-family="sans-serif" font-size="10" lengthAdjust="spacing" textLength="25.3125" x="688" y="233.4023">funds</text></g><!--link contributorEntity to rights--><g class="link" data-entity-1="contributorEntity" data-entity-2="rights" data-source-line="309" data-uid="lnk38" id="link_contributorEntity_rights"><path codeLine="309" d="M922.09,412.545 C861.61,433.305 761.0047,467.8463 706.6947,486.4963" fill="none" id="contributorEntity-to-rights" style="stroke:#666666;stroke-width:1;stroke-dasharray:7,7;"/><polygon fill="#666666" points="701.02,488.445,710.8312,489.3051,705.7489,486.8211,708.233,481.7388,701.02,488.445" style="stroke:#666666;stroke-width:1;"/><text fill="#666666" font-family="sans-serif" font-size="10" lengthAdjust="spacing" textLength="16.1084" x="835.96" y="452.4023">has</text></g><!--link fundingReceipt to funder--><g class="link" data-entity-1="fundingReceipt" data-entity-2="funder" data-source-line="315" data-uid="lnk39" id="link_fundingReceipt_funder"><path codeLine="315" d="M868.08,92.095 C825.65,110.845 767.0081,136.77 727.5381,154.21" fill="none" id="fundingReceipt-to-funder" style="stroke:#666666;stroke-width:1;"/><polygon fill="#666666" points="722.05,156.635,731.8988,156.6563,726.6234,154.6142,728.6656,149.3388,722.05,156.635" style="stroke:#666666;stroke-width:1;"/></g><!--link fundingReceipt to contributorEntity--><g class="link" data-entity-1="fundingReceipt" data-entity-2="contributorEntity" data-source-line="316" data-uid="lnk40" id="link_fundingReceipt_contributorEntity"><path codeLine="316" d="M915.43,91.685 C917.55,100.825 920.04,112.025 922,122.125 C940.98,219.725 957.8241,332.0478 963.9041,373.7378" fill="none" id="fundingReceipt-to-contributorEntity" style="stroke:#666666;stroke-width:1;"/><polygon fill="#666666" points="964.77,379.675,967.4293,370.192,964.0484,374.7273,959.5131,371.3465,964.77,379.675" style="stroke:#666666;stroke-width:1;"/></g><!--link fundingReceipt to activity--><g class="link" data-entity-1="fundingReceipt" data-entity-2="activity" data-source-line="318" data-uid="lnk41" id="link_fundingReceipt_activity"><path codeLine="318" d="M906.18,91.755 C899.02,116.775 883.71,161.725 859,193.125 C829.75,230.295 786.9282,252.3189 748.8882,266.5789" fill="none" id="fundingReceipt-to-activity" style="stroke:#666666;stroke-width:1;"/><polygon fill="#666666" points="743.27,268.685,753.1014,269.2713,747.9518,266.9299,750.2933,261.7804,743.27,268.685" style="stroke:#666666;stroke-width:1;"/><text fill="#666666" font-family="sans-serif" font-size="10" lengthAdjust="spacing" textLength="25.3125" x="883.72" y="176.9023">funds</text></g><!--link badgeAward to badgeDefinition--><g class="link" data-entity-1="badgeAward" data-entity-2="badgeDefinition" data-source-line="320" data-uid="lnk42" id="link_badgeAward_badgeDefinition"><path codeLine="320" d="M1107.34,193.035 C1107.73,214.785 1108.2528,244.066 1108.6128,264.216" fill="none" id="badgeAward-to-badgeDefinition" style="stroke:#666666;stroke-width:1;"/><polygon fill="#666666" points="1108.72,270.215,1112.5586,261.145,1108.6307,265.2158,1104.5599,261.2879,1108.72,270.215" style="stroke:#666666;stroke-width:1;"/></g><!--link badgeResponse to badgeAward--><g class="link" data-entity-1="badgeResponse" data-entity-2="badgeAward" data-source-line="321" data-uid="lnk43" id="link_badgeResponse_badgeAward"><path codeLine="321" d="M1107,91.745 C1107,109.335 1107,129.585 1107,147.255" fill="none" id="badgeResponse-to-badgeAward" style="stroke:#666666;stroke-width:1;"/><polygon fill="#666666" points="1107,153.255,1111,144.255,1107,148.255,1103,144.255,1107,153.255" style="stroke:#666666;stroke-width:1;"/></g><!--link badgeAward to contributorInformation--><g class="link" data-entity-1="badgeAward" data-entity-2="contributorInformation" data-source-line="322" data-uid="lnk44" id="link_badgeAward_contributorInformation"><path codeLine="322" d="M1044.07,187.745 C982.5,200.875 886.01,220.925 802,236.125 C718.31,251.265 696.9,252.165 613,266.125 C607.26,267.085 607.2657,267.0725 601.3057,268.0825" fill="none" id="badgeAward-to-contributorInformation" style="stroke:#666666;stroke-width:1;"/><polygon fill="#666666" points="595.39,269.085,604.9318,271.525,600.3197,268.2496,603.5952,263.6375,595.39,269.085" style="stroke:#666666;stroke-width:1;"/></g><!--link badgeAward to activity--><g class="link" data-entity-1="badgeAward" data-entity-2="activity" data-source-line="323" data-uid="lnk45" id="link_badgeAward_activity"><path codeLine="323" d="M1073.56,193.075 C1047.68,206.965 1010.55,225.215 976,236.125 C897.36,260.955 808.4855,273.5425 749.4355,279.9025" fill="none" id="badgeAward-to-activity" style="stroke:#666666;stroke-width:1;"/><polygon fill="#666666" points="743.47,280.545,752.8466,283.5582,748.4412,280.0096,751.9899,275.6042,743.47,280.545" style="stroke:#666666;stroke-width:1;"/></g><!--SRC=[lLbjRzis4FwkNy5u7vnWizjcNJyOMOeaJjO0GJCusVQXAmf6EjjS954ZgRZkqF- -EvAIAFabJbRCA1hh-7OlpzqzbFlilSo1oIapSz30T5aKKXd6bP8BpQGICv5p8_8PcogPCP4dua4a9K_PL42QwAY_LoW-opXB-LAMXkaC3C_vYXpI-nNPW_ZobuuY8qmAhFTkMO2A0Ky_dunxKTHdPpAVYbcfK06PimUk1BzBGKTxOfedC6Ktxwx_-7HnUNurledsK23Gb436fZpL4Eq1AZsDQ1NR3uT__fdrx9JUGJGN2J382hEi3FFBWW6qR2vnn8gq0GNIeCveGNNuvFpto_C_FfrTNrrFs7SN5nSdP-Dwy6GokQx7tjXF51rfiqpXE4faN6QG6_PFnF3ZNEA-q-T2vkP6V05s-BejezNiJgQ95N-DlaPnohKU2pvJFFCxs6W6krsXEcSobIhKgRNlzb6hoQkN_aZwVvXoDODJr2CuPWuy0HK8sfQyN9MthMcs9xkENdXNEM0O9UvA8vL6wu0fA1JYDpUGiBib6r-E2RniNcOy7oZKWu23CLE8PCGieLt1LEBAHB9S6jpWxrBWOoOJI5F2-uFW394AdqKiys64Uml4G2zkZcRxUCwBGicfIE6WnxXcmUYvMu0e6By- -T5xOIq6ZIe9WZIE6vBUMiO2KynlpNwRNBhL3f9VoGLIpORpAcFq4ACkiY6F3QOddZf02uLc-0yjPHaNELeOIvNWojfNP2LdzIR3AE66M_YmUgEZepgonyVikzFNvp-DN-veZ0Mn_QRdM5J6e6Cb2ifbAqoQvxTM838-0_Tr8TNzJImB_wWDn_NS-4TqG_CGk5n_-EXagOnjpQW5MCVcHli5Y0V4oOdPqQS6dJAdt0pzKmjtz8Kkx_w2sDGAaTQu-dPPG4lmuUCZhdkxtdULnSyoCGEkImKT6mFfqunqElZb51J_Z66AxTS7dfPG2R6aDbvmpuXt7sZiDP37W89kQ9zbAD39TdbWPoDyZfcwp3AkbbvTkvEiRQw3sd89URG6WiQiXFzkMP05bpaMjgnhvVe9ErfCKJ026wFoy1Ewm1x-dcUmahhFLHor6IDr4AbUftKpkgFAIgRT0c7twEJDrigoqH9U54CoWboI3Al01NfNeXsLJOlVCL6gmgYLRW62qgCbi0zvxVoLOh1PyRDAQNR7anbejaywCwVqzumlk4hmB_Q70gid70GcsGLZeZBY2PRPLRK1JLcZfhfUUPwcSW79fTObD1LzaqaT_Kwi0KzGBKnevrRvMFWxHqwyhvvogbNJmTIlTbqFg4qzAurSWmjqSu9TayLEfdGE7kkekSTk-svQu3FpFatHvzqYLGbtfHXrvtXAnsJxLy2dAH3jc_eAPo2hglQEXTZ86H2FH5NHo8iIhoJ_DnkTsaEVnp6fVhmeD9I9p9VPOq6Zar2F8R98G2y6CVCZ4pUmQzoa_KDtIlT5-ix2CrdcpjLngHGsVzTQ2xuag4sm0xmD1U_145Vq650yrzpYvp9vMwUpvtqojZjY91y9x5VMfqR0gW2JEzvVtvwFQbADJqqqVc3OM_1cZ3T2dX2Y2C88X9p9F9uZzQO8otl8nHVN4_2sZOCrnNR4VCZOZKGO8WImB1C8SW2Yw_KvBAcBxp32gu6Hc2vkvovDlxWuVNFsQiTOxCjyOFL4VTFbmGeI_6LzBf2rHFs0BGq6oGUy2oCt-3Wu3kh1baaXq-o71BEzbNTDr0zuza1jsgUvzOHJh6FQEwm_8oWwcxIe3oY3yO1HRPfID-nWF3p2L-r-I57QLhGEwQJQOCEyg77_QEHx6yQX5Q9mIaXBxRpGknltgho32BdC2gcreA9c9CEaSObYtopbR26GqzER8Kou1TMoih2tKeUh42oZKSsR1eCFkSHqlc-v4S_IiawrZDy3faV2yvcjaUurHwdzlTRwnb6RID-BlE3qHiGLBPSPfpo-doaiE8bztt5qzCjSQeC9T4k51EU3BqMdcA2W7fdaBlnR9lbtCwp7xBi2f-2Lj-qLgnUv5qpTuLYe63lS1cyTT-T7szA-pqvIT2Ja56ORZD1RLE6qp611ROdrK8m-Cj2ZuDQXwAetM9SvUq0luFnftmebb48LDa9mLE_v6fJNYDLjo8OpMZviW1Qam6RStrWdSLHQP08BSBgaHjQwEBSrt1AIBT0ut0wDmmeQBPstOEFmsyV_i1N_82GK_yt-y15hAl1eP8bOszFhXuEoFM8zRA8btg0UuCyy1qsljdgjTHl2N9qn6eMlaTWW7RHhQdYdthGcN15SPflfdf8FciBVZDLlh3eAhjS1_L3Vo5b7LV_USTHSsZLXzTQ-tyTaSnIL28QZn7UEfF9ysIOqD8jZH8a7EOwArtxtLfb0ZaXH51p7FuR39bvujASxUB9dg9rnakfeLMcQvhqqOdCUA8uipshaIJDRp4KynwAHfiIuW8YY0t9C_14Kbbopx1EvzdItGxw9_R9zON_tMFQzGn0U9xU_4hCw6EBATtWFVK3b5tGidOHa7Dsba3LYffVqSubCHLBzM787CISXxKYwuWxmkKX5Z3UJPU1igdH8jaZPJaElwNrRFXhPtruepiwTA-EOc6jH4Atk95KhkUfWHCt5T3Iot-sypgq_Qbrv_KHtwQvdkyjjk5rOFpSarQRf3Gb3851TelQWkyrX_Ug0GGItpNy1]--></g></svg>