<svg xmlns="http://www.w3.org/2000/svg" xmlns:xlink="http://www.w3.org/1999/xlink" contentStyleType="text/css" data-diagram-type="CLASS" height="435px" preserveAspectRatio="none" style="width:837px;height:435px;background:#FFFFFF;" version="1.1" viewBox="0 0 837 435" width="837px" zoomAndPan="magnify"><title>Hypercert ERD</title><defs/><g><g class="title" data-source-line="1"><text fill="#000000" font-family="sans-serif" font-size="24" font-weight="bold" lengthAdjust="spacing" textLength="157.0547" x="333.3477" y="32.2656">Hypercert ERD</text></g><!--class contributor--><g class="entity" data-entity="contributor" data-source-line="39" data-uid="ent0002" id="entity_contributor"><rect fill="#FFD4A3" height="32" rx="2.5" ry="2.5" style="stroke:#181818;stroke-width:0.5;" width="100.6602" x="43.43" y="56.125"/><ellipse cx="58.43" cy="72.125" fill="#ADD1B2" rx="11" ry="11" style="stroke:#181818;stroke-width:1;"/><path d="M54.4925,78.125 L62.0081,78.125 L62.0081,76.0156 L57.0081,76.0156 L57.0081,73.4688 L61.1019,73.4688 L61.1019,71.375 L57.0081,71.375 L57.0081,69.1563 L61.8363,69.1563 L61.8363,67.0469 L54.4925,67.0469 L54.4925,78.125 Z " fill="#000000"/><text fill="#000000" font-family="sans-serif" font-size="14" lengthAdjust="spacing" textLength="68.6602" x="72.43" y="76.9102">contributor</text></g><!--class activity--><g class="entity" data-entity="activity" data-source-line="45" data-uid="ent0003" id="entity_activity"><rect fill="#B4E5D0" height="33.4375" rx="2.5" ry="2.5" style="stroke:#181818;stroke-width:0.5;" width="97.4492" x="254.26" y="282.125"/><ellipse cx="269.26" cy="298.8438" fill="#7E57C2" rx="11" ry="11" style="stroke:#181818;stroke-width:1;"/><path d="M266.4475,304.8438 L269.6663,304.8438 C272.7444,304.8438 274.8538,303.0625 274.8538,299.25 C274.8538,295.4375 272.7444,293.7656 269.51,293.7656 L266.4475,293.7656 L266.4475,304.8438 Z M268.9631,302.8281 L268.9631,295.7813 L269.3694,295.7813 C271.1038,295.7813 272.2756,296.5938 272.2756,299.25 C272.2756,301.9063 271.1038,302.8281 269.3694,302.8281 L268.9631,302.8281 Z " fill="#000000"/><text fill="#000000" font-family="sans-serif" font-size="20" font-weight="bold" lengthAdjust="spacing" textLength="65.4492" x="283.26" y="305.6797">activity</text></g><!--class evidence--><g class="entity" data-entity="evidence" data-source-line="62" data-uid="ent0004" id="entity_evidence"><rect fill="#F1F1F1" height="32" rx="2.5" ry="2.5" style="stroke:#181818;stroke-width:0.5;" width="87.4121" x="259.26" y="396.125"/><ellipse cx="274.26" cy="412.125" fill="#7E57C2" rx="11" ry="11" style="stroke:#181818;stroke-width:1;"/><path d="M271.4475,418.125 L274.6663,418.125 C277.7444,418.125 279.8538,416.3438 279.8538,412.5313 C279.8538,408.7188 277.7444,407.0469 274.51,407.0469 L271.4475,407.0469 L271.4475,418.125 Z M273.9631,416.1094 L273.9631,409.0625 L274.3694,409.0625 C276.1038,409.0625 277.2756,409.875 277.2756,412.5313 C277.2756,415.1875 276.1038,416.1094 274.3694,416.1094 L273.9631,416.1094 Z " fill="#000000"/><text fill="#000000" font-family="sans-serif" font-size="14" lengthAdjust="spacing" textLength="55.4121" x="288.26" y="416.9102">evidence</text></g><!--class measurements--><g class="entity" data-entity="measurements" data-source-line="73" data-uid="ent0005" id="entity_measurements"><rect fill="#F1F1F1" height="32" rx="2.5" ry="2.5" style="stroke:#181818;stroke-width:0.5;" width="125.666" x="625.26" y="169.125"/><ellipse cx="640.26" cy="185.125" fill="#7E57C2" rx="11" ry="11" style="stroke:#181818;stroke-width:1;"/><path d="M637.4475,191.125 L640.6663,191.125 C643.7444,191.125 645.8538,189.3438 645.8538,185.5313 C645.8538,181.7188 643.7444,180.0469 640.51,180.0469 L637.4475,180.0469 L637.4475,191.125 Z M639.9631,189.1094 L639.9631,182.0625 L640.3694,182.0625 C642.1038,182.0625 643.2756,182.875 643.2756,185.5313 C643.2756,188.1875 642.1038,189.1094 640.3694,189.1094 L639.9631,189.1094 Z " fill="#000000"/><text fill="#000000" font-family="sans-serif" font-size="14" lengthAdjust="spacing" textLength="93.666" x="654.26" y="189.9102">measurements</text></g><!--class evaluations--><g class="entity" data-entity="evaluations" data-source-line="86" data-uid="ent0006" id="entity_evaluations"><rect fill="#F1F1F1" height="32" rx="2.5" ry="2.5" style="stroke:#181818;stroke-width:0.5;" width="103.4834" x="446.26" y="56.125"/><ellipse cx="461.26" cy="72.125" fill="#7E57C2" rx="11" ry="11" style="stroke:#181818;stroke-width:1;"/><path d="M458.4475,78.125 L461.6663,78.125 C464.7444,78.125 466.8538,76.3438 466.8538,72.5313 C466.8538,68.7188 464.7444,67.0469 461.51,67.0469 L458.4475,67.0469 L458.4475,78.125 Z M460.9631,76.1094 L460.9631,69.0625 L461.3694,69.0625 C463.1038,69.0625 464.2756,69.875 464.2756,72.5313 C464.2756,75.1875 463.1038,76.1094 461.3694,76.1094 L460.9631,76.1094 Z " fill="#000000"/><text fill="#000000" font-family="sans-serif" font-size="14" lengthAdjust="spacing" textLength="71.4834" x="475.26" y="76.9102">evaluations</text></g><!--class contributions--><g class="entity" data-entity="contributions" data-source-line="97" data-uid="ent0007" id="entity_contributions"><rect fill="#F1F1F1" height="32" rx="2.5" ry="2.5" style="stroke:#181818;stroke-width:0.5;" width="114.2773" x="245.76" y="169.125"/><ellipse cx="260.76" cy="185.125" fill="#7E57C2" rx="11" ry="11" style="stroke:#181818;stroke-width:1;"/><path d="M257.9475,191.125 L261.1663,191.125 C264.2444,191.125 266.3538,189.3438 266.3538,185.5313 C266.3538,181.7188 264.2444,180.0469 261.01,180.0469 L257.9475,180.0469 L257.9475,191.125 Z M260.4631,189.1094 L260.4631,182.0625 L260.8694,182.0625 C262.6038,182.0625 263.7756,182.875 263.7756,185.5313 C263.7756,188.1875 262.6038,189.1094 260.8694,189.1094 L260.4631,189.1094 Z " fill="#000000"/><text fill="#000000" font-family="sans-serif" font-size="14" lengthAdjust="spacing" textLength="82.2773" x="274.76" y="189.9102">contributions</text></g><!--class location--><g class="entity" data-entity="location" data-source-line="109" data-uid="ent0008" id="entity_location"><rect fill="#F1F1F1" height="32" rx="2.5" ry="2.5" style="stroke:#181818;stroke-width:0.5;" width="82.0322" x="646.75" y="396.125"/><ellipse cx="661.75" cy="412.125" fill="#7E57C2" rx="11" ry="11" style="stroke:#181818;stroke-width:1;"/><path d="M658.9375,418.125 L662.1563,418.125 C665.2344,418.125 667.3438,416.3438 667.3438,412.5313 C667.3438,408.7188 665.2344,407.0469 662,407.0469 L658.9375,407.0469 L658.9375,418.125 Z M661.4531,416.1094 L661.4531,409.0625 L661.8594,409.0625 C663.5938,409.0625 664.7656,409.875 664.7656,412.5313 C664.7656,415.1875 663.5938,416.1094 661.8594,416.1094 L661.4531,416.1094 Z " fill="#000000"/><text fill="#000000" font-family="sans-serif" font-size="14" lengthAdjust="spacing" textLength="50.0322" x="675.75" y="416.9102">location</text></g><!--class rights--><g class="entity" data-entity="rights" data-source-line="121" data-uid="ent0009" id="entity_rights"><rect fill="#F1F1F1" height="32" rx="2.5" ry="2.5" style="stroke:#181818;stroke-width:0.5;" width="67.5264" x="7" y="396.125"/><ellipse cx="22" cy="412.125" fill="#7E57C2" rx="11" ry="11" style="stroke:#181818;stroke-width:1;"/><path d="M19.1875,418.125 L22.4063,418.125 C25.4844,418.125 27.5938,416.3438 27.5938,412.5313 C27.5938,408.7188 25.4844,407.0469 22.25,407.0469 L19.1875,407.0469 L19.1875,418.125 Z M21.7031,416.1094 L21.7031,409.0625 L22.1094,409.0625 C23.8438,409.0625 25.0156,409.875 25.0156,412.5313 C25.0156,415.1875 23.8438,416.1094 22.1094,416.1094 L21.7031,416.1094 Z " fill="#000000"/><text fill="#000000" font-family="sans-serif" font-size="14" lengthAdjust="spacing" textLength="35.5264" x="36" y="416.9102">rights</text></g><!--class collection--><g class="entity" data-entity="collection" data-source-line="130" data-uid="ent0010" id="entity_collection"><rect fill="#F1F1F1" height="32" rx="2.5" ry="2.5" style="stroke:#181818;stroke-width:0.5;" width="92.5732" x="481.76" y="169.125"/><ellipse cx="496.76" cy="185.125" fill="#7E57C2" rx="11" ry="11" style="stroke:#181818;stroke-width:1;"/><path d="M493.9475,191.125 L497.1663,191.125 C500.2444,191.125 502.3538,189.3438 502.3538,185.5313 C502.3538,181.7188 500.2444,180.0469 497.01,180.0469 L493.9475,180.0469 L493.9475,191.125 Z M496.4631,189.1094 L496.4631,182.0625 L496.8694,182.0625 C498.6038,182.0625 499.7756,182.875 499.7756,185.5313 C499.7756,188.1875 498.6038,189.1094 496.8694,189.1094 L496.4631,189.1094 Z " fill="#000000"/><text fill="#000000" font-family="sans-serif" font-size="14" lengthAdjust="spacing" textLength="60.5732" x="510.76" y="189.9102">collection</text></g><!--class token--><g class="entity" data-entity="token" data-source-line="140" data-uid="ent0011" id="entity_token"><rect fill="#FFB6C1" height="33.4375" rx="2.5" ry="2.5" style="stroke:#181818;stroke-width:0.5;" width="82.7617" x="109.38" y="395.405"/><ellipse cx="124.38" cy="412.1238" fill="#F1F1F1" rx="11" ry="11" style="stroke:#181818;stroke-width:1;"/><path d="M121.1613,418.1238 L123.6613,418.1238 L123.6613,414.3738 L125.0831,414.3738 C127.4269,414.3738 129.4113,413.2175 129.4113,410.6081 C129.4113,407.9206 127.4738,407.0456 125.0831,407.0456 L121.1613,407.0456 L121.1613,418.1238 Z M123.6613,412.3738 L123.6613,409.03 L124.9269,409.03 C126.255,409.03 126.9738,409.4519 126.9738,410.6081 C126.9738,411.7644 126.3019,412.3738 124.9269,412.3738 L123.6613,412.3738 Z " fill="#000000"/><text fill="#000000" font-family="sans-serif" font-size="20" font-weight="bold" lengthAdjust="spacing" textLength="50.7617" x="138.38" y="418.9597">token</text></g><!--link activity to evidence--><g class="link" data-entity-1="activity" data-entity-2="evidence" data-source-line="146" data-uid="lnk12" id="link_activity_evidence"><path codeLine="146" d="M292.52,319.045 C288.64,339.635 287.5345,366.0454 291.4945,386.4054" fill="none" id="activity-to-evidence" style="stroke:#666666;stroke-width:1;"/><polygon fill="#666666" points="292.64,392.295,294.8481,382.6969,291.6854,387.387,286.9953,384.2242,292.64,392.295" style="stroke:#666666;stroke-width:1;"/></g><!--link evidence to activity--><g class="link" data-entity-1="evidence" data-entity-2="activity" data-source-line="150" data-uid="lnk16" id="link_evidence_activity"><path codeLine="150" d="M312.89,392.295 C316.85,371.935 318.0039,345.5307 314.1139,324.9407" fill="none" id="evidence-to-activity" style="stroke:#666666;stroke-width:1;"/><polygon fill="#666666" points="313,319.045,310.7403,328.6311,313.9282,323.9581,318.6013,327.146,313,319.045" style="stroke:#666666;stroke-width:1;"/></g><!--link activity to contributions--><g class="link" data-entity-1="activity" data-entity-2="contributions" data-source-line="147" data-uid="lnk13" id="link_activity_contributions"><path codeLine="147" d="M313,278.245 C316.88,257.685 317.9889,231.3059 314.0489,210.9259" fill="none" id="activity-to-contributions" style="stroke:#666666;stroke-width:1;"/><polygon fill="#666666" points="312.91,205.035,310.691,214.6306,313.8591,209.9441,318.5456,213.1121,312.91,205.035" style="stroke:#666666;stroke-width:1;"/></g><!--link contributions to activity--><g class="link" data-entity-1="contributions" data-entity-2="activity" data-source-line="157" data-uid="lnk23" id="link_contributions_activity"><path codeLine="157" d="M292.62,205.035 C288.67,225.415 287.5246,251.7896 291.4146,272.3496" fill="none" id="contributions-to-activity" style="stroke:#666666;stroke-width:1;"/><polygon fill="#666666" points="292.53,278.245,294.7871,268.6583,291.6005,273.3322,286.9266,270.1455,292.53,278.245" style="stroke:#666666;stroke-width:1;"/></g><!--link activity to rights--><g class="link" data-entity-1="activity" data-entity-2="rights" data-source-line="148" data-uid="lnk14" id="link_activity_rights"><path codeLine="148" d="M257.13,319.045 C205.08,341.195 126.7109,374.5455 80.1609,394.3555" fill="none" id="activity-to-rights" style="stroke:#666666;stroke-width:1;"/><polygon fill="#666666" points="74.64,396.705,84.4876,396.8614,79.2407,394.7471,81.355,389.5002,74.64,396.705" style="stroke:#666666;stroke-width:1;"/></g><!--link activity to location--><g class="link" data-entity-1="activity" data-entity-2="location" data-source-line="149" data-uid="lnk15" id="link_activity_location"><path codeLine="149" d="M359.16,315.955 C437.38,338.615 571.2168,377.376 640.5568,397.456" fill="none" id="activity-to-location" style="stroke:#666666;stroke-width:1;"/><polygon fill="#666666" points="646.32,399.125,638.7878,392.7794,641.5173,397.7342,636.5625,400.4637,646.32,399.125" style="stroke:#666666;stroke-width:1;"/></g><!--link measurements to activity--><g class="link" data-entity-1="measurements" data-entity-2="activity" data-source-line="151" data-uid="lnk17" id="link_measurements_activity"><path codeLine="151" d="M626.44,205.115 C585.76,217.605 531.17,234.155 482.76,248.125 C441.5,260.035 400.5315,271.3069 365.0015,280.9269" fill="none" id="measurements-to-activity" style="stroke:#666666;stroke-width:1;"/><polygon fill="#666666" points="359.21,282.495,368.9426,284.0039,364.0362,281.1883,366.8518,276.2819,359.21,282.495" style="stroke:#666666;stroke-width:1;"/></g><!--link measurements to location--><g class="link" data-entity-1="measurements" data-entity-2="location" data-source-line="152" data-uid="lnk18" id="link_measurements_location"><path codeLine="152" d="M687.76,204.925 C687.76,248.545 687.76,349.965 687.76,389.875" fill="none" id="measurements-to-location" style="stroke:#666666;stroke-width:1;"/><polygon fill="#666666" points="687.76,395.875,691.76,386.875,687.76,390.875,683.76,386.875,687.76,395.875" style="stroke:#666666;stroke-width:1;"/></g><!--link evaluations to evidence--><g class="link" data-entity-1="evaluations" data-entity-2="evidence" data-source-line="153" data-uid="lnk19" id="link_evaluations_evidence"><path codeLine="153" d="M438.35,73.795 C372.63,78.125 269.48,96.305 219.76,165.125 C205.26,185.205 200.7,248.475 228.76,319.125 C240.26,348.085 259.9112,370.8891 277.4512,388.0491" fill="none" id="evaluations-to-evidence" style="stroke:#666666;stroke-width:1;"/><polygon fill="#666666" points="281.74,392.245,278.104,383.0919,278.166,388.7484,272.5094,388.8103,281.74,392.245" style="stroke:#666666;stroke-width:1;"/></g><!--link evaluations to measurements--><g class="link" data-entity-1="evaluations" data-entity-2="measurements" data-source-line="154" data-uid="lnk20" id="link_evaluations_measurements"><path codeLine="154" d="M529.99,91.955 C564.93,112.365 615.1895,141.7281 650.1895,162.1781" fill="none" id="evaluations-to-measurements" style="stroke:#666666;stroke-width:1;"/><polygon fill="#666666" points="655.37,165.205,649.6172,157.211,651.0529,162.6826,645.5813,164.1183,655.37,165.205" style="stroke:#666666;stroke-width:1;"/></g><!--link evaluations to activity--><g class="link" data-entity-1="evaluations" data-entity-2="activity" data-source-line="155" data-uid="lnk21" id="link_evaluations_activity"><path codeLine="155" d="M481.98,92.065 C460.44,117.825 420.54,165.265 385.76,205.125 C363.49,230.645 341.3538,255.2133 324.4438,273.8333" fill="none" id="evaluations-to-activity" style="stroke:#666666;stroke-width:1;"/><polygon fill="#666666" points="320.41,278.275,329.4218,274.3017,323.7715,274.5736,323.4995,268.9233,320.41,278.275" style="stroke:#666666;stroke-width:1;"/></g><!--link evaluations to location--><g class="link" data-entity-1="evaluations" data-entity-2="location" data-source-line="156" data-uid="lnk22" id="link_evaluations_location"><path codeLine="156" d="M557.17,73.795 C622.89,78.125 726.05,96.305 775.76,165.125 C830.75,241.235 743.3024,350.6621 706.2724,391.4621" fill="none" id="evaluations-to-location" style="stroke:#666666;stroke-width:1;"/><polygon fill="#666666" points="702.24,395.905,711.2506,391.9289,705.6003,392.2025,705.3266,386.5523,702.24,395.905" style="stroke:#666666;stroke-width:1;"/></g><!--link collection to activity--><g class="link" data-entity-1="collection" data-entity-2="activity" data-source-line="158" data-uid="lnk24" id="link_collection_activity"><path codeLine="158" d="M507.07,204.985 C491.42,218.465 468.93,236.245 446.76,248.125 C419.27,262.865 392.2707,272.7903 364.9607,281.0903" fill="none" id="collection-to-activity" style="stroke:#666666;stroke-width:1;"/><polygon fill="#666666" points="359.22,282.835,368.9942,284.0451,364.0039,281.3811,366.668,276.3908,359.22,282.835" style="stroke:#666666;stroke-width:1;"/></g><!--reverse link activity to token--><g class="link" data-entity-1="activity" data-entity-2="token" data-source-line="159" data-uid="lnk25" id="link_activity_token"><path codeLine="159" d="M271.4522,322.594 C242.0222,344.184 199.88,375.095 172.51,395.175" fill="none" id="activity-backto-token" style="stroke:#666666;stroke-width:1;"/><polygon fill="#666666" points="276.29,319.045,266.6673,321.1434,272.2585,322.0025,271.3993,327.5938,276.29,319.045" style="stroke:#666666;stroke-width:1;"/><text fill="#666666" font-family="sans-serif" font-size="10" lengthAdjust="spacing" textLength="42.7246" x="232.32" y="359.4023">tokenizes</text></g><!--link contributor to contributions--><g class="link" data-entity-1="contributor" data-entity-2="contributions" data-source-line="160" data-uid="lnk26" id="link_contributor_contributions"><path codeLine="160" d="M122.82,88.555 C160.62,108.635 221.3207,140.8713 262.0207,162.4813" fill="none" id="contributor-to-contributions" style="stroke:#666666;stroke-width:1;"/><polygon fill="#666666" points="267.32,165.295,261.2468,157.5415,262.9039,162.9502,257.4952,164.6073,267.32,165.295" style="stroke:#666666;stroke-width:1;"/><text fill="#666666" font-family="sans-serif" font-size="10" lengthAdjust="spacing" textLength="29.7412" x="205.53" y="132.4023">makes</text></g><!--link contributor to rights--><g class="link" data-entity-1="contributor" data-entity-2="rights" data-source-line="161" data-uid="lnk27" id="link_contributor_rights"><path codeLine="161" d="M91.35,88.525 C82.52,144.835 52.9691,333.2474 44.1191,389.7074" fill="none" id="contributor-to-rights" style="stroke:#666666;stroke-width:1;"/><polygon fill="#666666" points="43.19,395.635,48.5355,387.363,43.9643,390.6953,40.632,386.1241,43.19,395.635" style="stroke:#666666;stroke-width:1;"/><text fill="#666666" font-family="sans-serif" font-size="10" lengthAdjust="spacing" textLength="16.1084" x="68.87" y="245.4023">has</text></g><!--SRC=[dLRVRzem47xtN-7IXwqFhEtMzI6Y84g8YjID2LZxC4sLIGxYrOcHxL2ngV_x72SEJe4jRHw2VJzyttrtFgAeOe1RDviLY124miE9tqBe7HxmT46NcI2AyXIlYQ1apa2Y8xf88rZWwStu_Y4O3M_zAJhI0fg2AyCBmYIW8qWZka2v5txlgg-kSCkOj4vGJ2F0aApK1Yyei4XQDqUHW8gvrXYHL220AurPeYhuP7Wt6ju_3CQtuma-3eAWF_0hPNyo6LUwI_CWr95gmw2B8Xvc2QGA_q5OFyfGKgpp9-2fcjBVW3zUr6MvDvvp5XdnCtf68IDI-fGi1KdA4uWG_CavxLR36N36XOkfTkw_jGR9-LaPCdz_O4GiuLhZSCB4G28GZg2UoTckl9xDzlWyhyvfIHNID55TZb1x23hFb4QgkVOl-f_AM7ihhKIM5phN-oCVQwUK972waf15FDqaXMTHz6U48gA8eHAJKD5r7h3JgRBiTl7nzSNmit_MCAGfg5d9c0lbWmm5NULzROJHTjyp0fgG9HJB9ouUfo5VGRMRqGG2NLxzuickTCQD3DQwJzCGVlmipgduqa6a5GgwZ9Kireo7P8iW540KH7rra1WRe245iRtVMpYwabjsUg-Wv__W4Y0o4v3VAVbQW6PN7Y0qLULUinUQvPgm35oZFCeNCns-JqQz6ljQOBb-FRywZl5ece7CvhyWL2K0uysh19pZB2AP9GaHcpUXgxNJcnWMt1RTkSebs9sAsmvVsBxV8vxnfk1jiWrnizMTRWJRZLB86cEpJNathS1iykdIUslt5jUo8Rh2-AkEvsmhKCNsvOrgKb_6T2yr9-dmYBD5NeFu5dDbgyG8JMnp7iAp4jfUGy6AFqBwSWG7mVNbuBmXllSyROSneIdcATkSl0XafxpdLMEjtUvMrzZHrni_Dwf97CkoYhb9iNHqLGVcsgfnR3ZFgwwACR1-o1rh3OqEHQgcWUULSwEUyK4Bz_Z3LXMQciL-C3K23wQrxKXT1DCyTVtsZxhTBll5AtxrzuP4xlV2JjMqPK8UzrYLDVHmJ2Jw2m00]--></g></svg>