<?plantuml 1.2026.1?><svg xmlns="http://www.w3.org/2000/svg" xmlns:xlink="http://www.w3.org/1999/xlink" contentStyleType="text/css" data-diagram-type="CLASS" height="637px" preserveAspectRatio="none" style="width:1755px;height:637px;background:#FFFFFF;" version="1.1" viewBox="0 0 1755 637" width="1755px" zoomAndPan="magnify"><title>Hypercert ERD</title><defs/><g><g class="title" data-source-line="7"><text fill="#000000" font-family="sans-serif" font-size="24" font-weight="bold" lengthAdjust="spacing" textLength="178.9805" x="781.3735" y="33.2031">Hypercert ERD</text></g><!--class organization--><g class="entity" data-qualified-name="organization" data-source-line="46" id="ent0002"><rect fill="#F1F1F1" height="32" rx="2.5" ry="2.5" style="stroke:#181818;stroke-width:0.5;" width="117.8525" x="12.5" y="371.7656"/><ellipse cx="27.5" cy="387.7656" fill="#7E57C2" rx="11" ry="11" style="stroke:#181818;stroke-width:1;"/><path d="M26.5859,384.0806 L26.5859,392.0576 L27.25,392.0576 Q28.6943,392.0576 29.3086,391.1487 Q29.9229,390.2397 29.9229,388.0566 Q29.9229,385.8901 29.3086,384.9854 Q28.6943,384.0806 27.25,384.0806 Z M24.1372,381.8726 L26.7603,381.8726 Q29.7983,381.8726 31.1348,383.321 Q32.4712,384.7695 32.4712,388.0566 Q32.4712,391.3521 31.1348,392.8088 Q29.7983,394.2656 26.7603,394.2656 L24.1372,394.2656 Z " fill="#000000"/><text fill="#000000" font-family="sans-serif" font-size="14" lengthAdjust="spacing" textLength="85.8525" x="41.5" y="393.0566">organization</text></g><!--class contributorEntity--><g class="entity" data-qualified-name="contributorEntity" data-source-line="60" id="ent0003"><rect fill="#FFD4A3" height="32" rx="2.5" ry="2.5" style="stroke:#181818;stroke-width:0.5;" width="198.5986" x="1283.7" y="371.7656"/><ellipse cx="1298.7" cy="387.7656" fill="#ADD1B2" rx="11" ry="11" style="stroke:#181818;stroke-width:1;"/><path d="M1302.3143,394.2656 L1294.5945,394.2656 L1294.5945,381.8726 L1302.3143,381.8726 L1302.3143,384.0308 L1297.0433,384.0308 L1297.0433,386.7036 L1301.8162,386.7036 L1301.8162,388.8618 L1297.0433,388.8618 L1297.0433,392.1074 L1302.3143,392.1074 Z " fill="#000000"/><text fill="#000000" font-family="sans-serif" font-size="14" lengthAdjust="spacing" textLength="166.5986" x="1312.7" y="393.0566">contributor (DID/profile)</text></g><!--class activity--><g class="entity" data-qualified-name="activity" data-source-line="68" id="ent0004"><rect fill="#B4E5D0" height="33.5547" rx="2.5" ry="2.5" style="stroke:#181818;stroke-width:0.5;" width="107.1465" x="652.5" y="371.2656"/><ellipse cx="667.5" cy="388.043" fill="#7E57C2" rx="11" ry="11" style="stroke:#181818;stroke-width:1;"/><path d="M666.5859,384.3579 L666.5859,392.335 L667.25,392.335 Q668.6943,392.335 669.3086,391.426 Q669.9229,390.5171 669.9229,388.334 Q669.9229,386.1675 669.3086,385.2627 Q668.6943,384.3579 667.25,384.3579 Z M664.1372,382.1499 L666.7603,382.1499 Q669.7983,382.1499 671.1348,383.5984 Q672.4712,385.0469 672.4712,388.334 Q672.4712,391.6294 671.1348,393.0862 Q669.7983,394.543 666.7603,394.543 L664.1372,394.543 Z " fill="#000000"/><text fill="#000000" font-family="sans-serif" font-size="20" font-weight="bold" lengthAdjust="spacing" textLength="75.1465" x="681.5" y="395.6016">activity</text></g><!--class attachment--><g class="entity" data-qualified-name="attachment" data-source-line="85" id="ent0005"><rect fill="#F1F1F1" height="32" rx="2.5" ry="2.5" style="stroke:#181818;stroke-width:0.5;" width="108.5898" x="7" y="258.2656"/><ellipse cx="22" cy="274.2656" fill="#7E57C2" rx="11" ry="11" style="stroke:#181818;stroke-width:1;"/><path d="M21.0859,270.5806 L21.0859,278.5576 L21.75,278.5576 Q23.1943,278.5576 23.8086,277.6487 Q24.4229,276.7397 24.4229,274.5566 Q24.4229,272.3901 23.8086,271.4854 Q23.1943,270.5806 21.75,270.5806 Z M18.6372,268.3726 L21.2603,268.3726 Q24.2983,268.3726 25.6348,269.821 Q26.9712,271.2695 26.9712,274.5566 Q26.9712,277.8521 25.6348,279.3088 Q24.2983,280.7656 21.2603,280.7656 L18.6372,280.7656 Z " fill="#000000"/><text fill="#000000" font-family="sans-serif" font-size="14" lengthAdjust="spacing" textLength="76.5898" x="36" y="279.5566">attachment</text></g><!--class measurement--><g class="entity" data-qualified-name="measurement" data-source-line="99" id="ent0006"><rect fill="#F1F1F1" height="32" rx="2.5" ry="2.5" style="stroke:#181818;stroke-width:0.5;" width="124.75" x="211" y="258.2656"/><ellipse cx="226" cy="274.2656" fill="#7E57C2" rx="11" ry="11" style="stroke:#181818;stroke-width:1;"/><path d="M225.0859,270.5806 L225.0859,278.5576 L225.75,278.5576 Q227.1943,278.5576 227.8086,277.6487 Q228.4229,276.7397 228.4229,274.5566 Q228.4229,272.3901 227.8086,271.4854 Q227.1943,270.5806 225.75,270.5806 Z M222.6372,268.3726 L225.2603,268.3726 Q228.2983,268.3726 229.6348,269.821 Q230.9712,271.2695 230.9712,274.5566 Q230.9712,277.8521 229.6348,279.3088 Q228.2983,280.7656 225.2603,280.7656 L222.6372,280.7656 Z " fill="#000000"/><text fill="#000000" font-family="sans-serif" font-size="14" lengthAdjust="spacing" textLength="92.75" x="240" y="279.5566">measurement</text></g><!--class evaluation--><g class="entity" data-qualified-name="evaluation" data-source-line="118" id="ent0007"><rect fill="#F1F1F1" height="32" rx="2.5" ry="2.5" style="stroke:#181818;stroke-width:0.5;" width="101.8154" x="150.5" y="157.2656"/><ellipse cx="165.5" cy="173.2656" fill="#7E57C2" rx="11" ry="11" style="stroke:#181818;stroke-width:1;"/><path d="M164.5859,169.5806 L164.5859,177.5576 L165.25,177.5576 Q166.6943,177.5576 167.3086,176.6487 Q167.9229,175.7397 167.9229,173.5566 Q167.9229,171.3901 167.3086,170.4854 Q166.6943,169.5806 165.25,169.5806 Z M162.1372,167.3726 L164.7603,167.3726 Q167.7983,167.3726 169.1348,168.821 Q170.4712,170.2695 170.4712,173.5566 Q170.4712,176.8521 169.1348,178.3088 Q167.7983,179.7656 164.7603,179.7656 L162.1372,179.7656 Z " fill="#000000"/><text fill="#000000" font-family="sans-serif" font-size="14" lengthAdjust="spacing" textLength="69.8154" x="179.5" y="178.5566">evaluation</text></g><!--class contributorInformation--><g class="entity" data-qualified-name="contributorInformation" data-source-line="132" id="ent0008"><rect fill="#F1F1F1" height="32" rx="2.5" ry="2.5" style="stroke:#181818;stroke-width:0.5;" width="188.1055" x="1190" y="258.2656"/><ellipse cx="1205" cy="274.2656" fill="#7E57C2" rx="11" ry="11" style="stroke:#181818;stroke-width:1;"/><path d="M1204.0859,270.5806 L1204.0859,278.5576 L1204.75,278.5576 Q1206.1943,278.5576 1206.8086,277.6487 Q1207.4229,276.7397 1207.4229,274.5566 Q1207.4229,272.3901 1206.8086,271.4854 Q1206.1943,270.5806 1204.75,270.5806 Z M1201.6372,268.3726 L1204.2603,268.3726 Q1207.2983,268.3726 1208.6348,269.821 Q1209.9712,271.2695 1209.9712,274.5566 Q1209.9712,277.8521 1208.6348,279.3088 Q1207.2983,280.7656 1204.2603,280.7656 L1201.6372,280.7656 Z " fill="#000000"/><text fill="#000000" font-family="sans-serif" font-size="14" lengthAdjust="spacing" textLength="156.1055" x="1219" y="279.5566">contributorInformation</text></g><!--class contribution--><g class="entity" data-qualified-name="contribution" data-source-line="142" id="ent0009"><rect fill="#F1F1F1" height="32" rx="2.5" ry="2.5" style="stroke:#181818;stroke-width:0.5;" width="115.542" x="697.23" y="485.2656"/><ellipse cx="712.23" cy="501.2656" fill="#7E57C2" rx="11" ry="11" style="stroke:#181818;stroke-width:1;"/><path d="M711.3159,497.5806 L711.3159,505.5576 L711.98,505.5576 Q713.4243,505.5576 714.0386,504.6487 Q714.6529,503.7397 714.6529,501.5566 Q714.6529,499.3901 714.0386,498.4854 Q713.4243,497.5806 711.98,497.5806 Z M708.8672,495.3726 L711.4903,495.3726 Q714.5283,495.3726 715.8648,496.821 Q717.2012,498.2695 717.2012,501.5566 Q717.2012,504.8521 715.8648,506.3088 Q714.5283,507.7656 711.4903,507.7656 L708.8672,507.7656 Z " fill="#000000"/><text fill="#000000" font-family="sans-serif" font-size="14" lengthAdjust="spacing" textLength="83.542" x="726.23" y="506.5566">contribution</text></g><!--class location--><g class="entity" data-qualified-name="location" data-source-line="153" id="ent0010"><rect fill="#F1F1F1" height="32" rx="2.5" ry="2.5" style="stroke:#181818;stroke-width:0.5;" width="86.1201" x="229.94" y="485.2656"/><ellipse cx="244.94" cy="501.2656" fill="#7E57C2" rx="11" ry="11" style="stroke:#181818;stroke-width:1;"/><path d="M244.0259,497.5806 L244.0259,505.5576 L244.69,505.5576 Q246.1343,505.5576 246.7486,504.6487 Q247.3629,503.7397 247.3629,501.5566 Q247.3629,499.3901 246.7486,498.4854 Q246.1343,497.5806 244.69,497.5806 Z M241.5772,495.3726 L244.2003,495.3726 Q247.2383,495.3726 248.5748,496.821 Q249.9112,498.2695 249.9112,501.5566 Q249.9112,504.8521 248.5748,506.3088 Q247.2383,507.7656 244.2003,507.7656 L241.5772,507.7656 Z " fill="#000000"/><text fill="#000000" font-family="sans-serif" font-size="14" lengthAdjust="spacing" textLength="54.1201" x="258.94" y="506.5566">location</text></g><!--class badgeDefinition--><g class="entity" data-qualified-name="badgeDefinition" data-source-line="166" id="ent0011"><rect fill="#F1F1F1" height="32" rx="2.5" ry="2.5" style="stroke:#181818;stroke-width:0.5;" width="140.6709" x="1491.66" y="258.2656"/><ellipse cx="1506.66" cy="274.2656" fill="#7E57C2" rx="11" ry="11" style="stroke:#181818;stroke-width:1;"/><path d="M1505.7459,270.5806 L1505.7459,278.5576 L1506.41,278.5576 Q1507.8543,278.5576 1508.4686,277.6487 Q1509.0829,276.7397 1509.0829,274.5566 Q1509.0829,272.3901 1508.4686,271.4854 Q1507.8543,270.5806 1506.41,270.5806 Z M1503.2972,268.3726 L1505.9203,268.3726 Q1508.9583,268.3726 1510.2948,269.821 Q1511.6312,271.2695 1511.6312,274.5566 Q1511.6312,277.8521 1510.2948,279.3088 Q1508.9583,280.7656 1505.9203,280.7656 L1503.2972,280.7656 Z " fill="#000000"/><text fill="#000000" font-family="sans-serif" font-size="14" lengthAdjust="spacing" textLength="108.6709" x="1520.66" y="279.5566">badgeDefinition</text></g><!--class badgeAward--><g class="entity" data-qualified-name="badgeAward" data-source-line="177" id="ent0012"><rect fill="#F1F1F1" height="32" rx="2.5" ry="2.5" style="stroke:#181818;stroke-width:0.5;" width="116.6016" x="1226" y="157.2656"/><ellipse cx="1241" cy="173.2656" fill="#7E57C2" rx="11" ry="11" style="stroke:#181818;stroke-width:1;"/><path d="M1240.0859,169.5806 L1240.0859,177.5576 L1240.75,177.5576 Q1242.1943,177.5576 1242.8086,176.6487 Q1243.4229,175.7397 1243.4229,173.5566 Q1243.4229,171.3901 1242.8086,170.4854 Q1242.1943,169.5806 1240.75,169.5806 Z M1237.6372,167.3726 L1240.2603,167.3726 Q1243.2983,167.3726 1244.6348,168.821 Q1245.9712,170.2695 1245.9712,173.5566 Q1245.9712,176.8521 1244.6348,178.3088 Q1243.2983,179.7656 1240.2603,179.7656 L1237.6372,179.7656 Z " fill="#000000"/><text fill="#000000" font-family="sans-serif" font-size="14" lengthAdjust="spacing" textLength="84.6016" x="1255" y="178.5566">badgeAward</text></g><!--class badgeResponse--><g class="entity" data-qualified-name="badgeResponse" data-source-line="186" id="ent0013"><rect fill="#F1F1F1" height="32" rx="2.5" ry="2.5" style="stroke:#181818;stroke-width:0.5;" width="138.709" x="1215" y="56.2656"/><ellipse cx="1230" cy="72.2656" fill="#7E57C2" rx="11" ry="11" style="stroke:#181818;stroke-width:1;"/><path d="M1229.0859,68.5806 L1229.0859,76.5576 L1229.75,76.5576 Q1231.1943,76.5576 1231.8086,75.6487 Q1232.4229,74.7397 1232.4229,72.5566 Q1232.4229,70.3901 1231.8086,69.4854 Q1231.1943,68.5806 1229.75,68.5806 Z M1226.6372,66.3726 L1229.2603,66.3726 Q1232.2983,66.3726 1233.6348,67.821 Q1234.9712,69.2695 1234.9712,72.5566 Q1234.9712,75.8521 1233.6348,77.3088 Q1232.2983,78.7656 1229.2603,78.7656 L1226.6372,78.7656 Z " fill="#000000"/><text fill="#000000" font-family="sans-serif" font-size="14" lengthAdjust="spacing" textLength="106.709" x="1244" y="77.5566">badgeResponse</text></g><!--class follow--><g class="entity" data-qualified-name="follow" data-source-line="196" id="ent0014"><rect fill="#F1F1F1" height="32" rx="2.5" ry="2.5" style="stroke:#181818;stroke-width:0.5;" width="73.2275" x="1675.5" y="258.2656"/><ellipse cx="1690.5" cy="274.2656" fill="#7E57C2" rx="11" ry="11" style="stroke:#181818;stroke-width:1;"/><path d="M1689.5859,270.5806 L1689.5859,278.5576 L1690.25,278.5576 Q1691.6943,278.5576 1692.3086,277.6487 Q1692.9229,276.7397 1692.9229,274.5566 Q1692.9229,272.3901 1692.3086,271.4854 Q1691.6943,270.5806 1690.25,270.5806 Z M1687.1372,268.3726 L1689.7603,268.3726 Q1692.7983,268.3726 1694.1348,269.821 Q1695.4712,271.2695 1695.4712,274.5566 Q1695.4712,277.8521 1694.1348,279.3088 Q1692.7983,280.7656 1689.7603,280.7656 L1687.1372,280.7656 Z " fill="#000000"/><text fill="#000000" font-family="sans-serif" font-size="14" lengthAdjust="spacing" textLength="41.2275" x="1704.5" y="279.5566">follow</text></g><!--class celExpression--><g class="entity" data-qualified-name="celExpression" data-source-line="205" id="ent0015"><rect fill="#F1F1F1" height="32" rx="2.5" ry="2.5" style="stroke:#181818;stroke-width:0.5;" width="125.1396" x="529.5" y="485.2656"/><ellipse cx="544.5" cy="501.2656" fill="#7E57C2" rx="11" ry="11" style="stroke:#181818;stroke-width:1;"/><path d="M543.5859,497.5806 L543.5859,505.5576 L544.25,505.5576 Q545.6943,505.5576 546.3086,504.6487 Q546.9229,503.7397 546.9229,501.5566 Q546.9229,499.3901 546.3086,498.4854 Q545.6943,497.5806 544.25,497.5806 Z M541.1372,495.3726 L543.7603,495.3726 Q546.7983,495.3726 548.1348,496.821 Q549.4712,498.2695 549.4712,501.5566 Q549.4712,504.8521 548.1348,506.3088 Q546.7983,507.7656 543.7603,507.7656 L541.1372,507.7656 Z " fill="#000000"/><text fill="#000000" font-family="sans-serif" font-size="14" lengthAdjust="spacing" textLength="93.1396" x="558.5" y="506.5566">celExpression</text></g><!--class workScopeTag--><g class="entity" data-qualified-name="workScopeTag" data-source-line="215" id="ent0016"><rect fill="#F1F1F1" height="32" rx="2.5" ry="2.5" style="stroke:#181818;stroke-width:0.5;" width="130.5332" x="527" y="598.2656"/><ellipse cx="542" cy="614.2656" fill="#7E57C2" rx="11" ry="11" style="stroke:#181818;stroke-width:1;"/><path d="M541.0859,610.5806 L541.0859,618.5576 L541.75,618.5576 Q543.1943,618.5576 543.8086,617.6487 Q544.4229,616.7397 544.4229,614.5566 Q544.4229,612.3901 543.8086,611.4854 Q543.1943,610.5806 541.75,610.5806 Z M538.6372,608.3726 L541.2603,608.3726 Q544.2983,608.3726 545.6348,609.821 Q546.9712,611.2695 546.9712,614.5566 Q546.9712,617.8521 545.6348,619.3088 Q544.2983,620.7656 541.2603,620.7656 L538.6372,620.7656 Z " fill="#000000"/><text fill="#000000" font-family="sans-serif" font-size="14" lengthAdjust="spacing" textLength="98.5332" x="556" y="619.5566">workScopeTag</text></g><!--class rights--><g class="entity" data-qualified-name="rights" data-source-line="232" id="ent0017"><rect fill="#F1F1F1" height="32" rx="2.5" ry="2.5" style="stroke:#181818;stroke-width:0.5;" width="71.5664" x="1072.22" y="485.2656"/><ellipse cx="1087.22" cy="501.2656" fill="#7E57C2" rx="11" ry="11" style="stroke:#181818;stroke-width:1;"/><path d="M1086.3059,497.5806 L1086.3059,505.5576 L1086.97,505.5576 Q1088.4143,505.5576 1089.0286,504.6487 Q1089.6429,503.7397 1089.6429,501.5566 Q1089.6429,499.3901 1089.0286,498.4854 Q1088.4143,497.5806 1086.97,497.5806 Z M1083.8572,495.3726 L1086.4803,495.3726 Q1089.5183,495.3726 1090.8548,496.821 Q1092.1912,498.2695 1092.1912,501.5566 Q1092.1912,504.8521 1090.8548,506.3088 Q1089.5183,507.7656 1086.4803,507.7656 L1083.8572,507.7656 Z " fill="#000000"/><text fill="#000000" font-family="sans-serif" font-size="14" lengthAdjust="spacing" textLength="39.5664" x="1101.22" y="506.5566">rights</text></g><!--class collection--><g class="entity" data-qualified-name="collection" data-source-line="243" id="ent0018"><rect fill="#F1F1F1" height="32" rx="2.5" ry="2.5" style="stroke:#181818;stroke-width:0.5;" width="97.4063" x="457.5" y="258.2656"/><ellipse cx="472.5" cy="274.2656" fill="#7E57C2" rx="11" ry="11" style="stroke:#181818;stroke-width:1;"/><path d="M471.5859,270.5806 L471.5859,278.5576 L472.25,278.5576 Q473.6943,278.5576 474.3086,277.6487 Q474.9229,276.7397 474.9229,274.5566 Q474.9229,272.3901 474.3086,271.4854 Q473.6943,270.5806 472.25,270.5806 Z M469.1372,268.3726 L471.7603,268.3726 Q474.7983,268.3726 476.1348,269.821 Q477.4712,271.2695 477.4712,274.5566 Q477.4712,277.8521 476.1348,279.3088 Q474.7983,280.7656 471.7603,280.7656 L469.1372,280.7656 Z " fill="#000000"/><text fill="#000000" font-family="sans-serif" font-size="14" lengthAdjust="spacing" textLength="65.4063" x="486.5" y="279.5566">collection</text></g><!--class acknowledgement--><g class="entity" data-qualified-name="acknowledgement" data-source-line="256" id="ent0019"><rect fill="#F1F1F1" height="32" rx="2.5" ry="2.5" style="stroke:#181818;stroke-width:0.5;" width="155.1426" x="628.5" y="157.2656"/><ellipse cx="643.5" cy="173.2656" fill="#7E57C2" rx="11" ry="11" style="stroke:#181818;stroke-width:1;"/><path d="M642.5859,169.5806 L642.5859,177.5576 L643.25,177.5576 Q644.6943,177.5576 645.3086,176.6487 Q645.9229,175.7397 645.9229,173.5566 Q645.9229,171.3901 645.3086,170.4854 Q644.6943,169.5806 643.25,169.5806 Z M640.1372,167.3726 L642.7603,167.3726 Q645.7983,167.3726 647.1348,168.821 Q648.4712,170.2695 648.4712,173.5566 Q648.4712,176.8521 647.1348,178.3088 Q645.7983,179.7656 642.7603,179.7656 L640.1372,179.7656 Z " fill="#000000"/><text fill="#000000" font-family="sans-serif" font-size="14" lengthAdjust="spacing" textLength="123.1426" x="657.5" y="178.5566">acknowledgement</text></g><!--class funder--><g class="entity" data-qualified-name="funder" data-source-line="270" id="ent0020"><rect fill="#FFD4A3" height="32" rx="2.5" ry="2.5" style="stroke:#181818;stroke-width:0.5;" width="76.8643" x="775.57" y="258.2656"/><ellipse cx="790.57" cy="274.2656" fill="#ADD1B2" rx="11" ry="11" style="stroke:#181818;stroke-width:1;"/><path d="M794.1843,280.7656 L786.4645,280.7656 L786.4645,268.3726 L794.1843,268.3726 L794.1843,270.5308 L788.9133,270.5308 L788.9133,273.2036 L793.6862,273.2036 L793.6862,275.3618 L788.9133,275.3618 L788.9133,278.6074 L794.1843,278.6074 Z " fill="#000000"/><text fill="#000000" font-family="sans-serif" font-size="14" lengthAdjust="spacing" textLength="44.8643" x="804.57" y="279.5566">funder</text></g><!--class fundingReceipt--><g class="entity" data-qualified-name="fundingReceipt" data-source-line="277" id="ent0021"><rect fill="#F1F1F1" height="32" rx="2.5" ry="2.5" style="stroke:#181818;stroke-width:0.5;" width="134.5186" x="855" y="157.2656"/><ellipse cx="870" cy="173.2656" fill="#7E57C2" rx="11" ry="11" style="stroke:#181818;stroke-width:1;"/><path d="M869.0859,169.5806 L869.0859,177.5576 L869.75,177.5576 Q871.1943,177.5576 871.8086,176.6487 Q872.4229,175.7397 872.4229,173.5566 Q872.4229,171.3901 871.8086,170.4854 Q871.1943,169.5806 869.75,169.5806 Z M866.6372,167.3726 L869.2603,167.3726 Q872.2983,167.3726 873.6348,168.821 Q874.9712,170.2695 874.9712,173.5566 Q874.9712,176.8521 873.6348,178.3088 Q872.2983,179.7656 869.2603,179.7656 L866.6372,179.7656 Z " fill="#000000"/><text fill="#000000" font-family="sans-serif" font-size="14" lengthAdjust="spacing" textLength="102.5186" x="884" y="178.5566">fundingReceipt</text></g><!--class token--><g class="entity" data-qualified-name="token" data-source-line="298" id="ent0022"><rect fill="#FFB6C1" height="33.5547" rx="2.5" ry="2.5" style="stroke:#181818;stroke-width:0.5;" width="90.3887" x="985.81" y="257.4856"/><ellipse cx="1000.81" cy="274.263" fill="#F1F1F1" rx="11" ry="11" style="stroke:#181818;stroke-width:1;"/><path d="M999.6035,270.4285 L999.6035,274.0642 L1000.6079,274.0642 Q1001.8115,274.0642 1002.2971,273.6575 Q1002.7827,273.2508 1002.7827,272.2464 Q1002.7827,271.242 1002.2971,270.8352 Q1001.8115,270.4285 1000.6079,270.4285 Z M997.1547,268.3699 L1000.5165,268.3699 Q1003.0815,268.3699 1004.2062,269.283 Q1005.331,270.1961 1005.331,272.2464 Q1005.331,274.2967 1004.2062,275.2097 Q1003.0815,276.1228 1000.5165,276.1228 L999.6035,276.1228 L999.6035,280.763 L997.1547,280.763 Z " fill="#000000"/><text fill="#000000" font-family="sans-serif" font-size="20" font-weight="bold" lengthAdjust="spacing" textLength="58.3887" x="1014.81" y="281.8216">token</text></g><!--class hiddenLocation1--><g class="entity" data-qualified-name="hiddenLocation1" data-source-line="331" id="ent0026"><rect fill="none" height="26.4883" rx="2.5" ry="2.5" style="stroke:none;stroke-width:0.5;" width="10.4297" x="157.79" y="261.0256"/><text fill="#000000" font-family="sans-serif" font-size="14" lengthAdjust="spacing" textLength="4.4297" x="160.79" y="279.5608">&#160;</text></g><!--link evaluation to attachment--><g class="link" data-entity-1="ent0007" data-entity-2="ent0005" data-link-type="dependency" data-source-line="318" id="lnk23"><path codeLine="318" d="M174.34,193.1156 C149.43,210.7356 117.3383,233.4206 92.4583,251.0206" fill="none" id="evaluation-to-attachment" style="stroke:#666666;stroke-width:1;"/><polygon fill="#666666" points="87.56,254.4856,97.2175,252.5536,91.6419,251.5981,92.5974,246.0225,87.56,254.4856" style="stroke:#666666;stroke-width:1;"/></g><!--link evaluation to measurement--><g class="link" data-entity-1="ent0007" data-entity-2="ent0006" data-link-type="dependency" data-source-line="319" id="lnk24"><path codeLine="319" d="M214.54,192.8856 C227.33,210.4756 242.8911,231.8731 255.7411,249.5431" fill="none" id="evaluation-to-measurement" style="stroke:#666666;stroke-width:1;"/><polygon fill="#666666" points="259.27,254.3956,257.2117,244.7642,256.3293,250.3518,250.7417,249.4694,259.27,254.3956" style="stroke:#666666;stroke-width:1;"/></g><!--link evaluation to activity--><g class="link" data-entity-1="ent0007" data-entity-2="ent0004" data-link-type="dependency" data-source-line="320" id="lnk25"><path codeLine="320" d="M239.78,193.2256 C272.12,209.1656 319.3,232.7356 360,254.2656 C392.36,271.3856 398.52,279.4656 432,294.2656 C503.06,325.6856 582.5752,351.228 638.9152,367.848" fill="none" id="evaluation-to-activity" style="stroke:#666666;stroke-width:1;"/><polygon fill="#666666" points="644.67,369.5456,637.1695,363.1626,639.8743,368.1309,634.906,370.8357,644.67,369.5456" style="stroke:#666666;stroke-width:1;"/></g><!--link evaluation to hiddenLocation1--><g class="link" data-entity-1="ent0007" data-entity-2="ent0026" data-link-type="dependency" data-source-line="333" id="lnk27"><path codeLine="333" d="M193.85,192.8856 C186.24,212.7156 176.5593,237.9438 169.9793,255.0938" fill="none" id="evaluation-to-hiddenLocation1" style="stroke:#666666;stroke-width:1;"/><polygon fill="#666666" points="167.83,260.6956,174.7885,253.7257,169.6211,256.0274,167.3194,250.86,167.83,260.6956" style="stroke:#666666;stroke-width:1;"/></g><!--link attachment to activity--><g class="link" data-entity-1="ent0005" data-entity-2="ent0004" data-link-type="dependency" data-source-line="342" id="lnk28"><path codeLine="342" d="M122.64,290.2156 C128.51,291.6056 134.36,292.9656 140,294.2656 C226.92,314.2456 248.17,321.7856 336,337.2656 C444.02,356.3056 564.978,371.1317 638.588,379.4517" fill="none" id="attachment-to-activity" style="stroke:#666666;stroke-width:1;"/><polygon fill="#666666" points="644.55,380.1256,636.0562,375.1401,639.5816,379.5641,635.1577,383.0895,644.55,380.1256" style="stroke:#666666;stroke-width:1;"/></g><!--link attachment to location--><g class="link" data-entity-1="ent0005" data-entity-2="ent0010" data-link-type="dependency" data-source-line="343" id="lnk29"><path codeLine="343" d="M81.21,294.2556 C100.52,312.5856 130.28,341.3056 155,367.2656 C194.38,408.6256 234.5778,455.0993 255.9978,480.2293" fill="none" id="attachment-to-location" style="stroke:#666666;stroke-width:1;"/><polygon fill="#666666" points="259.89,484.7956,257.096,475.3514,256.6465,480.9904,251.0076,480.541,259.89,484.7956" style="stroke:#666666;stroke-width:1;"/></g><!--link measurement to activity--><g class="link" data-entity-1="ent0006" data-entity-2="ent0004" data-link-type="dependency" data-source-line="345" id="lnk30"><path codeLine="345" d="M296.2,294.1156 C314.96,308.3256 342.66,327.0556 370,337.2656 C461.69,371.5156 569.7567,381.8828 638.6167,385.1328" fill="none" id="measurement-to-activity" style="stroke:#666666;stroke-width:1;"/><polygon fill="#666666" points="644.61,385.4156,635.8086,380.9958,639.6156,385.1799,635.4314,388.9869,644.61,385.4156" style="stroke:#666666;stroke-width:1;"/></g><!--link measurement to location--><g class="link" data-entity-1="ent0006" data-entity-2="ent0010" data-link-type="dependency" data-source-line="355" id="lnk31"><path codeLine="355" d="M273,294.0656 C273,337.6856 273,439.1056 273,479.0156" fill="none" id="measurement-to-location" style="stroke:#666666;stroke-width:1;"/><polygon fill="#666666" points="273,485.0156,277,476.0156,273,480.0156,269,476.0156,273,485.0156" style="stroke:#666666;stroke-width:1;"/></g><!--link collection to activity--><g class="link" data-entity-1="ent0018" data-entity-2="ent0004" data-link-type="dependency" data-source-line="358" id="lnk32"><path codeLine="358" d="M539.93,294.1756 C576.48,314.5556 629.1197,343.9034 665.9897,364.4634" fill="none" id="collection-to-activity" style="stroke:#666666;stroke-width:1;"/><polygon fill="#666666" points="671.23,367.3856,665.3177,359.5088,666.8631,364.9505,661.4214,366.4959,671.23,367.3856" style="stroke:#666666;stroke-width:1;"/></g><!--link collection to collection--><g class="link" data-entity-1="ent0018" data-entity-2="ent0018" data-link-type="dependency" data-source-line="359" id="lnk33"><path codeLine="359" d="M562.29,264.7956 C581.77,264.6956 597.5,267.8556 597.5,274.2656 C597.5,280.6756 587.7699,283.8664 568.2899,283.7664" fill="none" id="collection-to-collection" style="stroke:#666666;stroke-width:1;"/><polygon fill="#666666" points="562.29,283.7356,571.2693,287.7818,567.2899,283.7613,571.3104,279.7819,562.29,283.7356" style="stroke:#666666;stroke-width:1;"/><text fill="#666666" font-family="sans-serif" font-size="10" lengthAdjust="spacing" textLength="43.8184" x="603.5" y="272.4336">recursive</text><text fill="#666666" font-family="sans-serif" font-size="10" lengthAdjust="spacing" textLength="35.9473" x="607.4355" y="284.2109">nesting</text></g><!--link collection to location--><g class="link" data-entity-1="ent0018" data-entity-2="ent0010" data-link-type="dependency" data-source-line="360" id="lnk34"><path codeLine="360" d="M486.54,294.0656 C441.36,337.6856 334.4461,440.9378 293.1161,480.8478" fill="none" id="collection-to-location" style="stroke:#666666;stroke-width:1;"/><polygon fill="#666666" points="288.8,485.0156,298.0528,481.6413,292.3968,481.5424,292.4956,475.8864,288.8,485.0156" style="stroke:#666666;stroke-width:1;"/></g><!--link acknowledgement to activity--><g class="link" data-entity-1="ent0019" data-entity-2="ent0004" data-link-type="dependency" data-source-line="362" id="lnk35"><path codeLine="362" d="M698.13,193.1256 C691.16,233.2456 690.1138,320.8006 697.0238,361.4206" fill="none" id="acknowledgement-to-activity" style="stroke:#666666;stroke-width:1;"/><polygon fill="#666666" points="698.03,367.3356,700.464,357.7923,697.1915,362.4064,692.5773,359.1339,698.03,367.3356" style="stroke:#666666;stroke-width:1;"/></g><!--link acknowledgement to activity--><g class="link" data-entity-1="ent0019" data-entity-2="ent0004" data-link-type="dependency" data-source-line="365" id="lnk38"><path codeLine="365" d="M713.87,193.1256 C720.84,233.2456 721.8862,320.8006 714.9762,361.4206" fill="none" id="acknowledgement-to-activity-1" style="stroke:#666666;stroke-width:1;"/><polygon fill="#666666" points="713.97,367.3356,719.4227,359.1339,714.8085,362.4064,711.536,357.7923,713.97,367.3356" style="stroke:#666666;stroke-width:1;"/></g><!--link acknowledgement to contributorInformation--><g class="link" data-entity-1="ent0019" data-entity-2="ent0008" data-link-type="dependency" data-source-line="363" id="lnk36"><path codeLine="363" d="M791.29,188.8756 C895.31,206.6856 1065.0561,235.7628 1176.1161,254.7828" fill="none" id="acknowledgement-to-contributorInformation" style="stroke:#666666;stroke-width:1;"/><polygon fill="#666666" points="1182.03,255.7956,1173.8344,250.3338,1177.1017,254.9516,1172.4839,258.219,1182.03,255.7956" style="stroke:#666666;stroke-width:1;"/></g><!--link acknowledgement to collection--><g class="link" data-entity-1="ent0019" data-entity-2="ent0018" data-link-type="dependency" data-source-line="364" id="lnk37"><path codeLine="364" d="M667.91,193.1156 C632.44,210.6756 585.2074,234.0642 549.6674,251.6542" fill="none" id="acknowledgement-to-collection" style="stroke:#666666;stroke-width:1;"/><polygon fill="#666666" points="544.29,254.3156,554.1304,253.9084,548.7712,252.0977,550.5818,246.7385,544.29,254.3156" style="stroke:#666666;stroke-width:1;"/></g><!--link activity to celExpression--><g class="link" data-entity-1="ent0004" data-entity-2="ent0015" data-link-type="dependency" data-source-line="367" id="lnk39"><path codeLine="367" d="M686.14,408.1856 C665.09,428.7756 636.3598,456.8806 615.5398,477.2406" fill="none" id="activity-to-celExpression" style="stroke:#666666;stroke-width:1;"/><polygon fill="#666666" points="611.25,481.4356,620.4813,478.003,614.8248,477.9398,614.888,472.2833,611.25,481.4356" style="stroke:#666666;stroke-width:1;"/></g><!--reverse link contributorInformation to activity--><g class="link" data-entity-1="ent0008" data-entity-2="ent0004" data-link-type="dependency" data-source-line="368" id="lnk41"><path codeLine="368" d="M1247.0999,297.176 C1221.6999,311.456 1189.88,327.2756 1155,337.2656 C1020.23,375.8556 854.76,384.6956 767.17,386.5056" fill="none" id="contributorInformation-backto-activity" style="stroke:#666666;stroke-width:1;"/><polygon fill="#666666" points="1252.33,294.2356,1242.5246,295.1595,1247.9716,296.686,1246.4451,302.133,1252.33,294.2356" style="stroke:#666666;stroke-width:1;"/></g><!--link activity to contribution--><g class="link" data-entity-1="ent0004" data-entity-2="ent0009" data-link-type="dependency" data-source-line="369" id="lnk42"><path codeLine="369" d="M714.54,408.1856 C724.13,430.0256 737.1074,459.542 745.8774,479.512" fill="none" id="activity-to-contribution" style="stroke:#666666;stroke-width:1;"/><polygon fill="#666666" points="748.29,485.0056,748.3336,475.1569,746.2795,480.4276,741.0088,478.3736,748.29,485.0056" style="stroke:#666666;stroke-width:1;"/></g><!--link activity to rights--><g class="link" data-entity-1="ent0004" data-entity-2="ent0017" data-link-type="dependency" data-source-line="370" id="lnk43"><path codeLine="370" d="M767.49,405.8256 C852.5,429.3956 997.4183,469.5918 1066.1983,488.6718" fill="none" id="activity-to-rights" style="stroke:#666666;stroke-width:1;"/><polygon fill="#666666" points="1071.98,490.2756,1064.3768,484.0154,1067.1619,488.9391,1062.2383,491.7243,1071.98,490.2756" style="stroke:#666666;stroke-width:1;"/></g><!--link activity to location--><g class="link" data-entity-1="ent0004" data-entity-2="ent0010" data-link-type="dependency" data-source-line="371" id="lnk44"><path codeLine="371" d="M644.88,404.5056 C556.18,427.3456 399.7405,467.6297 322.2505,487.5797" fill="none" id="activity-to-location" style="stroke:#666666;stroke-width:1;"/><polygon fill="#666666" points="316.44,489.0756,326.1531,490.7054,321.2821,487.829,324.1585,482.958,316.44,489.0756" style="stroke:#666666;stroke-width:1;"/></g><!--link celExpression to workScopeTag--><g class="link" data-entity-1="ent0015" data-entity-2="ent0016" data-link-type="dependency" data-source-line="373" id="lnk45"><path codeLine="373" d="M592,521.0956 C592,541.5056 592,567.8956 592,588.3456" fill="none" id="celExpression-to-workScopeTag" style="stroke:#666666;stroke-width:1;"/><polygon fill="#666666" points="592,594.3456,596,585.3456,592,589.3456,588,585.3456,592,594.3456" style="stroke:#666666;stroke-width:1;"/><text fill="#666666" font-family="sans-serif" font-size="10" lengthAdjust="spacing" textLength="47.085" x="593" y="561.9336">strongRef</text></g><!--link workScopeTag to workScopeTag--><g class="link" data-entity-1="ent0016" data-entity-2="ent0016" data-link-type="dependency" data-source-line="375" id="lnk46"><path codeLine="375" d="M664.94,609.0056 C684.83,609.2656 700,611.0256 700,614.2656 C700,617.5056 690.8295,619.1872 670.9395,619.4472" fill="none" id="workScopeTag-to-workScopeTag" style="stroke:#666666;stroke-width:1;"/><polygon fill="#666666" points="664.94,619.5256,673.9915,623.4076,669.9396,619.4603,673.8869,615.4083,664.94,619.5256" style="stroke:#666666;stroke-width:1;"/><text fill="#666666" font-family="sans-serif" font-size="10" lengthAdjust="spacing" textLength="44.9268" x="706" y="618.4336">hierarchy</text></g><!--link workScopeTag to workScopeTag--><g class="link" data-entity-1="ent0016" data-entity-2="ent0016" data-link-type="dependency" data-source-line="376" id="lnk47"><path codeLine="376" d="M664.84,604.3356 C710.56,602.1256 756,605.4356 756,614.2656 C756,623.0956 716.553,626.6953 670.833,624.4853" fill="none" id="workScopeTag-to-workScopeTag-1" style="stroke:#666666;stroke-width:1;"/><polygon fill="#666666" points="664.84,624.1956,673.6364,628.6255,669.8342,624.437,674.0226,620.6348,664.84,624.1956" style="stroke:#666666;stroke-width:1;"/><text fill="#666666" font-family="sans-serif" font-size="10" lengthAdjust="spacing" textLength="57.4463" x="762" y="618.4336">deprecation</text></g><!--link contributorInformation to contributorEntity--><g class="link" data-entity-1="ent0008" data-entity-2="ent0003" data-link-type="dependency" data-source-line="378" id="lnk48"><path codeLine="378" d="M1300.79,294.1756 C1320.1,315.9256 1347.4464,346.7188 1365.3364,366.8688" fill="none" id="contributorInformation-to-contributorEntity" style="stroke:#666666;stroke-width:1;"/><polygon fill="#666666" points="1369.32,371.3556,1366.3359,361.9697,1366.0004,367.6166,1360.3535,367.2811,1369.32,371.3556" style="stroke:#666666;stroke-width:1;"/><text fill="#666666" font-family="sans-serif" font-size="10" lengthAdjust="spacing" textLength="44.8291" x="1337.47" y="334.9336">identifies</text></g><!--link organization to location--><g class="link" data-entity-1="ent0002" data-entity-2="ent0010" data-link-type="dependency" data-source-line="380" id="lnk49"><path codeLine="380" d="M97.03,407.7156 C115.51,420.7656 141.18,438.0556 165,451.2656 C187.6,463.7956 208.4735,473.4559 229.5135,482.4559" fill="none" id="organization-to-location" style="stroke:#666666;stroke-width:1;"/><polygon fill="#666666" points="235.03,484.8156,228.3284,477.5984,230.4329,482.8492,225.1821,484.9537,235.03,484.8156" style="stroke:#666666;stroke-width:1;"/></g><!--link token to activity--><g class="link" data-entity-1="ent0022" data-entity-2="ent0004" data-link-type="dependency" data-source-line="384" id="lnk50"><path codeLine="384" d="M1014.31,291.2756 C998.5,305.5356 973.44,325.8556 948,337.2656 C889.9,363.3256 823.7295,375.1194 773.3995,380.9994" fill="none" id="token-to-activity" style="stroke:#666666;stroke-width:1;stroke-dasharray:7,7;"/><polygon fill="#666666" points="767.44,381.6956,776.8434,384.6242,772.4062,381.1154,775.915,376.6783,767.44,381.6956" style="stroke:#666666;stroke-width:1;"/><text fill="#666666" font-family="sans-serif" font-size="10" lengthAdjust="spacing" textLength="46.7969" x="971.35" y="334.9336">tokenizes</text></g><!--link funder to activity--><g class="link" data-entity-1="ent0020" data-entity-2="ent0004" data-link-type="dependency" data-source-line="385" id="lnk51"><path codeLine="385" d="M799.43,290.3056 C780.09,310.2756 750.0752,341.2666 728.8452,363.1766" fill="none" id="funder-to-activity" style="stroke:#666666;stroke-width:1;stroke-dasharray:7,7;"/><polygon fill="#666666" points="724.67,367.4856,733.8055,363.8057,728.1494,363.8948,728.0602,358.2387,724.67,367.4856" style="stroke:#666666;stroke-width:1;"/><text fill="#666666" font-family="sans-serif" font-size="10" lengthAdjust="spacing" textLength="27.4805" x="767.47" y="334.9336">funds</text></g><!--link contributorEntity to rights--><g class="link" data-entity-1="ent0003" data-entity-2="ent0017" data-link-type="dependency" data-source-line="386" id="lnk52"><path codeLine="386" d="M1345.05,404.1556 C1292.01,425.6556 1201.9203,462.181 1149.8103,483.311" fill="none" id="contributorEntity-to-rights" style="stroke:#666666;stroke-width:1;stroke-dasharray:7,7;"/><polygon fill="#666666" points="1144.25,485.5656,1154.0935,485.8905,1148.8836,483.6868,1151.0873,478.4768,1144.25,485.5656" style="stroke:#666666;stroke-width:1;"/><text fill="#666666" font-family="sans-serif" font-size="10" lengthAdjust="spacing" textLength="16.8262" x="1254.75" y="448.9336">has</text></g><!--link fundingReceipt to funder--><g class="link" data-entity-1="ent0021" data-entity-2="ent0020" data-link-type="dependency" data-source-line="392" id="lnk53"><path codeLine="392" d="M901.43,193.1156 C880.87,211.9656 854.0633,236.5417 835.0233,253.9917" fill="none" id="fundingReceipt-to-funder" style="stroke:#666666;stroke-width:1;"/><polygon fill="#666666" points="830.6,258.0456,839.9376,254.9136,834.2861,254.6674,834.5323,249.0159,830.6,258.0456" style="stroke:#666666;stroke-width:1;"/></g><!--link fundingReceipt to contributorEntity--><g class="link" data-entity-1="ent0021" data-entity-2="ent0003" data-link-type="dependency" data-source-line="393" id="lnk54"><path codeLine="393" d="M996.91,181.3956 C1125.72,194.4256 1377.98,223.5756 1404,254.2656 C1432.61,288.0256 1410.1101,339.4142 1395.0901,366.3742" fill="none" id="fundingReceipt-to-contributorEntity" style="stroke:#666666;stroke-width:1;"/><polygon fill="#666666" points="1392.17,371.6156,1400.0445,365.7002,1394.6034,367.2477,1393.0559,361.8067,1392.17,371.6156" style="stroke:#666666;stroke-width:1;"/></g><!--link fundingReceipt to activity--><g class="link" data-entity-1="ent0021" data-entity-2="ent0004" data-link-type="dependency" data-source-line="395" id="lnk55"><path codeLine="395" d="M917.52,193.1756 C910.75,218.5156 895.88,263.8156 870,294.2656 C841.1,328.2656 801.9138,349.963 766.4738,364.993" fill="none" id="fundingReceipt-to-activity" style="stroke:#666666;stroke-width:1;"/><polygon fill="#666666" points="760.95,367.3356,770.7974,367.5042,765.5531,365.3834,767.6739,360.1392,760.95,367.3356" style="stroke:#666666;stroke-width:1;"/><text fill="#666666" font-family="sans-serif" font-size="10" lengthAdjust="spacing" textLength="27.4805" x="895.89" y="278.4336">funds</text></g><!--link badgeAward to badgeDefinition--><g class="link" data-entity-1="ent0012" data-entity-2="ent0011" data-link-type="dependency" data-source-line="397" id="lnk56"><path codeLine="397" d="M1337.27,193.2356 C1389.93,211.9856 1463.8677,238.3227 1512.8377,255.7627" fill="none" id="badgeAward-to-badgeDefinition" style="stroke:#666666;stroke-width:1;"/><polygon fill="#666666" points="1518.49,257.7756,1511.3536,250.988,1513.7798,256.0981,1508.6696,258.5243,1518.49,257.7756" style="stroke:#666666;stroke-width:1;"/></g><!--link badgeResponse to badgeAward--><g class="link" data-entity-1="ent0013" data-entity-2="ent0012" data-link-type="dependency" data-source-line="398" id="lnk57"><path codeLine="398" d="M1284,91.8856 C1284,109.4756 1284,129.7256 1284,147.3956" fill="none" id="badgeResponse-to-badgeAward" style="stroke:#666666;stroke-width:1;"/><polygon fill="#666666" points="1284,153.3956,1288,144.3956,1284,148.3956,1280,144.3956,1284,153.3956" style="stroke:#666666;stroke-width:1;"/></g><!--link badgeAward to contributorInformation--><g class="link" data-entity-1="ent0012" data-entity-2="ent0008" data-link-type="dependency" data-source-line="399" id="lnk58"><path codeLine="399" d="M1284,192.8856 C1284,210.4756 1284,230.7256 1284,248.3956" fill="none" id="badgeAward-to-contributorInformation" style="stroke:#666666;stroke-width:1;"/><polygon fill="#666666" points="1284,254.3956,1288,245.3956,1284,249.3956,1280,245.3956,1284,254.3956" style="stroke:#666666;stroke-width:1;"/></g><!--link badgeAward to activity--><g class="link" data-entity-1="ent0012" data-entity-2="ent0004" data-link-type="dependency" data-source-line="400" id="lnk59"><path codeLine="400" d="M1255.46,193.2256 C1193.61,234.1856 1050.75,327.9956 1026,337.2656 C939.93,369.5156 839.2594,380.399 773.4194,384.319" fill="none" id="badgeAward-to-activity" style="stroke:#666666;stroke-width:1;"/><polygon fill="#666666" points="767.43,384.6756,776.6518,388.1337,772.4212,384.3785,776.1764,380.1478,767.43,384.6756" style="stroke:#666666;stroke-width:1;"/></g><!--link follow to contributorEntity--><g class="link" data-entity-1="ent0014" data-entity-2="ent0003" data-link-type="dependency" data-source-line="403" id="lnk60"><path codeLine="403" d="M1667.63,290.3056 C1605.1,311.4956 1497.3325,348.0197 1434.1925,369.4197" fill="none" id="follow-to-contributorEntity" style="stroke:#666666;stroke-width:1;"/><polygon fill="#666666" points="1428.51,371.3456,1438.3177,372.245,1433.2454,369.7407,1435.7498,364.6684,1428.51,371.3456" style="stroke:#666666;stroke-width:1;"/><text fill="#666666" font-family="sans-serif" font-size="10" lengthAdjust="spacing" textLength="34.5459" x="1568.2" y="334.9336">follows</text></g><?plantuml-src lLfRRziu5dxNhs0y3qwmQxVDTkP1oAH8ucGRe4W6INRceLiCQ8csE9543KdPLHVzxtiEIKcKR3bsTh16qKg7jtFvpetgcDo9d16n83fXYX5L5eMGcb0fnLeH8VcIvrJpV4aMKcI4vp5VyRYaALbmbiOg61yLaYupIb9QYL8JbJ5DSxf1P-dp1ct5l_sXWa1pdJ8o-bWLJ4OCJhz-c8s2O4okHBxWor820o8dAoevdQTC1KTyaSTiGHu_tl_s-ytjzQVPOt0410wYU3IoeAbYmH43fXS1hYB7_l3FFvEHcJ8w2H8UCyAoGbUrO6wPDm2I9G9634bf9fdGm3D8K1_-SFthxVLllr_TVxf_83_StDnSNCsQmOk7X_jcx2Vp2u8pfQkKdGUnYCgCvPhy9o3miognp_Yx4Rb-vDyOENtVfU5gCXTfRCZVW-z1b5AbPfmk9StS3iQQtcwVW9qhaGhfyzJPT_UeuUJTMtSa_ZrDgLooI-33EoPXD6RI8tGbURj9xqhJRezodRrngW9WqAAO8b8us2gUqaWBEHLoINF-pM0bYAccHX749pjMjW91on9nWEF-aYSmyESl7mozbAcgdrCHcN7xjX0b03AUKStguNmvOogIl6XdhRZYSvvoNTdtI39O45zeovN5stS7V2tvl0Iv55YF4SaA2VwPmtGohyZiTeQIaQJCQ3w1RM9q3C2a14y5dqHlbcmXO6KiI2uqRF1doU4r4p5BK_Jd5QS4F95zvP78fm7i3OoHKTGUJOxXd3U550kUifCHeOfuezTs0Q1yzlxY7tkg5ZP4lfM8E8GGjpNvryFjXWh02DEaZWXg2iRa6LeQmW-SEW49kIBm1oGb6UKvI1W96SFAHbSe9IND9bCF5Sr6PsSDSi_FoG-Nxwz_dBtTKnZZfEP99H0qFNiROjotFy_eqk5ZBUJpOoGAzweqXVKDUa0DxOkdyWtqDGI8qubMBy6ghrFOcNtLKwf1BGb67rz33N5FRQXo_WUBTCEIsJtNw40TmkSlBoZlmtRjTJtkO24pHbKfMKzAZ_fACTqEqYE0kI8RC79k-LlHj6GlMjhcbrPXzXsSmys5nCloY05X40UHo52ML-g88P_z0DeI3zEGGtQPPLHMJW2pay5n5n4TLQ80ZK0Ad9hzJ_OtWSDpejiSucBMbtBxX3qbHhkON2GTThageCIvendRyFpNCZx0xlvCIf7s8meitl2xdQ5eaFTkGgvDvJ5Sa_PaDYr-1PUg8wcIgWC1T94EmRpaZRetOiUEJ5ipJUOqNZ95Zf5dOfd-6w5hAcFu5n9A0Mx6JZoHp88PrdRy0CdCgaQ0DWfY5XxWdgQfMBFuLgdIYpD3ClKOl30I7C2RxyDMh-8b-_UEV73AEkHKmwR5gLjjyoJ3n7OO-g3mBPBfGg3MFDOiuR0OviesUg3hOdPNcDs1gzJtMfPUVyNYHEsF5zOii2b5iVY9Bki8klAyv1NiQRhqs6kA4ZXWJ-wUMTNudcK2M5WAMGr0kO1YjavF46bqgUeq0To1Q2o-h6hGSwfOcmVWW8kst64Bg6yX5yvSs_Igs6gB9ay1bh1lF3MJxsh1xMlZsFQrNnAsHTN16JfD0O_z950JzorOczBYuEgBQvODD3-7rvlHSoxMAGEtxnUTtP5NEAixms6etIu-e3pIOicmWOBZGOWRREt-tstOmXpwkkOAVV5DeLWPYxpANZ8AdWHyJA5zOc1mFs3QaGSxi2_4X6s8fSZgrjWLHJI39jaPgPJelPKB2HNQv87oz8DFk6CQ0vB3gwIveWRhj_679Ysvw24YioEOyWNBVYTZh6X8RM7KnztzqtNOj9FmrfhZxmIA9C9pfS6q67JGtG09EH5vb43JYIOMpwovNn0B76oQIzkIJWbv5E10W06eBn05EMFOg3RdaBYf8gO1DCLQW6lRdViDwitDvKzNx_Oqnh789uPFu3UjJZQWuAxX4Wu5Tp3s2lt99FwSy1ZAsY-JSozgxPZazrTZlwtgRkLK4uoz_d8YX_Pf-tr_Yb5CTuVjPtW1SeYBve3I6_UQWQ4fJUNfZVj7kDmoxXJg7IawX_HyRJ8mBsZL7uOkx84TEYRof_WTbPddQtTmhrexW93Rh11GV61KquA0qrX7CNV6ELbpQ53npXSSRet1h2pCVOp5bG-MC6mQWCdaSox0dPyxQeIpb6XSBQFF3DmZfldI14bxWLagTwDZT6Dhz40zynog2fgvcjrwnYM4_gN4Mpbpatbsziz4A0qEz8I1n5OXTY8uA9ClJB9NNJickLjNCYBcbimo-Cd9zeuqY-pLSNyuuZA2R3oWhVF-_62Nsu_9HGgAP3cQsHZ3rnP6E2KojiQyH4P01XrfDaBZDgReipVPvZb73A_MtMb_5KhGXMfi-E2eR_1Rb3U8LLt8-ZCwEco1vhd0q2uWrwFH4WMkUSOX0gSLPhBEVL6NnHqssO6DqztOEAsnqM6wkVNPWexJlnu1fnq4U4P110mhnDciZS5XQ8h8hggt3tk1EoGZIACbj3ahzkyyPmglTKUTTGE6xXMJ0q5kvwo1QwEDDQxgxF6-UrwBjlef39iEpExajulUBFz6c4pIdOnkN-ElwCvpBT2aJM7jM1TthQ8xV8PXtQAQMPsU4cm9jR70FBSO1O4_5eOsb6vTb70cgOoIQjHRuxUDMrV6MB1RFaU8nMrQ0k0rztTzgxkF765xnQU2mFy-D8Y-CNaoNrGX2DhU0Gi_srRDRVT0ywfRQE8i2dw6zQbj7aZilkDXx07_bOWNMnTEfos4W3zNXW9xhdNeZIDL1PkIuJHdyv0aLBMCG_LjE7BT35adF4eWcATfstuR7YEiwva4--bgZ5sFwqDwNH6s9UIOco_DrTWf1DHsyVGBLhmdKrZvKQpP2fXVux5u4dH9e2u9rJm4u18_K8kKn_NdwJcO5ecu8_8AEx2lHSeZw6uhJzcOWQ08HcPxXLRJTtNfOMY-TgD5hJetnY5SReLAiBcJa1r_RumHj1TVOMYUpRpUjMBGkL9p4-sbNZFRNfxvs-qHn8Qc-rbm-6AD50Ax1YWyRSTZG60iVungTctid9d_EI3i1UP9O9y6sMkypSvJ1ekOiB1oKFswORi0Nd7fHUB_0W00?></g></svg>