<svg xmlns="http://www.w3.org/2000/svg" xmlns:xlink="http://www.w3.org/1999/xlink" contentStyleType="text/css" data-diagram-type="CLASS" height="407px" preserveAspectRatio="none" style="width:561px;height:407px;background:#FFFFFF;" version="1.1" viewBox="0 0 561 407" width="561px" zoomAndPan="magnify"><title>Hypercert ERD</title><defs/><g><g class="title" data-source-line="1"><text fill="#000000" font-family="sans-serif" font-size="24" font-weight="bold" lengthAdjust="spacing" textLength="157.0547" x="195.1777" y="32.2656">Hypercert ERD</text></g><!--class contributor--><g class="entity" data-entity="contributor" data-source-line="39" data-uid="ent0002" id="entity_contributor"><rect fill="#FFD4A3" height="32" rx="2.5" ry="2.5" style="stroke:#181818;stroke-width:0.5;" width="100.6602" x="78.67" y="258.625"/><ellipse cx="93.67" cy="274.625" fill="#ADD1B2" rx="11" ry="11" style="stroke:#181818;stroke-width:1;"/><path d="M89.7325,280.625 L97.2481,280.625 L97.2481,278.5156 L92.2481,278.5156 L92.2481,275.9688 L96.3419,275.9688 L96.3419,273.875 L92.2481,273.875 L92.2481,271.6563 L97.0763,271.6563 L97.0763,269.5469 L89.7325,269.5469 L89.7325,280.625 Z " fill="#000000"/><text fill="#000000" font-family="sans-serif" font-size="14" lengthAdjust="spacing" textLength="68.6602" x="107.67" y="279.4102">contributor</text></g><!--class activity--><g class="entity" data-entity="activity" data-source-line="45" data-uid="ent0003" id="entity_activity"><rect fill="#B4E5D0" height="33.4375" rx="2.5" ry="2.5" style="stroke:#181818;stroke-width:0.5;" width="97.4492" x="227.5" y="258.125"/><ellipse cx="242.5" cy="274.8438" fill="#7E57C2" rx="11" ry="11" style="stroke:#181818;stroke-width:1;"/><path d="M239.6875,280.8438 L242.9063,280.8438 C245.9844,280.8438 248.0938,279.0625 248.0938,275.25 C248.0938,271.4375 245.9844,269.7656 242.75,269.7656 L239.6875,269.7656 L239.6875,280.8438 Z M242.2031,278.8281 L242.2031,271.7813 L242.6094,271.7813 C244.3438,271.7813 245.5156,272.5938 245.5156,275.25 C245.5156,277.9063 244.3438,278.8281 242.6094,278.8281 L242.2031,278.8281 Z " fill="#000000"/><text fill="#000000" font-family="sans-serif" font-size="20" font-weight="bold" lengthAdjust="spacing" textLength="65.4492" x="256.5" y="281.6797">activity</text></g><!--class evidence--><g class="entity" data-entity="evidence" data-source-line="61" data-uid="ent0004" id="entity_evidence"><rect fill="#F1F1F1" height="32" rx="2.5" ry="2.5" style="stroke:#181818;stroke-width:0.5;" width="87.4121" x="150.5" y="157.125"/><ellipse cx="165.5" cy="173.125" fill="#7E57C2" rx="11" ry="11" style="stroke:#181818;stroke-width:1;"/><path d="M162.6875,179.125 L165.9063,179.125 C168.9844,179.125 171.0938,177.3438 171.0938,173.5313 C171.0938,169.7188 168.9844,168.0469 165.75,168.0469 L162.6875,168.0469 L162.6875,179.125 Z M165.2031,177.1094 L165.2031,170.0625 L165.6094,170.0625 C167.3438,170.0625 168.5156,170.875 168.5156,173.5313 C168.5156,176.1875 167.3438,177.1094 165.6094,177.1094 L165.2031,177.1094 Z " fill="#000000"/><text fill="#000000" font-family="sans-serif" font-size="14" lengthAdjust="spacing" textLength="55.4121" x="179.5" y="177.9102">evidence</text></g><!--class measurements--><g class="entity" data-entity="measurements" data-source-line="72" data-uid="ent0005" id="entity_measurements"><rect fill="#F1F1F1" height="32" rx="2.5" ry="2.5" style="stroke:#181818;stroke-width:0.5;" width="125.666" x="360.5" y="157.125"/><ellipse cx="375.5" cy="173.125" fill="#7E57C2" rx="11" ry="11" style="stroke:#181818;stroke-width:1;"/><path d="M372.6875,179.125 L375.9063,179.125 C378.9844,179.125 381.0938,177.3438 381.0938,173.5313 C381.0938,169.7188 378.9844,168.0469 375.75,168.0469 L372.6875,168.0469 L372.6875,179.125 Z M375.2031,177.1094 L375.2031,170.0625 L375.6094,170.0625 C377.3438,170.0625 378.5156,170.875 378.5156,173.5313 C378.5156,176.1875 377.3438,177.1094 375.6094,177.1094 L375.2031,177.1094 Z " fill="#000000"/><text fill="#000000" font-family="sans-serif" font-size="14" lengthAdjust="spacing" textLength="93.666" x="389.5" y="177.9102">measurements</text></g><!--class evaluations--><g class="entity" data-entity="evaluations" data-source-line="86" data-uid="ent0006" id="entity_evaluations"><rect fill="#F1F1F1" height="32" rx="2.5" ry="2.5" style="stroke:#181818;stroke-width:0.5;" width="103.4834" x="309.5" y="56.125"/><ellipse cx="324.5" cy="72.125" fill="#7E57C2" rx="11" ry="11" style="stroke:#181818;stroke-width:1;"/><path d="M321.6875,78.125 L324.9063,78.125 C327.9844,78.125 330.0938,76.3438 330.0938,72.5313 C330.0938,68.7188 327.9844,67.0469 324.75,67.0469 L321.6875,67.0469 L321.6875,78.125 Z M324.2031,76.1094 L324.2031,69.0625 L324.6094,69.0625 C326.3438,69.0625 327.5156,69.875 327.5156,72.5313 C327.5156,75.1875 326.3438,76.1094 324.6094,76.1094 L324.2031,76.1094 Z " fill="#000000"/><text fill="#000000" font-family="sans-serif" font-size="14" lengthAdjust="spacing" textLength="71.4834" x="338.5" y="76.9102">evaluations</text></g><!--class contributions--><g class="entity" data-entity="contributions" data-source-line="98" data-uid="ent0007" id="entity_contributions"><rect fill="#F1F1F1" height="32" rx="2.5" ry="2.5" style="stroke:#181818;stroke-width:0.5;" width="114.2773" x="42.86" y="368.845"/><ellipse cx="57.86" cy="384.845" fill="#7E57C2" rx="11" ry="11" style="stroke:#181818;stroke-width:1;"/><path d="M55.0475,390.845 L58.2663,390.845 C61.3444,390.845 63.4538,389.0637 63.4538,385.2512 C63.4538,381.4387 61.3444,379.7669 58.11,379.7669 L55.0475,379.7669 L55.0475,390.845 Z M57.5631,388.8294 L57.5631,381.7825 L57.9694,381.7825 C59.7038,381.7825 60.8756,382.595 60.8756,385.2512 C60.8756,387.9075 59.7038,388.8294 57.9694,388.8294 L57.5631,388.8294 Z " fill="#000000"/><text fill="#000000" font-family="sans-serif" font-size="14" lengthAdjust="spacing" textLength="82.2773" x="71.86" y="389.6302">contributions</text></g><!--class location--><g class="entity" data-entity="location" data-source-line="110" data-uid="ent0008" id="entity_location"><rect fill="#F1F1F1" height="32" rx="2.5" ry="2.5" style="stroke:#181818;stroke-width:0.5;" width="82.0322" x="412.98" y="368.845"/><ellipse cx="427.98" cy="384.845" fill="#7E57C2" rx="11" ry="11" style="stroke:#181818;stroke-width:1;"/><path d="M425.1675,390.845 L428.3863,390.845 C431.4644,390.845 433.5738,389.0637 433.5738,385.2512 C433.5738,381.4387 431.4644,379.7669 428.23,379.7669 L425.1675,379.7669 L425.1675,390.845 Z M427.6831,388.8294 L427.6831,381.7825 L428.0894,381.7825 C429.8238,381.7825 430.9956,382.595 430.9956,385.2512 C430.9956,387.9075 429.8238,388.8294 428.0894,388.8294 L427.6831,388.8294 Z " fill="#000000"/><text fill="#000000" font-family="sans-serif" font-size="14" lengthAdjust="spacing" textLength="50.0322" x="441.98" y="389.6302">location</text></g><!--class rights--><g class="entity" data-entity="rights" data-source-line="122" data-uid="ent0009" id="entity_rights"><rect fill="#F1F1F1" height="32" rx="2.5" ry="2.5" style="stroke:#181818;stroke-width:0.5;" width="67.5264" x="310.24" y="368.845"/><ellipse cx="325.24" cy="384.845" fill="#7E57C2" rx="11" ry="11" style="stroke:#181818;stroke-width:1;"/><path d="M322.4275,390.845 L325.6463,390.845 C328.7244,390.845 330.8338,389.0637 330.8338,385.2512 C330.8338,381.4387 328.7244,379.7669 325.49,379.7669 L322.4275,379.7669 L322.4275,390.845 Z M324.9431,388.8294 L324.9431,381.7825 L325.3494,381.7825 C327.0838,381.7825 328.2556,382.595 328.2556,385.2512 C328.2556,387.9075 327.0838,388.8294 325.3494,388.8294 L324.9431,388.8294 Z " fill="#000000"/><text fill="#000000" font-family="sans-serif" font-size="14" lengthAdjust="spacing" textLength="35.5264" x="339.24" y="389.6302">rights</text></g><!--class collection--><g class="entity" data-entity="collection" data-source-line="132" data-uid="ent0010" id="entity_collection"><rect fill="#F1F1F1" height="32" rx="2.5" ry="2.5" style="stroke:#181818;stroke-width:0.5;" width="92.5732" x="7" y="157.125"/><ellipse cx="22" cy="173.125" fill="#7E57C2" rx="11" ry="11" style="stroke:#181818;stroke-width:1;"/><path d="M19.1875,179.125 L22.4063,179.125 C25.4844,179.125 27.5938,177.3438 27.5938,173.5313 C27.5938,169.7188 25.4844,168.0469 22.25,168.0469 L19.1875,168.0469 L19.1875,179.125 Z M21.7031,177.1094 L21.7031,170.0625 L22.1094,170.0625 C23.8438,170.0625 25.0156,170.875 25.0156,173.5313 C25.0156,176.1875 23.8438,177.1094 22.1094,177.1094 L21.7031,177.1094 Z " fill="#000000"/><text fill="#000000" font-family="sans-serif" font-size="14" lengthAdjust="spacing" textLength="60.5732" x="36" y="177.9102">collection</text></g><!--class token--><g class="entity" data-entity="token" data-source-line="142" data-uid="ent0011" id="entity_token"><rect fill="#FFB6C1" height="33.4375" rx="2.5" ry="2.5" style="stroke:#181818;stroke-width:0.5;" width="82.7617" x="192.62" y="368.125"/><ellipse cx="207.62" cy="384.8438" fill="#F1F1F1" rx="11" ry="11" style="stroke:#181818;stroke-width:1;"/><path d="M204.4013,390.8438 L206.9013,390.8438 L206.9013,387.0938 L208.3231,387.0938 C210.6669,387.0938 212.6513,385.9375 212.6513,383.3281 C212.6513,380.6406 210.7138,379.7656 208.3231,379.7656 L204.4013,379.7656 L204.4013,390.8438 Z M206.9013,385.0938 L206.9013,381.75 L208.1669,381.75 C209.495,381.75 210.2138,382.1719 210.2138,383.3281 C210.2138,384.4844 209.5419,385.0938 208.1669,385.0938 L206.9013,385.0938 Z " fill="#000000"/><text fill="#000000" font-family="sans-serif" font-size="20" font-weight="bold" lengthAdjust="spacing" textLength="50.7617" x="221.62" y="391.6797">token</text></g><!--link activity to contributions--><g class="link" data-entity-1="activity" data-entity-2="contributions" data-source-line="148" data-uid="lnk12" id="link_activity_contributions"><path codeLine="148" d="M244.53,294.975 C210.32,316.015 161.4613,346.0627 130.0513,365.3727" fill="none" id="activity-to-contributions" style="stroke:#666666;stroke-width:1;"/><polygon fill="#666666" points="124.94,368.515,134.7019,367.2091,129.1995,365.8964,130.5121,360.394,124.94,368.515" style="stroke:#666666;stroke-width:1;"/></g><!--link activity to rights--><g class="link" data-entity-1="activity" data-entity-2="rights" data-source-line="149" data-uid="lnk13" id="link_activity_rights"><path codeLine="149" d="M309.01,295.065 C319.67,303.015 330.42,313.185 337,325.125 C344.34,338.435 345.6747,349.9767 345.3747,362.4167" fill="none" id="activity-to-rights" style="stroke:#666666;stroke-width:1;"/><polygon fill="#666666" points="345.23,368.415,349.4458,359.5141,345.3505,363.4165,341.4481,359.3212,345.23,368.415" style="stroke:#666666;stroke-width:1;"/></g><!--link activity to location--><g class="link" data-entity-1="activity" data-entity-2="location" data-source-line="150" data-uid="lnk14" id="link_activity_location"><path codeLine="150" d="M312.3,295.005 C328.58,303.905 347.92,314.765 365,325.125 C388.11,339.145 408.84,352.8988 426.66,365.0288" fill="none" id="activity-to-location" style="stroke:#666666;stroke-width:1;"/><polygon fill="#666666" points="431.62,368.405,426.4309,360.034,427.4867,365.5915,421.9293,366.6473,431.62,368.405" style="stroke:#666666;stroke-width:1;"/></g><!--link evidence to activity--><g class="link" data-entity-1="evidence" data-entity-2="activity" data-source-line="151" data-uid="lnk15" id="link_evidence_activity"><path codeLine="151" d="M209.42,192.845 C223.9,210.405 241.6323,231.9363 256.2723,249.6863" fill="none" id="evidence-to-activity" style="stroke:#666666;stroke-width:1;"/><polygon fill="#666666" points="260.09,254.315,257.4492,244.8268,256.9086,250.4577,251.2776,249.9171,260.09,254.315" style="stroke:#666666;stroke-width:1;"/></g><!--link measurements to activity--><g class="link" data-entity-1="measurements" data-entity-2="activity" data-source-line="152" data-uid="lnk16" id="link_measurements_activity"><path codeLine="152" d="M395,193.075 C369.1,210.615 335.7296,233.2031 309.6096,250.8731" fill="none" id="measurements-to-activity" style="stroke:#666666;stroke-width:1;"/><polygon fill="#666666" points="304.64,254.235,314.3358,252.5052,308.7814,251.4334,309.8532,245.879,304.64,254.235" style="stroke:#666666;stroke-width:1;"/></g><!--link measurements to location--><g class="link" data-entity-1="measurements" data-entity-2="location" data-source-line="153" data-uid="lnk17" id="link_measurements_location"><path codeLine="153" d="M425.81,193.105 C431.89,234.245 445.3019,325.0096 450.8619,362.5896" fill="none" id="measurements-to-location" style="stroke:#666666;stroke-width:1;"/><polygon fill="#666666" points="451.74,368.525,454.3797,359.0365,451.0082,363.5788,446.4659,360.2073,451.74,368.525" style="stroke:#666666;stroke-width:1;"/></g><!--link evaluations to evidence--><g class="link" data-entity-1="evaluations" data-entity-2="evidence" data-source-line="154" data-uid="lnk18" id="link_evaluations_evidence"><path codeLine="154" d="M326.05,91.995 C309.8,100.925 290.29,111.855 273,122.125 C256.26,132.075 242.8976,140.4413 228.0676,149.9713" fill="none" id="evaluations-to-evidence" style="stroke:#666666;stroke-width:1;"/><polygon fill="#666666" points="223.02,153.215,232.7539,151.7146,227.2264,150.5119,228.429,144.9844,223.02,153.215" style="stroke:#666666;stroke-width:1;"/></g><!--link evaluations to measurements--><g class="link" data-entity-1="evaluations" data-entity-2="measurements" data-source-line="155" data-uid="lnk19" id="link_evaluations_measurements"><path codeLine="155" d="M372.66,91.745 C383.68,109.335 396.9246,130.5004 407.9946,148.1704" fill="none" id="evaluations-to-measurements" style="stroke:#666666;stroke-width:1;"/><polygon fill="#666666" points="411.18,153.255,409.7916,143.5045,408.5255,149.0178,403.0121,147.7517,411.18,153.255" style="stroke:#666666;stroke-width:1;"/></g><!--link evaluations to activity--><g class="link" data-entity-1="evaluations" data-entity-2="activity" data-source-line="156" data-uid="lnk20" id="link_evaluations_activity"><path codeLine="156" d="M353,91.995 C336.84,130.105 302.8023,210.4111 286.5023,248.8511" fill="none" id="evaluations-to-activity" style="stroke:#666666;stroke-width:1;"/><polygon fill="#666666" points="284.16,254.375,291.3561,247.6507,286.1119,249.7718,283.9909,244.5276,284.16,254.375" style="stroke:#666666;stroke-width:1;"/></g><!--link evaluations to location--><g class="link" data-entity-1="evaluations" data-entity-2="location" data-source-line="157" data-uid="lnk21" id="link_evaluations_location"><path codeLine="157" d="M420.28,88.415 C453.18,100.265 491.34,120.355 511,153.125 C554.41,225.475 495.496,324.5255 468.666,363.4355" fill="none" id="evaluations-to-location" style="stroke:#666666;stroke-width:1;"/><polygon fill="#666666" points="465.26,368.375,473.662,363.2364,468.0983,364.2587,467.076,358.695,465.26,368.375" style="stroke:#666666;stroke-width:1;"/></g><!--link collection to activity--><g class="link" data-entity-1="collection" data-entity-2="activity" data-source-line="158" data-uid="lnk22" id="link_collection_activity"><path codeLine="158" d="M95.47,193.075 C134.77,210.615 187.4605,234.1206 227.0705,251.7906" fill="none" id="collection-to-activity" style="stroke:#666666;stroke-width:1;"/><polygon fill="#666666" points="232.55,254.235,225.9604,246.9154,227.9838,252.198,222.7012,254.2214,232.55,254.235" style="stroke:#666666;stroke-width:1;"/></g><!--reverse link activity to token--><g class="link" data-entity-1="activity" data-entity-2="token" data-source-line="159" data-uid="lnk23" id="link_activity_token"><path codeLine="159" d="M248.0646,299.0848 C239.6546,307.4048 235.44,313.645 231,325.125 C225.7,338.835 227.31,355.705 229.74,367.835" fill="none" id="activity-backto-token" style="stroke:#666666;stroke-width:1;"/><polygon fill="#666666" points="252.33,294.865,243.1187,298.351,248.7755,298.3815,248.7451,304.0382,252.33,294.865" style="stroke:#666666;stroke-width:1;"/><text fill="#666666" font-family="sans-serif" font-size="10" lengthAdjust="spacing" textLength="42.7246" x="232" y="335.4023">tokenizes</text></g><!--link contributor to contributions--><g class="link" data-entity-1="contributor" data-entity-2="contributions" data-source-line="160" data-uid="lnk24" id="link_contributor_contributions"><path codeLine="160" d="M124.17,290.725 C121.1,300.495 117.14,313.515 114,325.125 C110.01,339.895 107.3319,351.0624 104.6419,362.9724" fill="none" id="contributor-to-contributions" style="stroke:#666666;stroke-width:1;"/><polygon fill="#666666" points="103.32,368.825,109.2045,360.9274,104.4216,363.9479,101.4011,359.1649,103.32,368.825" style="stroke:#666666;stroke-width:1;"/><text fill="#666666" font-family="sans-serif" font-size="10" lengthAdjust="spacing" textLength="29.7412" x="115" y="335.4023">makes</text></g><!--link contributor to rights--><g class="link" data-entity-1="contributor" data-entity-2="rights" data-source-line="161" data-uid="lnk25" id="link_contributor_rights"><path codeLine="161" d="M179.45,289.835 C215.97,300.585 261.81,315.135 279,325.125 C298.98,336.745 314.0532,350.8813 326.3332,364.0213" fill="none" id="contributor-to-rights" style="stroke:#666666;stroke-width:1;"/><polygon fill="#666666" points="330.43,368.405,327.2073,359.0983,327.016,364.7519,321.3624,364.5607,330.43,368.405" style="stroke:#666666;stroke-width:1;"/><text fill="#666666" font-family="sans-serif" font-size="10" lengthAdjust="spacing" textLength="16.1084" x="297.78" y="335.4023">has</text></g><!--SRC=[dLPDRzem6BxxLxZqiFN0scvT3n6beWHKf6vCiBM7QQfCyaAyEZ6o7IeszR_FTfpWjBHav01-lv_toucYYW5kNQ-N828G2WycOGkXTxZFipbTv88eoZEy8eAI6GE93kWyYs6EfzVZk_lXQ70JJj61Pj0CV1wU4oO17K0MqpaoLlYzBxwum2shqZf22Oq1GxfKQpodm69Pcdc255J2jSIof081N6dC4bN19uFRqU3klZ- -6K_muN0uxFN3IjYRJCQLxDm-27MaMZFeefX7UGgPmdyHre-o9IdEvXdoJ4tf7y0Vp-eyOurddCMM_OIUKCI8b24b2q5Ivu48mHyzRpSQJfypBdnCDRzlIosIqnCNqln-O4Giu4hZyC8aG68G7gEUoSbBVZsRZNkJL-VObGhfCb7TZaXR23hBbKQgQnsUzJwvM5ixhKHk6ctauIZ4sYWZAHml9UGnpzPfOLaq_GcXc2XYIub9fEZA1EnqgYoxNNnuTJRu79uq36aRQayouKA582D1bsQkBJFUq9UMGLEoWEBuoCN3DE9BHqf5j3rHXJUDjpfN1T5UvCzVXRgWYqJ9uinuH3OX8W7QCkwfLpE7bPxqB8A6EIRb0bTeTATsP7-vFVtTs58WCXTWTaRkXSyv4BfIZjR5Y-nnHLWElfA9yiLk_tVjOxlansHKTCGLJTDb3_w_xXg0jMYQcindlo5IxfocHAmT6Ek9LrcMw4feVXdtXLkRkxrw8JXpq-qjjKFyOZRUM82TKClK6g9aoriz8EMIIY5hzQbceMHOmjmgUqzriQqDqHNANtKyZwn05UJpYuOe7If9oyLiqbp6z6GrhzckNO_u2iItX2lkQ4PeMexdQtYMGkjhA5Zn1yYUtyJ3uTLv_xGXllSyQqS9eHdc6LiVFGjKNlP1K9_gThjRdtDFqpNDg1H7JrODd95MSr9kOH1KUs0LIZlahsL3fTSYLLT945JtkL4fYRfAxLerQZwZhkhkd3gcciPsI9k9qaMspQ-xsBnlsstNxw3urvyD4lcl_HTTqPefUTYYvNeKu8H8z0y0]--></g></svg>