<svg xmlns="http://www.w3.org/2000/svg" xmlns:xlink="http://www.w3.org/1999/xlink" contentStyleType="text/css" data-diagram-type="CLASS" height="518px" preserveAspectRatio="none" style="width:923px;height:518px;background:#FFFFFF;" version="1.1" viewBox="0 0 923 518" width="923px" zoomAndPan="magnify"><title>Hypercert ERD</title><defs/><g><g class="title" data-source-line="7"><text fill="#000000" font-family="sans-serif" font-size="24" font-weight="bold" lengthAdjust="spacing" textLength="169.3945" x="370.2327" y="32.5117">Hypercert ERD</text></g><!--class contributor--><g class="entity" data-entity="contributor" data-source-line="47" data-uid="ent0002" id="entity_contributor"><rect fill="#FFD4A3" height="32" rx="2.5" ry="2.5" style="stroke:#181818;stroke-width:0.5;" width="98.1445" x="762.21" y="269.5977"/><ellipse cx="777.21" cy="285.5977" fill="#ADD1B2" rx="11" ry="11" style="stroke:#181818;stroke-width:1;"/><path d="M773.2725,291.5977 L780.7881,291.5977 L780.7881,289.4883 L775.7881,289.4883 L775.7881,286.9414 L779.8819,286.9414 L779.8819,284.8477 L775.7881,284.8477 L775.7881,282.6289 L780.6162,282.6289 L780.6162,280.5195 L773.2725,280.5195 L773.2725,291.5977 Z " fill="#000000"/><text fill="#000000" font-family="sans-serif" font-size="14" lengthAdjust="spacing" textLength="66.1445" x="791.21" y="290.6802">contributor</text></g><!--class activity--><g class="entity" data-entity="activity" data-source-line="55" data-uid="ent0003" id="entity_activity"><rect fill="#B4E5D0" height="32.998" rx="2.5" ry="2.5" style="stroke:#181818;stroke-width:0.5;" width="100.9258" x="393.28" y="269.5977"/><ellipse cx="408.28" cy="286.0967" fill="#7E57C2" rx="11" ry="11" style="stroke:#181818;stroke-width:1;"/><path d="M405.4675,292.0967 L408.6863,292.0967 C411.7644,292.0967 413.8738,290.3154 413.8738,286.5029 C413.8738,282.6904 411.7644,281.0186 408.53,281.0186 L405.4675,281.0186 L405.4675,292.0967 Z M407.9831,290.0811 L407.9831,283.0342 L408.3894,283.0342 C410.1238,283.0342 411.2956,283.8467 411.2956,286.5029 C411.2956,289.1592 410.1238,290.0811 408.3894,290.0811 L407.9831,290.0811 Z " fill="#000000"/><text fill="#000000" font-family="sans-serif" font-size="20" font-weight="bold" lengthAdjust="spacing" textLength="68.9258" x="422.28" y="293.3574">activity</text></g><!--class evidence--><g class="entity" data-entity="evidence" data-source-line="73" data-uid="ent0004" id="entity_evidence"><rect fill="#F1F1F1" height="32" rx="2.5" ry="2.5" style="stroke:#181818;stroke-width:0.5;" width="88.041" x="231.28" y="156.5977"/><ellipse cx="246.28" cy="172.5977" fill="#7E57C2" rx="11" ry="11" style="stroke:#181818;stroke-width:1;"/><path d="M243.4675,178.5977 L246.6863,178.5977 C249.7644,178.5977 251.8738,176.8164 251.8738,173.0039 C251.8738,169.1914 249.7644,167.5195 246.53,167.5195 L243.4675,167.5195 L243.4675,178.5977 Z M245.9831,176.582 L245.9831,169.5352 L246.3894,169.5352 C248.1238,169.5352 249.2956,170.3477 249.2956,173.0039 C249.2956,175.6602 248.1238,176.582 246.3894,176.582 L245.9831,176.582 Z " fill="#000000"/><text fill="#000000" font-family="sans-serif" font-size="14" lengthAdjust="spacing" textLength="56.041" x="260.28" y="177.6802">evidence</text></g><!--class measurement--><g class="entity" data-entity="measurement" data-source-line="86" data-uid="ent0005" id="entity_measurement"><rect fill="#F1F1F1" height="32" rx="2.5" ry="2.5" style="stroke:#181818;stroke-width:0.5;" width="117.5928" x="62.78" y="156.5977"/><ellipse cx="77.78" cy="172.5977" fill="#7E57C2" rx="11" ry="11" style="stroke:#181818;stroke-width:1;"/><path d="M74.9675,178.5977 L78.1863,178.5977 C81.2644,178.5977 83.3738,176.8164 83.3738,173.0039 C83.3738,169.1914 81.2644,167.5195 78.03,167.5195 L74.9675,167.5195 L74.9675,178.5977 Z M77.4831,176.582 L77.4831,169.5352 L77.8894,169.5352 C79.6238,169.5352 80.7956,170.3477 80.7956,173.0039 C80.7956,175.6602 79.6238,176.582 77.8894,176.582 L77.4831,176.582 Z " fill="#000000"/><text fill="#000000" font-family="sans-serif" font-size="14" lengthAdjust="spacing" textLength="85.5928" x="91.78" y="177.6802">measurement</text></g><!--class evaluation--><g class="entity" data-entity="evaluation" data-source-line="101" data-uid="ent0006" id="entity_evaluation"><rect fill="#F1F1F1" height="32" rx="2.5" ry="2.5" style="stroke:#181818;stroke-width:0.5;" width="95.8271" x="112.78" y="55.5977"/><ellipse cx="127.78" cy="71.5977" fill="#7E57C2" rx="11" ry="11" style="stroke:#181818;stroke-width:1;"/><path d="M124.9675,77.5977 L128.1863,77.5977 C131.2644,77.5977 133.3738,75.8164 133.3738,72.0039 C133.3738,68.1914 131.2644,66.5195 128.03,66.5195 L124.9675,66.5195 L124.9675,77.5977 Z M127.4831,75.582 L127.4831,68.5352 L127.8894,68.5352 C129.6238,68.5352 130.7956,69.3477 130.7956,72.0039 C130.7956,74.6602 129.6238,75.582 127.8894,75.582 L127.4831,75.582 Z " fill="#000000"/><text fill="#000000" font-family="sans-serif" font-size="14" lengthAdjust="spacing" textLength="63.8271" x="141.78" y="76.6802">evaluation</text></g><!--class contribution--><g class="entity" data-entity="contribution" data-source-line="115" data-uid="ent0007" id="entity_contribution"><rect fill="#F1F1F1" height="32" rx="2.5" ry="2.5" style="stroke:#181818;stroke-width:0.5;" width="104.3789" x="759.28" y="156.5977"/><ellipse cx="774.28" cy="172.5977" fill="#7E57C2" rx="11" ry="11" style="stroke:#181818;stroke-width:1;"/><path d="M771.4675,178.5977 L774.6863,178.5977 C777.7644,178.5977 779.8738,176.8164 779.8738,173.0039 C779.8738,169.1914 777.7644,167.5195 774.53,167.5195 L771.4675,167.5195 L771.4675,178.5977 Z M773.9831,176.582 L773.9831,169.5352 L774.3894,169.5352 C776.1238,169.5352 777.2956,170.3477 777.2956,173.0039 C777.2956,175.6602 776.1238,176.582 774.3894,176.582 L773.9831,176.582 Z " fill="#000000"/><text fill="#000000" font-family="sans-serif" font-size="14" lengthAdjust="spacing" textLength="72.3789" x="788.28" y="177.6802">contribution</text></g><!--class location--><g class="entity" data-entity="location" data-source-line="127" data-uid="ent0008" id="entity_location"><rect fill="#F1F1F1" height="32" rx="2.5" ry="2.5" style="stroke:#181818;stroke-width:0.5;" width="80.2549" x="339.16" y="479.5977"/><ellipse cx="354.16" cy="495.5977" fill="#7E57C2" rx="11" ry="11" style="stroke:#181818;stroke-width:1;"/><path d="M351.3475,501.5977 L354.5663,501.5977 C357.6444,501.5977 359.7538,499.8164 359.7538,496.0039 C359.7538,492.1914 357.6444,490.5195 354.41,490.5195 L351.3475,490.5195 L351.3475,501.5977 Z M353.8631,499.582 L353.8631,492.5352 L354.2694,492.5352 C356.0038,492.5352 357.1756,493.3477 357.1756,496.0039 C357.1756,498.6602 356.0038,499.582 354.2694,499.582 L353.8631,499.582 Z " fill="#000000"/><text fill="#000000" font-family="sans-serif" font-size="14" lengthAdjust="spacing" textLength="48.2549" x="368.16" y="500.6802">location</text></g><!--class rights--><g class="entity" data-entity="rights" data-source-line="140" data-uid="ent0009" id="entity_rights"><rect fill="#F1F1F1" height="32" rx="2.5" ry="2.5" style="stroke:#181818;stroke-width:0.5;" width="66.2344" x="682.17" y="382.5977"/><ellipse cx="697.17" cy="398.5977" fill="#7E57C2" rx="11" ry="11" style="stroke:#181818;stroke-width:1;"/><path d="M694.3575,404.5977 L697.5763,404.5977 C700.6544,404.5977 702.7638,402.8164 702.7638,399.0039 C702.7638,395.1914 700.6544,393.5195 697.42,393.5195 L694.3575,393.5195 L694.3575,404.5977 Z M696.8731,402.582 L696.8731,395.5352 L697.2794,395.5352 C699.0138,395.5352 700.1856,396.3477 700.1856,399.0039 C700.1856,401.6602 699.0138,402.582 697.2794,402.582 L696.8731,402.582 Z " fill="#000000"/><text fill="#000000" font-family="sans-serif" font-size="14" lengthAdjust="spacing" textLength="34.2344" x="711.17" y="403.6802">rights</text></g><!--class collection--><g class="entity" data-entity="collection" data-source-line="151" data-uid="ent0010" id="entity_collection"><rect fill="#F1F1F1" height="32" rx="2.5" ry="2.5" style="stroke:#181818;stroke-width:0.5;" width="90.3652" x="522.28" y="156.5977"/><ellipse cx="537.28" cy="172.5977" fill="#7E57C2" rx="11" ry="11" style="stroke:#181818;stroke-width:1;"/><path d="M534.4675,178.5977 L537.6863,178.5977 C540.7644,178.5977 542.8738,176.8164 542.8738,173.0039 C542.8738,169.1914 540.7644,167.5195 537.53,167.5195 L534.4675,167.5195 L534.4675,178.5977 Z M536.9831,176.582 L536.9831,169.5352 L537.3894,169.5352 C539.1238,169.5352 540.2956,170.3477 540.2956,173.0039 C540.2956,175.6602 539.1238,176.582 537.3894,176.582 L536.9831,176.582 Z " fill="#000000"/><text fill="#000000" font-family="sans-serif" font-size="14" lengthAdjust="spacing" textLength="58.3652" x="551.28" y="177.6802">collection</text></g><!--class project--><g class="entity" data-entity="project" data-source-line="163" data-uid="ent0011" id="entity_project"><rect fill="#F1F1F1" height="32" rx="2.5" ry="2.5" style="stroke:#181818;stroke-width:0.5;" width="74.0205" x="342.28" y="382.5977"/><ellipse cx="357.28" cy="398.5977" fill="#7E57C2" rx="11" ry="11" style="stroke:#181818;stroke-width:1;"/><path d="M354.4675,404.5977 L357.6863,404.5977 C360.7644,404.5977 362.8738,402.8164 362.8738,399.0039 C362.8738,395.1914 360.7644,393.5195 357.53,393.5195 L354.4675,393.5195 L354.4675,404.5977 Z M356.9831,402.582 L356.9831,395.5352 L357.3894,395.5352 C359.1238,395.5352 360.2956,396.3477 360.2956,399.0039 C360.2956,401.6602 359.1238,402.582 357.3894,402.582 L356.9831,402.582 Z " fill="#000000"/><text fill="#000000" font-family="sans-serif" font-size="14" lengthAdjust="spacing" textLength="42.0205" x="371.28" y="403.6802">project</text></g><!--class funder--><g class="entity" data-entity="funder" data-source-line="180" data-uid="ent0012" id="entity_funder"><rect fill="#FFD4A3" height="32" rx="2.5" ry="2.5" style="stroke:#181818;stroke-width:0.5;" width="71.6963" x="407.44" y="156.5977"/><ellipse cx="422.44" cy="172.5977" fill="#ADD1B2" rx="11" ry="11" style="stroke:#181818;stroke-width:1;"/><path d="M418.5025,178.5977 L426.0181,178.5977 L426.0181,176.4883 L421.0181,176.4883 L421.0181,173.9414 L425.1119,173.9414 L425.1119,171.8477 L421.0181,171.8477 L421.0181,169.6289 L425.8463,169.6289 L425.8463,167.5195 L418.5025,167.5195 L418.5025,178.5977 Z " fill="#000000"/><text fill="#000000" font-family="sans-serif" font-size="14" lengthAdjust="spacing" textLength="39.6963" x="436.44" y="177.6802">funder</text></g><!--class fundingReceipt--><g class="entity" data-entity="fundingReceipt" data-source-line="187" data-uid="ent0013" id="entity_fundingReceipt"><rect fill="#F1F1F1" height="32" rx="2.5" ry="2.5" style="stroke:#181818;stroke-width:0.5;" width="125.3994" x="627.78" y="55.5977"/><ellipse cx="642.78" cy="71.5977" fill="#7E57C2" rx="11" ry="11" style="stroke:#181818;stroke-width:1;"/><path d="M639.9675,77.5977 L643.1863,77.5977 C646.2644,77.5977 648.3738,75.8164 648.3738,72.0039 C648.3738,68.1914 646.2644,66.5195 643.03,66.5195 L639.9675,66.5195 L639.9675,77.5977 Z M642.4831,75.582 L642.4831,68.5352 L642.8894,68.5352 C644.6238,68.5352 645.7956,69.3477 645.7956,72.0039 C645.7956,74.6602 644.6238,75.582 642.8894,75.582 L642.4831,75.582 Z " fill="#000000"/><text fill="#000000" font-family="sans-serif" font-size="14" lengthAdjust="spacing" textLength="93.3994" x="656.78" y="76.6802">fundingReceipt</text></g><!--class token--><g class="entity" data-entity="token" data-source-line="208" data-uid="ent0014" id="entity_token"><rect fill="#FFB6C1" height="32.998" rx="2.5" ry="2.5" style="stroke:#181818;stroke-width:0.5;" width="85.3398" x="221.61" y="269.0977"/><ellipse cx="236.61" cy="285.5967" fill="#F1F1F1" rx="11" ry="11" style="stroke:#181818;stroke-width:1;"/><path d="M233.3913,291.5967 L235.8913,291.5967 L235.8913,287.8467 L237.3131,287.8467 C239.6569,287.8467 241.6413,286.6904 241.6413,284.0811 C241.6413,281.3936 239.7038,280.5186 237.3131,280.5186 L233.3913,280.5186 L233.3913,291.5967 Z M235.8913,285.8467 L235.8913,282.5029 L237.1569,282.5029 C238.485,282.5029 239.2038,282.9248 239.2038,284.0811 C239.2038,285.2373 238.5319,285.8467 237.1569,285.8467 L235.8913,285.8467 Z " fill="#000000"/><text fill="#000000" font-family="sans-serif" font-size="20" font-weight="bold" lengthAdjust="spacing" textLength="53.3398" x="250.61" y="292.8574">token</text></g><!--class hiddenLocation1--><g class="entity" data-entity="hiddenLocation1" data-source-line="243" data-uid="ent0020" id="entity_hiddenLocation1"><rect fill="none" height="26.0986" rx="2.5" ry="2.5" style="stroke:none;stroke-width:0.5;" width="9.8896" x="362.34" y="159.5477"/><text fill="#000000" font-family="sans-serif" font-size="14" lengthAdjust="spacing" textLength="3.8896" x="365.34" y="177.6795">&#160;</text></g><!--link token to activity--><g class="link" data-entity-1="token" data-entity-2="activity" data-source-line="283" data-uid="lnk34" id="link_token_activity"><path codeLine="283" d="M307.16,285.5977 C330.64,285.5977 354.05,285.5977 379.53,285.5977" fill="none" id="token-to-activity" style="stroke:#666666;stroke-width:1;stroke-dasharray:7,7;"/><polygon fill="#666666" points="385.53,285.5977,376.53,281.5977,380.53,285.5977,376.53,289.5977,385.53,285.5977" style="stroke:#666666;stroke-width:1;"/><text fill="#666666" font-family="sans-serif" font-size="10" lengthAdjust="spacing" textLength="42.2461" x="325.12" y="279.9775">tokenizes</text></g><!--link evaluation to evidence--><g class="link" data-entity-1="evaluation" data-entity-2="evidence" data-source-line="230" data-uid="lnk17" id="link_evaluation_evidence"><path codeLine="230" d="M182.18,91.4477 C202.65,109.0677 228.4842,131.3016 248.9142,148.9016" fill="none" id="evaluation-to-evidence" style="stroke:#666666;stroke-width:1;"/><polygon fill="#666666" points="253.46,152.8177,249.252,143.913,249.6718,149.5542,244.0306,149.974,253.46,152.8177" style="stroke:#666666;stroke-width:1;"/></g><!--link evaluation to measurement--><g class="link" data-entity-1="evaluation" data-entity-2="measurement" data-source-line="231" data-uid="lnk18" id="link_evaluation_measurement"><path codeLine="231" d="M152.95,91.2177 C146.02,108.8077 137.8789,129.4751 130.9189,147.1451" fill="none" id="evaluation-to-measurement" style="stroke:#666666;stroke-width:1;"/><polygon fill="#666666" points="128.72,152.7277,135.74,145.8198,130.5524,148.0755,128.2966,142.8879,128.72,152.7277" style="stroke:#666666;stroke-width:1;"/></g><!--link evaluation to activity--><g class="link" data-entity-1="evaluation" data-entity-2="activity" data-source-line="232" data-uid="lnk19" id="link_evaluation_activity"><path codeLine="232" d="M115.58,91.5077 C68.75,113.9977 6,153.4377 37.28,192.5977 C59.05,219.8477 272.837,257.3395 379.657,274.6195" fill="none" id="evaluation-to-activity" style="stroke:#666666;stroke-width:1;"/><polygon fill="#666666" points="385.58,275.5777,377.3343,270.1918,380.6442,274.7792,376.0567,278.0891,385.58,275.5777" style="stroke:#666666;stroke-width:1;"/></g><!--link evaluation to hiddenLocation1--><g class="link" data-entity-1="evaluation" data-entity-2="hiddenLocation1" data-source-line="245" data-uid="lnk21" id="link_evaluation_hiddenLocation1"><path codeLine="245" d="M215.48,91.4077 C253.45,105.5377 304.23,126.8477 345.28,152.5977 C351.44,156.4577 353.3167,157.8168 357.5567,161.9168" fill="none" id="evaluation-to-hiddenLocation1" style="stroke:#666666;stroke-width:1;"/><polygon fill="#666666" points="361.87,166.0877,358.1807,156.9559,358.2756,162.612,352.6196,162.7069,361.87,166.0877" style="stroke:#666666;stroke-width:1;"/></g><!--link evidence to activity--><g class="link" data-entity-1="evidence" data-entity-2="activity" data-source-line="254" data-uid="lnk22" id="link_evidence_activity"><path codeLine="254" d="M303.78,192.4277 C334.68,212.8377 378.6945,241.9193 409.6345,262.3693" fill="none" id="evidence-to-activity" style="stroke:#666666;stroke-width:1;"/><polygon fill="#666666" points="414.64,265.6777,409.3374,257.3781,410.4688,262.9207,404.9262,264.052,414.64,265.6777" style="stroke:#666666;stroke-width:1;"/></g><!--link measurement to activity--><g class="link" data-entity-1="measurement" data-entity-2="activity" data-source-line="256" data-uid="lnk23" id="link_measurement_activity"><path codeLine="256" d="M176.27,192.5577 C235.46,212.9577 323.3777,243.262 382.5777,263.672" fill="none" id="measurement-to-activity" style="stroke:#666666;stroke-width:1;"/><polygon fill="#666666" points="388.25,265.6277,381.0452,258.9127,383.523,263.998,378.4377,266.4758,388.25,265.6277" style="stroke:#666666;stroke-width:1;"/></g><!--link measurement to location--><g class="link" data-entity-1="measurement" data-entity-2="location" data-source-line="266" data-uid="lnk24" id="link_measurement_location"><path codeLine="266" d="M131.54,192.2477 C146.29,218.4777 174.96,267.3577 204.28,305.5977 C257.34,374.7977 326.7962,444.0674 358.9362,475.1374" fill="none" id="measurement-to-location" style="stroke:#666666;stroke-width:1;"/><polygon fill="#666666" points="363.25,479.3077,359.5594,470.1764,359.6551,475.8325,353.9991,475.9282,363.25,479.3077" style="stroke:#666666;stroke-width:1;"/></g><!--link collection to activity--><g class="link" data-entity-1="collection" data-entity-2="activity" data-source-line="269" data-uid="lnk25" id="link_collection_activity"><path codeLine="269" d="M546.25,192.4277 C523.45,212.8377 491.7301,241.2253 468.8901,261.6753" fill="none" id="collection-to-activity" style="stroke:#666666;stroke-width:1;"/><polygon fill="#666666" points="464.42,265.6777,473.7933,262.6542,468.1451,262.3424,468.4569,256.6941,464.42,265.6777" style="stroke:#666666;stroke-width:1;"/></g><!--link project to activity--><g class="link" data-entity-1="project" data-entity-2="activity" data-source-line="271" data-uid="lnk26" id="link_project_activity"><path codeLine="271" d="M400.36,378.6777 C416.1,358.2277 432.6281,331.4423 440.4281,311.0323" fill="none" id="project-to-activity" style="stroke:#666666;stroke-width:1;"/><polygon fill="#666666" points="442.57,305.4277,435.6207,312.4067,440.7851,310.0982,443.0936,315.2626,442.57,305.4277" style="stroke:#666666;stroke-width:1;"/></g><!--link activity to project--><g class="link" data-entity-1="activity" data-entity-2="project" data-source-line="277" data-uid="lnk32" id="link_activity_project"><path codeLine="277" d="M422.28,305.4277 C406.55,325.8377 390.0054,352.6243 382.1754,373.0743" fill="none" id="activity-to-project" style="stroke:#666666;stroke-width:1;"/><polygon fill="#666666" points="380.03,378.6777,386.9837,371.703,381.8179,374.0082,379.5126,368.8424,380.03,378.6777" style="stroke:#666666;stroke-width:1;"/></g><!--link project to location--><g class="link" data-entity-1="project" data-entity-2="location" data-source-line="272" data-uid="lnk27" id="link_project_location"><path codeLine="272" d="M379.28,418.3677 C379.28,436.2077 379.28,456.7177 379.28,473.3177" fill="none" id="project-to-location" style="stroke:#666666;stroke-width:1;"/><polygon fill="#666666" points="379.28,479.3177,383.28,470.3177,379.28,474.3177,375.28,470.3177,379.28,479.3177" style="stroke:#666666;stroke-width:1;"/></g><!--reverse link contribution to activity--><g class="link" data-entity-1="contribution" data-entity-2="activity" data-source-line="274" data-uid="lnk29" id="link_contribution_activity"><path codeLine="274" d="M783.3932,196.1615 C765.0132,210.2115 742.83,225.0577 716.28,235.5977 C645.35,263.7577 557.6,275.8277 501.05,280.9477" fill="none" id="contribution-backto-activity" style="stroke:#666666;stroke-width:1;"/><polygon fill="#666666" points="788.16,192.5177,778.5806,194.8055,784.1877,195.5542,783.439,201.1613,788.16,192.5177" style="stroke:#666666;stroke-width:1;"/></g><!--link activity to rights--><g class="link" data-entity-1="activity" data-entity-2="rights" data-source-line="275" data-uid="lnk30" id="link_activity_rights"><path codeLine="275" d="M489.73,305.5577 C544.36,327.8477 628.1144,362.0314 676.3344,381.7014" fill="none" id="activity-to-rights" style="stroke:#666666;stroke-width:1;"/><polygon fill="#666666" points="681.89,383.9677,675.0675,376.8646,677.2604,382.0791,672.0458,384.272,681.89,383.9677" style="stroke:#666666;stroke-width:1;"/></g><!--link activity to location--><g class="link" data-entity-1="activity" data-entity-2="location" data-source-line="276" data-uid="lnk31" id="link_activity_location"><path codeLine="276" d="M448.55,305.5177 C450.81,314.5377 453.17,325.5477 454.28,335.5977 C457.64,365.8377 443.62,415.6877 442.28,418.5977 C431.33,442.4177 415.2681,460.7312 400.6481,474.9712" fill="none" id="activity-to-location" style="stroke:#666666;stroke-width:1;"/><polygon fill="#666666" points="396.35,479.1577,405.5881,475.7435,399.9318,475.669,400.0063,470.0126,396.35,479.1577" style="stroke:#666666;stroke-width:1;"/></g><!--link contribution to contributor--><g class="link" data-entity-1="contribution" data-entity-2="contributor" data-source-line="279" data-uid="lnk33" id="link_contribution_contributor"><path codeLine="279" d="M811.28,192.4277 C811.28,214.0777 811.28,243.1977 811.28,263.2577" fill="none" id="contribution-to-contributor" style="stroke:#666666;stroke-width:1;"/><polygon fill="#666666" points="811.28,269.2577,815.28,260.2577,811.28,264.2577,807.28,260.2577,811.28,269.2577" style="stroke:#666666;stroke-width:1;"/><text fill="#666666" font-family="sans-serif" font-size="10" lengthAdjust="spacing" textLength="38.3545" x="812.28" y="232.9775">made by</text></g><!--link funder to activity--><g class="link" data-entity-1="funder" data-entity-2="activity" data-source-line="284" data-uid="lnk35" id="link_funder_activity"><path codeLine="284" d="M443.28,189.0277 C443.28,209.1677 443.28,238.3677 443.28,259.9677" fill="none" id="funder-to-activity" style="stroke:#666666;stroke-width:1;stroke-dasharray:7,7;"/><polygon fill="#666666" points="443.28,265.9677,447.28,256.9677,443.28,260.9677,439.28,256.9677,443.28,265.9677" style="stroke:#666666;stroke-width:1;"/><text fill="#666666" font-family="sans-serif" font-size="10" lengthAdjust="spacing" textLength="24.4629" x="444.28" y="232.9775">funds</text></g><!--link contributor to rights--><g class="link" data-entity-1="contributor" data-entity-2="rights" data-source-line="285" data-uid="lnk36" id="link_contributor_rights"><path codeLine="285" d="M797.94,302.0277 C779.59,323.2377 750.7245,356.6191 732.4445,377.7591" fill="none" id="contributor-to-rights" style="stroke:#666666;stroke-width:1;stroke-dasharray:7,7;"/><polygon fill="#666666" points="728.52,382.2977,737.4325,378.1062,731.7904,378.5156,731.3811,372.8735,728.52,382.2977" style="stroke:#666666;stroke-width:1;"/><text fill="#666666" font-family="sans-serif" font-size="10" lengthAdjust="spacing" textLength="16.123" x="767.16" y="345.9775">has</text></g><!--link fundingReceipt to funder--><g class="link" data-entity-1="fundingReceipt" data-entity-2="funder" data-source-line="291" data-uid="lnk37" id="link_fundingReceipt_funder"><path codeLine="291" d="M642.95,91.5677 C595.32,110.6577 528.4692,137.4551 485.1892,154.8051" fill="none" id="fundingReceipt-to-funder" style="stroke:#666666;stroke-width:1;"/><polygon fill="#666666" points="479.62,157.0377,489.4621,157.4016,484.261,155.1772,486.4854,149.976,479.62,157.0377" style="stroke:#666666;stroke-width:1;"/></g><!--link fundingReceipt to contributor--><g class="link" data-entity-1="fundingReceipt" data-entity-2="contributor" data-source-line="292" data-uid="lnk38" id="link_fundingReceipt_contributor"><path codeLine="292" d="M760.3,80.8877 C805.34,90.2477 860.62,110.1777 889.28,152.5977 C916.86,193.3977 868.5394,240.4373 837.0194,265.4573" fill="none" id="fundingReceipt-to-contributor" style="stroke:#666666;stroke-width:1;"/><polygon fill="#666666" points="832.32,269.1877,841.856,266.7251,836.2362,266.0791,836.8823,260.4592,832.32,269.1877" style="stroke:#666666;stroke-width:1;"/></g><!--link fundingReceipt to activity--><g class="link" data-entity-1="fundingReceipt" data-entity-2="activity" data-source-line="294" data-uid="lnk39" id="link_fundingReceipt_activity"><path codeLine="294" d="M686.47,91.5777 C680.4,117.4177 666.24,163.7277 638.28,192.5977 C600.78,231.3177 549.4786,253.7405 506.7686,267.5605" fill="none" id="fundingReceipt-to-activity" style="stroke:#666666;stroke-width:1;"/><polygon fill="#666666" points="501.06,269.4077,510.8543,270.4426,505.8172,267.8683,508.3914,262.8312,501.06,269.4077" style="stroke:#666666;stroke-width:1;"/><text fill="#666666" font-family="sans-serif" font-size="10" lengthAdjust="spacing" textLength="24.4629" x="665.8" y="176.4775">funds</text></g><!--SRC=[lLXHSzCu47xthr3BGs3c4g37yP0fxRHDStIcqp9f3nuOXb7iJQohRVaakI7SyDzlLv9jEMtI53W20_PANktkjxlwf1wxa0KmEMCc1GrCLsKfbM5SARdGJ2en5mKtefYpcP8v4qKYRaLIyOpD16I9ZdexfUBpdBECBsLbcCx1y8BVaKDsSqTsAxx-hQF829C1stsxB475WAkVJaQxKTHZ9xAOYNcbq01Pi5kk19zceACTCIiIcB6hjvSVFe_FJiz7Lz4E2WIw4iZOZ6SQeXr0esSHVSMUXiDlth1TEsNtMPIA11ZafLdMZldFWW7qB9KuOaNQW09fq6Rqe5vySlh-xFJ3vvFByyi9Up8UZuzEHitWqMHosOozjhyesjTccS51bCYuog4mxD-8uS-5n3tJRomBSoM-0jjxrPNHrsmgiyIAlqNVeZZZMey4dokUUmqMpK3REPfp8ZEfGfiwUZUFMajUll1Bqh-3ZAiv7ACTmJ8fy0HK8EXwykAklEjDgvxysd_kG-KImoWnhOnK6hq3fg1KcB-5WOHDbsnqDgBaPMcLywAlq0vA7CHCOIPZpbAsAvX9_3AHh9065VnJ2NpDPG9PHlb-ApZ3J8Kl8fR584BT0dCWRbScW4UlZdxt3jwRNaPLb5qqZZQHIGNFuNcfeKfaiSpTboxJlf5dKiq7QLq8Ue1WYdp0OuDLXwltqN2X6Vv51rZEHO66nr8b-6KJ0ZAUiqR984guuJOhMADeVxy1xE20FJb-TVh7wCMMZjZSj4ywnLun0XqhKLA9Mc7IlXzQWSZv7DpZGggRgrYM_bKRZjzpuxHX59hd9ioeHN_yvAPdCkQjMcnDgT7kkLJoRuYDUuaHRyo38xDTS07x6HGn166gHLi6H5VJO7Mq745u85A7zuTAGMOzl5xM8NgaCpbmNIcWJXBu4qY_noN_kK8W_3jY4zl7MvvLK0knERQ6k_U_9cVkjGuf2kw7yz6euShsymvkjV1xtDHLddErzEPQJRBnsSDQsnv4j4bFZOK8F-vPcFg1Rw5uI- -KpE2mMqwjGtTohod6mx0Q7tA1b-M0h1UuQoQ3sl70xbgqfSrP-HuJhUubMkbEG2czEWBxGYrrJK4zClQkfmJMEy6syRQJBz2QuBKnsRskTajkSAcKykWxaoNBC85NKwKM_d17TqRnMzIjwbIw1VKkbKRwCRUb26WgvN4U-DOTcEyb_zDkjAqlZ-fHHiw1A0NQZ7wEAsIdlvgOpEoYluAJq4fenm2P1s1a0-JyoCGDR0kWjF_HyS8zI8yEpsNbDzAuKWft3zURIxwaUfbmaHs6WWimn2-Sp2XUQ6wBu2nn8emcUBuWOwiHaNm0s6-iHvsGrG1JE2ukhq-73H73jnQDtnZsM3mauU609mZTZEeG4w5WieXJf6k4iBo1GdnrJH4FNZZOq397vWQCNKac3AO0Q9i41G1Hl6OTPeyKWbGC8gmN8x7cdUPLQZSU7xy-URab5azbqRTsehtPyjcTJF3djbJWjXVrWksstqy-uh48j_XF_ODcizym9IGglP2VT6RLWI55dfBrrHejBKdEWXas9k7dzwiFMkQQ6NLNUcWuDA_PfNgjSLKm7cpBwwRSfoAqmEzOlGuzw1ZHMMIbGljhvaKjRiEX9qa8O81iE24aGtPM2CiwJKteCAtEyb9gBQWJ6icmqbnrsPk9WYq4CacwMS0gNL03h4fx_7796EROSDYmZNx_Oo6n1znqWeXhQTdKPyvl06iguSNSDbPtJAwqFq3Po33RsI9z8ugIqudQTJfNJiSylfahx5A9FI_lx_-PIcsmwgwf- -3y-Y1mZ5KDwe59fxQHRvZap_Pi5_zmxGqyzxwzPCr7xe9YTJWMAiwwm0NHEbYT7stg5Jrsb64WeI2OBHXXjAWjQfd3WlOojejYZ961NGAtWMBLlFvzPRK3T87ZL_jPMK85LET6c1prFL6Tu-loDSZkzIbzPVtdQ8_81JRaR4aRM-SarbryGxGteBwt6VMz6lMEpHjWt_lvqEvre0sYJT2kZuS7estCms5BprR2xPll-XdDX8xhRLke9mw7dOi7t4hwOMUakUrKVpRejrsu7Rj_dNQysIvmk6R0KRXEO0dTSVMx3PeDiNaXsbERQzVswXRhm55E8WoEzauTwUJ5iajGQ1P7H8ZNECx94dzXI4cAI2kAckCJWq4RI5pNqnVGaMUSA-CarL5eAqtmiHgobElMPEHhrXPFVzaY5N6AbPnbn9r0sHsRh8k92OB2FcYMFQB9dhYkq6ZYiUofi9VPovuF1O9mTFsEEDAp0NxvLYu0MJzRqBAq4j9g39H2_eSrMj4TkCn4Kj-0Jo7c92IDP2jgW2zb9c8yTYo3C5FxGTf4ngxiiGrHxyg7GtkXJi2wGDuPnvBgh-xBTtHW4C9CRm3u3m00]--></g></svg>