<svg xmlns="http://www.w3.org/2000/svg" xmlns:xlink="http://www.w3.org/1999/xlink" contentStyleType="text/css" data-diagram-type="CLASS" height="524px" preserveAspectRatio="none" style="width:1381px;height:524px;background:#FFFFFF;" version="1.1" viewBox="0 0 1381 524" width="1381px" zoomAndPan="magnify"><title>Hypercert ERD</title><defs/><g><g class="title" data-source-line="7"><text fill="#000000" font-family="sans-serif" font-size="24" font-weight="bold" lengthAdjust="spacing" textLength="157.0547" x="605.4429" y="32.2656">Hypercert ERD</text></g><!--class contributorEntity--><g class="entity" data-entity="contributorEntity" data-source-line="47" data-uid="ent0002" id="entity_contributorEntity"><rect fill="#FFD4A3" height="32" rx="2.5" ry="2.5" style="stroke:#181818;stroke-width:0.5;" width="181.4473" x="315.78" y="380.125"/><ellipse cx="330.78" cy="396.125" fill="#ADD1B2" rx="11" ry="11" style="stroke:#181818;stroke-width:1;"/><path d="M326.8425,402.125 L334.3581,402.125 L334.3581,400.0156 L329.3581,400.0156 L329.3581,397.4688 L333.4519,397.4688 L333.4519,395.375 L329.3581,395.375 L329.3581,393.1563 L334.1863,393.1563 L334.1863,391.0469 L326.8425,391.0469 L326.8425,402.125 Z " fill="#000000"/><text fill="#000000" font-family="sans-serif" font-size="14" lengthAdjust="spacing" textLength="149.4473" x="344.78" y="400.9102">contributor (DID/profile)</text></g><!--class activity--><g class="entity" data-entity="activity" data-source-line="55" data-uid="ent0003" id="entity_activity"><rect fill="#B4E5D0" height="33.4375" rx="2.5" ry="2.5" style="stroke:#181818;stroke-width:0.5;" width="97.4492" x="667" y="270.125"/><ellipse cx="682" cy="286.8438" fill="#7E57C2" rx="11" ry="11" style="stroke:#181818;stroke-width:1;"/><path d="M679.1875,292.8438 L682.4063,292.8438 C685.4844,292.8438 687.5938,291.0625 687.5938,287.25 C687.5938,283.4375 685.4844,281.7656 682.25,281.7656 L679.1875,281.7656 L679.1875,292.8438 Z M681.7031,290.8281 L681.7031,283.7813 L682.1094,283.7813 C683.8438,283.7813 685.0156,284.5938 685.0156,287.25 C685.0156,289.9063 683.8438,290.8281 682.1094,290.8281 L681.7031,290.8281 Z " fill="#000000"/><text fill="#000000" font-family="sans-serif" font-size="20" font-weight="bold" lengthAdjust="spacing" textLength="65.4492" x="696" y="293.6797">activity</text></g><!--class evidence--><g class="entity" data-entity="evidence" data-source-line="72" data-uid="ent0004" id="entity_evidence"><rect fill="#F1F1F1" height="32" rx="2.5" ry="2.5" style="stroke:#181818;stroke-width:0.5;" width="87.4121" x="672" y="157.125"/><ellipse cx="687" cy="173.125" fill="#7E57C2" rx="11" ry="11" style="stroke:#181818;stroke-width:1;"/><path d="M684.1875,179.125 L687.4063,179.125 C690.4844,179.125 692.5938,177.3438 692.5938,173.5313 C692.5938,169.7188 690.4844,168.0469 687.25,168.0469 L684.1875,168.0469 L684.1875,179.125 Z M686.7031,177.1094 L686.7031,170.0625 L687.1094,170.0625 C688.8438,170.0625 690.0156,170.875 690.0156,173.5313 C690.0156,176.1875 688.8438,177.1094 687.1094,177.1094 L686.7031,177.1094 Z " fill="#000000"/><text fill="#000000" font-family="sans-serif" font-size="14" lengthAdjust="spacing" textLength="55.4121" x="701" y="177.9102">evidence</text></g><!--class measurement--><g class="entity" data-entity="measurement" data-source-line="85" data-uid="ent0005" id="entity_measurement"><rect fill="#F1F1F1" height="32" rx="2.5" ry="2.5" style="stroke:#181818;stroke-width:0.5;" width="118.4404" x="1256.5" y="157.125"/><ellipse cx="1271.5" cy="173.125" fill="#7E57C2" rx="11" ry="11" style="stroke:#181818;stroke-width:1;"/><path d="M1268.6875,179.125 L1271.9063,179.125 C1274.9844,179.125 1277.0938,177.3438 1277.0938,173.5313 C1277.0938,169.7188 1274.9844,168.0469 1271.75,168.0469 L1268.6875,168.0469 L1268.6875,179.125 Z M1271.2031,177.1094 L1271.2031,170.0625 L1271.6094,170.0625 C1273.3438,170.0625 1274.5156,170.875 1274.5156,173.5313 C1274.5156,176.1875 1273.3438,177.1094 1271.6094,177.1094 L1271.2031,177.1094 Z " fill="#000000"/><text fill="#000000" font-family="sans-serif" font-size="14" lengthAdjust="spacing" textLength="86.4404" x="1285.5" y="177.9102">measurement</text></g><!--class evaluation--><g class="entity" data-entity="evaluation" data-source-line="100" data-uid="ent0006" id="entity_evaluation"><rect fill="#F1F1F1" height="32" rx="2.5" ry="2.5" style="stroke:#181818;stroke-width:0.5;" width="96.2578" x="801.5" y="56.125"/><ellipse cx="816.5" cy="72.125" fill="#7E57C2" rx="11" ry="11" style="stroke:#181818;stroke-width:1;"/><path d="M813.6875,78.125 L816.9063,78.125 C819.9844,78.125 822.0938,76.3438 822.0938,72.5313 C822.0938,68.7188 819.9844,67.0469 816.75,67.0469 L813.6875,67.0469 L813.6875,78.125 Z M816.2031,76.1094 L816.2031,69.0625 L816.6094,69.0625 C818.3438,69.0625 819.5156,69.875 819.5156,72.5313 C819.5156,75.1875 818.3438,76.1094 816.6094,76.1094 L816.2031,76.1094 Z " fill="#000000"/><text fill="#000000" font-family="sans-serif" font-size="14" lengthAdjust="spacing" textLength="64.2578" x="830.5" y="76.9102">evaluation</text></g><!--class contributorInformation--><g class="entity" data-entity="contributorInformation" data-source-line="114" data-uid="ent0007" id="entity_contributorInformation"><rect fill="#F1F1F1" height="32" rx="2.5" ry="2.5" style="stroke:#181818;stroke-width:0.5;" width="173.3877" x="7" y="270.625"/><ellipse cx="22" cy="286.625" fill="#7E57C2" rx="11" ry="11" style="stroke:#181818;stroke-width:1;"/><path d="M19.1875,292.625 L22.4063,292.625 C25.4844,292.625 27.5938,290.8438 27.5938,287.0313 C27.5938,283.2188 25.4844,281.5469 22.25,281.5469 L19.1875,281.5469 L19.1875,292.625 Z M21.7031,290.6094 L21.7031,283.5625 L22.1094,283.5625 C23.8438,283.5625 25.0156,284.375 25.0156,287.0313 C25.0156,289.6875 23.8438,290.6094 22.1094,290.6094 L21.7031,290.6094 Z " fill="#000000"/><text fill="#000000" font-family="sans-serif" font-size="14" lengthAdjust="spacing" textLength="141.3877" x="36" y="291.4102">contributorInformation</text></g><!--class contributionDetails--><g class="entity" data-entity="contributionDetails" data-source-line="124" data-uid="ent0008" id="entity_contributionDetails"><rect fill="#F1F1F1" height="32" rx="2.5" ry="2.5" style="stroke:#181818;stroke-width:0.5;" width="149.8926" x="640.55" y="380.125"/><ellipse cx="655.55" cy="396.125" fill="#7E57C2" rx="11" ry="11" style="stroke:#181818;stroke-width:1;"/><path d="M652.7375,402.125 L655.9563,402.125 C659.0344,402.125 661.1438,400.3438 661.1438,396.5313 C661.1438,392.7188 659.0344,391.0469 655.8,391.0469 L652.7375,391.0469 L652.7375,402.125 Z M655.2531,400.1094 L655.2531,393.0625 L655.6594,393.0625 C657.3938,393.0625 658.5656,393.875 658.5656,396.5313 C658.5656,399.1875 657.3938,400.1094 655.6594,400.1094 L655.2531,400.1094 Z " fill="#000000"/><text fill="#000000" font-family="sans-serif" font-size="14" lengthAdjust="spacing" textLength="117.8926" x="669.55" y="400.9102">contributionDetails</text></g><!--class location--><g class="entity" data-entity="location" data-source-line="135" data-uid="ent0009" id="entity_location"><rect fill="#F1F1F1" height="32" rx="2.5" ry="2.5" style="stroke:#181818;stroke-width:0.5;" width="82.0322" x="1118.48" y="380.125"/><ellipse cx="1133.48" cy="396.125" fill="#7E57C2" rx="11" ry="11" style="stroke:#181818;stroke-width:1;"/><path d="M1130.6675,402.125 L1133.8863,402.125 C1136.9644,402.125 1139.0738,400.3438 1139.0738,396.5313 C1139.0738,392.7188 1136.9644,391.0469 1133.73,391.0469 L1130.6675,391.0469 L1130.6675,402.125 Z M1133.1831,400.1094 L1133.1831,393.0625 L1133.5894,393.0625 C1135.3238,393.0625 1136.4956,393.875 1136.4956,396.5313 C1136.4956,399.1875 1135.3238,400.1094 1133.5894,400.1094 L1133.1831,400.1094 Z " fill="#000000"/><text fill="#000000" font-family="sans-serif" font-size="14" lengthAdjust="spacing" textLength="50.0322" x="1147.48" y="400.9102">location</text></g><!--class badgeDefinition--><g class="entity" data-entity="badgeDefinition" data-source-line="148" data-uid="ent0010" id="entity_badgeDefinition"><rect fill="#F1F1F1" height="32" rx="2.5" ry="2.5" style="stroke:#181818;stroke-width:0.5;" width="130.376" x="223.31" y="270.625"/><ellipse cx="238.31" cy="286.625" fill="#7E57C2" rx="11" ry="11" style="stroke:#181818;stroke-width:1;"/><path d="M235.4975,292.625 L238.7163,292.625 C241.7944,292.625 243.9038,290.8438 243.9038,287.0313 C243.9038,283.2188 241.7944,281.5469 238.56,281.5469 L235.4975,281.5469 L235.4975,292.625 Z M238.0131,290.6094 L238.0131,283.5625 L238.4194,283.5625 C240.1538,283.5625 241.3256,284.375 241.3256,287.0313 C241.3256,289.6875 240.1538,290.6094 238.4194,290.6094 L238.0131,290.6094 Z " fill="#000000"/><text fill="#000000" font-family="sans-serif" font-size="14" lengthAdjust="spacing" textLength="98.376" x="252.31" y="291.4102">badgeDefinition</text></g><!--class badgeAward--><g class="entity" data-entity="badgeAward" data-source-line="159" data-uid="ent0011" id="entity_badgeAward"><rect fill="#F1F1F1" height="32" rx="2.5" ry="2.5" style="stroke:#181818;stroke-width:0.5;" width="110.5654" x="233.5" y="157.125"/><ellipse cx="248.5" cy="173.125" fill="#7E57C2" rx="11" ry="11" style="stroke:#181818;stroke-width:1;"/><path d="M245.6875,179.125 L248.9063,179.125 C251.9844,179.125 254.0938,177.3438 254.0938,173.5313 C254.0938,169.7188 251.9844,168.0469 248.75,168.0469 L245.6875,168.0469 L245.6875,179.125 Z M248.2031,177.1094 L248.2031,170.0625 L248.6094,170.0625 C250.3438,170.0625 251.5156,170.875 251.5156,173.5313 C251.5156,176.1875 250.3438,177.1094 248.6094,177.1094 L248.2031,177.1094 Z " fill="#000000"/><text fill="#000000" font-family="sans-serif" font-size="14" lengthAdjust="spacing" textLength="78.5654" x="262.5" y="177.9102">badgeAward</text></g><!--class badgeResponse--><g class="entity" data-entity="badgeResponse" data-source-line="168" data-uid="ent0012" id="entity_badgeResponse"><rect fill="#F1F1F1" height="32" rx="2.5" ry="2.5" style="stroke:#181818;stroke-width:0.5;" width="132.1602" x="222.5" y="56.125"/><ellipse cx="237.5" cy="72.125" fill="#7E57C2" rx="11" ry="11" style="stroke:#181818;stroke-width:1;"/><path d="M234.6875,78.125 L237.9063,78.125 C240.9844,78.125 243.0938,76.3438 243.0938,72.5313 C243.0938,68.7188 240.9844,67.0469 237.75,67.0469 L234.6875,67.0469 L234.6875,78.125 Z M237.2031,76.1094 L237.2031,69.0625 L237.6094,69.0625 C239.3438,69.0625 240.5156,69.875 240.5156,72.5313 C240.5156,75.1875 239.3438,76.1094 237.6094,76.1094 L237.2031,76.1094 Z " fill="#000000"/><text fill="#000000" font-family="sans-serif" font-size="14" lengthAdjust="spacing" textLength="100.1602" x="251.5" y="76.9102">badgeResponse</text></g><!--class rights--><g class="entity" data-entity="rights" data-source-line="178" data-uid="ent0013" id="entity_rights"><rect fill="#F1F1F1" height="32" rx="2.5" ry="2.5" style="stroke:#181818;stroke-width:0.5;" width="67.5264" x="444.74" y="485.125"/><ellipse cx="459.74" cy="501.125" fill="#7E57C2" rx="11" ry="11" style="stroke:#181818;stroke-width:1;"/><path d="M456.9275,507.125 L460.1463,507.125 C463.2244,507.125 465.3338,505.3438 465.3338,501.5313 C465.3338,497.7188 463.2244,496.0469 459.99,496.0469 L456.9275,496.0469 L456.9275,507.125 Z M459.4431,505.1094 L459.4431,498.0625 L459.8494,498.0625 C461.5838,498.0625 462.7556,498.875 462.7556,501.5313 C462.7556,504.1875 461.5838,505.1094 459.8494,505.1094 L459.4431,505.1094 Z " fill="#000000"/><text fill="#000000" font-family="sans-serif" font-size="14" lengthAdjust="spacing" textLength="35.5264" x="473.74" y="505.9102">rights</text></g><!--class collection--><g class="entity" data-entity="collection" data-source-line="191" data-uid="ent0014" id="entity_collection"><rect fill="#F1F1F1" height="32" rx="2.5" ry="2.5" style="stroke:#181818;stroke-width:0.5;" width="92.5732" x="926.5" y="157.125"/><ellipse cx="941.5" cy="173.125" fill="#7E57C2" rx="11" ry="11" style="stroke:#181818;stroke-width:1;"/><path d="M938.6875,179.125 L941.9063,179.125 C944.9844,179.125 947.0938,177.3438 947.0938,173.5313 C947.0938,169.7188 944.9844,168.0469 941.75,168.0469 L938.6875,168.0469 L938.6875,179.125 Z M941.2031,177.1094 L941.2031,170.0625 L941.6094,170.0625 C943.3438,170.0625 944.5156,170.875 944.5156,173.5313 C944.5156,176.1875 943.3438,177.1094 941.6094,177.1094 L941.2031,177.1094 Z " fill="#000000"/><text fill="#000000" font-family="sans-serif" font-size="14" lengthAdjust="spacing" textLength="60.5732" x="955.5" y="177.9102">collection</text></g><!--class funder--><g class="entity" data-entity="funder" data-source-line="206" data-uid="ent0015" id="entity_funder"><rect fill="#FFD4A3" height="32" rx="2.5" ry="2.5" style="stroke:#181818;stroke-width:0.5;" width="72.3799" x="459.31" y="157.125"/><ellipse cx="474.31" cy="173.125" fill="#ADD1B2" rx="11" ry="11" style="stroke:#181818;stroke-width:1;"/><path d="M470.3725,179.125 L477.8881,179.125 L477.8881,177.0156 L472.8881,177.0156 L472.8881,174.4688 L476.9819,174.4688 L476.9819,172.375 L472.8881,172.375 L472.8881,170.1563 L477.7163,170.1563 L477.7163,168.0469 L470.3725,168.0469 L470.3725,179.125 Z " fill="#000000"/><text fill="#000000" font-family="sans-serif" font-size="14" lengthAdjust="spacing" textLength="40.3799" x="488.31" y="177.9102">funder</text></g><!--class fundingReceipt--><g class="entity" data-entity="fundingReceipt" data-source-line="213" data-uid="ent0016" id="entity_fundingReceipt"><rect fill="#F1F1F1" height="32" rx="2.5" ry="2.5" style="stroke:#181818;stroke-width:0.5;" width="125.8574" x="433" y="56.125"/><ellipse cx="448" cy="72.125" fill="#7E57C2" rx="11" ry="11" style="stroke:#181818;stroke-width:1;"/><path d="M445.1875,78.125 L448.4063,78.125 C451.4844,78.125 453.5938,76.3438 453.5938,72.5313 C453.5938,68.7188 451.4844,67.0469 448.25,67.0469 L445.1875,67.0469 L445.1875,78.125 Z M447.7031,76.1094 L447.7031,69.0625 L448.1094,69.0625 C449.8438,69.0625 451.0156,69.875 451.0156,72.5313 C451.0156,75.1875 449.8438,76.1094 448.1094,76.1094 L447.7031,76.1094 Z " fill="#000000"/><text fill="#000000" font-family="sans-serif" font-size="14" lengthAdjust="spacing" textLength="93.8574" x="462" y="76.9102">fundingReceipt</text></g><!--class token--><g class="entity" data-entity="token" data-source-line="234" data-uid="ent0017" id="entity_token"><rect fill="#FFB6C1" height="33.4375" rx="2.5" ry="2.5" style="stroke:#181818;stroke-width:0.5;" width="82.7617" x="1131.12" y="156.405"/><ellipse cx="1146.12" cy="173.1237" fill="#F1F1F1" rx="11" ry="11" style="stroke:#181818;stroke-width:1;"/><path d="M1142.9013,179.1237 L1145.4013,179.1237 L1145.4013,175.3737 L1146.8231,175.3737 C1149.1669,175.3737 1151.1513,174.2175 1151.1513,171.6081 C1151.1513,168.9206 1149.2138,168.0456 1146.8231,168.0456 L1142.9013,168.0456 L1142.9013,179.1237 Z M1145.4013,173.3737 L1145.4013,170.03 L1146.6669,170.03 C1147.995,170.03 1148.7138,170.4519 1148.7138,171.6081 C1148.7138,172.7644 1148.0419,173.3737 1146.6669,173.3737 L1145.4013,173.3737 Z " fill="#000000"/><text fill="#000000" font-family="sans-serif" font-size="20" font-weight="bold" lengthAdjust="spacing" textLength="50.7617" x="1160.12" y="179.9597">token</text></g><!--class hiddenLocation1--><g class="entity" data-entity="hiddenLocation1" data-source-line="267" data-uid="ent0021" id="entity_hiddenLocation1"><rect fill="none" height="26.4063" rx="2.5" ry="2.5" style="stroke:none;stroke-width:0.5;" width="9.4727" x="873.76" y="159.925"/><text fill="#000000" font-family="sans-serif" font-size="14" lengthAdjust="spacing" textLength="3.4727" x="876.76" y="177.9133">&#160;</text></g><!--link evaluation to evidence--><g class="link" data-entity-1="evaluation" data-entity-2="evidence" data-source-line="254" data-uid="lnk18" id="link_evaluation_evidence"><path codeLine="254" d="M823.98,91.975 C800.14,109.595 769.5656,132.1795 745.7456,149.7795" fill="none" id="evaluation-to-evidence" style="stroke:#666666;stroke-width:1;"/><polygon fill="#666666" points="740.92,153.345,750.5355,151.2138,744.9414,150.3737,745.7814,144.7796,740.92,153.345" style="stroke:#666666;stroke-width:1;"/></g><!--link evaluation to measurement--><g class="link" data-entity-1="evaluation" data-entity-2="measurement" data-source-line="255" data-uid="lnk19" id="link_evaluation_measurement"><path codeLine="255" d="M905.23,84.505 C979.67,99.775 1115.64,127.895 1231.5,153.125 C1237.05,154.335 1236.9524,154.3056 1242.7224,155.5856" fill="none" id="evaluation-to-measurement" style="stroke:#666666;stroke-width:1;"/><polygon fill="#666666" points="1248.58,156.885,1240.6599,151.0308,1243.6987,155.8021,1238.9273,158.8409,1248.58,156.885" style="stroke:#666666;stroke-width:1;"/></g><!--link evaluation to activity--><g class="link" data-entity-1="evaluation" data-entity-2="activity" data-source-line="256" data-uid="lnk20" id="link_evaluation_activity"><path codeLine="256" d="M840.39,91.895 C828.5,115.925 806.57,158.585 784.5,193.125 C767.67,219.465 749.4647,243.3491 734.8947,261.6691" fill="none" id="evaluation-to-activity" style="stroke:#666666;stroke-width:1;"/><polygon fill="#666666" points="731.16,266.365,739.8927,261.8109,734.2723,262.4517,733.6314,256.8313,731.16,266.365" style="stroke:#666666;stroke-width:1;"/></g><!--link evaluation to hiddenLocation1--><g class="link" data-entity-1="evaluation" data-entity-2="hiddenLocation1" data-source-line="269" data-uid="lnk22" id="link_evaluation_hiddenLocation1"><path codeLine="269" d="M854.95,91.745 C860.76,111.575 868.1145,136.6466 873.1345,153.7966" fill="none" id="evaluation-to-hiddenLocation1" style="stroke:#666666;stroke-width:1;"/><polygon fill="#666666" points="874.82,159.555,876.1306,149.7937,873.4154,154.7563,868.4528,152.0411,874.82,159.555" style="stroke:#666666;stroke-width:1;"/></g><!--link evidence to activity--><g class="link" data-entity-1="evidence" data-entity-2="activity" data-source-line="278" data-uid="lnk23" id="link_evidence_activity"><path codeLine="278" d="M715.5,193.035 C715.5,213.415 715.5,239.685 715.5,260.245" fill="none" id="evidence-to-activity" style="stroke:#666666;stroke-width:1;"/><polygon fill="#666666" points="715.5,266.245,719.5,257.245,715.5,261.245,711.5,257.245,715.5,266.245" style="stroke:#666666;stroke-width:1;"/></g><!--link measurement to activity--><g class="link" data-entity-1="measurement" data-entity-2="activity" data-source-line="280" data-uid="lnk24" id="link_measurement_activity"><path codeLine="280" d="M1248.65,191.065 C1194.41,204.435 1115.83,222.975 1046.5,236.125 C950.6,254.315 843.9699,269.1814 777.8999,277.7714" fill="none" id="measurement-to-activity" style="stroke:#666666;stroke-width:1;"/><polygon fill="#666666" points="771.95,278.545,781.3906,281.3513,776.9083,277.9004,780.3592,273.418,771.95,278.545" style="stroke:#666666;stroke-width:1;"/></g><!--link measurement to location--><g class="link" data-entity-1="measurement" data-entity-2="location" data-source-line="290" data-uid="lnk25" id="link_measurement_location"><path codeLine="290" d="M1302.2,192.965 C1271.92,235.865 1201.7608,335.2637 1173.8908,374.7337" fill="none" id="measurement-to-location" style="stroke:#666666;stroke-width:1;"/><polygon fill="#666666" points="1170.43,379.635,1178.8888,374.5903,1173.314,375.5506,1172.3537,369.9758,1170.43,379.635" style="stroke:#666666;stroke-width:1;"/></g><!--link collection to activity--><g class="link" data-entity-1="collection" data-entity-2="activity" data-source-line="293" data-uid="lnk26" id="link_collection_activity"><path codeLine="293" d="M936.27,193.105 C911.32,205.885 877.25,222.785 846.5,236.125 C821.85,246.815 799.711,255.4333 776.091,264.1233" fill="none" id="collection-to-activity" style="stroke:#666666;stroke-width:1;"/><polygon fill="#666666" points="770.46,266.195,780.2876,266.8415,775.1525,264.4686,777.5254,259.3335,770.46,266.195" style="stroke:#666666;stroke-width:1;"/></g><!--link collection to collection--><g class="link" data-entity-1="collection" data-entity-2="collection" data-source-line="294" data-uid="lnk27" id="link_collection_collection"><path codeLine="294" d="M1026.38,163.665 C1045.73,163.465 1061.5,166.615 1061.5,173.125 C1061.5,179.635 1051.7297,182.847 1032.3797,182.647" fill="none" id="collection-to-collection" style="stroke:#666666;stroke-width:1;"/><polygon fill="#666666" points="1026.38,182.585,1035.3382,186.6778,1031.3797,182.6367,1035.4209,178.6782,1026.38,182.585" style="stroke:#666666;stroke-width:1;"/><text fill="#666666" font-family="sans-serif" font-size="10" lengthAdjust="spacing" textLength="40.5664" x="1067.5" y="170.9023">recursive</text><text fill="#666666" font-family="sans-serif" font-size="10" lengthAdjust="spacing" textLength="32.8271" x="1071.3696" y="182.6211">nesting</text></g><!--reverse link contributorInformation to activity--><g class="link" data-entity-1="contributorInformation" data-entity-2="activity" data-source-line="296" data-uid="lnk29" id="link_contributorInformation_activity"><path codeLine="296" d="M133.2015,263.9554 C158.5615,250.5154 189.11,236.755 223,229.625 C379.04,196.805 567.14,241.335 659.2,268.455" fill="none" id="contributorInformation-backto-activity" style="stroke:#666666;stroke-width:1;"/><polygon fill="#666666" points="127.9,266.765,137.7253,266.0849,132.3179,264.4236,133.9792,259.0162,127.9,266.765" style="stroke:#666666;stroke-width:1;"/></g><!--link activity to contributionDetails--><g class="link" data-entity-1="activity" data-entity-2="contributionDetails" data-source-line="297" data-uid="lnk30" id="link_activity_contributionDetails"><path codeLine="297" d="M715.5,306.845 C715.5,327.735 715.5,354.705 715.5,373.895" fill="none" id="activity-to-contributionDetails" style="stroke:#666666;stroke-width:1;"/><polygon fill="#666666" points="715.5,379.895,719.5,370.895,715.5,374.895,711.5,370.895,715.5,379.895" style="stroke:#666666;stroke-width:1;"/></g><!--link activity to rights--><g class="link" data-entity-1="activity" data-entity-2="rights" data-source-line="298" data-uid="lnk31" id="link_activity_rights"><path codeLine="298" d="M694.05,306.855 C647.45,348.645 542.2169,442.9891 499.9669,480.8791" fill="none" id="activity-to-rights" style="stroke:#666666;stroke-width:1;"/><polygon fill="#666666" points="495.5,484.885,504.8709,481.8541,499.2224,481.5468,499.5297,475.8983,495.5,484.885" style="stroke:#666666;stroke-width:1;"/></g><!--link activity to location--><g class="link" data-entity-1="activity" data-entity-2="location" data-source-line="299" data-uid="lnk32" id="link_activity_location"><path codeLine="299" d="M771.73,301.245 C862.27,323.165 1032.4384,364.3636 1112.3884,383.7136" fill="none" id="activity-to-location" style="stroke:#666666;stroke-width:1;"/><polygon fill="#666666" points="1118.22,385.125,1110.4135,379.1201,1113.3603,383.9488,1108.5316,386.8956,1118.22,385.125" style="stroke:#666666;stroke-width:1;"/></g><!--link contributorInformation to contributorEntity--><g class="link" data-entity-1="contributorInformation" data-entity-2="contributorEntity" data-source-line="301" data-uid="lnk33" id="link_contributorInformation_contributorEntity"><path codeLine="301" d="M148.74,306.595 C209.29,327.395 299.5955,358.4056 355.7755,377.7056" fill="none" id="contributorInformation-to-contributorEntity" style="stroke:#666666;stroke-width:1;"/><polygon fill="#666666" points="361.45,379.655,354.2379,372.9479,356.7213,378.0305,351.6387,380.5139,361.45,379.655" style="stroke:#666666;stroke-width:1;"/><text fill="#666666" font-family="sans-serif" font-size="10" lengthAdjust="spacing" textLength="40.9717" x="269.74" y="347.4023">identifies</text></g><!--link token to activity--><g class="link" data-entity-1="token" data-entity-2="activity" data-source-line="305" data-uid="lnk34" id="link_token_activity"><path codeLine="305" d="M1130.82,188.265 C1125.35,189.985 1119.81,191.645 1114.5,193.125 C993.44,226.915 855.225,256.9164 777.605,273.0164" fill="none" id="token-to-activity" style="stroke:#666666;stroke-width:1;stroke-dasharray:7,7;"/><polygon fill="#666666" points="771.73,274.235,781.3548,276.3238,776.6258,273.2195,779.73,268.4905,771.73,274.235" style="stroke:#666666;stroke-width:1;"/><text fill="#666666" font-family="sans-serif" font-size="10" lengthAdjust="spacing" textLength="42.7246" x="995.66" y="233.4023">tokenizes</text></g><!--link funder to activity--><g class="link" data-entity-1="funder" data-entity-2="activity" data-source-line="306" data-uid="lnk35" id="link_funder_activity"><path codeLine="306" d="M504.96,189.605 C514.34,203.705 529.97,224.095 548.5,236.125 C581.85,257.775 619.133,269.0362 653.213,276.0462" fill="none" id="funder-to-activity" style="stroke:#666666;stroke-width:1;stroke-dasharray:7,7;"/><polygon fill="#666666" points="659.09,277.255,651.0805,271.5238,654.1925,276.2476,649.4687,279.3597,659.09,277.255" style="stroke:#666666;stroke-width:1;"/><text fill="#666666" font-family="sans-serif" font-size="10" lengthAdjust="spacing" textLength="25.3125" x="549.5" y="233.4023">funds</text></g><!--link contributorEntity to rights--><g class="link" data-entity-1="contributorEntity" data-entity-2="rights" data-source-line="307" data-uid="lnk36" id="link_contributorEntity_rights"><path codeLine="307" d="M417.12,412.325 C430.74,431.795 450.7626,460.4472 464.3926,479.9472" fill="none" id="contributorEntity-to-rights" style="stroke:#666666;stroke-width:1;stroke-dasharray:7,7;"/><polygon fill="#666666" points="467.83,484.865,465.9524,475.1968,464.9655,480.7669,459.3954,479.78,467.83,484.865" style="stroke:#666666;stroke-width:1;"/><text fill="#666666" font-family="sans-serif" font-size="10" lengthAdjust="spacing" textLength="16.1084" x="447.81" y="452.4023">has</text></g><!--link fundingReceipt to funder--><g class="link" data-entity-1="fundingReceipt" data-entity-2="funder" data-source-line="313" data-uid="lnk37" id="link_fundingReceipt_funder"><path codeLine="313" d="M495.5,91.745 C495.5,110.565 495.5,133.305 495.5,150.835" fill="none" id="fundingReceipt-to-funder" style="stroke:#666666;stroke-width:1;"/><polygon fill="#666666" points="495.5,156.835,499.5,147.835,495.5,151.835,491.5,147.835,495.5,156.835" style="stroke:#666666;stroke-width:1;"/></g><!--link fundingReceipt to contributorEntity--><g class="link" data-entity-1="fundingReceipt" data-entity-2="contributorEntity" data-source-line="314" data-uid="lnk38" id="link_fundingReceipt_contributorEntity"><path codeLine="314" d="M479.04,92.105 C466.64,107.495 450.32,130.305 441.5,153.125 C410.14,234.305 406.5876,334.6551 406.4076,373.8051" fill="none" id="fundingReceipt-to-contributorEntity" style="stroke:#666666;stroke-width:1;"/><polygon fill="#666666" points="406.38,379.805,410.4213,370.8235,406.403,374.8051,402.4214,370.7867,406.38,379.805" style="stroke:#666666;stroke-width:1;"/></g><!--link fundingReceipt to activity--><g class="link" data-entity-1="fundingReceipt" data-entity-2="activity" data-source-line="316" data-uid="lnk39" id="link_fundingReceipt_activity"><path codeLine="316" d="M514.82,91.845 C539.2,115.465 582.43,157.335 619.5,193.125 C645.64,218.365 671.497,243.2743 690.937,261.9843" fill="none" id="fundingReceipt-to-activity" style="stroke:#666666;stroke-width:1;"/><polygon fill="#666666" points="695.26,266.145,691.5492,257.0219,691.6575,262.6778,686.0017,262.786,695.26,266.145" style="stroke:#666666;stroke-width:1;"/><text fill="#666666" font-family="sans-serif" font-size="10" lengthAdjust="spacing" textLength="25.3125" x="620.5" y="176.9023">funds</text></g><!--link badgeAward to badgeDefinition--><g class="link" data-entity-1="badgeAward" data-entity-2="badgeDefinition" data-source-line="318" data-uid="lnk40" id="link_badgeAward_badgeDefinition"><path codeLine="318" d="M288.5,193.035 C288.5,214.785 288.5,244.065 288.5,264.215" fill="none" id="badgeAward-to-badgeDefinition" style="stroke:#666666;stroke-width:1;"/><polygon fill="#666666" points="288.5,270.215,292.5,261.215,288.5,265.215,284.5,261.215,288.5,270.215" style="stroke:#666666;stroke-width:1;"/></g><!--link badgeResponse to badgeAward--><g class="link" data-entity-1="badgeResponse" data-entity-2="badgeAward" data-source-line="319" data-uid="lnk41" id="link_badgeResponse_badgeAward"><path codeLine="319" d="M288.5,91.745 C288.5,109.335 288.5,129.585 288.5,147.255" fill="none" id="badgeResponse-to-badgeAward" style="stroke:#666666;stroke-width:1;"/><polygon fill="#666666" points="288.5,153.255,292.5,144.255,288.5,148.255,284.5,144.255,288.5,153.255" style="stroke:#666666;stroke-width:1;"/></g><!--link badgeAward to contributorInformation--><g class="link" data-entity-1="badgeAward" data-entity-2="contributorInformation" data-source-line="320" data-uid="lnk42" id="link_badgeAward_contributorInformation"><path codeLine="320" d="M255.42,193.035 C219.45,213.605 167.5285,243.2964 131.6285,263.8264" fill="none" id="badgeAward-to-contributorInformation" style="stroke:#666666;stroke-width:1;"/><polygon fill="#666666" points="126.42,266.805,136.2184,265.8095,130.7604,264.3229,132.247,258.8649,126.42,266.805" style="stroke:#666666;stroke-width:1;"/></g><!--link badgeAward to activity--><g class="link" data-entity-1="badgeAward" data-entity-2="activity" data-source-line="321" data-uid="lnk43" id="link_badgeAward_activity"><path codeLine="321" d="M351.09,190.625 C398.65,203.155 465.68,220.775 524.5,236.125 C569.74,247.935 615.2313,259.712 653.2613,269.552" fill="none" id="badgeAward-to-activity" style="stroke:#666666;stroke-width:1;"/><polygon fill="#666666" points="659.07,271.055,651.3589,264.9281,654.2294,269.8025,649.355,272.673,659.07,271.055" style="stroke:#666666;stroke-width:1;"/></g><!--SRC=[lLbRRzis57xNhs2y1oVOxBPPjmSZIv74oMeWQ0OdsnwwOM0askP2aHf9nNM7_lUTGr8I9L_YPCECeZ4FR-T-laFtoGSb6L4pOXVCC6BAeb3Q4ggrMXgYD9zpIIsNSpBJAYTSPloHPoKLPCQPo4pIFoWqdUUK2BfIfIKcPvPAkaPduc6DziW__scIn78h6EczNnLCfmnklvoEUqdI9nTAplYyrC20akIHQaxl1JF90P_9ZCt8xVkRN_-ucbnUZs-J0o1m42MYaHaLXYK739YU9RYB7CRJF_n0Ucv9xoXPy8mHbXTsLGaMjaKJ8Db2mOmZ6SiqKnPu1WcgowUNlqmkV_tZukRwPag-khgwEhiOrvDdq-bDFVUz-oJ9YR4hmKwJJALbpgGbVoS4Fbub_Zj-hfIqj_mp8yTlspJSJUwLo1pvI_8bIGKrPipfNDCydE2i6Prs3UnSAA5qp5FhtDspZfCthyEL-FzGK3rdvy17TCs2qOpfYD2MvFKwlIrDSppATV8ggCexXjNylhHA6v2E4SqA3VuhBSl8_OgC9sDqNh8eSoe76lX0nm6RQV1ay5dqTirc2dPcYaXbuO2_IWx3N6LC2FJtHqu9U2hxn5CbXmcSpS47UcbpDJc4UruLMisuO4SzGWs9PY_z1l22yTkpRuCMDlgWrIMw8Cx3WSYtKIc740j7av-d4x_Rk-GNL87Iy-6YYXWp1AlpV4XJ2-49jmv0Gcu8_0D9IKwv10bJfJFOMUiAfQIaFcIOPDHIvpwaFkZafBRiwIdvwlpjvNVZrtiAuvpOVJCBI2fZPbBD2unbHyoQyJj7u3cTC_zrgVJ3RQgAC3IMmdvgmn3Kq0mYbPkFltkQKAdB6JK1yjZ2ch01_07yvCpkfrC6-Ox9b4NQgKXxwi6Kzt-or3RiWkwVKD2xpHhIJ3YvxbQLPfufJCweAJN3J1F94r5V8bBOZkeFOp18whu-Kb6oYWZ9is7SZy6pWqc3Ie7GDU8BhGOtk-qjkrN4buXfoZodUXNOTIUfMkPWrehtIAEr3ng8F_Rl9OlyVI8XXULTAJSls5DYj8BbK09rS45k2gZM7sZEreBqfOm3DsC02LoOJLmtitkoh9NefW9tHYTsTkQGhPBGeXYY4AYIR5WPBkAx8kt9h2X-WK2fKg3HfkKG61ujWXl8Mlbh2M4xunSLq-IUPdDco27oJ3pJNnEwf3g3lr092iYJx2WIoMqO8sZXpv3CxQe5Q58Rbi_Dp5CXr99b4sDArkJkRI9r-3jp0Zo3jJYWlLhLK-RlN3aDkdhEhOxDaBlzRb_V61Qa5uMHBsKHRvwmRx2unHZEqR2scXzs2pMrSDK2SzaBuru8q3cUreTsmx8HuBUA185F9Ib1gPiZ3K4L9GRIKaerx0TmvwxtsALUvS4DMNAxS8Z7W83aRZ9k9PZgpdtXIrshdbEdoU4repF145BEGawrBA_hn3RTMJLdY4g1EH3pgeG6v__6jZDtwSiGA-QeLuLXPQRaAd_ACV0cu6C8PcEWjyXAOMRg9_Qrb79_i4FrNrIeNZHNPS1QQQar00nVlWkwGdUUGfLv5nC-C8l8CrXTKsceyvX9zgvE6G55gjIT29Py8YY-a3uM6r8P6DNnuURkSbH3T1WrrlY6GFs2FXlwIvgX3w7JWYD8ecIw022F5bOFJFBFtlMXTuV96h3xI1WISgl0yS058FMZ4qZ64FpNzv2iJl3311eDgo10_CbTq7zrTVxznPizRN6evC3n2VoArT6Q9uJMVy416INz294D1jb7wAm1V_m-EAtnu8ubCPRjnn2sjQfI31uKKFj0RpkbwP_Y9KufyVxDvqS9PikAvlWoce_mshObDHo8vkChGatenm2eBKFhaawG3RQiInhLZqQXSe8D8kF42sB8wrR5cjrsKgqRy8n9NYXZE2OpgmW4YmyGzpubNMftxqiGQ4lCOMNXChttfzXDHgEwB0m67wM2C7veAH7kCgeEiPm-GF4X6PLpbnlzOqbfGdViDEDXKs8Uk2melgluPEKZufoc3tCDYIPphoOd9pykbB4GE7UOG61zrUwTGs0o_SGY_somOr5uuI4zubuSF8FNGROtfDxadwcwqodNgMWRBjBMQNTziYlS- -HCW2APH3CxOyJQmincLCwMM8v83yYW8yjwQDpQ55ts1flYve3XCrwuxR_o4WoWoZTYvwXU2oiVt-QlaNTlT-bR9py5VdZE8QUA5TQcLh_Tldo7jdTO_NYtrOyhgxTutc7su__UjCSjqqRQHjDkrqSmHfDQHoE7fjgQtZmTvUCHwK5TBA7nUcI_ISaCuiTUabGdZ4RnAn8PY44x5SQDzhOzyOwemssM1vm-QF9rCrS_MBNbJpRp05BMRJhfi1gU7KTD9s_G4-_Sypv4YSUKY0WyQhttg9BALHk1u2eAzaBWua4boSAZChem-856rNl0C1msre2h0pw1cmEaxCmZrIJhJEEoeAKHMT28SO1bZgE0SibomTC5HBiG296OTdKPUKmHy34DkTAk-eY60pxje6M4g-IGkvyzLlsW472KixkV40eT3M7dUsXE7u7v9LwBDm5w1dLfW7aGnzYo62LuLlrMSWyT2XBnHEGLJc2V2i5JQ1vMaR8nHG4wGcOxTRZ6ustwQEH-Ua4xUtMkpKFORVI2PFqafLkXKniZQRhLqSXzT-iwJm59gmyE2tqdNg_s7MzyN9mTjmJLjkKDTW97mAo3UTrqi_hctL7fZrhGVm00]--></g></svg>