<svg xmlns="http://www.w3.org/2000/svg" xmlns:xlink="http://www.w3.org/1999/xlink" contentStyleType="text/css" data-diagram-type="CLASS" height="506px" preserveAspectRatio="none" style="width:580px;height:506px;background:#FFFFFF;" version="1.1" viewBox="0 0 580 506" width="580px" zoomAndPan="magnify"><title>Hypercert ERD</title><defs/><g><g class="title" data-source-line="4"><text fill="#000000" font-family="sans-serif" font-size="24" font-weight="bold" lengthAdjust="spacing" textLength="169.3945" x="198.3599" y="32.5117">Hypercert ERD</text></g><!--class contributor--><g class="entity" data-entity="contributor" data-source-line="44" data-uid="ent0002" id="entity_contributor"><rect fill="#FFD4A3" height="32" rx="2.5" ry="2.5" style="stroke:#181818;stroke-width:0.5;" width="98.1445" x="355.93" y="467.5977"/><ellipse cx="370.93" cy="483.5977" fill="#ADD1B2" rx="11" ry="11" style="stroke:#181818;stroke-width:1;"/><path d="M366.9925,489.5977 L374.5081,489.5977 L374.5081,487.4883 L369.5081,487.4883 L369.5081,484.9414 L373.6019,484.9414 L373.6019,482.8477 L369.5081,482.8477 L369.5081,480.6289 L374.3363,480.6289 L374.3363,478.5195 L366.9925,478.5195 L366.9925,489.5977 Z " fill="#000000"/><text fill="#000000" font-family="sans-serif" font-size="14" lengthAdjust="spacing" textLength="66.1445" x="384.93" y="488.6802">contributor</text></g><!--class activity--><g class="entity" data-entity="activity" data-source-line="52" data-uid="ent0003" id="entity_activity"><rect fill="#B4E5D0" height="32.998" rx="2.5" ry="2.5" style="stroke:#181818;stroke-width:0.5;" width="100.9258" x="221" y="257.5977"/><ellipse cx="236" cy="274.0967" fill="#7E57C2" rx="11" ry="11" style="stroke:#181818;stroke-width:1;"/><path d="M233.1875,280.0967 L236.4063,280.0967 C239.4844,280.0967 241.5938,278.3154 241.5938,274.5029 C241.5938,270.6904 239.4844,269.0186 236.25,269.0186 L233.1875,269.0186 L233.1875,280.0967 Z M235.7031,278.0811 L235.7031,271.0342 L236.1094,271.0342 C237.8438,271.0342 239.0156,271.8467 239.0156,274.5029 C239.0156,277.1592 237.8438,278.0811 236.1094,278.0811 L235.7031,278.0811 Z " fill="#000000"/><text fill="#000000" font-family="sans-serif" font-size="20" font-weight="bold" lengthAdjust="spacing" textLength="68.9258" x="250" y="281.3574">activity</text></g><!--class evidence--><g class="entity" data-entity="evidence" data-source-line="70" data-uid="ent0004" id="entity_evidence"><rect fill="#F1F1F1" height="32" rx="2.5" ry="2.5" style="stroke:#181818;stroke-width:0.5;" width="88.041" x="448" y="156.5977"/><ellipse cx="463" cy="172.5977" fill="#7E57C2" rx="11" ry="11" style="stroke:#181818;stroke-width:1;"/><path d="M460.1875,178.5977 L463.4063,178.5977 C466.4844,178.5977 468.5938,176.8164 468.5938,173.0039 C468.5938,169.1914 466.4844,167.5195 463.25,167.5195 L460.1875,167.5195 L460.1875,178.5977 Z M462.7031,176.582 L462.7031,169.5352 L463.1094,169.5352 C464.8438,169.5352 466.0156,170.3477 466.0156,173.0039 C466.0156,175.6602 464.8438,176.582 463.1094,176.582 L462.7031,176.582 Z " fill="#000000"/><text fill="#000000" font-family="sans-serif" font-size="14" lengthAdjust="spacing" textLength="56.041" x="477" y="177.6802">evidence</text></g><!--class measurement--><g class="entity" data-entity="measurement" data-source-line="82" data-uid="ent0005" id="entity_measurement"><rect fill="#F1F1F1" height="32" rx="2.5" ry="2.5" style="stroke:#181818;stroke-width:0.5;" width="117.5928" x="67.5" y="156.5977"/><ellipse cx="82.5" cy="172.5977" fill="#7E57C2" rx="11" ry="11" style="stroke:#181818;stroke-width:1;"/><path d="M79.6875,178.5977 L82.9063,178.5977 C85.9844,178.5977 88.0938,176.8164 88.0938,173.0039 C88.0938,169.1914 85.9844,167.5195 82.75,167.5195 L79.6875,167.5195 L79.6875,178.5977 Z M82.2031,176.582 L82.2031,169.5352 L82.6094,169.5352 C84.3438,169.5352 85.5156,170.3477 85.5156,173.0039 C85.5156,175.6602 84.3438,176.582 82.6094,176.582 L82.2031,176.582 Z " fill="#000000"/><text fill="#000000" font-family="sans-serif" font-size="14" lengthAdjust="spacing" textLength="85.5928" x="96.5" y="177.6802">measurement</text></g><!--class evaluation--><g class="entity" data-entity="evaluation" data-source-line="97" data-uid="ent0006" id="entity_evaluation"><rect fill="#F1F1F1" height="32" rx="2.5" ry="2.5" style="stroke:#181818;stroke-width:0.5;" width="95.8271" x="168.5" y="55.5977"/><ellipse cx="183.5" cy="71.5977" fill="#7E57C2" rx="11" ry="11" style="stroke:#181818;stroke-width:1;"/><path d="M180.6875,77.5977 L183.9063,77.5977 C186.9844,77.5977 189.0938,75.8164 189.0938,72.0039 C189.0938,68.1914 186.9844,66.5195 183.75,66.5195 L180.6875,66.5195 L180.6875,77.5977 Z M183.2031,75.582 L183.2031,68.5352 L183.6094,68.5352 C185.3438,68.5352 186.5156,69.3477 186.5156,72.0039 C186.5156,74.6602 185.3438,75.582 183.6094,75.582 L183.2031,75.582 Z " fill="#000000"/><text fill="#000000" font-family="sans-serif" font-size="14" lengthAdjust="spacing" textLength="63.8271" x="197.5" y="76.6802">evaluation</text></g><!--class contribution--><g class="entity" data-entity="contribution" data-source-line="110" data-uid="ent0007" id="entity_contribution"><rect fill="#F1F1F1" height="32" rx="2.5" ry="2.5" style="stroke:#181818;stroke-width:0.5;" width="104.3789" x="359" y="358.5977"/><ellipse cx="374" cy="374.5977" fill="#7E57C2" rx="11" ry="11" style="stroke:#181818;stroke-width:1;"/><path d="M371.1875,380.5977 L374.4063,380.5977 C377.4844,380.5977 379.5938,378.8164 379.5938,375.0039 C379.5938,371.1914 377.4844,369.5195 374.25,369.5195 L371.1875,369.5195 L371.1875,380.5977 Z M373.7031,378.582 L373.7031,371.5352 L374.1094,371.5352 C375.8438,371.5352 377.0156,372.3477 377.0156,375.0039 C377.0156,377.6602 375.8438,378.582 374.1094,378.582 L373.7031,378.582 Z " fill="#000000"/><text fill="#000000" font-family="sans-serif" font-size="14" lengthAdjust="spacing" textLength="72.3789" x="388" y="379.6802">contribution</text></g><!--class location--><g class="entity" data-entity="location" data-source-line="122" data-uid="ent0008" id="entity_location"><rect fill="#F1F1F1" height="32" rx="2.5" ry="2.5" style="stroke:#181818;stroke-width:0.5;" width="80.2549" x="97.87" y="467.5977"/><ellipse cx="112.87" cy="483.5977" fill="#7E57C2" rx="11" ry="11" style="stroke:#181818;stroke-width:1;"/><path d="M110.0575,489.5977 L113.2763,489.5977 C116.3544,489.5977 118.4638,487.8164 118.4638,484.0039 C118.4638,480.1914 116.3544,478.5195 113.12,478.5195 L110.0575,478.5195 L110.0575,489.5977 Z M112.5731,487.582 L112.5731,480.5352 L112.9794,480.5352 C114.7138,480.5352 115.8856,481.3477 115.8856,484.0039 C115.8856,486.6602 114.7138,487.582 112.9794,487.582 L112.5731,487.582 Z " fill="#000000"/><text fill="#000000" font-family="sans-serif" font-size="14" lengthAdjust="spacing" textLength="48.2549" x="126.87" y="488.6802">location</text></g><!--class rights--><g class="entity" data-entity="rights" data-source-line="135" data-uid="ent0009" id="entity_rights"><rect fill="#F1F1F1" height="32" rx="2.5" ry="2.5" style="stroke:#181818;stroke-width:0.5;" width="66.2344" x="506.88" y="467.5977"/><ellipse cx="521.88" cy="483.5977" fill="#7E57C2" rx="11" ry="11" style="stroke:#181818;stroke-width:1;"/><path d="M519.0675,489.5977 L522.2863,489.5977 C525.3644,489.5977 527.4738,487.8164 527.4738,484.0039 C527.4738,480.1914 525.3644,478.5195 522.13,478.5195 L519.0675,478.5195 L519.0675,489.5977 Z M521.5831,487.582 L521.5831,480.5352 L521.9894,480.5352 C523.7238,480.5352 524.8956,481.3477 524.8956,484.0039 C524.8956,486.6602 523.7238,487.582 521.9894,487.582 L521.5831,487.582 Z " fill="#000000"/><text fill="#000000" font-family="sans-serif" font-size="14" lengthAdjust="spacing" textLength="34.2344" x="535.88" y="488.6802">rights</text></g><!--class collection--><g class="entity" data-entity="collection" data-source-line="146" data-uid="ent0010" id="entity_collection"><rect fill="#F1F1F1" height="32" rx="2.5" ry="2.5" style="stroke:#181818;stroke-width:0.5;" width="90.3652" x="307" y="156.5977"/><ellipse cx="322" cy="172.5977" fill="#7E57C2" rx="11" ry="11" style="stroke:#181818;stroke-width:1;"/><path d="M319.1875,178.5977 L322.4063,178.5977 C325.4844,178.5977 327.5938,176.8164 327.5938,173.0039 C327.5938,169.1914 325.4844,167.5195 322.25,167.5195 L319.1875,167.5195 L319.1875,178.5977 Z M321.7031,176.582 L321.7031,169.5352 L322.1094,169.5352 C323.8438,169.5352 325.0156,170.3477 325.0156,173.0039 C325.0156,175.6602 323.8438,176.582 322.1094,176.582 L321.7031,176.582 Z " fill="#000000"/><text fill="#000000" font-family="sans-serif" font-size="14" lengthAdjust="spacing" textLength="58.3652" x="336" y="177.6802">collection</text></g><!--class project--><g class="entity" data-entity="project" data-source-line="158" data-uid="ent0011" id="entity_project"><rect fill="#F1F1F1" height="32" rx="2.5" ry="2.5" style="stroke:#181818;stroke-width:0.5;" width="74.0205" x="234" y="358.5977"/><ellipse cx="249" cy="374.5977" fill="#7E57C2" rx="11" ry="11" style="stroke:#181818;stroke-width:1;"/><path d="M246.1875,380.5977 L249.4063,380.5977 C252.4844,380.5977 254.5938,378.8164 254.5938,375.0039 C254.5938,371.1914 252.4844,369.5195 249.25,369.5195 L246.1875,369.5195 L246.1875,380.5977 Z M248.7031,378.582 L248.7031,371.5352 L249.1094,371.5352 C250.8438,371.5352 252.0156,372.3477 252.0156,375.0039 C252.0156,377.6602 250.8438,378.582 249.1094,378.582 L248.7031,378.582 Z " fill="#000000"/><text fill="#000000" font-family="sans-serif" font-size="14" lengthAdjust="spacing" textLength="42.0205" x="263" y="379.6802">project</text></g><!--class token--><g class="entity" data-entity="token" data-source-line="174" data-uid="ent0012" id="entity_token"><rect fill="#FFB6C1" height="32.998" rx="2.5" ry="2.5" style="stroke:#181818;stroke-width:0.5;" width="85.3398" x="407.33" y="257.0977"/><ellipse cx="422.33" cy="273.5967" fill="#F1F1F1" rx="11" ry="11" style="stroke:#181818;stroke-width:1;"/><path d="M419.1113,279.5967 L421.6113,279.5967 L421.6113,275.8467 L423.0331,275.8467 C425.3769,275.8467 427.3613,274.6904 427.3613,272.0811 C427.3613,269.3936 425.4238,268.5186 423.0331,268.5186 L419.1113,268.5186 L419.1113,279.5967 Z M421.6113,273.8467 L421.6113,270.5029 L422.8769,270.5029 C424.205,270.5029 424.9238,270.9248 424.9238,272.0811 C424.9238,273.2373 424.2519,273.8467 422.8769,273.8467 L421.6113,273.8467 Z " fill="#000000"/><text fill="#000000" font-family="sans-serif" font-size="20" font-weight="bold" lengthAdjust="spacing" textLength="53.3398" x="436.33" y="280.8574">token</text></g><!--link activity to contribution--><g class="link" data-entity-1="activity" data-entity-2="contribution" data-source-line="180" data-uid="lnk13" id="link_activity_contribution"><path codeLine="180" d="M297.66,293.4477 C322.57,311.0677 354.6617,333.7526 379.5417,351.3526" fill="none" id="activity-to-contribution" style="stroke:#666666;stroke-width:1;"/><polygon fill="#666666" points="384.44,354.8177,379.4026,346.3545,380.3581,351.9301,374.7825,352.8856,384.44,354.8177" style="stroke:#666666;stroke-width:1;"/></g><!--link activity to rights--><g class="link" data-entity-1="activity" data-entity-2="rights" data-source-line="181" data-uid="lnk14" id="link_activity_rights"><path codeLine="181" d="M328.92,282.5077 C377.36,291.9377 445.37,312.1477 489,354.5977 C521.4,386.1277 532.8099,434.9434 537.0599,461.4434" fill="none" id="activity-to-rights" style="stroke:#666666;stroke-width:1;"/><polygon fill="#666666" points="538.01,467.3677,540.5343,457.8478,537.2182,462.4307,532.6353,459.1146,538.01,467.3677" style="stroke:#666666;stroke-width:1;"/></g><!--link activity to location--><g class="link" data-entity-1="activity" data-entity-2="location" data-source-line="182" data-uid="lnk15" id="link_activity_location"><path codeLine="182" d="M255.11,293.3877 C242.05,309.2277 223.41,332.7377 209,354.5977 C183.26,393.6377 160.525,437.312 148.265,461.812" fill="none" id="activity-to-location" style="stroke:#666666;stroke-width:1;"/><polygon fill="#666666" points="145.58,467.1777,153.1847,460.9191,147.8175,462.7063,146.0304,457.3391,145.58,467.1777" style="stroke:#666666;stroke-width:1;"/></g><!--link activity to project--><g class="link" data-entity-1="activity" data-entity-2="project" data-source-line="183" data-uid="lnk16" id="link_activity_project"><path codeLine="183" d="M260.48,293.2177 C257.02,310.8077 255.8699,331.167 259.2899,348.837" fill="none" id="activity-to-project" style="stroke:#666666;stroke-width:1;"/><polygon fill="#666666" points="260.43,354.7277,262.6469,345.1315,259.4799,349.8188,254.7927,346.6517,260.43,354.7277" style="stroke:#666666;stroke-width:1;"/></g><!--link project to activity--><g class="link" data-entity-1="project" data-entity-2="activity" data-source-line="192" data-uid="lnk25" id="link_project_activity"><path codeLine="192" d="M281.57,354.7277 C284.99,337.0577 286.138,316.6948 282.678,299.1048" fill="none" id="project-to-activity" style="stroke:#666666;stroke-width:1;"/><polygon fill="#666666" points="281.52,293.2177,279.3322,302.8205,282.485,298.1236,287.1818,301.2764,281.52,293.2177" style="stroke:#666666;stroke-width:1;"/></g><!--link evidence to activity--><g class="link" data-entity-1="evidence" data-entity-2="activity" data-source-line="184" data-uid="lnk17" id="link_evidence_activity"><path codeLine="184" d="M449.65,192.5677 C410.42,210.1377 357.8658,233.6849 318.6858,251.2349" fill="none" id="evidence-to-activity" style="stroke:#666666;stroke-width:1;"/><polygon fill="#666666" points="313.21,253.6877,323.0588,253.659,317.7731,251.6437,319.7885,246.358,313.21,253.6877" style="stroke:#666666;stroke-width:1;"/></g><!--link measurement to activity--><g class="link" data-entity-1="measurement" data-entity-2="activity" data-source-line="185" data-uid="lnk18" id="link_measurement_activity"><path codeLine="185" d="M153.61,192.4477 C179.42,210.0677 212.7653,232.8338 238.5353,250.4338" fill="none" id="measurement-to-activity" style="stroke:#666666;stroke-width:1;"/><polygon fill="#666666" points="243.49,253.8177,238.3139,245.4387,239.3611,250.9977,233.802,252.045,243.49,253.8177" style="stroke:#666666;stroke-width:1;"/></g><!--link measurement to location--><g class="link" data-entity-1="measurement" data-entity-2="location" data-source-line="186" data-uid="lnk19" id="link_measurement_location"><path codeLine="186" d="M126.73,192.4577 C128.93,248.9377 135.1768,409.9322 137.1768,461.3522" fill="none" id="measurement-to-location" style="stroke:#666666;stroke-width:1;"/><polygon fill="#666666" points="137.41,467.3477,141.0572,458.199,137.2157,462.3514,133.0632,458.5099,137.41,467.3477" style="stroke:#666666;stroke-width:1;"/></g><!--link evaluation to evidence--><g class="link" data-entity-1="evaluation" data-entity-2="evidence" data-source-line="187" data-uid="lnk20" id="link_evaluation_evidence"><path codeLine="187" d="M268.89,91.5677 C318.19,109.2577 385.6324,133.4417 434.5824,151.0017" fill="none" id="evaluation-to-evidence" style="stroke:#666666;stroke-width:1;"/><polygon fill="#666666" points="440.23,153.0277,433.1093,146.2236,435.5237,151.3393,430.4079,153.7537,440.23,153.0277" style="stroke:#666666;stroke-width:1;"/></g><!--link evaluation to measurement--><g class="link" data-entity-1="evaluation" data-entity-2="measurement" data-source-line="188" data-uid="lnk21" id="link_evaluation_measurement"><path codeLine="188" d="M199.07,91.2177 C183.08,108.8077 163.2555,130.6176 147.1955,148.2876" fill="none" id="evaluation-to-measurement" style="stroke:#666666;stroke-width:1;"/><polygon fill="#666666" points="143.16,152.7277,152.1734,148.7579,146.5229,149.0276,146.2532,143.3772,143.16,152.7277" style="stroke:#666666;stroke-width:1;"/></g><!--link evaluation to activity--><g class="link" data-entity-1="evaluation" data-entity-2="activity" data-source-line="189" data-uid="lnk22" id="link_evaluation_activity"><path codeLine="189" d="M221.17,91.4177 C231.66,129.5277 253.6984,209.7026 264.2084,247.9026" fill="none" id="evaluation-to-activity" style="stroke:#666666;stroke-width:1;"/><polygon fill="#666666" points="265.8,253.6877,267.2692,243.949,264.4736,248.8668,259.5558,246.0712,265.8,253.6877" style="stroke:#666666;stroke-width:1;"/></g><!--link evaluation to location--><g class="link" data-entity-1="evaluation" data-entity-2="location" data-source-line="190" data-uid="lnk23" id="link_evaluation_location"><path codeLine="190" d="M160.55,75.4377 C98.33,81.9677 6,103.1777 6,171.5977 C187,499.5977 187,499.5977 6,375.5977 C6,423.3877 53.2982,451.2869 92.1182,466.9969" fill="none" id="evaluation-to-location" style="stroke:#666666;stroke-width:1;"/><polygon fill="#666666" points="97.68,469.2477,90.8378,462.1636,93.0451,467.372,87.8367,469.5793,97.68,469.2477" style="stroke:#666666;stroke-width:1;"/></g><!--link collection to activity--><g class="link" data-entity-1="collection" data-entity-2="activity" data-source-line="191" data-uid="lnk24" id="link_collection_activity"><path codeLine="191" d="M336.76,192.2177 C322.37,209.8077 304.6999,231.4143 290.2399,249.0843" fill="none" id="collection-to-activity" style="stroke:#666666;stroke-width:1;"/><polygon fill="#666666" points="286.44,253.7277,295.2354,249.2958,289.6065,249.8582,289.0442,244.2293,286.44,253.7277" style="stroke:#666666;stroke-width:1;"/></g><!--link project to location--><g class="link" data-entity-1="project" data-entity-2="location" data-source-line="193" data-uid="lnk26" id="link_project_location"><path codeLine="193" d="M249.93,394.4777 C235.76,406.9877 216.54,423.6077 199,437.5977 C186.24,447.7777 176.3936,455.1341 164.6136,463.6441" fill="none" id="project-to-location" style="stroke:#666666;stroke-width:1;"/><polygon fill="#666666" points="159.75,467.1577,169.3878,465.1298,163.803,464.2297,164.7031,458.6449,159.75,467.1577" style="stroke:#666666;stroke-width:1;"/></g><!--reverse link activity to token--><g class="link" data-entity-1="activity" data-entity-2="token" data-source-line="194" data-uid="lnk28" id="link_activity_token"><path codeLine="194" d="M334.62,273.5977 C360.07,273.5977 383.47,273.5977 406.97,273.5977" fill="none" id="activity-backto-token" style="stroke:#666666;stroke-width:1;"/><polygon fill="#666666" points="328.62,273.5977,337.62,277.5977,333.62,273.5977,337.62,269.5977,328.62,273.5977" style="stroke:#666666;stroke-width:1;"/><text fill="#666666" font-family="sans-serif" font-size="10" lengthAdjust="spacing" textLength="42.2461" x="347.17" y="267.9775">tokenizes</text></g><!--link contribution to contributor--><g class="link" data-entity-1="contribution" data-entity-2="contributor" data-source-line="195" data-uid="lnk29" id="link_contribution_contributor"><path codeLine="195" d="M409.95,394.2377 C408.79,414.9477 407.2757,442.0271 406.1957,461.2971" fill="none" id="contribution-to-contributor" style="stroke:#666666;stroke-width:1;"/><polygon fill="#666666" points="405.86,467.2877,410.3574,458.5256,406.1398,462.2955,402.3699,458.0779,405.86,467.2877" style="stroke:#666666;stroke-width:1;"/><text fill="#666666" font-family="sans-serif" font-size="10" lengthAdjust="spacing" textLength="38.3545" x="409.18" y="434.9775">made by</text></g><!--link contributor to rights--><g class="link" data-entity-1="contributor" data-entity-2="rights" data-source-line="196" data-uid="lnk30" id="link_contributor_rights"><path codeLine="196" d="M454.5,483.5977 C471.81,483.5977 484.82,483.5977 500.51,483.5977" fill="none" id="contributor-to-rights" style="stroke:#666666;stroke-width:1;"/><polygon fill="#666666" points="506.51,483.5977,497.51,479.5977,501.51,483.5977,497.51,487.5977,506.51,483.5977" style="stroke:#666666;stroke-width:1;"/><text fill="#666666" font-family="sans-serif" font-size="10" lengthAdjust="spacing" textLength="16.123" x="472.48" y="477.9775">has</text></g><!--SRC=[jLTHRzis47xdhs3IXxR0hAPRsWSZZP74DXeWg0UxQn-6eQ2biyML8ZMISkSE-UyzIY95fLudTviG1EJnUFpkxkCT_VYar6nRC2hONbMMcW8iaumGowq0UlfwNu9EGLiwMqvF2NbCRvJSy6sbcULAqXtJdAq567B2DpA33LszNhp_CB-TtKrNv0G5N48ienic390Ja1dV4BUBFecNNxsYfxNAwLEIymme5ANTqmq7aHc_BLf0lBd2bLfaB6XG5Z4R4WvVpjxTpjv_k5dSBPRqqNm-lxgPXiMhvN8HrbxM7o4Nnku5N99CfLK1qjA_2CMl2KapTjzSIRlYdu7-UDwNkTrqhKHMY-_9FKa5CsRAsLQpehN0j5QV8cjt2ET62QLZJ3sxtrwjaJm_Quzq_nF1z1Qk4KTqJ0ui0nq9-fwSVItlUzEPTtvTF6j3rH33QhwkhD86lGEgeTHWC7wGqVMUJc-dXg83ULKmETA8mn47SwQvt1eqO7FCtaRXpanHgImQ-AFYE2rK1aAW5jrnHf6hy2TFbKm8skR8WRGxsILuUdxrK-lWGNfPNJbskNN4v219Li2pqa2LARalcfqDq-wTPqflaznV19DWCdcHiDJodJjzXC2veVY73j22SOd0KwKpt1b2uC0p6ema96EMrQoWmT35HKZOvILzT7q-Up4z6-X8pSrwP7AbxHHCgddfhcWjpBhvf1RmWcsX6NvI-kCgLMKxDPRXVcORQnY5C0vXHYlcrzyQTQ5IrfdLV9jRqunBhNw7r3QJ5FEDFBYomu8BExpECeKeJ5uqC20-gfC07RFm3w6Q78xLaTWBOARIu0f713-IVfS7xNwDWM_dc8kq7kwOgC0BiHY-tVjSDlDVbhVDr8SG1OVJTtIMyEHwUozFNZZGJrEj7K_QSL4mlM_HrePKSDd3Fumz2d0Wvv7-n0IFF8h50ttIIi2aVsawFxuYs3UktDywmCeoSTWvTiOiyQ68K7lHGCIYV8VaylN2QDCBiQDKJr1FNDdyR-vCKpSYz8rWQBHhvJU89fe6oCtqOKLa5e_A7Lk-aof286aV4iKB_tNLRa2n7ThMdaWxq3_dogf9N1uuU5eTwK5RdYFuhUH_wZX3VJckBhrPl9sDGmF6MVSy-87YhQDSugEGPTY9Douts6ubLJBDiKsx9uVw299_RYwAshZ5q8wR9fvGkbAKMtoJWAbV9HB0jVPm3gsVajoPI0Z6q2haGMFvOKkVpwzVtZmV6E0dIevgd8XNx9y-SDt378zxRPcEHfUzWXKfjdVAQRJthLiBrSAjXalUhNjkk6NF75-Fn-FkBOJBVaAYYZn8vJ26hf-Cn-4Du3J26o7MYBj0hHLturYnxJfzEB72OJJT5Gyk8MlxLjhu350uV4P3dP68jj2nfoh-iedJ6wNVFRjxsSU7xHZVe_YxQBqdiNIa0mLG8sU6V040]--></g></svg>