<svg xmlns="http://www.w3.org/2000/svg" xmlns:xlink="http://www.w3.org/1999/xlink" contentStyleType="text/css" data-diagram-type="CLASS" height="419px" preserveAspectRatio="none" style="width:1135px;height:419px;background:#FFFFFF;" version="1.1" viewBox="0 0 1135 419" width="1135px" zoomAndPan="magnify"><title>Hypercert ERD</title><defs/><g><g class="title" data-source-line="7"><text fill="#000000" font-family="sans-serif" font-size="24" font-weight="bold" lengthAdjust="spacing" textLength="157.0547" x="482.0527" y="32.2656">Hypercert ERD</text></g><!--class contributor--><g class="entity" data-entity="contributor" data-source-line="47" data-uid="ent0002" id="entity_contributor"><rect fill="#FFD4A3" height="32" rx="2.5" ry="2.5" style="stroke:#181818;stroke-width:0.5;" width="100.6602" x="820.67" y="270.625"/><ellipse cx="835.67" cy="286.625" fill="#ADD1B2" rx="11" ry="11" style="stroke:#181818;stroke-width:1;"/><path d="M831.7325,292.625 L839.2481,292.625 L839.2481,290.5156 L834.2481,290.5156 L834.2481,287.9688 L838.3419,287.9688 L838.3419,285.875 L834.2481,285.875 L834.2481,283.6563 L839.0763,283.6563 L839.0763,281.5469 L831.7325,281.5469 L831.7325,292.625 Z " fill="#000000"/><text fill="#000000" font-family="sans-serif" font-size="14" lengthAdjust="spacing" textLength="68.6602" x="849.67" y="291.4102">contributor</text></g><!--class activity--><g class="entity" data-entity="activity" data-source-line="55" data-uid="ent0003" id="entity_activity"><rect fill="#B4E5D0" height="33.4375" rx="2.5" ry="2.5" style="stroke:#181818;stroke-width:0.5;" width="97.4492" x="490.5" y="270.125"/><ellipse cx="505.5" cy="286.8438" fill="#7E57C2" rx="11" ry="11" style="stroke:#181818;stroke-width:1;"/><path d="M502.6875,292.8438 L505.9063,292.8438 C508.9844,292.8438 511.0938,291.0625 511.0938,287.25 C511.0938,283.4375 508.9844,281.7656 505.75,281.7656 L502.6875,281.7656 L502.6875,292.8438 Z M505.2031,290.8281 L505.2031,283.7813 L505.6094,283.7813 C507.3438,283.7813 508.5156,284.5938 508.5156,287.25 C508.5156,289.9063 507.3438,290.8281 505.6094,290.8281 L505.2031,290.8281 Z " fill="#000000"/><text fill="#000000" font-family="sans-serif" font-size="20" font-weight="bold" lengthAdjust="spacing" textLength="65.4492" x="519.5" y="293.6797">activity</text></g><!--class evidence--><g class="entity" data-entity="evidence" data-source-line="72" data-uid="ent0004" id="entity_evidence"><rect fill="#F1F1F1" height="32" rx="2.5" ry="2.5" style="stroke:#181818;stroke-width:0.5;" width="87.4121" x="434.5" y="157.125"/><ellipse cx="449.5" cy="173.125" fill="#7E57C2" rx="11" ry="11" style="stroke:#181818;stroke-width:1;"/><path d="M446.6875,179.125 L449.9063,179.125 C452.9844,179.125 455.0938,177.3438 455.0938,173.5313 C455.0938,169.7188 452.9844,168.0469 449.75,168.0469 L446.6875,168.0469 L446.6875,179.125 Z M449.2031,177.1094 L449.2031,170.0625 L449.6094,170.0625 C451.3438,170.0625 452.5156,170.875 452.5156,173.5313 C452.5156,176.1875 451.3438,177.1094 449.6094,177.1094 L449.2031,177.1094 Z " fill="#000000"/><text fill="#000000" font-family="sans-serif" font-size="14" lengthAdjust="spacing" textLength="55.4121" x="463.5" y="177.9102">evidence</text></g><!--class measurement--><g class="entity" data-entity="measurement" data-source-line="85" data-uid="ent0005" id="entity_measurement"><rect fill="#F1F1F1" height="32" rx="2.5" ry="2.5" style="stroke:#181818;stroke-width:0.5;" width="118.4404" x="7" y="157.125"/><ellipse cx="22" cy="173.125" fill="#7E57C2" rx="11" ry="11" style="stroke:#181818;stroke-width:1;"/><path d="M19.1875,179.125 L22.4063,179.125 C25.4844,179.125 27.5938,177.3438 27.5938,173.5313 C27.5938,169.7188 25.4844,168.0469 22.25,168.0469 L19.1875,168.0469 L19.1875,179.125 Z M21.7031,177.1094 L21.7031,170.0625 L22.1094,170.0625 C23.8438,170.0625 25.0156,170.875 25.0156,173.5313 C25.0156,176.1875 23.8438,177.1094 22.1094,177.1094 L21.7031,177.1094 Z " fill="#000000"/><text fill="#000000" font-family="sans-serif" font-size="14" lengthAdjust="spacing" textLength="86.4404" x="36" y="177.9102">measurement</text></g><!--class evaluation--><g class="entity" data-entity="evaluation" data-source-line="100" data-uid="ent0006" id="entity_evaluation"><rect fill="#F1F1F1" height="32" rx="2.5" ry="2.5" style="stroke:#181818;stroke-width:0.5;" width="96.2578" x="310" y="56.125"/><ellipse cx="325" cy="72.125" fill="#7E57C2" rx="11" ry="11" style="stroke:#181818;stroke-width:1;"/><path d="M322.1875,78.125 L325.4063,78.125 C328.4844,78.125 330.5938,76.3438 330.5938,72.5313 C330.5938,68.7188 328.4844,67.0469 325.25,67.0469 L322.1875,67.0469 L322.1875,78.125 Z M324.7031,76.1094 L324.7031,69.0625 L325.1094,69.0625 C326.8438,69.0625 328.0156,69.875 328.0156,72.5313 C328.0156,75.1875 326.8438,76.1094 325.1094,76.1094 L324.7031,76.1094 Z " fill="#000000"/><text fill="#000000" font-family="sans-serif" font-size="14" lengthAdjust="spacing" textLength="64.2578" x="339" y="76.9102">evaluation</text></g><!--class contribution--><g class="entity" data-entity="contribution" data-source-line="114" data-uid="ent0007" id="entity_contribution"><rect fill="#F1F1F1" height="32" rx="2.5" ry="2.5" style="stroke:#181818;stroke-width:0.5;" width="107.0518" x="777.5" y="157.125"/><ellipse cx="792.5" cy="173.125" fill="#7E57C2" rx="11" ry="11" style="stroke:#181818;stroke-width:1;"/><path d="M789.6875,179.125 L792.9063,179.125 C795.9844,179.125 798.0938,177.3438 798.0938,173.5313 C798.0938,169.7188 795.9844,168.0469 792.75,168.0469 L789.6875,168.0469 L789.6875,179.125 Z M792.2031,177.1094 L792.2031,170.0625 L792.6094,170.0625 C794.3438,170.0625 795.5156,170.875 795.5156,173.5313 C795.5156,176.1875 794.3438,177.1094 792.6094,177.1094 L792.2031,177.1094 Z " fill="#000000"/><text fill="#000000" font-family="sans-serif" font-size="14" lengthAdjust="spacing" textLength="75.0518" x="806.5" y="177.9102">contribution</text></g><!--class location--><g class="entity" data-entity="location" data-source-line="126" data-uid="ent0008" id="entity_location"><rect fill="#F1F1F1" height="32" rx="2.5" ry="2.5" style="stroke:#181818;stroke-width:0.5;" width="82.0322" x="164.98" y="380.125"/><ellipse cx="179.98" cy="396.125" fill="#7E57C2" rx="11" ry="11" style="stroke:#181818;stroke-width:1;"/><path d="M177.1675,402.125 L180.3863,402.125 C183.4644,402.125 185.5738,400.3438 185.5738,396.5313 C185.5738,392.7188 183.4644,391.0469 180.23,391.0469 L177.1675,391.0469 L177.1675,402.125 Z M179.6831,400.1094 L179.6831,393.0625 L180.0894,393.0625 C181.8238,393.0625 182.9956,393.875 182.9956,396.5313 C182.9956,399.1875 181.8238,400.1094 180.0894,400.1094 L179.6831,400.1094 Z " fill="#000000"/><text fill="#000000" font-family="sans-serif" font-size="14" lengthAdjust="spacing" textLength="50.0322" x="193.98" y="400.9102">location</text></g><!--class badgeDefinition--><g class="entity" data-entity="badgeDefinition" data-source-line="139" data-uid="ent0009" id="entity_badgeDefinition"><rect fill="#F1F1F1" height="32" rx="2.5" ry="2.5" style="stroke:#181818;stroke-width:0.5;" width="130.376" x="996.81" y="270.625"/><ellipse cx="1011.81" cy="286.625" fill="#7E57C2" rx="11" ry="11" style="stroke:#181818;stroke-width:1;"/><path d="M1008.9975,292.625 L1012.2163,292.625 C1015.2944,292.625 1017.4038,290.8438 1017.4038,287.0313 C1017.4038,283.2188 1015.2944,281.5469 1012.06,281.5469 L1008.9975,281.5469 L1008.9975,292.625 Z M1011.5131,290.6094 L1011.5131,283.5625 L1011.9194,283.5625 C1013.6538,283.5625 1014.8256,284.375 1014.8256,287.0313 C1014.8256,289.6875 1013.6538,290.6094 1011.9194,290.6094 L1011.5131,290.6094 Z " fill="#000000"/><text fill="#000000" font-family="sans-serif" font-size="14" lengthAdjust="spacing" textLength="98.376" x="1025.81" y="291.4102">badgeDefinition</text></g><!--class badgeAward--><g class="entity" data-entity="badgeAward" data-source-line="150" data-uid="ent0010" id="entity_badgeAward"><rect fill="#F1F1F1" height="32" rx="2.5" ry="2.5" style="stroke:#181818;stroke-width:0.5;" width="110.5654" x="1007" y="157.125"/><ellipse cx="1022" cy="173.125" fill="#7E57C2" rx="11" ry="11" style="stroke:#181818;stroke-width:1;"/><path d="M1019.1875,179.125 L1022.4063,179.125 C1025.4844,179.125 1027.5938,177.3438 1027.5938,173.5313 C1027.5938,169.7188 1025.4844,168.0469 1022.25,168.0469 L1019.1875,168.0469 L1019.1875,179.125 Z M1021.7031,177.1094 L1021.7031,170.0625 L1022.1094,170.0625 C1023.8438,170.0625 1025.0156,170.875 1025.0156,173.5313 C1025.0156,176.1875 1023.8438,177.1094 1022.1094,177.1094 L1021.7031,177.1094 Z " fill="#000000"/><text fill="#000000" font-family="sans-serif" font-size="14" lengthAdjust="spacing" textLength="78.5654" x="1036" y="177.9102">badgeAward</text></g><!--class badgeResponse--><g class="entity" data-entity="badgeResponse" data-source-line="159" data-uid="ent0011" id="entity_badgeResponse"><rect fill="#F1F1F1" height="32" rx="2.5" ry="2.5" style="stroke:#181818;stroke-width:0.5;" width="132.1602" x="996" y="56.125"/><ellipse cx="1011" cy="72.125" fill="#7E57C2" rx="11" ry="11" style="stroke:#181818;stroke-width:1;"/><path d="M1008.1875,78.125 L1011.4063,78.125 C1014.4844,78.125 1016.5938,76.3438 1016.5938,72.5313 C1016.5938,68.7188 1014.4844,67.0469 1011.25,67.0469 L1008.1875,67.0469 L1008.1875,78.125 Z M1010.7031,76.1094 L1010.7031,69.0625 L1011.1094,69.0625 C1012.8438,69.0625 1014.0156,69.875 1014.0156,72.5313 C1014.0156,75.1875 1012.8438,76.1094 1011.1094,76.1094 L1010.7031,76.1094 Z " fill="#000000"/><text fill="#000000" font-family="sans-serif" font-size="14" lengthAdjust="spacing" textLength="100.1602" x="1025" y="76.9102">badgeResponse</text></g><!--class rights--><g class="entity" data-entity="rights" data-source-line="169" data-uid="ent0012" id="entity_rights"><rect fill="#F1F1F1" height="32" rx="2.5" ry="2.5" style="stroke:#181818;stroke-width:0.5;" width="67.5264" x="678.24" y="380.125"/><ellipse cx="693.24" cy="396.125" fill="#7E57C2" rx="11" ry="11" style="stroke:#181818;stroke-width:1;"/><path d="M690.4275,402.125 L693.6463,402.125 C696.7244,402.125 698.8338,400.3438 698.8338,396.5313 C698.8338,392.7188 696.7244,391.0469 693.49,391.0469 L690.4275,391.0469 L690.4275,402.125 Z M692.9431,400.1094 L692.9431,393.0625 L693.3494,393.0625 C695.0838,393.0625 696.2556,393.875 696.2556,396.5313 C696.2556,399.1875 695.0838,400.1094 693.3494,400.1094 L692.9431,400.1094 Z " fill="#000000"/><text fill="#000000" font-family="sans-serif" font-size="14" lengthAdjust="spacing" textLength="35.5264" x="707.24" y="400.9102">rights</text></g><!--class collection--><g class="entity" data-entity="collection" data-source-line="180" data-uid="ent0013" id="entity_collection"><rect fill="#F1F1F1" height="32" rx="2.5" ry="2.5" style="stroke:#181818;stroke-width:0.5;" width="92.5732" x="176" y="157.125"/><ellipse cx="191" cy="173.125" fill="#7E57C2" rx="11" ry="11" style="stroke:#181818;stroke-width:1;"/><path d="M188.1875,179.125 L191.4063,179.125 C194.4844,179.125 196.5938,177.3438 196.5938,173.5313 C196.5938,169.7188 194.4844,168.0469 191.25,168.0469 L188.1875,168.0469 L188.1875,179.125 Z M190.7031,177.1094 L190.7031,170.0625 L191.1094,170.0625 C192.8438,170.0625 194.0156,170.875 194.0156,173.5313 C194.0156,176.1875 192.8438,177.1094 191.1094,177.1094 L190.7031,177.1094 Z " fill="#000000"/><text fill="#000000" font-family="sans-serif" font-size="14" lengthAdjust="spacing" textLength="60.5732" x="205" y="177.9102">collection</text></g><!--class funder--><g class="entity" data-entity="funder" data-source-line="198" data-uid="ent0014" id="entity_funder"><rect fill="#FFD4A3" height="32" rx="2.5" ry="2.5" style="stroke:#181818;stroke-width:0.5;" width="72.3799" x="564.81" y="157.125"/><ellipse cx="579.81" cy="173.125" fill="#ADD1B2" rx="11" ry="11" style="stroke:#181818;stroke-width:1;"/><path d="M575.8725,179.125 L583.3881,179.125 L583.3881,177.0156 L578.3881,177.0156 L578.3881,174.4688 L582.4819,174.4688 L582.4819,172.375 L578.3881,172.375 L578.3881,170.1563 L583.2163,170.1563 L583.2163,168.0469 L575.8725,168.0469 L575.8725,179.125 Z " fill="#000000"/><text fill="#000000" font-family="sans-serif" font-size="14" lengthAdjust="spacing" textLength="40.3799" x="593.81" y="177.9102">funder</text></g><!--class fundingReceipt--><g class="entity" data-entity="fundingReceipt" data-source-line="205" data-uid="ent0015" id="entity_fundingReceipt"><rect fill="#F1F1F1" height="32" rx="2.5" ry="2.5" style="stroke:#181818;stroke-width:0.5;" width="125.8574" x="644.5" y="56.125"/><ellipse cx="659.5" cy="72.125" fill="#7E57C2" rx="11" ry="11" style="stroke:#181818;stroke-width:1;"/><path d="M656.6875,78.125 L659.9063,78.125 C662.9844,78.125 665.0938,76.3438 665.0938,72.5313 C665.0938,68.7188 662.9844,67.0469 659.75,67.0469 L656.6875,67.0469 L656.6875,78.125 Z M659.2031,76.1094 L659.2031,69.0625 L659.6094,69.0625 C661.3438,69.0625 662.5156,69.875 662.5156,72.5313 C662.5156,75.1875 661.3438,76.1094 659.6094,76.1094 L659.2031,76.1094 Z " fill="#000000"/><text fill="#000000" font-family="sans-serif" font-size="14" lengthAdjust="spacing" textLength="93.8574" x="673.5" y="76.9102">fundingReceipt</text></g><!--class token--><g class="entity" data-entity="token" data-source-line="226" data-uid="ent0016" id="entity_token"><rect fill="#FFB6C1" height="33.4375" rx="2.5" ry="2.5" style="stroke:#181818;stroke-width:0.5;" width="82.7617" x="321.62" y="269.905"/><ellipse cx="336.62" cy="286.6238" fill="#F1F1F1" rx="11" ry="11" style="stroke:#181818;stroke-width:1;"/><path d="M333.4013,292.6238 L335.9013,292.6238 L335.9013,288.8738 L337.3231,288.8738 C339.6669,288.8738 341.6513,287.7175 341.6513,285.1081 C341.6513,282.4206 339.7138,281.5456 337.3231,281.5456 L333.4013,281.5456 L333.4013,292.6238 Z M335.9013,286.8738 L335.9013,283.53 L337.1669,283.53 C338.495,283.53 339.2138,283.9519 339.2138,285.1081 C339.2138,286.2644 338.5419,286.8738 337.1669,286.8738 L335.9013,286.8738 Z " fill="#000000"/><text fill="#000000" font-family="sans-serif" font-size="20" font-weight="bold" lengthAdjust="spacing" textLength="50.7617" x="350.62" y="293.4597">token</text></g><!--class hiddenLocation1--><g class="entity" data-entity="hiddenLocation1" data-source-line="259" data-uid="ent0022" id="entity_hiddenLocation1"><rect fill="none" height="26.4063" rx="2.5" ry="2.5" style="stroke:none;stroke-width:0.5;" width="9.4727" x="382.26" y="159.925"/><text fill="#000000" font-family="sans-serif" font-size="14" lengthAdjust="spacing" textLength="3.4727" x="385.26" y="177.9133">&#160;</text></g><!--reverse link token to activity--><!--link token to activity--><g class="link" data-entity-1="token" data-entity-2="activity" data-source-line="296" data-uid="lnk34" id="link_token_activity"><path codeLine="296" d="M404.71,286.625 C427.99,286.625 451.31,286.625 476.61,286.625" fill="none" id="token-to-activity" style="stroke:#666666;stroke-width:1;stroke-dasharray:7,7;"/><polygon fill="#666666" points="482.61,286.625,473.61,282.625,477.61,286.625,473.61,290.625,482.61,286.625" style="stroke:#666666;stroke-width:1;"/><text fill="#666666" font-family="sans-serif" font-size="10" lengthAdjust="spacing" textLength="42.7246" x="422.44" y="280.9023">tokenizes</text></g><!--link evaluation to evidence--><g class="link" data-entity-1="evaluation" data-entity-2="evidence" data-source-line="246" data-uid="lnk19" id="link_evaluation_evidence"><path codeLine="246" d="M380.85,91.975 C402.21,109.595 429.2829,131.9253 450.6029,149.5253" fill="none" id="evaluation-to-evidence" style="stroke:#666666;stroke-width:1;"/><polygon fill="#666666" points="455.23,153.345,450.8359,144.5307,451.3741,150.1619,445.7429,150.7001,455.23,153.345" style="stroke:#666666;stroke-width:1;"/></g><!--link evaluation to measurement--><g class="link" data-entity-1="evaluation" data-entity-2="measurement" data-source-line="247" data-uid="lnk20" id="link_evaluation_measurement"><path codeLine="247" d="M302.04,92.095 C250.21,109.665 179.2224,133.7387 127.4524,151.2887" fill="none" id="evaluation-to-measurement" style="stroke:#666666;stroke-width:1;"/><polygon fill="#666666" points="121.77,153.215,131.5778,154.1138,126.5053,151.6097,129.0093,146.5373,121.77,153.215" style="stroke:#666666;stroke-width:1;"/></g><!--link evaluation to activity--><g class="link" data-entity-1="evaluation" data-entity-2="activity" data-source-line="248" data-uid="lnk21" id="link_evaluation_activity"><path codeLine="248" d="M353.81,91.895 C349.3,117.085 345.17,162.205 365,193.125 C391.41,234.305 436.9111,256.4681 476.9611,269.6581" fill="none" id="evaluation-to-activity" style="stroke:#666666;stroke-width:1;"/><polygon fill="#666666" points="482.66,271.535,475.3629,264.9204,477.9109,269.9709,472.8604,272.519,482.66,271.535" style="stroke:#666666;stroke-width:1;"/></g><!--link evaluation to hiddenLocation1--><g class="link" data-entity-1="evaluation" data-entity-2="hiddenLocation1" data-source-line="261" data-uid="lnk23" id="link_evaluation_hiddenLocation1"><path codeLine="261" d="M363.45,91.745 C369.26,111.575 376.6145,136.6466 381.6345,153.7966" fill="none" id="evaluation-to-hiddenLocation1" style="stroke:#666666;stroke-width:1;"/><polygon fill="#666666" points="383.32,159.555,384.6306,149.7937,381.9154,154.7563,376.9528,152.0411,383.32,159.555" style="stroke:#666666;stroke-width:1;"/></g><!--link evidence to activity--><g class="link" data-entity-1="evidence" data-entity-2="activity" data-source-line="270" data-uid="lnk24" id="link_evidence_activity"><path codeLine="270" d="M488.35,193.035 C499.5,213.415 514.2699,240.4214 525.5199,260.9814" fill="none" id="evidence-to-activity" style="stroke:#666666;stroke-width:1;"/><polygon fill="#666666" points="528.4,266.245,527.5889,256.4296,525.9999,261.8587,520.5708,260.2697,528.4,266.245" style="stroke:#666666;stroke-width:1;"/></g><!--link measurement to activity--><g class="link" data-entity-1="measurement" data-entity-2="activity" data-source-line="272" data-uid="lnk25" id="link_measurement_activity"><path codeLine="272" d="M125.27,193.025 C167.78,206.175 226.57,223.535 279,236.125 C348.59,252.835 423.8241,266.5339 476.7141,275.4839" fill="none" id="measurement-to-activity" style="stroke:#666666;stroke-width:1;"/><polygon fill="#666666" points="482.63,276.485,474.4235,271.0394,477.7001,275.6508,473.0888,278.9273,482.63,276.485" style="stroke:#666666;stroke-width:1;"/></g><!--link measurement to location--><g class="link" data-entity-1="measurement" data-entity-2="location" data-source-line="282" data-uid="lnk26" id="link_measurement_location"><path codeLine="282" d="M77.94,192.965 C105.11,235.865 167.9686,335.0968 192.9786,374.5668" fill="none" id="measurement-to-location" style="stroke:#666666;stroke-width:1;"/><polygon fill="#666666" points="196.19,379.635,194.7516,369.8917,193.5138,375.4115,187.994,374.1737,196.19,379.635" style="stroke:#666666;stroke-width:1;"/></g><!--link collection to activity--><g class="link" data-entity-1="collection" data-entity-2="activity" data-source-line="285" data-uid="lnk27" id="link_collection_activity"><path codeLine="285" d="M243.29,192.845 C260.25,206.795 285.18,225.245 310,236.125 C340.41,249.465 419.2521,264.8676 476.6721,275.0476" fill="none" id="collection-to-activity" style="stroke:#666666;stroke-width:1;"/><polygon fill="#666666" points="482.58,276.095,474.4165,270.5853,477.6568,275.2222,473.0199,278.4625,482.58,276.095" style="stroke:#666666;stroke-width:1;"/></g><!--link collection to location--><g class="link" data-entity-1="collection" data-entity-2="location" data-source-line="286" data-uid="lnk28" id="link_collection_location"><path codeLine="286" d="M220.64,192.965 C217.53,235.865 210.4136,334.1807 207.5536,373.6507" fill="none" id="collection-to-location" style="stroke:#666666;stroke-width:1;"/><polygon fill="#666666" points="207.12,379.635,211.76,370.9476,207.4814,374.6481,203.7809,370.3695,207.12,379.635" style="stroke:#666666;stroke-width:1;"/></g><!--reverse link contribution to activity--><g class="link" data-entity-1="contribution" data-entity-2="activity" data-source-line="288" data-uid="lnk30" id="link_contribution_activity"><path codeLine="288" d="M801.1512,196.5275 C782.0412,210.2075 759.44,224.725 733,236.125 C688.47,255.315 634.86,268.295 595.3,276.125" fill="none" id="contribution-backto-activity" style="stroke:#666666;stroke-width:1;"/><polygon fill="#666666" points="806.03,193.035,796.3835,195.0212,801.9644,195.9454,801.0402,201.5263,806.03,193.035" style="stroke:#666666;stroke-width:1;"/></g><!--link activity to rights--><g class="link" data-entity-1="activity" data-entity-2="rights" data-source-line="289" data-uid="lnk31" id="link_activity_rights"><path codeLine="289" d="M570.33,307.095 C603.82,327.905 651.1634,357.3288 681.9734,376.4688" fill="none" id="activity-to-rights" style="stroke:#666666;stroke-width:1;"/><polygon fill="#666666" points="687.07,379.635,681.5358,371.488,682.8228,376.9965,677.3143,378.2835,687.07,379.635" style="stroke:#666666;stroke-width:1;"/></g><!--link activity to location--><g class="link" data-entity-1="activity" data-entity-2="location" data-source-line="290" data-uid="lnk32" id="link_activity_location"><path codeLine="290" d="M482.51,305.865 C415.9,327.365 312.4598,360.7515 253.1798,379.8915" fill="none" id="activity-to-location" style="stroke:#666666;stroke-width:1;"/><polygon fill="#666666" points="247.47,381.735,257.2637,382.7762,252.2281,380.1987,254.8056,375.1632,247.47,381.735" style="stroke:#666666;stroke-width:1;"/></g><!--link contribution to contributor--><g class="link" data-entity-1="contribution" data-entity-2="contributor" data-source-line="292" data-uid="lnk33" id="link_contribution_contributor"><path codeLine="292" d="M837.79,193.035 C845.59,214.785 856.2136,244.4175 863.4436,264.5675" fill="none" id="contribution-to-contributor" style="stroke:#666666;stroke-width:1;"/><polygon fill="#666666" points="865.47,270.215,866.1954,260.3929,863.7814,265.5088,858.6655,263.0947,865.47,270.215" style="stroke:#666666;stroke-width:1;"/><text fill="#666666" font-family="sans-serif" font-size="10" lengthAdjust="spacing" textLength="37.9785" x="853.2" y="233.4023">made by</text></g><!--link funder to activity--><g class="link" data-entity-1="funder" data-entity-2="activity" data-source-line="297" data-uid="lnk35" id="link_funder_activity"><path codeLine="297" d="M592.64,189.165 C581.53,209.135 564.8153,239.1908 552.6353,261.1008" fill="none" id="funder-to-activity" style="stroke:#666666;stroke-width:1;stroke-dasharray:7,7;"/><polygon fill="#666666" points="549.72,266.345,557.589,260.4223,552.1494,261.9749,550.5968,256.5353,549.72,266.345" style="stroke:#666666;stroke-width:1;"/><text fill="#666666" font-family="sans-serif" font-size="10" lengthAdjust="spacing" textLength="25.3125" x="574.71" y="233.4023">funds</text></g><!--link contributor to rights--><g class="link" data-entity-1="contributor" data-entity-2="rights" data-source-line="298" data-uid="lnk36" id="link_contributor_rights"><path codeLine="298" d="M848.22,303.025 C817.99,323.465 769.9104,355.9742 739.7104,376.3942" fill="none" id="contributor-to-rights" style="stroke:#666666;stroke-width:1;stroke-dasharray:7,7;"/><polygon fill="#666666" points="734.74,379.755,744.4362,378.0274,738.882,376.9543,739.9551,371.4002,734.74,379.755" style="stroke:#666666;stroke-width:1;"/><text fill="#666666" font-family="sans-serif" font-size="10" lengthAdjust="spacing" textLength="16.1084" x="797.27" y="347.4023">has</text></g><!--link fundingReceipt to funder--><g class="link" data-entity-1="fundingReceipt" data-entity-2="funder" data-source-line="304" data-uid="lnk37" id="link_fundingReceipt_funder"><path codeLine="304" d="M687.06,91.745 C666.91,110.565 640.525,135.2097 621.755,152.7397" fill="none" id="fundingReceipt-to-funder" style="stroke:#666666;stroke-width:1;"/><polygon fill="#666666" points="617.37,156.835,626.6777,153.6154,621.0242,153.4222,621.2173,147.7687,617.37,156.835" style="stroke:#666666;stroke-width:1;"/></g><!--link fundingReceipt to contributor--><g class="link" data-entity-1="fundingReceipt" data-entity-2="contributor" data-source-line="305" data-uid="lnk38" id="link_fundingReceipt_contributor"><path codeLine="305" d="M777.38,80.805 C823.48,89.895 880.48,109.755 910,153.125 C935.37,190.395 906.0094,239.5622 886.7294,265.6122" fill="none" id="fundingReceipt-to-contributor" style="stroke:#666666;stroke-width:1;"/><polygon fill="#666666" points="883.16,270.435,891.7293,265.5804,886.1345,266.416,885.2989,260.8212,883.16,270.435" style="stroke:#666666;stroke-width:1;"/></g><!--link fundingReceipt to activity--><g class="link" data-entity-1="fundingReceipt" data-entity-2="activity" data-source-line="307" data-uid="lnk39" id="link_fundingReceipt_activity"><path codeLine="307" d="M701.55,91.805 C693.79,116.495 677.89,160.645 655,193.125 C633.26,223.965 603.47,246.5806 577.64,263.0406" fill="none" id="fundingReceipt-to-activity" style="stroke:#666666;stroke-width:1;"/><polygon fill="#666666" points="572.58,266.265,582.3195,264.8017,576.7966,263.578,578.0203,258.0551,572.58,266.265" style="stroke:#666666;stroke-width:1;"/><text fill="#666666" font-family="sans-serif" font-size="10" lengthAdjust="spacing" textLength="25.3125" x="678.68" y="176.9023">funds</text></g><!--link badgeAward to badgeDefinition--><g class="link" data-entity-1="badgeAward" data-entity-2="badgeDefinition" data-source-line="309" data-uid="lnk40" id="link_badgeAward_badgeDefinition"><path codeLine="309" d="M1062,193.035 C1062,214.785 1062,244.065 1062,264.215" fill="none" id="badgeAward-to-badgeDefinition" style="stroke:#666666;stroke-width:1;"/><polygon fill="#666666" points="1062,270.215,1066,261.215,1062,265.215,1058,261.215,1062,270.215" style="stroke:#666666;stroke-width:1;"/></g><!--link badgeResponse to badgeAward--><g class="link" data-entity-1="badgeResponse" data-entity-2="badgeAward" data-source-line="310" data-uid="lnk41" id="link_badgeResponse_badgeAward"><path codeLine="310" d="M1062,91.745 C1062,109.335 1062,129.585 1062,147.255" fill="none" id="badgeResponse-to-badgeAward" style="stroke:#666666;stroke-width:1;"/><polygon fill="#666666" points="1062,153.255,1066,144.255,1062,148.255,1058,144.255,1062,153.255" style="stroke:#666666;stroke-width:1;"/></g><!--link badgeAward to contributor--><g class="link" data-entity-1="badgeAward" data-entity-2="contributor" data-source-line="311" data-uid="lnk42" id="link_badgeAward_contributor"><path codeLine="311" d="M1036.67,193.075 C1018.99,205.915 994.6,222.905 972,236.125 C950.6,248.655 931.0114,258.4069 911.2314,267.5969" fill="none" id="badgeAward-to-contributor" style="stroke:#666666;stroke-width:1;"/><polygon fill="#666666" points="905.79,270.125,915.6375,269.9604,910.3245,268.0182,912.2667,262.7052,905.79,270.125" style="stroke:#666666;stroke-width:1;"/></g><!--link badgeAward to activity--><g class="link" data-entity-1="badgeAward" data-entity-2="activity" data-source-line="312" data-uid="lnk43" id="link_badgeAward_activity"><path codeLine="312" d="M1013.22,193.125 C976.32,206.845 924.11,224.875 877,236.125 C779.22,259.475 668.7191,272.997 601.1691,279.877" fill="none" id="badgeAward-to-activity" style="stroke:#666666;stroke-width:1;"/><polygon fill="#666666" points="595.2,280.485,604.559,283.5525,600.1743,279.9784,603.7484,275.5937,595.2,280.485" style="stroke:#666666;stroke-width:1;"/></g><!--SRC=[lLXVKnit47-_Jo78WvDfxIOqpOE7mW26XfaCP0nD7pATZdotjbLqfwkaWpWTldjt9TsTxi36ePsI39nMA-t_rKyQi0jL05DpPfTWW9cgB9MsZ6kjxWnJMYn4mQqe5cokLSv4aObRaLLSiha0cPbai5DgliWvatobAijC3fON_04TvCq3sgtu-gT94Yki1BRxVbM2JW6bdqudkqaoO2Ugc8j5fL41LR1RhWMVIJ39ZfWN6SpPrVlBt_uuEp_zCBbATf0Wq9I8nkPS6aXs09MU9xIAlOodV_wPxJgMtLV9KcJ082_jgZOiB8icqBAbmXb7CXOqA8iwemMryEdff_FJt_uukVnmEMKlpixEZaucpUJHT7hPpBrpFqcoR-nAma6IgRJAeR3ixuJXZtU9_wQVCrNOA_4LsDxRBerMivcIcIFV9_T9Ahan4y4NckTX1nVDQBSFgCw9aah7EdNstJphD7dpEeYatoF9zGAEKOz8p19u1ZeYT2rv_P3UjQRTdkpQ_o6uoYU6rM9MMQKDMWTCGwanVmiB6PkjsEHyGidBbbNEYw56FIXnC6OQCnbpbh9TmrpXoaonGbdSuAzAu31N6KX9-NuhECDCXIyYLSKemRq5va3QIgO0JzuU_HWCV3IzhAueksWUTIAL2fx33wM1AbF5AlShVQRTasLABqRBkX3C28CfyX5FBLOTIX-Yui8m_8y6i9oB0XLFbSvmPUC2KfwpPfDHad7BNLQmPgFz_IPW1mVinV7RqvychxSqnEMc-p9Bx1KJCAaM9PMe8sRj-D0HHCuNu3_lbBwvIbKPXiPoNC-jtmszq7mtRiPTpEVVFRjKAUyGi3ijhV7VAKOPetzajtCfO1U38eN8EJLfIpUOQlOdfFQmqHTT_uH_3Xzta0RfxBfUrOxvHcDouARIGFqZiYUYFiUai5oZjyCO8vAwprikAwY9s19RnVtur-cv7zOkHK8_YC-C6afsopjngudFCTDKUSxrAgZhTbADpI6ijUwHHviSD5X-yEyjYnC-iYqcRscTLX8EkqNK6lGWzveIF8nhy2aJU5cEI7k1PsKsgWsFzAv9M-eioq-OQ7K7CTfq74hfrI6u0JNIDGMrNl6JMcasuza237j9EZElz7UCtt6TuLzif2Ns6NWLcUGMJEWe5zzWcLlL6D2s1ZfK7bUUIwdk83itfdB5jzcaddv7pe1lK2qk2EzMzLJuUoAdmLVV8jMf6NgVN-sF1w26_gpwyKT1f9idR5ipZla2CoeQDb7pm_uvnosAMb8lU6R1Iua-xvTxJTpsB7wOMLiUElmMfUgwKTo2_hXKLeKv3nC4r6rZozPcrG88MQ7oQFPPXI3z_yPdSoVq_u1c90dr62400tHi5CKmC_KJsqPIkJzqo_8VAWI7vweAo2AjjCRZr1zM9LzHyasva8SnuG8imInFiveNXhkCEiyEcm8Fc4cbRaUCv1E1lMS3EXfO7M1onyNbzUcumQCuQgFnFSD31- -AU4VY6OPkJacDYL0mLQHBHAqKONK3XVZgJmcyV-9aWquzfXqnTgMOi9W2sAWf2Ge0GhgD79OrxNYKb1hp5ml8xzn7k6Tdn-zEtcmPYvUg63ezKL-vUlKW4yBrTIaG1oI327yCXzbdl1qYvlbzUD2WdmqiCN8Rn82jmrKxXZOA67Mer-pItXLanE5y4Yz_VFke_wpXQBUlela8QQnZQSxkQ3uM4Hhue8DuEbPsXFHgRBY6BsazFnw7Omv34CKcPeZndUEA7RjkfyOtc1ZdUQcC4TJBh69OAxu-t1DBmUu4WcDw8i4wkwCMLfNk7kVJASwIyRW1KCFXvq9X5Tzqd8YoZ6egBEStW5MHyMBXMgE_xrSct0ITPpp6ISoDA4fEJmE-L_c2EERfpK9ZdydSnNz__vUbCXRhvfhw1_BNTvjZh4lGJp2TkbQyWIayKh1T_CTDKF13iEqDQnRvbvR-T2fqAhk1YxnrqETFDbNxW1r9T2GK56ONZDXRrDYCok6EJYEsYsJqaOLT2cuJYhvwmyVgPWVe9If8-w-oX0gepequEUe7hph7r-LhbDthK_hAsSzH7v4BRAboHKTJvtBP5Rx1snkYlhSvwdjrr3iwRmZxtdyVshrEQ2DlKsZN-oC4essjut6BhxhkZdawjhLrN_EEnvqd4kpsmxZr4M_B6h3mi6spxLppgD8J56yL2QC7js6toR8nDY2CsCpboxLxHyPSzi2FZcsFFMSU-l5YrOK9nCNHguGkFF9ZMNYzf4J3Q6doZJ_LHwFMNIWtW0WmIS1zlNcYcYJMbHY2EyPioKshCg8cfqi0eUnkAT8bLgEKX610ktEJj4i9Zu76NcPN0mAh0Jxsm2oXIVPIk9VrrI2u0kDvTFsHaCgh4QvyZpSzXDvuyK6n90d1BJfA8mh3EgleGLv9aTNFyJD8EH5fHz8LTu0lfHGfWlzLv6Pg8GXUIDdUETd0vIvzF7Ql-nHOxyW7yrWMm_xP-c0FT4ASpqq0alRIDnwxRyVNkr4ddUjaOFGNseRRNnpZxUA-5MktZgU5CXXtQWBKPas_oJw-EZg9e-lRFm00]--></g></svg>