<svg xmlns="http://www.w3.org/2000/svg" xmlns:xlink="http://www.w3.org/1999/xlink" contentStyleType="text/css" data-diagram-type="CLASS" height="518px" preserveAspectRatio="none" style="width:1129px;height:518px;background:#FFFFFF;" version="1.1" viewBox="0 0 1129 518" width="1129px" zoomAndPan="magnify"><title>Hypercert ERD</title><defs/><g><g class="title" data-source-line="7"><text fill="#000000" font-family="sans-serif" font-size="24" font-weight="bold" lengthAdjust="spacing" textLength="169.3945" x="473.2886" y="32.5117">Hypercert ERD</text></g><!--class contributor--><g class="entity" data-entity="contributor" data-source-line="47" data-uid="ent0002" id="entity_contributor"><rect fill="#FFD4A3" height="32" rx="2.5" ry="2.5" style="stroke:#181818;stroke-width:0.5;" width="98.1445" x="840.43" y="269.5977"/><ellipse cx="855.43" cy="285.5977" fill="#ADD1B2" rx="11" ry="11" style="stroke:#181818;stroke-width:1;"/><path d="M851.4925,291.5977 L859.0081,291.5977 L859.0081,289.4883 L854.0081,289.4883 L854.0081,286.9414 L858.1019,286.9414 L858.1019,284.8477 L854.0081,284.8477 L854.0081,282.6289 L858.8363,282.6289 L858.8363,280.5195 L851.4925,280.5195 L851.4925,291.5977 Z " fill="#000000"/><text fill="#000000" font-family="sans-serif" font-size="14" lengthAdjust="spacing" textLength="66.1445" x="869.43" y="290.6802">contributor</text></g><!--class activity--><g class="entity" data-entity="activity" data-source-line="55" data-uid="ent0003" id="entity_activity"><rect fill="#B4E5D0" height="32.998" rx="2.5" ry="2.5" style="stroke:#181818;stroke-width:0.5;" width="100.9258" x="497.5" y="269.5977"/><ellipse cx="512.5" cy="286.0967" fill="#7E57C2" rx="11" ry="11" style="stroke:#181818;stroke-width:1;"/><path d="M509.6875,292.0967 L512.9063,292.0967 C515.9844,292.0967 518.0938,290.3154 518.0938,286.5029 C518.0938,282.6904 515.9844,281.0186 512.75,281.0186 L509.6875,281.0186 L509.6875,292.0967 Z M512.2031,290.0811 L512.2031,283.0342 L512.6094,283.0342 C514.3438,283.0342 515.5156,283.8467 515.5156,286.5029 C515.5156,289.1592 514.3438,290.0811 512.6094,290.0811 L512.2031,290.0811 Z " fill="#000000"/><text fill="#000000" font-family="sans-serif" font-size="20" font-weight="bold" lengthAdjust="spacing" textLength="68.9258" x="526.5" y="293.3574">activity</text></g><!--class evidence--><g class="entity" data-entity="evidence" data-source-line="73" data-uid="ent0004" id="entity_evidence"><rect fill="#F1F1F1" height="32" rx="2.5" ry="2.5" style="stroke:#181818;stroke-width:0.5;" width="88.041" x="361.5" y="156.5977"/><ellipse cx="376.5" cy="172.5977" fill="#7E57C2" rx="11" ry="11" style="stroke:#181818;stroke-width:1;"/><path d="M373.6875,178.5977 L376.9063,178.5977 C379.9844,178.5977 382.0938,176.8164 382.0938,173.0039 C382.0938,169.1914 379.9844,167.5195 376.75,167.5195 L373.6875,167.5195 L373.6875,178.5977 Z M376.2031,176.582 L376.2031,169.5352 L376.6094,169.5352 C378.3438,169.5352 379.5156,170.3477 379.5156,173.0039 C379.5156,175.6602 378.3438,176.582 376.6094,176.582 L376.2031,176.582 Z " fill="#000000"/><text fill="#000000" font-family="sans-serif" font-size="14" lengthAdjust="spacing" textLength="56.041" x="390.5" y="177.6802">evidence</text></g><!--class measurement--><g class="entity" data-entity="measurement" data-source-line="86" data-uid="ent0005" id="entity_measurement"><rect fill="#F1F1F1" height="32" rx="2.5" ry="2.5" style="stroke:#181818;stroke-width:0.5;" width="117.5928" x="7" y="156.5977"/><ellipse cx="22" cy="172.5977" fill="#7E57C2" rx="11" ry="11" style="stroke:#181818;stroke-width:1;"/><path d="M19.1875,178.5977 L22.4063,178.5977 C25.4844,178.5977 27.5938,176.8164 27.5938,173.0039 C27.5938,169.1914 25.4844,167.5195 22.25,167.5195 L19.1875,167.5195 L19.1875,178.5977 Z M21.7031,176.582 L21.7031,169.5352 L22.1094,169.5352 C23.8438,169.5352 25.0156,170.3477 25.0156,173.0039 C25.0156,175.6602 23.8438,176.582 22.1094,176.582 L21.7031,176.582 Z " fill="#000000"/><text fill="#000000" font-family="sans-serif" font-size="14" lengthAdjust="spacing" textLength="85.5928" x="36" y="177.6802">measurement</text></g><!--class evaluation--><g class="entity" data-entity="evaluation" data-source-line="101" data-uid="ent0006" id="entity_evaluation"><rect fill="#F1F1F1" height="32" rx="2.5" ry="2.5" style="stroke:#181818;stroke-width:0.5;" width="95.8271" x="300" y="55.5977"/><ellipse cx="315" cy="71.5977" fill="#7E57C2" rx="11" ry="11" style="stroke:#181818;stroke-width:1;"/><path d="M312.1875,77.5977 L315.4063,77.5977 C318.4844,77.5977 320.5938,75.8164 320.5938,72.0039 C320.5938,68.1914 318.4844,66.5195 315.25,66.5195 L312.1875,66.5195 L312.1875,77.5977 Z M314.7031,75.582 L314.7031,68.5352 L315.1094,68.5352 C316.8438,68.5352 318.0156,69.3477 318.0156,72.0039 C318.0156,74.6602 316.8438,75.582 315.1094,75.582 L314.7031,75.582 Z " fill="#000000"/><text fill="#000000" font-family="sans-serif" font-size="14" lengthAdjust="spacing" textLength="63.8271" x="329" y="76.6802">evaluation</text></g><!--class contribution--><g class="entity" data-entity="contribution" data-source-line="115" data-uid="ent0007" id="entity_contribution"><rect fill="#F1F1F1" height="32" rx="2.5" ry="2.5" style="stroke:#181818;stroke-width:0.5;" width="104.3789" x="774.5" y="156.5977"/><ellipse cx="789.5" cy="172.5977" fill="#7E57C2" rx="11" ry="11" style="stroke:#181818;stroke-width:1;"/><path d="M786.6875,178.5977 L789.9063,178.5977 C792.9844,178.5977 795.0938,176.8164 795.0938,173.0039 C795.0938,169.1914 792.9844,167.5195 789.75,167.5195 L786.6875,167.5195 L786.6875,178.5977 Z M789.2031,176.582 L789.2031,169.5352 L789.6094,169.5352 C791.3438,169.5352 792.5156,170.3477 792.5156,173.0039 C792.5156,175.6602 791.3438,176.582 789.6094,176.582 L789.2031,176.582 Z " fill="#000000"/><text fill="#000000" font-family="sans-serif" font-size="14" lengthAdjust="spacing" textLength="72.3789" x="803.5" y="177.6802">contribution</text></g><!--class location--><g class="entity" data-entity="location" data-source-line="127" data-uid="ent0008" id="entity_location"><rect fill="#F1F1F1" height="32" rx="2.5" ry="2.5" style="stroke:#181818;stroke-width:0.5;" width="80.2549" x="409.37" y="479.5977"/><ellipse cx="424.37" cy="495.5977" fill="#7E57C2" rx="11" ry="11" style="stroke:#181818;stroke-width:1;"/><path d="M421.5575,501.5977 L424.7763,501.5977 C427.8544,501.5977 429.9638,499.8164 429.9638,496.0039 C429.9638,492.1914 427.8544,490.5195 424.62,490.5195 L421.5575,490.5195 L421.5575,501.5977 Z M424.0731,499.582 L424.0731,492.5352 L424.4794,492.5352 C426.2138,492.5352 427.3856,493.3477 427.3856,496.0039 C427.3856,498.6602 426.2138,499.582 424.4794,499.582 L424.0731,499.582 Z " fill="#000000"/><text fill="#000000" font-family="sans-serif" font-size="14" lengthAdjust="spacing" textLength="48.2549" x="438.37" y="500.6802">location</text></g><!--class badgeDefinition--><g class="entity" data-entity="badgeDefinition" data-source-line="140" data-uid="ent0009" id="entity_badgeDefinition"><rect fill="#F1F1F1" height="32" rx="2.5" ry="2.5" style="stroke:#181818;stroke-width:0.5;" width="129.2959" x="990.85" y="269.5977"/><ellipse cx="1005.85" cy="285.5977" fill="#7E57C2" rx="11" ry="11" style="stroke:#181818;stroke-width:1;"/><path d="M1003.0375,291.5977 L1006.2563,291.5977 C1009.3344,291.5977 1011.4438,289.8164 1011.4438,286.0039 C1011.4438,282.1914 1009.3344,280.5195 1006.1,280.5195 L1003.0375,280.5195 L1003.0375,291.5977 Z M1005.5531,289.582 L1005.5531,282.5352 L1005.9594,282.5352 C1007.6938,282.5352 1008.8656,283.3477 1008.8656,286.0039 C1008.8656,288.6602 1007.6938,289.582 1005.9594,289.582 L1005.5531,289.582 Z " fill="#000000"/><text fill="#000000" font-family="sans-serif" font-size="14" lengthAdjust="spacing" textLength="97.2959" x="1019.85" y="290.6802">badgeDefinition</text></g><!--class badgeAward--><g class="entity" data-entity="badgeAward" data-source-line="151" data-uid="ent0010" id="entity_badgeAward"><rect fill="#F1F1F1" height="32" rx="2.5" ry="2.5" style="stroke:#181818;stroke-width:0.5;" width="110.6133" x="1000.5" y="156.5977"/><ellipse cx="1015.5" cy="172.5977" fill="#7E57C2" rx="11" ry="11" style="stroke:#181818;stroke-width:1;"/><path d="M1012.6875,178.5977 L1015.9063,178.5977 C1018.9844,178.5977 1021.0938,176.8164 1021.0938,173.0039 C1021.0938,169.1914 1018.9844,167.5195 1015.75,167.5195 L1012.6875,167.5195 L1012.6875,178.5977 Z M1015.2031,176.582 L1015.2031,169.5352 L1015.6094,169.5352 C1017.3438,169.5352 1018.5156,170.3477 1018.5156,173.0039 C1018.5156,175.6602 1017.3438,176.582 1015.6094,176.582 L1015.2031,176.582 Z " fill="#000000"/><text fill="#000000" font-family="sans-serif" font-size="14" lengthAdjust="spacing" textLength="78.6133" x="1029.5" y="177.6802">badgeAward</text></g><!--class badgeResponse--><g class="entity" data-entity="badgeResponse" data-source-line="160" data-uid="ent0011" id="entity_badgeResponse"><rect fill="#F1F1F1" height="32" rx="2.5" ry="2.5" style="stroke:#181818;stroke-width:0.5;" width="133.9717" x="989" y="55.5977"/><ellipse cx="1004" cy="71.5977" fill="#7E57C2" rx="11" ry="11" style="stroke:#181818;stroke-width:1;"/><path d="M1001.1875,77.5977 L1004.4063,77.5977 C1007.4844,77.5977 1009.5938,75.8164 1009.5938,72.0039 C1009.5938,68.1914 1007.4844,66.5195 1004.25,66.5195 L1001.1875,66.5195 L1001.1875,77.5977 Z M1003.7031,75.582 L1003.7031,68.5352 L1004.1094,68.5352 C1005.8438,68.5352 1007.0156,69.3477 1007.0156,72.0039 C1007.0156,74.6602 1005.8438,75.582 1004.1094,75.582 L1003.7031,75.582 Z " fill="#000000"/><text fill="#000000" font-family="sans-serif" font-size="14" lengthAdjust="spacing" textLength="101.9717" x="1018" y="76.6802">badgeResponse</text></g><!--class rights--><g class="entity" data-entity="rights" data-source-line="170" data-uid="ent0012" id="entity_rights"><rect fill="#F1F1F1" height="32" rx="2.5" ry="2.5" style="stroke:#181818;stroke-width:0.5;" width="66.2344" x="755.38" y="382.5977"/><ellipse cx="770.38" cy="398.5977" fill="#7E57C2" rx="11" ry="11" style="stroke:#181818;stroke-width:1;"/><path d="M767.5675,404.5977 L770.7863,404.5977 C773.8644,404.5977 775.9738,402.8164 775.9738,399.0039 C775.9738,395.1914 773.8644,393.5195 770.63,393.5195 L767.5675,393.5195 L767.5675,404.5977 Z M770.0831,402.582 L770.0831,395.5352 L770.4894,395.5352 C772.2238,395.5352 773.3956,396.3477 773.3956,399.0039 C773.3956,401.6602 772.2238,402.582 770.4894,402.582 L770.0831,402.582 Z " fill="#000000"/><text fill="#000000" font-family="sans-serif" font-size="14" lengthAdjust="spacing" textLength="34.2344" x="784.38" y="403.6802">rights</text></g><!--class collection--><g class="entity" data-entity="collection" data-source-line="181" data-uid="ent0013" id="entity_collection"><rect fill="#F1F1F1" height="32" rx="2.5" ry="2.5" style="stroke:#181818;stroke-width:0.5;" width="90.3652" x="175.5" y="156.5977"/><ellipse cx="190.5" cy="172.5977" fill="#7E57C2" rx="11" ry="11" style="stroke:#181818;stroke-width:1;"/><path d="M187.6875,178.5977 L190.9063,178.5977 C193.9844,178.5977 196.0938,176.8164 196.0938,173.0039 C196.0938,169.1914 193.9844,167.5195 190.75,167.5195 L187.6875,167.5195 L187.6875,178.5977 Z M190.2031,176.582 L190.2031,169.5352 L190.6094,169.5352 C192.3438,169.5352 193.5156,170.3477 193.5156,173.0039 C193.5156,175.6602 192.3438,176.582 190.6094,176.582 L190.2031,176.582 Z " fill="#000000"/><text fill="#000000" font-family="sans-serif" font-size="14" lengthAdjust="spacing" textLength="58.3652" x="204.5" y="177.6802">collection</text></g><!--class project--><g class="entity" data-entity="project" data-source-line="193" data-uid="ent0014" id="entity_project"><rect fill="#F1F1F1" height="32" rx="2.5" ry="2.5" style="stroke:#181818;stroke-width:0.5;" width="74.0205" x="510.5" y="382.5977"/><ellipse cx="525.5" cy="398.5977" fill="#7E57C2" rx="11" ry="11" style="stroke:#181818;stroke-width:1;"/><path d="M522.6875,404.5977 L525.9063,404.5977 C528.9844,404.5977 531.0938,402.8164 531.0938,399.0039 C531.0938,395.1914 528.9844,393.5195 525.75,393.5195 L522.6875,393.5195 L522.6875,404.5977 Z M525.2031,402.582 L525.2031,395.5352 L525.6094,395.5352 C527.3438,395.5352 528.5156,396.3477 528.5156,399.0039 C528.5156,401.6602 527.3438,402.582 525.6094,402.582 L525.2031,402.582 Z " fill="#000000"/><text fill="#000000" font-family="sans-serif" font-size="14" lengthAdjust="spacing" textLength="42.0205" x="539.5" y="403.6802">project</text></g><!--class funder--><g class="entity" data-entity="funder" data-source-line="210" data-uid="ent0015" id="entity_funder"><rect fill="#FFD4A3" height="32" rx="2.5" ry="2.5" style="stroke:#181818;stroke-width:0.5;" width="71.6963" x="563.65" y="156.5977"/><ellipse cx="578.65" cy="172.5977" fill="#ADD1B2" rx="11" ry="11" style="stroke:#181818;stroke-width:1;"/><path d="M574.7125,178.5977 L582.2281,178.5977 L582.2281,176.4883 L577.2281,176.4883 L577.2281,173.9414 L581.3219,173.9414 L581.3219,171.8477 L577.2281,171.8477 L577.2281,169.6289 L582.0563,169.6289 L582.0563,167.5195 L574.7125,167.5195 L574.7125,178.5977 Z " fill="#000000"/><text fill="#000000" font-family="sans-serif" font-size="14" lengthAdjust="spacing" textLength="39.6963" x="592.65" y="177.6802">funder</text></g><!--class fundingReceipt--><g class="entity" data-entity="fundingReceipt" data-source-line="217" data-uid="ent0016" id="entity_fundingReceipt"><rect fill="#F1F1F1" height="32" rx="2.5" ry="2.5" style="stroke:#181818;stroke-width:0.5;" width="125.3994" x="643" y="55.5977"/><ellipse cx="658" cy="71.5977" fill="#7E57C2" rx="11" ry="11" style="stroke:#181818;stroke-width:1;"/><path d="M655.1875,77.5977 L658.4063,77.5977 C661.4844,77.5977 663.5938,75.8164 663.5938,72.0039 C663.5938,68.1914 661.4844,66.5195 658.25,66.5195 L655.1875,66.5195 L655.1875,77.5977 Z M657.7031,75.582 L657.7031,68.5352 L658.1094,68.5352 C659.8438,68.5352 661.0156,69.3477 661.0156,72.0039 C661.0156,74.6602 659.8438,75.582 658.1094,75.582 L657.7031,75.582 Z " fill="#000000"/><text fill="#000000" font-family="sans-serif" font-size="14" lengthAdjust="spacing" textLength="93.3994" x="672" y="76.6802">fundingReceipt</text></g><!--class token--><g class="entity" data-entity="token" data-source-line="238" data-uid="ent0017" id="entity_token"><rect fill="#FFB6C1" height="32.998" rx="2.5" ry="2.5" style="stroke:#181818;stroke-width:0.5;" width="85.3398" x="325.83" y="269.0977"/><ellipse cx="340.83" cy="285.5967" fill="#F1F1F1" rx="11" ry="11" style="stroke:#181818;stroke-width:1;"/><path d="M337.6113,291.5967 L340.1113,291.5967 L340.1113,287.8467 L341.5331,287.8467 C343.8769,287.8467 345.8613,286.6904 345.8613,284.0811 C345.8613,281.3936 343.9238,280.5186 341.5331,280.5186 L337.6113,280.5186 L337.6113,291.5967 Z M340.1113,285.8467 L340.1113,282.5029 L341.3769,282.5029 C342.705,282.5029 343.4238,282.9248 343.4238,284.0811 C343.4238,285.2373 342.7519,285.8467 341.3769,285.8467 L340.1113,285.8467 Z " fill="#000000"/><text fill="#000000" font-family="sans-serif" font-size="20" font-weight="bold" lengthAdjust="spacing" textLength="53.3398" x="354.83" y="292.8574">token</text></g><!--class hiddenLocation1--><g class="entity" data-entity="hiddenLocation1" data-source-line="273" data-uid="ent0023" id="entity_hiddenLocation1"><rect fill="none" height="26.0986" rx="2.5" ry="2.5" style="stroke:none;stroke-width:0.5;" width="9.8896" x="308.56" y="159.5477"/><text fill="#000000" font-family="sans-serif" font-size="14" lengthAdjust="spacing" textLength="3.8896" x="311.56" y="177.6795">&#160;</text></g><!--link token to activity--><g class="link" data-entity-1="token" data-entity-2="activity" data-source-line="313" data-uid="lnk37" id="link_token_activity"><path codeLine="313" d="M411.37,285.5977 C434.85,285.5977 458.27,285.5977 483.75,285.5977" fill="none" id="token-to-activity" style="stroke:#666666;stroke-width:1;stroke-dasharray:7,7;"/><polygon fill="#666666" points="489.75,285.5977,480.75,281.5977,484.75,285.5977,480.75,289.5977,489.75,285.5977" style="stroke:#666666;stroke-width:1;"/><text fill="#666666" font-family="sans-serif" font-size="10" lengthAdjust="spacing" textLength="42.2461" x="429.33" y="279.9775">tokenizes</text></g><!--link evaluation to evidence--><g class="link" data-entity-1="evaluation" data-entity-2="evidence" data-source-line="260" data-uid="lnk20" id="link_evaluation_evidence"><path codeLine="260" d="M358.41,91.2177 C368.71,108.8077 381.0575,129.8804 391.4075,147.5504" fill="none" id="evaluation-to-evidence" style="stroke:#666666;stroke-width:1;"/><polygon fill="#666666" points="394.44,152.7277,393.3427,142.9401,391.9129,148.4133,386.4397,146.9835,394.44,152.7277" style="stroke:#666666;stroke-width:1;"/></g><!--link evaluation to measurement--><g class="link" data-entity-1="evaluation" data-entity-2="measurement" data-source-line="261" data-uid="lnk21" id="link_evaluation_measurement"><path codeLine="261" d="M293.46,91.5677 C243.4,109.1377 175.0214,133.1505 125.0214,150.7005" fill="none" id="evaluation-to-measurement" style="stroke:#666666;stroke-width:1;"/><polygon fill="#666666" points="119.36,152.6877,129.1768,153.4812,124.0778,151.0317,126.5273,145.9327,119.36,152.6877" style="stroke:#666666;stroke-width:1;"/></g><!--link evaluation to activity--><g class="link" data-entity-1="evaluation" data-entity-2="activity" data-source-line="262" data-uid="lnk22" id="link_evaluation_activity"><path codeLine="262" d="M388.8,91.4477 C415.95,105.3977 450.88,126.4677 475.5,152.5977 C507.73,186.7877 528.0856,232.554 538.6056,260.044" fill="none" id="evaluation-to-activity" style="stroke:#666666;stroke-width:1;"/><polygon fill="#666666" points="540.75,265.6477,541.2691,255.8125,538.963,260.9779,533.7975,258.6718,540.75,265.6477" style="stroke:#666666;stroke-width:1;"/></g><!--link evaluation to hiddenLocation1--><g class="link" data-entity-1="evaluation" data-entity-2="hiddenLocation1" data-source-line="275" data-uid="lnk24" id="link_evaluation_hiddenLocation1"><path codeLine="275" d="M341.1,91.2177 C334.26,111.1577 325.5401,136.5534 319.6701,153.6334" fill="none" id="evaluation-to-hiddenLocation1" style="stroke:#666666;stroke-width:1;"/><polygon fill="#666666" points="317.72,159.3077,324.428,152.0964,319.3451,154.5791,316.8623,149.4962,317.72,159.3077" style="stroke:#666666;stroke-width:1;"/></g><!--link evidence to activity--><g class="link" data-entity-1="evidence" data-entity-2="activity" data-source-line="284" data-uid="lnk25" id="link_evidence_activity"><path codeLine="284" d="M429.33,192.3477 C445,204.6577 465.95,221.1077 484.5,235.5977 C497.28,245.5777 506.7928,252.9854 518.5128,262.0954" fill="none" id="evidence-to-activity" style="stroke:#666666;stroke-width:1;"/><polygon fill="#666666" points="523.25,265.7777,518.599,257.0962,519.3023,262.7091,513.6894,263.4124,523.25,265.7777" style="stroke:#666666;stroke-width:1;"/></g><!--link measurement to activity--><g class="link" data-entity-1="measurement" data-entity-2="activity" data-source-line="286" data-uid="lnk26" id="link_measurement_activity"><path codeLine="286" d="M131.76,188.8577 C226.59,210.6977 393.6331,249.1607 483.6631,269.9007" fill="none" id="measurement-to-activity" style="stroke:#666666;stroke-width:1;"/><polygon fill="#666666" points="489.51,271.2477,481.6377,265.3294,484.6376,270.1252,479.8418,273.1252,489.51,271.2477" style="stroke:#666666;stroke-width:1;"/></g><!--link measurement to location--><g class="link" data-entity-1="measurement" data-entity-2="location" data-source-line="296" data-uid="lnk27" id="link_measurement_location"><path codeLine="296" d="M88.09,192.4777 C157.7,250.6677 363.4568,422.6692 426.7068,475.5492" fill="none" id="measurement-to-location" style="stroke:#666666;stroke-width:1;"/><polygon fill="#666666" points="431.31,479.3977,426.9709,470.5562,427.474,476.1906,421.8396,476.6937,431.31,479.3977" style="stroke:#666666;stroke-width:1;"/></g><!--link collection to activity--><g class="link" data-entity-1="collection" data-entity-2="activity" data-source-line="299" data-uid="lnk28" id="link_collection_activity"><path codeLine="299" d="M273.4,191.5577 C333.32,211.8977 424.8686,242.9685 485.9786,263.7185" fill="none" id="collection-to-activity" style="stroke:#666666;stroke-width:1;"/><polygon fill="#666666" points="491.66,265.6477,484.424,258.9663,486.9255,264.04,481.8518,266.5416,491.66,265.6477" style="stroke:#666666;stroke-width:1;"/></g><!--link project to activity--><g class="link" data-entity-1="project" data-entity-2="activity" data-source-line="301" data-uid="lnk29" id="link_project_activity"><path codeLine="301" d="M557.66,378.6777 C561.62,358.2277 562.7556,331.7273 558.7856,311.3173" fill="none" id="project-to-activity" style="stroke:#666666;stroke-width:1;"/><polygon fill="#666666" points="557.64,305.4277,555.432,315.0258,558.5947,310.3357,563.2848,313.4983,557.64,305.4277" style="stroke:#666666;stroke-width:1;"/></g><!--link activity to project--><g class="link" data-entity-1="activity" data-entity-2="project" data-source-line="307" data-uid="lnk35" id="link_activity_project"><path codeLine="307" d="M537.36,305.4277 C533.39,325.8377 532.2393,352.3371 536.1993,372.7871" fill="none" id="activity-to-project" style="stroke:#666666;stroke-width:1;"/><polygon fill="#666666" points="537.34,378.6777,539.556,369.0813,536.3894,373.7688,531.7019,370.6022,537.34,378.6777" style="stroke:#666666;stroke-width:1;"/></g><!--link project to location--><g class="link" data-entity-1="project" data-entity-2="location" data-source-line="302" data-uid="lnk30" id="link_project_location"><path codeLine="302" d="M528.14,418.3677 C509.73,436.2077 486.6863,458.5397 469.5763,475.1397" fill="none" id="project-to-location" style="stroke:#666666;stroke-width:1;"/><polygon fill="#666666" points="465.27,479.3177,474.5148,475.9216,468.8586,475.836,468.9442,470.1798,465.27,479.3177" style="stroke:#666666;stroke-width:1;"/></g><!--reverse link contribution to activity--><g class="link" data-entity-1="contribution" data-entity-2="activity" data-source-line="304" data-uid="lnk32" id="link_contribution_activity"><path codeLine="304" d="M796.5923,195.8776 C777.4623,209.4976 754.86,224.0077 728.5,235.5977 C688.86,253.0277 641.56,265.5677 605.25,273.5977" fill="none" id="contribution-backto-activity" style="stroke:#666666;stroke-width:1;"/><polygon fill="#666666" points="801.48,192.3977,791.8284,194.3591,797.4069,195.2976,796.4683,200.8761,801.48,192.3977" style="stroke:#666666;stroke-width:1;"/></g><!--link activity to rights--><g class="link" data-entity-1="activity" data-entity-2="rights" data-source-line="305" data-uid="lnk33" id="link_activity_rights"><path codeLine="305" d="M588.66,305.5577 C635.57,327.1677 705.93,359.5681 749.45,379.6081" fill="none" id="activity-to-rights" style="stroke:#666666;stroke-width:1;"/><polygon fill="#666666" points="754.9,382.1177,748.3981,374.72,750.3584,380.0263,745.052,381.9866,754.9,382.1177" style="stroke:#666666;stroke-width:1;"/></g><!--link activity to location--><g class="link" data-entity-1="activity" data-entity-2="location" data-source-line="306" data-uid="lnk34" id="link_activity_location"><path codeLine="306" d="M532.45,305.3377 C518.67,323.2677 498.49,351.5077 485.5,378.5977 C469,413.0177 459.1637,450.8955 454.0337,473.5755" fill="none" id="activity-to-location" style="stroke:#666666;stroke-width:1;"/><polygon fill="#666666" points="452.71,479.4277,458.597,471.5319,453.8131,474.5509,450.7941,469.7669,452.71,479.4277" style="stroke:#666666;stroke-width:1;"/></g><!--link contribution to contributor--><g class="link" data-entity-1="contribution" data-entity-2="contributor" data-source-line="309" data-uid="lnk36" id="link_contribution_contributor"><path codeLine="309" d="M837.19,192.4277 C849.47,214.0777 866.4494,243.9789 877.8294,264.0389" fill="none" id="contribution-to-contributor" style="stroke:#666666;stroke-width:1;"/><polygon fill="#666666" points="880.79,269.2577,879.8283,259.4559,878.3229,264.9087,872.87,263.4033,880.79,269.2577" style="stroke:#666666;stroke-width:1;"/><text fill="#666666" font-family="sans-serif" font-size="10" lengthAdjust="spacing" textLength="38.3545" x="860.89" y="232.9775">made by</text></g><!--link funder to activity--><g class="link" data-entity-1="funder" data-entity-2="activity" data-source-line="314" data-uid="lnk38" id="link_funder_activity"><path codeLine="314" d="M592.27,189.0277 C582.84,209.1677 568.8956,238.9344 558.7756,260.5344" fill="none" id="funder-to-activity" style="stroke:#666666;stroke-width:1;stroke-dasharray:7,7;"/><polygon fill="#666666" points="556.23,265.9677,563.6705,259.5148,558.3513,261.44,556.4262,256.1208,556.23,265.9677" style="stroke:#666666;stroke-width:1;"/><text fill="#666666" font-family="sans-serif" font-size="10" lengthAdjust="spacing" textLength="24.4629" x="576.06" y="232.9775">funds</text></g><!--link contributor to rights--><g class="link" data-entity-1="contributor" data-entity-2="rights" data-source-line="315" data-uid="lnk39" id="link_contributor_rights"><path codeLine="315" d="M875.46,302.0277 C856.16,323.2377 825.6985,356.7203 806.4585,377.8603" fill="none" id="contributor-to-rights" style="stroke:#666666;stroke-width:1;stroke-dasharray:7,7;"/><polygon fill="#666666" points="802.42,382.2977,811.4361,378.334,805.7855,378.5999,805.5196,372.9493,802.42,382.2977" style="stroke:#666666;stroke-width:1;"/><text fill="#666666" font-family="sans-serif" font-size="10" lengthAdjust="spacing" textLength="16.123" x="843.03" y="345.9775">has</text></g><!--link fundingReceipt to funder--><g class="link" data-entity-1="fundingReceipt" data-entity-2="funder" data-source-line="321" data-uid="lnk40" id="link_fundingReceipt_funder"><path codeLine="321" d="M685.56,91.2177 C665.41,110.0377 639.025,134.6823 620.255,152.2123" fill="none" id="fundingReceipt-to-funder" style="stroke:#666666;stroke-width:1;"/><polygon fill="#666666" points="615.87,156.3077,625.1777,153.088,619.5242,152.8949,619.7173,147.2413,615.87,156.3077" style="stroke:#666666;stroke-width:1;"/></g><!--link fundingReceipt to contributor--><g class="link" data-entity-1="fundingReceipt" data-entity-2="contributor" data-source-line="322" data-uid="lnk41" id="link_fundingReceipt_contributor"><path codeLine="322" d="M775.91,81.4977 C820.52,91.1177 875.15,111.1077 904.5,152.5977 C929.54,187.9977 912.2353,237.145 899.9353,263.655" fill="none" id="fundingReceipt-to-contributor" style="stroke:#666666;stroke-width:1;"/><polygon fill="#666666" points="897.41,269.0977,904.8264,262.6171,899.5144,264.5621,897.5695,259.2501,897.41,269.0977" style="stroke:#666666;stroke-width:1;"/></g><!--link fundingReceipt to activity--><g class="link" data-entity-1="fundingReceipt" data-entity-2="activity" data-source-line="324" data-uid="lnk42" id="link_fundingReceipt_activity"><path codeLine="324" d="M699.56,91.5877 C691.33,116.2177 674.9,159.9077 652.5,192.5977 C637.22,214.8977 629.69,217.6277 609.5,235.5977 C597.82,245.9977 588.9908,253.183 577.5308,262.023" fill="none" id="fundingReceipt-to-activity" style="stroke:#666666;stroke-width:1;"/><polygon fill="#666666" points="572.78,265.6877,582.3493,263.3579,576.739,262.6338,577.4631,257.0234,572.78,265.6877" style="stroke:#666666;stroke-width:1;"/><text fill="#666666" font-family="sans-serif" font-size="10" lengthAdjust="spacing" textLength="24.4629" x="676.12" y="176.4775">funds</text></g><!--link badgeAward to badgeDefinition--><g class="link" data-entity-1="badgeAward" data-entity-2="badgeDefinition" data-source-line="326" data-uid="lnk43" id="link_badgeAward_badgeDefinition"><path codeLine="326" d="M1055.5,192.4277 C1055.5,214.0777 1055.5,243.1977 1055.5,263.2577" fill="none" id="badgeAward-to-badgeDefinition" style="stroke:#666666;stroke-width:1;"/><polygon fill="#666666" points="1055.5,269.2577,1059.5,260.2577,1055.5,264.2577,1051.5,260.2577,1055.5,269.2577" style="stroke:#666666;stroke-width:1;"/></g><!--link badgeResponse to badgeAward--><g class="link" data-entity-1="badgeResponse" data-entity-2="badgeAward" data-source-line="327" data-uid="lnk44" id="link_badgeResponse_badgeAward"><path codeLine="327" d="M1055.5,91.2177 C1055.5,108.8077 1055.5,129.0577 1055.5,146.7277" fill="none" id="badgeResponse-to-badgeAward" style="stroke:#666666;stroke-width:1;"/><polygon fill="#666666" points="1055.5,152.7277,1059.5,143.7277,1055.5,147.7277,1051.5,143.7277,1055.5,152.7277" style="stroke:#666666;stroke-width:1;"/></g><!--link badgeAward to contributor--><g class="link" data-entity-1="badgeAward" data-entity-2="contributor" data-source-line="328" data-uid="lnk45" id="link_badgeAward_contributor"><path codeLine="328" d="M1028.47,192.5377 C1010.68,204.9277 986.81,221.3877 965.5,235.5977 C948.39,247.0077 933.9483,256.3407 918.9783,265.8907" fill="none" id="badgeAward-to-contributor" style="stroke:#666666;stroke-width:1;"/><polygon fill="#666666" points="913.92,269.1177,923.6588,267.6495,918.1353,266.4285,919.3562,260.905,913.92,269.1177" style="stroke:#666666;stroke-width:1;"/></g><!--link badgeAward to activity--><g class="link" data-entity-1="badgeAward" data-entity-2="activity" data-source-line="329" data-uid="lnk46" id="link_badgeAward_activity"><path codeLine="329" d="M992.7,187.3177 C893.42,209.0177 707.4916,249.6365 611.3216,270.6565" fill="none" id="badgeAward-to-activity" style="stroke:#666666;stroke-width:1;"/><polygon fill="#666666" points="605.46,271.9377,615.1065,273.9236,610.3447,270.87,613.3983,266.1081,605.46,271.9377" style="stroke:#666666;stroke-width:1;"/></g><!--SRC=[lLbVKnit47-_Jo78WvDfxIOqxOE7m026XXacP0nj7ZATZdotjbLqfwkaWpWTldjt9TsTpjZ6aBQ6WRlLIjh_-vFSOnzK0KnDcPs30MQgibJQCgwrkZDCQJ4J1RUYcB6fLZaJHIPkHLPnoQO2P6QItawf-IpdJFA5gYmpELXUy0Tqa3SFQBVYwvycIQom4jZk-qK9EWNS_NGysasI7ZjHnLJCAeq2g8BTSYtuH899TiIqo63AhjvVVlhZxFpqOdILx211e2eHZKsvD93i00ezJMWMUnaFltl7TXtBxgjaBZ9Wa9TsKIiMfaK3gDbSuOWZ6GiQb4MPKODwy_7fR-Udd_uukRou7BCNPsTdHoUZPl1eFBvindvsdoJPDtOXuI39L5hbK5ZsTyBmuqtYd-bpfWfx9Ru2stlRfT5iDb4oS-Jxv3v99JTc9FXCypoiuBmPhNQ1ufmegNGiKsVTpQDEaZUlmvRqTo2vdi4noX5jCmUUWOu8NKrUFwHtjMcN9xtsVmYcye5XjPXKLcc3sW7JK6gCty92nYOBDZeVKV2oUPNpegzH3WeSz9d6ICQOfMZNC5KuCrEiK1ON-AiI-9gh3AIaUByLd66amXUHgcAGuDe2Oo1jToO7ZzuU_HWKN1bULbSKNJIECf581S_XXz90bQbYaVkPFjBkIJEbPuDvdGXcWCuK-O2d5hCET- -ZuC8m_4K5MCv5WOAdIcSuip412SzPiyWWoRZbBYfOiz3-VkEmWmFsulZjwK-ZrrigucBJFPavreeHc5IBabBK4RFs_T0HHCvdu1_lbBwvIbKPNetbE9zRlnfQeNbkp8ohcC-_UtQfKjukYwLfRer_BhNw4rBhNrBqDyR1aTtEk83r38eK8ZFLf2qDOgf9j3jAZavun5A7gqsbGJeDhnUrYPweJ0xSL1geaaJwHDJdg1IcQtH4U4VVfExnbiiAQY8MnrPm__xh-Do_rYP5mcftFjbhkBERtl5RJNoEcgRASwuNGLotacfq3cwjPOyiseIdmKI4RzSi3lr8jvYyfNPQIJZifbEhq8FOQvBnCCx6nrJWPJaWwGLspMnGAnx9NPEsb5cMls6WrRN4QDCnA8LNX-1UgAIkIQZrWf_KGhC9psPWs4kIcNcXlsFyZkiC_sD9BR44mQj89JTXH4rTF44pDwjHe2qDr5vM2y-bL7UGdHjJkUJRhDAIV4TEWIU85YU4DwjwpFrBMuw3hPwognCpr3u_spSAeEh-hFpnVI6IpHEspHd7_04ZAdfjlEPVbpiUjxZLd6h1CnDUIhJvShhNn6_koY6ORd5jNPU3Mz0VvyggCEPXWO2csZrDWz1-8_43vJz25DlgygG-OzKC21QYpAZdMOKdZFyRN4xTfly7hgITK8u1eaT0oqQU2oDZFx2j0vNxHqT4_w22TtYkgW26qafhH02-lvPyGVaova8UneGFO0aZUfhLl33S9S5vTjZKf83vLEfMH4y-ujXxrgDknce7apa-N5wV3XimZM-jDxvds2Vne8i7F9wXwwQKXnW81LD5EaV8JHvMDr28hxwnuU4P1njexG7vWB4hnOJ54C3UGa5G011CR_PXMTD11WdcYrMOytxbPNX-TdRyyycRBNtnKXLz9oVAAnUl7aH2E7lF1KANf1T1fdu_-un7MuHfl_SF6i2sWIK6cxqOOtQuQiFGGW5Mz_MQLTg3Zemud4tYwQkNZqhc6ewwAZqs78lN88rUArmLZKVGQXtBgYLY2KB7wdKWNaU8pYPB6TfVmvUqVXiEGrz71qQUZHbYGEkuOhUiMwan7ORLULugOmHLGgiOPfhFBdUxLB0xWQS1kXt2BBsZ0bYLxWZhWp6EiU6mGOpz_kT2OGsuwHWHzpAgoS-Stm3cLCQBcIki_ggZCk4Gx2pZGLrYRaHHSheLyPNEfzCnJszc6gjKvkuyzlT_cIjZCUkkgVeWVtsOEyQi1lq8qwahv1kOmlqCsyKVReA05q6tDwoPv2-PbeTJeLFPTLnahODb_cHJhUYn8uc6X8BSx9mHMulAeb4vt54lOxj8HXjPs2NdDgvO5g-_AgrsW2xXmcx_LfHG0jMn4GT7VTTNn_YwU8sYUtr8NpdzESeZSe45MIweiNLEqztDDrXxWzVtDdjzh_PwH-ODRj_xzrsxrt5jP6roxNfx16UqXNauRE7Pahb3yLtFqJ1qL6_BGiqu77OkZx2LzEFAIBmjQpWRzDigt8wjtgSTRze53jS8E8dtYIIXUyf-jq2p8HOlzFR4nTgrktx7FF2Gam23XxqJ3pfviUW25EBYw172DHvpiYnS-bAGegSrMStZYS6WDIJk6-0Bc2GWpgLnefeabfKOWgs6RCvDApBYDITBWB_iRYxIEMQob8ITGBkEJTAbX0H1OnsqYnx1v01Sbs0quLZsKhWl91QzO0fqmj7rHy98hmOuypqUYn7ruoaHjwMT45QZeJJYFypHYhx7K59azRSO4qWv4Mb5aXLNW2-b52aUEnQHcQdy86mYOPTwR0FKk_JXq7qfGexrXdmmZYdLN-xB3zP08yIHtZWWQK_8mw5xTdnBrmz9v-mT6Ftfl-7sf-nukRZcnTAjusbH4lgT2WYLQBDSe5VFZhfudIV_0000]--></g></svg>